<svg xmlns="http://www.w3.org/2000/svg" viewBox="0 0 2048 2048"><path d="M640 1280q27 0 50 10t40.5 27.5T758 1358t10 50-10 50-27.5 40.5T690 1526t-50 10-50-10-40.5-27.5T522 1458t-10-50 10-50 27.5-40.5T590 1290t50-10zm768-768q27 0 50 10t40.5 27.5T1526 590t10 50-10 50-27.5 40.5T1458 758t-50 10-50-10-40.5-27.5T1290 690t-10-50 10-50 27.5-40.5T1358 522t50-10zm602 257q38 36 38 87 0 24-9 46t-26 39l-79 80q-17 17-39.5 26t-45.5 9q-52 0-88-38l-743 743q38 36 38 88 0 23-9 45.5t-26 39.5l-80 79q-35 35-84 35-52 0-88-38l-1 1q-22-23-45-45.5t-46-44.5v-1l-231-231q-17-17-31.5-30t-28-26-27-27-28.5-32q-1-1-13-25l-27-54-28-56-15-31h-94l-45 45-90-90 83-83h83L40 991q-20-40-30-77T0 832q0-28 5-60.5T20.5 707 46 646t36-49L600 82q20-20 48.5-35.5t60-26T772 5t60-5q45 0 82 10t77 30l289 145v-83l83-83 90 90-45 45v94q5 2 31 15l56 28 54 27 25 13q18 15 32 29t27 27.5 26 27.5 30 31l231 231h1q22 23 44.5 46t45.5 45zM128 832q0 29 6 51t19 48l121 241 898-898-243-122q-24-12-47-18t-50-6q-17 0-37 3t-40.5 9.5T716 156t-30 21L177 683q-12 12-21.5 30.5T140 753t-9 41.5-3 37.5zm992 645l357-357-8-8-140-47-264 264 47 140zm448-447q66-66 130.5-131T1829 768l-221-221q-16-16-28.5-30t-25-27-25.5-26-31-27q-1-1-15.5-8.5t-36-18-46.5-23-47.5-23.5-39-19.5T1293 334l-959 959q2 4 10.5 20.5t19.5 39 23.5 47.5 23 46.5 18 36 8.5 15.5q14 18 27 31t26 25.5 27 25 30 28.5l221 221q66-66 131-130.5t131-130.5l-30-29-81-244 376-376 244 81z"/></svg>