<svg xmlns="http://www.w3.org/2000/svg" viewBox="0 0 2048 2048"><path d="M2010 769q38 36 38 87 0 24-9 46t-26 39l-79 80q-17 17-39.5 26t-45.5 9q-52 0-88-38l-743 743q38 36 38 88 0 23-9 45.5t-26 39.5l-80 79q-35 35-84 35-52 0-88-38l-1 1q-22-23-45-45.5t-46-44.5v-1l-231-231q-17-17-31.5-30t-28-26-27-27-28.5-32q-1-1-13-25l-27-54-28-56-15-31h-94l-45 45-90-90 83-83h83L40 991q-20-40-30-77T0 832q0-28 5-60.5T20.5 707 46 646t36-49L600 82q20-20 48.5-35.5t60-26T772 5t60-5q45 0 82 10t77 30l289 145v-83l83-83 90 90-45 45v94q5 2 31 15l56 28 54 27 25 13q18 15 32 29t27 27.5 26 27.5 30 31l231 231h1q22 23 44.5 46t45.5 45zM768 1408q0-27-10-50t-27.5-40.5T690 1290t-50-10-50 10-40.5 27.5T522 1358t-10 50 10 50 27.5 40.5T590 1526t50 10 50-10 40.5-27.5T758 1458t10-50zm640-640q27 0 50-10t40.5-27.5T1526 690t10-50-10-50-27.5-40.5T1458 522t-50-10-50 10-40.5 27.5T1290 590t-10 50 10 50 27.5 40.5T1358 758t50 10zm-96 224l-320 320 64 192 448-448zM128 832q0 29 6 51t19 48l121 241 898-898-243-122q-24-12-47-18t-50-6q-17 0-37 3t-40.5 9.5T716 156t-30 21L177 683q-12 12-21.5 30.5T140 753t-9 41.5-3 37.5z"/></svg>