<svg width="1792" height="1792" viewBox="0 0 1792 1792" xmlns="http://www.w3.org/2000/svg"><path transform="scale(1.75 1.75) translate(0 0)" d="M1005 384.5q19 18 19 43.5 0 12-4.5 23t-13 19.5l-39.5 40q-8.5 8.5-19.75 13t-22.75 4.5q-26 0-44-19l-371.5 371.5q19 18 19 44 0 11.5-4.5 22.75t-13 19.75l-40 39.5q-17.5 17.5-42 17.5-26 0-44-19l-.5.5q-11-11.5-22.5-22.75t-23-22.25v-.5l-115.5-115.5q-8.5-8.5-15.75-15t-14-13-13.5-13.5-14.25-16q-.5-.5-6.5-12.5l-27.5-55-7.5-15.5h-47l-22.5 22.5-45-45 41.5-41.5h41.5l-72.5-144.5q-10-20-15-38.5t-5-41q0-14 2.5-30.25t7.75-32.25 12.75-30.5 18-24.5l259-257.5q10-10 24.25-17.75t30-13 31.75-7.75 30-2.5q22.5 0 41 5t38.5 15l144.5 72.5v-41.5l41.5-41.5 45 45-22.5 22.5v47q2.5 1 15.5 7.5l55 27.5 12.5 6.5q9 7.5 16 14.5t13.5 13.75 13 13.75 15 15.5l115.5 115.5h.5q11 11.5 22.25 23t22.75 22.5zm-621 319.5q0-13.5-5-25t-13.75-20.25-20.25-13.75-25-5-25 5-20.25 13.75-13.75 20.25-5 25 5 25 13.75 20.25 20.25 13.75 25 5 25-5 20.25-13.75 13.75-20.25 5-25zm320-320q13.5 0 25-5t20.25-13.75 13.75-20.25 5-25-5-25-13.75-20.25-20.25-13.75-25-5-25 5-20.25 13.75-13.75 20.25-5 25 5 25 13.75 20.25 20.25 13.75 25 5zm-48 112l-160 160 32 96 224-224zm-592-80q0 14.5 3 25.5t9.5 24l60.5 120.5 449-449-121.5-61q-12-6-23.5-9t-25-3q-8.5 0-18.5 1.5t-20.25 4.75-19.25 7.75-15 10.5l-254.5 253q-6 6-10.75 15.25t-7.75 19.75-4.5 20.75-1.5 18.75z"/></svg>