<svg width="1792" height="1792" viewBox="0 0 1792 1792" xmlns="http://www.w3.org/2000/svg"><path transform="scale(1.75 1.75) translate(0 0)" d="M512 0q70.5 0 136 18.25t122.5 51.5 103.75 80 80 103.75 51.5 122.5 18.25 136q0 27.5-5.25 57.25t-15.75 58.25-26.5 54-37.25 44.75-48.25 30.5-59 11.25q-27 0-52.75-7.25t-47.75-20.75-40.25-33-30.25-44q-15 23.5-34.5 42.75t-42.5 33.25-49.25 21.5-54.75 7.5q-51 0-92.5-22.25t-70.75-58.25-45-82-15.75-93.5 15.75-93.5 45-82 70.75-58.25 92.5-22.25q47.5 0 88.25 20.5t71.75 56v-76.5h64v320q0 26.5 10 49.75t27.5 40.75 40.75 27.5 49.75 10q22 0 40.25-9.25t32.5-24.5 24.75-35 17.25-41.25 10-42.75 3.25-39.25q0-61.5-16-118.75t-45.25-107-70.25-90.75-90.75-70.25-107-45.25-118.75-16-118.75 16-107 45.25-90.75 70.25-70.25 90.75-45.25 107-16 118.75 16 118.75 45.25 107 70.25 90.75 90.75 70.25 106.75 45.25 119 16q89 0 171.5-34l24.5 59q-47 19.5-96.25 29.25t-99.75 9.75q-70.5 0-136-18.25t-122.5-51.5-103.75-80-80-103.75-51.5-122.25-18.25-136.25q0-70.5 18.25-136t51.5-122.5 80-103.75 103.75-80 122.25-51.5 136.25-18.25zm-32 704q37.5 0 67.25-17.25t50.25-44.75 31.5-61.75 11-68.25-11-68.25-31.5-61.75-50.25-44.75-67.25-17.25-67.25 17.25-50.25 44.75-31.5 61.75-11 68.25 11 68.25 31.5 61.75 50.25 44.75 67.25 17.25z"/></svg>