<svg width="1792" height="1792" viewBox="0 0 1792 1792" xmlns="http://www.w3.org/2000/svg"><path transform="scale(1.75 1.75) translate(0 0)" d="M832 579.5q41 6 76.25 25.5t61 49 40.25 67 14.5 79q0 46.5-17.5 87.25t-48 71.25-71.25 48-87.25 17.5q-37 0-71.25-11.75t-62.25-32.75-48.75-50.5-31.25-65h21.5q46.5 0 87.25-17.75t71-48 48-71 17.75-87.25v-60.5zm-32 380.5q33 0 62.25-12.5t51-34.25 34.25-51 12.5-62.25q0-39-17-72.25t-48.5-56.25q-5 43-22 82t-43.5 70.75-61.75 55.5-76.75 36.25q24 21.5 50.75 32.75t58.75 11.25zm224-960v619q-20.5-25.5-45.75-45.5t-54-33.5-60.25-20.75-64-7.25h-32v128q0 33-12.75 62.25t-34.5 51-50.75 34.25-62 12.5h-96q0 45.5 14 88.75t41 80.25l-55 55-192-192h-320v-832h1024zm-448 576h-384v64h384v-64zm256-192h-640v64h640v-64zm0-192h-640v64h640v-64z"/></svg>