<svg width="1792" height="1792" viewBox="0 0 1792 1792" xmlns="http://www.w3.org/2000/svg"><path transform="scale(1.75 1.75) translate(0 0)" d="M1024 0v594.5q-14-15.5-30.25-28.75t-33.75-24.25v-477.5h-896v704h282.5l211 210.5-45.5 45.5-192-192h-320v-832h1024zm-201.5 578.5q42.5 4 79.5 23t64 48.75 42.5 68.25 15.5 81.5q0 46.5-17.5 87.25t-48 71.25-71.25 48-87.25 17.5q-37.5 0-71.75-12t-62.5-33.25-49-51-31.25-65.75q5.5.5 11.25 1.25t11.25.75q46.5 0 87.25-17.75t71-48 48-71 17.75-87.25q0-16-2.75-31.25t-6.75-30.25zm-22.5 381.5q33 0 62.25-12.5t51-34.25 34.25-51 12.5-62.25q0-39.5-17-72t-48.5-56.5q-5 43-22 82t-43.5 71-61.75 55.5-76.75 36q22.5 21 50.5 32.5t59 11.5z"/></svg>