<svg width="1792" height="1792" viewBox="0 0 1792 1792" xmlns="http://www.w3.org/2000/svg"><path transform="scale(1.75 1.75) translate(0 0)" d="M1024 832v64h-128v128h-64v-128h-128v-64h128v-128h64v128h128zm-504-359q47.5 18 88.25 47.5t72.25 67.75 52.5 84 29.5 95.75h-65q-11.5-56-40.5-103t-70.75-81-93.5-53-108.75-19q-44 0-85 11.5t-76.5 32.25-64.75 50-50 64.75-32.25 76.5-11.5 85h-64q0-60 17.75-115.5t50.25-102.5 78.25-83.5 101.75-57.5q-56.5-37-88.25-93t-31.75-124q0-53 20-99.75t54.75-81.5 81.5-54.75 99.75-20 99.75 20 81.5 54.75 54.75 81.5 20 99.75q0 33-8.25 64.5t-23.75 59.5-37.75 51.75-50.25 41.25zm-328-217q0 40 15 74.75t41.25 61 61 41.25 74.75 15q39.5 0 74.5-15t61.25-41.25 41.25-61 15-74.75q0-39.5-15-74.5t-41.25-61.25-61.25-41.25-74.5-15q-40 0-74.75 15t-61 41.25-41.25 61.25-15 74.5z"/></svg>