<svg xmlns="http://www.w3.org/2000/svg" viewBox="0 0 2048 2048"><path d="M1920 768h-128v640h128v384h-384v-120l-384 191v185H768v-185l-384-191v120H0v-384h128V768H0V384h369l399-199V0h384v185l399 199h369v384zm-256-256v128h128V512h-128zM896 128v128h128V128H896zm256 256H768v-57L384 520v49l384 191V640h384v120l384-191v-49l-384-193v57zM896 896h128V768H896v128zM128 512v128h128V512H128zm128 1152v-128H128v128h128zm128-136l384 193v-57h128v-640H768V904L384 711v57H256v640h128v120zm640 392v-128H896v128h128zm768-256v-128h-128v128h128zm-128-256V768h-128v-57l-384 193v120h-128v640h128v57l384-193v-120h128z"/></svg>