<svg width="1792" height="1792" viewBox="0 0 1792 1792" xmlns="http://www.w3.org/2000/svg"><path transform="scale(1.75 1.75) translate(0 0)" d="M960 384h-64v320h64v192h-192v-60l-192 95.5v92.5h-192v-92.5l-192-95.5v60h-192v-192h64v-320h-64v-192h184.5l199.5-99.5v-92.5h192v92.5l199.5 99.5h184.5v192zm-128-128v64h64v-64h-64zm-384-192v64h64v-64h-64zm128 128h-192v-28.5l-192 96.5v24.5l192 95.5v-60h192v60l192-95.5v-24.5l-192-96.5v28.5zm-128 256h64v-64h-64v64zm-384-192v64h64v-64h-64zm64 576v-64h-64v64h64zm64-68l192 96.5v-28.5h64v-320h-64v-60l-192-96.5v28.5h-64v320h64v60zm320 196v-64h-64v64h64zm384-128v-64h-64v64h64zm-64-128v-320h-64v-28.5l-192 96.5v60h-64v320h64v28.5l192-96.5v-60h64z"/></svg>