<svg width="1792" height="1792" viewBox="0 0 1792 1792" xmlns="http://www.w3.org/2000/svg"><path transform="scale(1.75 1.75) translate(0 0)" d="M64 576h320v64h-384v-512h896v206q-16.5-5.5-31.75-14.5t-32.25-15.5v-112h-768v384zm672-192q29.5 0 54 7t50 21.5q21.5 12.5 44 19.5t45.5 10.5 46.75 4.5 47.75 1v198.5q0 44-11.5 83.5t-31.75 74.75-47.75 66.25-59.5 57.75-67 49.75-70.5 42q-35.5-19-70.5-42t-67-49.75-59.5-57.75-47.75-66.25-31.75-74.75-11.5-83.5v-198.5q24.5 0 47.75-1t46-4.5 44.75-10.5 44-19.5q25.5-14.5 50.5-21.5t55-7zm224 127q-5-.5-18.25-2.5t-30-5.5-35.25-8-34-9.25-25.75-9.75-10.75-9.5q-15.5-10-33.5-14.25t-36.5-4.25q-19 0-37 4.5t-34 14q-.5 0-.75.75t-.75.25q-34.5 20-73.25 30.5t-78.25 13v135.5q0 51.5 19.5 96t51.25 82 72 68 81.25 54.5q41-24 81.25-54.5t72-68 51.25-82 19.5-96v-135.5z"/></svg>