<svg width="1792" height="1792" viewBox="0 0 1792 1792" xmlns="http://www.w3.org/2000/svg"><path transform="scale(1.75 1.75) translate(0 0)" d="M896 384q26 0 49.5 10.25t40.75 27.5 27.5 40.75 10.25 49.5q0 26.5-10.25 49.75t-27.5 40.5-40.75 27.5-49.5 10.25h-224l-192 384h-224l128-384h-128l-32 64h-224l64-192-64-192h224l32 64h128l-128-384h224l192 384h224zm0 192q13.5 0 25-5t20.25-13.75 13.75-20.25 5-25-5-25-13.75-20.25-20.25-13.75-25-5h-263.5q-49.5-96-96.5-191.75t-95.5-192.25h-95.5q32 96.5 63.5 192.25t64.5 191.75h-256.5l-32-64h-95.5q10.5 32 20.75 64t21.75 64q-11.5 32-21.75 64t-20.75 64h95.5l32-64h256.5q-33 96-64.5 191.75t-63.5 192.25h95.5q48.5-96.5 95.5-192.25t96.5-191.75h263.5z"/></svg>