<svg xmlns="http://www.w3.org/2000/svg" viewBox="0 0 2048 2048"><path d="M1792 768q52 0 99 20.5t81.5 55 55 81.5 20.5 99q0 53-20.5 99.5t-55 81-81.5 55-99 20.5h-448l-384 768H512l256-768H512l-64 128H0l128-384L0 640h448l64 128h256L512 0h448l384 768h448zm0 384q27 0 50-10t40.5-27.5 27.5-40.5 10-50-10-50-27.5-40.5T1842 906t-50-10h-527q-99-192-193-383.5T881 128H690q64 193 127 384.5T946 896H433l-64-128H178q21 64 41.5 128t43.5 128q-23 64-43.5 128T178 1280h191l64-128h513q-66 192-129 383.5T690 1920h191q97-193 191-384.5t193-383.5h527z"/></svg>