<svg width="1792" height="1792" viewBox="0 0 1792 1792" xmlns="http://www.w3.org/2000/svg"><path transform="scale(1.75 1.75) translate(0 0)" d="M1024 704v-192h-191.988v192h191.988zm-63.995-128v64h-63.996v-64h63.996zm63.995-128v-192h-191.988v192h191.988zm-63.995-128v64h-63.996v-64h63.996zm63.995-128v-192h-191.988v192h191.988zm-63.995-128v64h-63.996v-64h63.996zm-255.985 320v-64h-575.965v64h575.965zm-447.973 192v64h447.973v-64h-447.973zm447.973-512h-703.955v64h703.955v-64zm319.98 896v-192h-191.988v192h191.988zm-63.995-128v64h-63.996v-64h63.996zm-255.985 64v-64h-575.965v64h575.965z"/></svg>