<svg width="1792" height="1792" viewBox="0 0 1792 1792" xmlns="http://www.w3.org/2000/svg"><path transform="scale(1.75 1.75) translate(0 0)" d="M557.5 512h338.5l-64 64h-338.5l-157 156.5q22.5 18 35 44.25t12.5 55.25q0 26.5-10.25 49.75t-27.5 40.5-40.75 27.5-49.5 10.25q-26.5 0-49.75-10.25t-40.5-27.5-27.5-40.5-10.25-49.75q0-26 10.25-49.5t27.5-40.75 40.5-27.5 49.75-10.25l17.5 1 129-129h-163.5q-17.5 29.5-47 46.75t-64 17.25q-26.5 0-49.75-10.25t-40.5-27.5-27.5-40.5-10.25-49.75q0-26 10.25-49.5t27.5-40.75 40.5-27.5 49.75-10.25q26 0 49.5 10.25t40.75 27.5 27.5 40.75 10.25 49.5h210.5l256-256h91zm-429.5 64q13.5 0 25-5t20.25-13.75 13.75-20.25 5-25-5-25-13.75-20.25-20.25-13.75-25-5-25 5-20.25 13.75-13.75 20.25-5 25 5 25 13.75 20.25 20.25 13.75 25 5zm128 320q13.5 0 25-5t20.25-13.75 13.75-20.25 5-25-5-25-13.75-20.25-20.25-13.75-25-5-25 5-20.25 13.75-13.75 20.25-5 25 5 25 13.75 20.25 20.25 13.75 25 5zm704-768h64v64h-64v-64zm64-128v64h-64v-64h64zm-192 0h64v64h-64v-64zm-64 64h-64v-64h64v64zm-128 0h-64v-64h64v64zm-128 0h-64v-64h64v64zm-128 0h-64v-64h64v64zm-128 0h-64v-64h64v64zm0 128h-64v-64h64v64zm0 128h-64v-64h64v64zm704-64h64v64h-64v-64zm0 128h64v64h-64v-64zm0 128h64v64h-64v-64zm0 128h64v64h-64v-64zm0 128h64v64h-64v-64zm-128 0h64v64h-64v-64zm-128 0h64v64h-64v-64zm-128 0h64v64h-64v-64zm-128 0h64v64h-64v-64z"/></svg>