<svg xmlns="http://www.w3.org/2000/svg" viewBox="0 0 2048 2048"><path d="M1115 1024h677l-128 128H987l-314 313q45 36 70 88.5t25 110.5q0 53-20.5 99.5t-55 81-81.5 55-99 20.5q-53 0-99.5-20.5t-81-55-55-81T256 1664q0-52 20.5-99t55-81.5 81-55T512 1408l35 2 258-258H478q-35 59-94 93.5T256 1280q-53 0-99.5-20.5t-81-55-55-81T0 1024q0-52 20.5-99t55-81.5 81-55T256 768q52 0 99 20.5t81.5 55 55 81.5 20.5 99h421l512-512h182zm-859 128q27 0 50-10t40.5-27.5T374 1074t10-50-10-50-27.5-40.5T306 906t-50-10-50 10-40.5 27.5T138 974t-10 50 10 50 27.5 40.5T206 1142t50 10zm256 640q27 0 50-10t40.5-27.5T630 1714t10-50-10-50-27.5-40.5T562 1546t-50-10-50 10-40.5 27.5T394 1614t-10 50 10 50 27.5 40.5T462 1782t50 10zM1920 256h128v128h-128V256zM2048 0v128h-128V0h128zm-384 0h128v128h-128V0zm-128 128h-128V0h128v128zm-256 0h-128V0h128v128zm-256 0H896V0h128v128zm-256 0H640V0h128v128zm-256 0H384V0h128v128zm0 256H384V256h128v128zm0 256H384V512h128v128zm1408-128h128v128h-128V512zm0 256h128v128h-128V768zm0 256h128v128h-128v-128zm0 256h128v128h-128v-128zm0 256h128v128h-128v-128zm-256 0h128v128h-128v-128zm-256 0h128v128h-128v-128zm-256 0h128v128h-128v-128zm-256 0h128v128H896v-128z"/></svg>