<svg width="1792" height="1792" viewBox="0 0 1792 1792" xmlns="http://www.w3.org/2000/svg"><path transform="scale(1.75 1.75) translate(0 0)" d="M0 192v-64h64v64h-64zm0 128v-64h64v64h-64zm0 128v-64h64v64h-64zm0 128v-64h64v64h-64zm0 256v-64h64v64h-64zm128-640v-64h64v64h-64zm0 640v-64h64v64h-64zm832 0v-64h64v64h-64zm-960-128v-64h64v64h-64zm960 0v-64h64v64h-64zm0-128v-64h64v64h-64zm0-128v-64h64v64h-64zm0-128v-64h64v64h-64zm0-192h64v64h-64v-64zm-128 704v-64h64v64h-64zm0-640v-64h64v64h-64zm-576 640v-704h512v704h-512zm64-640v576h384v-576h-384z"/></svg>