<svg width="1792" height="1792" viewBox="0 0 1792 1792" xmlns="http://www.w3.org/2000/svg"><path transform="scale(1.75 1.75) translate(0 0)" d="M1024 768.5h-456q-11.5 42-35.25 77.25t-56.5 60.75-72.75 39.5-83.5 14q-53 0-99.75-20t-81.5-54.75-54.75-81.5-20-99.75v-192h-64v-384h192v384h-64v192q0 39.5 15.25 74.5t41.25 61 61 41.25 74.5 15.25q30.5 0 58.75-9.25t52-26 41.75-40.25 28.5-52h-245v-640h146l64-64h346.5l64 64h147.5v640zm-896-320.5v-128h-64v128h64zm-64-256v64h64v-64h-64zm896 .5h-110l-64-64h-293.5l-64 64h-108.5v512h192v-.5h64v.5h384v-512zm-320 64q39.5 0 74.5 15.25t61 41.25 41.25 61 15.25 74.5-15.25 74.5-41.25 61-61 41.25-74.5 15.25-74.5-15.25-61-41.25-41.25-61-15.25-74.5 15.25-74.5 41.25-61 61-41.25 74.5-15.25zm0 320q26 0 49.5-10.25t40.75-27.5 27.5-40.5 10.25-49.75q0-26-10.25-49.5t-27.5-40.75-40.75-27.5-49.5-10.25q-26.5 0-49.75 10.25t-40.5 27.5-27.5 40.75-10.25 49.5q0 26.5 10.25 49.75t27.5 40.5 40.5 27.5 49.75 10.25zm-224-320q13 0 22.25 9.25t9.25 22.25-9.25 22.25-22.25 9.25-22.25-9.25-9.25-22.25 9.25-22.25 22.25-9.25z"/></svg>