<svg width="1792" height="1792" viewBox="0 0 1792 1792" xmlns="http://www.w3.org/2000/svg"><path transform="scale(1.75 1.75) translate(0 0)" d="M768 192v608q0 46.5-17.75 87.25t-48 71-71 48-87.25 17.75-87.25-17.75-71-48-48-71-17.75-87.25v-640q0-33 12.75-62t34.5-50.75 50.75-34.5 62-12.75 62 12.75 50.75 34.5 34.5 50.75 12.75 62v640q0 20-7.5 37.5t-20.5 30.5-30.5 20.5-37.5 7.5-37.5-7.5-30.5-20.5-20.5-30.5-7.5-37.5v-544h64v544q0 13 9.5 22.5t22.5 9.5 22.5-9.5 9.5-22.5v-640q0-20-7.5-37.5t-20.5-30.5-30.5-20.5-37.5-7.5-37.5 7.5-30.5 20.5-20.5 30.5-7.5 37.5v640q0 33 12.75 62t34.5 50.75 50.75 34.5 62 12.75 62-12.75 50.75-34.5 34.5-50.75 12.75-62v-608h64z"/></svg>