<svg width="1792" height="1792" viewBox="0 0 1792 1792" xmlns="http://www.w3.org/2000/svg"><path transform="scale(1.75 1.75) translate(0 0)" d="M320 592q0 25.5-11 46.25t-29 35.5-41 22.5-47 7.75-47-7.75-41-22.5-29-35.5-11-46.25 11-46.25 29-35.5 41-22.5 47-7.75q16.5 0 33 3.75t31 11.25v-431h64q0 32 14.25 57.5t38.25 46q35 30 55.25 67.75t20.25 84.75h-64q0-31.5-14.25-57.75t-38.25-45.75l-6-5-5.5-5v385.5zm-128 48q10 0 21.25-3t20.75-9 15.75-15 6.25-21-6.25-21-15.75-15-20.75-9-21.25-3-21.25 3-20.75 9-15.75 15-6.25 21 6.25 21 15.75 15 20.75 9 21.25 3zm768 144q0 25.5-11 46.25t-29 35.5-41 22.5-47 7.75-47-7.75-41-22.5-29-35.5-11-46.25 11-46.25 29-35.5 41-22.5 47-7.75q16.5 0 33 3.75t31 11.25v-334l-320 80v415q0 25.5-11 46.25t-29 35.5-41 22.5-47 7.75-47-7.75-41-22.5-29-35.5-11-46.25 11-46.25 29-35.5 41-22.5 47-7.75q16.5 0 33 3.75t31 11.25v-368l448-112v513zm-512 112q10 0 21.25-3t20.75-9 15.75-15 6.25-21-6.25-21-15.75-15-20.75-9-21.25-3-21.25 3-20.75 9-15.75 15-6.25 21 6.25 21 15.75 15 20.75 9 21.25 3zm384-64q10 0 21.25-3t20.75-9 15.75-15 6.25-21-6.25-21-15.75-15-20.75-9-21.25-3-21.25 3-20.75 9-15.75 15-6.25 21 6.25 21 15.75 15 20.75 9 21.25 3z"/></svg>