<svg xmlns="http://www.w3.org/2000/svg" viewBox="0 0 2048 2048"><path d="M640 1184q0 51-22 92.5t-58 71-82 45-94 15.5-94-15.5-82-45-58-71-22-92.5 22-92.5 58-71 82-45 94-15.5q33 0 66 7.5t62 22.5V128h128q0 64 28.5 115t76.5 92q70 60 110.5 135.5T896 640H768q0-63-28.5-115.5T663 433l-12-10-11-10v771zm-256 96q20 0 42.5-6t41.5-18 31.5-30 12.5-42-12.5-42-31.5-30-41.5-18-42.5-6-42.5 6-41.5 18-31.5 30-12.5 42 12.5 42 31.5 30 41.5 18 42.5 6zm1536 288q0 51-22 92.5t-58 71-82 45-94 15.5-94-15.5-82-45-58-71-22-92.5 22-92.5 58-71 82-45 94-15.5q33 0 66 7.5t62 22.5V706l-640 160v830q0 51-22 92.5t-58 71-82 45-94 15.5-94-15.5-82-45-58-71-22-92.5 22-92.5 58-71 82-45 94-15.5q33 0 66 7.5t62 22.5V766l896-224v1026zM896 1792q20 0 42.5-6t41.5-18 31.5-30 12.5-42-12.5-42-31.5-30-41.5-18-42.5-6-42.5 6-41.5 18-31.5 30-12.5 42 12.5 42 31.5 30 41.5 18 42.5 6zm768-128q20 0 42.5-6t41.5-18 31.5-30 12.5-42-12.5-42-31.5-30-41.5-18-42.5-6-42.5 6-41.5 18-31.5 30-12.5 42 12.5 42 31.5 30 41.5 18 42.5 6z"/></svg>