<svg width="1792" height="1792" viewBox="0 0 1792 1792" xmlns="http://www.w3.org/2000/svg"><path transform="scale(1.75 1.75) translate(0 0)" d="M896 384v384q0 .5 4.5 13.75t11.25 33.5l14.75 44.25 15 45.25 12.25 36.5 6.25 18.75h-960q1-3.5 6.25-18.75t12.25-36.5 15-45.25l14.75-44.25 11.25-33.5 4.5-13.75v-384h-64v-64l480-240 480 240v64h-64zm-753-64h674l-337-168.5zm625 64v384h64v-384h-64zm-128 0v384h64v-384h-64zm-128 0v384h64v-384h-64zm-128 0v384h64v-384h-64zm-128 0v384h64v-384h-64zm-128 384h64v-384h-64v384zm743 128l-21-64h-740l-21 64h782z"/></svg>