<svg width="1792" height="1792" viewBox="0 0 1792 1792" xmlns="http://www.w3.org/2000/svg"><path transform="scale(1.75 1.75) translate(0 0)" d="M960 320q0 29.5-9 57.25t-25 51.5-39 42-50.5 28.75l97.5 486q.5 2 .5 5.5 0 13.5-9 23.25t-23 9.75h-358.5q-13 0-22.5-9.5t-9.5-22.5 9.5-22.5 22.5-9.5h63.5l-51.5-256h-180q-13 0-22.5-9.5t-9.5-22.5q0-9 6.25-17.25t13.75-18.75 13.75-24.75 6.25-35.25v-95.5l-163-32.5q-5.5-1-9.5-3.75t-8-6.75q-36-40.5-55.25-92.25t-19.25-105.75q0-28.5 5.5-57t16.25-55.25 26.25-51.25 35.5-44.5q10-10 23.5-10 6 0 20.5 2.75t31 6 31.75 6.75 22.75 5l489.5 98q28 5.5 51.5 20t40.75 35.5 26.75 47 9.5 54.5v23zm-64-23q0-17-5.75-32.5t-16-28-24.5-21.25-30.75-12.25l-451.5-90.5q-19.5 27.5-31.5 59t-14.5 65l570.5 114q4-16 4-30.5v-23zm-648.5-208.5q-26.5 32-40.5 70.75t-14 79.75q0 40.5 13.5 78.75t38.5 69.75l45 9q-16-32.5-24.5-68t-8.5-71.5q0-42 11-82t32-76zm296 551.5l-26.5-133-69-13.5q0 18.5.75 37t0 37-3.5 36.75-9.75 35.75h108zm224-163q0-12 7-20.5t18.5-11q19.5-4.5 35.5-13t30.5-23l-534.5-107q5.5 31 19 59t33 52.5l174 34.5q9.5 2 16.25 8.75t8.75 16.25l97 486.5h191l-95.5-477q-.5-2-.5-6z"/></svg>