<svg xmlns="http://www.w3.org/2000/svg" viewBox="0 0 2048 2048"><path d="M1920 640q0 59-18 114.5t-50 103-78 84-101 57.5l195 972q1 4 1 11 0 27-18 46.5t-46 19.5h-717q-26 0-45-19t-19-45 19-45 45-19h127l-103-512H752q-26 0-45-19t-19-45q0-18 12.5-34.5T728 1272t27.5-49.5T768 1152V961l-326-65q-11-2-19-7.5T407 875q-72-81-110.5-184.5T258 479q0-57 11-114t32.5-110.5T354 152t71-89q20-20 47-20 12 0 41 5.5t62 12T638.5 74 684 84l979 196q56 11 103 40t81.5 71 53.5 94 19 109v46zm-128-46q0-34-11.5-65t-32-56-49-42.5T1638 406L735 225q-39 55-63 118t-29 130l1141 228q8-32 8-61v-46zM495 177q-53 64-81 141.5T386 478q0 81 27 157.5T490 775l90 18q-32-65-49-136t-17-143q0-84 22-164t64-152zm592 1103l-53-266-138-27q0 37 1.5 74t0 74-7 73.5T871 1280h216zm448-326q0-24 14-41t37-22q39-9 71-26t61-46L649 605q11 62 38 118t66 105l348 69q19 4 32.5 17.5T1151 947l194 973h382l-191-954q-1-4-1-12z"/></svg>