<svg width="1792" height="1792" viewBox="0 0 1792 1792" xmlns="http://www.w3.org/2000/svg"><path transform="scale(1.75 1.75) translate(0 0)" d="M928 544v64h-32v160h-704v-32h672v-320h-619.5q-4-9.5-9.5-16.25t-12-14.75l-.5-1h673.5v160h32zm-704.5-80q0 14-4.75 27t-13.25 23.5-20 18-25.5 10v225.5h-32v-225.5q-14-2.5-25.75-10t-20.25-18-13.25-23.5-4.75-27q0-16 6-30.5t17.5-26l56.5-56.5 56.5 56.5q11.5 11.5 17.25 26t5.75 30.5zm-127.5 0q0 15 8.75 27.75t23.25 17.25v-61h32v61q14.5-4.5 23.25-17.25t8.75-27.75q0-20-14-34l-34-34-34 34q-14 14-14 34zm96 101q29-14 46.5-41.25t17.5-59.75v-16h256v256h-320v-139z"/></svg>