<svg width="1792" height="1792" viewBox="0 0 1792 1792" xmlns="http://www.w3.org/2000/svg"><path transform="scale(1.75 1.75) translate(0 0)" d="M596 399.5q38.5 13.5 70.25 37.5t54.25 55.5 35 69 12.5 78.5q0 53-20.25 99.5t-55 81.25-81.25 55-99.5 20.25q-34 0-66.25-9.25t-61.75-26.25v163.5h-128v-896q0-26.5 10-49.75t27.5-40.75 40.75-27.5 49.75-10q53 0 99.5 20.25t81.25 55 55 81.25 20.25 99.5q0 38.5-11.25 75t-32.75 68.5zm-84-143.5q0-26.5-10-49.75t-27.5-40.75-40.75-27.5-49.75-10v256q26.5 0 49.75-10t40.75-27.5 27.5-40.75 10-49.75zm0 512q26.5 0 49.75-10t40.75-27.5 27.5-40.75 10-49.75-10-49.75-27.5-40.75-40.75-27.5-49.75-10h-128v128q0 26.5 10 49.75t27.5 40.75 40.75 27.5 49.75 10z"/></svg>