<svg width="1792" height="1792" viewBox="0 0 1792 1792" xmlns="http://www.w3.org/2000/svg"><path transform="scale(1.75 1.75) translate(0 0)" d="M650.5 555q-13.5 8.5-26.25 17.75t-24.25 20.75q-44.5-40-100.25-60.75t-115.75-20.75q-67 0-125.5 24.75t-101.75 68-68 101.75-24.75 125.5h-64q0-60 17.5-116t50-103.25 78.25-83.25 102.75-57q-27.5-17.5-49.75-41.25t-38-51.75-24.25-59.25-8.5-64.25q0-53 20.25-99.5t55-81.25 81.25-55 99.5-20.25 99.5 20.25 81.25 55 55 81.25 20.25 99.5q0 33-8.5 64.25t-24.25 59.25-38 51.75-49.75 41.25q37 13 69.75 34.25t61.25 48.25zm-458.5-299q0 39.5 15.25 74.5t41.25 61 61 41.25 74.5 15.25 74.5-15.25 61-41.25 41.25-61 15.25-74.5-15.25-74.5-41.25-61-61-41.25-74.5-15.25-74.5 15.25-61 41.25-41.25 61-15.25 74.5zm608 320q46.5 0 87.25 17.75t71 48 48 71 17.75 87.25-17.75 87.25-48 71-71 48-87.25 17.75-87.25-17.75-71-48-48-71-17.75-87.25 17.75-87.25 48-71 71-48 87.25-17.75zm0 384q23.5 0 46-6.75t42-19.75l-221.5-221.5q-13 19.5-19.75 42t-6.75 46q0 33 12.75 62t34.5 50.75 50.75 34.5 62 12.75zm133.5-72q13-19.5 19.75-42t6.75-46q0-33-12.75-62t-34.5-50.75-50.75-34.5-62-12.75q-23.5 0-46 6.75t-42 19.75z"/></svg>