<svg width="1792" height="1792" viewBox="0 0 1792 1792" xmlns="http://www.w3.org/2000/svg"><path transform="scale(1.75 1.75) translate(0 0)" d="M512 0q70.5 0 135.75 18.25t122.25 51.75 103.75 80.25 80.25 103.75 51.75 122.25 18.25 135.75-18.25 135.75-51.75 122.25-80.25 103.75-103.75 80.25-122.25 51.75-135.75 18.25-135.75-18.25-122.25-51.75-103.75-80.25-80.25-103.75-51.75-122.25-18.25-135.75 18.25-135.75 51.75-122.25 80.25-103.75 103.75-80.25 122.25-51.75 135.75-18.25zm0 960q82 0 156.75-28t136.75-81.5l-632-632q-53.5 62-81.5 136.75t-28 156.75q0 62 16 119.25t45.25 107 70 90.5 90.5 70 107 45.25 119.25 16zm338.5-154.5q53.5-62 81.5-136.75t28-156.75q0-62-16-119.25t-45.25-107-70-90.5-90.5-70-107-45.25-119.25-16q-82 0-156.75 28t-136.75 81.5z"/></svg>