<svg xmlns="http://www.w3.org/2000/svg" viewBox="0 0 2048 2048"><path d="M761 512q107 0 201.5 38t165 105.5 111.5 160 41 201.5q0 107-38 201.5t-105.5 165-160 111.5-201.5 41q-107 0-201.5-38t-165-105.5-111.5-160-41-201.5q0-107 38-201.5t105.5-165 160-111.5T761 512zm391 519q0-81-28-152t-78-124-119.5-84T775 640q-81 0-152 28t-124 78-84 119.5-31 151.5q0 81 28 152t78 124 119 84 152 31q81 0 152-28t124-78 84-119 31-152zm576-519q26 0 45 19t19 45-19 45-45 19-45-19-19-45 19-45 45-19zm64-256q53 0 99.5 20t81.5 55 55 81.5 20 99.5v1024q0 53-20 99.5t-55 81.5-81.5 55-99.5 20H256q-53 0-99.5-20T75 1717t-55-81.5T0 1536V512q0-53 20-99.5T75 331t81.5-55 99.5-20h1536zm128 256q0-27-10-50t-27.5-40.5T1842 394t-50-10H256q-27 0-50 10t-40.5 27.5T138 462t-10 50v1024q0 27 10 50t27.5 40.5T206 1654t50 10h1536q27 0 50-10t40.5-27.5 27.5-40.5 10-50V512z"/></svg>