<svg width="1792" height="1792" viewBox="0 0 1792 1792" xmlns="http://www.w3.org/2000/svg"><path transform="scale(1.75 1.75) translate(0 0)" d="M380.5 256q53.5 0 100.75 19t82.5 52.75 55.75 80 20.5 100.75q0 53.5-19 100.75t-52.75 82.5-80 55.75-100.75 20.5q-53.5 0-100.75-19t-82.5-52.75-55.75-80-20.5-100.75q0-53.5 19-100.75t52.75-82.5 80-55.75 100.75-20.5zm195.5 259.5q0-40.5-14-76t-39-62-59.75-42-75.75-15.5q-40.5 0-76 14t-62 39-42 59.75-15.5 75.75q0 40.5 14 76t39 62 59.5 42 76 15.5q40.5 0 76-14t62-39 42-59.5 15.5-76zm288-259.5q13 0 22.5 9.5t9.5 22.5-9.5 22.5-22.5 9.5-22.5-9.5-9.5-22.5 9.5-22.5 22.5-9.5zm32-128q26.5 0 49.75 10t40.75 27.5 27.5 40.75 10 49.75v512q0 26.5-10 49.75t-27.5 40.75-40.75 27.5-49.75 10h-768q-26.5 0-49.75-10t-40.75-27.5-27.5-40.75-10-49.75v-512q0-26.5 10-49.75t27.5-40.75 40.75-27.5 49.75-10h768zm64 128q0-13.5-5-25t-13.75-20.25-20.25-13.75-25-5h-768q-13.5 0-25 5t-20.25 13.75-13.75 20.25-5 25v512q0 13.5 5 25t13.75 20.25 20.25 13.75 25 5h768q13.5 0 25-5t20.25-13.75 13.75-20.25 5-25v-512z"/></svg>