<svg width="1792" height="1792" viewBox="0 0 1792 1792" xmlns="http://www.w3.org/2000/svg"><path transform="scale(1.75 1.75) translate(0 0)" d="M592 480q49.5 0 93.25 18.75t76.5 51.5 51.5 76.5 18.75 93.25-18.75 93.25-51.5 76.5-76.5 51.5-93.25 18.75h-400v-896h400q43 0 81 16.25t66.25 44.5 44.5 66.25 16.25 81-16.25 81-44.5 66.25-66.25 44.5-81 16.25zm-208-32h96q26 0 49.5-10.25t40.75-27.5 27.5-40.5 10.25-49.75q0-26-10.25-49.5t-27.5-40.75-40.75-27.5-49.5-10.25h-96v256zm128 384q26 0 49.5-10.25t40.75-27.5 27.5-40.5 10.25-49.75q0-26-10.25-49.5t-27.5-40.75-40.75-27.5-49.5-10.25h-128v256h128z"/></svg>