<svg width="1792" height="1792" viewBox="0 0 1792 1792" xmlns="http://www.w3.org/2000/svg"><path transform="scale(1.75 1.75) translate(0 0)" d="M480 256q46.5 0 87.25 17.5t71.25 48 48 71.25 17.5 87.25-17.5 87.25-48 71.25-71.25 48-87.25 17.5-87.25-17.5-71.25-48-48-71.25-17.5-87.25 17.5-87.25 48-71.25 71.25-48 87.25-17.5zm0 384q33 0 62-12.5t50.75-34.25 34.5-51 12.75-62.25-12.75-62-34.5-50.75-50.75-34.5-62-12.75-62.25 12.75-51 34.5-34.25 50.75-12.5 62 12.5 62.25 34.25 51 51 34.25 62.25 12.5zm32-448h-64v-192h64v192zm-64 576h64v192h-64v-192zm512-320v64h-192v-64h192zm-768 64h-192v-64h192v64zm61.5-213l-135.5-136 45-45 136 135.5zm453 362l135.5 136-45 45-136-135.5zm0-362l-45.5-45.5 136-135.5 45 45zm-453 362l45.5 45.5-136 135.5-45-45z"/></svg>