<svg width="1792" height="1792" viewBox="0 0 1792 1792" xmlns="http://www.w3.org/2000/svg"><path transform="scale(1.75 1.75) translate(0 0)" d="M992 0q13 0 22.5 9.5t9.5 22.5-9.5 22.5l-365 365q27 34.5 40.75 75t13.75 84q0 51.5-19.5 98.75t-56 83.75l-34 34-113.5 227-479-479 227-113.5 34-34q36.5-36.5 83.75-56t98.75-19.5q43.5 0 84 13.75t75 40.75l365-365q9.5-9.5 22.5-9.5zm-457.5 771.5l-282-282-142.5 71 353.5 353.5zm41.5-49q30.5-30 47.25-65.25t16.75-78.75q0-40.5-15.25-75.75t-41.75-61.75-61.75-41.75-75.75-15.25q-43.5 0-78.75 16.5t-65.25 47.5z"/></svg>