<svg width="1792" height="1792" viewBox="0 0 1792 1792" xmlns="http://www.w3.org/2000/svg"><path transform="scale(1.75 1.75) translate(0 0)" d="M128 704v-128h-128v-576h768v128h128v384h-64v-320h-64v384h-576v64h448v64h-512zm576-192v-448h-640v448h640zm-576-384h512v320h-512v-320zm64 256h384v-192h-384v192zm672 192q33 0 62 12.75t50.75 34.5 34.5 50.75 12.75 62-12.75 62-34.5 50.75-50.75 34.5-62 12.75q-23.5 0-46-6.75t-42-19.75l-152 151.5-45-45 151.5-152q-13-19.5-19.75-42t-6.75-46q0-33 12.75-62t34.5-50.75 50.75-34.5 62-12.75zm0 256q20 0 37.5-7.5t30.5-20.5 20.5-30.5 7.5-37.5-7.5-37.5-20.5-30.5-30.5-20.5-37.5-7.5-37.5 7.5-30.5 20.5-20.5 30.5-7.5 37.5 7.5 37.5 20.5 30.5 30.5 20.5 37.5 7.5z"/></svg>