<svg width="1792" height="1792" viewBox="0 0 1792 1792" xmlns="http://www.w3.org/2000/svg"><path transform="scale(1.75 1.75) translate(0 0)" d="M1024 320q-134.5 0-263.25-24.75t-254.75-72.25q-123-47-248.5-71t-257.5-24v-32q134.5 0 263.25 24.75t254.75 72.25q123 47 248.5 71t257.5 24v32zm-1024-64q137 0 266.25 24.75t257.25 73.25q122 46 246 70t254.5 24v64q-137 0-266.25-24.75t-257.25-73.25q-122-46-246-70t-254.5-24v-64zm1024 480q-138 0-269.5-25.25t-260-74.25q-120-45.5-243-69t-251.5-23.5v-96q138 0 269.5 25.5t260 74q120 46 243 69.25t251.5 23.25v96zm-1024-96q139.5 0 272.5 25.75t263 74.75q118.5 45 240 68.25t248.5 23.25v128q-139.5 0-272.5-25.75t-263-74.75q-118.5-45-240-68.25t-248.5-23.25v-128z"/></svg>