<svg xmlns="http://www.w3.org/2000/svg" viewBox="0 0 2048 2048"><path d="M1608 897q65 2 122 27.5t99 68.5 66.5 100.5T1920 1216v192h-128v-192q0-32-10.5-61.5t-29-54-44.5-42-57-26.5q6 29 9.5 59.5t3.5 60.5v256q0 7-1 13t-2 13l6-6q60 60 92 138t32 163-32 162.5-92 137.5l-90-90q42-42 64-95.5t22-113.5q0-68-31-132-31 100-90.5 183T1402 1923t-176.5 92-201.5 33-201.5-33-176.5-92-139.5-142-90.5-183q-31 64-31 132 0 60 22 113.5t64 95.5l-90 90q-60-60-92.5-137.5T256 1729t32.5-163 92.5-138l6 6q-1-7-2-13t-1-13v-256q0-30 3.5-60.5t9.5-59.5q-31 9-57 26.5t-44.5 42-29 54T256 1216v192H128v-192q0-65 24.5-122.5T219 993t99-68.5T440 897q31-70 80-135-57-10-105.5-38.5T331 653t-55-94.5T256 448V256h128v192q0 40 15 75t41 61 61 41 75 15h64v3q47-35 96-59-15-32-23.5-66.5T704 448q0-70 31-135L595 173l90-90 127 127q45-39 98.5-60.5T1024 128t113.5 21.5T1236 210l127-127 90 90-140 140q31 65 31 135 0 35-8.5 69.5T1312 584q26 13 49.5 27.5T1408 643v-3h64q40 0 75-15t61-41 41-61 15-75V256h128v192q0 58-20 110.5t-55 94.5-83.5 70.5T1528 762q49 65 80 135zm-584-641q-40 0-75 15t-61 41-41 61-15 75q0 50 24 90 42-11 83.5-17.5t84.5-6.5 84.5 6.5T1192 538q24-40 24-90 0-40-15-75t-41-61-61-41-75-15zm512 896q0-104-41-197t-110.5-163T1222 681t-198-41-198 41-162.5 111T553 955t-41 197v256q0 106 40.5 199t110 162.5 162.5 110 199 40.5 199-40.5 162.5-110 110-162.5 40.5-199v-256z"/></svg>