<svg xmlns="http://www.w3.org/2000/svg" viewBox="0 0 2048 2048"><path d="M1024 640q-80 0-149.5 30t-122 82.5T670 875t-30 149q0 80 30 149.5t82.5 122 122 82.5 149.5 30q79 0 149-30t122.5-82.5 82.5-122 30-149.5q0-64-22-128h134q8 32 12 64t4 64q0 106-40.5 199t-110 162.5-162.5 110-199 40.5-199-40.5-162.5-110T553 1223t-40-199 40-199 109.5-162.5 162.5-110 199-40.5q32 0 64 4t64 12v134q-64-22-128-22zm866 155q30 113 30 229 0 123-32 237.5t-90.5 214T1657 1657t-181.5 140.5-214 90.5-237.5 32-237.5-32-214-90.5T391 1657t-140.5-181.5T160 1262t-32-238q0-123 32-237.5t90.5-214T391 391t181.5-140.5T786 160t238-32q116 0 229 30l-101 101v8q-32-5-64-8t-64-3q-106 0-204 27.5T636.5 361 481 481 361 636.5 283.5 820 256 1024t27.5 204 77.5 183.5T481 1567t155.5 120 183.5 77.5 204 27.5 204-27.5 183.5-77.5 155.5-120 120-155.5 77.5-183.5 27.5-204q0-32-3-64t-8-64h8zm-610-118V390L1664 6v378h378l-384 384h-287l-223 223q4 15 4 33 0 27-10 50t-27.5 40.5-40.5 27.5-50 10-50-10-40.5-27.5T906 1074t-10-50 10-50 27.5-40.5T974 906t50-10q18 0 33 4zm128-37h197l128-128h-197V315l-128 128v197z"/></svg>