<svg xmlns="http://www.w3.org/2000/svg" viewBox="0 0 2048 2048"><path d="M960 992q0 58-28 108.5t-77 81.5l112 226H825l-97-192h-88v192H512V768h224q46 0 87 17.5t71.5 48 48 71.5 17.5 87zm-320 96h96q40 0 68-28t28-68-28-68-68-28h-96v192zm893-18q32 28 49.5 66t17.5 80q0 40-15 75t-41 61-61 41-75 15h-256V768h224q40 0 75 15t61 41 41 61 15 75q0 61-35 110zm-253-46h96q26 0 45-19t19-45-19-45-45-19h-96v128zm128 256q26 0 45-19t19-45-19-45-45-19h-128v128h128zm640 128q0 53-20 99.5t-55 81.5-81.5 55-99.5 20H416q-103 0-178.5-54T130 1458l-95-286q-19-57-27-120.5T0 928q0-57 21-110.5T83 723l256-256q41-41 94.5-62T544 384h160q82 0 182.5 5.5t208 18.5 217.5 34.5 211.5 53.5 190 76T1867 673q38 34 68.5 76t42.5 93q3 13 3.5 25t2.5 25l64 508v8zm-256 128q22 0 42-7t36.5-20 28-30.5 17.5-38.5q1-3 2.5-12t1.5-16l-63-508q0-2-.5-4t-.5-4q0-31-16.5-60t-43.5-54.5-61-47.5-69-40.5-67.5-32T1542 639q-96-35-200.5-59.5T1129 540t-215.5-21.5T704 512H544q-32 0-62 11.5T429 558L174 813q-23 23-34.5 53T128 928q0 51 6.5 104t22.5 101l96 287q2 8 4 15t6 15q23 43 64.5 64.5T416 1536h1376z"/></svg>