<svg xmlns="http://www.w3.org/2000/svg" viewBox="0 0 2048 2048"><path d="M640 1280h256v128H512V768h128v512zm765-210q32 28 49.5 66t17.5 80q0 40-15 75t-41 61-61 41-75 15h-256V768h224q40 0 75 15t61 41 41 61 15 75q0 61-35 110zm-253-46h96q26 0 45-19t19-45-19-45-45-19h-96v128zm128 256q26 0 45-19t19-45-19-45-45-19h-128v128h128zm224-896q57 0 110.5 21t94.5 62l256 256q41 41 62 94.5t21 110.5q0 60-8 123.5t-27 120.5l-96 286q-5 13-8 24t-9 23q-19 38-47.5 68t-63.5 50-75 30.5-82 10.5H256q-53 0-99.5-20T75 1589t-55-81.5T0 1408v-8l64-508q2-13 2.5-25t3.5-25q12-51 42.5-93t68.5-76q64-57 152.5-101T524 496t212-53.5T953.5 408t208-18.5T1344 384h160zm128 1152q47 0 89-21.5t64-64.5q4-8 6-15t4-15l96-287q16-48 22.5-101t6.5-104q0-32-11.5-62t-34.5-53l-255-255q-23-23-53-34.5t-62-11.5h-160q-102 0-209.5 6.5T919 540t-212.5 39.5T506 639q-24 9-56.5 22.5t-67.5 32-69 40.5-61 47.5-43.5 54.5-16.5 60q0 2-.5 4t-.5 4l-63 509q0 5 1.5 14t2.5 13q6 21 17.5 38.5t28 30.5 36.5 20 42 7h1376z"/></svg>