<svg xmlns="http://www.w3.org/2000/svg" viewBox="0 0 2048 2048"><path d="M1920 640v256h-128v960q0 34-3.5 68.5t-16 62-38 44.5-70.5 17q-25 0-53.5 1t-57-1-55-8.5-46.5-20.5-32-38-12-61H512q0 27-10 50t-27.5 40.5T434 2038t-50 10q-69 0-118-1t-79.5-17.5-44.5-56-14-117.5V896H0V640h128V320q0-40 15-75t41-61 61-41 75-15h1280q40 0 75 15t61 41 41 61 15 75v320h128zm-256 640H256v256h128q0-18-.5-40.5t4.5-42 18.5-32.5 41.5-13 41.5 13 18.5 32.5 4.5 42-.5 40.5h896q0-18-.5-40.5t4.5-42 18.5-32.5 41.5-13 41.5 13 18.5 32.5 4.5 42-.5 40.5h128v-256zm-768-128V640H256v512h640zm768-512h-640v512h640V640zM320 256q-26 0-45 19t-19 45v192h1408V320q0-26-19-45t-45-19H320zm1344 1536v-128H256v128h1408z"/></svg>