<svg width="1792" height="1792" viewBox="0 0 1792 1792" xmlns="http://www.w3.org/2000/svg"><path transform="scale(1.75 1.75) translate(0 0)" d="M960 320v128h-64v480q0 17-1.75 34.25t-8 31-19 22.25-35.25 8.5q-12.5 0-26.75.5t-28.5-.5-27.5-4.25-23.25-10.25-16-19-6-30.5h-448q0 13.5-5 25t-13.75 20.25-20.25 13.75-25 5q-34.5 0-59-.5t-39.75-8.75-22.25-28-7-58.75v-480h-64v-128h64v-160q0-20 7.5-37.5t20.5-30.5 30.5-20.5 37.5-7.5h640q20 0 37.5 7.5t30.5 20.5 20.5 30.5 7.5 37.5v160h64zm-128 320h-704v128h64q0-9-.25-20.25t2.25-21 9.25-16.25 20.75-6.5 20.75 6.5 9.25 16.25 2.25 21-.25 20.25h448q0-9-.25-20.25t2.25-21 9.25-16.25 20.75-6.5 20.75 6.5 9.25 16.25 2.25 21-.25 20.25h64v-128zm-384-64v-256h-320v256h320zm384-256h-320v256h320v-256zm-672-192q-13 0-22.5 9.5t-9.5 22.5v96h704v-96q0-13-9.5-22.5t-22.5-9.5h-640zm672 768v-64h-704v64h704z"/></svg>