<svg width="1792" height="1792" viewBox="0 0 1792 1792" xmlns="http://www.w3.org/2000/svg"><path transform="scale(1.75 1.75) translate(0 0)" d="M960 320v128h-64v512q0 13.5-5 25t-13.75 20.25-20.25 13.75-25 5h-64q-13.5 0-25-5t-20.25-13.75-13.75-20.25-5-25h-448q0 13.5-5 25t-13.75 20.25-20.25 13.75-25 5h-64q-13.5 0-25-5t-20.25-13.75-13.75-20.25-5-25v-512h-64v-128h64v-160q0-20 7.5-37.5t20.5-30.5 30.5-20.5 37.5-7.5h640q20 0 37.5 7.5t30.5 20.5 20.5 30.5 7.5 37.5v160h64zm-832 256h320v-256h-320v256zm128 160q0-13-9.5-22.5t-22.5-9.5-22.5 9.5-9.5 22.5v32h64v-32zm576 96h-704v64h704v-64zm-64-64v-32q0-13-9.5-22.5t-22.5-9.5-22.5 9.5-9.5 22.5v32h64zm64-448h-320v256h320v-256z"/></svg>