<svg xmlns="http://www.w3.org/2000/svg" viewBox="0 0 2048 2048"><path d="M1024 0q141 0 272 36.5T1540.5 140t207 160.5 160.5 207T2011.5 752t36.5 272q0 142-36.5 273t-103 244.5-160 207-207 160-244.5 103-273 36.5-273-36.5-244.5-103-207-160-160-207-103-244.5T0 1024t36.5-273 103-244.5 160-207 207-160T751 36.5 1024 0zm0 1920q123 0 237.5-32t214-90.5T1657 1657t140.5-181.5 90.5-214 32-237.5-32-237.5-90.5-214T1657 391t-181.5-140.5-214-90.5-237.5-32q-124 0-238 32t-213.5 90.5T391 391 250.5 572.5t-90.5 214-32 237.5q0 124 32 238t90.5 213.5T391 1657t181.5 140.5 214 90.5 237.5 32zm137-925v-2q30-8 57.5-24.5t48.5-39 33.5-51T1313 817q0-55-25.5-90.5t-65.5-56-87.5-28.5-92.5-8H758v780h299q55 0 106.5-13t91.5-41.5 64-72.5 24-106q0-40-14-72.5t-39-56-58-38-71-19.5zM933 763h66q22 0 45 3.5t41.5 12.5 30 26 11.5 44q0 26-9.5 45t-25 31-37 17.5-45.5 5.5h-77V763zm96 522h-96v-206h96q24 0 47.5 5t42 16.5 29.5 31 11 47.5-11 48-29 33-41.5 19-48.5 6z"/></svg>