<svg xmlns="http://www.w3.org/2000/svg" viewBox="0 0 2048 2048"><path d="M1024 0q141 0 272 36.5T1540.5 140t207 160.5 160.5 207T2011.5 752t36.5 272q0 142-36.5 273t-103 244.5-160 207-207 160-244.5 103-273 36.5-273-36.5-244.5-103-207-160-160-207-103-244.5T0 1024t36.5-273 103-244.5 160-207 207-160T751 36.5 1024 0zm0 1920q123 0 237.5-32t214-90.5T1657 1657t140.5-181.5 90.5-214 32-237.5-32-237.5-90.5-214T1657 391t-181.5-140.5-214-90.5-237.5-32q-124 0-238 32t-213.5 90.5T391 391 250.5 572.5t-90.5 214-32 237.5q0 124 32 238t90.5 213.5T391 1657t181.5 140.5 214 90.5 237.5 32zm354-1286h-195l-124 231q-8 14-14 33.5t-10 35.5h-3q-4-17-10-33.5t-14-32.5L898 634H684l227 390-248 390h209l135-252q6-11 10.5-26t7.5-28h2q3 13 6.5 26.5t9.5 25.5l133 254h209l-240-394z"/></svg>