<svg xmlns="http://www.w3.org/2000/svg" viewBox="0 0 2048 2048"><path d="M1663 512q79 0 149 30t122.5 82.5T2017 747t30 149q0 80-30 149.5t-82.5 122T1812 1250t-149 30h-103q-44 77-105 142t-135 114h279q26 0 45 19t19 45-19 45-45 19H191q-26 0-45-19t-19-45 19-45 45-19h279q-81-54-144.5-124T218 1259.5 150.5 1085 127 896V512h1536zM895 1536q88 0 170-23t153-64.5 129.5-100 100-129.5 64.5-153 23-170V640H255v256q0 88 23 170t64.5 153 100 129.5 129.5 100 153 64.5 170 23zm768-384q53 0 99.5-20t81.5-55 55-81.5 20-99.5-20-99.5-55-81.5-81.5-55-99.5-20q0 65 1.5 130t-1.5 129-12.5 127.5T1619 1152h44z"/></svg>