<svg width="1792" height="1792" viewBox="0 0 1792 1792" xmlns="http://www.w3.org/2000/svg"><path transform="scale(1.75 1.75) translate(0 0)" d="M448 448h-64v-64h64v64zm192 0h-64v-64h64v64zm-192 128h-64v-64h64v64zm-192 0h-64v-64h64v64zm320-64h64v64h-64v-64zm256-64h-64v-64h64v64zm-64 64h64v64h-64v-64zm-192 128h64v64h-64v-64zm-128 64h-64v-64h64v64zm-192 0h-64v-64h64v64zm128 64h64v64h-64v-64zm-192 0h64v64h-64v-64zm832-704v690q-14-13-30.25-22.25t-33.75-15.75v-396h-896v576h560l64 64h-688v-896h192v-64h64v64h512v-64h64v64h192zm-64 192v-128h-128v64h-64v-64h-512v64h-64v-64h-128v128h896zm-210.5 512q25 0 55.25-1.25t60.75.25 59 7.25 50.75 20 35.5 38.75 13.25 63q0 26.5-10.25 49.75t-27.5 40.5-40.75 27.5-49.5 10.25v-64q13.5 0 25-5t20.25-13.75 13.75-20.25 5-25-5-25-13.75-20.25-20.25-13.75-25-5h-146.5l81 81.5-45 45-158.5-158.5 158.5-158.5 45 45z"/></svg>