<svg width="1792" height="1792" viewBox="0 0 1792 1792" xmlns="http://www.w3.org/2000/svg"><path transform="scale(1.75 1.75) translate(0 0)" d="M0 960v-704h1024v704h-1024zm768-576v64h64v-64h-64zm0 128v64h64v-64h-64zm0 128v64h64v-64h-64zm-192-256v64h64v-64h-64zm0 128v64h64v-64h-64zm0 128v64h64v-64h-64zm0 128v64h64v-64h-64zm-192-384v64h64v-64h-64zm0 128v64h64v-64h-64zm0 128v64h64v-64h-64zm0 128v64h64v-64h-64zm-192-256v64h64v-64h-64zm0 128v64h64v-64h-64zm0 128v64h64v-64h-64zm640-704h192v128h-1024v-128h192v-64h64v64h512v-64h64v64z"/></svg>