<svg xmlns="http://www.w3.org/2000/svg" viewBox="0 0 2048 2048"><path d="M1280.05 768h-127.992v128h127.992V768zm-383.98 768H768.078v128H896.07v-128zM512.094 768H384.102v128h127.992V768zm383.976 0H768.078v128H896.07V768zm383.98 256h-127.992v128h127.992v-128zm383.97 0h-127.992v128h127.992v-128zm-1151.926 0H384.102v128h127.992v-128zm383.976 0H768.078v128H896.07v-128zm383.98 256h-127.992v128h127.992v-128zm383.97 0h-127.992v128h127.992v-128zm-1151.926 0H384.102v128h127.992v-128zm383.976 0H768.078v128H896.07v-128zm383.98 256h-127.992v128h127.992v-128zm383.97 0h-127.992v128h127.992v-128zM.125 128v1792h2047.88V128h-383.977V0h-127.992v128H512.096V0H384.104v128H.127zM1920.01 256v256H128.12V256h255.984v128h127.992V256h1023.94v128h127.992V256h255.984zM128.117 1792V640h1791.89v1152H128.117z"/></svg>