<svg width="1792" height="1792" viewBox="0 0 1792 1792" xmlns="http://www.w3.org/2000/svg"><path transform="scale(1.75 1.75) translate(0 0)" d="M640.025 448v-64h-63.996v64h63.996zm-191.99 384v-64h-63.996v64h63.996zm-191.988-384v-64h-63.996v64h63.996zm191.988 0v-64h-63.996v64h63.996zm191.99 128v-64h-63.996v64h63.996zm191.985 0v-64h-63.996v64h63.996zm-575.963 0v-64h-63.996v64h63.996zm191.988 0v-64h-63.996v64h63.996zm191.99 128v-64h-63.996v64h63.996zm191.985 0v-64h-63.996v64h63.996zm-575.963 0v-64h-63.996v64h63.996zm191.988 0v-64h-63.996v64h63.996zm191.99 128v-64h-63.996v64h63.996zm191.985 0v-64h-63.996v64h63.996zm-639.959-768h-191.988v896h1023.94v-896h-191.988v-64h-63.996v64h-511.97v-64h-63.996v64zm639.959 64h127.992v128h-895.945v-128h127.992v64h63.996v-64h511.97v64h63.996v-64zm127.995 768h-895.945v-576h895.945v576z"/></svg>