<svg width="1792" height="1792" viewBox="0 0 1792 1792" xmlns="http://www.w3.org/2000/svg"><path transform="scale(1.75 1.75) translate(0 0)" d="M834.5 482.5l-227 453.5q-1.5 18.5-9.5 34.5t-21 28-29.75 18.75-35.25 6.75q-19 0-35.5-6.75t-29.5-18.75-21-28-9.5-34.5l-227-453.5 75.5-226.5h-73v-256h64v192h512v-192h64v256h-73zm-69-5l-74-221.5h-359l-74 221.5 221.5 443v-417q-14.5-8.5-23.25-23.5t-8.75-32q0-13.5 5-25t13.75-20.25 20.25-13.75 25-5 25 5 20.25 13.75 13.75 20.25 5 25q0 17-8.75 32t-23.25 23.5v417z"/></svg>