<svg width="1792" height="1792" viewBox="0 0 1792 1792" xmlns="http://www.w3.org/2000/svg"><path transform="scale(1.75 1.75) translate(0 0)" d="M525.03 320h-338.479l152.99-153.5-44.997-45-230.486 230.5 230.486 230.5 44.997-45-152.99-153.5h338.479v-64zm-252.983 333.5q-19.499 0-37.998 7.5t-32.498 21.5q-10.499 10.5-23.749 22.25t-27.248 24.5-26.999 26.75q-12.999 14-23.499 28.75t-16.749 30.75-6.249 33q0 19.5 7.499 38t21.499 32.5q25.499 25.5 45.998 45t42.747 33 49.247 20.25 64.496 6.75q54.496 0 111.993-17t114.493-47 111.493-71.5 103.244-90.5 89.745-103.5 70.495-111.25 46.247-113.5 16.749-109.75q0-38-6.75-65t-19.999-49-32.748-42.75-45.497-46.25q-13.999-14-32.498-21.5t-37.998-7.5q-24.999 0-48.247 13.5t-44.247 33-39.498 41-33.998 37q-14 14-21.499 32.5t-7.5 38 6.5 34.75 16.249 28 20.999 23q11.249 10.25 20.999 19.75t16.249 18.75 6.5 19.25q0 6-9.249 19.25t-24.749 31-35.748 38.5-41.998 42.5-43.497 42.75-40.498 38.75-32.998 31.25-20.749 20q-10.5 10.5-24.999 10.5-10.5 0-19.749-6.5t-18.499-16.25-19.499-21-22.749-21-27.749-16.25-35.248-6.5zm36.498 306.5q-30.498 0-51.247-5.75t-37.248-16.75-32.248-27-36.248-36.5q-10.5-10.5-10.5-25 0-6.5 8-18.75t20.249-27 27.499-29.75 29.748-27.5 26.749-20.5 18.749-8q10.499 0 19.999 6.5t18.749 16.25 19.499 21 22.749 21 27.748 16.25 34.748 6.5q19.999 0 38.248-7.75t32.248-21.75l238.486-238.5q13.999-14 21.749-32.25t7.75-38.25q0-19.5-6.5-34.75t-16.249-27.75-20.999-22.75-20.999-19.75-16.249-18.75-6.5-19.75q0-6.5 8-18.5t20.249-26.75 27.498-30 29.999-27.5 26.748-20.25q12-8 18.499-8 14.999 0 25.499 10.5 20.499 20.5 36.498 36t26.999 32.25 16.749 37.25 5.75 50.5q0 48-15.499 99.5t-43.248 102.75-65.745 100.75q-37.998 49.5-82.495 94t-94.244 82-100.744 64.75-101.493 42.5-96.994 15.25z"/></svg>