<svg xmlns="http://www.w3.org/2000/svg" viewBox="0 0 2048 2048"><path d="M1050.06 640H373.101l305.981-307-89.994-90-460.972 461 460.972 461 89.994-90-305.981-307h676.959V640zm-505.966 667q-38.998 0-75.996 15-36.997 15-64.996 43-20.998 21-47.497 44.5-26.498 23.5-54.496 49t-53.997 53.5q-25.998 28-46.998 57.5t-33.498 61.5-12.499 66q0 39 15 76t42.997 65q50.997 51 91.995 90 40.997 39 85.494 66t98.494 40.5 128.992 13.5q108.993 0 223.986-34t228.986-94 222.986-143 206.487-181 179.489-207 140.99-222.5 92.495-227 33.498-219.5q0-76-13.5-130t-39.997-98q-26.498-44-65.496-85.5-38.997-41.5-90.994-92.5-27.998-28-64.996-43-36.997-15-75.995-15-49.998 0-96.495 27t-88.494 66q-41.998 39-78.996 82-36.997 43-67.995 74-27.999 28-42.998 65t-14.999 76 13 69.5q13 30.5 32.497 56 19.5 25.5 41.998 46 22.498 20.5 41.997 39.5t32.498 37.5 13 38.5q0 12-18.499 38.5t-49.497 62-71.496 77q-40.497 41.5-83.995 85-43.497 43.5-86.994 85.5t-80.995 77.5-65.996 62.5-41.497 40q-21 21-49.998 21-20.999 0-39.498-13t-36.998-32.5q-18.498-19.5-38.997-42t-45.497-42q-24.999-19.5-55.497-32.5t-70.495-13zm72.995 613q-60.996 0-102.494-11.5-41.497-11.5-74.495-33.5t-64.496-54-72.495-73q-21-21-21-50 0-13 16-37.5t40.497-54q24.499-29.5 54.997-59.5t59.496-55q28.999-25 53.497-41t37.498-16q20.998 0 39.997 13t37.498 32.5 38.997 42q20.5 22.5 45.498 42 24.998 19.5 55.496 32.5t69.497 13q39.997 0 76.495-15.5t64.496-43.5l476.97-477q27.999-28 43.498-64.5t15.499-76.5q0-39-13-69.5t-32.497-55.5-41.997-45.5q-22.5-20.5-41.998-39.5-19.498-19-32.497-37.5-13-18.5-13-39.5 0-13 15.999-37t40.498-53.5q24.498-29.5 54.996-60t59.997-55q29.498-24.5 53.496-40.5 23.999-16 36.998-16 29.998 0 50.997 21 40.997 41 72.995 72t53.997 64.5q21.998 33.5 33.498 74.5 11.5 41 11.5 101 0 96-30.999 199t-86.495 205.5q-55.496 102.5-131.49 201.5-75.997 99-164.99 188-88.996 89-188.489 164-99.494 75-201.488 129.5-101.993 54.5-202.987 85T617.091 1920z"/></svg>