<svg width="1792" height="1792" viewBox="0 0 1792 1792" xmlns="http://www.w3.org/2000/svg"><path transform="scale(1.75 1.75) translate(0 0)" d="M512 320h338.5l-153-153.5 45-45 230.5 230.5-230.5 230.5-45-45 153-153.5h-338.5v-64zm253 333.5q19.5 0 38 7.5t32.5 21.5q10.5 10.5 23.75 22.25t27.25 24.5 27 26.75 23.5 28.75 16.75 30.75 6.25 33q0 19.5-7.5 38t-21.5 32.5q-25.5 25.5-46 45t-42.75 33-49.25 20.25-64.5 6.75q-54.5 0-112-17t-114.5-47-111.5-71.5-103.25-90.5-89.75-103.5-70.5-111.25-46.25-113.5-16.75-109.75q0-38 6.75-65t20-49 32.75-42.75 45.5-46.25q14-14 32.5-21.5t38-7.5q25 0 48.25 13.5t44.25 33 39.5 41 34 37q14 14 21.5 32.5t7.5 38-6.5 34.75-16.25 28-21 23-21 19.75-16.25 18.75-6.5 19.25q0 6 9.25 19.25t24.75 31 35.75 38.5 42 42.5 43.5 42.75 40.5 38.75 33 31.25 20.75 20q10.5 10.5 25 10.5 10.5 0 19.75-6.5t18.5-16.25 19.5-21 22.75-21 27.75-16.25 35.25-6.5zm-36.5 306.5q30.5 0 51.25-5.75t37.25-16.75 32.25-27 36.25-36.5q10.5-10.5 10.5-25 0-6.5-8-18.75t-20.25-27-27.5-29.75-29.75-27.5-26.75-20.5-18.75-8q-10.5 0-20 6.5t-18.75 16.25-19.5 21-22.75 21-27.75 16.25-34.75 6.5q-20 0-38.25-7.75t-32.25-21.75l-238.5-238.5q-14-14-21.75-32.25t-7.75-38.25q0-19.5 6.5-34.75t16.25-27.75 21-22.75 21-19.75 16.25-18.75 6.5-19.75q0-6.5-8-18.5t-20.25-26.75-27.5-30-30-27.5-26.75-20.25-18.5-8q-15 0-25.5 10.5-20.5 20.5-36.5 36t-27 32.25-16.75 37.25-5.75 50.5q0 48 15.5 99.5t43.25 102.75 65.75 100.75 82.5 94 94.25 82 100.75 64.75 101.5 42.5 97 15.25z"/></svg>