<svg xmlns="http://www.w3.org/2000/svg" viewBox="0 0 2048 2048"><path d="M1280 64q0 179 66 330t190 278 190 278 66 330q0 106-27.5 204t-77.5 183.5-120 155.5-155.5 120-183.5 77.5-204 27.5-204-27.5-183.5-77.5T481 1823t-120-155.5-77.5-183.5-27.5-204q0-84 18-165t52-155.5T410 819t113-121q7 38 19 78.5t28.5 80 37.5 76 46 66.5q20 25 52 25 27 0 45.5-19t18.5-46q0-11-3.5-20t-9.5-18q-28-41-49.5-81T671 758t-23-87-8-95q0-119 45.5-224T809 169 992 45.5 1216 0h64v64zm-256 1856q133 0 249.5-50t203.5-137 137-203.5 50-249.5q0-151-56-281t-162-236q-130-131-204.5-289T1154 132q-83 11-153.5 50.5t-122.5 99-81 135T768 576q0 78 23 141.5T859 843q19 26 29.5 54.5T899 959q0 40-15.5 75t-41.5 61.5-61 41.5-75 15q-46 0-81-17.5t-62-46-48.5-64.5-39.5-72q-46 73-68.5 157.5T384 1280q0 133 50 249.5T571 1733t203.5 137 249.5 50z"/></svg>