<svg xmlns="http://www.w3.org/2000/svg" viewBox="0 0 2048 2048"><path d="M2048 256v1536H0V256h549l128-128h694l128 128h549zm-128 128h-475l-128-128H731L603 384H128v1280h1792V384zm-896 128q106 0 199.5 40t163 109.5 109.5 163 40 199.5-40 199.5-109.5 163-163 109.5-199.5 40-199.5-40-163-109.5-109.5-163-40-199.5 40-199.5 109.5-163 163-109.5 199.5-40zm0 896q79 0 149-30.5t122-82.5 82.5-122 30.5-149-30.5-149-82.5-122-122-82.5-149-30.5-149 30.5T753 753t-82.5 122-30.5 149 30.5 149 82.5 122 122 82.5 149 30.5zM320 512q26 0 45 19t19 45-19 45-45 19-45-19-19-45 19-45 45-19z"/></svg>