<svg width="1792" height="1792" viewBox="0 0 1792 1792" xmlns="http://www.w3.org/2000/svg"><path transform="scale(1.75 1.75) translate(0 0)" d="M1024 128v768h-1024v-768h274.5l64-64h347l64 64h274.5zm-64 64h-237.5l-64-64h-293l-64 64h-237.5v640h896v-640zm-448 64q53 0 99.75 20t81.5 54.75 54.75 81.5 20 99.75-20 99.75-54.75 81.5-81.5 54.75-99.75 20-99.75-20-81.5-54.75-54.75-81.5-20-99.75 20-99.75 54.75-81.5 81.5-54.75 99.75-20zm0 448q39.5 0 74.5-15.25t61-41.25 41.25-61 15.25-74.5-15.25-74.5-41.25-61-61-41.25-74.5-15.25-74.5 15.25-61 41.25-41.25 61-15.25 74.5 15.25 74.5 41.25 61 61 41.25 74.5 15.25zm-352-448q13 0 22.5 9.5t9.5 22.5-9.5 22.5-22.5 9.5-22.5-9.5-9.5-22.5 9.5-22.5 22.5-9.5z"/></svg>