<svg width="1792" height="1792" viewBox="0 0 1792 1792" xmlns="http://www.w3.org/2000/svg"><path transform="scale(1.75 1.75) translate(0 0)" d="M192 576q13.5 0 25 5t20.25 13.75 13.75 20.25 5 25-5 25-13.75 20.25-20.25 13.75-25 5-25-5-20.25-13.75-13.75-20.25-5-25 5-25 13.75-20.25 20.25-13.75 25-5zm640 0q13.5 0 25 5t20.25 13.75 13.75 20.25 5 25-5 25-13.75 20.25-20.25 13.75-25 5-25-5-20.25-13.75-13.75-20.25-5-25 5-25 13.75-20.25 20.25-13.75 25-5zm173.5-128l-33 32.5q1 2.5 5 15t9.75 29.5 12.25 36.5 12 35.75 9 27l3.5 10.75v325q0 13.5-5 25t-13.75 20.25-20.25 13.75-25 5h-64q-13.5 0-25-5t-20.25-13.75-13.75-20.25-5-25h-640q0 13.5-5 25t-13.75 20.25-20.25 13.75-25 5h-64q-13.5 0-25-5t-20.25-13.75-13.75-20.25-5-25v-325l3.5-10.75 9-27 12-35.75 12.25-36.5 9.75-29.5 5-15-33-32.5h-18.5v-64h45.5l28.5 29 37-111.5q8-24.5 23.25-44.75t35.25-34.5 43.75-22.25 49.75-8h498q26 0 49.75 8t43.75 22.25 35 34.5 23.5 44.75l37 111.5 28.5-29h45.5v64h-18.5zm-742.5-192q-31.5 0-56.25 18t-34.75 47.5l-42.5 126.5h765l-42.5-126.5q-10-29.5-34.75-47.5t-56.25-18h-498zm441 615.5l-52-103.5h-280l-52 103.5v24.5h384v-24.5zm256 24.5v-251l-3-9.25-7.75-23.25-10.25-30.75-10.5-31.5-8.75-25.25-4.25-13h-807q-1 2.5-4.5 13t-8.5 25.25-10.5 31.5-10.25 30.75-7.75 23.25l-3 9.25v251h192v-39.5l76-152.5h360l76 152.5v39.5h192z"/></svg>