<svg width="1792" height="1792" viewBox="0 0 1792 1792" xmlns="http://www.w3.org/2000/svg"><path transform="scale(1.75 1.75) translate(0 0)" d="M964 704h60v320h-1024v-320h60l64-128h-60v-256l160-320h576l160 320v256h-60zm-580-320h-92.5l-95.5 192h188v-192zm64 0v192h128v-192h-128zm192 0v192h188l-95.5-192h-92.5zm256 128v-128h-92.5l64 128h28.5zm-632.5-448l-128 256h753l-128-256h-497zm-135.5 448h28.5l64-128h-92.5v128zm35.5 128l-31.5 64h760l-31.5-64h-697zm796.5 320v-192h-896v192h896zm-320-128v64h-256v-64h256z"/></svg>