<svg width="1792" height="1792" viewBox="0 0 1792 1792" xmlns="http://www.w3.org/2000/svg"><path transform="scale(1.75 1.75) translate(0 0)" d="M352 320q-33 0-62 12.75t-50.75 34.5-34.5 50.75-12.75 62 12.75 62 34.5 50.75 50.75 34.5 62 12.75q32 0 61.25-12.25t51.75-34.75l45.5 45.5q-31.5 31.5-72.75 48.5t-85.75 17q-46.5 0-87.25-17.75t-71-48-48-71-17.75-87.25 17.75-87.25 48-71 71-48 87.25-17.75q44.5 0 85.75 17t72.75 48.5l-45.5 45.5q-22.5-22.5-51.75-34.75t-61.25-12.25zm384 0q-33 0-62 12.75t-50.75 34.5-34.5 50.75-12.75 62 12.75 62 34.5 50.75 50.75 34.5 62 12.75q32 0 61.25-12.25t51.75-34.75l45.5 45.5q-31.5 31.5-72.75 48.5t-85.75 17q-46.5 0-87.25-17.75t-71-48-48-71-17.75-87.25 17.75-87.25 48-71 71-48 87.25-17.75q44.5 0 85.75 17t72.75 48.5l-45.5 45.5q-22.5-22.5-51.75-34.75t-61.25-12.25zm-736-192h1024v704h-1024v-704zm64 640h896v-576h-896v576z"/></svg>