<svg width="1792" height="1792" viewBox="0 0 1792 1792" xmlns="http://www.w3.org/2000/svg"><path transform="scale(1.75 1.75) translate(0 0)" d="M928 192q20 0 37.5 7.5t30.5 20.5 20.5 30.5 7.5 37.5v448q0 20-7.5 37.5t-20.5 30.5-30.5 20.5-37.5 7.5h-832q-20 0-37.5-7.5t-30.5-20.5-20.5-30.5-7.5-37.5v-448q0-20 7.5-37.5t20.5-30.5 30.5-20.5 37.5-7.5h832zm32 96q0-13-9.5-22.5t-22.5-9.5h-832q-13 0-22.5 9.5t-9.5 22.5v448q0 13 9.5 22.5t22.5 9.5h832q13 0 22.5-9.5t9.5-22.5v-448zm-736 288q13 0 22.5 9.5t9.5 22.5-9.5 22.5-22.5 9.5-22.5-9.5-9.5-22.5 9.5-22.5 22.5-9.5zm192 0q13 0 22.5 9.5t9.5 22.5-9.5 22.5-22.5 9.5-22.5-9.5-9.5-22.5 9.5-22.5 22.5-9.5zm192 0q13 0 22.5 9.5t9.5 22.5-9.5 22.5-22.5 9.5-22.5-9.5-9.5-22.5 9.5-22.5 22.5-9.5zm192 0q13 0 22.5 9.5t9.5 22.5-9.5 22.5-22.5 9.5-22.5-9.5-9.5-22.5 9.5-22.5 22.5-9.5z"/></svg>