<svg xmlns="http://www.w3.org/2000/svg" viewBox="0 0 2048 2048"><path d="M1856 384q40 0 75 15t61 41 41 61 15 75v896q0 40-15 75t-41 61-61 41-75 15H192q-40 0-75-15t-61-41-41-61-15-75V576q0-40 15-75t41-61 61-41 75-15h1664zm64 192q0-26-19-45t-45-19H192q-26 0-45 19t-19 45v896q0 26 19 45t45 19h1664q26 0 45-19t19-45V576zM448 1152q26 0 45 19t19 45-19 45-45 19-45-19-19-45 19-45 45-19zm384 0q26 0 45 19t19 45-19 45-45 19-45-19-19-45 19-45 45-19zm384 0q26 0 45 19t19 45-19 45-45 19-45-19-19-45 19-45 45-19zm384 0q26 0 45 19t19 45-19 45-45 19-45-19-19-45 19-45 45-19z"/></svg>