<svg width="1792" height="1792" viewBox="0 0 1792 1792" xmlns="http://www.w3.org/2000/svg"><path transform="scale(1.75 1.75) translate(0 0)" d="M973 617.5q8.5 0 8.5 9v37.5q0 7.5-8.5 7.5-39-.5-77.25-1.25t-77.25-.75h-302v91.5q0 45 .25 89.5t.75 89.5q0 17-4.25 34.5t-17.75 29q-8.5 7-23.25 11.25t-31 6.25-31.75 2.5-26 .5h-39l-20-1.5-8.5-5-3.75-10.25-5.75-17.5-15-26.75q30 3.5 59.5 5.25t59.5 1.75q13.5 0 23.25-1.75t16.25-6.75 9.5-14 3-23.5v-254.5h-299.5q-39 0-77.5.75t-77.5 1.25q-8 0-8-7.5v-37.5q0-9 8-9 39 1 77.5 1.75t77.5.75h299.5q0-29.5-.75-60.5t-7.25-60q14 2.5 27.75 5.75t27.25 7.25q51.5-30 99.75-64.75t91.25-76.25h-359.5q-38.5 0-76.75.75t-76.75 1.25q-8.5 0-8.5-7.5v-36.5q0-8 8.5-8 38.5 1 76.75 1.75t76.75.75h354q8 0 16.25-.5t15.75-4q3-1 5.75-2.25t6.25-1.25q4.5 0 13 6.5t16.75 15.25 14.5 17.75 6.25 13.5q0 6.5-3.75 9.75t-9.25 5.75q-11.5 5-22.25 12.25t-20.75 15.25q-51.5 40.5-105 76.25t-111 68.75q-1 10-1 20.5v42.5h302q39 0 77.25-.75t77.25-1.75zm-948.5-252q.5-31 1.25-61.5t.75-61.5q0-24.5-.5-49t-1.5-49q0-8 7.5-8 41 1 81.75 1.75t81.75.75h252.5v-69.75l-7.5-69.25q15 1 30.75 2.25t30.75 3.75q4 1 8.25 2.75t4.25 6.75q0 3-3 10.25t-4 10.25q-2.5 5.5-3.5 17.25t-1.5 25-.5 25.25v35.5h271.5q40.5 0 81-.75t81-1.75q8 0 8 8-1 13.5-1.75 27.5t-.75 27.5v43q0 31 .75 61.5t1.75 61.5q0 8-8 8h-39.5q-8 0-8-8v-179h-808.5v179q0 8-8 8h-39.5q-7.5 0-7.5-8z"/></svg>