<svg xmlns="http://www.w3.org/2000/svg" viewBox="0 0 2048 2048"><path d="M1946 1235q17 0 17 18v75q0 15-17 15-78-1-154.5-2.5T1637 1339h-604v183q0 90 .5 179t1.5 179q0 34-8.5 69t-35.5 58q-17 14-46.5 22.5t-62 12.5-63.5 5-52 1h-78l-40-3-17-10-7.5-20.5-11.5-35-30-53.5q60 7 119 10.5t119 3.5q27 0 46.5-3.5T900 1923t19-28 6-47v-509H326q-78 0-155 1.5T16 1343q-16 0-16-15v-75q0-18 16-18 78 2 155 3.5t155 1.5h599q0-59-1.5-121T909 999q28 5 55.5 11.5t54.5 14.5q103-60 199.5-129.5T1401 743H682q-77 0-153.5 1.5T375 747q-17 0-17-15v-73q0-16 17-16 77 2 153.5 3.5T682 648h708q16 0 32.5-1t31.5-8q6-2 11.5-4.5t12.5-2.5q9 0 26 13t33.5 30.5 29 35.5 12.5 27q0 13-7.5 19.5T1553 769q-23 10-44.5 24.5T1467 824q-103 81-210 152.5T1035 1114q-2 20-2 41v85h604q78 0 154.5-1.5t154.5-3.5zM49 731q1-62 2.5-123T53 485q0-49-1-98t-3-98q0-16 15-16 82 2 163.5 3.5T391 278h505V138.5L881 0q30 2 61.5 4.5T1004 12q8 2 16.5 5.5T1029 31q0 6-6 20.5t-8 20.5q-5 11-7 34.5t-3 50-1 50.5v71h543q81 0 162-1.5t162-3.5q16 0 16 16-2 27-3.5 55t-1.5 55v86q0 62 1.5 123t3.5 123q0 16-16 16h-79q-16 0-16-16V373H159v358q0 16-16 16H64q-15 0-15-16z"/></svg>