<svg xmlns="http://www.w3.org/2000/svg" viewBox="0 0 2048 2048"><path d="M896 1280q0 82-33.5 156.5T768 1566v458l-256-128-256 128v-458q-61-55-94.5-129.5T128 1280q0-79 30-149t82.5-122.5 122-82.5T512 896q79 0 149 30.5t122 82.5 82.5 122 30.5 149zm-384 256q53 0 99.5-20t81.5-55 55-81.5 20-99.5-20-99.5-55-81.5-81.5-55-99.5-20-99.5 20-81.5 55-55 81.5-20 99.5 20 99.5 55 81.5 81.5 55 99.5 20zm128 106q-61 22-123 22-70 0-133-22v174l128-64 128 64v-174zM1920 549v1499H896v-128h896V640h-512V128H384v624q-33 8-65.5 20T256 800V0h1115zm-219-37l-293-293v293h293z"/></svg>