<svg width="1792" height="1792" viewBox="0 0 1792 1792" xmlns="http://www.w3.org/2000/svg"><path transform="scale(1.75 1.75) translate(0 0)" d="M960 338.5v685.5h-448v-64h384v-576h-320v-320h-320v312.5q-33.5 8-64 25v-401.5h429.5zm-320-18.5h210.5l-210.5-210.5v210.5zm-128 320q0 41-16.75 78.25t-47.25 64.75v229l-128-64-128 64v-229q-30.5-27.5-47.25-64.75t-16.75-78.25q0-39.5 15-74.5t41.25-61.25 61-41.25 74.75-15q39.5 0 74.5 15t61.25 41.25 41.25 61.25 15 74.5zm-128 181q-32 11-64 11t-64-11v87l64-32 64 32v-87zm-64-53q26.5 0 49.75-10t40.75-27.5 27.5-40.75 10-49.75-10-49.75-27.5-40.75-40.75-27.5-49.75-10-49.75 10-40.75 27.5-27.5 40.75-10 49.75 10 49.75 27.5 40.75 40.75 27.5 49.75 10z"/></svg>