<svg xmlns="http://www.w3.org/2000/svg" viewBox="0 0 2048 2048"><path d="M1848 770q42 0 78.5 15t63.5 41.5 42.5 63T2048 968q0 31-7.5 55t-20 44.5-30 39.5-37.5 39l-676 675q-6 48-28 89.5t-55.5 72-77 48-92.5 17.5H384v-126h256q27 0 50-10.5t40.5-28 27.5-41 10-50.5q0-49 17.5-92.5t48-77 72-55.5 89.5-28l712-713q28-28 65-42t76-14zm-824 1150q27 0 50-10t40.5-27.5 27.5-40.5 10-50-10-50-27.5-40.5-40.5-27.5-50-10q-26 0-49.5 10t-41 27.5-27.5 41-10 49.5q0 68-34 128h162zm339-365q-21-29-46.5-55t-55.5-46l-115 114q65 37 102 102zm536-537q21-21 21-50 0-30-21-50.5t-51-20.5q-14 0-27 5t-23 15l-445 445q57 44 101 101zM166 544q1-40 1-79V328l-1-58q0-5 2-11 8-2 13-2 42 1 83.5 2t83.5 1h275v-11q0-30-1-61t-8-60q69 0 137 6 6 1 12.5 3t6.5 10q0 6-3 12t-5 12q-2 5-3.5 15.5t-2 22-.5 22V260h296q42 0 83.5-1t83.5-2q7 0 13 3 3 5 3 10-1 17-2 35.5t-1 35.5v58q0 36 1 72.5t2 72.5q0 3-.5 7t-2.5 6q-8 2-13 2t-25 .5-41 .5q-19 0-34-1t-17-3q-2-8-2.5-24t-.5-36q0-33 1-68t1-52H299v14.5l.5 25 .5 31V480q0 29-1 52.5t-3 25.5q-8 2-13 2H181q-11 0-13-3t-2-13zm471 378H318q-40 0-80 1l-80 2q-8 0-12-3-2-6-2-11v-96q0-3 .5-7.5t2.5-6.5q6-2 11-2l80 2 80 1h319q-2-26-2.5-52.5T629 697q20 2 39.5 3.5T708 704q2 0 3.5.5t3.5.5q35-25 67-53t64-57H538q-42 0-83.5 1t-83.5 2q-8 0-12-3-2-6-2-11v-95q0-4 2-12 8-2 12-2 42 1 83.5 2t83.5 1h373q16 0 30-4.5t25-4.5q8 0 23 12t30 28 26.5 32.5T1057 566q0 10-6.5 15.5T1036 591q-14 7-27 18t-25 21q-52 43-104.5 83.5T770 791v11h321q40 0 79-1t79-2q7 0 13 3 2 8 2 13v96q0 4-2 12-8 2-13 2-40-1-79-2t-79-1H770v33q0 52 1 104t3 104v4q0 24-9 48t-29 38q-14 10-39.5 15.5t-54.5 8-56.5 3-43.5.5q-6 0-19-.5t-18-5.5q-3-3-7-16t-6-18q-7-26-16.5-48.5T452 1146q34 4 68 5.5t68 1.5q24 0 36.5-7.5T637 1112V922z"/></svg>