<svg xmlns="http://www.w3.org/2000/svg" viewBox="0 0 2048 2048"><path d="M651 896l341 1024H853l-85-256H384l-85 256H160L501 896h150zm74 640l-149-448-149 448h298zm81-992q1-69 1.5-137T806 270q0-5 2-11 8-2 13-2 42 1 83.5 2t83.5 1h275q0-32-.5-66t-8.5-66q69 0 137 6 6 1 12.5 3t6.5 10q0 6-3 12t-5 12q-2 5-3.5 15.5t-2 22-.5 22V260h296q42 0 83.5-1t83.5-2q7 0 13 3 3 5 3 10-1 17-2 35.5t-1 35.5v58q0 36 1 72.5t2 72.5q0 3-.5 7t-2.5 6q-8 2-13 2t-23 .5-38 .5-36.5-.5-19.5-3.5q-2-11-2.5-35.5t0-52 1-53 .5-39.5H939q0 5 .5 20t.5 34.5v82l-1 31-3 14.5q-8 2-13 2H821q-11 0-13-3t-2-13zm1096 258q2 8 2 13v96q0 4-2 12-8 2-13 2-40-1-79-2t-79-1h-321q-1 60 .5 120.5t3.5 120.5q1 25-8 50t-30 40q-14 10-39.5 15.5t-54.5 8-56.5 3-43.5.5q-6 0-19-.5t-18-5.5q-3-3-7-16t-6-18q-7-26-16.5-48.5T1092 1146q34 4 68 5.5t68 1.5q24 0 36.5-7.5t12.5-33.5V922H958q-40 0-80 1l-80 2q-8 0-12-3-2-6-2-11v-96q0-3 .5-7.5t2.5-6.5q6-2 11-2l80 2 80 1h319q-2-26-2.5-52.5T1269 697q22 2 43 4t43 4q35-25 67-53t64-57h-308q-42 0-83.5 1t-83.5 2q-8 0-12-3-2-6-2-11v-95q0-4 2-12 8-2 12-2 42 1 83.5 2t83.5 1h373q16 0 30-4.5t25-4.5q8 0 23 12t30 28 26.5 32.5T1697 566q0 10-6.5 15.5T1676 591q-14 7-27 18t-25 21q-52 43-104.5 83.5T1410 791v11h321q40 0 79-1t79-2q7 0 13 3z"/></svg>