<svg xmlns="http://www.w3.org/2000/svg" viewBox="0 0 2048 2048"><path d="M576 256q66 0 124 25.5t101.5 69 69 101.5T896 576t-25.5 124.5-69 102T700 871t-124 25-124.5-25-102-68.5-68.5-102T256 576t25-124 68.5-101.5 102-69T576 256zm0 512q40 0 75-15t61-41 41-61 15-75-15-75-41-61-61-41-75-15-75 15-61 41-41 61-15 75 15 75 41 61 61 41 75 15zm928 128q54 0 105.5 18.5t92 52 65.5 80.5 25 105q0 35-3.5 72t-9.5 74.5-15 73.5-20 69q-17 50-40 94t-50 84.5-59 79-67 77.5q-24 26-56 58.5t-68 62-74 51.5-74 28q-20 3-39.5 5.5t-39.5 2.5q-5 0-15-1t-10-7 6-13.5 14-14 16-12 12-8.5q52-39 98.5-90t85.5-102q58-76 95-157t61-173h-5q-8 0-15.5 1t-15.5 1q-54 0-105.5-18.5t-92-52-65-80.5-24.5-105 24.5-105 65-80.5 92-52T1504 896z"/></svg>