<svg width="1792" height="1792" viewBox="0 0 1792 1792" xmlns="http://www.w3.org/2000/svg"><path transform="scale(1.75 1.75) translate(0 0)" d="M218.5 212.5q-23 28.5-47.5 55.25t-52 50.75l-42.5-31q52-46.5 96.5-99.5t76-115.5l48 19q-10.5 19-21.25 37.5t-22.75 36.5h255v47h-180.5q21.5 24 42.25 49.5t37.25 53.5l-47.5 17.5q-22-33-47.5-62.5t-53-58h-40.5zm-80.5 257.5h50.5v482h-50.5v-482zm89-142.5q33 24 63.5 50.5t57 57.5l-38 30q-29.5-28.5-60-55.75t-64-50.75zm717.5-162v47h-209q18 25.5 36.5 52t31.5 55l-47.5 18q-17.5-33-39-64t-44-61h-55q-24 27-49.25 52.25t-53.75 47.25l-41-30.5q24-20.5 49.5-44.75t49.5-50.5 44.75-54.25 35.25-56.5l47.5 21q-9 18-20.5 35.25t-23 33.75h287.5zm-547 193.5h494v520q0 23-5.5 37.75t-16.25 23.5-27 12-37.25 3.25-42.25-.5-42.25-1l-14.5-48.5q38 1.5 76 1.5 6.5 0 16.5.5t19.75-1 16.75-6 7-14.5v-479.5h-445v-47.5zm314 498h-392v-364h392v364zm-51.5-158.5h-291v114h291v-114zm0-160h-291v114.5h291v-114.5z"/></svg>