<svg width="1792" height="1792" viewBox="0 0 1792 1792" xmlns="http://www.w3.org/2000/svg"><path transform="scale(1.75 1.75) translate(0 0)" d="M222 213q-33-48-75.75-88.5t-87.25-77.5l41-46q45 38 87.25 79.25t76.75 89.25zm121 561.5q40-23 79.25-49.5t75.5-56 69.25-63 61-71h-220.5v-258.5h252v-103.5h-288v-58.5h288v-114.5h59.5v114.5h288.5v58.5h-288.5v103.5h247v258.5h-247v22q81 43.5 154 98.25t138.5 119.25l-36.5 48q-27-26.5-57.75-55t-63.5-55.25-66.75-50.75-68-41.5v253.5h-59.5v-287q-57.5 72.5-128.25 130.75t-149.75 105.25zm376-297h187.5v-142.5h-187.5v142.5zm-59.5 0v-142.5h-192.5v142.5h192.5zm-431.5 321q33.5 34.5 74.5 56.75t86 35.5 92.25 18.5 93.25 5.25h450l-15.5 57h-404.5q-51.5 0-106.75-5t-108.75-18.5-102.25-37.75-86.75-62.75q-30 42.5-63.75 81.25t-72.25 73.75l-46.5-40q86-73.5 144.5-164.5t81-203h-190.5v-56.5q28.5-35 56-69.75t55.5-69.75q18-23 36.5-46.25t34.5-47.75h-205v-56h273.5v56l-179.5 233.5h178.5q0 14 .5 28.25t-.5 28.25q-.5 7-2 11.5t-3.5 11.5q-11.5 47.5-28 92.75t-40.5 87.75z"/></svg>