<svg width="1792" height="1792" viewBox="0 0 1792 1792" xmlns="http://www.w3.org/2000/svg"><path transform="scale(1.75 1.75) translate(0 0)" d="M32.5 977.5q62-64 103-141.5t53-167q1-9.5 2.25-19t1.25-19v-311h640v320h-576.5q-8.5 112-53.75 206.75t-123.25 175.25zm735.5-401.5v-64h-512v64h512zm-512-192v64h512v-64h-512zm0 320h576v320h-64v-64h-448v64h-64v-320zm64 64v128h448v-128h-448zm192-764q93.5 91.5 204.75 139.75t243.25 48.25v64q-66 0-130.5-12.25t-125.5-36.75v49h-384v-49q-61 24.5-125.5 36.75t-130.5 12.25v-64q132 0 243-48.25t205-139.75zm156 188q-42.5-19.5-81.5-45t-74.5-56q-35.5 30.5-74.5 56t-81.5 45h312z"/></svg>