<svg xmlns="http://www.w3.org/2000/svg" viewBox="0 0 2048 2048"><path d="M1169 1024h572l-205 205H964l-175 175q30 62 30 132 0 63-24 119t-66 98-98 66-119 24-119-24-98-66-66-98-24-119q0-29 5.5-57.5T227 1423q-50-14-92-42.5T63 1313t-46.5-87T0 1126q0-63 24-119t66-98 98-66 119-24q49 0 94 14.5t83.5 41.5 67.5 65 45 84h282l410-410h289zM819 205H614V0h205v205zm1024 614h205v205h-205V819zm-819 819h205v205h-205v-205zm819-409h205v205h-205v-205zM410 205H205V0h205v205zm1433 1433h205v205h-205v-205zM2048 0v205h-205V0h205zm-819 205h-205V0h205v205zM410 614H205V410h205v204zm1228-409h-204V0h204v205zm-204 1433h204v205h-204v-205zm409-1228h205v204h-205V410zM307 1229q21 0 40-8t33-22 22-33 8-40-8-39.5-22.5-32.5-33-22-39.5-8-39.5 8-32.5 22-22 32.5-8 39.5 8 39.5 22 33 32.5 22.5 39.5 8zm205 409q43 0 72.5-29.5T614 1536t-29.5-72.5T512 1434t-72.5 29.5T410 1536t29.5 72.5T512 1638z"/></svg>