<svg width="1792" height="1792" viewBox="0 0 1792 1792" xmlns="http://www.w3.org/2000/svg"><path transform="scale(1.75 1.75) translate(0 0)" d="M810.5 512l-85 85.5h-238.5l-158 158q6.5 13 9.5 26.75t3 28.25q0 26.5-10 49.75t-27.5 40.75-40.75 27.5-49.75 10-49.75-10-40.75-27.5-27.5-40.75-10-49.75 10-49.75 27.5-40.75 40.75-27.5 49.75-10q14.5 0 28.25 3t26.75 9.5l98-97.5h-118q-7 19-19 34.5t-28 26.75-34.75 17.5-38.75 6.25q-26.5 0-49.75-10t-40.75-27.5-27.5-40.75-10-49.75q0-26 10.25-49.5t27.5-40.75 40.5-27.5 49.75-10.25q20 0 38.75 6.25t34.75 17.5 28 27 19 34.75h203l171-170.5h120.5l-170.5 170.5h238zm-682.5 85.5q9 0 16.75-3.5t13.5-9.5 9-13.75 3.25-16.25q0-17.5-12.5-30t-30-12.5-30 12.5-12.5 30q0 8.5 3.25 16.25t9 13.75 13.5 9.5 16.75 3.5zm85.5 256q9 0 16.75-3.5t13.5-9.5 9-13.75 3.25-16.25q0-17.5-12.5-30t-30-12.5q-8.5 0-16.25 3.25t-13.75 9-9.5 13.5-3.5 16.75 3.5 16.75 9.25 13.5 13.5 9.25 16.75 3.5zm810.5-853.5v85.5h-85.5v-85.5h85.5zm-256 0h85.5v85.5h-85.5v-85.5zm-85.5 85.5h-85v-85.5h85v85.5zm-170.5 0h-85.5v-85.5h85.5v85.5zm-170.5 0h-85.5v-85.5h85.5v85.5zm0 170.5h-85.5v-85.5h85.5v85.5zm0 170.5h-85.5v-85h85.5v85zm597-256h85.5v85.5h-85.5v-85.5zm0 171h85.5v85h-85.5v-85zm0 170.5h85.5v85.5h-85.5v-85.5zm0 170.5h85.5v85.5h-85.5v-85.5zm-170.5 0h85.5v85.5h-85.5v-85.5zm-170.5 0h85v85.5h-85v-85.5z"/></svg>