<svg xmlns="http://www.w3.org/2000/svg" viewBox="0 0 2048 2048"><path d="M1169 1024h367l-205 205H964l-175 175q30 62 30 132 0 63-24 119t-66 98-98 66-119 24-119-24-98-66-66-98-24-119q0-29 5.5-57.5T227 1423q-50-14-92-42.5T63 1313t-46.5-87T0 1126q0-63 24-119t66-98 98-66 119-24q49 0 94 14.5t83.5 41.5 67.5 65 45 84h282l307-307h290zM410 410H0V0h410v410zm1228 1228h410v410h-410v-410zm0-819h410v410h-410V819zm-409-409H819V0h410v410zM2048 0v410h-410V0h410zM819 1945q75-57 125.5-136t69.5-171h215v410H819v-103zm-512-716q21 0 40-8t33-22 22-33 8-40-8-39.5-22.5-32.5-33-22-39.5-8-39.5 8-32.5 22-22 32.5-8 39.5 8 39.5 22 33 32.5 22.5 39.5 8zm205 409q43 0 72.5-29.5T614 1536t-29.5-72.5T512 1434t-72.5 29.5T410 1536t29.5 72.5T512 1638z"/></svg>