<svg width="1792" height="1792" viewBox="0 0 1792 1792" xmlns="http://www.w3.org/2000/svg"><path transform="scale(1.75 1.75) translate(0 0)" d="M512 0q70.5 0 136 18.25t122.25 51.75 103.5 80.25 80.25 103.5 51.75 122.25 18.25 136-18.25 136-51.75 122.25-80.25 103.5-103.5 80.25-122.25 51.75-136 18.25-136-18.25-122.25-51.75-103.5-80.25-80.25-103.5-51.75-122.25-18.25-136 18.25-136 51.75-122.25 80.25-103.5 103.5-80.25 122.25-51.75 136-18.25zm0 960q62 0 119.25-16t107-45.25 90.5-70 70-90.5 45.25-107 16-119.25-16-119.25-45.25-107-70-90.5-90.5-70-107-45.25-119.25-16-119.25 16-107 45.25-90.5 70-70 90.5-45.25 107-16 119.25 16 119.25 45.25 107 70 90.5 90.5 70 107 45.25 119.25 16z"/></svg>