<svg xmlns="http://www.w3.org/2000/svg" viewBox="0 0 2048 2048"><path d="M1024 0q141 0 272 36.5T1540.5 140t207 160.5 160.5 207T2011.5 752t36.5 272-36.5 272-103.5 244.5-160.5 207-207 160.5-244.5 103.5-272 36.5-272-36.5T507.5 1908t-207-160.5-160.5-207T36.5 1296 0 1024t36.5-272T140 507.5t160.5-207 207-160.5T752 36.5 1024 0zm0 1920q124 0 238.5-32t214-90.5 181-140 140-181 90.5-214 32-238.5-32-238.5-90.5-214-140-181-181-140-214-90.5-238.5-32-238.5 32-214 90.5-181 140-140 181-90.5 214-32 238.5 32 238.5 90.5 214 140 181 181 140 214 90.5 238.5 32z"/></svg>