<svg width="1792" height="1792" viewBox="0 0 1792 1792" xmlns="http://www.w3.org/2000/svg"><path transform="scale(1.75 1.75) translate(0 0)" d="M640 18.5l320 320v685.5h-64v-658.5l-192-192v210.5h64v640h-192v-192h-64v192h-192v-640h192v-64h-384v704h-64v-768h512v128h64v-365.5zm64 941.5v-512h-320v512h64v-192h192v192h64zm-512-512v-64h64v64h-64zm0 128v-64h64v64h-64zm0 128v-64h64v64h-64zm0 128v-64h64v64h-64zm0 128v-64h64v64h-64zm448-448v64h-64v-64h64zm0 128v64h-64v-64h64zm-128-128v64h-64v-64h64zm0 128v64h-64v-64h64z"/></svg>