<svg width="1792" height="1792" viewBox="0 0 1792 1792" xmlns="http://www.w3.org/2000/svg"><path transform="scale(1.75 1.75) translate(0 0)" d="M256 512h-64v-128h64v128zm128 0h-64v-128h64v128zm128 0h-64v-128h64v128zm-256 192h-64v-128h64v128zm128 0h-64v-128h64v128zm128 0h-64v-128h64v128zm192-320q53 0 99.75 20t81.5 54.75 54.75 81.5 20 99.75v384h-64v-384q0-39.5-15-74.5t-41.25-61.25-61.25-41.25-74.5-15h-64v576h-256v-192h-64v192h-256v-768h64v-128h128v-128h192v128h128v128h64v128h64zm-384-256h64v-64h-64v64zm-128 128h320v-64h-320v64zm384 64h-448v640h128v-192h192v192h128v-640zm128 256h128v64h-128v-64zm0 128h128v64h-128v-64zm0 128h128v64h-128v-64zm0 128h128v64h-128v-64z"/></svg>