<svg width="1792" height="1792" viewBox="0 0 1792 1792" xmlns="http://www.w3.org/2000/svg"><path transform="scale(1.75 1.75) translate(0 0)" d="M231.552 448q-34.498 0-64.996 13.25t-53.246 36-35.998 53.5-13.249 65.25q0 33 12.499 63.75t36.498 54.75l224.487 224 44.997-45-223.987-224.5q-14.499-14.5-22.499-33.5t-8-39.5q0-21.5 8.25-40.25t22.499-33 32.998-22.5 40.248-8.25q20.499 0 39.498 8t33.498 22.5l97.494 97.5h-82.495v64h191.988v-192h-63.996v82.5q-23.499-23.5-46.497-49.5t-48.747-47.5-55.246-35.5-65.996-14zm-39.498-64h63.996v-64h-63.996v64zm0-128h63.996v-64h-63.996v64zm0-128h63.996v-64h-63.996v64zm127.993 0h63.996v-64h-63.996v64zm127.992 0h63.996v-64h-63.996v64zm191.986-64h-63.996v64h63.996v-64zm127.995 0h-63.996v64h63.996v-64zm127.99 0h-63.996v64h63.996v-64zm127.995 0h-63.996v64h63.996v-64zm0 128h-63.996v64h63.996v-64zm0 128h-63.996v64h63.996v-64zm0 128h-63.996v64h63.996v-64zm0 128h-63.996v64h63.996v-64zm0 128h-63.996v64h63.996v-64zm0 128h-63.996v64h63.996v-64zm-127.995 0h-63.996v64h63.996v-64zm-127.99 0h-63.996v64h63.996v-64zm-127.995 0h-63.996v64h63.996v-64zm-127.99 0h-63.996v64h63.996v-64z"/></svg>