<svg xmlns="http://www.w3.org/2000/svg" viewBox="0 0 2048 2048"><path d="M1713 896q69 0 130 26.5t106.5 72 72 107T2048 1232q0 66-25 127.5t-73 109.5l-449 448-90-90 448-449q29-29 45-67t16-79q0-43-16.5-80.5t-45-66-66-45-80.5-16.5q-41 0-79 16t-67 45l-195 195h165v128h-384v-384h128v165q47-47 93-99t97.5-95 110.5-71 132-28zm79-128h-128V640h128v128zm0-256h-128V384h128v128zm0-256h-128V128h128v128zm-256 0h-128V128h128v128zm-256 0h-128V128h128v128zM896 128h128v128H896V128zm-256 0h128v128H640V128zm-256 0h128v128H384V128zm-256 0h128v128H128V128zm0 256h128v128H128V384zm0 256h128v128H128V640zm0 256h128v128H128V896zm0 256h128v128H128v-128zm0 256h128v128H128v-128zm0 256h128v128H128v-128zm256 0h128v128H384v-128zm256 0h128v128H640v-128zm256 0h128v128H896v-128zm256 0h128v128h-128v-128z"/></svg>