<svg xmlns="http://www.w3.org/2000/svg" viewBox="0 0 2048 2048"><path d="M463.104 896q-68.996 0-129.992 26.5t-106.493 72-71.996 107q-26.498 61.5-26.498 130.5 0 66 24.998 127.5 24.999 61.5 72.996 109.5l448.973 448 89.994-90-447.973-449q-28.998-29-44.997-67t-15.999-79q0-43 16.499-80.5t44.997-66 65.996-45 80.495-16.5q40.997 0 78.995 16t66.996 45l194.988 195h-164.99v128h383.977v-384H896.078v165q-46.997-47-92.994-99t-97.494-95-110.493-71q-58.997-28-131.992-28zm-78.995-128h127.992V640H384.109v128zm0-256h127.992V384H384.109v128zm0-256h127.992V128H384.109v128zm255.985 0h127.992V128H640.094v128zm255.984 0h127.992V128H896.078v128zm383.972-128h-127.992v128h127.992V128zm255.99 0h-127.992v128h127.992V128zm255.98 0h-127.992v128h127.992V128zm255.99 0h-127.992v128h127.992V128zm0 256h-127.992v128h127.992V384zm0 256h-127.992v128h127.992V640zm0 256h-127.992v128h127.992V896zm0 256h-127.992v128h127.992v-128zm0 256h-127.992v128h127.992v-128zm0 256h-127.992v128h127.992v-128zm-255.99 0h-127.992v128h127.992v-128zm-255.98 0h-127.992v128h127.992v-128zm-255.99 0h-127.992v128h127.992v-128zm-255.98 0H896.078v128h127.992v-128z"/></svg>