<svg width="1792" height="1792" viewBox="0 0 1792 1792" xmlns="http://www.w3.org/2000/svg"><path transform="scale(1.75 1.75) translate(0 0)" d="M856.5 448q34.5 0 65 13.25t53.25 36 36 53.5 13.25 65.25q0 33-12.5 63.75t-36.5 54.75l-224.5 224-45-45 224-224.5q14.5-14.5 22.5-33.5t8-39.5q0-21.5-8.25-40.25t-22.5-33-33-22.5-40.25-8.25q-20.5 0-39.5 8t-33.5 22.5l-97.5 97.5h82.5v64h-192v-192h64v82.5q23.5-23.5 46.5-49.5t48.75-47.5 55.25-35.5 66-14zm39.5-64h-64v-64h64v64zm0-128h-64v-64h64v64zm0-128h-64v-64h64v64zm-128 0h-64v-64h64v64zm-128 0h-64v-64h64v64zm-192-64h64v64h-64v-64zm-128 0h64v64h-64v-64zm-128 0h64v64h-64v-64zm-128 0h64v64h-64v-64zm0 128h64v64h-64v-64zm0 128h64v64h-64v-64zm0 128h64v64h-64v-64zm0 128h64v64h-64v-64zm0 128h64v64h-64v-64zm0 128h64v64h-64v-64zm128 0h64v64h-64v-64zm128 0h64v64h-64v-64zm128 0h64v64h-64v-64zm128 0h64v64h-64v-64z"/></svg>