<svg width="1792" height="1792" viewBox="0 0 1792 1792" xmlns="http://www.w3.org/2000/svg"><path transform="scale(1.75 1.75) translate(0 0)" d="M557.5 896h146.5v64h-477.5l-169.5-170q-12-12-18.5-28.25t-6.5-33.75 6.5-33.75 19-28.75l550.5-550.5 365 365zm50.5-691l-339 339 275 275 339-339zm-141.5 691l32.5-32-275-275-121 121.5q-7 7-7 17.5t7 17.5l150 150.5h213.5zm493.5-576h-64v-64h64v64zm0-128h-64v-64h64v64zm0-128h-64v-64h64v64zm-128 0h-64v-64h64v64zm-128 0h-64v-64h64v64zm-128 0h-64v-64h64v64zm-128 0h-64v-64h64v64zm-128 0h-64v-64h64v64zm-128 0h-64v-64h64v64zm-128 0h-64v-64h64v64zm0 128h-64v-64h64v64zm0 128h-64v-64h64v64zm0 128h-64v-64h64v64zm0 128h-64v-64h64v64zm704 320h64v64h-64v-64zm128-256h64v64h-64v-64zm0 128h64v64h-64v-64zm0 128h64v64h-64v-64z"/></svg>