<svg width="1792" height="1792" viewBox="0 0 1792 1792" xmlns="http://www.w3.org/2000/svg"><path transform="scale(1.75 1.75) translate(0 0)" d="M466.534 896h-146.491v64h477.471l169.49-170q12-12 18.499-28.25t6.5-33.75-6.5-33.75-18.999-28.75l-550.465-550.5-364.978 365zm-50.497-691l338.979 339-274.983 275-338.979-339zm141.493 691l-32.498-32 274.983-275 120.993 121.5q7 7 7 17.5t-7 17.5l-149.99 150.5h-213.488zm-493.472-576h63.996v-64h-63.996v64zm0-128h63.996v-64h-63.996v64zm0-128h63.996v-64h-63.996v64zm127.993 0h63.996v-64h-63.996v64zm127.992 0h63.996v-64h-63.996v64zm127.992 0h63.996v-64h-63.996v64zm127.99 0h63.996v-64h-63.996v64zm127.995 0h63.996v-64h-63.996v64zm127.99 0h63.996v-64h-63.996v64zm127.995 0h63.996v-64h-63.996v64zm0 128h63.996v-64h-63.996v64zm0 128h63.996v-64h-63.996v64zm0 128h63.996v-64h-63.996v64zm0 128h63.996v-64h-63.996v64zm-703.958 320h-63.996v64h63.996v-64zm-127.993-256h-63.996v64h63.996v-64zm0 128h-63.996v64h63.996v-64zm0 128h-63.996v64h63.996v-64z"/></svg>