<svg xmlns="http://www.w3.org/2000/svg" viewBox="0 0 2048 2048"><path d="M933.068 1792H640.086v128h954.941l338.979-340q23.999-24 36.998-56.5t12.999-67.5-12.999-67.5-37.998-57.5L832.076 230 102.121 960zM832.074 410l677.959 678-549.967 550-677.959-678zm282.986 1382l-64.996-64 549.967-550 241.985 243q13.999 14 13.999 35t-14 35l-299.98 301H1115.06zM128.117 640h127.992V512H128.117v128zm0-256h127.992V256H128.117v128zm0-256h127.992V0H128.117v128zm255.985 0h127.992V0H384.102v128zm255.984 0h127.992V0H640.086v128zm255.984 0h127.992V0H896.07v128zm255.98 0h127.992V0H1152.05v128zm255.99 0h127.992V0H1408.04v128zm255.98 0h127.992V0H1664.02v128zm255.99 0h127.992V0H1920.01v128zm0 256h127.992V256H1920.01v128zm0 256h127.992V512H1920.01v128zm0 256h127.992V768H1920.01v128zm0 256h127.992v-128H1920.01v128zM512.094 1792H384.102v128h127.992v-128zm-255.985-512H128.117v128h127.992v-128zm0 256H128.117v128h127.992v-128zm0 256H128.117v128h127.992v-128z"/></svg>