<svg xmlns="http://www.w3.org/2000/svg" viewBox="0 0 2048 2048"><path d="M1115 1792h293v128H453l-339-340q-24-24-37-56.5T64 1456t13-67.5 38-57.5L1216 230l730 730zm101-1382l-678 678 550 550 678-678zM933 1792l65-64-550-550-242 243q-14 14-14 35t14 35l300 301h427zm987-1152h-128V512h128v128zm0-256h-128V256h128v128zm0-256h-128V0h128v128zm-256 0h-128V0h128v128zm-256 0h-128V0h128v128zm-256 0h-128V0h128v128zm-256 0H768V0h128v128zm-256 0H512V0h128v128zm-256 0H256V0h128v128zm-256 0H0V0h128v128zm0 256H0V256h128v128zm0 256H0V512h128v128zm0 256H0V768h128v128zm0 256H0v-128h128v128zm1408 640h128v128h-128v-128zm256-512h128v128h-128v-128zm0 256h128v128h-128v-128zm0 256h128v128h-128v-128z"/></svg>