<svg xmlns="http://www.w3.org/2000/svg" viewBox="0 0 2048 2048"><path d="M256.109 256v1792h1535.91V256H1280.05q0-53-19.999-99.5T1205.055 75q-34.998-35-81.495-55t-99.494-20-99.494 20-81.496 55q-34.997 35-54.996 81.5T768.081 256H256.112zM1408.04 512H640.087V384h255.984V256q0-27 9.999-50 10-23 27.499-40.5t40.497-27.5q23-10 49.997-10t49.997 10q22.998 10 40.497 27.5t27.5 40.5q9.998 23 9.998 50v128h255.984v128zM384.102 384h127.992v256h1023.94V384h127.992v1536H384.106V384zm895.948 512H512.097v128h767.953V896zm0 384H512.097v128h767.953v-128zm0 384H512.097v128h767.953v-128zm255.98-768h-127.992v128h127.992V896zm0 384h-127.992v128h127.992v-128zm0 384h-127.992v128h127.992v-128z"/></svg>