<svg xmlns="http://www.w3.org/2000/svg" viewBox="0 0 2048 2048"><path d="M1017 0q60 0 123.5 10t123 30.5 112 52 92 75.5 62.5 101 23 128q0 49 9.5 97t32 88 59 68.5T1743 688q27 5 57 18.5t53 27.5q55 36 92.5 85.5t60.5 107 32.5 120.5 9.5 126q0 118-27 210t-76.5 160.5-118.5 116-153.5 77-182 42.5-203.5 13q-91 0-181-5.5T926 1766q-5-69-32-135 97 20 195.5 26.5t197.5 6.5q88 0 169-8.5t151-29.5 128-57 99-90.5 63.5-130T1920 1173q0-45-6-91t-21-89.5-40-81.5-64-66q-5-4-13-8.5t-17-9-18-8-16-4.5q-78-12-135-51t-93.5-96-54-127-17.5-144q0-50-19-89.5t-50.5-69.5-73-51-87-34-91.5-19-87-6q-111 0-199.5 29t-157 80.5-118.5 123T459 516t-51 178.5T386 887q-31-11-63-17t-65-6q7-115 30.5-223.5t65-204.5T456 260t143-138 186-90 232-32zM673 1593q45 36 70 88.5t25 110.5q0 53-20 99.5t-55 81.5-81.5 55-99.5 20-99.5-20-81.5-55-55-81.5-20-99.5 20-99.5 55-81.5 81.5-55 99.5-20q7 0 16.5.5t18.5 1.5l130-130H478q-35 60-94 94t-128 34q-53 0-99.5-20T75 1461t-55-81.5T0 1280t20-99.5 55-81.5 81.5-55 99.5-20 99.5 20 81.5 55 55 81.5 20 99.5h293l384-384h182l-384 384h517l-128 128H859zm-417-185q27 0 50-10t40.5-27.5T374 1330t10-50-10-50-27.5-40.5T306 1162t-50-10-50 10-40.5 27.5T138 1230t-10 50 10 50 27.5 40.5T206 1398t50 10zm256 512q27 0 50-10t40.5-27.5T630 1842t10-50-10-50-27.5-40.5T562 1674t-50-10-50 10-40.5 27.5T394 1742t-10 50 10 50 27.5 40.5T462 1910t50 10z"/></svg>