<svg width="1792" height="1792" viewBox="0 0 1792 1792" xmlns="http://www.w3.org/2000/svg"><path transform="scale(1.75 1.75) translate(0 0)" d="M512 1024q-62 0-119.25-16t-107-45.25-90.5-70-70-90.5-45.25-107-16-119.25 16-119.25 45.25-107 70-90.5 90.5-70 107-45.25 119.25-16 119.25 16 107 45.25 90.5 70 70 90.5 45.25 107 16 119.25-16 119.25-45.25 107-70 90.5-90.5 70-107 45.25-119.25 16zm0-832q-79.5 0-149.25 30.25t-122 82.5-82.5 122-30.25 149.25 30.25 149.25 82.5 122 122 82.5 149.25 30.25 149.25-30.25 122-82.5 82.5-122 30.25-149.25-30.25-149.25-82.5-122-122-82.5-149.25-30.25zm0 384v-256h-64v320h256v-64h-192z"/></svg>