<svg width="1792" height="1792" viewBox="0 0 1792 1792" xmlns="http://www.w3.org/2000/svg"><path transform="scale(1.75 1.75) translate(0 0)" d="M960 576q13.5 0 25 5t20.25 13.75 13.75 20.25 5 25v320h-128v64h-448v-64h-128v-256h-64q-53 0-99.5-20.25t-81.25-55-55-81.25-20.25-99.5 20.25-99.5 55-81.25 81.25-55 99.5-20.25q23 0 46.5 4.5 20-30.5 46.5-55t57.5-41.75 66-26.5 71.5-9.25q55 0 104.25 19.5t87.75 54 63.5 81.25 31 101.25h65.5v256h64zm-448-192v192h320v-192h-320zm-192 256q0-13.5 5-25t13.75-20.25 20.25-13.75 25-5h64v-256h316.5q-6-41-25.5-76.25t-48.75-61-66.75-40.25-79.5-14.5q-35 0-67.5 10.5t-59.75 29.5-48.25 45.75-33.5 59.75q-37.5-17.5-79-17.5-40 0-74.75 15t-61 41.25-41.25 61.25-15 74.5q0 40 15 74.75t41.25 61 61 41.25 74.75 15h64zm512 256h-320v64h320v-64zm128-256h-576v256h64v-64h448v64h64v-256zm-480 64q13 0 22.5 9.5t9.5 22.5-9.5 22.5-22.5 9.5-22.5-9.5-9.5-22.5 9.5-22.5 22.5-9.5z"/></svg>