<svg xmlns="http://www.w3.org/2000/svg" viewBox="0 0 2048 2048"><path d="M1661 896q80 0 150.5 30t123 81.5 83 121.5 30.5 151q0 80-30 149.5t-82.5 122T1813 1634t-149 30H512q-106 0-199.5-40t-163-109.5-109.5-163T0 1152t40-199.5 109.5-163 163-109.5T512 640q46 0 93 9 40-62 92.5-111.5T812 454t132-52 144-18q111 0 209.5 39T1472 530.5 1597.5 693t63.5 203zm3 640q53 0 99.5-20t81.5-55 55-81.5 20-99.5-20-99.5-55-81.5-81.5-55-99.5-20h-128v-64q0-93-35-174.5T1405 643t-142.5-96-174.5-35q-70 0-135 21t-119.5 59-96.5 91.5T670 803q-75-35-158-35-80 0-149.5 30t-122 82.5T158 1003t-30 149q0 80 30 149.5t82.5 122 122 82.5 149.5 30h1152z"/></svg>