<svg width="1792" height="1792" viewBox="0 0 1792 1792" xmlns="http://www.w3.org/2000/svg"><path transform="scale(1.75 1.75) translate(0 0)" d="M830.5 448q40 0 75.25 15t61.5 40.75 41.5 60.75 15.25 75.5q0 40-15 74.75t-41.25 61-61.25 41.25-74.5 15h-576q-53 0-99.75-20t-81.5-54.75-54.75-81.5-20-99.75 20-99.75 54.75-81.5 81.5-54.75 99.75-20q23 0 46.5 4.5 20-31 46.25-55.75t57.25-41.75 66-26 72-9q55.5 0 104.75 19.5t87.25 53.75 62.75 81.25 31.75 101.5zm1.5 320q26.5 0 49.75-10t40.75-27.5 27.5-40.75 10-49.75-10-49.75-27.5-40.75-40.75-27.5-49.75-10h-64v-32q0-46.5-17.5-87.25t-48-71.25-71.25-48-87.25-17.5q-35 0-67.5 10.5t-59.75 29.5-48.25 45.75-33.5 59.75q-37.5-17.5-79-17.5-40 0-74.75 15t-61 41.25-41.25 61.25-15 74.5q0 40 15 74.75t41.25 61 61 41.25 74.75 15h576z"/></svg>