<svg xmlns="http://www.w3.org/2000/svg" viewBox="0 0 2048 2048"><path d="M1664 896q79 0 149 30t122 82.5 82 122.5 30 149q0 80-30 149.5t-82 122-122 82.5-149 30q-60 0-116.5-18.5T1442 1592l-437 437q-19 19-45 19t-45-19-19-45 19-45l437-437q-35-49-53.5-105.5T1280 1280q0-79 30-149t82.5-122.5 122-82.5 149.5-30zm0 640q53 0 99.5-20t81.5-55 55-81.5 20-99.5-20-99.5-55-81.5-81.5-55-99.5-20-99.5 20-81.5 55-55 81.5-20 99.5 20 99.5 55 81.5 81.5 55 99.5 20zm-512 0H512q-106 0-199-40.5t-162.5-110T41 1223 1 1024t40-199 109.5-162.5 162.5-110T512 512q46 0 93 9 40-61 93-110t115-83.5 132-53 143-18.5q110 0 208.5 39T1472 403t127 162.5 62 202.5q-33 0-65.5 5.5T1531 788q-8-86-46-160t-97.5-128-136.5-85-163-31q-70 0-135 21t-119.5 59-96.5 91.5T670 675q-75-35-158-35-80 0-149.5 30t-122 82.5T158 875t-30 149q0 80 30 149.5t82.5 122 122 82.5 149.5 30h640v128z"/></svg>