<svg width="1792" height="1792" viewBox="0 0 1792 1792" xmlns="http://www.w3.org/2000/svg"><path transform="scale(1.75 1.75) translate(0 0)" d="M64 448q26 0 49.5-10.25t40.75-27.5 27.5-40.5 10.25-49.75q0-35.5-1.5-71t2.25-69.25 16-65.25 39.25-58.5 62.5-41.5 73.5-14.5v64q-26.5 0-49.75 10.25t-40.5 27.5-27.5 40.75-10.25 49.5q0 28 1 55.25t.25 53.5-4.75 51-13.5 47.25-26 43-42.5 38q26 17.5 42.5 38t26 43 13.5 47.25 4.75 51-.25 53.5-1 55.25q0 26.5 10.25 49.75t27.5 40.5 40.5 27.5 49.75 10.25v64q-38 0-73.5-14.5t-62.5-41.5-39.25-58.5-16-65.25-2.25-69.25 1.5-71q0-26-10.25-49.5t-27.5-40.75-40.75-27.5-49.5-10.25v-64zm576-448q38 0 73.5 14.5t62.5 41.5 39.25 58.5 16 65.25 2.25 69.25-1.5 71q0 26.5 10.25 49.75t27.5 40.5 40.5 27.5 49.75 10.25v64q-26.5 0-49.75 10.25t-40.5 27.5-27.5 40.75-10.25 49.5q0 35.5 1.5 71t-2.25 69.25-16 65.25-39.25 58.5-62.5 41.5-73.5 14.5v-64q26 0 49.5-10.25t40.75-27.5 27.5-40.5 10.25-49.75q0-28-1-55.25t-.25-53.5 4.75-51 13.5-47.25 26-43 42.5-38q-26-17.5-42.5-38t-26-43-13.5-47.25-4.75-51 .25-53.5 1-55.25q0-26-10.25-49.5t-27.5-40.75-40.75-27.5-49.5-10.25v-64z"/></svg>