<svg xmlns="http://www.w3.org/2000/svg" viewBox="0 0 2048 2048"><path d="M128 896q52 0 99-20.5t81.5-55 55-81T384 640q0-71-3-142t4.5-138.5 32-130.5T496 112t125-83T768 0v128q-53 0-99.5 20.5t-81 55-55 81.5-20.5 99q0 56 2 110.5t.5 107-9.5 102-27 94.5-52 86-85 76q52 35 85 76t52 86 27 94.5 9.5 102-.5 107-2 110.5q0 53 20.5 99.5t55 81 81 55T768 1792v128q-76 0-147-29t-125-83-78.5-117-32-130.5T381 1422t3-142q0-52-20.5-99t-55-81.5-81.5-55-99-20.5V896zM1280 0q76 0 147 29t125 83 78.5 117 32 130.5T1667 498t-3 142q0 53 20.5 99.5t55 81 81 55T1920 896v128q-53 0-99.5 20.5t-81 55-55 81.5-20.5 99q0 71 3 142t-4.5 138.5-32 130.5-78.5 117-125 83-147 29v-128q52 0 99-20.5t81.5-55 55-81 20.5-99.5q0-56-2-110.5t-.5-107 9.5-102 27-94.5 52-86 85-76q-52-35-85-76t-52-86-27-94.5-9.5-102 .5-107 2-110.5q0-52-20.5-99t-55-81.5-81.5-55-99-20.5V0z"/></svg>