<svg xmlns="http://www.w3.org/2000/svg" viewBox="0 0 2048 2048"><path d="M1280 640q0-27 10-50t27.5-40.5T1358 522t50-10 50 10 40.5 27.5T1526 590t10 50-10 50-27.5 40.5T1458 758t-50 10-50-10-40.5-27.5T1290 690t-10-50zm-196 1277q40 67 93 118-38 6-76.5 9.5t-76.5 3.5q-53 0-99.5-20t-81.5-55-55-81.5-20-99.5q0-67 20-122.5t58-109.5q26-35 38-71.5t12-80.5q0-53-20-99.5t-55-81.5-81.5-55-99.5-20q-44 0-80.5 12t-71.5 38q-54 38-109.5 58T256 1280q-53 0-99.5-20T75 1205t-55-81.5T0 1024q0-141 36.5-272T140 507.5t160.5-207 207-160.5T752 36.5 1024 0t272 36.5T1540.5 140t207 160.5 160.5 207T2011.5 752t36.5 272q0 38-3.5 76.5t-9.5 76.5q-51-53-118-93l2-30 1-30q0-123-32-237.5t-90.5-214T1657 391t-181.5-140.5-214-90.5-237.5-32-237.5 32-214 90.5T391 391 250.5 572.5t-90.5 214-32 237.5q0 27 10 50t27.5 40.5T206 1142t50 10q44 0 80.5-12t71.5-38q54-38 109.5-58t122.5-20q79 0 149 30t122.5 82.5T994 1259t30 149v4.5l-1 4.5-2 7q-5 17-9 35l-8 36q-2 13-3 26.5t-4 26.5q-5 18-15 35t-21 34l-15 23q-26 35-38 71.5t-12 80.5q0 27 10 50t27.5 40.5T974 1910t50 10q15 0 30-1zM384 768q0-27 10-50t27.5-40.5T462 650t50-10 50 10 40.5 27.5T630 718t10 50-10 50-27.5 40.5T562 886t-50 10-50-10-40.5-27.5T394 818t-10-50zm384-256q0-27 10-50t27.5-40.5T846 394t50-10 50 10 40.5 27.5T1014 462t10 50-10 50-27.5 40.5T946 630t-50 10-50-10-40.5-27.5T778 562t-10-50zm832 640q93 0 174.5 35.5t142 96 96 142T2048 1600t-35.5 174.5-96 142-142 96T1600 2048t-174.5-35.5-142-96-96-142T1152 1600t35.5-174.5 96-142 142-96T1600 1152zm0 768q47 0 92-13.5t84-39.5l-443-443q-26 39-39.5 84t-13.5 92q0 66 25 124.5t68.5 102 102 68.5 124.5 25zm267-144q26-39 39.5-84t13.5-92q0-66-25.5-124t-69-101.5-101.5-69-124-25.5q-47 0-92 13.5t-84 39.5z"/></svg>