<svg width="1792" height="1792" viewBox="0 0 1792 1792" xmlns="http://www.w3.org/2000/svg"><path transform="scale(1.75 1.75) translate(0 0)" d="M512 0q70.5 0 136 18.25t122.5 51.5 103.75 80 80 103.75 51.5 122.5 18.25 136-18.25 136-51.5 122.5-80 103.75-103.75 80-122.5 51.5-136 18.25q-26.5 0-49.75-10.25t-40.5-27.5-27.5-40.5-10.25-49.75q0-24.5 4.75-42.75t11.75-33.25 15.5-28 15.5-26.25 11.75-28 4.75-33.75q0-26-10.25-49.5t-27.5-40.75-40.75-27.5-49.5-10.25q-19 0-33.75 4.75t-28 11.75-26.25 15.5-28 15.5-33.5 11.75-42.5 4.75q-26.5 0-49.75-10.25t-40.5-27.5-27.5-40.5-10.25-49.75q0-70.5 18.25-136t51.5-122.5 80-103.75 103.75-80 122.25-51.5 136.25-18.25zm0 960q61.5 0 118.75-16t107-45.25 90.75-70.25 70.25-90.75 45.25-107 16-118.75-16-118.75-45.25-107-70.25-90.75-90.75-70.25-107-45.25-118.75-16-118.75 16-107 45.25-90.75 70.25-70.25 90.75-45.25 107-16 118.75q0 13.5 5 25t13.75 20.25 20.25 13.75 25 5q19 0 33.75-4.75t28-11.75 26-15.5 27.5-15.5 33.25-11.75 43.5-4.75q40 0 75 15t61 41 41 61 15 75q0 24.5-4.75 43.25t-11.75 33.5-15.5 27.5-15.5 26-11.75 28-4.75 33.75q0 13.5 5 25t13.75 20.25 20.25 13.75 25 5zm-256-640q13.5 0 25 5t20.25 13.75 13.75 20.25 5 25-5 25-13.75 20.25-20.25 13.75-25 5-25-5-20.25-13.75-13.75-20.25-5-25 5-25 13.75-20.25 20.25-13.75 25-5zm192-128q13.5 0 25 5t20.25 13.75 13.75 20.25 5 25-5 25-13.75 20.25-20.25 13.75-25 5-25-5-20.25-13.75-13.75-20.25-5-25 5-25 13.75-20.25 20.25-13.75 25-5zm256 192q-13.5 0-25-5t-20.25-13.75-13.75-20.25-5-25 5-25 13.75-20.25 20.25-13.75 25-5 25 5 20.25 13.75 13.75 20.25 5 25-5 25-13.75 20.25-20.25 13.75-25 5zm64 128q13.5 0 25 5t20.25 13.75 13.75 20.25 5 25-5 25-13.75 20.25-20.25 13.75-25 5-25-5-20.25-13.75-13.75-20.25-5-25 5-25 13.75-20.25 20.25-13.75 25-5zm-128 192q13.5 0 25 5t20.25 13.75 13.75 20.25 5 25-5 25-13.75 20.25-20.25 13.75-25 5-25-5-20.25-13.75-13.75-20.25-5-25 5-25 13.75-20.25 20.25-13.75 25-5z"/></svg>