<svg xmlns="http://www.w3.org/2000/svg" viewBox="0 0 2048 2048"><path d="M1024 0q141 0 272 36.5t245 103 207.5 160 160 207.5 103 245 36.5 272-36.5 272-103 245-160 207.5-207.5 160-245 103-272 36.5q-53 0-99.5-20.5t-81-55-55-81T768 1792q0-49 9.5-85.5T801 1640t31-56 31-52.5 23.5-56 9.5-67.5q0-52-20.5-99t-55-81.5-81.5-55-99-20.5q-38 0-67.5 9.5t-56 23.5-52.5 31-56 31-67 23.5-85 9.5q-53 0-99.5-20.5t-81-55-55-81T0 1024q0-141 36.5-272t103-245 160-207.5 207.5-160 244.5-103T1024 0zm0 1920q123 0 237.5-32t214-90.5T1657 1657t140.5-181.5 90.5-214 32-237.5-32-237.5-90.5-214T1657 391t-181.5-140.5-214-90.5-237.5-32-237.5 32-214 90.5T391 391 250.5 572.5t-90.5 214-32 237.5q0 27 10 50t27.5 40.5T206 1142t50 10q38 0 67.5-9.5t56-23.5 52-31 55-31 66.5-23.5 87-9.5q80 0 150 30t122 82 82 122 30 150q0 49-9.5 86.5t-23.5 67-31 55-31 52-23.5 56-9.5 67.5q0 27 10 50t27.5 40.5T974 1910t50 10zM512 640q27 0 50 10t40.5 27.5T630 718t10 50-10 50-27.5 40.5T562 886t-50 10-50-10-40.5-27.5T394 818t-10-50 10-50 27.5-40.5T462 650t50-10zm384-256q27 0 50 10t40.5 27.5T1014 462t10 50-10 50-27.5 40.5T946 630t-50 10-50-10-40.5-27.5T778 562t-10-50 10-50 27.5-40.5T846 394t50-10zm512 384q-27 0-50-10t-40.5-27.5T1290 690t-10-50 10-50 27.5-40.5T1358 522t50-10 50 10 40.5 27.5T1526 590t10 50-10 50-27.5 40.5T1458 758t-50 10zm128 256q27 0 50 10t40.5 27.5 27.5 40.5 10 50-10 50-27.5 40.5-40.5 27.5-50 10-50-10-40.5-27.5-27.5-40.5-10-50 10-50 27.5-40.5 40.5-27.5 50-10zm-256 384q27 0 50 10t40.5 27.5 27.5 40.5 10 50-10 50-27.5 40.5-40.5 27.5-50 10-50-10-40.5-27.5-27.5-40.5-10-50 10-50 27.5-40.5 40.5-27.5 50-10z"/></svg>