<svg width="1792" height="1792" viewBox="0 0 1792 1792" xmlns="http://www.w3.org/2000/svg"><path transform="scale(1.75 1.75) translate(0 0)" d="M512 448q26 0 49.5 10.25t40.75 27.5 27.5 40.75 10.25 49.5q0 26.5-10.25 49.75t-27.5 40.5-40.75 27.5-49.5 10.25q-26.5 0-49.75-10.25t-40.5-27.5-27.5-40.5-10.25-49.75q0-26 10.25-49.5t27.5-40.75 40.5-27.5 49.75-10.25zm0 192q13.5 0 25-5t20.25-13.75 13.75-20.25 5-25-5-25-13.75-20.25-20.25-13.75-25-5-25 5-20.25 13.75-13.75 20.25-5 25 5 25 13.75 20.25 20.25 13.75 25 5zm0-576q70.5 0 135.75 18.25t122.25 51.75 103.75 80.25 80.25 103.75 51.75 122.25 18.25 135.75q0 51-10 100.25t-29 95.5-47 88.25-64 78l-45-45q31.5-31.5 55.75-68.25t41-77.25 25.5-83.75 8.75-87.75q0-62-16-119.25t-45.25-107-70-90.5-90.5-70-107-45.25-119.25-16-119.25 16-107 45.25-90.5 70-70 90.5-45.25 107-16 119.25q0 44.5 8.75 87.75t25.5 83.75 41 77.25 55.75 68.25l-45 45q-36-36-64-78t-47-88.25-29-95.5-10-100.25q0-70.5 18.25-135.75t51.75-122.25 80.25-103.75 103.75-80.25 122.25-51.75 135.75-18.25zm0 192q66.5 0 124.75 25t101.75 68.5 68.5 101.75 25 124.75q0 64-24.25 122.5t-69.25 104l-45.5-45.5q36-36 55.5-83t19.5-98q0-53-20.25-99.5t-55-81.25-81.25-55-99.5-20.25-99.5 20.25-81.25 55-55 81.25-20.25 99.5q0 51 19.5 98t55.5 83l-45.5 45.5q-45-45.5-69.25-104t-24.25-122.5q0-66.5 25-124.75t68.5-101.75 101.75-68.5 124.75-25z"/></svg>