<svg width="1792" height="1792" viewBox="0 0 1792 1792" xmlns="http://www.w3.org/2000/svg"><path transform="scale(1.75 1.75) translate(0 0)" d="M1024 64v832h-1024v-832h1024zm-960 64v64h896v-64h-896zm896 704v-576h-896v576h896zm-264-448l128.5 320h-45.5l-128.5-320h45.5zm-328 38q-26.5 0-48.25 8.25t-37 24-23.75 39-8.5 52.75q0 27.5 7.75 50t22.5 38.25 36.25 24.25 49 8.5q17.5 0 34.75-3.5t28.75-9l8 31q-11 5.5-31.5 9.75t-48 4.25q-31.5 0-58.75-10t-47.25-29.25-31.25-47.5-11.25-65.25q0-35 11.5-64.25t32.25-50 49.5-32.25 63.75-11.5q28.5 0 46 4.75t25.5 8.75l-9.5 31.5q-11-5.5-26.25-9t-34.25-3.5zm144 26h64v64h-64v-64zm0 128h64v64h-64v-64z"/></svg>