<svg width="1792" height="1792" viewBox="0 0 1792 1792" xmlns="http://www.w3.org/2000/svg"><path transform="scale(1.75 1.75) translate(0 0)" d="M745.5 297.5l45 45-374.5 374.5-182.5-182.5 45-45 137.5 137.5zm-233.5-297.5q70.5 0 136 18.25t122.5 51.5 103.75 80 80 103.75 51.5 122.5 18.25 136-18.25 136-51.5 122.5-80 103.75-103.75 80-122.5 51.5-136 18.25-136-18.25-122.5-51.5-103.75-80-80-103.75-51.5-122.25-18.25-136.25q0-70.5 18.25-136t51.5-122.5 80-103.75 103.75-80 122.25-51.5 136.25-18.25zm0 960q61.5 0 118.75-16t107-45.25 90.75-70.25 70.25-90.75 45.25-106.75 16-119q0-61.5-16-118.75t-45.25-107-70.25-90.75-90.75-70.25-107-45.25-118.75-16-118.75 16-107 45.25-90.75 70.25-70.25 90.75-45.25 107-16 118.75 16 118.75 45.25 107 70.25 90.75 90.75 70.25 106.75 45.25 119 16z"/></svg>