<svg xmlns="http://www.w3.org/2000/svg" viewBox="0 0 2048 2048"><path d="M2048 1280v768h-896v-384H768q0 80-30 149.5t-82.5 122T533 2018t-149 30q-80 0-149.5-30t-122-82.5-82.5-122T0 1664q0-79 30-149t82.5-122.5 122-82.5 149.5-30q61 0 117.5 18.5t104 52 84 81T746 1536h406v-256h128q0-39 .5-77t11.5-76L752 587q-39 26-84 39.5T576 640q-66 0-124.5-25t-102-68.5-68.5-102T256 320t25-124 68.5-101.5 102-69T576 0t124 25.5 101.5 69 69 101.5T896 320q0 47-13.5 92T843 496l513 513q46-54 109.5-83.5T1600 896q66 0 124 25.5t101.5 69 69 101.5 25.5 124v64h128zM576 512q40 0 75-15t61-41 41-61 15-75-15-75-41-61-61-41-75-15-75 15-61 41-41 61-15 75 15 75 41 61 61 41 75 15zM384 1920q53 0 99.5-20t81.5-55 55-81.5 20-99.5-20-99.5-55-81.5-81.5-55-99.5-20-99.5 20-81.5 55-55 81.5-20 99.5 20 99.5 55 81.5 81.5 55 99.5 20zm1024-640h384v-64q0-40-15-75t-41-61-61-41-75-15-75 15-61 41-41 61-15 75v64zm512 128h-640v512h640v-512z"/></svg>