<svg width="1792" height="1792" viewBox="0 0 1792 1792" xmlns="http://www.w3.org/2000/svg"><path transform="scale(1.75 1.75) translate(0 0)" d="M1008.5 702.5q5.5 5.5 8.5 11t3 13.5q0 16-6.75 28.5t-25.25 12.5h-517l-41.5-160h434.5v-384h-640v96h64q13.5 0 25 5t20.25 13.75 13.75 20.25 5 25v416q0 13.5-5 25t-13.75 20.25-20.25 13.75-25 5h-224q-13.5 0-25-5t-20.25-13.75-13.75-20.25-5-25v-416q0-13.5 5-25t13.75-20.25 20.25-13.75 25-5h96v-96q0-13.5 5-25t13.75-20.25 20.25-13.75 25-5h640q13.5 0 25 5t20.25 13.75 13.75 20.25 5 25v400zm-784.5 97.5h-96v32h96v-32zm64-416h-224v384h224v-384z"/></svg>