<svg width="1792" height="1792" viewBox="0 0 1792 1792" xmlns="http://www.w3.org/2000/svg"><path transform="scale(1.75 1.75) translate(0 0)" d="M1024 640v384h-448v-192h-192q0 40-15 74.75t-41.25 61-61.25 41.25-74.5 15q-40 0-74.75-15t-61-41.25-41.25-61-15-74.75q0-39.5 15-74.5t41.25-61.25 61-41.25 74.75-15q30.5 0 58.75 9.25t52 26 42 40.5 28.25 52.25h203v-128h64q0-19.5.25-38.5t5.75-38l-270-270q-19.5 13-42 19.75t-46 6.75q-33 0-62.25-12.5t-51-34.25-34.25-51-12.5-62.25 12.5-62 34.25-50.75 51-34.5 62.25-12.75 62 12.75 50.75 34.5 34.5 50.75 12.75 62q0 23.5-6.75 46t-19.75 42l256.5 256.5q23-27 54.75-41.75t67.25-14.75q33 0 62 12.75t50.75 34.5 34.5 50.75 12.75 62v32h64zm-736-384q20 0 37.5-7.5t30.5-20.5 20.5-30.5 7.5-37.5-7.5-37.5-20.5-30.5-30.5-20.5-37.5-7.5-37.5 7.5-30.5 20.5-20.5 30.5-7.5 37.5 7.5 37.5 20.5 30.5 30.5 20.5 37.5 7.5zm-96 704q26.5 0 49.75-10t40.75-27.5 27.5-40.75 10-49.75-10-49.75-27.5-40.75-40.75-27.5-49.75-10-49.75 10-40.75 27.5-27.5 40.75-10 49.75 10 49.75 27.5 40.75 40.75 27.5 49.75 10zm512-320h192v-32q0-20-7.5-37.5t-20.5-30.5-30.5-20.5-37.5-7.5-37.5 7.5-30.5 20.5-20.5 30.5-7.5 37.5v32zm256 64h-320v256h320v-256z"/></svg>