<svg width="1792" height="1792" viewBox="0 0 1792 1792" xmlns="http://www.w3.org/2000/svg"><path transform="scale(1.75 1.75) translate(0 0)" d="M1024 128v576h-384v-64h320v-448h-768v128h-64v-192h896zm-512 512h64v128q0 13.5-5 25t-13.75 20.25-20.25 13.75-25 5h-448q-13.5 0-25-5t-20.25-13.75-13.75-20.25-5-25v-320q0-13.5 5-25t13.75-20.25 20.25-13.75 25-5h256v64h-256v320h448v-128zm-128-256q40 0 75 15t61 41 41 61 15 75h-64q0-26.5-10-49.75t-27.5-40.75-40.75-27.5-49.75-10v-64zm0 128q13.5 0 25 5t20.25 13.75 13.75 20.25 5 25h-64v-64zm256 64q0-53-20.25-99.5t-55-81.25-81.25-55-99.5-20.25v-64q66.5 0 124.75 25t101.75 68.5 68.5 101.75 25 124.75h-64z"/></svg>