<svg xmlns="http://www.w3.org/2000/svg" viewBox="0 0 2048 2048"><path d="M1664 1408q53 0 99.5 20t81.5 55 55 81.5 20 99.5-20 99.5-55 81.5-81.5 55-99.5 20-99.5-20-81.5-55-55-81.5-20-99.5q0-71 35-130l-289-289q-59 35-130 35t-130-35l-289 289q35 59 35 130 0 53-20 99.5t-55 81.5-81.5 55-99.5 20-99.5-20-81.5-55-55-81.5-20-99.5 20-99.5 55-81.5 81.5-55 99.5-20q71 0 130 35l289-289q-35-59-35-130t35-130L514 605q-59 35-130 35-53 0-99.5-20T203 565t-55-81.5-20-99.5 20-99.5 55-81.5 81.5-55 99.5-20 99.5 20 81.5 55 55 81.5 20 99.5q0 71-35 130l289 289q59-35 130-35t130 35l289-289q-35-59-35-130 0-53 20-99.5t55-81.5 81.5-55 99.5-20 99.5 20 81.5 55 55 81.5 20 99.5-20 99.5-55 81.5-81.5 55-99.5 20q-71 0-130-35l-289 289q35 59 35 130t-35 130l289 289q59-35 130-35zm0-1152q-27 0-50 10t-40.5 27.5T1546 334t-10 50 10 50 27.5 40.5T1614 502t50 10 50-10 40.5-27.5T1782 434t10-50-10-50-27.5-40.5T1714 266t-50-10zM256 384q0 27 10 50t27.5 40.5T334 502t50 10 50-10 40.5-27.5T502 434t10-50-10-50-27.5-40.5T434 266t-50-10-50 10-40.5 27.5T266 334t-10 50zm128 1408q27 0 50-10t40.5-27.5T502 1714t10-50-10-50-27.5-40.5T434 1546t-50-10-50 10-40.5 27.5T266 1614t-10 50 10 50 27.5 40.5T334 1782t50 10zm640-640q27 0 50-10t40.5-27.5 27.5-40.5 10-50-10-50-27.5-40.5T1074 906t-50-10-50 10-40.5 27.5T906 974t-10 50 10 50 27.5 40.5T974 1142t50 10zm640 640q27 0 50-10t40.5-27.5 27.5-40.5 10-50-10-50-27.5-40.5-40.5-27.5-50-10-50 10-40.5 27.5-27.5 40.5-10 50 10 50 27.5 40.5 40.5 27.5 50 10z"/></svg>