<svg xmlns="http://www.w3.org/2000/svg" viewBox="0 0 2048 2048"><path d="M1280 2048l140-281-268-268v357q0 40-15 75t-41 61-61 41-75 15-75-15-61-41-41-61-15-75v-241l-1-2q-5 19-18 32l-280 281q-28 28-65 43t-76 15q-41 0-77.5-15.5T187 1926t-43-63.5-16-77.5q0-40 15.5-77t43.5-65l197-198v-368q-33 11-64 11-40 0-75-15t-61-41-41-61-15-75V576q0-20 11.5-36.5T170 516L19 365Q0 346 0 320t19-45 45-19 45 19l205 204 375-93q18-5 39-3.5t40 1.5q0-53 20-99.5t55-81.5 81.5-55 99.5-20 99.5 20 81.5 55 55 81.5 20 99.5q0 51-19.5 98t-54.5 82l134 611q2 10 3 20t1 20q0 58-31.5 106.5T1227 1393l254 253 183-366 384 768h-768zM1024 256q-27 0-50 10t-40.5 27.5T906 334t-10 50 10 50 27.5 40.5T974 502t50 10 50-10 40.5-27.5T1142 434t10-50-10-50-27.5-40.5T1074 266t-50-10zM320 960q26 0 45-19t19-45V781q0-23 14-40t35-22q14-4 44-12t62-16.5 60.5-15T639 669q26 0 45.5 19t19.5 46q0 17-5.5 28T683 780.5t-22.5 12T635 801l261 260V937q0-26 18.5-45t44.5-19q23 0 41 13.5t23 36.5q18 77 32.5 154t34.5 153q6 23 22.5 36.5t40.5 13.5q26 0 44.5-18.5t18.5-44.5q0-5-2-15l-124-571q-32 9-66 9-69 0-128-34t-94-94h-90L256 626v270q0 26 19 45t45 19zm704 527q-3-5-12-23.5t-22-44-27-54-26-53-20.5-41-9.5-17.5q-17-21-32.5-37t-31-30.5T811 1157t-36-35L512 859v613q0 26-19 45l-216 216q-21 21-21 51 0 29 21 50.5t50 21.5q30 0 51-21l262-262v-229q0-26 19-45t45-19q18 0 33.5 9.5T761 1315l128 256q7 13 7 29v256q0 26 19 45t45 19 45-19 19-45v-369zm640 79l-177 354h354z"/></svg>