<svg width="1792" height="1792" viewBox="0 0 1792 1792" xmlns="http://www.w3.org/2000/svg"><path transform="scale(1.75 1.75) translate(0 0)" d="M640 1024l70-140.5-134-134v178.5q0 20-7.5 37.5t-20.5 30.5-30.5 20.5-37.5 7.5-37.5-7.5-30.5-20.5-20.5-30.5-7.5-37.5v-120.5l-.5-1q-2.5 9.5-9 16l-140 140.5q-14 14-32.5 21.5t-38 7.5q-20.5 0-38.75-7.75t-31.75-21.25-21.5-31.75-8-38.75q0-20 7.75-38.5t21.75-32.5l98.5-99v-184q-16.5 5.5-32 5.5-20 0-37.5-7.5t-30.5-20.5-20.5-30.5-7.5-37.5v-160q0-10 5.75-18.25t15.25-11.75l-75.5-75.5q-9.5-9.5-9.5-22.5t9.5-22.5 22.5-9.5 22.5 9.5l102.5 102 187.5-46.5q9-2.5 19.5-1.75t20 .75q0-26.5 10-49.75t27.5-40.75 40.75-27.5 49.75-10 49.75 10 40.75 27.5 27.5 40.75 10 49.75q0 25.5-9.75 49t-27.25 41l67 305.5q1 5 1.5 10t.5 10q0 29-15.75 53.25t-42.75 35.75l127 126.5 91.5-183 192 384h-384zm-128-896q-13.5 0-25 5t-20.25 13.75-13.75 20.25-5 25 5 25 13.75 20.25 20.25 13.75 25 5 25-5 20.25-13.75 13.75-20.25 5-25-5-25-13.75-20.25-20.25-13.75-25-5zm-352 352q13 0 22.5-9.5t9.5-22.5v-57.5q0-11.5 7-20t17.5-11q7-2 22-6t31-8.25 30.25-7.5 19.75-3.25q13 0 22.75 9.5t9.75 23q0 8.5-2.75 14t-7.75 9.25-11.25 6-12.75 4.25l130.5 130v-62q0-13 9.25-22.5t22.25-9.5q11.5 0 20.5 6.75t11.5 18.25q9 38.5 16.25 77t17.25 76.5q3 11.5 11.25 18.25t20.25 6.75q13 0 22.25-9.25t9.25-22.25q0-2.5-1-7.5l-62-285.5q-16 4.5-33 4.5-34.5 0-64-17t-47-47h-45l-228 57v135q0 13 9.5 22.5t22.5 9.5zm352 263.5q-1.5-2.5-6-11.75t-11-22-13.5-27-13-26.5-10.25-20.5-4.75-8.75q-8.5-10.5-16.25-18.5t-15.5-15.25-16.25-14.75-18-17.5l-131.5-131.5v306.5q0 13-9.5 22.5l-108 108q-10.5 10.5-10.5 25.5 0 14.5 10.5 25.25t25 10.75q15 0 25.5-10.5l131-131v-114.5q0-13 9.5-22.5t22.5-9.5q9 0 16.75 4.75t11.75 12.75l64 128q3.5 6.5 3.5 14.5v128q0 13 9.5 22.5t22.5 9.5 22.5-9.5 9.5-22.5v-184.5zm320 39.5l-88.5 177h177z"/></svg>