<svg width="1792" height="1792" viewBox="0 0 1792 1792" xmlns="http://www.w3.org/2000/svg"><path transform="scale(1.75 1.75) translate(0 0)" d="M571.5 745q4.5 10.5 4.5 23v192q0 13.5-5 25t-13.75 20.25-20.25 13.75-25 5-25-5-20.25-13.75-13.75-20.25-5-25v-177l-64-128v81q0 12.5-5 24.5t-13.5 20.5l-160.5 160.5q-18.5 18.5-45 18.5-13.5 0-25-5t-20.25-13.75-13.75-20.25-5-25q0-13 5-24.75t14-20.75l141-141v-280zm68.5 279l70-140.5-60.5-61q-9.5-9.5-9.5-22.5t9.5-22.5 22.5-9.5 22.5 9.5l46 45.5 91.5-183 192 384h-384zm-160-768q-20 0-37.5-7.5t-30.5-20.5-20.5-30.5-7.5-37.5 7.5-37.5 20.5-30.5 30.5-20.5 37.5-7.5 37.5 7.5 30.5 20.5 20.5 30.5 7.5 37.5-7.5 37.5-20.5 30.5-30.5 20.5-37.5 7.5zm158 368.5q1 4 1.5 7.75t.5 7.75q0 16-8 30.5t-21 23l-364.5-364q-9.5-9.5-22.5-9.5t-22.5 9.5-9.5 22.5v64q0 13.5-5 25t-13.75 20.25-20.25 13.75-25 5-25-5-20.25-13.75-13.75-20.25-5-25v-96q0-16 7.75-30.5t21.25-23l-83.5-84q-9.5-9.5-9.5-22.5t9.5-22.5 22.5-9.5 22.5 9.5l108 108 164-41q7.5 25.5 22.25 46.75t35 36.5 45 23.75 51.25 8.5q20.5 0 40-5t37-15z"/></svg>