<svg width="1792" height="1792" viewBox="0 0 1792 1792" xmlns="http://www.w3.org/2000/svg"><path transform="scale(1.75 1.75) translate(0 0)" d="M654.02 538.5q-32.498 16.5-58.746 40.75t-44.748 54q-18.499 29.75-28.498 64t-10 70.75h63.996q0-39.5 15.249-74.5t41.248-61 60.996-41.25 74.495-15.25 74.495 15.25 60.996 41.25 41.248 61 15.249 74.5h63.996q0-36.5-10-70.75t-28.498-64-44.748-54-58.746-40.75q36.498-27 57.246-68t20.749-86.5q0-39.5-15.249-74.5t-41.248-61-60.996-41.25-74.495-15.25-74.495 15.25-60.996 41.25-41.248 61-15.249 74.5q0 45.5 20.749 86.5t57.246 68zm241.99-154.5q0 26.5-10.25 49.75t-27.498 40.5-40.498 27.5-49.747 10.25q-25.999 0-49.497-10.25t-40.748-27.5-27.498-40.5-10.25-49.75q0-26 10.25-49.5t27.498-40.75 40.748-27.5 49.497-10.25q26.499 0 49.747 10.25t40.498 27.5 27.498 40.75 10.25 49.5zm-895.947-192v64h447.973v-64h-447.973zm447.972 256h-447.973v64h447.973v-64zm0 256h-447.973v64h447.973v-64z"/></svg>