<svg xmlns="http://www.w3.org/2000/svg" viewBox="0 0 2048 2048"><path d="M1920 128v1792h-384q0-109-39-202.5T1389 1555t-162.5-108-202.5-39q-107 0-200.5 40T661 1557t-109 162.5-40 200.5H128V128h1792zm-128 128H256v1536h140q15-75 47.5-144.5T523 1519t107-106 131-78q-58-34-104-81.5t-78.5-105T529 1027t-17-131q0-106 40-199.5t109.5-163 163-109.5 199.5-40 199.5 40 163 109.5 109.5 163 40 199.5q0 67-17 130.5t-49 120.5-78 105-103 82q71 32 131 78.5t106.5 105.5 78.5 128.5 47 145.5h140V256zm-768 1024q79 0 149-30.5t122-82.5 82.5-122 30.5-149-30.5-149-82.5-122-122-82.5-149-30.5-149 30.5T753 625t-82.5 122T640 896t30.5 149 82.5 122 122 82.5 149 30.5z"/></svg>