<svg width="1792" height="1792" viewBox="0 0 1792 1792" xmlns="http://www.w3.org/2000/svg"><path transform="scale(1.75 1.75) translate(0 0)" d="M1024 704v320h-320v-320h320zm-64 64h-192v192h192v-192zm-253.5-128q-22.5-31-51.5-55t-62.25-40.25-70-24.5-74.75-8.25q-67 0-125.5 24.75t-101.75 68-68 101.75-24.75 125.5h-64q0-60 17.5-116t50-103.25 78.25-83.25 102.75-57q-27.5-17.5-49.75-41.25t-38-51.75-24.25-59.25-8.5-64.25q0-53 20.25-99.5t55-81.25 81.25-55 99.5-20.25 99.5 20.25 81.25 55 55 81.25 20.25 99.5q0 33-8.5 64.25t-24.25 59.25-38 51.75-49.75 41.25q62.5 23 113.5 66.25t84 101.25h-74.5zm-450.5-384q0 39.5 15.25 74.5t41.25 61 61 41.25 74.5 15.25 74.5-15.25 61-41.25 41.25-61 15.25-74.5-15.25-74.5-41.25-61-61-41.25-74.5-15.25-74.5 15.25-61 41.25-41.25 61-15.25 74.5z"/></svg>