<svg xmlns="http://www.w3.org/2000/svg" viewBox="0 0 2048 2048"><path d="M1330 1203q136 47 245.5 131.5t186 195.5 117.5 243 41 275h-128q0-164-58.5-304.5T1572 1500t-243.5-161.5T1024 1280q-107 0-206 27t-184.5 76.5-155 119-119 155T283 1842t-27 206H128q0-144 42-275.5T289 1531t186.5-194T720 1204q-78-42-140-102T474.5 968.5t-67-157T384 640q0-133 50-249.5T571 187 774.5 50 1024 0t249.5 50T1477 187t137 203.5 50 249.5q0 88-23.5 171t-67 156-105 133.5T1330 1203zM512 640q0 106 40.5 199t110 162.5 162.5 110 199 40.5 199-40.5 162.5-110 110-162.5 40.5-199-40.5-199-110-162.5-162.5-110-199-40.5-199 40.5-162.5 110-110 162.5T512 640z"/></svg>