<svg width="1792" height="1792" viewBox="0 0 1792 1792" xmlns="http://www.w3.org/2000/svg"><path transform="scale(1.75 1.75) translate(0 0)" d="M960 64v896h-192q0-54.5-19.5-101.25t-54-81.25-81.25-54-101.25-19.5q-53.5 0-100.25 20t-81.25 54.5-54.5 81.25-20 100.25h-192v-896h896zm-64 64h-768v768h70q7.5-37.5 23.75-72.25t39.75-64.25 53.5-53 65.5-39q-29-17-52-40.75t-39.25-52.5-24.75-60.75-8.5-65.5q0-53 20-99.75t54.75-81.5 81.5-54.75 99.75-20 99.75 20 81.5 54.75 54.75 81.5 20 99.75q0 33.5-8.5 65.25t-24.5 60.25-39 52.5-51.5 41q35.5 16 65.5 39.25t53.25 52.75 39.25 64.25 23.5 72.75h70v-768zm-384 512q39.5 0 74.5-15.25t61-41.25 41.25-61 15.25-74.5-15.25-74.5-41.25-61-61-41.25-74.5-15.25-74.5 15.25-61 41.25-41.25 61-15.25 74.5 15.25 74.5 41.25 61 61 41.25 74.5 15.25z"/></svg>