<svg width="1792" height="1792" viewBox="0 0 1792 1792" xmlns="http://www.w3.org/2000/svg"><path transform="scale(1.75 1.75) translate(0 0)" d="M665 601.5q68 23.5 122.75 65.75t93 97.75 58.75 121.5 20.5 137.5h-64q0-82-29.25-152.25t-80.75-121.75-121.75-80.75-152.25-29.25q-53.5 0-103 13.5t-92.25 38.25-77.5 59.5-59.5 77.5-38.25 92.25-13.5 103h-64q0-72 21-137.75t59.5-120.75 93.25-97 122.25-66.5q-39-21-70-51t-52.75-66.75-33.5-78.5-11.75-85.75q0-66.5 25-124.75t68.5-101.75 101.75-68.5 124.75-25 124.75 25 101.75 68.5 68.5 101.75 25 124.75q0 44-11.75 85.5t-33.5 78-52.5 66.75-69.25 51.25zm-409-281.5q0 53 20.25 99.5t55 81.25 81.25 55 99.5 20.25 99.5-20.25 81.25-55 55-81.25 20.25-99.5-20.25-99.5-55-81.25-81.25-55-99.5-20.25-99.5 20.25-81.25 55-55 81.25-20.25 99.5z"/></svg>