<svg width="1792" height="1792" viewBox="0 0 1792 1792" xmlns="http://www.w3.org/2000/svg"><path transform="scale(1.75 1.75) translate(0 0)" d="M896 448v384l30.5 91.5 15 45.25 12.25 36.75 6.25 18.5h-960q1-3 6.25-18.5t12.25-36.75 15-45.25l30.5-91.5v-384h-64v-64l448-224v-160h191.5v128h-127.5v32l448 224v64h-64zm-753-64h674l-337-168.5zm113 448h64v-384h-64v384zm128 0h64v-384h-64v384zm128 0h64v-384h-64v384zm128 0h64v-384h-64v384zm-512 0h64v-384h-64v384zm743 128l-21-64h-740l-21 64h782zm-39-512h-64v384h64v-384z"/></svg>