<svg xmlns="http://www.w3.org/2000/svg" viewBox="0 0 2048 2048"><path d="M1262 671q63 0 118.5 24t97 65.5 65.5 97 24 118.5v16l-2 16-180 863q-8 39-22 71.5t-36.5 56-54.5 36.5-75 13q-11 0-28-3.5t-36-8.5-36.5-9.5-29.5-7.5q-43-10-79-21t-61.5-30.5T887 1916t-14-85v-16.5l2-16.5 73-469q-3-5-8-9t-11-4q-20 0-42.5 4t-45.5 4q-62 0-112.5-17.5t-86-51.5-54.5-83.5-19-112.5q0-55 20-100.5t54.5-81.5 79-61 94.5-38l387-102q14-4 29-4.5t29-.5zm-58 1249q3 1 7 1 11 0 19.5-8t14-19 8.5-23l5-20 1-5q45-215 76-362.5t51-243.5 30.5-148 15.5-76 6-28.5l1-4.5v-7q0-37-14-69t-38-56-56.5-38-69.5-14h-13.5l-13.5 2q-97 25-191.5 49.5T851 901q-29 8-56.5 21.5t-49.5 34-35 46.5-13 59q0 73 38 103.5t108 30.5q22 0 43.5-3.5t43.5-3.5q28 0 55 11t47 30.5 32.5 45 12.5 55.5q0 2-.5 4t-.5 4l-74 476q-1 5-1 9.5v9.5q0 8 1 19t7 16q5 5 35.5 13.5t66 16.5 64 14.5 29.5 6.5zM1305 9q85 0 175.5 10T1652 56q27 9 46 22.5t38 35.5q39 46 76 94t71 98q15 22 33.5 51t35 61 28 64 11.5 60q0 46-16.5 87.5T1931 708t-61 68-70 55q-17 13-39 13-26 0-45-19t-19-45q0-15 5.5-26t16.5-22l9-9 32-32 31-36 23-39.5 9-42.5q0-28-26.5-48.5t-67.5-35-91-23-97-13-85.5-6-56.5-1.5q-132 0-264 18t-259 55q-28 8-71 21.5T709.5 572t-110 40T486 660t-106.5 55-89 60-61.5 64.5-23 67.5q0 36 16.5 63.5T259 1021t36.5 43.5T312 1106q0 26-19 44.5t-45 18.5q-23 0-47.5-17t-47-44.5T111 1046t-35-68-23.5-65-8.5-52q0-34 5.5-70t9.5-70q3-30 7.5-71T77 566.5t14.5-82T112 419q22-50 68-81 61-41 131-78.5T454.5 190t148-58.5T748 86q136-37 276-57t281-20zm96 309q45 0 92.5 2.5t95 8 94 15.5 88.5 25q-31-45-64-88.5t-69-84.5q-11-12-35-21.5t-55.5-16-67-10.5-68.5-6.5-61-3.5-44-1q-133 0-265.5 18.5T781 209q-57 15-129 41t-145 57.5-140.5 67T250 445q-13 9-21 25-7 16-13 45.5t-11 62-8.5 63.5-5.5 49q57-51 138-95t170-81 178.5-66T841 399q140-38 277.5-59.5T1401 318z"/></svg>