<svg xmlns="http://www.w3.org/2000/svg" viewBox="0 0 2048 2048"><path d="M786 671q14 0 29 .5t29 4.5l387 102q48 13 92.5 37.5t79 60T1458 956t21 99q0 129-72 199t-200 70q-23 0-45.5-4t-42.5-4q-12 0-19 13l73 469q2 8 2 16.5v16.5q0 53-14 85t-39.5 51.5-61.5 30.5-79 21q-12 3-29.5 7.5T915 2036t-36 8.5-28 3.5q-44 0-75.5-13t-54-36.5-36.5-56-22-71.5l-180-863q-2-8-2-16v-16q0-63 24-118.5t65.5-97 97-65.5T786 671zm419 525q70 0 108-30.5t38-103.5q0-33-13-59t-35-46.5-49.5-34T1197 901q-97-26-191.5-50.5T814 801q-6-2-13.5-2H787q-37 0-69.5 14T661 851t-38 56-14 69v10l181 865q1 8 4.5 20t9 23 14 19 19.5 8q4 0 7-1 1 0 29.5-6.5t64-14.5 66-16.5 35.5-13.5q6-5 7-16t1-19v-9.5l-1-9.5-74-476q0-2-.5-4t-.5-4q0-30 12.5-55.5t32.5-45 46.5-30.5 55.5-11q22 0 43.5 3.5t43.5 3.5zm799-348q0 37-14.5 83.5t-38.5 91-54.5 82-63.5 55.5q-15 9-33 9-26 0-45-18.5t-19-44.5q0-21 16.5-41.5t36.5-43.5 36.5-50.5T1842 907q0-34-23-67.5t-61.5-64.5-89-60-106.5-55-113.5-48-110-40-95.5-31.5-71-21.5q-127-37-259-55t-264-18q-18 0-56.5 1.5t-85.5 6-97 13-91 23-67.5 35T225 573q0 22 9 42.5t23 39.5 31 36l32 32 9 9q11 11 16.5 22t5.5 26q0 26-19 45t-45 19q-22 0-39-13-36-24-70-55t-61-68-43.5-78.5T57 542q0-28 11-60t27.5-64 35.5-61 34-51q34-50 71-98t76-94q19-22 38-35.5T396 56q81-27 171.5-37T743 9q141 0 281 20t276 57q70 19 145 45.5t148.5 58.5 143.5 69.5 131 78.5q46 31 68 81 12 26 20.5 65.5t14.5 82 10.5 83.5 7.5 71q1 13 4 30t5 35 4 34.5 2 27.5zM647 318q145 0 283 21.5t279 59.5q73 20 162.5 49t178 66 169.5 81 138 95q-2-18-5.5-49t-8.5-63.5-11-62-13-45.5q-8-16-21-25-49-35-116.5-70.5t-140.5-67-145-57.5-129-41q-128-35-260.5-53.5T741 137q-17 0-44.5 1t-60.5 3.5-68.5 6.5-67 10.5-55.5 16-35 21.5q-36 41-69 84.5T277 369q42-15 88.5-25t94-15.5 95-8T647 318z"/></svg>