<svg xmlns="http://www.w3.org/2000/svg" viewBox="0 0 2048 2048"><path d="M1416 1536q51 2 96.5 22.5t79 55.5 53 81 19.5 97q0 53-20.5 99.5t-55 81-81.5 55-99 20.5q-53 0-99.5-20.5t-81-55-55-81-20.5-99.5q0-71 36.5-132t99.5-94l-266-531-265 529q32 17 57.5 41t43.5 54 28 63.5 10 69.5q0 53-20.5 99.5t-55 81-81.5 55-99 20.5q-53 0-99.5-20.5t-81-55-55-81T384 1792q0-51 19-96.5t52-80 77.5-55.5 95.5-24l322-646-339-678 58-175 353 708 353-708 58 175-339 678zm-776 384q27 0 50-10t40.5-27.5T758 1842t10-50-10-50-27.5-40.5T690 1674t-50-10-50 10-40.5 27.5T522 1742t-10 50 10 50 27.5 40.5T590 1910t50 10zm768 0q27 0 50-10t40.5-27.5 27.5-40.5 10-50-10-50-27.5-40.5-40.5-27.5-50-10-50 10-40.5 27.5-27.5 40.5-10 50 10 50 27.5 40.5 40.5 27.5 50 10z"/></svg>