<svg width="1792" height="1792" viewBox="0 0 1792 1792" xmlns="http://www.w3.org/2000/svg"><path transform="scale(1.75 1.75) translate(0 0)" d="M736 448q59.5 0 112 22.75t91.5 61.75 61.75 91.5 22.75 112-22.75 112-61.75 91.5-91.5 61.75-112 22.75-112-22.75-91.5-61.75-61.75-91.5-22.75-112 22.75-112 61.75-91.5 91.5-61.75 112-22.75zm0 512q46.5 0 87.25-17.75t71-48 48-71 17.75-87.25-17.75-87.25-48-71-71-48-87.25-17.75-87.25 17.75-71 48-48 71-17.75 87.25 17.75 87.25 48 71 71 48 87.25 17.75zm-672-384h128v128h-128v-128zm192-128h128v256h-128v-256zm640 256v64h-320v-64h320zm-128-318q-33-3-64.75-.25t-63.25 11.75v-205.5h128v194zm-192 36.5q-38 20-70.5 48t-57.5 63.5v-214h128v102.5z"/></svg>