<svg width="1792" height="1792" viewBox="0 0 1792 1792" xmlns="http://www.w3.org/2000/svg"><path transform="scale(1.75 1.75) translate(0 0)" d="M896 496.5q30 20.5 53.75 46.75t40.25 57 25.25 65.25 8.75 70.5q0 59.5-22.75 112t-61.75 91.5-91.5 61.75-112 22.75q-45.5 0-88-13.75t-78.25-39-63-60.75-42.25-78.5h-400.5v-768h128v-64h64v64h448v-64h64v64h128v432.5zm-768-368.5v128h704v-128h-64v64h-64v-64h-448v64h-64v-64h-64zm321.5 640q-1.5-15.5-1.5-32 0-43 12.25-83.5t36.25-76.5h-48.5v-64h64v43q20.5-25.5 45.75-45.25t54-33.5 60.25-21 64-7.25q50 0 96 16.5v-144.5h-704v448h321.5zm286.5 192q46.5 0 87.25-17.75t71-48 48-71 17.75-87.25-17.75-87.25-48-71-71-48-87.25-17.75-87.25 17.75-71 48-48 71-17.75 87.25 17.75 87.25 48 71 71 48 87.25 17.75zm32-256h96v64h-160v-192h64v128zm-576-192h64v64h-64v-64zm128 0h64v64h-64v-64zm0-128h64v64h-64v-64zm0 256h64v64h-64v-64zm192-192h-64v-64h64v64zm128 0h-64v-64h64v64zm-448-64h64v64h-64v-64z"/></svg>