<svg xmlns="http://www.w3.org/2000/svg" viewBox="0 0 2048 2048"><path d="M1792 993q60 41 107.5 93.5t80.5 114 50.5 130.5 17.5 141q0 119-45.5 224T1879 1879t-183 123.5-224 45.5q-91 0-176-27.5t-156.5-78-126-121.5-84.5-157H128V128h256V0h128v128h896V0h128v128h256v865zM256 256v256h1408V256h-128v128h-128V256H512v128H384V256H256zm643 1280q-3-31-3-64 0-86 24.5-167t72.5-153h-97v-128h128v86q41-51 91.5-90.5t108-67 120.5-42 128-14.5q100 0 192 33V640H256v896h643zm573 384q93 0 174.5-35.5t142-96 96-142T1920 1472t-35.5-174.5-96-142-142-96T1472 1024t-174.5 35.5-142 96-96 142T1024 1472t35.5 174.5 96 142 142 96T1472 1920zm64-512h192v128h-320v-384h128v256zM384 1024h128v128H384v-128zm256 0h128v128H640v-128zm0-256h128v128H640V768zm-256 512h128v128H384v-128zm256 0h128v128H640v-128zm384-384H896V768h128v128zm256 0h-128V768h128v128zm256 0h-128V768h128v128z"/></svg>