<svg width="1792" height="1792" viewBox="0 0 1792 1792" xmlns="http://www.w3.org/2000/svg"><path transform="scale(1.75 1.75) translate(0 0)" d="M512 4q40.5 4 76.5 15.75t70 34.25q34.5 23 70.75 37.5t74 22.5 77 11 79.75 3v256q0 16-1.25 32t-3.25 32h-443.5v-444zm-512 124q40.5 0 79.75-3t77.25-11 74.25-22.5 70.75-38q33.5-22.5 69.5-34t76.5-15.5v444h-443.5q-2-16-3.25-32t-1.25-32v-256zm448 876q-70.5-41-139-92t-126.5-112.5-101.5-133.5-64.5-154h431.5v492zm64-492h431.5q-21 82-64.5 154t-101.5 133.5-126.5 112.5-139 92v-492z"/></svg>