<svg width="1792" height="1792" viewBox="0 0 1792 1792" xmlns="http://www.w3.org/2000/svg"><path transform="scale(1.75 1.75) translate(0 0)" d="M832 576h-64v352q0 20-7.5 37.5t-20.5 30.5-30.5 20.5-37.5 7.5-37.5-7.5-30.5-20.5-20.5-30.5-7.5-37.5v-352h-64v-64h128v-274.5l-64-64v-173.5h192v173.5l-64 64v274.5h128v64zm-192-429.5l32 32.5 32-32.5v-82.5h-64v82.5zm64 429.5h-64v352q0 13 9.5 22.5t22.5 9.5 22.5-9.5 9.5-22.5v-352zm-352-576q33 0 62 12.75t50.75 34.5 34.5 50.75 12.75 62q0 37.5-17 71.25t-47 56.25v640.5q0 20-7.5 37.5t-20.5 30.5-30.5 20.5-37.5 7.5-37.5-7.5-30.5-20.5-20.5-30.5-7.5-37.5v-640.5q-30-22.5-47-56.25t-17-71.25q0-33 12.5-62t34.25-50.75 51-34.5 62.25-12.75zm32 252q14-8 25.75-17t20.25-19.75 13.25-24.25 4.75-31q0-15-4.75-29t-13-26-20.25-21-26-14v90l-32 32-32-32v-90q-14.5 5-26.25 14t-20 21-13 26-4.75 29q0 17.5 4.75 31t13.25 24.25 20.25 19.75 25.75 17v676q0 13 9.5 22.5t22.5 9.5 22.5-9.5 9.5-22.5v-676z"/></svg>