<svg width="1792" height="1792" viewBox="0 0 1792 1792" xmlns="http://www.w3.org/2000/svg"><path transform="scale(1.75 1.75) translate(0 0)" d="M1024 831.5q0 13.5-5 25.25t-13.75 20.5-20.25 13.75-25 5h-512q-13.5 0-25-5t-20.25-13.75-13.75-20.25-5-25v-64h-323q-12.5 0-23.75-4.75t-19.5-13-13-19.5-4.75-23.75q0-17.5 5.75-35t17.75-30.5l104.5-110v-403.5h704v256h128q13 0 24.5 5t20.25 13.5 14 20 5.25 24.5v384.5zm-640-127.5v-128h-210l-103 108.5q-3 3.5-4.75 9.25t-2.25 10.25h320zm0-256q0-13.5 5-25t13.75-20.25 20.25-13.75 25-5h320v-192h-576v320h192v-64zm576 384v-384h-512v384h512zm-320-128h128v64h-128v-64z"/></svg>