<svg width="1792" height="1792" viewBox="0 0 1792 1792" xmlns="http://www.w3.org/2000/svg"><path transform="scale(1.75 1.75) translate(0 0)" d="M1000 698.5q5.5 5.5 10 14.25t7.5 18.5 4.75 19.5 1.75 17.25q0 12.5-5.25 24t-14.25 20.5-20.5 14.25-24 5.25h-832q-12.5 0-24-5.25t-20.5-14.25-14.25-20.5-5.25-24q0-7.5 1.75-17.25t4.75-19.5 7.5-18.5 10-14.25l104-104v-402.5h704v402.5zm-168-314.5q-40 0-74.75 15t-61 41.25-41.25 61.25-15 74.5h192v-192zm-576 192h320q0-53 20-99.75t54.75-81.5 81.5-54.75 99.75-20v-64h-576v320zm704 190.5q0-2-.75-5.75t-2-7.5-2.5-7.25-2.75-5l-101.5-101h-613l-101.5 101q-1.5 1.5-2.75 5t-2.5 7.25-2 7.5-.75 5.75l1.5 1.5h829z"/></svg>