<svg xmlns="http://www.w3.org/2000/svg" viewBox="0 0 2048 2048"><path d="M128 1008q0 3 2 9.5t7 6.5h759v128H137q-30 0-55-11.5T39 1109t-28.5-46T0 1008V144q0-29 10.5-55T39 43t43-31.5T137 0h1646q30 0 55 11.5t43 31.5 28.5 46 10.5 55v240h-128V144q0-3-2-9.5t-7-6.5H137q-5 0-7 6.5t-2 9.5v864zm1920-496v1536H1024V512h1024zm-128 128h-768v1280h768V640zm-384 704q-66 0-124.5-25t-102-68.5-68.5-102-25-124.5 25-124.5 68.5-102 102-68.5 124.5-25 124.5 25 102 68.5 68.5 102 25 124.5-25 124.5-68.5 102-102 68.5-124.5 25zm0-512q-40 0-75 15t-61 41-41 61-15 75 15 75 41 61 61 41 75 15 75-15 61-41 41-61 15-75-15-75-41-61-61-41-75-15zm0 640q40 0 75 15t61 41 41 61 15 75-15 75-41 61-61 41-75 15-75-15-61-41-41-61-15-75 15-75 41-61 61-41 75-15zm0 256q26 0 45-19t19-45-19-45-45-19-45 19-19 45 19 45 45 19zm0-627q-32 0-54.5-22.5T1459 1024t22.5-54.5T1536 947t54.5 22.5 22.5 54.5-22.5 54.5-54.5 22.5zM384 256v128H256V256h128zm128 384H256V512h256v128zM256 768h256v128H256V768zm640 128H640V768h256v128zM512 256h128v128H512V256zm128 256h128v128H640V512zm256-128H768V256h128v128zm256 0h-128V256h128v128zm128 0V256h128v128h-128zm256 0V256h128v128h-128z"/></svg>