<svg width="1792" height="1792" viewBox="0 0 1792 1792" xmlns="http://www.w3.org/2000/svg"><path transform="scale(1.75 1.75) translate(0 0)" d="M64 504q0 1.5 1 4.75t3.5 3.25h379.5v64h-379.5q-15 0-27.5-5.75t-21.5-15.75-14.25-23-5.25-27.5v-432q0-14.5 5.25-27.5t14.25-23 21.5-15.75 27.5-5.75h823q15 0 27.5 5.75t21.5 15.75 14.25 23 5.25 27.5v120h-64v-120q0-1.5-1-4.75t-3.5-3.25h-823q-2.5 0-3.5 3.25t-1 4.75v432zm960-248v768h-512v-768h512zm-64 64h-384v640h384v-640zm-192 352q-33 0-62.25-12.5t-51-34.25-34.25-51-12.5-62.25 12.5-62.25 34.25-51 51-34.25 62.25-12.5 62.25 12.5 51 34.25 34.25 51 12.5 62.25-12.5 62.25-34.25 51-51 34.25-62.25 12.5zm0-256q-20 0-37.5 7.5t-30.5 20.5-20.5 30.5-7.5 37.5 7.5 37.5 20.5 30.5 30.5 20.5 37.5 7.5 37.5-7.5 30.5-20.5 20.5-30.5 7.5-37.5-7.5-37.5-20.5-30.5-30.5-20.5-37.5-7.5zm0 320q20 0 37.5 7.5t30.5 20.5 20.5 30.5 7.5 37.5-7.5 37.5-20.5 30.5-30.5 20.5-37.5 7.5-37.5-7.5-30.5-20.5-20.5-30.5-7.5-37.5 7.5-37.5 20.5-30.5 30.5-20.5 37.5-7.5zm0 128q13 0 22.5-9.5t9.5-22.5-9.5-22.5-22.5-9.5-22.5 9.5-9.5 22.5 9.5 22.5 22.5 9.5zm0-313.5q-16 0-27.25-11.25t-11.25-27.25 11.25-27.25 27.25-11.25 27.25 11.25 11.25 27.25-11.25 27.25-27.25 11.25zm-576-422.5v64h-64v-64h64zm64 192h-128v-64h128v64zm-128 64h128v64h-128v-64zm320 64h-128v-64h128v64zm-192-320h64v64h-64v-64zm64 128h64v64h-64v-64zm128-64h-64v-64h64v64zm128 0h-64v-64h64v64zm64 0v-64h64v64h-64zm128 0v-64h64v64h-64z"/></svg>