<svg width="1792" height="1792" viewBox="0 0 1792 1792" xmlns="http://www.w3.org/2000/svg"><path transform="scale(1.75 1.75) translate(0 0)" d="M64 448h448v64h-128v64h128v64h-320v-64h128v-64h-320v-448h704v192h-64v-128h-576v320zm960-128v640h-448v-640h448zm-64 64h-320v512h320v-512zm-160 256q-20 0-37.5-7.5t-30.5-20.5-20.5-30.5-7.5-37.5 7.5-37.5 20.5-30.5 30.5-20.5 37.5-7.5 37.5 7.5 30.5 20.5 20.5 30.5 7.5 37.5-7.5 37.5-20.5 30.5-30.5 20.5-37.5 7.5zm0-128q-13 0-22.5 9.5t-9.5 22.5 9.5 22.5 22.5 9.5 22.5-9.5 9.5-22.5-9.5-22.5-22.5-9.5zm0 192q13.5 0 25 5t20.25 13.75 13.75 20.25 5 25-5 25-13.75 20.25-20.25 13.75-25 5-25-5-20.25-13.75-13.75-20.25-5-25 5-25 13.75-20.25 20.25-13.75 25-5z"/></svg>