<svg xmlns="http://www.w3.org/2000/svg" viewBox="0 0 2048 2048"><path d="M128 896h896v128H768v128h256v128H384v-128h256v-128H0V128h1408v384h-128V256H128v640zm1920-256v1280h-896V640h896zm-128 128h-640v1024h640V768zm-320 512q-40 0-75-15t-61-41-41-61-15-75 15-75 41-61 61-41 75-15 75 15 61 41 41 61 15 75-15 75-41 61-61 41-75 15zm0-256q-26 0-45 19t-19 45 19 45 45 19 45-19 19-45-19-45-45-19zm0 384q27 0 50 10t40.5 27.5 27.5 40.5 10 50-10 50-27.5 40.5-40.5 27.5-50 10-50-10-40.5-27.5-27.5-40.5-10-50 10-50 27.5-40.5 40.5-27.5 50-10z"/></svg>