<svg width="1792" height="1792" viewBox="0 0 1792 1792" xmlns="http://www.w3.org/2000/svg"><path transform="scale(1.75 1.75) translate(0 0)" d="M1024 832h-128v128h-448v-128h-128v-320q0-13.5 5-25t13.75-20.25 20.25-13.75 25-5h64v-192h320v-128h-576v320h81q-17 30-17 64h-82.5l-105.5 105.5q-4 4-4 9.5t3.75 9.25 9.25 3.75h179v64h-179q-16 0-30-6t-24.5-16.5-16.5-24.5-6-30q0-15.5 5.75-29.75t16.75-25.25l105.5-105.5v-402.5h704v192h64v192h64q13.5 0 25 5t20.25 13.75 13.75 20.25 5 25v320zm-512-384h320v-128h-320v128zm320 320h-320v128h320v-128zm128-256h-576v256h64v-64h448v64h64v-256zm-480 128q-13 0-22.5-9.5t-9.5-22.5 9.5-22.5 22.5-9.5 22.5 9.5 9.5 22.5-9.5 22.5-22.5 9.5z"/></svg>