<svg width="1792" height="1792" viewBox="0 0 1792 1792" xmlns="http://www.w3.org/2000/svg"><path transform="scale(1.75 1.75) translate(0 0)" d="M512 256v274.5l182.5 183-45 45-201.5-201v-301.5h64zm256 64h148.5q-28-58.5-70.25-105.75t-95-80.75-113.75-51.5-125.5-18q-61.5 0-118.75 16t-107 45.25-90.75 70.25-70.25 90.75-45.25 107-16 118.75 16 118.75 45.25 107 70.25 90.75 90.75 70.25 106.75 45.25 119 16q75 0 144.5-24.25t126.5-67.75 98.75-103.75 61.75-132.75l61.5 17q-22.5 83-70.25 152t-113 118.75-144.5 77.25-165.25 27.5q-70.5 0-136-18.25t-122.5-51.5-103.75-80-80-103.75-51.5-122.25-18.25-136.25q0-70.5 18.25-136t51.5-122.5 80-103.75 103.75-80 122.25-51.5 136.25-18.25q70 0 136 18.5t124.25 52.75 106 83.25 81.75 110.5v-137h64v256h-256v-64z"/></svg>