<svg xmlns="http://www.w3.org/2000/svg" viewBox="0 0 2048 2048"><path d="M1024 512v549l365 366-90 90-403-402V512h128zm512 128h297q-56-117-140.5-211.5t-190-161.5T1275 164t-251-36q-123 0-237.5 32t-214 90.5T391 391 250.5 572.5t-90.5 214-32 237.5 32 237.5 90.5 214T391 1657t181.5 140.5T786 1888t238 32q150 0 289-48.5t253-135.5 197.5-207.5T1887 1263l123 34q-45 166-140.5 304t-226 237.5-289 154.5-330.5 55q-141 0-272-36.5t-245-103-207.5-160-160-207.5-103-244.5T0 1024q0-141 36.5-272t103-245 160-207.5 207.5-160 244.5-103T1024 0q140 0 272 37t248.5 105.5 212 166.5T1920 530V256h128v512h-512V640z"/></svg>