<svg width="1792" height="1792" viewBox="0 0 1792 1792" xmlns="http://www.w3.org/2000/svg"><path transform="scale(1.75 1.75) translate(0 0)" d="M960 64v896h-896v-896h896zm-832 64v512h75l54.5-54.5q9.5-9.5 22.5-9.5t22.5 9.5l88.5 88 122-473.5q2.5-10.5 11.25-17.25t19.75-6.75q11.5 0 20 6.75t11 17.75l51 208.5h78q11 0 19.75 6.75t11.25 17.25l36 143h125v-448h-768zm768 768v-256h-150q-11.5 0-20-6.75t-11-17.75l-36-142.5h-78q-11.5 0-20-6.75t-11-17.75l-27-109-104 404.5q-2.5 10.5-11.25 17.25t-19.75 6.75q-13 0-22.5-9.5l-105.5-105.5-41.5 41.5q-9.5 9.5-22.5 9.5h-88v192h768z"/></svg>