<svg xmlns="http://www.w3.org/2000/svg" viewBox="0 0 2048 2048"><path d="M1028 146q97 0 170.5 32t126.5 86 88 126 55.5 152 29 164 8.5 162q0 104-11.5 212.5T1455 1291t-75 192-117 157.5-167 107-224 39.5q-66 0-129.5-11.5T618 1740v-143q60 30 124.5 48.5T875 1664q100 0 175-32t129-86 89.5-126.5 56-153.5 28.5-166.5 8-165.5h-4q-55 119-148.5 174.5T985 1164q-106 0-190-38.5T653 1020t-89-156.5T533 673q0-110 34.5-206t99-167.5 156-112.5 205.5-41zm-11 891q68 0 128.5-26.5T1251 939t71-105.5 26-128.5q0-75-19.5-152.5T1268 412t-104.5-102.5T1013 270q-79 0-141 32t-104.5 85-65 122T680 651q0 79 20.5 149.5t62.5 123 105 83 149 30.5z"/></svg>