<svg xmlns="http://www.w3.org/2000/svg" viewBox="0 0 2048 2048"><path d="M92 423q134-43 254-118t226-167h41v1622H471V341q-35 30-82 61.5t-98.5 59-103 50.5T92 548V423zm1374-277q106 0 183 38t130 101 85.5 146.5 50 173.5 23.5 182 6 173q0 84-8 178t-29 185.5-57 175.5-93 147.5-137 101.5-188 38q-102 0-177.5-36.5T1125 1652t-88-140.5-54-167-27.5-176.5-7.5-168q0-64 4-135t14-143 28-143 45.5-135 66-118.5 91-94.5 119-62.5T1466 146zm-19 1519q79 0 136-35t96-92 62.5-130 36-149.5T1794 1109t4-131q0-56-3-130.5t-14-153-33-155-59.5-136T1594 307t-137-37q-84 0-143 36.5t-99.5 96.5-64.5 136.5-36.5 156.5-16 156.5T1094 989q0 58 4 131t16.5 148 36 146.5 62.5 127 96.5 89.5 137.5 34z"/></svg>