<svg width="1792" height="1792" viewBox="0 0 1792 1792" xmlns="http://www.w3.org/2000/svg"><path transform="scale(1.75 1.75) translate(0 0)" d="M256 640h64v64h-64v-64zm192 0h64v64h-64v-64zm192 0h64v64h-64v-64zm-384 192h64v64h-64v-64zm192 0h64v64h-64v-64zm192 0h64v64h-64v-64zm-160-704q32 0 67.25 3.5t70.75 11 70.25 19.5 66.25 28.5 58.5 38.25 47 49.25q17 23.5 26.5 50.25t9.5 55.75v64q0 13-5 24.75t-13.75 20.5-20.5 13.75-24.75 5h-128q-13 0-24.75-5t-20.5-13.75-13.75-20.5-5-24.75v-64h-320v64q0 13-5 24.75t-13.75 20.5-20.5 13.75-24.75 5h-128q-13 0-24.75-5t-20.5-13.75-13.75-20.5-5-24.75v-64q0-29 9.5-55.75t26.5-50.25q20-27.5 47-49.25t58.5-38.25 66.25-28.5 70.25-19.5 70.75-11 67.25-3.5zm352 256q0-22-8.5-41.5t-22.25-36-31-29.75-34.75-23.75q-27.5-16.5-59-28t-64.5-18.75-66.5-10.75-65.5-3.5-65.5 3.5-66.5 10.75-64.5 18.75-59 28q-17.5 10.5-34.75 23.75t-31 29.75-22.25 36-8.5 41.5v64h128v-64q0-13.5 5-25t13.75-20.25 20.25-13.75 25-5h320q13.5 0 25 5t20.25 13.75 13.75 20.25 5 25v64h128v-64z"/></svg>