<svg xmlns="http://www.w3.org/2000/svg" viewBox="0 0 2048 2048"><path d="M92 423q134-43 254-118t226-167h41v1622H471V341q-35 30-82 61.5t-98.5 59-103 50.5T92 548V423zm1411 509q79 9 147 39.5t117 79.5 77 116.5 28 150.5q0 116-43.5 204t-117 147-170.5 88.5-205 29.5q-92 0-180.5-19.5T986 1702v-156q79 55 168 87t186 32q78 0 148-20t123-60.5 84-103 31-147.5q0-101-40-166t-105.5-102.5-148-51.5-166.5-14h-126V877h116q80 0 155-14.5t132.5-51 92-98T1670 558q0-75-21.5-129.5t-61-89.5-96.5-52-129-17q-87 0-165.5 30T1048 379V236q81-44 166.5-67t177.5-23q86 0 163.5 24t135.5 71.5 92 118 34 162.5q0 162-79.5 262T1503 928v4z"/></svg>