<svg xmlns="http://www.w3.org/2000/svg" viewBox="0 0 2048 2048"><path d="M1224 904q64 25 118 66.5t92 95 59.5 117.5 21.5 134q0 110-36.5 196.5t-102 147T1221 1753t-197 32q-106 0-196-32.5t-155.5-93-102.5-147-37-195.5q0-70 22-134.5t61-118 93.5-95T829 904q-51-25-94-61.5T660.5 761t-49-97.5T594 552q0-91 34.5-166t93-128 137-82.5T1025 146t166 29.5 136.5 83 93 128T1455 552q0 59-17.5 111t-48 97-73 81-92.5 63zM740 560q0 60 22 113t60 92 90.5 62 112.5 23 112-23 90.5-62.5T1288 672t22-112q0-60-21.5-113t-60-92.5T1138 292t-113-23q-62 0-114 22.5T821 353t-59.5 92.5T740 560zm284 1100q76 0 139-25.5t107-71 68.5-109T1363 1315q0-73-25.5-136t-70.5-109-107-72-136-26q-75 0-137 26t-107 71.5-70 108.5-25 137q0 77 23.5 140.5t68 109 107 70.5 140.5 25z"/></svg>