<svg xmlns="http://www.w3.org/2000/svg" viewBox="0 0 2048 2048"><path d="M512 1280h128v128H512v-128zm384 0h128v128H896v-128zm384 0h128v128h-128v-128zm-768 384h128v128H512v-128zm384 0h128v128H896v-128zm384 0h128v128h-128v-128zM960 256q64 0 134.5 7t141.5 22 140.5 39 132.5 57 117 76.5 94 98.5q34 47 53 100.5t19 111.5v128q0 26-10 49.5t-27.5 41-41 27.5-49.5 10h-256q-26 0-49.5-10t-41-27.5-27.5-41-10-49.5V768H640v128q0 26-10 49.5t-27.5 41-41 27.5-49.5 10H256q-26 0-49.5-10t-41-27.5-27.5-41-10-49.5V768q0-58 19-111.5T200 556q40-55 94-98.5T411 381t132.5-57T684 285t141.5-22 134.5-7zm704 512q0-44-17-83t-44.5-72-62-59.5T1471 506q-55-33-118-56t-129-37.5-133-21.5-131-7-131 7-133 21.5T567 450t-118 56q-35 21-69.5 47.5t-62 59.5-44.5 72-17 83v128h256V768q0-27 10-50t27.5-40.5T590 650t50-10h640q27 0 50 10t40.5 27.5T1398 718t10 50v128h256V768z"/></svg>