<svg xmlns="http://www.w3.org/2000/svg" viewBox="0 0 2048 2048"><path d="M92 423q134-43 254-118t226-167h41v1622H471V341q-35 30-82 61.5t-98.5 59-103 50.5T92 548V423zm1417 344q105 0 187.5 39T1836 912t86.5 155.5T1952 1256q0 108-33.5 204.5t-96 169-152.5 115-204 42.5q-97 0-171-32t-128.5-86-90.5-126-57.5-152.5T988 1226t-9-163q0-99 13-205.5t43-208.5 78-193 118.5-160T1396 186.5t215-40.5q63 0 125.5 9.5T1858 189v140q-57-29-119.5-44T1612 270q-94 0-166 33t-126.5 89-91.5 129.5-60 155-33 165-10 158.5h5q58-118 153-175.5t226-57.5zm-35 897q80 0 142-32.5t104-86.5 64-123.5 22-143.5q0-77-19.5-147t-60-123.5-102.5-85-147-31.5q-71 0-133 28.5T1236 996t-72.5 111.5T1137 1241q0 49 9.5 99.5t28.5 97.5 47 88.5 65.5 72 84 48T1474 1664z"/></svg>