<svg width="1792" height="1792" viewBox="0 0 1792 1792" xmlns="http://www.w3.org/2000/svg"><path transform="scale(1.75 1.75) translate(0 0)" d="M1024 320v704h-480q-20 0-37.5-7.5t-30.5-20.5-20.5-30.5-7.5-37.5v-160h-192q-53 0-99.5-20.25t-81.25-55-55-81.25-20.25-99.5 20.25-99.5 55-81.25 81.25-55 99.5-20.25q23 0 46.5 4.5 20-30.5 46.5-55t57.5-41.75 66-26.5 71.5-9.25q45.5 0 88 14t78.25 39.25 63 60.5 42.25 78.25h208.5zm-64 64h-416q-5.5 0-11.25 3t-10.25 7.5-7.5 10.25-3 11.25v421.5q16.5-5.5 32-5.5h416v-448zm-512 320v-288q0-18.5 8-35.75t21.5-30.75 30.75-21.5 35.75-8h202.5q-14-29-35.25-52.75t-47.5-40.5-56.75-25.75-63-9q-35 0-67.5 10.5t-59.75 29.5-48.25 45.75-33.5 59.75q-37.5-17.5-79-17.5-40 0-74.75 15t-61 41.25-41.25 61.25-15 74.5q0 40 15 74.75t41.25 61 61 41.25 74.75 15h192zm512 256v-64h-416q-13 0-22.5 9.5t-9.5 22.5 9.5 22.5 22.5 9.5h416zm-64-320h-320v-192h320v192zm-64-128h-192v64h192v-64z"/></svg>