<svg width="1792" height="1792" viewBox="0 0 1792 1792" xmlns="http://www.w3.org/2000/svg"><path transform="scale(1.75 1.75) translate(0 0)" d="M832 0v1024h-704q-26.5 0-49.75-10t-40.75-27.5-27.5-40.75-10-49.75v-768q0-24.5 10.75-47.75t28.5-41 40.75-28.5 48-10.75h704zm-64 832h-640q-13.5 0-25 5t-20.25 13.75-13.75 20.25-5 25 5 25 13.75 20.25 20.25 13.75 25 5h640v-128zm-704-47q30-17 64-17h640v-704h-640q-11.5 0-23 5.75t-20.5 14.75-14.75 20.5-5.75 23v657zm128-593h448v192h-448v-192zm64 128h320v-64h-320v64z"/></svg>