<svg width="1792" height="1792" viewBox="0 0 1792 1792" xmlns="http://www.w3.org/2000/svg"><path transform="scale(1.75 1.75) translate(0 0)" d="M64 896q0 13.5 5 25t13.75 20.25 20.25 13.75 25 5h576v64h-576q-26.5 0-49.75-10t-40.75-27.5-27.5-40.75-10-49.75v-768q0-24.5 10.75-47.75t28.5-41 40.75-28.5 48-10.75h704v512h-64v-448h-640q-11.5 0-23 5.75t-20.5 14.75-14.75 20.5-5.75 23v657q29-17 64-17h384v64h-384q-13.5 0-25 5t-20.25 13.75-13.75 20.25-5 25zm128-512v-192h448v192h-448zm64-64h320v-64h-320v64zm768 512h-192v192h-64v-192h-192v-64h192v-192h64v192h192v64z"/></svg>