<svg xmlns="http://www.w3.org/2000/svg" viewBox="0 0 2048 2048"><path d="M1600 1152q93 0 174.5 35t142.5 96 96 142.5 35 174.5-35 174.5-96 142.5-142.5 96-174.5 35-174.5-35-142.5-96-96-142.5-35-174.5 35-174.5 96-142.5 142.5-96 174.5-35zm-320 448q0 66 25 124.5t68.5 102 102 68.5 124.5 25q47 0 92-13.5t84-39.5l-443-443q-26 39-39.5 84t-13.5 92zm587 176q26-39 39.5-84t13.5-92q0-66-25.5-124t-69-101.5-101.5-69-124-25.5q-47 0-92 13.5t-84 39.5zM512 768H0V256h128v275q67-122 163.5-220.5T504 143 752 37t272-37q141 0 272 36.5T1540.5 140t207 160.5 160.5 207T2011.5 752t36.5 272q0 39-3.5 78t-9.5 77q-26-27-56-51.5t-62-44.5q1-15 2-29.5t1-29.5q0-123-32-237.5t-90.5-214T1657 391t-181.5-140.5-214-90.5-237.5-32q-129 0-250.5 36.5T547 267.5t-189.5 161T218 640h294v128zm571 1149q20 32 44.5 62t51.5 56q-38 6-77 9.5t-78 3.5q-114 0-223.5-25T592 1951.5 405 1838t-159-150.5-124.5-182T38 1297l123-34q40 145 123.5 265.5T482 1736t253 135.5 289 48.5q15 0 29.5-1t29.5-2z"/></svg>