<svg width="1792" height="1792" viewBox="0 0 1792 1792" xmlns="http://www.w3.org/2000/svg"><path transform="scale(1.75 1.75) translate(0 0)" d="M800 576q46.5 0 87.25 17.5t71.25 48 48 71.25 17.5 87.25-17.5 87.25-48 71.25-71.25 48-87.25 17.5-87.25-17.5-71.25-48-48-71.25-17.5-87.25 17.5-87.25 48-71.25 71.25-48 87.25-17.5zm-160 224q0 33 12.5 62.25t34.25 51 51 34.25 62.25 12.5q23.5 0 46-6.75t42-19.75l-221.5-221.5q-13 19.5-19.75 42t-6.75 46zm293.5 88q13-19.5 19.75-42t6.75-46q0-33-12.75-62t-34.5-50.75-50.75-34.5-62-12.75q-23.5 0-46 6.75t-42 19.75zm-677.5-504h-256v-256h64v137.5q33.5-61 81.75-110.25t106.25-83.75 124-53 136-18.5q70.5 0 136 18.25t122.25 51.75 103.5 80.25 80.25 103.5 51.75 122.25 18.25 136q0 19.5-1.75 39t-4.75 38.5q-13-13.5-28-25.75t-31-22.25q.5-7.5 1-14.75t.5-14.75q0-61.5-16-118.75t-45.25-107-70.25-90.75-90.75-70.25-107-45.25-118.75-16q-64.5 0-125.25 18.25t-113.25 51.5-94.75 80.5-69.75 105.75h147v64zm285.5 574.5q10 16 22.25 31t25.75 28q-19 3-38.5 4.75t-39 1.75q-57 0-111.75-12.5t-104.25-35.75-93.5-56.75-79.5-75.25-62.25-91-41.75-104.25l61.5-17q20 72.5 61.75 132.75t98.75 103.75 126.5 67.75 144.5 24.25q7.5 0 14.75-.5t14.75-1z"/></svg>