<svg width="1792" height="1792" viewBox="0 0 1792 1792" xmlns="http://www.w3.org/2000/svg"><path transform="scale(1.75 1.75) translate(0 0)" d="M525 800l113.5 113.5-45 45-113.5-113.5-113.5 113.5-45-45 113.5-113.5-113.5-113.5 45-45 113.5 113.5 113.5-113.5 45 45zm371-672q13.5 0 25 5t20.25 13.75 13.75 20.25 5 25v320h-448v112l-32 32-32-32v-112h-448v-320q0-13.5 5-25t13.75-20.25 20.25-13.75 25-5h832zm0 64h-832v256h832v-256zm-96 128q-13 0-22.5-9.5t-9.5-22.5 9.5-22.5 22.5-9.5 22.5 9.5 9.5 22.5-9.5 22.5-22.5 9.5zm-144 448h304v64h-304l-32-32zm-320 32l-32 32h-304v-64h304z"/></svg>