<svg width="1792" height="1792" viewBox="0 0 1792 1792" xmlns="http://www.w3.org/2000/svg"><path transform="scale(1.75 1.75) translate(0 0)" d="M480 128q89 0 172.5 34.5 36 14.5 72.25 22t75.25 7.5h224v448h-208.5q-32.5 0-61.25 12t-51.75 35l-311 310.5q-12.5 12.5-25 19.5t-30.5 7q-16.5 0-31-6.25t-25.5-17.25-17.25-25.5-6.25-31q0-40.5 9-77.25t26.5-72.75q10-21.5 17-43.75t9.5-46.25h-222q-19.5 0-37-7.5t-30.75-20.5-20.75-30.5-7.5-37.5q0-16 5-30.5l128-384q10-29.5 35-47.5t56-18h256zm480 128h-160q-89.5 0-172.5-34.5-72-29.5-147.5-29.5h-256q-10 0-18.5 6t-12 16q-2.5 7-9.25 27t-16.25 48.25-21 62-23 68.25-22.25 67.25-19.25 59-13.5 43-5 19.25q0 13 9.5 22.5t22.5 9.5h288q0 26.5-1.25 49.25t-5 44.25-10.75 43-18.5 45.5q-14 29-21.25 59.25t-7.25 62.75q0 7 4.5 11.5t11.5 4.5q3 0 5.25-2.25l4.25-4.25 311.5-312q16-16 34.25-28t38.75-20.5q40-17 85.5-17h144.5v-320z"/></svg>