<svg xmlns="http://www.w3.org/2000/svg" viewBox="0 0 2048 2048"><path d="M1216 0q40 0 75 15t61 41 41 61 15 75v641q0 70-17 140l-98 389q-7 26-10 54t-3 55v385q0 40-15 75t-41 61-61 41-75 15H832q-40 0-75-15t-61-41-41-61-15-75v-369q0-70-17-140l-94-374q-17-70-17-140V192q0-40 15-75t41-61 61-41 75-15h512zm64 192q0-26-19-45t-45-19H704q-26 0-45 19t-19 45v641q0 27 3 55t10 54l94 374q21 84 21 171v369q0 26 19 45t45 19h256q26 0 45-19t19-45v-385q0-70 17-140l98-389q7-26 10-54t3-55V192zM896 1664h128v128H896v-128zm0-256h128v128H896v-128zm0-256h128v128H896v-128zm0-128H768V896h128v128zm128-128h128v128h-128V896zM768 640h128v128H768V640zm128-128h128v128H896V512zm128 256V640h128v128h-128zM896 384v128H768V384h128zm128 0h128v128h-128V384zm0 0H896V256h128v128z"/></svg>