<svg width="1792" height="1792" viewBox="0 0 1792 1792" xmlns="http://www.w3.org/2000/svg"><path transform="scale(1.75 1.75) translate(0 0)" d="M608 0q20 0 37.5 7.5t30.5 20.5 20.5 30.5 7.5 37.5v320.5q0 35-8.5 70l-49 194.5q-3.5 13-5 27t-1.5 27.5v192.5q0 20-7.5 37.5t-20.5 30.5-30.5 20.5-37.5 7.5h-128q-20 0-37.5-7.5t-30.5-20.5-20.5-30.5-7.5-37.5v-184.5q0-35-8.5-70l-47-187q-8.5-35-8.5-70v-320.5q0-20 7.5-37.5t20.5-30.5 30.5-20.5 37.5-7.5h256zm32 96q0-13-9.5-22.5t-22.5-9.5h-256q-13 0-22.5 9.5t-9.5 22.5v320.5q0 13.5 1.5 27.5t5 27l47 187q10.5 42 10.5 85.5v184.5q0 13 9.5 22.5t22.5 9.5h128q13 0 22.5-9.5t9.5-22.5v-192.5q0-35 8.5-70l49-194.5q3.5-13 5-27t1.5-27.5v-320.5zm-192 736h64v64h-64v-64zm0-128h64v64h-64v-64zm0-128h64v64h-64v-64zm0-64h-64v-64h64v64zm64-64h64v64h-64v-64zm-128-128h64v64h-64v-64zm64-64h64v64h-64v-64zm64 128v-64h64v64h-64zm-64-192v64h-64v-64h64zm64 0h64v64h-64v-64zm0 0h-64v-64h64v64z"/></svg>