<svg width="1792" height="1792" viewBox="0 0 1792 1792" xmlns="http://www.w3.org/2000/svg"><path transform="scale(1.75 1.75) translate(0 0)" d="M320 768h128v64h-128v-64zm-256-576v448h384v64h-448v-576h960v64h-896zm960 384v256h-512v-256h512zm-64 64h-384v128h384v-128zm11.5-235.5q-40.5-40.5-93.25-62.5t-110.25-22-110.25 21.75-93.25 62.75l-45.5-45.5q50-50 114.5-76.5t134.5-26.5 134.5 26.5 114.5 76.5zm-362 45q32-31.5 72.75-48.5t85.75-17 85.75 17 72.75 48.5l-45.5 45.5q-22.5-22.5-51.75-34.75t-61.25-12.25-61.25 12.25-51.75 34.75z"/></svg>