<svg width="1792" height="1792" viewBox="0 0 1792 1792" xmlns="http://www.w3.org/2000/svg"><path transform="scale(1.75 1.75) translate(0 0)" d="M1024 12v628l-64-64v-460l-256 128v396l-64 64v-460l-256-128v568l165.5 83q12 6 22.25 10.5t20 9 19.5 9.5 21.25 12.5q.5.5 6.75 6.5t15.25 15.25 19.75 20l20.25 20.25 16.5 16.75 9 8.75h-55.5l-312.5-156.5-352 176.5v-712l352-175.5 320 159.5zm-960 800l256-128v-568l-256 128v568zm832-364v338.5l81.5-81 45 45-158.5 158.5-158.5-158.5 45-45 81.5 81v-338.5h64zm-192 512h320v64h-320v-64z"/></svg>