<svg xmlns="http://www.w3.org/2000/svg" viewBox="0 0 3201 2048"><path d="M398 1591q59-66 120.5-127.5T653 1351l50 78q-50 35-98 78t-93 90-86 97.5-75 99.5q-71-103-159.5-198T0 1429l50-78q73 51 134.5 112.5T305 1591V474h93v1117zm2641-670q-55 0-98.5 19.5t-73.5 54-45.5 80.5-15.5 98q0 53 15 97t44 75.5 71 49 97 17.5q46 0 87.5-16.5t76.5-45.5v141q-46 26-97.5 38t-104.5 12q-80 0-145.5-26t-112-73-71.5-113-25-146q0-88 27-160t77-123 121-79 160-28q45 0 88.5 7.5T3199 827v150q-36-26-75.5-41t-84.5-15zM1358 793q134 0 202.5 65t68.5 201v464h-158v-111h-2q-36 62-90 95.5t-127 33.5q-49 0-90-14t-71-40.5-47-65.5-17-90q0-55 17-96t48-69.5 74-45 94-24.5l213-30q0-74-35.5-113.5T1327 913q-66 0-123 23t-107 65V860q60-35 126-51t135-16zm115 380l-150 21q-30 4-55.5 10.5t-44 19.5-29.5 34.5-11 56.5q0 26 9.5 45.5t26 32 38 19 45.5 6.5q38 0 69.5-14.5t54-39.5 35-58.5 12.5-70.5v-62zm760-380q77 0 132 29.5t89.5 78.5 50.5 112.5 16 132.5q0 76-18 147t-56.5 126-99.5 88.5-146 33.5q-139 0-210-121h-4v103h-161V467h161v468h4q82-142 242-142zm-70 619q56 0 93-24t59-62.5 31-85.5 9-94q0-42-9.5-82.5t-30.5-72-55-51-82-19.5q-46 0-81.5 17.5t-60 47-37.5 68.5-13 82v90q0 38 13 71.5t36.5 59 56 40.5 71.5 15z"/></svg>