<svg width="1792" height="1792" viewBox="0 0 1792 1792" xmlns="http://www.w3.org/2000/svg"><path transform="scale(1.75 1.75) translate(0 0)" d="M1024 99q0 14.5-4.75 25.75t-12.5 21-17.5 18.5-19.25 18.25l-116-117.5q9.5-9.5 18.25-19t18.5-17.25 20.75-12.75 25.5-5q28.5 0 49.5 21l15 15 12 14.5 7.75 16.5 2.75 21zm-1024 874.5q0-13 5.25-22.25t12.75-17 16-15.25 15-17.5l72 73.5q-3 4-8.5 8.5t-9.5 8.5q-7 6.5-12.25 12.25t-11 10.25-12.75 7-17.5 2.5q-22.5 0-36-14.25t-13.5-36.25zm924.5-750.5l-652.5 693q-7 7-16 13.5t-19.5 11.5-21.25 7.75-20.75 2.75q-3 0-6.5.75t-6.5 1.25l-111-112q1-3.5 1-7v-7q0-9.5 2.75-20.25t7.75-21 11.5-19.5 13.5-15.75l701.5-645.5zm67.5 737q13 0 22.5 9.5t9.5 22.5-9.5 22.5-22.5 9.5h-576q-13 0-22.5-9.5t-9.5-22.5 9.5-22.5 22.5-9.5h576z"/></svg>