<svg width="1792" height="1792" viewBox="0 0 1792 1792" xmlns="http://www.w3.org/2000/svg"><path transform="scale(1.75 1.75) translate(0 0)" d="M992 960q13 0 22.5 9.5t9.5 22.5-9.5 22.5-22.5 9.5h-640q-13 0-22.5-9.5t-9.5-22.5 9.5-22.5 22.5-9.5h640zm-64-960q20 0 37.5 7.5t30.5 20.5 20.5 30.5 7.5 37.5-7.25 36.5-20.75 31l-681 716.5q-18.5 19.5-36.5 33.5t-37.25 25.75-40 22.5-44.75 23.25h-.5q-14 7-28.5 7-21 0-38-12.5l-35 35q-9.5 9.5-22.5 9.5t-22.5-9.5-9.5-22.5 9.5-22.5l35-35q-12.5-17-12.5-38.5 0-14.5 7-28.5 12.5-24 23.25-44.75t22.5-40 25.75-37.25 33.5-36.5l716.5-681q14.5-13.5 31-20.75t36.5-7.25zm-800.5 928q20-10.5 38.75-20t36.25-20 33.75-23 32.25-29l613.5-645-49-49-645 613q-16 15.5-28.5 32.25t-23.25 34.5-20.25 36.5-20 38.25zm798.5-783.5q4.5-4.5 10.25-10t11-11.5 9-12.75 3.75-14.25q0-13-9.5-22.5t-22.5-9.5q-7.5 0-14.25 3.75t-12.75 9-11.5 11-10 10.25z"/></svg>