<svg xmlns="http://www.w3.org/2000/svg" viewBox="0 0 2048 2048"><path d="M2048 198q0 29-9.5 51.5t-25 42-35 37T1940 365l-232-235q19-19 36.5-38t37-34.5T1823 32t51-10q57 0 99 42l30 30 24 29 15.5 33 5.5 42zM0 1947q0-26 10.5-44.5t25.5-34 32-30.5 30-35l144 147q-6 8-17 17t-19 17q-14 13-24.5 24.5t-22 20.5-25.5 14-35 5q-45 0-72-28.5T0 1947zM1849 446L544 1832q-14 14-32 27t-39 23-42.5 15.5-41.5 5.5q-6 0-13 1.5t-13 2.5l-222-224q2-7 2-14v-14q0-19 5.5-40.5t15.5-42 23-39 27-31.5L1617 211zm135 1474q26 0 45 19t19 45-19 45-45 19H832q-26 0-45-19t-19-45 19-45 45-19h1152z"/></svg>