<svg xmlns="http://www.w3.org/2000/svg" viewBox="0 0 2048 2048"><path d="M1984 1920q26 0 45 19t19 45-19 45-45 19H704q-26 0-45-19t-19-45 19-45 45-19h1280zM1856 0q40 0 75 15t61 41 41 61 15 75-14.5 73-41.5 62L630 1760q-37 39-73 67t-74.5 51.5-80 45T313 1970h-1q-28 14-57 14-42 0-76-25l-70 70q-19 19-45 19t-45-19-19-45 19-45l70-70q-25-34-25-77 0-29 14-57 25-48 46.5-89.5t45-80T221 1491t67-73L1721 56q29-27 62-41.5T1856 0zM255 1856q40-21 77.5-40t72.5-40 67.5-46 64.5-58L1764 382l-98-98L376 1510q-32 31-57 64.5t-46.5 69-40.5 73-40 76.5zM1852 289q9-9 20.5-20t22-23 18-25.5 7.5-28.5q0-26-19-45t-45-19q-15 0-28.5 7.5t-25.5 18-23 22-20 20.5z"/></svg>