<svg xmlns="http://www.w3.org/2000/svg" viewBox="0 0 3464 2048"><path d="M1414 636q5 0 7 4.5t4 8.5q36 107 77 202.5t89 185.5 105.5 177 128.5 175q-26 13-49.5 28t-44.5 35q-4 3-13.5 12t-15.5 9q-7 0-14.5-9.5T1677 1450q-33-44-69-102t-72.5-124.5T1464 1086t-66-140-56.5-133-41.5-117q-2-4-2-9 0-2 4.5-4.5t10.5-5.5 11-5l5-2q4-2 16.5-7.5T1372 651t26.5-10.5 15.5-4.5zM840 180q36 2 73 4t72 9q8 2 17.5 4.5t9.5 13.5q0 8-4.5 19.5T1000 250q-5 13-8 37t-4 50.5-1 51.5v938q0 78 2 154.5t2 154.5q0 44-6.5 78.5t-24 59-47 40T838 1835q-50 7-101 7.5t-102 .5q-8 0-19.5-.5T598 1836q-2-2-7-18.5t-12-39-15.5-45.5-18.5-37q51 8 102.5 10t102.5 2q29 0 49-4t32-15 17.5-30 5.5-49V430q0-63-1.5-125.5T840 180zM391 633q9 2 35 9.5t53.5 17T529 680t22 20q0 8-3.5 13.5T539 725q-14 17-21 32t-14 36q-62 187-148 352t-209 319q-5 5-11.5 14t-14.5 11q-32-16-58.5-35.5T0 1423q125-133 217-293.5T362 795q12-38 19.5-79.5T391 633zM2442 0q42 82 71 169t50 177l-109 35q-22-90-50.5-177.5T2337 31zm-232 51q42 85 71.5 175t55.5 180l-112 38q-24-92-52.5-182.5T2104 84zM3234 0q48 0 90 18t73 48.5 49 72.5 18 90-18 90-49 73-73 49-90 18-90-18-72.5-49-48.5-73-18-90q0-47 18-89t49-73 72.5-49T3234 0zm0 371q30 0 56-11t45-30 30-45 11-56-11-56-30-45-45-29.5-56-10.5-55.5 11-44.5 29.5-30 44.5-11 56 11 56 29.5 45 44.5 30 56 11z"/></svg>