<svg xmlns="http://www.w3.org/2000/svg" viewBox="0 0 1732 1024"><path d="M707 318q2.5 0 3.5 2.25t2 4.25q18 53.5 38.5 101.25t44.5 92.75 52.75 88.5 64.25 87.5q-13 6.5-24.75 14t-22.25 17.5q-2 1.5-6.75 6t-7.75 4.5q-3.5 0-7.25-4.75t-5.25-6.75q-16.5-22-34.5-51t-36.25-62.25-35.75-68.75-33-70-28.25-66.5-20.75-58.5q-1-2-1-4.5 0-1 2.25-2.25t5.25-2.75 5.5-2.5l2.5-1q2-1 8.25-3.75t13.25-5.75 13.25-5.25 7.75-2.25zm-287-228q18 1 36.5 2t36 4.5q4 1 8.75 2.25t4.75 6.75q0 4-2.25 9.75t-3.75 9.75q-2.5 6.5-4 18.5t-2 25.25-.5 25.75v469q0 39 1 77.25t1 77.25q0 22-3.25 39.25t-12 29.5-23.5 20-37.75 10.75q-25 3.5-50.5 3.75t-51 .25q-4 0-9.75-.25t-8.75-3.25q-1-1-3.5-9.25t-6-19.5-7.75-22.75-9.25-18.5q25.5 4 51.25 5t51.25 1q14.5 0 24.5-2t16-7.5 8.75-15 2.75-24.5v-590q0-31.5-.75-62.75t-6.25-62.25zm-224.5 226.5q4.5 1 17.5 4.75t26.75 8.5 24.75 10.25 11 10q0 4-1.75 6.75t-4.25 5.75q-7 8.5-10.5 16t-7 18q-31 93.5-74 176t-104.5 159.5q-2.5 2.5-5.75 7t-7.25 5.5q-16-8-29.25-17.75t-31.25-15.25q62.5-66.5 108.5-146.75t72.5-167.25q6-19 9.75-39.75t4.75-41.25zm1025.5-316.5q21 41 35.5 84.5t25 88.5l-54.5 17.5q-11-45-25.25-88.75t-33.25-86.25zm-116 25.5q21 42.5 35.75 87.5t27.75 90l-56 19q-12-46-26.25-91.25t-34.25-88.75zm512-25.5q24 0 45 9t36.5 24.25 24.5 36.25 9 45-9 45-24.5 36.5-36.5 24.5-45 9-45-9-36.25-24.5-24.25-36.5-9-45q0-23.5 9-44.5t24.5-36.5 36.25-24.5 44.75-9zm0 185.5q15 0 28-5.5t22.5-15 15-22.5 5.5-28-5.5-28-15-22.5-22.5-14.75-28-5.25-27.75 5.5-22.25 14.75-15 22.25-5.5 28 5.5 28 14.75 22.5 22.25 15 28 5.5z"/></svg>