<svg xmlns="http://www.w3.org/2000/svg" viewBox="0 0 2048 2048"><path d="M1280.05 768h511.969V384H1280.05v384zm127.99-256h255.984v128H1408.04V512zM43.122 128l484.971 1664h1519.91V128H43.123zM1920.01 1664H753.08l152.99-128h885.946v-128h-731.955l155.99-128h575.965v-128h-424.974l75.995-63-74.996-65h423.975V896h-573.965L1069.06 768h82.995V640H920.07L770.08 512h381.977V384H621.088l-148.99-128h1447.91v1408zM213.112 256h61.996l969.94 831-634.96 529-53.998-185 404.976-377-97.994-83-346.98 323-43.997-150 287.982-262-97.993-83-228.986 208L396.1 884l173.989-165-97.994-83-115.992 109z"/></svg>