<svg xmlns="http://www.w3.org/2000/svg" viewBox="0 0 2048 2048"><path d="M.125 128v1664h427.974q2 0 4-1t4-1l1611.9-396V128H.119zM1877.01 1305l-357.979 87 117.993-125-82.995-99-263.984 281-204.987 50 380.977-437-82.994-100-513.97 590-269.982 66 779.952-910zm-468.97-793h255.984v128h-174.989l-80.995-98v-30zM128.117 256h1791.89v901l-127.992-154V896h-88.994l-106.994-128h195.988V384h-511.97v243L1050.06 896H256.109v128h683.958l-109.993 128H256.109v128H720.08l-108.993 128h-354.98v128h244.986L391.1 1664H128.117V256zm127.992 256h895.945V384H256.109v128zm0 256h895.945V640H256.109v128z"/></svg>