<svg xmlns="http://www.w3.org/2000/svg" viewBox="0 0 2048 2048"><path d="M2048 1152v896H896v-896h128V969q0-94 34.5-177.5T1153 646t142-98 177-36 177 36 142 98 94.5 145.5T1920 969v183h128zm-896 0h640V969q0-68-24-128t-67-104.5-101.5-70.5-127.5-26-127.5 26-101.5 70.5-67 104.5-24 128v183zm768 128h-896v640h896v-640zM992 192q-54 23-95.5 64.5T832 352q-23-54-64.5-95.5T672 192q54-23 95.5-64.5T832 32q23 54 64.5 95.5T992 192zM576 800q23 54 64.5 95.5T736 960q-54 23-95.5 64.5T576 1120q-23-54-64.5-95.5T416 960q54-23 95.5-64.5T576 800zm64-352q-109 47-191 129T320 768q-47-109-129-191T0 448q109-47 191-129t129-191q47 109 129 191t191 129zM320 574q55-70 126-126-71-55-126-126-56 71-126 126 70 56 126 126z"/></svg>