<svg xmlns="http://www.w3.org/2000/svg" viewBox="0 0 2048 2048"><path d="M1280 768v-64q0-53-20-99.5t-55-81.5-81.5-55-99.5-20q-44 0-84 14t-73 39.5-56.5 61T776 640q78 2 146.5 33t119.5 82.5 80.5 121T1152 1024q0 80-30 149.5t-82.5 122T917 1378t-149 30v-128q53 0 99.5-20t81.5-55 55-81.5 20-99.5q0-52-19.5-98T951 845t-80-55.5-98-21.5q10 60 36.5 114t68.5 98l-92 88q-72-74-109-167.5T640 704q0-79 30-149t82.5-122.5 122-82.5 149.5-30q79 0 149 30t122.5 82.5T1378 555t30 149v64h-128zm384-128q0 120-35 224.5T1522 1064q-59 78-86.5 162.5T1408 1408q0 106-40 199.5t-109.5 163-163 109.5-199.5 40-199.5-40-163-109.5-109.5-163-40-199.5h128q0 80 30 149.5t82.5 122 122 82.5 149.5 30q79 0 149-30t122.5-82.5 82.5-122 30-149.5q0-121 35-224.5T1422 984q114-151 114-344 0-106-40.5-199t-110-162.5-162.5-110-199-40.5-199 40.5-162.5 110-110 162.5T512 640H384q0-133 50-249.5T571 187 774.5 50 1024 0t249.5 50T1477 187t137 203.5 50 249.5z"/></svg>