<svg xmlns="http://www.w3.org/2000/svg" viewBox="0 0 2048 2048"><path d="M704 256q40 0 75 15t61 41 41 61 15 75v640q0 40-15 75t-41 61-61 41-75 15H512q-27 0-50-10t-40.5-27.5T394 1202t-10-50h-45q-21 0-42-1.5t-41-9.5v459q0 26-19 45t-45 19-45-19-19-45V576q0-40 15-75t41-61 61-41 75-15h64q0-27 10-50t27.5-40.5T462 266t50-10h192zm-320 768V512h-64q-26 0-45 19t-19 45v384q0 26 19 45t45 19h64zm384-576q0-26-19-45t-45-19H512v768h192q26 0 45-19t19-45V448zm960-64q40 0 75 15t61 41 41 61 15 75v1024q0 26-19 45t-45 19-45-19-19-45v-459q-20 8-41 9.5t-42 1.5h-45q0 27-10 50t-27.5 40.5-40.5 27.5-50 10h-192q-40 0-75-15t-61-41-41-61-15-75V448q0-40 15-75t41-61 61-41 75-15h192q27 0 50 10t40.5 27.5T1654 334t10 50h64zm-192 768V384h-192q-26 0-45 19t-19 45v640q0 26 19 45t45 19h192zm192-128q26 0 45-19t19-45V576q0-26-19-45t-45-19h-64v512h64z"/></svg>