<svg width="1792" height="1792" viewBox="0 0 1792 1792" xmlns="http://www.w3.org/2000/svg"><path transform="scale(1.75 1.75) translate(0 0)" d="M1.5 512q5.5-66 30.75-127t68.25-111.5l45 45.5q-34.5 41-54.5 90.5t-25.5 102.5h-64zm144-283.5q50.5-43 111.5-68.25t127-30.75v64q-53 5.5-102.5 25.5t-90.5 54.5zm-45 586q-43-50.5-68.25-111.5t-30.75-127h64q5.5 53 25.5 102.5t54.5 90.5zm283.5 144q-66-5.5-127-30.75t-111.5-68.25l45.5-45q41 34.5 90.5 54.5t102.5 25.5v64zm446.5-382.5q-5.5 66-30.75 127t-68.25 111.5l-45-45.5q34.5-41 54.5-90.5t25.5-102.5h64zm-144 283.5q-50.5 43-111.5 68.25t-127 30.75v-64q53-5.5 102.5-25.5t90.5-54.5zm-174.5-795.5v384h96l-128 128-128-128h96v-384h64zm384 544v-96h-261.5l64-64h197.5v-96l128 128z"/></svg>