<svg width="1792" height="1792" viewBox="0 0 1792 1792" xmlns="http://www.w3.org/2000/svg"><path transform="scale(1.75 1.75) translate(0 0)" d="M.063 167.5q0 33 12.499 64t36.498 55l658.46 658.5 316.481 79-78.995-316.5-658.46-658.5q-23.999-24-54.996-36.5t-63.996-12.5q-34.498 0-64.996 13.25t-53.246 36-35.998 53.25-13.249 65zm860.947 546.5q-52.996 17.5-91.244 55.75t-55.746 91.25l-540.465-541 146.491-146.5zm74.995 222l-164.49-41q5-23 16.249-43.5t27.248-36.5 36.498-27.25 43.497-16.25zm-807.951-661.5q-12.499-12.5-23.999-23.5t-20.499-23.25-14.249-26.5q-5.249-14.25-5.249-33.25 0-21.5 8.249-40.25t22.499-33 32.998-22.5 40.248-8.25q18.999 0 33.248 5.25t26.499 14.25 23.249 20.5 23.499 24z"/></svg>