<svg width="1792" height="1792" viewBox="0 0 1792 1792" xmlns="http://www.w3.org/2000/svg"><path transform="scale(1.75 1.75) translate(0 0)" d="M791 532.5q20.5 36 30.75 75.25t10.25 80.25v51.5l-320 160.5-320-160.5q0-30 .75-56t4.5-50.75 12-49 23.75-51.25l-105-52.5v293.5q14.5 5 26.25 14t20.25 21 13 26.25 4.5 29.25v160h-192v-160q0-15 4.5-29.25t13-26.25 20.25-21 26.25-14v-325.5l-64-32 512-256 512 256zm-663 331.5q0-13-9.5-22.5t-22.5-9.5-22.5 9.5-9.5 22.5v96h64v-96zm15-448l369 184.5 369-184.5-369-184.5zm625 284q0-38.5-7.5-71.75t-26.5-67.25l-222 111-222-111q-16.5 29-25.25 61.25t-8.75 65.75v12l256 128z"/></svg>