<svg width="1792" height="1792" viewBox="0 0 1792 1792" xmlns="http://www.w3.org/2000/svg"><path transform="scale(1.75 1.75) translate(0 0)" d="M512 0q70.5 0 136 18.25t122.25 51.75 103.5 80.25 80.25 103.5 51.75 122.25 18.25 136-18.25 136-51.75 122.25-80.25 103.5-103.5 80.25-122.25 51.75-136 18.25-136-18.25-122.25-51.75-103.5-80.25-80.25-103.5-51.75-122.25-18.25-136 18.25-136 51.75-122.25 80.25-103.5 103.5-80.25 122.25-51.75 136-18.25zm0 960q62 0 119.25-16t107-45.25 90.5-70 70-90.5 45.25-107 16-119.25-16-119.25-45.25-107-70-90.5-90.5-70-107-45.25-119.25-16-119.25 16-107 45.25-90.5 70-70 90.5-45.25 107-16 119.25 16 119.25 45.25 107 70 90.5 90.5 70 107 45.25 119.25 16zm0-96q-53 0-99.75-20t-81.5-54.75-54.75-81.5-20-99.75h512q0 53-20 99.75t-54.75 81.5-81.5 54.75-99.75 20zm0-64q30.5 0 58.75-9.25t52-26 41.75-40.25 28.5-52.5h-362q10.5 29 28.5 52.5t41.75 40.25 52 26 58.75 9.25zm176-288q-20 0-34-14t-14-34v-128q0-20 14-34t34-14q9.5 0 18 3.75t15.25 10 10.75 14.75 4 18v130.5q0 10-4 18.5t-10.5 14.75-15.25 10-18.25 3.75zm-352 0q-20 0-34-14t-14-34v-128q0-20 14-34t34-14q9.5 0 18 3.75t15.25 10 10.75 14.75 4 18v130.5q0 10-4 18.5t-10.5 14.75-15.25 10-18.25 3.75z"/></svg>