<svg width="1792" height="1792" viewBox="0 0 1792 1792" xmlns="http://www.w3.org/2000/svg"><path transform="scale(1.75 1.75) translate(0 0)" d="M992 416l-96 96 96 96-96 96 96 96-192 192-96-96-96 96-96-96-96 96-96-96-96 96-192-192 96-96-96-96 96-96-96-96 96-96-96-96 192-192 96 96 96-96 96 96 96-96 96 96 96-96 192 192-96 96zm-90.5 192q-49-47-96-96 47-48.5 96-96-49-47-96-96 47-48.5 96-96l-101.5-101.5q-47.5 49-96 96-49-47-96-96-47.5 49-96 96-49-47-96-96-47.5 49-96 96-49-47-96-96l-101.5 101.5q48.5 47.5 96 96-47.5 49-96 96 48.5 47.5 96 96-47.5 49-96 96 48.5 47.5 96 96-47.5 49-96 96l101.5 101.5q47-48.5 96-96 48.5 47.5 96 96 47-48.5 96-96 48.5 47.5 96 96 47-48.5 96-96 48.5 47.5 96 96l101.5-101.5q-49-47-96-96 47-48.5 96-96z"/></svg>