<svg xmlns="http://www.w3.org/2000/svg" viewBox="0 0 2048 2048"><path d="M1024 0q141 0 272 36.5T1540.5 140t207 160.5 160.5 207T2011.5 752t36.5 272-36.5 272-103.5 244.5-160.5 207-207 160.5-244.5 103.5-272 36.5-272-36.5T507.5 1908t-207-160.5-160.5-207T36.5 1296 0 1024t36.5-272T140 507.5t160.5-207 207-160.5T752 36.5 1024 0zm0 1920q124 0 238.5-32t214-90.5 181-140 140-181 90.5-214 32-238.5-32-238.5-90.5-214-140-181-181-140-214-90.5-238.5-32-238.5 32-214 90.5-181 140-140 181-90.5 214-32 238.5 32 238.5 90.5 214 140 181 181 140 214 90.5 238.5 32zm0-192q-106 0-199.5-40t-163-109.5-109.5-163-40-199.5h1024q0 106-40 199.5t-109.5 163-163 109.5-199.5 40zm0-128q61 0 117.5-18.5t104-52 83.5-80.5 57-105H662q21 58 57 105t83.5 80.5 104 52T1024 1600zm352-576q-40 0-68-28t-28-68V672q0-40 28-68t68-28q19 0 36 7.5t30.5 20T1464 633t8 36v261q0 20-8 37t-21 29.5-30.5 20-36.5 7.5zm-704 0q-40 0-68-28t-28-68V672q0-40 28-68t68-28q19 0 36 7.5t30.5 20T760 633t8 36v261q0 20-8 37t-21 29.5-30.5 20-36.5 7.5z"/></svg>