<svg xmlns="http://www.w3.org/2000/svg" viewBox="0 0 2048 2048"><path d="M2009 1059q19 37 29 76t10 81v64q0 76-41 139t-110 94q-31 69-94 110t-139 41q-69 0-128-34t-94-94H734q-35 60-94 94t-128 34-128-34-94-94H128q-27 0-50-10t-40.5-27.5T10 1458t-10-50v-256q0-80 30-150t82-122 122-82 150-30h37l384-384h987l-60 120zm-416-547h-313v256h441zM603 768h549V512H859zm-91 768q27 0 50-10t40.5-27.5T630 1458t10-50-10-50-27.5-40.5T562 1290t-50-10-50 10-40.5 27.5T394 1358t-10 50 10 50 27.5 40.5T462 1526t50 10zm0-384q53 0 99.5 20t81.5 55 55 81.5 20 99.5h384V896H384q-53 0-99.5 20T203 971t-55 81.5-20 99.5v256h128q0-53 20-99.5t55-81.5 81.5-55 99.5-20zm1152 384q27 0 50-10t40.5-27.5 27.5-40.5 10-50-10-50-27.5-40.5-40.5-27.5-50-10-50 10-40.5 27.5-27.5 40.5-10 50 10 50 27.5 40.5 40.5 27.5 50 10zm256-320q0-26-6-50.5t-19-47.5v-1l-111-221h-504v512h128q0-53 20-99.5t55-81.5 81.5-55 99.5-20q42 0 81 13t71 37 56 57.5 37 73.5q11-27 11-53v-64z"/></svg>