<svg width="1792" height="1792" viewBox="0 0 1792 1792" xmlns="http://www.w3.org/2000/svg"><path transform="scale(1.75 1.75) translate(0 0)" d="M960 576h64v192h-192v-64h96q-22.5-30-56.5-47t-71.5-17q-25.5 0-49 7.75t-43.5 21.75-35 33.5-23.5 43.5l-60-21q12-33.5 33-61t48.75-47.25 60.75-30.5 68.5-10.75q45.5 0 87 17.5t73 50v-67.5zm-736-576q46.5 0 87.25 17.5t71.25 48 48 71.25 17.5 87.25-17.5 87.25-48 71.25-71.25 48-87.25 17.5-87.25-17.5-71.25-48-48-71.25-17.5-87.25 17.5-87.25 48-71.25 71.25-48 87.25-17.5zm-160 224q0 33 12.5 62.25t34.25 51 51 34.25 62.25 12.5q23.5 0 46-6.75t42-19.75l-221.5-221.5q-13 19.5-19.75 42t-6.75 46zm293.5 88q13-19.5 19.75-42t6.75-46q0-33-12.75-62t-34.5-50.75-50.75-34.5-62-12.75q-23.5 0-46 6.75t-42 19.75zm-101.5 456h192v64h-192v192h-64v-192h-192v-64h192v-192h64v192zm544 192q25.5 0 49-7.75t43.25-21.75 35-33.5 23.75-43.5l60 21q-12 33.5-33 61t-48.75 47.25-60.75 30.5-68.5 10.75q-45.5 0-87-17.5t-73-50v67.5h-64v-192h192v64h-96q22.5 30 56.5 47t71.5 17zm-185-699.5q-19-19-29-43.5t-10-51q0-28 10.5-52.5t28.5-42.5 42.25-28.5 52.25-10.5q25.5 0 48.75 9t41.75 26q18.5-17 41.75-26t48.75-9q27.5 0 52 10.5t42.5 28.5 28.5 42.5 10.5 52.5q0 26.5-10 51t-29 43.5l-185 184.5zm95-164.5q-14.5 0-27.25 5.5t-22.25 15-15 22.25-5.5 27.25q0 14 5.25 26.5t15.25 22.5l139.5 139.5 139.5-139.5q20.5-20.5 20.5-49 0-14.5-5.5-27.25t-15-22.25-22.25-15-27.25-5.5q-28.5 0-49 20.5l-41 41-41-41q-10-10-22.5-15.25t-26.5-5.25z"/></svg>