<svg width="1792" height="1792" viewBox="0 0 1792 1792" xmlns="http://www.w3.org/2000/svg"><path transform="scale(1.75 1.75) translate(0 0)" d="M336 480q20 0 34 14t14 34v64q0 20-14 34t-34 14-34-14-14-34v-64q0-20 14-34t34-14zm352 0q20 0 34 14t14 34v64q0 20-14 34t-34 14-34-14-14-34v-64q0-20 14-34t34-14zm-176 224q-13.5 0-25-5t-20.25-13.75-13.75-20.25-5-25h128q0 13.5-5 25t-13.75 20.25-20.25 13.75-25 5zm0 96q19 0 33.75-5t26.25-11 20.25-11 15.75-5q13.5 0 22.75 9.5t9.25 23q0 16-15.25 28t-36.25 19.75-42.5 11.75-34 4-34-4-42.5-11.75-36.25-19.75-15.25-28q0-13.5 9.25-23t22.25-9.5q7.5 0 16.25 5t20.25 11 26.25 11 33.75 5zm0-800q70.5 0 136 18.25t122.5 51.5 103.75 80 80 103.75 51.5 122.5 18.25 136v512h-160q-40.5 0-77.5-16.25t-64.5-46.25q-47 30.5-100.5 46.5t-109.5 16-109.5-16-100.5-46.5q-27.5 30-64.5 46.25t-77.5 16.25h-160v-512q0-70.5 18.25-136t51.5-122.5 80-103.75 103.75-80 122.25-51.5 136.25-18.25zm-320 640q0 44 11.5 85t32.25 76.5 50 64.75 64.75 50 76.5 32.25 85 11.5 85-11.5 76.5-32.25 64.75-50 50-64.75 32.25-76.5 11.5-85v-193.5q-54-5.5-103.5-28t-88.5-61v58.5h-32q-57 0-107.5-25.25t-84.5-70.75q-19.5 27.5-44.5 49.5t-53.75 38-60.5 26-65.25 13v193.5zm768-128q0-61.5-16-118.75t-45.25-107-70.25-90.75-90.75-70.25-107-45.25-118.75-16-118.75 16-107 45.25-90.75 70.25-70.25 90.75-45.25 107-16 118.75v448h96q26 0 49.75-10t41.75-28.5q-29.5-27-52.5-59.5t-38.75-68.5-24-74.75-8.25-78.75v-256h32q41 0 77-11t66-31.75 53.5-50.25 39-67h42q18 49 51.75 82.25t86.75 42.75v-125h52.5q15.5 37.5 39 67t53.5 50.25 66 31.75 77 11h32v256q0 40-8.25 78.75t-24 74.75-38.75 68.5-52.5 59.5q18 18.5 41.75 28.5t49.75 10h96v-448z"/></svg>