<svg xmlns="http://www.w3.org/2000/svg" viewBox="0 0 2048 2048"><path d="M672 960q40 0 68 28t28 68v128q0 40-28 68t-68 28-68-28-28-68v-128q0-40 28-68t68-28zm704 0q40 0 68 28t28 68v128q0 40-28 68t-68 28-68-28-28-68v-128q0-40 28-68t68-28zm-352 448q-27 0-50-10t-40.5-27.5T906 1330t-10-50h256q0 27-10 50t-27.5 40.5-40.5 27.5-50 10zm0 192q38 0 67.5-10t52.5-22 40.5-22 31.5-10q27 0 45.5 19t18.5 46q0 32-30.5 56t-72.5 39.5-85 23.5-68 8-68-8-85-23.5-72.5-39.5-30.5-56q0-27 18.5-46t44.5-19q15 0 32.5 10t40.5 22 52.5 22 67.5 10zm0-1600q141 0 272 36.5t245 103 207.5 160 160 207.5 103 245 36.5 272v1024h-320q-81 0-155-32.5t-129-92.5q-94 61-201 93t-219 32-219-32-201-93q-55 60-129 92.5T320 2048H0V1024q0-141 36.5-272t103-245 160-207.5 207.5-160 244.5-103T1024 0zM384 1280q0 88 23 170t64.5 153 100 129.5 129.5 100 153 64.5 170 23 170-23 153-64.5 129.5-100 100-129.5 64.5-153 23-170V893q-108-11-207-56t-177-122v117h-64q-114 0-215-50.5T832 640q-39 55-89 99t-107.5 76-121 52T384 893v387zm1536-256q0-123-32-237.5t-90.5-214T1657 391t-181.5-140.5-214-90.5-237.5-32-237.5 32-214 90.5T391 391 250.5 572.5t-90.5 214-32 237.5v896h192q52 0 99.5-20t83.5-57q-59-54-105-119t-77.5-137-48-149.5T256 1280V768h64q82 0 154-22t132-63.5T713 582t78-134h84q36 98 103.5 164.5T1152 698V448h105q31 75 78 134t107 100.5 132 63.5 154 22h64v512q0 80-16.5 157.5t-48 149.5-77.5 137-105 119q36 37 83.5 57t99.5 20h192v-896z"/></svg>