<svg width="1792" height="1792" viewBox="0 0 1792 1792" xmlns="http://www.w3.org/2000/svg"><path transform="scale(1.75 1.75) translate(0 0)" d="M256 0q95.5 0 186.5 22.75t174.25 65 156.5 102 132.75 133.25q22 26.5 22 60.5 0 31.5-17.25 55.75t-46.75 35.25v85.5q0 14.5-5 27.5t-13.5 23.5-20.75 17.75-26.25 9.75q-2.5 14.5-9.75 26.5t-17.75 20.5-23.5 13.5-27.5 5q-22.5 0-41.75-11.5t-29.25-32l-298.5 298q-2.5 14-9.75 26t-17.75 20.75-23.75 13.75-27.25 5q-16.5 0-31-6.25t-25.5-17.25-17.25-25.5-6.25-31v-776.5q-7.5-5.5-13.5-14t-10-18.25-6.25-20-2.25-19.25q0-20 7.5-37.5t20.5-30.5 30.5-20.5 37.5-7.5zm496 512q8.5 0 11.75 4.5t4 11.25 0 14.75 0 14.75 4 11.25 12.25 4.5q6 0 11-3t5-10v-85.5q-13-4.5-23.25-12t-18.75-17.5q-48.5-57-104.25-103.75t-118.5-79.75-132.75-51.25-146.5-18.25v752q0 7 4.5 11.5t11.5 4.5q6.5 0 10-3t4.75-7.25 1.25-9.5v-9.75l416-415.5v109q0 7 4.5 11.5t11.5 4.5 11.5-4.5 4.5-11.5v-96q0-7 4.5-11.5t11.5-4.5zm80-96q13 0 22.5-9.5t9.5-22.5q0-11.5-7.5-20.5-54.5-68-122.25-123.25t-144.75-94.5-161.5-60.5-172-21.25q-13 0-22.5 9.5t-9.5 22.5 9.5 22.5 22.5 9.5q65 0 127 12.5t120 35.75 111.75 57.25 101.75 76.5q25.5 22.5 47 46.25t44 48.25q10 11.5 24.5 11.5zm-448-32q-13.5 0-25-5t-20.25-13.75-13.75-20.25-5-25 5-25 13.75-20.25 20.25-13.75 25-5 25 5 20.25 13.75 13.75 20.25 5 25-5 25-13.75 20.25-20.25 13.75-25 5zm128 64q13.5 0 25 5t20.25 13.75 13.75 20.25 5 25-5 25-13.75 20.25-20.25 13.75-25 5-25-5-20.25-13.75-13.75-20.25-5-25 5-25 13.75-20.25 20.25-13.75 25-5zm-128 192q13.5 0 25 5t20.25 13.75 13.75 20.25 5 25-5 25-13.75 20.25-20.25 13.75-25 5-25-5-20.25-13.75-13.75-20.25-5-25 5-25 13.75-20.25 20.25-13.75 25-5z"/></svg>