<svg xmlns="http://www.w3.org/2000/svg" viewBox="0 0 2048 2048"><path d="M1024 0q141 0 272 36.5t245 103 207.5 160 160 207.5 103 245 36.5 272-36.5 272-103 245-160 207.5-207.5 160-245 103-272 36.5-272-36.5-245-103-207.5-160-160-207.5-103-244.5T0 1024q0-141 36.5-272t103-245 160-207.5 207.5-160 244.5-103T1024 0zm0 1920q123 0 237.5-32t214-90.5T1657 1657t140.5-181.5 90.5-214 32-237.5-32-237.5-90.5-214T1657 391t-181.5-140.5-214-90.5-237.5-32-237.5 32-214 90.5T391 391 250.5 572.5t-90.5 214-32 237.5 32 237.5 90.5 214T391 1657t181.5 140.5 214 90.5 237.5 32zM640 512q27 0 50 10t40.5 27.5T758 590t10 50H512q0-27 10-50t27.5-40.5T590 522t50-10zm768 0q27 0 50 10t40.5 27.5T1526 590t10 50h-256q0-27 10-50t27.5-40.5T1358 522t50-10zm64 256q40 0 75 15t61 41 41 61 15 75v64q0 133-50 249.5T1477 1477t-203.5 137-249.5 50-249.5-50T571 1477t-137-203.5-50-249.5q0-48 8-94t29-82 58.5-58 96.5-22q74 0 129 20t104.5 44 100 44 114.5 20 114.5-20 100-44 104.5-44 129-20zm64 192q0-26-19-45t-45-19q-43 0-79 9.5t-69.5 23.5-66 31-68 31-76 23.5-89.5 9.5-89.5-9.5-76-23.5-68-31-66-31-69.5-23.5-79-9.5q-26 0-45 19t-19 45v64q0 106 40.5 199t110 162.5 162.5 110 199 40.5 199-40.5 162.5-110 110-162.5 40.5-199v-64z"/></svg>