<svg width="1792" height="1792" viewBox="0 0 1792 1792" xmlns="http://www.w3.org/2000/svg"><path transform="scale(1.75 1.75) translate(0 0)" d="M320 448h320v64h-320v-64zm-192-128q-13.5 0-25-5t-20.25-13.75-13.75-20.25-5-25 5-25 13.75-20.25 20.25-13.75 25-5 25 5 20.25 13.75 13.75 20.25 5 25-5 25-13.75 20.25-20.25 13.75-25 5zm0 320h80l-80 256h-64zm664.5-640q82 103 124.5 225.75t42.5 254.25-42.5 254.25-124.5 225.75h-84q45.5-49 80.25-105t58.5-117.25 36-126 12.25-131.75q0-66.5-12.25-131.5t-36-126.25-58.5-117.25-80.25-105h84z"/></svg>