<svg xmlns="http://www.w3.org/2000/svg" viewBox="0 0 2048 2048"><path d="M1984 832l-192 192 192 192-192 192 192 192-384 384-192-192-192 192-192-192-192 192-192-192-192 192-384-384 192-192-192-192 192-192L64 832l192-192L64 448 448 64l192 192L832 64l192 192 192-192 192 192 192-192 384 384-192 192zm-181 384q-98-94-192-192 94-97 192-192-98-94-192-192 94-97 192-192l-203-203q-95 98-192 192-98-94-192-192-95 98-192 192-98-94-192-192-95 98-192 192-98-94-192-192L245 448q97 95 192 192-95 98-192 192 97 95 192 192-95 98-192 192 97 95 192 192-95 98-192 192l203 203q94-97 192-192 97 95 192 192 94-97 192-192 97 95 192 192 94-97 192-192 97 95 192 192l203-203q-98-94-192-192 94-97 192-192z"/></svg>