<svg xmlns="http://www.w3.org/2000/svg" viewBox="0 0 2048 2048"><path d="M512 0q191 0 373 45.5t348.5 130 313 204T1812 646q44 53 44 121 0 63-34.5 111.5T1728 949v171q0 29-10 55t-27 47-41.5 35.5-52.5 19.5q-5 29-19.5 53t-35.5 41-47 27-55 10q-45 0-83.5-23t-58.5-64l-597 596q-5 28-19.5 52t-35.5 41.5-47.5 27.5-54.5 10q-33 0-62-12.5t-51-34.5-34.5-51-12.5-62V335q-15-11-27-28t-20-36.5-12.5-40T320 192q0-40 15-75t41-61 61-41 75-15zm992 1024q17 0 23.5 9t8 22.5 0 29.5 0 29.5 8 22.5 24.5 9q12 0 22-6t10-20V949q-26-9-46.5-24t-37.5-35q-97-114-208.5-207.5t-237-159.5T805 420.5 512 384v1504q0 14 9 23t23 9q13 0 20-6t9.5-14.5 2.5-19V1861l832-831v218q0 14 9 23t23 9 23-9 9-23v-192q0-14 9-23t23-9zm160-192q26 0 45-19t19-45q0-23-15-41-109-136-244.5-246.5t-289.5-189-323-121T512 128q-26 0-45 19t-19 45 19 45 45 19q130 0 254 25t240 71.5T1229.5 467 1433 620q51 45 94 92.5t88 96.5q20 23 49 23zm-896-64q-27 0-50-10t-40.5-27.5T650 690t-10-50 10-50 27.5-40.5T718 522t50-10 50 10 40.5 27.5T886 590t10 50-10 50-27.5 40.5T818 758t-50 10zm256 128q27 0 50 10t40.5 27.5T1142 974t10 50-10 50-27.5 40.5-40.5 27.5-50 10-50-10-40.5-27.5T906 1074t-10-50 10-50 27.5-40.5T974 906t50-10zm-256 384q27 0 50 10t40.5 27.5T886 1358t10 50-10 50-27.5 40.5T818 1526t-50 10-50-10-40.5-27.5T650 1458t-10-50 10-50 27.5-40.5T718 1290t50-10z"/></svg>