<svg xmlns="http://www.w3.org/2000/svg" viewBox="0 0 2048 2048"><path d="M896 1472q0 40 15 75t41 61 61 41 75 15h384q65 0 122.5 24t103.5 70 70 103.5 24 122.5q0 26-19 45t-45 19-45-19-19-45q0-40-15-75t-41-61-61-41-75-15h-384q-65 0-122.5-24T862 1698t-70-103.5-24-122.5v-87q-117-55-212-140t-161.5-190.5-102.5-227T256 576q0-119 45.5-224T425 169 608 45.5 832 0t224 45.5T1239 169t123.5 183 45.5 224q0 130-36 252t-102.5 227-161 190T896 1385v87zM384 576q0 113 31.5 218.5t90 196.5 141 163.5T832 1274q103-47 185.5-119.5t141-163.5 90-196.5T1280 576q0-93-35.5-174.5t-96-142-142-96T832 128t-174.5 35.5-142 96-96 142T384 576zm704 64q-26 0-45-19t-19-45q0-40-15-75t-41-61-61-41-75-15q-26 0-45-19t-19-45 19-45 45-19q66 0 124.5 25t102 68.5 68.5 102 25 124.5q0 26-19 45t-45 19z"/></svg>