<svg xmlns="http://www.w3.org/2000/svg" viewBox="0 0 2048 2048"><path d="M640 896q-27 0-50-10t-40.5-27.5T522 818t-10-50 10-50 27.5-40.5T590 650t50-10 50 10 40.5 27.5T758 718t10 50-10 50-27.5 40.5T690 886t-50 10zm768 0q-27 0-50-10t-40.5-27.5T1290 818t-10-50 10-50 27.5-40.5T1358 650t50-10 50 10 40.5 27.5T1526 718t10 50-10 50-27.5 40.5T1458 886t-50 10zM1024 0q141 0 272 36.5t245 103 207.5 160 160 207.5 103 245 36.5 272-36.5 272-103 245-160 207.5-207.5 160-245 103-272 36.5-272-36.5-245-103-207.5-160-160-207.5-103-244.5T0 1024q0-141 36.5-272t103-245 160-207.5 207.5-160 244.5-103T1024 0zm0 1920q123 0 237.5-32t214-90.5T1657 1657t140.5-181.5T1888 1262t32-238q0-123-32-237.5t-90.5-214T1657 391t-181.5-140.5-214-90.5-237.5-32-237.5 32-214 90.5T391 391 250.5 572.5t-90.5 214-32 237.5 32 237.5 90.5 214T391 1657t181.5 140.5T786 1888t238 32zm0-384q73 0 141.5-20t127.5-57 106.5-90 80.5-118l115 58q-41 81-101 147t-134 112-159.5 71-176.5 25q-92 0-177-25t-159-71-134-112-101-147l115-58q33 65 80.5 118t106.5 90 127 57 142 20z"/></svg>