<svg width="1792" height="1792" viewBox="0 0 1792 1792" xmlns="http://www.w3.org/2000/svg"><path transform="scale(1.75 1.75) translate(0 0)" d="M448 736q0 20 7.5 37.5t20.5 30.5 30.5 20.5 37.5 7.5h192q32.5 0 61.25 12t51.75 35 35 51.75 12 61.25q0 13-9.5 22.5t-22.5 9.5-22.5-9.5-9.5-22.5q0-20-7.5-37.5t-20.5-30.5-30.5-20.5-37.5-7.5h-192q-32.5 0-61.25-12t-51.75-35-35-51.75-12-61.25v-43.5q-58.5-27.5-106-70t-80.75-95.25-51.25-113.5-18-125.75q0-59.5 22.75-112t61.75-91.5 91.5-61.75 112-22.75 112 22.75 91.5 61.75 61.75 91.5 22.75 112q0 65-18 126t-51.25 113.5-80.5 95-106.25 70v43.5zm-256-448q0 56.5 15.75 109.25t45 98.25 70.5 81.75 92.75 59.75q51.5-23.5 92.75-59.75t70.5-81.75 45-98.25 15.75-109.25q0-46.5-17.75-87.25t-48-71-71-48-87.25-17.75-87.25 17.75-71 48-48 71-17.75 87.25zm352 32q-13 0-22.5-9.5t-9.5-22.5q0-20-7.5-37.5t-20.5-30.5-30.5-20.5-37.5-7.5q-13 0-22.5-9.5t-9.5-22.5 9.5-22.5 22.5-9.5q33 0 62.25 12.5t51 34.25 34.25 51 12.5 62.25q0 13-9.5 22.5t-22.5 9.5z"/></svg>