<svg width="1792" height="1792" viewBox="0 0 1792 1792" xmlns="http://www.w3.org/2000/svg"><path transform="scale(1.75 1.75) translate(0 0)" d="M512 0q70.5 0 136 18.25t122.5 51.5 103.75 80 80 103.75 51.5 122.5 18.25 136-18.25 136-51.5 122.5-80 103.75-103.75 80-122.5 51.5-136 18.25-136-18.25-122.5-51.5-103.75-80-80-103.75-51.5-122.25-18.25-136.25q0-70.5 18.25-136t51.5-122.5 80-103.75 103.75-80 122.25-51.5 136.25-18.25zm0 960q61.5 0 118.75-16t107-45.25 90.75-70.25 70.25-90.75 45.25-107 16-118.75-16-118.75-45.25-107-70.25-90.75-90.75-70.25-107-45.25-118.75-16-118.75 16-107 45.25-90.75 70.25-70.25 90.75-45.25 107-16 118.75 16 118.75 45.25 107 70.25 90.75 90.75 70.25 107 45.25 118.75 16zm-192-704q13.5 0 25 5t20.25 13.75 13.75 20.25 5 25h-128q0-13.5 5-25t13.75-20.25 20.25-13.75 25-5zm384 0q13.5 0 25 5t20.25 13.75 13.75 20.25 5 25h-128q0-13.5 5-25t13.75-20.25 20.25-13.75 25-5zm32 128q20 0 37.5 7.5t30.5 20.5 20.5 30.5 7.5 37.5v32q0 66.5-25 124.75t-68.5 101.75-101.75 68.5-124.75 25-124.75-25-101.75-68.5-68.5-101.75-25-124.75q0-24 4-47t14.5-41 29.25-29 48.25-11q37 0 64.5 10t52.25 22 50 22 57.25 10 57.25-10 50-22 52.25-22 64.5-10zm32 96q0-13-9.5-22.5t-22.5-9.5q-21.5 0-39.5 4.75t-34.75 11.75-33 15.5-34 15.5-38 11.75-44.75 4.75-44.75-4.75-38-11.75-34-15.5-33-15.5-34.75-11.75-39.5-4.75q-13 0-22.5 9.5t-9.5 22.5v32q0 53 20.25 99.5t55 81.25 81.25 55 99.5 20.25 99.5-20.25 81.25-55 55-81.25 20.25-99.5v-32z"/></svg>