<svg width="1792" height="1792" viewBox="0 0 1792 1792" xmlns="http://www.w3.org/2000/svg"><path transform="scale(1.75 1.75) translate(0 0)" d="M1004.5 529.5q9.5 18.5 14.5 38t5 40.5v32q0 38-20.5 69.5t-55 47q-15.5 34.5-47 55t-69.5 20.5q-34.5 0-64-17t-47-47h-354q-17.5 30-47 47t-64 17-64-17-47-47h-81q-13.5 0-25-5t-20.25-13.75-13.75-20.25-5-25v-128q0-40 15-75t41-61 61-41 75-15h18.5l192-192h493.5l-30 60zm-208-273.5h-156.5v128h220.5zm-495 128h274.5v-128h-146.5zm-45.5 384q13.5 0 25-5t20.25-13.75 13.75-20.25 5-25-5-25-13.75-20.25-20.25-13.75-25-5-25 5-20.25 13.75-13.75 20.25-5 25 5 25 13.75 20.25 20.25 13.75 25 5zm0-192q26.5 0 49.75 10t40.75 27.5 27.5 40.75 10 49.75h192v-256h-384q-26.5 0-49.75 10t-40.75 27.5-27.5 40.75-10 49.75v128h64q0-26.5 10-49.75t27.5-40.75 40.75-27.5 49.75-10zm576 192q13.5 0 25-5t20.25-13.75 13.75-20.25 5-25-5-25-13.75-20.25-20.25-13.75-25-5-25 5-20.25 13.75-13.75 20.25-5 25 5 25 13.75 20.25 20.25 13.75 25 5zm128-160q0-13-3-25.25t-9.5-23.75v-.5l-55.5-110.5h-252v256h64q0-26.5 10-49.75t27.5-40.75 40.75-27.5 49.75-10q21 0 40.5 6.5t35.5 18.5 28 28.75 18.5 36.75q5.5-13.5 5.5-26.5v-32z"/></svg>