<svg width="1792" height="1792" viewBox="0 0 1792 1792" xmlns="http://www.w3.org/2000/svg"><path transform="scale(1.75 1.75) translate(0 0)" d="M480 0q66.5 0 127.75 17t114.75 48.25 97.25 75 75 97.25 48.25 114.75 17 127.75-17 127.75-48.25 114.75-75 97.25-97.25 75-114.75 48.25-127.75 17-127.75-17-114.75-48.25-97.25-75-75-97.25-48.25-114.75-17-127.75 17-127.75 48.25-114.75 75-97.25 97.25-75 114.75-48.25 127.75-17zm0 896q57 0 110.25-15t99.5-42 84.25-65 65-84.25 42-99.25 15-110.5q0-57-15-110.25t-42-99.5-65-84.25-84.25-65-99.5-42-110.25-15q-57.5 0-110.5 15t-99.25 42-84.25 65-65 84.25-42 99.5-15 110.25 15 110.25 42 99.5 65 84.25 84.25 65 99.25 42 110.5 15zm-32-640h64v320h-64v-320zm0 384h64v64h-64v-64z"/></svg>