<svg width="1792" height="1792" viewBox="0 0 1792 1792" xmlns="http://www.w3.org/2000/svg"><path transform="scale(1.75 1.75) translate(0 0)" d="M960 576v320h-448v-320h64v-32q0-33 12.5-62t34.25-50.75 51-34.5 62.25-12.75 62 12.75 50.75 34.5 34.5 50.75 12.75 62v32h64zm-320 0h192v-32q0-20-7.5-37.5t-20.5-30.5-30.5-20.5-37.5-7.5-37.5 7.5-30.5 20.5-20.5 30.5-7.5 37.5v32zm256 64h-320v192h320v-192zm-576 192h128v64h-128q-13.5 0-25-5t-20.25-13.75-13.75-20.25-5-25v-640q0-13.5 5-25t13.75-20.25 20.25-13.75 25-5h429.5l146.5 146.5v109.5h-3.5q-26.5-25.5-60.5-41.5v-41l-109.5-109.5h-402.5v640zm256-448h-64v64h-64v-64h-64v-64h64v-64h64v64h64v64z"/></svg>