<svg width="1792" height="1792" viewBox="0 0 1792 1792" xmlns="http://www.w3.org/2000/svg"><path transform="scale(1.75 1.75) translate(0 0)" d="M448 448v-64h-64v-64h64v-64h64v64h64v64h-64v64h-64zm67.5 384q1.5 16.5 5 32.5t9 31.5h-209.5q-13.5 0-25-5t-20.25-13.75-13.75-20.25-5-25v-640q0-13.5 5-25t13.75-20.25 20.25-13.75 25-5h432l144 144v257.5q-15.5-5.5-31.5-9t-32.5-5v-211.5l-112-112h-400v640h195.5zm508.5-256v192h-192v-64h76q-20.5-31-54-47.5t-70-16.5q-27 0-53 9.25t-46.25 26-32.5 40.25-12.25 52.5h-64q0-42 17.5-77.25t46.25-60.75 66.25-39.75 78-14.25q53 0 99.5 23.5t76.5 67.5v-91h64zm-208 384q27 0 52.75-9.25t46-26 32.75-40.25 12.5-52.5h64q0 42-17.5 77.25t-46.25 60.75-66.25 39.75-78 14.25q-53 0-99.5-23.5t-76.5-67.5v91h-64v-192h192v64h-76q20.5 31 54 47.5t70 16.5z"/></svg>