<svg xmlns="http://www.w3.org/2000/svg" viewBox="0 0 2048 2048"><path d="M768 512h256v128H768v256H640V640H384V512h256V256h128v256zm1280 640v384h-384v-128h190q-45-60-112-94t-142-34q-59 0-111.5 20t-94.5 55.5-70 84.5-38 107l-127-22q14-81 54-149t98.5-118 132.5-78 156-28q91 0 174 35.5t146 101.5v-137h128zm-448 768q58 0 111-20t95-55.5 70-84.5 38-107l127 22q-14 81-54 149t-98.5 118-132.5 78-156 28q-91 0-174-35.5T1280 1911v137h-128v-384h384v128h-190q45 60 112 94t142 34zm-1344 0h768v128H256q-26 0-49.5-10t-41-27.5-27.5-41-10-49.5V128q0-26 10-49.5t27.5-41 41-27.5T256 0h1115l421 421v603q-31-11-63-18t-65-10V475l-347-347H256v1792z"/></svg>