<svg width="1792" height="1792" viewBox="0 0 1792 1792" xmlns="http://www.w3.org/2000/svg"><path transform="scale(1.75 1.75) translate(0 0)" d="M448 448v-64h-64v-64h64v-64h64v64h64v64h-64v64h-64zm320 384h64v64h-64v-64zm32-352q26.5 0 49.75 10t40.75 27.5 27.5 40.75 10 49.75q0 22-7 38.75t-17.75 30.25-23.25 24.75-23.25 21.75-17.75 21.25-7 23.25h-64q0-21.5 7-38.25t17.75-30.25 23.25-24.75 23.25-21.75 17.75-21.25 7-23.75q0-13.5-5-25t-13.75-20.25-20.25-13.75-25-5-25 5-20.25 13.75-13.75 20.25-5 25h-64q0-26.5 10-49.75t27.5-40.75 40.75-27.5 49.75-10zm-480 352h384v64h-384q-13.5 0-25-5t-20.25-13.75-13.75-20.25-5-25v-640q0-13.5 5-25t13.75-20.25 20.25-13.75 25-5h429.5l146.5 146.5v168q-15-8.5-31-14.5t-33-9v-117.5l-109.5-109.5h-402.5v640z"/></svg>