<svg xmlns="http://www.w3.org/2000/svg" viewBox="0 0 2048 2048"><path d="M1472 896q119 0 224 45.5t183 123.5 123.5 183 45.5 224-45.5 224-123.5 183-183 123.5-224 45.5-224-45.5-183-123.5-123.5-183-45.5-224 45.5-224 123.5-183 183-123.5 224-45.5zm464 576q0-96-36.5-180.5T1800 1144t-147.5-99.5T1472 1008t-180.5 36.5T1144 1144t-99.5 147.5T1008 1472t36.5 180.5T1144 1800t147.5 99.5T1472 1936t180.5-36.5T1800 1800t99.5-147.5T1936 1472zm-206-190l-190 190 190 190-68 68-190-190-190 190-68-68 190-190-190-190 68-68 190 190 190-190zm-968 382q18 67 48 128H640v-128h122zM2048 256v759q-28-35-60.5-66.5T1920 890V384H640v640H384v256h378q-8 32-14 64t-9 64H384v384H256v-768H0V256h2048zM512 640H384v128H256V640H128v256h384V640zm0-256H128v128h384V384z"/></svg>