<svg width="1792" height="1792" viewBox="0 0 1792 1792" xmlns="http://www.w3.org/2000/svg"><path transform="scale(1.75 1.75) translate(0 0)" d="M736 448q59.5 0 112 22.75t91.5 61.75 61.75 91.5 22.75 112-22.75 112-61.75 91.5-91.5 61.75-112 22.75-112-22.75-91.5-61.75-61.75-91.5-22.75-112 22.75-112 61.75-91.5 91.5-61.75 112-22.75zm232 288q0-48-18.25-90.25t-49.75-73.75-73.75-49.75-90.25-18.25-90.25 18.25-73.75 49.75-49.75 73.75-18.25 90.25 18.25 90.25 49.75 73.75 73.75 49.75 90.25 18.25 90.25-18.25 73.75-49.75 49.75-73.75 18.25-90.25zm-103-95l-95 95 95 95-34 34-95-95-95 95-34-34 95-95-95-95 34-34 95 95 95-95zm-484 191q9 33.5 24 64h-85v-64h61zm643-704v379.5q-14-17.5-30.25-33.25t-33.75-29.25v-253h-640v320h-128v128h189q-4 16-7 32t-4.5 32h-177.5v192h-64v-384h-128v-384h1024zm-768 192h-64v64h-64v-64h-64v128h192v-128zm0-128h-192v64h192v-64z"/></svg>