<svg xmlns="http://www.w3.org/2000/svg" viewBox="0 0 2048 2048"><path d="M1758 0q60 0 113 23t92 62 62 92 23 113q0 58-22 111.5t-63 94.5l-240 240q33 32 51 72.5t18 87.5q0 46-17.5 86t-49.5 72l-157 157-160-161-805 805-26 1q-51 2-87.5 17t-64 36.5-50 45.5-47.5 45-55 34.5-73 13.5q-41 0-77.5-16T59 1989t-43-63.5T0 1848q0-43 13.5-73.5t34.5-55 45-47 45.5-50T175 1559t17-88l1-26 805-805-161-160 157-157q32-32 72-49.5t86-17.5q47 0 87.5 18t72.5 51l240-240q41-41 94.5-63T1758 0zm-441 960l-229-229-769 769q-5 51-19 91t-36 74.5-51.5 66T149 1798q-21 21-21 51 0 29 21 50t50 21q30 0 51-21 35-34 67-63.5t66-51.5 74-36 91-19zm555-555q48-48 48-114 0-33-13-63t-35-52-52-35-63-13q-66 0-114 48l-331 330-94-94q-28-28-66-28-21 0-39.5 10t-35 25-31.5 31.5-28 29.5l550 550 68-68q28-28 28-66 0-20-7.5-36.5T1635 829l-93-93z"/></svg>