<svg xmlns="http://www.w3.org/2000/svg" viewBox="0 0 2048 2048"><path d="M1280 1152q112 0 219 29t204.5 80.5 184.5 122 160 152.5q-73 82-160 152.5t-184.5 122T1499 1891t-219 29q-113 0-219.5-29t-204-80.5-184.5-122T512 1536q73-82 160-152.5t184.5-122 204-80.5 219.5-29zm0 658q57 0 106.5-21.5t87-59 59-87T1554 1536t-21.5-106.5-59-87-87-59T1280 1262t-106.5 21.5-87 59-59 87T1006 1536t21.5 106.5 59 87 87 59T1280 1810zm-281-40q-42-49-63.5-109.5T914 1536t21.5-124.5T999 1302q-202 82-354 234 152 152 354 234zm916-234q-152-152-354-234 42 49 63.5 109.5T1646 1536t-21.5 124.5T1561 1770q202-82 354-234zm-635-96q40 0 68 28t28 68-28 68-68 28-68-28-28-68 28-68 68-28zM0 384h2048v896l-128-128V512H128v1024h192v128H0V384z"/></svg>