<svg width="1792" height="1792" viewBox="0 0 1792 1792" xmlns="http://www.w3.org/2000/svg"><path transform="scale(1.75 1.75) translate(0 0)" d="M479 664q50.5 20 92 53.25t71 76.25 45.75 93.5 16.25 105v32h-64v-32q0-59.5-22.75-112t-61.75-91.5-91.5-61.75-112-22.75-112 22.75-91.5 61.75-61.75 91.5-22.75 112v32h-64v-32q0-54.5 16.25-105t45.75-93.5 71-76.25 92-53.25q-22.5-15.5-40.5-36t-30.5-44.25-19.25-50-6.75-53.75q0-46.5 17.75-87.25t48-71 71-48 87.25-17.75 87.25 17.75 71 48 48 71 17.75 87.25q0 27.5-6.75 53.75t-19.25 50-30.5 44.25-40.5 36zm-127-24q33 0 62-12.5t50.75-34.25 34.5-51 12.75-62.25-12.75-62-34.5-50.75-50.75-34.5-62-12.75-62.25 12.75-51 34.5-34.25 50.75-12.5 62 12.5 62.25 34.25 51 51 34.25 62.25 12.5zm672-640v512h-128l-192 192v-192h-64v-64h128v101.5l101.5-101.5h90.5v-384h-640v115q-16 2-32.25 5.25t-31.75 8.75v-193h768z"/></svg>