<svg width="1792" height="1792" viewBox="0 0 1792 1792" xmlns="http://www.w3.org/2000/svg"><path transform="scale(1.75 1.75) translate(0 0)" d="M368 640q75 0 131.75 22.5t95 64.25 57.75 100.75 19.5 132.5v64h-608v-64q0-73.5 19.25-132.5t57.5-100.75 95.25-64.25 132-22.5zm0-64q-40 0-73.25-15.5t-57-41.75-36.75-61.25-13-73.5 13-73.5 36.75-61.25 57-41.75 73.25-15.5 73.25 15.5 57 41.75 36.75 61.25 13 73.5-13 73.5-36.75 61.25-57 41.75-73.25 15.5zm544-576q20 0 34 14t14 34v256q0 20-14 34t-34 14h-144l-128 128v-128h-34q-4-35-16.25-67.75t-32.5-60.25-47.75-48.75-61.5-33.25v-94q0-20 14-34t34-14h416z"/></svg>