<svg width="1792" height="1792" viewBox="0 0 1792 1792" xmlns="http://www.w3.org/2000/svg"><path transform="scale(1.75 1.75) translate(0 0)" d="M884 896h76v64h-108q-6 12-14.5 23.5t-19 20.5-23 14.5-27.5 5.5q-20.5 0-35.5-4.75t-26.75-11.75-21-15.25-18.5-15.25-19.25-11.75-23-4.75-23 4.75-19 11.5-18.25 15-20.75 15-26.75 11.5-36.25 4.75-36.25-4.75-26.75-11.5-20.75-15-18.25-15-19-11.5-23-4.75-23 4.75-19.25 11.75-18.5 15.25-21 15.25-26.75 11.75-35.5 4.75q-15.5 0-28-5.25t-22.75-14.25-18.5-20.5-14.75-24l-1-1.5-107 1.5v-64h76l-76-152.5v-78.5l128-42.5v-238.5h76l64-128h116v-128h192v128h116l64 128h76v238.5l128 42.5v78.5zm-436-640h64v-64h-64v64zm320 345v-153h-576v153l288-96z"/></svg>