<svg width="1792" height="1792" viewBox="0 0 1792 1792" xmlns="http://www.w3.org/2000/svg"><path transform="scale(1.75 1.75) translate(0 0)" d="M884 896h76v64h-108q-16 31.5-37.25 47.75t-46.75 16.25q-27 0-51.75-10.75t-43.75-31.25q-10-10.5-22.25-16.25t-26.25-5.75q-28 0-48.5 22-19 20.5-43.75 31.25t-51.75 10.75-51.75-10.75-43.75-31.25q-10-10.5-22.5-16.25t-26-5.75q-28 0-48.5 22-19 20.5-43.75 31.25t-51.75 10.75q-25.5 0-46.75-16.25t-37.25-47.75h-108v-64h76l-76-152.5v-78.5l128-42.5v-238.5h76l64-128h116v-128h192v128h116l64 128h76v238.5l128 42.5v78.5zm-436-640h64v-64h-64v64zm-172 128h408l-32-64h-344zm-84 217l288-96 288 96v-153h-576v153zm239.5 337q7.5 8.5 16.5 13.5v-368.5l-384 128v17.5l101 201.5q7.5 15.5 15 22.75t12 7.25q13.5 0 26-5.75t22.5-16.25q19-20.5 43.75-31.25t51.75-10.75 51.75 10.75 43.75 31.25zm364-8.5l100.5-201v-17.5l-384-128v368.5q9-5 16.5-13.5 19-20.5 43.75-31.25t51.75-10.75 51.75 10.75 43.75 31.25q20.5 22 48.5 22 4.5 0 12-7.25t15-22.75z"/></svg>