<svg width="1792" height="1792" viewBox="0 0 1792 1792" xmlns="http://www.w3.org/2000/svg"><path transform="scale(1.75 1.75) translate(0 0)" d="M768 576q13.5 0 25 5t20.25 13.75 13.75 20.25 5 25v320h-128v-256h-384v256h-128v-320q0-13.5 5-25t13.75-20.25 20.25-13.75 25-5h512zm-384 192h256v128h-256v-128zm0-608q-15.5 15-35.75 23.5t-44.25 8.5h-304v-64q0-13.5 5-25t13.75-20.25 20.25-13.75 25-5h240q24 0 44.25 8.5t35.75 23.5l32 32zm576 32q13.5 0 25 5t20.25 13.75 13.75 20.25 5 25v640h-128v-256q0-26.5-10-49.75t-27.5-40.75-40.75-27.5-49.75-10h-512q-26.5 0-49.75 10t-40.75 27.5-27.5 40.75-10 49.75v256h-128v-640h320q37.5 0 70.25-17t57.75-47h512z"/></svg>