<svg width="1792" height="1792" viewBox="0 0 1792 1792" xmlns="http://www.w3.org/2000/svg"><path transform="scale(1.75 1.75) translate(0 0)" d="M1024 896h-192v64h-192v-64h-256v64h-192v-64h-192v-768q0-13.5 5-25t13.75-20.25 20.25-13.75 25-5h240q22.5 0 38.75 4.75t29 11.75 22.75 15.5 20.25 15.5 22 11.75 27.25 4.75h496q13.5 0 25 5t20.25 13.75 13.75 20.25 5 25v704zm-960-768v64h240q12 0 21-2.25t16.5-6.5 14.75-10 15.75-13.25q-8.5-7.5-15.75-13.25t-14.75-10-16.5-6.5-21-2.25h-240zm576 704v-128h-256v128h256zm128 64v-288q0-13-9.5-22.5t-22.5-9.5h-448q-13 0-22.5 9.5t-9.5 22.5v288h64v-256h384v256h64zm192-704h-496q-15.5 0-27.25 4.75t-22 11.75-20.5 15.5-22.75 15.5-28.75 11.75-38.75 4.75h-240v576h128v-224q0-20 7.5-37.5t20.5-30.5 30.5-20.5 37.5-7.5h448q20 0 37.5 7.5t30.5 20.5 20.5 30.5 7.5 37.5v224h128v-640z"/></svg>