<svg width="1792" height="1792" viewBox="0 0 1792 1792" xmlns="http://www.w3.org/2000/svg"><path transform="scale(1.75 1.75) translate(0 0)" d="M64 288q0 20 7.5 37.5t20.5 30.5 30.5 20.5 37.5 7.5q13 0 22.5 9.5t9.5 22.5-9.5 22.5-22.5 9.5q-33 0-62.25-12.5t-51-34.25-34.25-51-12.5-62.25 12.5-62 34.25-50.75 51-34.5 62.25-12.75h224v64h-224q-20 0-37.5 7.5t-30.5 20.5-20.5 30.5-7.5 37.5zm887.5 109q16 4 29.25 12.75t23 21.25 15 27.5 5.25 31.5v246q0 59.5-22.75 112t-61.75 91.5-91.5 61.75-112 22.75q-73 0-134.25-27.25t-112.75-78.75l-236-235.5q-14-14-21.5-32.5t-7.5-38q0-21 7.75-39t21.25-31.5 31.75-21.25 38.75-7.75 38.5 7.5 32.5 21.5q13.5 13 26.75 26.5t26.75 26.5v-494q0-20.5 7-38.75t19.75-32 30.5-21.75 38.75-8q20 0 37.5 7.5t30.5 20.5 20.5 30.5 7.5 37.5v223zm8.5 93q0-11.5-6.75-20t-17.75-11l-295.5-74q0 9 .25 20t-2.5 20.5-9.5 16-20.25 6.5q-13 0-22.5-9.5t-9.5-22.5v-320q0-13-9.5-22.5t-22.5-9.5-22.5 9.5-9.5 22.5v521.5q0 11.5-4.25 21.5t-11.5 17.25-17.25 11.5-21.5 4.25q-10.5 0-21-4.25t-18-11.75l-69-69.5q-10.5-10.5-25.5-10.5-14.5 0-25.25 10.5t-10.75 25.5q0 14.5 10.5 25l236 236.5q41.5 42 91.75 64.25t109.75 22.25q46.5 0 87.25-17.75t71-48 48-71 17.75-87.25v-246zm-64-394q0 20-7.5 37.5t-20.5 30.5-30.5 20.5-37.5 7.5h-96v-64h96q13 0 22.5-9.5t9.5-22.5q0-12-4.75-18t-11.75-9.25-15.5-4.75-15.5-4.75-11.75-9.25-4.75-18q0-13 9.5-22.5t22.5-9.5q20 0 37.5 7.5t30.5 20.5 20.5 30.5 7.5 37.5z"/></svg>