<svg width="1792" height="1792" viewBox="0 0 1792 1792" xmlns="http://www.w3.org/2000/svg"><path transform="scale(1.75 1.75) translate(0 0)" d="M265 904q-13 0-22.5-9.25t-9.5-22.75q0-10.5 5.5-18.25t15.5-11.75q38-16 69-41.5t55-57.25 42-68.5 30-74.75q3.5-10.5 11.25-17.25t19.75-6.75q13 0 22.5 9.75t9.5 22.75q0 20.5-12 50.5t-32 62.75-46 65.5-53.5 58.5-54.75 42-49.75 16.25zm152 56q-13 0-22.5-9.5t-9.5-22.5q0-16.5 14.5-27 17.5-12.5 37.5-32.5t39.75-44.5 38.25-51.75 32.5-55 22.25-54 8.25-48.75q0-27.5-4-47t-14.75-31.75-29.75-18-48.5-5.75q-20 0-34.5 8.25t-25.5 22-20.25 32.25-19.25 39.25-22 42.25-28.75 41.75-39.5 37.75-54.25 30q-6.5 2.5-12.5 2.5-13 0-22.5-9.5t-9.5-22.5q0-10 5.75-17.75t14.75-11.75q35-16.5 62.25-42.75t43.25-62.25q12.5-29 25.5-56.75t31-49.25 43.25-34.5 62.75-13q85 0 123 41.75t38 124.75q0 26-9.5 57.5t-25.25 65-36.75 67-44 62.75-47 52.25-45.5 36q-4 2.5-8 3.75t-9 1.25zm192 0q-13 0-22.5-9.5t-9.5-22.5q0-7.5 3-13.5t8.5-11.5q28.5-27.5 51.75-63.25t40.25-75.75 26.25-81.75 9.25-81.25q0-41-15.75-80t-43.25-69.5-64.5-49-79.5-18.5q-47 0-76.75 6.25t-49.25 17.75-31.75 28-24.25 37.25-27.25 45.5-39.75 52.25q-19 22-42.5 40.75t-52 27.25q-2 1-4 1h-4q-13.5 0-23.25-9.75t-9.75-22.75q0-11.5 6.75-19t16.75-11.5q29-11 48.25-27.75t33-37 25-42.25 24.25-43.5 30.25-40.75 43.75-33.75 64.5-23.25 92-8.75q37.5 0 71.75 10.75t64 30 54 45.75 41.5 58 26.5 66.5 9.25 71.5q0 25.5-5.25 57t-15 65.5-23.25 68-30.25 64.5-36.25 55.25-41 40.25q-4.5 3-9.5 5t-10.5 2zm223-512q-19.5 0-29-18.5-47.5-86-119.5-129.75t-171.5-43.75q-40.5 0-77.5 4.25t-69.75 16.25-61 34-51.75 57q-5 7.5-11.75 12t-16.25 4.5q-13 0-22.5-9.5t-9.5-22.5q0-7.5 4-15.5 22.5-43 58-71t78-44.25 89-22.75 91-6.5q54 0 107 13.75t99.5 40.25 83.5 65.75 59 90.75q3 7 3 13.5 0 13-9.5 22.5t-22.5 9.5zm-64-254q-7.5 0-15.5-4-58-30-116.5-46t-124-16q-56.5 0-107.75 12t-102.75 34.5q-3.5 1.5-6.75 2.5t-7.25 1q-13 0-22.25-9.5t-9.25-22.5q0-14.5 15.75-26.25t40.5-21 54.5-15.75 58.25-10.75 52-6.25 35-2q12.5 0 38.75 2.75t58.25 8.5 66 14 61.75 19.25 45.5 24.25 17.75 29.25q0 13-9.5 22.5t-22.5 9.5z"/></svg>