<svg xmlns="http://www.w3.org/2000/svg" viewBox="0 0 2048 2048"><path d="M128 576q0 40 15 75t41 61 61 41 75 15q26 0 45 19t19 45-19 45-45 19q-66 0-124.5-25t-102-68.5-68.5-102T0 576t25-124 68.5-101.5 102-69T320 256h448v128H320q-40 0-75 15t-61 41-41 61-15 75zm1775 218q32 8 58.5 25.5t46 42.5 30 55 10.5 63v492q0 119-45.5 224T1879 1879t-183 123.5-224 45.5q-146 0-268.5-54.5T978 1836l-472-471q-28-28-43-65t-15-76q0-42 15.5-78t42.5-63 63.5-42.5T647 1025t77 15 65 43q27 26 53.5 53t53.5 53V201q0-41 14-77.5t39.5-64 61-43.5T1088 0q40 0 75 15t61 41 41 61 15 75v446zm17 186q0-23-13.5-40t-35.5-22l-591-148q0 18 .5 40t-5 41-19 32-40.5 13q-26 0-45-19t-19-45V192q0-26-19-45t-45-19-45 19-19 45v1043q0 23-8.5 43t-23 34.5-34.5 23-43 8.5q-21 0-42-8.5t-36-23.5l-138-139q-21-21-51-21-29 0-50.5 21t-21.5 51q0 29 21 50l472 473q83 84 183.5 128.5T1472 1920q93 0 174.5-35.5t142-96 96-142T1920 1472V980zm-128-788q0 40-15 75t-41 61-61 41-75 15h-192V256h192q26 0 45-19t19-45q0-24-9.5-36t-23.5-18.5-31-9.5-31-9.5-23.5-18.5-9.5-36q0-26 19-45t45-19q40 0 75 15t61 41 41 61 15 75z"/></svg>