<svg xmlns="http://www.w3.org/2000/svg" viewBox="0 0 2048 2048"><path d="M1536 0q26 0 49.5 10t41 27.5 27.5 41 10 49.5v928q0 31 9.5 54t23.5 43.5 31 41 31 45.5 23.5 58 9.5 78v288q0 26-10 49.5t-27.5 41-41 27.5-49.5 10H768v128q0 39-21.5 71t-57.5 47q-23 10-49 10-53 0-91-38l-293-293V0h1280zM640 1568q0-45 9.5-77.5t23.5-58 31-45.5 31-40.5 23.5-44 9.5-54.5V603L384 219v1445l256 256v-352zm1024-192q0-31-9.5-54t-23.5-43.5-31-41-31-45.5-23.5-58-9.5-78V128H475l384 384q18 18 27.5 41.5T896 603v645q0 45-9.5 77.5t-23.5 58-31 45.5-31 40.5-23.5 44-9.5 54.5v96h896v-288z"/></svg>