<svg width="1792" height="1792" viewBox="0 0 1792 1792" xmlns="http://www.w3.org/2000/svg"><path transform="scale(1.75 1.75) translate(0 0)" d="M488.5 315.5v65.5h-28v-225.5q-1.5-6-16-13.5-9.5-6-28.5-14.5-9.5-2.5-9.5-5.5l.5-1.5q3-4 19.5-4 6.5 1 13.5 2.25t14 3.25q6.5 1.5 12.5 3t13 4q8 3 10 7 .5.5.5 2.5v2.75l-1 3.25v157.5h23.5q3-1 5.75-1.5t4.75-1.5l6.5-3q6-4.5 10.5-4.5 4.5-2 13.5-2l9.5.5q9.5 0 15 4.5 5.5 4 5.5 9v1.5q0 4.5-4 7.5-4.5 3-11.5 3h-79.5zm-172.5-112q-11.5 1-19.5 1.5t-12.5 1q-19 1-29.5 3-4.5.5-7.75 1.75t-7.75 2.25q-4.5 2.5-9 2.5-2 0-3.5-.5-9.5-2-33.5-13.5-11.5-7.5-11.5-10.5v-.5q1-2 5.5-2t8.25 1 8.25 2 10.25 2 14.75 1q4 0 7.75-.25t4.75-.25l96-3q2-1 3.75-1.25t4.25-.75q1 0 4.5-2 2-.5 3.5-1t3.5-.5q1 0 2.5-.25t3.5-.25 4 .25 4 .25q17 2.5 18.5 6v1q0 3-5 8.5l-4 6.5q-16 38-35.25 70t-42.25 58.5q-22.5 27-53 53.25t-70 52.75q-10 7-14 7-1.5 0-1.5-.5-.5 0-.5-.5 0-3 12-12.5 53-42 102-105 27-35.5 43.75-67.25t25.25-60.75zm426.5 418.5v282.5h-54v-523.5h54v198h109.5v43h-109.5zm-119-174q-7.5 267.5-283 424l-32-37.5q50-20 91.5-52.75t81.5-79.25q38.5-46 60.75-96.25t29.25-109.75h-202.5v-48.5h254.5z"/></svg>