<svg xmlns="http://www.w3.org/2000/svg" viewBox="0 0 2048 2048"><path d="M977 631v131h-56V311q-3-12-32-27-19-12-57-29-19-5-19-11l1-3q6-8 39-8 13 2 27 4.5t28 6.5q13 3 25 6t26 8q16 6 20 14 1 1 1 5v5.5l-2 6.5v315h47q6-2 11.5-3t9.5-3l13-6q12-9 21-9 9-4 27-4l19 1q19 0 30 9 11 8 11 18 0 12-8 18-9 6-23 6H977zM632 407q-23 2-39 3t-25 2q-38 2-59 6-9 1-15.5 3.5T478 426q-9 5-18 5-4 0-7-1-19-4-67-27-23-15-23-21 2-5 11-5t16.5 2 16.5 4 20.5 4 29.5 2q8 0 15.5-.5t9.5-.5h192q4-8 7.5-8.5t8.5-1.5q2 0 9-4 4-1 7-2t7-1q2 0 5-.5t7-.5 8 .5 8 .5q34 5 37 12 0 8-10 19l-8 13q-32 76-70.5 140T605 672q-45 54-106 106.5T359 884q-20 14-28 14-3 0-3-1-1 0-1-1 0-6 24-25 106-84 204-210 54-71 87.5-134.5T693 405zm853 837v565h-108V762h108v396h219v86h-219zm-238-348q-15 535-566 848l-64-75q100-40 183-105.5T963 1405q77-92 121.5-192.5T1143 993H738v-97h509z"/></svg>