<svg width="1792" height="1792" viewBox="0 0 1792 1792" xmlns="http://www.w3.org/2000/svg"><path transform="scale(1.75 1.75) translate(0 0)" d="M382.5 512h-189l-42.5 128h-67.5l171-512h67l134 401-40.5 81zm-21.5-64l-73-219-73 219h146zm491 339.5q8.5 20.5 15.75 36.5t17.25 27.25 25 17 39 5.75v22h-224.5v-22q8.5 0 18.75.25t19.25-2 15-8.25 6-18.5q0-7-3.25-19.5t-8-27-10.5-29.75-11-28.75-9.25-23.25-5.5-13.25h-224q-1.5 4-6 13.75t-10.25 23-12 28.25-11.5 29.25-8.5 26.75-3.25 20q0 12 6.25 17.75t15.25 8 19.25 2.5 18.25.75v22h-188.5v-22q24.5-4.5 38-10.5t22-16.25 15-25.75 16.5-39.5l196-462h41zm-145.5-147.5l-88.5-190.5-84.5 190.5h173z"/></svg>