<svg xmlns="http://www.w3.org/2000/svg" viewBox="0 0 2048 2048"><path d="M1180 1920q48 0 94.5-2t94.5-8l14 127q-51 7-101.5 9t-101.5 2q-167 0-318.5-16T580 1975.5 344.5 1867t-181-171.5T46 1449 1 1115q0-9-.5-18.5T0 1078q0-70 6.5-140T25 799q30-173 95.5-319.5t169.5-253T538.5 60 869 0q74 0 149 14t144 38 127 60 99.5 85 65 112 23.5 139q0 39 5.5 81.5t19 82.5 36 75 57.5 59q27 19 49.5 29t43.5 15.5 41.5 10.5 44 15 50.5 27 61 48q46 42 77.5 95.5t50.5 113 27 122 8 122.5v30h-128q0-48-4-101t-16.5-104.5-35.5-98-61-81.5q-23-22-53-41.5t-62-26.5q-50-11-89.5-27t-81.5-46q-47-33-79-79.5t-51.5-99.5-28.5-110-9-111q0-59-22-106t-59.5-82.5-86-60.5-102-41-108-23-102.5-7q-162 0-284.5 52t-210 144-142 218.5T152 818q-11 62-17 123.5t-6 124.5v48q0 171 37.5 297t106 215.5T437 1773t212.5 89.5 251 45T1180 1920zm612-256h256v128h-256v256h-128v-256h-256v-128h256v-256h128v256z"/></svg>