<svg width="1792" height="1792" viewBox="0 0 1792 1792" xmlns="http://www.w3.org/2000/svg"><path transform="scale(1.75 1.75) translate(0 0)" d="M512 709.5q14.5 5 26.25 14t20.25 21 13 26.25 4.5 29.25q0 20-7.5 37.5t-20.5 30.5-30.5 20.5-37.5 7.5-37.5-7.5-30.5-20.5-20.5-30.5-7.5-37.5q0-15 4.5-29.25t13-26.25 20.25-21 26.25-14v-197.5h64v197.5zm128-50q28.5 31.5 44.25 70.5t15.75 81.5q0 45-17.75 83.75t-48 67.25-70.25 45-84 16.5-84-16.5-70.25-45-48-67.25-17.75-83.75q0-42.5 15.75-81.5t44.25-70.5v-499.5q0-33 12.5-62t34.25-50.75 51-34.5 62.25-12.75 62 12.75 50.75 34.5 34.5 50.75 12.75 62v499.5zm-160 300.5q31 0 59.25-11.5t49.75-31.5 34.25-47.5 12.75-59q0-37.5-16.5-68.75t-43.5-56.25v-525.5q0-20-7.5-37.5t-20.5-30.5-30.5-20.5-37.5-7.5-37.5 7.5-30.5 20.5-20.5 30.5-7.5 37.5v525.5q-27 25-43.5 56.25t-16.5 68.75q0 31.5 12.75 59t34.25 47.5 49.75 31.5 59.25 11.5z"/></svg>