<svg xmlns="http://www.w3.org/2000/svg" viewBox="0 0 2048 2048"><path d="M1024 1419q29 10 52.5 28t40.5 42 26 52.5 9 58.5q0 40-15 75t-41 61-61 41-75 15-75-15-61-41-41-61-15-75q0-30 9-58.5t26-52.5 40.5-42 52.5-28v-395h128v395zm256-100q57 63 88.5 141t31.5 163q0 90-35.5 167.5t-96 134.5-140.5 90-168 33-168-33-140.5-90-96-134.5T520 1623q0-85 31.5-163t88.5-141V320q0-66 25-124t68.5-101.5 102-69T960 0t124 25.5 101.5 69 69 101.5 25.5 124v999zm-320 601q62 0 118.5-23t99.5-63 68.5-95 25.5-118q0-75-33-137.5t-87-112.5V320q0-40-15-75t-41-61-61-41-75-15-75 15-61 41-41 61-15 75v1051q-54 50-87 112.5T648 1621q0 63 25.5 118t68.5 95 99.5 63 118.5 23v64-64z"/></svg>