<svg width="1792" height="1792" viewBox="0 0 1792 1792" xmlns="http://www.w3.org/2000/svg"><path transform="scale(1.75 1.75) translate(0 0)" d="M658 384q58.5 9 103 35.25t74.5 65.25 45.25 89.25 15.25 107.25q0 84-28.25 144t-77.25 100.5-115 64-141.5 34.5l-34-73.5q36-5 73-14.25t71-24 64-35.25 52-48 34.75-62 12.75-77q0-41-9.25-80.5t-29.5-72-52-54.75-76.75-29.25q-11.5 31.5-27 70.75t-34.75 81.5-42.5 85.75-50 84-57.25 76.25-64.25 62.25-71.25 41.75-78 15.25q-40 0-68.75-12t-47.25-34-27.5-53-9-68.5q0-66 17-122.75t49.25-104 78.5-85 105.25-64.75q1-48.5 2.25-96.5t2.75-96.5q-75 1.5-150.5 1.5h-28.75l-28.75-.5v-74.5q29.5 1 58.75 1.25t58.75.25h47l47-.5q3-40.5 5.75-80.75t5.25-80.75l85 5.5q-3.5 38.5-6.75 76.25t-5.75 76.25q97.5-4.5 193.75-12.5t193.25-19v74.5q-195.5 20-392.5 28.5-1.5 42.5-3.25 85t-2.75 85q44.5-13.5 90.75-18.25t92.25-4.75q6.5-19.5 11-39.25t8.5-39.75l82 15.5q-8 35-19.5 71zm-447.5 505.5q21.5 0 42-7t39.5-18.5 36-26 31.5-29q-22-73-32.5-148.25t-13-151.25q-39.5 21.5-71 52.25t-53.75 67.75-34.25 79.5-12 87.5q0 16 3.25 32.5t11.25 30 20.75 22 32.25 8.5zm212.5-160.5q45-64.5 77-136.75t57-146.75q-42 0-83.25 6.5t-80.75 20q2.5 64.5 8.25 129.5t21.75 127.5z"/></svg>