<svg width="1792" height="1792" viewBox="0 0 1792 1792" xmlns="http://www.w3.org/2000/svg"><path transform="scale(1.75 1.75) translate(0 0)" d="M888 224q0 94.5-1 187.5t-5 187.5q-2.5 60.5-5.5 122.25t-13 121.75q-3 18.5-8 39.25t-13 40.5-20 36.5-29.5 27.25q-11 6.5-27.25 11t-35.75 7.5-40.5 5-41 2.75-37.5 1-30 .25l-29-91q17 1 34 1.75t34 .75q16 0 36-.25t39.5-4.25 35.75-12.75 24.75-26.25q6.5-14 11.75-42.5t9.25-66.5 6.5-82.5 4.5-90.75 3-91.5 1.5-84.75.5-70.5v-48.5h-268q-3.5 74.5-11.5 144.5t-23.5 135-39.75 125-60 115.25-84.5 105.25-113.25 94.5l-62.5-63q58.5-39 103-84.5t77.25-96.25 54.75-106.25 36.25-115.5 21.25-123.75 9.5-130.25h-272v-80.5h272v-2.5h2.5q1-56 1-110.75v-110.75h96.5q0 55.5-.75 110.5t-1.75 110.5l-1.5 3h360z"/></svg>