<svg xmlns="http://www.w3.org/2000/svg" viewBox="0 0 2048 2048"><path d="M1316 768q117 18 206 70.5T1671 969t90.5 178.5T1792 1362q0 168-56.5 288T1581 1851t-230 128-283 69l-68-147q72-10 146-28.5t142-48 128-70.5 104-96 69.5-124 25.5-154q0-82-18.5-161t-59-144-104-109.5T1280 907q-23 63-54 141.5t-69.5 163-85 171.5-100 168T857 1703.5 728.5 1828 586 1911.5 430 1942q-80 0-137.5-24t-94.5-68-55-106-18-137q0-132 34-245.5t98.5-208 157-170T625 854q2-97 4.5-193t5.5-193q-150 3-301 3h-57.5l-57.5-1V321q59 2 117.5 2.5t117.5.5h94l94-1q6-81 11.5-161.5T664 0l170 11q-7 77-13.5 152.5T809 316q195-9 387.5-25t386.5-38v149q-391 40-785 57-3 85-6.5 170T786 799q89-27 181.5-36.5T1152 753q13-39 22-78.5t17-79.5l164 31q-16 70-39 142zM421 1779q43 0 84-14t79-37 72-52 63-58q-44-146-65-296.5T628 1019q-79 43-142 104.5T378.5 1259 310 1418t-24 175q0 32 6.5 65t22.5 60 41.5 44 64.5 17zm425-321q90-129 154-273.5T1114 891q-84 0-166.5 13T786 944q5 129 16.5 259t43.5 255z"/></svg>