<svg width="1792" height="1792" viewBox="0 0 1792 1792" xmlns="http://www.w3.org/2000/svg"><path transform="scale(1.75 1.75) translate(0 0)" d="M939.5 276.5q41 41 62.75 93.25t21.75 110.25q0 17.5-1 42t-4.25 53-9.5 58.75-16.25 59.25q-15 43-35 70.25t-41.5 42.5-43.5 20.75-41 5.5q-16.5 0-30.25-5.75t-26-14.75-23-20.75-21.25-23.75-20.75-23-21.25-19.75-23.25-14.25-26.75-6h-255q-14.5.5-26.75 6t-23.25 14.25-21.25 19.75-20.75 23-21.25 23.75-23 20.75-26 14.75-30.25 5.75q-19 0-41-5.5t-43.5-20.75-41.5-42.5-35-70.25q-10-29-16.25-59.25t-9.5-58.75-4.25-53-1-42q0-58 21.75-110.25t62.75-93.25q40.5-41 93-62.75t110.5-21.75h448q58 0 110.25 21.75t93.25 62.75zm-7 395.5q9.5-26.5 15-55t8.25-54.75 3.5-47.75.75-34.5q0-46.5-17.75-87.25t-48-71-71-48-87.25-17.75h-448q-46.5 0-87.25 17.75t-71 48-48 71-17.75 87.25q0 13 .75 34.5t3.5 47.75 8.25 54.75 15 55q12.5 36 27.5 55.5t29.25 28.5 26 10.5 17.75 1.5q11 0 24.25-13.25t27.75-29.75q12-14 25.75-28.75t30.5-27 37.25-20.25 45.5-9h258q25 1 45.5 9t37.25 20.25 30.5 27 25.75 28.75q14.5 16.5 27.75 29.75t24.25 13.25q6 0 17.75-1.5t26-10.5 29.25-28.5 27.5-55.5zm-676.5-224h64v64h-64v64h-64v-64h-64v-64h64v-64h64v64zm576 64q13.5 0 25 5t20.25 13.75 13.75 20.25 5 25-5 25-13.75 20.25-20.25 13.75-25 5-25-5-20.25-13.75-13.75-20.25-5-25 5-25 13.75-20.25 20.25-13.75 25-5zm-128-128q13.5 0 25 5t20.25 13.75 13.75 20.25 5 25-5 25-13.75 20.25-20.25 13.75-25 5-25-5-20.25-13.75-13.75-20.25-5-25 5-25 13.75-20.25 20.25-13.75 25-5z"/></svg>