<svg xmlns="http://www.w3.org/2000/svg" viewBox="0 0 2048 2048"><path d="M1879 553q82 82 125.5 186.5T2048 960q0 35-2 84t-8.5 106-19 117.5T1986 1386q-30 86-70 140.5t-83 85-87 41.5-82 11q-33 0-60.5-11.5t-52-29.5-46-41.5-42.5-47.5-41.5-46-42.5-39.5-46.5-28.5-53.5-12H769q-29 1-53.5 12t-46.5 28.5-42.5 39.5-41.5 46-42.5 47.5-46 41.5-52 29.5T384 1664q-38 0-82-11t-87-41.5-83-85T62 1386q-20-58-32.5-118.5t-19-117.5T2 1044t-2-84q0-116 43.5-220.5T169 553q81-82 186-125.5T576 384h896q116 0 220.5 43.5T1879 553zm-14 791q19-53 30-110t16.5-109.5 7-95.5 1.5-69q0-93-35.5-174.5t-96-142-142-96T1472 512H576q-93 0-174.5 35.5t-142 96-96 142T128 960q0 26 1.5 69t7 95.5T153 1234t30 110q25 72 55 111t58.5 57 52 21 35.5 3q22 0 48.5-26.5T488 1450q24-28 51.5-57.5t61-54T675 1298t91-18h516q50 2 91 18t74.5 40.5 61 54 51.5 57.5q29 33 55.5 59.5t48.5 26.5q12 0 35.5-3t52-21 58.5-57 55-111zM512 896h128v128H512v128H384v-128H256V896h128V768h128v128zm1152 128q27 0 50 10t40.5 27.5 27.5 40.5 10 50-10 50-27.5 40.5-40.5 27.5-50 10-50-10-40.5-27.5-27.5-40.5-10-50 10-50 27.5-40.5 40.5-27.5 50-10zm-256-256q27 0 50 10t40.5 27.5T1526 846t10 50-10 50-27.5 40.5-40.5 27.5-50 10-50-10-40.5-27.5T1290 946t-10-50 10-50 27.5-40.5T1358 778t50-10z"/></svg>