<svg xmlns="http://www.w3.org/2000/svg" viewBox="0 0 2048 2048"><path d="M1856 128q39 0 74 15t61.5 41.5T2033 246t15 74v1280q0 39-15 74t-41.5 61.5-61.5 41.5-74 15H192q-39 0-74-15t-61.5-41.5T15 1674t-15-74V320q0-39 15-74t41.5-61.5T118 143t74-15h1664zm64 1472V320q0-26-19-45t-45-19H192q-26 0-45 19t-19 45v1280q0 26 19 45t45 19h1664q26 0 45-19t19-45zm-626-326V646h338v89h-234v188h216v88h-216v263h-104zm-656-254v-87h236v298q-51 27-106 40t-112 13q-71 0-128.5-23t-98.5-64.5-63-99.5-22-129q0-73 25-134t69.5-105T544 660.5 678 636q45 0 89.5 6.5T854 666v108q-38-26-82-37.5T682 725q-52 0-94 18t-72 50-46 75.5-16 94.5q0 48 12.5 90.5t38 74T568 1177t90 18q29 0 57.5-5.5T770 1170v-150H638zm396 260V653h108v627h-108z"/></svg>