<svg xmlns="http://www.w3.org/2000/svg" viewBox="0 0 2048 2048"><path d="M1024 0q141 0 272 36.5t245 103 207.5 160 160 207.5 103 245 36.5 272-36.5 272-103 245-160 207.5-207.5 160-245 103-272 36.5-272-36.5-245-103-207.5-160-160-207.5-103-244.5T0 1024q0-141 36.5-272t103-245 160-207.5 207.5-160 244.5-103T1024 0zm809 640q-38-81-92-152.5T1621 357t-143-105-161-75q36 50 65 106t51.5 115.5T1472 519t28 121h333zm87 384q0-133-37-256h-363q8 64 12 127.5t4 128.5-4 128.5-12 127.5h363q37-123 37-256zm-896 896q49 0 91.5-27t78.5-71 64.5-99.5T1309 1610t37-110 23-92H679q8 39 23 92t37 110 50.5 112.5T854 1822t78.5 71 91.5 27zm367-640q8-64 12.5-127.5t4.5-128.5-4.5-128.5T1391 768H657q-8 64-12.5 127.5T640 1024t4.5 128.5T657 1280h734zM128 1024q0 133 37 256h363q-8-64-12-127.5t-4-128.5 4-128.5T528 768H165q-37 123-37 256zm896-896q-49 0-91.5 27T854 226t-64.5 99.5T739 438t-37 110-23 92h690q-8-39-23-92t-37-110-50.5-112.5T1194 226t-78.5-71-91.5-27zm-293 49q-84 29-161 75T427 357 307 487.5 215 640h333q12-60 28-121t38.5-120.5T666 283t65-106zM215 1408q38 81 92 152.5T427 1691t143 105 161 75q-36-50-65-106t-51.5-115.5T576 1529t-28-121H215zm1102 463q84-29 161-75t143-105 120-130.5 92-152.5h-333q-12 60-28 121t-38.5 120.5T1382 1765t-65 106z"/></svg>