<svg width="1792" height="1792" viewBox="0 0 1792 1792" xmlns="http://www.w3.org/2000/svg"><path transform="scale(1.75 1.75) translate(0 0)" d="M512 0q70.5 0 136 18.25t122.5 51.5 103.75 80 80 103.75 51.5 122.5 18.25 136-18.25 136-51.5 122.5-80 103.75-103.75 80-122.5 51.5-136 18.25-136-18.25-122.5-51.5-103.75-80-80-103.75-51.5-122.25-18.25-136.25q0-70.5 18.25-136t51.5-122.5 80-103.75 103.75-80 122.25-51.5 136.25-18.25zm404.5 320q-19-40.5-46-76.25t-60-65.25-71.5-52.5-80.5-37.5q18 25 32.5 53t25.75 57.75 19.25 60.25 14 60.5h166.5zm43.5 192q0-66.5-18.5-128h-181.5q4 32 6 63.75t2 64.25-2 64.25-6 63.75h181.5q18.5-61.5 18.5-128zm-448 448q24.5 0 45.75-13.5t39.25-35.5 32.25-49.75 25.25-56.25 18.5-55 11.5-46h-345q4 19.5 11.5 46t18.5 55 25.25 56.25 32.25 49.75 39.25 35.5 45.75 13.5zm183.5-320q4-32 6.25-63.75t2.25-64.25-2.25-64.25-6.25-63.75h-367q-4 32-6.25 63.75t-2.25 64.25 2.25 64.25 6.25 63.75h367zm-631.5-128q0 66.5 18.5 128h181.5q-4-32-6-63.75t-2-64.25 2-64.25 6-63.75h-181.5q-18.5 61.5-18.5 128zm448-448q-24.5 0-45.75 13.5t-39.25 35.5-32.25 49.75-25.25 56.25-18.5 55-11.5 46h345q-4-19.5-11.5-46t-18.5-55-25.25-56.25-32.25-49.75-39.25-35.5-45.75-13.5zm-146.5 24.5q-42 14.5-80.5 37.5t-71.5 52.5-60 65.25-46 76.25h166.5q6-30 14-60.5t19.25-60.25 25.75-57.75 32.5-53zm-258 615.5q19 40.5 46 76.25t60 65.25 71.5 52.5 80.5 37.5q-18-25-32.5-53t-25.75-57.75-19.25-60.25-14-60.5h-166.5zm551 231.5q42-14.5 80.5-37.5t71.5-52.5 60-65.25 46-76.25h-166.5q-6 30-14 60.5t-19.25 60.25-25.75 57.75-32.5 53z"/></svg>