<svg width="1792" height="1792" viewBox="0 0 1792 1792" xmlns="http://www.w3.org/2000/svg"><path transform="scale(1.75 1.75) translate(0 0)" d="M512 0q66 0 124.25 25.25t101.75 68.75 68.75 101.75 25.25 124.25v384q0 66-25.25 124.25t-68.75 101.75-101.75 68.75-124.25 25.25-124.25-25.25-101.75-68.75-68.75-101.75-25.25-124.25v-384q0-66 25.25-124.25t68.75-101.75 101.75-68.75 124.25-25.25zm0 512q39.5 0 74.5-15.25t61-41.25 41.25-61 15.25-74.5-15.25-74.5-41.25-61-61-41.25-74.5-15.25-74.5 15.25-61 41.25-41.25 61-15.25 74.5 15.25 74.5 41.25 61 61 41.25 74.5 15.25zm0-325.5q27.5 0 51.75 10.5t42.5 28.75 28.75 42.5 10.5 51.75-10.5 51.75-28.75 42.5-42.5 28.75-51.75 10.5-51.75-10.5-42.5-28.75-28.75-42.5-10.5-51.75 10.5-51.75 28.75-42.5 42.5-28.75 51.75-10.5z"/></svg>