<svg xmlns="http://www.w3.org/2000/svg" viewBox="0 0 2048 2048"><path d="M1024 0q132 0 248.5 50.5T1476 188t137.5 203.5T1664 640v768q0 132-50.5 248.5T1476 1860t-203.5 137.5T1024 2048t-248.5-50.5T572 1860t-137.5-203.5T384 1408V640q0-132 50.5-248.5T572 188 775.5 50.5 1024 0zm0 1024q79 0 149-30.5t122-82.5 82.5-122 30.5-149-30.5-149-82.5-122-122-82.5-149-30.5-149 30.5T753 369t-82.5 122T640 640t30.5 149T753 911t122 82.5 149 30.5zm0-651q55 0 103.5 21t85 57.5 57.5 85 21 103.5-21 103.5-57.5 85-85 57.5-103.5 21-103.5-21-85-57.5-57.5-85T757 640t21-103.5 57.5-85 85-57.5 103.5-21z"/></svg>