<svg width="1792" height="1792" viewBox="0 0 1792 1792" xmlns="http://www.w3.org/2000/svg"><path transform="scale(1.75 1.75) translate(0 0)" d="M960 512v512h-960v-512l96 96 96-96 96 96 96-96 96 96 96-96 96 96 96-96 96 96zm-64 154.5l-32 32q-47.5-48.5-96-96-49 47.5-96 96-47.5-48.5-96-96-49 47.5-96 96-47.5-48.5-96-96-49 47.5-96 96-47.5-48.5-96-96-49 47.5-96 96l-32-32v293.5h832v-293.5zm-448-328v-37l-62.5-63 45-45 17.5 17v-82.5h64v82.5l17.5-17 45 45-62.5 63v37l17.5-17 45 45-62.5 63v18.5h-64v-18.5l-62.5-63 45-45zm256 109.5h-64v-320q0-26.5 10-49.75t27.5-40.75 40.75-27.5 49.75-10 49.75 10 40.75 27.5 27.5 40.75 10 49.75v320h-64v-320q0-13.5-5-25t-13.75-20.25-20.25-13.75-25-5-25 5-20.25 13.75-13.75 20.25-5 25v18.5l25.5-25 45 45-70.5 71v101l25.5-25 45 45-70.5 71v18.5zm-640 0q0-24 8.75-46.5t25.25-40q-16-14-25-33t-9-40.5v-32h32q15 0 29 4.75t26 13 21.25 20.25 14.25 26q27.5 0 51.75 9.5t42.5 26.25 28.75 40.25 10.5 52h-64q0-13.5-5-25t-13.75-20.25-20.25-13.75-25-5-25 5-20.25 13.75-13.75 20.25-5 25h-64z"/></svg>