<svg xmlns="http://www.w3.org/2000/svg" viewBox="0 0 2048 2048"><path d="M1920 1024v1024H0V1024l192 192 192-192 192 192 192-192 192 192 192-192 192 192 192-192 192 192zm-128 309l-64 64q-95-97-192-192-98 95-192 192-95-97-192-192-98 95-192 192-95-97-192-192-98 95-192 192-95-97-192-192-98 95-192 192l-64-64v587h1664v-587zM896 677v-74L771 477l90-90 35 34V256h128v165l35-34 90 90-125 126v74l35-34 90 90-125 126v37H896v-37L771 733l90-90zm512 219h-128V256q0-53 20-99.5t55-81.5 81.5-55T1536 0t99.5 20 81.5 55 55 81.5 20 99.5v640h-128V256q0-27-10-50t-27.5-40.5T1586 138t-50-10-50 10-40.5 27.5T1418 206t-10 50v37l51-50 90 90-141 142v202l51-50 90 90-141 142v37zm-1280 0q0-48 17.5-93t50.5-80q-32-28-50-66t-18-81v-64h64q30 0 58 9.5t52 26 42.5 40.5 28.5 52q55 0 103.5 19t85 52.5T619 792t21 104H512q0-27-10-50t-27.5-40.5T434 778t-50-10-50 10-40.5 27.5T266 846t-10 50H128z"/></svg>