<svg xmlns="http://www.w3.org/2000/svg" viewBox="0 0 2048 2048"><path d="M960 1152h128v128H960v-128zm64-768q53 0 99.5 20t81.5 55 55 81.5 20 99.5q0 47-14 81.5t-35.5 62.5-46.5 50.5-46.5 44.5-35.5 45-14 52v48H960v-48q0-46 14-81t35.5-63 46.5-50.5 46.5-44.5 35.5-45 14-52q0-27-10-50t-27.5-40.5T1074 522t-50-10-50 10-40.5 27.5T906 590t-10 50H768q0-53 20-99.5t55-81.5 81.5-55 99.5-20zm384 855q119 56 214 140t161 189 101.5 227 35.5 253h-128q0-124-35.5-238.5T1655 1600t-161-167-214-112v-240q59-34 106.5-81.5T1467 895t51-121.5 18-133.5q0-106-40.5-199t-110-162.5-162.5-110-199-40.5-199 40.5-162.5 110-110 162.5T512 640q0 69 18 133.5T581 895t80.5 104.5T768 1081v242q-119 41-214 112t-161 165.5T291.5 1809 256 2048H128q0-131 35.5-253T265 1568t161-189 214-140v-92q-60-45-107.5-101.5T452 924t-50.5-137T384 640q0-88 23-170t64.5-153 100-129.5T701 87.5 854 23t170-23 170 23 153 64.5 129.5 100 100 129.5 64.5 153 23 170q0 75-17.5 147T1596 924t-80.5 121.5T1408 1147v92z"/></svg>