<svg width="1792" height="1792" viewBox="0 0 1792 1792" xmlns="http://www.w3.org/2000/svg"><path transform="scale(1.75 1.75) translate(0 0)" d="M480 576h64v64h-64v-64zm32-384q26.5 0 49.75 10t40.75 27.5 27.5 40.75 10 49.75q0 23.5-7 40.75t-17.75 31.25-23.25 25.25-23.25 22.25-17.75 22.5-7 26v24h-64v-24q0-23 7-40.5t17.75-31.5 23.25-25.25 23.25-22.25 17.75-22.5 7-26q0-13.5-5-25t-13.75-20.25-20.25-13.75-25-5-25 5-20.25 13.75-13.75 20.25-5 25h-64q0-26.5 10-49.75t27.5-40.75 40.75-27.5 49.75-10zm192 427.5q59.5 28 107 70t80.5 94.5 50.75 113.5 17.75 126.5h-64q0-62-17.75-119.25t-50.75-104.75-80.5-83.5-107-56v-120q29.5-17 53.25-40.75t40.25-52.25 25.5-60.75 9-66.75q0-53-20.25-99.5t-55-81.25-81.25-55-99.5-20.25-99.5 20.25-81.25 55-55 81.25-20.25 99.5q0 34.5 9 66.75t25.5 60.75 40.25 52.25 53.25 40.75v121q-59.5 20.5-107 56t-80.5 82.75-50.75 104.25-17.75 119.5h-64q0-65.5 17.75-126.5t50.75-113.5 80.5-94.5 107-70v-46q-30-22.5-53.75-50.75t-40.25-60.75-25.25-68.5-8.75-73.5q0-44 11.5-85t32.25-76.5 50-64.75 64.75-50 76.5-32.25 85-11.5 85 11.5 76.5 32.25 64.75 50 50 64.75 32.25 76.5 11.5 85q0 37.5-8.75 73.5t-25.25 68.5-40.25 60.75-53.75 50.75v46z"/></svg>