<svg width="1792" height="1792" viewBox="0 0 1792 1792" xmlns="http://www.w3.org/2000/svg"><path transform="scale(1.75 1.75) translate(0 0)" d="M1015 290.5q6.5 0 7.75 6.75t1.25 10.75q0 29-1.75 57.5t-2.75 57.5l-1.25 50-2 66-3.25 76.5-4.75 81.5-6.75 80.75-9.5 74.25-12.75 62-16.25 44q-10.5 19-24.25 31.25t-30.25 19.75-35.5 10.5-39 3q-8.5 0-10.75-4.75t-4.25-11.25q-5.5-17.5-13.25-33.5t-18.25-31q11.5.5 24.25.75t25.5-.75 25-4 22.75-9q10-5.5 16.75-20.25t11.25-32.25 6.75-34.5 3.75-27q7-56 11.5-112.5t7.25-113 4.25-113 2.5-113h-132q-7 98.5-20.25 195t-39.75 192q-9 32.5-21.25 68.75t-27.75 71.75-34.5 68.25-41.5 58.25q-2.5 2.5-5.25 4.5t-6.75 2q-5 0-9-5-11.5-13.5-23-22.25t-29-15.25q52.5-62.5 85.75-137.5t53.5-155.5 30-163.25 14.75-161.75h-62q-21 0-42.25.75t-42.25 3.25q-1 0-1.25.25t-1.25.25q-4 0-6-11t-3.25-24.75-1.5-26.75-.25-17.5q24.5 2.5 49 3.75t49.5 1.25h65q3-51.5 5.25-102.5t2.25-102.5q0-22.5-1-44t-2.5-44q4.5 1 16.75 3t25.75 4.75 25 5.75 15 5q10.5 6.5 10.5 16.5 0 5.5-1.75 9.5t-4.25 8.5q-3.5 6.5-5.5 20.75t-3.25 30.25-2 30.75-.75 22.25q-2 67-6 136h92q26 0 51.5-1.25t51.5-1.25zm-631 541.5h64v192h-448v-192h64v128h320v-128z"/></svg>