<svg xmlns="http://www.w3.org/2000/svg" viewBox="0 0 2048 2048"><path d="M2030 581q13 0 15.5 13.5t2.5 21.5q0 58-3.5 115t-5.5 115l-2.5 100-4 132-6.5 153-9.5 163-13.5 161.5-19 148.5-25.5 124-32.5 88q-21 38-48.5 62.5T1817 2018t-71 21-78 6q-17 0-21.5-9.5t-8.5-22.5q-11-35-26.5-67t-36.5-62q23 1 48.5 1.5t51-1.5 50-8 45.5-18q20-11 33.5-40.5t22.5-64.5 13.5-69 7.5-54q14-112 23-225t14.5-226 8.5-226 5-226h-264q-14 197-40.5 390t-79.5 384q-18 65-42.5 137.5T1416 1782t-69 136.5-83 116.5q-5 5-10.5 9t-13.5 4q-10 0-18-10-23-27-46-44.5t-58-30.5q105-125 171.5-275t107-311 60-326.5T1486 727h-124q-42 0-84.5 1.5T1193 735q-2 0-2.5.5t-2.5.5q-8 0-12-22t-6.5-49.5-3-53.5-.5-35q49 5 98 7.5t99 2.5h130q6-103 10.5-205t4.5-205q0-45-2-88t-5-88q9 2 33.5 6t51.5 9.5 50 11.5 30 10q21 13 21 33 0 11-3.5 19t-8.5 17q-7 13-11 41.5t-6.5 60.5-4 61.5-1.5 44.5q-4 134-12 272h184q52 0 103-2.5t103-2.5zM768 1664h128v384H0v-384h128v256h640v-256z"/></svg>