<svg width="1792" height="1792" viewBox="0 0 1792 1792" xmlns="http://www.w3.org/2000/svg"><path transform="scale(1.75 1.75) translate(0 0)" d="M781 192q13 0 31.25-1.5t38-1.75 39.5 1.75 35.25 9.25 25.25 20.75 9.75 35.5v448q0 13.5-5 25t-13.75 20.25-20.25 13.75-25 5h-832q-13.5 0-25-5t-20.25-13.75-13.75-20.25-5-25v-448q0-13.5 5-25t13.75-20.25 20.25-13.75 25-5h435l162.5-162.5q14-14 32.25-21.75t38.25-7.75q20.5 0 38.5 8t31.5 21.5 21.5 31.75 8 38.75q0 16.5-3.75 28.75t-10.5 22.75-16 20.25-20.25 20.25zm-49-128q-14.5 0-25 10.5l-410 410-17 67.5 67.5-17 340.5-340q-1-1 .25-2.5t2.25-.5q6-6 19-17t26-23.75 22.75-26.25 9.75-25q0-15-10.75-25.5t-25.25-10.5zm164 192h-179l-336.5 337-188.5 47 47-188.5 196-195.5h-371v448h832v-448z"/></svg>