<svg xmlns="http://www.w3.org/2000/svg" viewBox="0 0 2048 2048"><path d="M960 256q62 0 136.5 7t153.5 22.5 159.5 40 155 58.5 139 78 113 99.5 76 123T1920 832v128q0 40-15 75t-41 61-61 41-75 15h-256q-56 0-91-16.5t-55-43.5-28.5-61.5-12-70.5-5-70.5-7-61.5-18.5-43.5-39-16.5H704q-26 0-39 16.5T646.5 828t-7 61.5-5 70.5-12 70.5T594 1092t-55 43.5-91 16.5H192q-40 0-75-15t-61-41-41-61-15-75V832q0-80 27.5-147.5t76-123 113-99.5 139-78 155-58.5 159.5-40T823.5 263t136.5-7zm832 576q0-84-44-149.5T1632.5 567 1471 482.5 1288.5 426t-179-32T960 384t-149.5 10-179 32T449 482.5 287.5 567 172 682.5 128 832v128q0 26 19 45t45 19h256q21 0 34.5-9.5T503 989t9.5-35.5T515 913q0-23-1.5-44.5T512 832q0-40 15-75t41-61 61-41 75-15h512q40 0 75 15t61 41 41 61 15 75q0 15-1.5 36.5T1405 913q0 21 2.5 40.5t9.5 35.5 20.5 25.5 34.5 9.5h256q26 0 45-19t19-45V832zm-557 659l90 90-365 365-365-365 90-90 211 210v-677h128v677z"/></svg>