<svg width="1792" height="1792" viewBox="0 0 1792 1792" xmlns="http://www.w3.org/2000/svg"><path transform="scale(1.75 1.75) translate(0 0)" d="M480 128q31 0 68.25 3.5t76.75 11.25 79.75 20 77.5 29.25 69.5 39 56.5 49.75 38 61.5 13.75 73.75v64q0 20-7.5 37.5t-20.5 30.5-30.5 20.5-37.5 7.5h-128q-28 0-45.5-8.25t-27.5-21.75-14.25-30.75-6-35.25-2.5-35.25-3.5-30.75-9.25-21.75-19.5-8.25h-256q-13 0-19.5 8.25t-9.25 21.75-3.5 30.75-2.5 35.25-6 35.25-14.25 30.75-27.5 21.75-45.5 8.25h-128q-20 0-37.5-7.5t-30.5-20.5-20.5-30.5-7.5-37.5v-64q0-40 13.75-73.75t38-61.5 56.5-49.75 69.5-39 77.5-29.25 79.75-20 76.75-11.25 68.25-3.5zm416 288q0-42-22-74.75t-57.75-57.75-80.75-42.25-91.25-28.25-89.5-16-74.75-5-74.75 5-89.5 16-91.25 28.25-80.75 42.25-57.75 57.75-22 74.75v64q0 13 9.5 22.5t22.5 9.5h128q16.5 0 23.75-11.25t9-26.5.5-31.5-1.25-26.75q0-20 7.5-37.5t20.5-30.5 30.5-20.5 37.5-7.5h256q20 0 37.5 7.5t30.5 20.5 20.5 30.5 7.5 37.5q0 10.5-1.25 26.75t.5 31.5 9 26.5 23.75 11.25h128q13 0 22.5-9.5t9.5-22.5v-64zm-278.5 329.5l45 45-182.5 182.5-182.5-182.5 45-45 105.5 105v-338.5h64v338.5z"/></svg>