<svg xmlns="http://www.w3.org/2000/svg" viewBox="0 0 2048 2048"><path d="M1407 832q0 101 6.5 203.5T1431 1240t25 204 29 202q7 45 14 90.5t15 91.5q2 18 6 36.5t6 36.5q1 5 1 9v9q0 26-10 49.5t-27 41-40 27.5-50 10H521q-27 0-50.5-10t-40.5-27.5-27-40.5-10-50v-9l1-9q2-18 6-36.5t6-36.5q8-46 15-91t14-91q14-99 28-200.5t25-203.5 18-204 7-202V83q108-38 220-60T960 1t227 22 220 60v749zm-768 4q0 177-18.5 352T578 1537h764q-24-175-42.5-351.5T1281 832V383H639v453zm321-709q-81 0-162 13t-159 35v82h642v-82q-78-22-159-35t-162-13zm440 1794q0-1-2.5-19t-6.5-45.5-9.5-59-10-60-7.5-49-4-25.5H560q-6 44-12.5 86.5T534 1836q-3 20-8.5 42t-5.5 42v1h880zM896 640H768V512h128v128zm256 0h-128V512h128v128zM896 896H768V768h128v128zm256 0h-128V768h128v128zm-256 256H768v-128h128v128zm256 0h-128v-128h128v128zm-256 256H768v-128h128v128zm256 0h-128v-128h128v128z"/></svg>