<svg width="1792" height="1792" viewBox="0 0 1792 1792" xmlns="http://www.w3.org/2000/svg"><path transform="scale(1.75 1.75) translate(0 0)" d="M565 331q36.5 36.5 55.75 83t19.25 98-19.25 98-55.75 83l-45-45q27-27 41.5-62.25t14.5-73.75-14.5-73.75-41.5-62.25zm-341-75q46.5 0 87.25 17.5t71.25 48 48 71.25 17.5 87.25v140.5q0 19-8.5 34.5t-22 26.5-30.75 16.75-34.75 5.75h-32v-192h32l32 5v-37q0-33-12.75-62t-34.5-50.75-50.75-34.5-62-12.75-62.25 12.75-51 34.5-34.25 50.75-12.5 62v37q8-2.5 15.75-3.75t16.25-1.25h32v192h-32q-17.5 0-34.75-5.75t-30.75-16.75-22-26.5-8.5-34.5v-140.5q0-46.5 17.5-87.25t48-71.25 71.25-48 87.25-17.5z"/></svg>