<svg width="1792" height="1792" viewBox="0 0 1792 1792" xmlns="http://www.w3.org/2000/svg"><path transform="scale(1.75 1.75) translate(0 0)" d="M512 0q53 0 102 13.75t91.75 38.75 77.75 60 60 77.75 38.75 91.75 13.75 102v224q0 20-7.5 37.5t-20.5 30.5-30.5 20.5-37.5 7.5h-96v-320h96q8.5 0 16.5 1.75t15.5 4.25q0-67.5-24.5-126.75t-67.25-103.5-101.5-70-126.75-25.75q-44 0-85 11.5t-76.5 32.25-64.75 50-50 64.75-32.25 76.5-11.5 85v6q7.5-2.5 15.5-4.25t16.5-1.75h96v320h-64v64q0 26.5 10 49.75t27.5 40.75 40.75 27.5 49.75 10q0-13.5 5-25t13.75-20.25 20.25-13.75 25-5h128q13.5 0 25 5t20.25 13.75 13.75 20.25 5 25v64q0 13.5-5 25t-13.75 20.25-20.25 13.75-25 5h-128q-13.5 0-25-5t-20.25-13.75-13.75-20.25-5-25q-40 0-74.75-15t-61-41.25-41.25-61-15-74.75v-70q-14.5-5-26.25-14t-20-20.75-13-26-4.75-29.25v-224q0-53 13.75-102t38.75-91.75 60-77.75 77.75-60 91.75-38.75 102-13.75zm-64 960h128v-64h-128v64zm-224-512q-13 0-22.5 9.5t-9.5 22.5v128q0 13 9.5 22.5t22.5 9.5h32v-192h-32zm608 32q0-13-9.5-22.5t-22.5-9.5h-32v192h32q13 0 22.5-9.5t9.5-22.5v-128z"/></svg>