<svg width="1792" height="1792" viewBox="0 0 1792 1792" xmlns="http://www.w3.org/2000/svg"><path transform="scale(1.75 1.75) translate(0 0)" d="M512 64q53 0 102 13.75t91.75 38.75 77.75 60 60 77.75 38.75 91.75 13.75 102v352q0 20-7.5 37.5t-20.5 30.5-30.5 20.5-37.5 7.5h-96v-384h96q16.5 0 32 5.5v-69.5q0-66-25.25-124.25t-68.75-101.75-101.75-68.75-124.25-25.25-124.25 25.25-101.75 68.75-68.75 101.75-25.25 124.25v69.5q15.5-5.5 32-5.5h96v384h-96q-20 0-37.5-7.5t-30.5-20.5-20.5-30.5-7.5-37.5v-352q0-53 13.75-102t38.75-91.75 60-77.75 77.75-60 91.75-38.75 102-13.75zm-288 512q-13 0-22.5 9.5t-9.5 22.5v192q0 13 9.5 22.5t22.5 9.5h32v-256h-32zm576 256q13 0 22.5-9.5t9.5-22.5v-192q0-13-9.5-22.5t-22.5-9.5h-32v256h32z"/></svg>