<svg xmlns="http://www.w3.org/2000/svg" viewBox="0 0 2048 2048"><path d="M1024 0q106 0 204 27.5t183.5 77.5T1567 225t120 155.5 77.5 183.5 27.5 204v448q0 40-15 75t-41 61-61 41-75 15h-192V768h192q17 0 33 3.5t31 8.5q0-135-49-253.5t-134.5-207-203-140T1024 128q-88 0-170 23t-153 64.5-129.5 100-100 129.5T407 598t-23 170v12q15-5 31-8.5t33-3.5h192v640H512v128q0 53 20 99.5t55 81.5 81.5 55 99.5 20q0-27 10-50t27.5-40.5T846 1674t50-10h256q27 0 50 10t40.5 27.5 27.5 40.5 10 50v128q0 27-10 50t-27.5 40.5-40.5 27.5-50 10H896q-27 0-50-10t-40.5-27.5T778 1970t-10-50q-80 0-149.5-30t-122-82.5-82.5-122-30-149.5v-140q-29-10-52.5-28t-40-41.5-26-52-9.5-58.5V768q0-106 27.5-204T361 380.5 481 225t155.5-120T820 27.5 1024 0zM896 1920h256v-128H896v128zM448 896q-26 0-45 19t-19 45v256q0 26 19 45t45 19h64V896h-64zm1216 64q0-26-19-45t-45-19h-64v384h64q26 0 45-19t19-45V960z"/></svg>