<svg width="1792" height="1792" viewBox="0 0 1792 1792" xmlns="http://www.w3.org/2000/svg"><path transform="scale(1.75 1.75) translate(0 0)" d="M173.5 512h-19.5l358 358 294-294h90.5l-384.5 384.5-432.5-432q-17.5-17.5-31-37.75t-23.5-42.75h121.5l141.5-141 224 223.5 160-159.5 77.5 77h177.5q16-25.5 24.5-54t8.5-58.5q0-43.5-16.25-81t-44.5-65.25-66-43.5-81.25-15.75q-42 0-74.5 13.25t-60 34.75-52.75 48.75-52.75 55.25q-27-27-52.5-54.5t-53.25-49.5-60.5-36-73.75-14q-43 0-80.75 16.25t-66 44.5-44.5 66-16.25 80.75q0 23.5 5.5 48.5h-65.5q-2.5-12-3.25-24t-.75-24q0-56.5 21.25-106t58-86.5 86.25-58.25 106-21.25q41.5 0 74 9.5t60.25 26.25 53 40.25 52.75 51.5q27.5-28 52.75-51.5t53-40.25 60.25-26.25 74-9.5q56 0 105.5 21.25t86.25 57.75 58 86 21.25 105.5q0 48.5-17 94.25t-48.5 83.25h-235l-50.5-51-160 160.5-224-224.5z"/></svg>