<svg xmlns="http://www.w3.org/2000/svg" viewBox="0 0 2048 2048"><path d="M1504 127q113 0 212 42.5T1889 286t116.5 173 42.5 212q0 109-41.5 208.5T1889 1055l-865 865-865-865Q83 979 41.5 879.5T0 671q0-113 42.5-212T159 286t173-116.5T544 127q111 0 208.5 40.5T929 286q24 23 47.5 47t47.5 48q24-24 47.5-48t47.5-47q79-78 176.5-118.5T1504 127zm294 838q59-59 90-135t31-159q0-87-32.5-162.5t-88.5-132-131.5-89T1504 255q-84 0-159 31t-135 90q-66 65-128.5 131T955 639l384 384-302 301-90-90 211-211-384-384 163-164q-26-23-50-49t-49-50q-60-59-134.5-90T544 255q-87 0-162.5 32.5t-132 89-89 132T128 671q0 82 32 159t90 135l774 774z"/></svg>