<svg width="1792" height="1792" viewBox="0 0 1792 1792" xmlns="http://www.w3.org/2000/svg"><path transform="scale(1.75 1.75) translate(0 0)" d="M752.5 64q37.5 0 72.25 9.75t64.75 27.25 55 42.5 42.5 55 27.25 64.75 9.75 72.25q0 54-20.75 104t-58.75 88l-432.5 432.5-432.5-432.5q-38-38-58.75-88t-20.75-104q0-37.5 9.75-72.25t27.25-64.75 42.5-55 55-42.5 64.75-27.25 72.25-9.75q54.5 0 105.75 21.5t89.25 61l-141 141.5 224 224-147 146.5 45.5 45.5 192-192-224-224q24.5-24.5 48.5-50.75t48.5-51 51-47 55.5-39 62-26.5 71-9.75z"/></svg>