<svg width="1792" height="1792" viewBox="0 0 1792 1792" xmlns="http://www.w3.org/2000/svg"><path transform="scale(1.75 1.75) translate(0 0)" d="M752 64q56.5 0 106 21.5t86.5 58.25 58.25 86.5 21.25 105.75q0 54.5-20.75 104.5t-58.75 88l-432.5 432-432.5-432q-38-38-58.75-88t-20.75-104.5q0-56 21.25-105.75t58.25-86.5 86.5-58.25 106-21.5q41.5 0 74 9.5t60.25 26.25 53 40.25 52.75 51.5q27.5-28 52.75-51.5t53-40.25 60.25-26.25 74-9.5zm147 419q29.5-29.5 45-67.5t15.5-79.5q0-43.5-16-81.25t-44.25-65.5-66-43.5-81.25-15.75q-42 0-74.5 13.25t-60 34.75-52.75 48.75-52.75 55.25q-27-27-52.5-54.5t-53.25-49.5-60.5-36-73.75-14q-43 0-81 16.25t-66.25 44.5-44.5 66.25-16.25 81q0 41.5 15.75 79.5t45.25 67.5l387 387z"/></svg>