<svg width="1792" height="1792" viewBox="0 0 1792 1792" xmlns="http://www.w3.org/2000/svg"><path transform="scale(1.75 1.75) translate(0 0)" d="M752 63.5q56.5 0 106 21.25t86.5 58.25 58.25 86.5 21.25 106q0 54.5-20.75 104.25t-58.75 87.75l-432.5 432.5-432.5-432.5q-38-38-58.75-87.75t-20.75-104.25q0-56.5 21.25-106t58.25-86.5 86.5-58.25 106-21.25q55.5 0 104.25 20.25t88.25 59.25q12 11.5 23.75 23.5t23.75 24q12-12 23.75-24t23.75-23.5q39.5-39 88.25-59.25t104.25-20.25zm147 419q29.5-29.5 45-67.5t15.5-79.5q0-43.5-16.25-81.25t-44.25-66-65.75-44.5-81.25-16.25q-42 0-79.5 15.5t-67.5 45q-33 32.5-64.25 65.5t-63.25 66l192 192-151 150.5-45-45 105.5-105.5-192-192 81.5-82q-13-11.5-25-24.5t-24.5-25q-30-29.5-67.25-45t-79.75-15.5q-43.5 0-81.25 16.25t-66 44.5-44.5 66-16.25 81.25q0 41 16 79.5t45 67.5l387 387z"/></svg>