<svg width="1792" height="1792" viewBox="0 0 1792 1792" xmlns="http://www.w3.org/2000/svg"><path transform="scale(1.75 1.75) translate(0 0)" d="M512.025 960h-63.996v64h63.996v-64zm-31.996-960q-39.498 0-76.245 10.25t-68.746 29-58.496 45.25-45.247 58.5-28.998 68.75-10.25 76.25q0 42 11 76t28.998 62.25 40.998 52.25 46.997 46.5 46.997 44.75 40.998 47.25 28.998 54 11 65v96h63.996v-96q0-42-11-76t-28.998-62.25-40.998-52-46.997-46.25-46.997-45-40.998-47.5-28.998-54-11-65q0-46.5 17.749-87.25t47.997-71 70.995-48 87.245-17.75 87.244 17.75 70.995 48 47.997 71 17.749 87.25h63.996q0-39.5-10.25-76.25t-28.998-68.75-45.247-58.5-58.496-45.25-68.746-29-76.245-10.25z"/></svg>