<svg xmlns="http://www.w3.org/2000/svg" viewBox="0 0 2048 2048"><path d="M1024.05 1920H896.058v128h127.992v-128zM960.059 0q-78.995 0-152.49 20.5-73.496 20.5-137.492 58T553.084 169q-52.996 53-90.494 117t-57.996 137.5q-20.5 73.5-20.5 152.5 0 84 22 152 21.998 68 57.996 124.5T546.085 957t93.994 93 93.994 89.5 81.995 94.5 57.996 108q22 58 22 130v192h127.991v-192q0-84-21.999-152-21.998-68-57.996-124.5t-81.995-104-93.994-92.5-93.994-90-81.995-95-57.996-108q-22-58-22-130 0-93 35.499-174.5t95.994-142 141.99-96T960.06 128t174.489 35.5 141.99 96 95.995 142 35.498 174.5h127.992q0-79-20.499-152.5-20.498-73.5-57.996-137.5t-90.494-117q-52.997-53-116.993-90.5t-137.492-58Q1039.054 0 960.059 0z"/></svg>