<svg width="1792" height="1792" viewBox="0 0 1792 1792" xmlns="http://www.w3.org/2000/svg"><path transform="scale(1.75 1.75) translate(0 0)" d="M512 256v274.5l182.5 183-45 45-201.5-201v-301.5h64zm472 56.5q40 96 40 199.5t-40 199.5q-39 91.5-110 162.5t-162.5 110q-96 40-199.5 40-87 0-168-28.5-79-27.5-144.5-78-65-50.5-111.5-119-23.5-34.5-40.75-72t-28.25-78l61.5-17q20 72.5 61.75 133t98.75 104 126.5 67.5 144.5 24q61.5 0 118.75-16t107-45.25 90.75-70.25 70.25-90.75 45.25-106.75 16-119q0-61.5-16-118.75t-45.25-107-70.25-90.75-90.75-70.25-107-45.25-118.75-16q-65 0-126 18.25t-113.75 51.75-95 80.75-69.75 105.25h148.5v64h-256v-256h64v137q8.5-16 18.5-31.25t21-29.75q47-62.5 110-108 66-47 141.5-71.5t157-24.5q103.5 0 199.5 40 91.5 39 162.5 110t110 162.5z"/></svg>