<svg xmlns="http://www.w3.org/2000/svg" viewBox="0 0 2048 2048"><path d="M1994 549q26 26 40 61t14 72v257q0 124-47 232.5T1873 1361t-189.5 128-232.5 47h-81q-37 0-68.5-14t-60-34.5-55-44.5-52.5-44.5-53-34.5-57-14-57 14-53 34.5-52.5 44.5-55 44.5-60 34.5-68.5 14h-81q-124 0-232.5-47T175 1361 47 1171.5 0 939V682q0-37 14.5-72T55 549q36-36 80-55 54-24 124.5-41.5t150-29.5T573 403t164.5-12 154-5.5T1024 384q58 0 132 1.5t154.5 5.5 164.5 12 163.5 20 150 29.5T1913 494q43 19 81 55zm-74 133q0-24-17-43-31-28-97-48.5t-151-35-179.5-23-182-13-159-6T1024 512q-29 0-77.5 1T838 516t-128.5 6T572 532.5t-136 16-124 23-100.5 30T145 640q-17 17-17 42v257q0 98 36.5 183T265 1271t149 100.5 183 36.5h81q19 0 40.5-14t45.5-34.5 51.5-44.5 59.5-44.5 69-34.5 80-14 80 14 69 34.5 59.5 44.5 51.5 44.5 45.5 34.5 40.5 14h81q97 0 182.5-36.5T1783 1271t100.5-149 36.5-183V682zm-832-42q26 0 45 19t19 45-19 45-45 19H960q-26 0-45-19t-19-45 19-45 45-19h128z"/></svg>