<svg xmlns="http://www.w3.org/2000/svg" viewBox="0 0 2048 2048"><path d="M1792 2047.875V-.005H128v2047.88h1664zm-128-127.992H256V127.993h1408v1791.89zM512 1535.906q-27 0-50 9.999-23 10-40.5 27.499t-27.5 40.497q-10 23-10 49.997t10 49.997q10 22.998 27.5 40.497t40.5 27.5q23 9.998 50 9.998t50-9.999q23-10 40.5-27.499t27.5-40.497q10-22.999 10-49.997t-10-49.997q-10-22.998-27.5-40.497t-40.5-27.499q-23-9.999-50-9.999zm896 0q-27 0-50 9.999-23 10-40.5 27.499t-27.5 40.497q-10 23-10 49.997t10 49.997q10 22.998 27.5 40.497t40.5 27.5q23 9.998 50 9.998t50-9.999q23-10 40.5-27.499t27.5-40.497q10-22.999 10-49.997t-10-49.997q-10-22.998-27.5-40.497t-40.5-27.499q-23-9.999-50-9.999z"/></svg>