<svg xmlns="http://www.w3.org/2000/svg" viewBox="0 0 2048 2048"><path d="M1792 0v2048H128V0h1664zm-128 128H256v1792h1408V128zM512 1152q-27 0-50-10t-40.5-27.5T394 1074t-10-50 10-50 27.5-40.5T462 906t50-10 50 10 40.5 27.5T630 974t10 50-10 50-27.5 40.5T562 1142t-50 10zm0-640q-27 0-50-10t-40.5-27.5T394 434t-10-50 10-50 27.5-40.5T462 266t50-10 50 10 40.5 27.5T630 334t10 50-10 50-27.5 40.5T562 502t-50 10zm0 1280q-27 0-50-10t-40.5-27.5T394 1714t-10-50 10-50 27.5-40.5T462 1546t50-10 50 10 40.5 27.5T630 1614t10 50-10 50-27.5 40.5T562 1782t-50 10z"/></svg>