<svg xmlns="http://www.w3.org/2000/svg" viewBox="0 0 2048 2048"><path d="M1994 549q26 26 40 61t14 72v257q0 50-9.5 98t-25.5 95q-26-26-51.5-52t-50.5-53q9-43 9-88V712q-128 92-268 162t-288.5 117.5-303.5 72-312 24.5q-158 0-312.5-24.5T131 991q10 89 50.5 165t103 132 143 88 169.5 32h81q19 0 40.5-14t45.5-34.5 51.5-44.5 59.5-44.5 69-34.5 80-14q40 0 70 9t56 24.5 50.5 35.5 54.5 42l-91 91q-17-12-32.5-25.5t-32-24-35-17.5-40.5-7q-30 0-57 14t-53 34.5-52.5 44.5-55 44.5-60 34.5-68.5 14h-81q-124 0-232.5-47T175 1361 47 1171.5 0 939V682q0-37 14.5-72T55 549q36-36 80-55 54-24 124.5-41.5t150-29.5T573 403t164.5-12 154-5.5T1024 384q58 0 132 1.5t154.5 5.5 164.5 12 163.5 20 150 29.5T1913 494q43 19 81 55zM128 855q150 52 305.5 78.5T748 960q297 0 578-90t522-264q-83-31-189.5-49.5T1440 528t-220.5-13-195.5-3q-54 0-123 1.5t-145.5 5T599 529t-155.5 18T301 574.5 183 613q-22 10-38.5 26.5T128 682v173zm960-215q26 0 45 19t19 45-19 45-45 19H960q-26 0-45-19t-19-45 19-45 45-19h128zm851 643l90 91-557 557-269-269 90-91 179 179z"/></svg>