<svg width="1792" height="1792" viewBox="0 0 1792 1792" xmlns="http://www.w3.org/2000/svg"><path transform="scale(1.75 1.75) translate(0 0)" d="M160 320q33 0 62 12.75t50.75 34.5 34.5 50.75 12.75 62-12.75 62.25-34.5 51-50.75 34.25-62 12.5-62.25-12.5-51-34.25-34.25-51-12.5-62.25 12.5-62 34.25-50.75 51-34.5 62.25-12.75zm0 256q20 0 37.5-7.5t30.5-20.5 20.5-30.5 7.5-37.5-7.5-37.5-20.5-30.5-30.5-20.5-37.5-7.5-37.5 7.5-30.5 20.5-20.5 30.5-7.5 37.5 7.5 37.5 20.5 30.5 30.5 20.5 37.5 7.5zm766 39q23 15 41.25 35.5t30.75 44.5 19.25 50.75 6.75 54.25q0 46.5-17.5 87.25t-48 71.25-71.25 48-87.25 17.5-87.25-17.5-71.25-48-48-71.25-17.5-87.25q0-25 5-47-44-14.5-80.25-41.5t-62.25-63-40.25-79-14.25-89.5q0-59.5 22.75-112t61.75-91.5 91.5-61.75 112-22.75q9 0 18 .5t18 1.5q-4-17.5-4-34 0-33 12.5-62t34.25-50.75 51-34.5 62.25-12.75 62 12.75 50.75 34.5 34.5 50.75 12.75 62q0 26.5-8.5 51.25t-24 45-37 35.25-47 22.5q26 36.5 39.25 78.75t13.25 87.25q0 35.5-8.5 69.5t-25.5 65.5zm-158-455q0 31 18.5 55.5 17.5 7.5 34 17.5t31.5 22q3 .5 6 .75t6 .25q20 0 37.5-7.5t30.5-20.5 20.5-30.5 7.5-37.5-7.5-37.5-20.5-30.5-30.5-20.5-37.5-7.5-37.5 7.5-30.5 20.5-20.5 30.5-7.5 37.5zm-320 320q0 36 11.25 69.75t31.75 62 49 49.25 63 32q31-54.5 82.5-85.75t114.5-31.25q35.5 0 68.5 10.5 13.5-24.5 20.5-51.5t7-55q0-47.5-19.25-90.5t-53.75-75l-2-.5q-17.5-14.5-34.75-25t-38.25-19.5l-.5-.5q-36.5-13-75.5-13-46.5 0-87.25 17.75t-71 48-48 71-17.75 87.25zm352 480q33 0 62-12.5t50.75-34.25 34.5-51 12.75-62.25q0-35-13-64.25t-35.5-50.5-52.5-33.25-64-12q-32 0-60.25 13.25t-49.25 35.5-33.25 51-12.25 60.25q0 33 12.5 62.25t34.25 51 51 34.25 62.25 12.5z"/></svg>