<svg xmlns="http://www.w3.org/2000/svg" viewBox="0 0 2048 2048"><path d="M320 640q66 0 124 25.5t101.5 69 69 101.5T640 960t-25.5 124.5-69 102T444 1255t-124 25-124.5-25-102-68.5-68.5-102T0 960t25-124 68.5-101.5 102-69T320 640zm0 512q40 0 75-15t61-41 41-61 15-75-15-75-41-61-61-41-75-15-75 15-61 41-41 61-15 75 15 75 41 61 61 41 75 15zm1532 78q46 30 82.5 71t61.5 89 38.5 101.5T2048 1600q0 93-35 174.5t-96 142.5-142.5 96-174.5 35-174.5-35-142.5-96-96-142.5-35-174.5q0-50 10-94-88-29-160.5-83T877 1297t-80.5-158T768 960q0-119 45.5-224T937 553t183-123.5 224-45.5q18 0 36 1t36 3q-8-35-8-68 0-66 25-124t68.5-101.5 102-69T1728 0t124 25.5 101.5 69 69 101.5 25.5 124q0 53-17 102.5t-48 90-74 70.5-94 45q52 73 78.5 157.5T1920 960q0 71-17 139t-51 131zm-316-910q0 62 37 111 35 15 68 35t63 44q6 1 12 1.5t12 .5q40 0 75-15t61-41 41-61 15-75-15-75-41-61-61-41-75-15-75 15-61 41-41 61-15 75zM896 960q0 72 22.5 139.5t63.5 124 98 98.5 126 64q62-109 165-171.5t229-62.5q71 0 137 21 27-49 41-103t14-110q0-95-38.5-181T1646 629l-4-1q-35-29-69.5-50t-76.5-39l-1-1q-73-26-151-26-93 0-174.5 35.5t-142 96-96 142T896 960zm704 960q66 0 124-25t101.5-68.5 69-102T1920 1600q0-70-26-128.5t-71-101-105-66.5-128-24q-64 0-120.5 26.5t-98.5 71-66.5 102T1280 1600q0 66 25 124.5t68.5 102 102 68.5 124.5 25z"/></svg>