<svg xmlns="http://www.w3.org/2000/svg" viewBox="0 0 2048 2048"><path d="M1130 256q23 0 38 12t23 33q17 45 31 92t30 93q28 81 58.5 160.5T1373 805q65 159 138 312t155 304q35 65 72 127.5t74 125.5q10 17 10 34 0 26-19 45t-45 19q-18 0-31.5-8.5T1703 1741q-2-2-9-14t-15-25.5-15-25.5-8-14q-35-60-69-120.5t-66-121.5q-251-470-418-976-188 211-340.5 445T493 1380q-51 111-93 225-13 34-24 69.5t-25 68.5q-8 20-23 32t-38 12q-26 0-44.5-18.5T227 1723q0-11 3-20 64-200 152-390.5T578 942q175-291 397-546 26-30 53-61t56-59q11-10 21-15t25-5z"/></svg>