<svg xmlns="http://www.w3.org/2000/svg" viewBox="0 0 2048 2048"><path d="M2048 684q0 19-11 36-17 29-46 75t-62 101-67.5 114-62 114.5-45 102.5-17.5 76q0 20 6.5 29.5t14 17.5 14 17.5 6.5 28.5q0 26-18.5 45t-44.5 19q-27 0-46.5-16.5t-33-40.5-20-51-6.5-49q0-45 13-87.5t33-82.5q42-88 89-173.5t98-169.5q-60 39-115 85t-106 96-99.5 103-95.5 106q-55 61-110 120.5T1202 1417q-18 17-34.5 28.5T1126 1462q-5 1-11 1.5t-11 .5q-31 0-53.5-14t-36.5-36.5-21-50-7-54.5q0-43 18-95t47-109 65.5-115.5T1190 876t70.5-104.5T1318 684q-77 63-142.5 136.5T1047 971l-12 14q-44 52-90.5 107.5t-97.5 108-105.5 99T628 1382q-8 5-16 7.5t-18 2.5q-24 0-40.5-15t-26-36.5-13.5-46-4-44.5q0-32 7-63.5t19-61.5 27.5-59 31.5-56l179-298q-44 36-82.5 77.5T616 874l-461 539q-11 13-27 19t-32 6q-24 0-42-11t-30-28.5-18-39-6-42.5q0-11 1.5-20.5T5 1277q20-86 55-168.5T140 950q20-34 45-72.5t53.5-76T297 730t60-60q21-18 45-18 27 0 45.5 19t18.5 45q0 25-19 46-18 20-36.5 38T375 838q-144 167-217 375l361-422q41-48 85.5-95.5T699 608t106.5-68.5T928 501q3-1 10-1 26 0 45 18.5t19 44.5q0 17-10 34l-287 479q-20 32-37.5 66.5T642 1214q72-58 135-126.5T900.5 947 1021 802.5t126-138T1287 544t162-92q10-5 26-5 26 0 45 18.5t19 44.5q0 6-1 11.5t-3 10.5q-33 96-87 183t-111 171l-14 21q-14 21-35 52t-44.5 68-47 76.5-42 77.5-30 71.5-11.5 57.5l1 14q94-90 180.5-188.5t176.5-193 189.5-178T1880 621q17-8 35.5-13t37.5-5q17 0 34 5.5t30.5 16 22 25.5 8.5 34z"/></svg>