<svg width="1792" height="1792" viewBox="0 0 1792 1792" xmlns="http://www.w3.org/2000/svg"><path transform="scale(1.75 1.75) translate(0 0)" d="M960 256h-60l-224.5 448h-36q-.5 14-1.75 35.25t-4 46.5-7.5 52.5-11.5 53.75-16.25 50.5-22 42-28.5 28.75-36 10.75q-26.5 0-46-18.5t-33.5-47.75-23.25-65.5-14.5-72-7.5-66.5-2.75-49.75h-36l-224.5-448h-60v-256h64v192h768v-192h64v256zm-448 704q11.5-6 20.5-23.75t16-42.25 11.75-52.5 8-54.5 5-48.5 2.25-34.5h-127q.5 12.5 2.25 34.5t5 48.5 8 54.5 11.75 52.5 16 42.25 20.5 23.75zm316-704h-632l192 384h248z"/></svg>