<svg width="1792" height="1792" viewBox="0 0 1792 1792" xmlns="http://www.w3.org/2000/svg"><path transform="scale(1.75 1.75) translate(0 0)" d="M192 384h-64v-64h64v64zm-64 64h128v64h-128v-64zm576 0h128v64h-128v-64zm0 128h128v64h-128v-64zm-576 0h128v64h-128v-64zm192 0h320v64h-320v-64zm0-192h-64v-64h64v64zm0 64h64v64h-64v-64zm128 0h64v64h-64v-64zm128 0h64v64h-64v-64zm-128-64h-64v-64h64v64zm128 0h-64v-64h64v64zm128 0h-64v-64h64v64zm212-384q22.5 0 42 8.5t34.25 23.25 23.25 34.25 8.5 42v180q0 38-16.75 71.5t-47.25 56.5v288q0 13.5-5 25t-13.75 20.25-20.25 13.75-25 5h-832q-13.5 0-25-5t-20.25-13.75-13.75-20.25-5-25v-448q0-13.5 5-25t13.75-20.25 20.25-13.75 25-5h640v-84q0-22.5 8.5-42t23.25-34.25 34.25-23.25 42-8.5h104zm-20 445q-16 3-32 3-33 0-62.25-12.5t-51-34.25-34.25-51-12.5-62.25v-32h-640v448h832v-259zm64-337q0-18.5-12.75-31.25t-31.25-12.75h-20v128h-64v-128h-20q-18.5 0-31.25 12.75t-12.75 31.25v180q0 20 7.5 37.5t20.5 30.5 30.5 20.5 37.5 7.5 37.5-7.5 30.5-20.5 20.5-30.5 7.5-37.5v-180z"/></svg>