<svg width="1792" height="1792" viewBox="0 0 1792 1792" xmlns="http://www.w3.org/2000/svg"><path transform="scale(1.75 1.75) translate(0 0)" d="M480.5 128q6.5 0 11.5 5l399 399q5 5 5 11.5 0 9-7.5 14l-517.5 331.5q13.5 18 34 28.5t43 10.5q20 0 37.5-7.5t30.5-20.5 20.5-30.5 7.5-37.5h64q0 33-12.5 62.25t-34.25 51-51 34.25-62.25 12.5q-39 0-73.75-18t-57.25-50l-148 95q-7 5-18 5-13.5 0-23-9.5l-118.5-118.5q-9.5-9.5-9.5-23 0-11 5-18l461.5-719.5q5-7.5 14-7.5zm351.5 96q-13 0-22.5-9.5t-9.5-22.5 9.5-22.5l128-128q9.5-9.5 22.5-9.5t22.5 9.5 9.5 22.5-9.5 22.5l-128 128q-9.5 9.5-22.5 9.5zm160 96q13 0 22.5 9.5t9.5 22.5-9.5 22.5-22.5 9.5h-96q-13 0-22.5-9.5t-9.5-22.5 9.5-22.5 22.5-9.5h96zm-320-160q-13 0-22.5-9.5t-9.5-22.5v-96q0-13 9.5-22.5t22.5-9.5 22.5 9.5 9.5 22.5v96q0 13-9.5 22.5t-22.5 9.5z"/></svg>