<svg xmlns="http://www.w3.org/2000/svg" viewBox="0 0 2048 2048"><path d="M961 256q13 0 23 10l798 798q10 10 10 23 0 18-15 28L742 1778q27 36 68 57t86 21q40 0 75-15t61-41 41-61 15-75h128q0 66-25 124.5t-68.5 102-102 68.5-124.5 25q-78 0-147.5-36T634 1848l-296 190q-14 10-36 10-27 0-46-19L19 1792q-19-19-19-46 0-22 10-36L933 271q10-15 28-15zm703 192q-26 0-45-19t-19-45 19-45l256-256q19-19 45-19t45 19 19 45-19 45l-256 256q-19 19-45 19zm320 192q26 0 45 19t19 45-19 45-45 19h-192q-26 0-45-19t-19-45 19-45 45-19h192zm-640-320q-26 0-45-19t-19-45V64q0-26 19-45t45-19 45 19 19 45v192q0 26-19 45t-45 19z"/></svg>