<svg xmlns="http://www.w3.org/2000/svg" viewBox="0 0 2048 2048"><path d="M1792 896q53 0 99.5 20t81.5 55 55 81.5 20 99.5-20 99.5-55 81.5-81.5 55-99.5 20q-50 0-94-18t-78.5-49.5-56.5-74-26-92.5l-150-25q-24 69-71.5 124.5T1204 1363l58 174q5-1 9-1h9q53 0 99.5 20t81.5 55 55 81.5 20 99.5-20 99.5-55 81.5-81.5 55-99.5 20-99.5-20-81.5-55-55-81.5-20-99.5q0-66 31.5-123t85.5-92l-58-174q-14 2-29 3.5t-30 1.5q-92 0-173.5-41.5T714 1251l-208 103q6 27 6 54 0 53-20 99.5t-55 81.5-81.5 55-99.5 20-99.5-20-81.5-55-55-81.5T0 1408t20-99.5 55-81.5 81.5-55 99.5-20q56 0 106 23t87 65l208-104q-17-56-17-112 0-71 25-137t73-119L617 617q-51 23-105 23-53 0-99.5-20T331 565t-55-81.5-20-99.5 20-99.5 55-81.5 81.5-55 99.5-20 99.5 20 81.5 55 55 81.5 20 99.5q0 85-51 153l120 151q43-23 90.5-35.5T1024 640q83 0 157 33l164-246q-31-35-48-79t-17-92q0-53 20-99.5t55-81.5 81.5-55T1536 0t99.5 20 81.5 55 55 81.5 20 99.5-20 99.5-55 81.5-81.5 55-99.5 20q-42 0-84-14l-165 247q58 54 89.5 126.5T1408 1023l150 25q15-34 39.5-62.5t55-48 66-30.5 73.5-11zm-256-768q-27 0-50 10t-40.5 27.5T1418 206t-10 50 10 50 27.5 40.5T1486 374t50 10 50-10 40.5-27.5T1654 306t10-50-10-50-27.5-40.5T1586 138t-50-10zM256 1536q27 0 50-10t40.5-27.5T374 1458t10-50-10-50-27.5-40.5T306 1290t-50-10-50 10-40.5 27.5T138 1358t-10 50 10 50 27.5 40.5T206 1526t50 10zm1152 256q0-27-10-50t-27.5-40.5-40.5-27.5-50-10-50 10-40.5 27.5-27.5 40.5-10 50 10 50 27.5 40.5 40.5 27.5 50 10 50-10 40.5-27.5 27.5-40.5 10-50zM384 384q0 27 10 50t27.5 40.5T462 502t50 10 50-10 40.5-27.5T630 434t10-50-10-50-27.5-40.5T562 266t-50-10-50 10-40.5 27.5T394 334t-10 50zm640 896q53 0 99.5-20t81.5-55 55-81.5 20-99.5-20-99.5-55-81.5-81.5-55-99.5-20-99.5 20-81.5 55-55 81.5-20 99.5 20 99.5 55 81.5 81.5 55 99.5 20zm768 0q27 0 50-10t40.5-27.5 27.5-40.5 10-50-10-50-27.5-40.5-40.5-27.5-50-10-50 10-40.5 27.5-27.5 40.5-10 50 10 50 27.5 40.5 40.5 27.5 50 10z"/></svg>