<svg width="1792" height="1792" viewBox="0 0 1792 1792" xmlns="http://www.w3.org/2000/svg"><path transform="scale(1.75 1.75) translate(0 0)" d="M725.5 318.5q-6-4.5-12.75-8.25t-14.25-7.75q-15.5-8-33-14.5-9-3.5-18.75-5.75t-20.25-4.25q-11-2.5-22.75-3.5t-23.25-1q-59.5 0-109 21.5-48.5 21.5-82 59-33.5 36.5-51.5 86.5-9.5 25.5-13.75 52.25t-4.25 56.75q0 23.5 3 44.75t10 39.25q13 36 37.5 61.5 24.5 25 59 38 33 12 75 12 13 0 25.25-.75t22.25-2.25q11.5-2 21.5-3.25t19-4.25q9.5-3.5 18.25-6.5t16.75-7q8.5-3.5 16-7.5t15.5-8.5l-15.5 71q-17 7-34.25 12.75t-35.25 9.25q-38 8.5-84 8.5-53 0-98.5-18.5-45-17-76.5-50.5-31-33.5-48.5-79.5t-17.5-103.5q0-75.5 23.5-137.5 23.5-62.5 68-108 44-45 105.5-70 63-26 137.5-26 25 0 47.5 3t42.5 9q40 10.5 67 24z"/></svg>