<svg width="1792" height="1792" viewBox="0 0 1792 1792" xmlns="http://www.w3.org/2000/svg"><path transform="scale(1.75 1.75) translate(0 0)" d="M512 448h192v128h-192v-128zm448-448v960h-960v-960h960zm-832 256h192v64h64v-64h192v64h64v-64h192v-64h-192v-128h-64v128h-192v-128h-64v128h-192v64zm768 320h-128v-192h-256v-64h-64v64h-256v192h-128v64h374q-35.5 42.5-77.25 77.75t-89 60.75-99.5 39.5-108.25 14v64q62 0 120-14.75t110.5-41.5 99-64.5 86.5-84.25q39.5 46.5 86.25 84.25t99.25 64.5 110.5 41.5 120 14.75v-64q-56.5 0-108.75-14t-99.5-39.5-89-60.75-76.75-77.75h374v-64zm-640-128h192v128h-192v-128z"/></svg>