<svg xmlns="http://www.w3.org/2000/svg" viewBox="0 0 2048 2048"><path d="M2048 512v128h-256v128h-128V640h-384v128h-128V640H896V512h256V384h128v128h384V384h128v128h256zm-495 896q47 56 102 103t117.5 81 131.5 53 144 19v128q-86 0-166-20.5t-152.5-57.5-137.5-89-120-115q-55 63-120 115t-137.5 89-153 57.5T896 1792v-128q75 0 144-19t131.5-53 117.5-81 102-103H896v-128h128V896h384V768h128v128h384v384h128v128h-495zm-17-128h256v-256h-256v256zm-384 0h256v-256h-256v256zM449 358l444 445-90 90-291-291v1190H384V603L93 893 3 803z"/></svg>