<svg width="1792" height="1792" viewBox="0 0 1792 1792" xmlns="http://www.w3.org/2000/svg"><path transform="scale(1.75 1.75) translate(0 0)" d="M1024 256v64h-128v64h-64v-64h-192v64h-64v-64h-128v-64h128v-64h64v64h192v-64h64v64h128zm-247.5 448q23.5 28 51 51.5t58.75 40.5 65.75 26.5 72 9.5v64q-43 0-83-10.25t-76.25-28.75-68.75-44.5-60-57.5q-27.5 31.5-60 57.5t-68.75 44.5-76.5 28.75-82.75 10.25v-64q37.5 0 72-9.5t65.75-26.5 58.75-40.5 51-51.5h-247.5v-64h64v-192h192v-64h64v64h192v192h64v64h-247.5zm-8.5-64h128v-128h-128v128zm-192 0h128v-128h-128v128zm-351.5-461l222 222.5-45 45-145.5-145.5v595h-64v-594.5l-145.5 145-45-45z"/></svg>