<svg width="1792" height="1792" viewBox="0 0 1792 1792" xmlns="http://www.w3.org/2000/svg"><path transform="scale(1.75 1.75) translate(0 0)" d="M891.5 192q14 0 26.5 5.75t22 15.5 14.75 22.75 5.25 28v432q0 15-5.25 28.25t-14.75 23-22 15.25-26.5 5.5h-823q-14.5 0-26.75-5.5t-21.75-15.25-14.75-23-5.25-28.25v-432q0-15 5.25-28t14.75-22.75 21.75-15.5 26.75-5.75h823zm4.5 72q0-4-1.75-6t-2.75-2h-823q-1 0-2.75 2t-1.75 6v432q0 4 1.75 6t2.75 2h823q1 0 2.75-2t1.75-6v-432zm-302.5 553.5l45 45-158.5 158.5-158.5-158.5 45-45 113.5 113z"/></svg>