<svg xmlns="http://www.w3.org/2000/svg" viewBox="0 0 2048 2048"><path d="M1527 384q30 0 55 11.5t43 31.5 28.5 46 10.5 55v864q0 29-10.5 55t-28.5 46-43 31.5-55 11.5H393q-30 0-55-11.5t-43-31.5-28.5-46-10.5-55V528q0-29 10.5-55t28.5-46 43-31.5 55-11.5h1134zm9 144q0-3-2-9.5t-7-6.5H393q-5 0-7 6.5t-2 9.5v864q0 3 2 9.5t7 6.5h1134q5 0 7-6.5t2-9.5V528zm-256 368h128v128h-128V896zm0 256h128v128h-128v-128zm-512 0h384v128H768v-128zm256-256h128v128h-128V896zm0-256h128v128h-128V640zm-128 384H768V896h128v128zm0-256H768V640h128v128zm-384 384h128v128H512v-128zm0-256h128v128H512V896zm0-256h128v128H512V640zm768 0h128v128h-128V640z"/></svg>