<svg xmlns="http://www.w3.org/2000/svg" viewBox="0 0 2048 2048"><path d="M1792 384q27 0 50 10t40.5 27.5T1910 462t10 50v896q0 27-10 50t-27.5 40.5-40.5 27.5-50 10H128q-27 0-50-10t-40.5-27.5T10 1458t-10-50V512q0-27 10-50t27.5-40.5T78 394t50-10h1664zm-640 256h128V512h-128v128zm0 256h128V768h-128v128zm0 256h128v-128h-128v128zM896 640h128V512H896v128zm0 256h128V768H896v128zm0 256h128v-128H896v128zM640 640h128V512H640v128zm0 256h128V768H640v128zm0 256h128v-128H640v128zM384 640h128V512H384v128zm0 256h128V768H384v128zm0 256h128v-128H384v128zm-128 128H128v128h128v-128zm0-256H128v128h128v-128zm0-256H128v128h128V768zm0-256H128v128h128V512zm1280 768H384v128h1152v-128zm0-256h-128v128h128v-128zm0-256h-128v128h128V768zm0-256h-128v128h128V512zm256 768h-128v128h128v-128zm0-256h-128v128h128v-128zm0-256h-128v128h128V768zm0-256h-128v128h128V512z"/></svg>