<svg width="1792" height="1792" viewBox="0 0 1792 1792" xmlns="http://www.w3.org/2000/svg"><path transform="scale(1.75 1.75) translate(0 0)" d="M896 192q13.5 0 25 5t20.25 13.75 13.75 20.25 5 25v448q0 13.5-5 25t-13.75 20.25-20.25 13.75-25 5h-832q-13.5 0-25-5t-20.25-13.75-13.75-20.25-5-25v-448q0-13.5 5-25t13.75-20.25 20.25-13.75 25-5h832zm-320 128h64v-64h-64v64zm0 128h64v-64h-64v64zm0 128h64v-64h-64v64zm-128-256h64v-64h-64v64zm0 128h64v-64h-64v64zm0 128h64v-64h-64v64zm-128-256h64v-64h-64v64zm0 128h64v-64h-64v64zm0 128h64v-64h-64v64zm-128-256h64v-64h-64v64zm0 128h64v-64h-64v64zm0 128h64v-64h-64v64zm-64 64h-64v64h64v-64zm0-128h-64v64h64v-64zm0-128h-64v64h64v-64zm0-128h-64v64h64v-64zm640 384h-576v64h576v-64zm0-128h-64v64h64v-64zm0-128h-64v64h64v-64zm0-128h-64v64h64v-64zm128 384h-64v64h64v-64zm0-128h-64v64h64v-64zm0-128h-64v64h64v-64zm0-128h-64v64h64v-64z"/></svg>