<svg width="1792" height="1792" viewBox="0 0 1792 1792" xmlns="http://www.w3.org/2000/svg"><path transform="scale(1.75 1.75) translate(0 0)" d="M512 384h-64v-192h64v192zm448 256v64h-192v-64h192zm-768 64h-192v-64h192v64zm61.5-213l-135.5-136 45-45 136 135.5zm453 0l-45.5-45.5 136-135.5 45 45zm-447 213q-1.5-8-2.5-16t-1-16q0-46.5 17.75-87.25t48-71 71-48 87.25-17.75 87.25 17.75 71 48 48 71 17.75 87.25q0 8-1 16t-2.5 16h-64q3.5-14.5 3.5-32 0-33-12.75-62t-34.5-50.75-50.75-34.5-62-12.75-62.25 12.75-51 34.5-34.25 50.75-12.5 62q0 17.5 3.5 32h-64zm-259.5 64h960v64h-960v-64z"/></svg>