<svg width="1792" height="1792" viewBox="0 0 1792 1792" xmlns="http://www.w3.org/2000/svg"><path transform="scale(1.75 1.75) translate(0 0)" d="M512 384h-64v-96h64v96zm-258.5 107l-67.5-68 45-45 68 67.5zm-61.5 213h-96v-64h96v64zm576-64h96v64h-96v-64zm-61.5-149l-45.5-45.5 68-67.5 45 45zm-447 213q-1.5-8-2.5-16t-1-16q0-46.5 17.75-87.25t48-71 71-48 87.25-17.75 87.25 17.75 71 48 48 71 17.75 87.25q0 8-1 16t-2.5 16h-64q3.5-14.5 3.5-32 0-33-12.75-62t-34.5-50.75-50.75-34.5-62-12.75-62.25 12.75-51 34.5-34.25 50.75-12.5 62q0 17.5 3.5 32h-64zm700.5 64v64h-960v-64h960z"/></svg>