<svg width="1792" height="1792" viewBox="0 0 1792 1792" xmlns="http://www.w3.org/2000/svg"><path transform="scale(1.75 1.75) translate(0 0)" d="M891.5 192q15 0 27.5 5.75t21.5 15.75 14.25 23 5.25 27.5v432q0 14.5-5.25 27.5t-14.25 23-21.5 15.75-27.5 5.75h-823q-15 0-27.5-5.75t-21.5-15.75-14.25-23-5.25-27.5v-432q0-14.5 5.25-27.5t14.25-23 21.5-15.75 27.5-5.75h823zm4.5 72q0-1.5-1-4.75t-3.5-3.25h-823q-2.5 0-3.5 3.25t-1 4.75v432q0 1.5 1 4.75t3.5 3.25h823q2.5 0 3.5-3.25t1-4.75v-432zm-768 56h64v64h-64v-64zm640 256h64v64h-64v-64zm-640 0h64v64h-64v-64zm128 0h128v64h-128v-64zm320 0h128v64h-128v-64zm-256-192h-64v-64h64v64zm-192 64h64v64h-64v-64zm192 64h-64v-64h64v64zm320-64h64v64h-64v-64zm128 0h64v64h-64v-64zm-128-128h64v64h-64v-64zm128 0h64v64h-64v-64z"/></svg>