<svg width="1792" height="1792" viewBox="0 0 1792 1792" xmlns="http://www.w3.org/2000/svg"><path transform="scale(1.75 1.75) translate(0 0)" d="M891.5 192q15 0 27.5 6t21.5 15.75 14.25 23 5.25 27.25v432q0 14.5-5.25 27.5t-14.25 22.75-21.5 15.75-27.5 6h-823q-15 0-27.5-6t-21.5-15.75-14.25-22.75-5.25-27.5v-432q0-14 5.25-27.25t14.25-23 21.5-15.75 27.5-6h823zm4.5 72q0-5.5-4.5-8h-823q-4.5 2.5-4.5 8v432q0 5.5 4.5 8h823q4.5-2.5 4.5-8v-432zm-704 120h-64v-64h64v64zm-64 64h128v64h-128v-64zm576 0h128v64h-128v-64zm0 128h128v64h-128v-64zm-576 0h128v64h-128v-64zm192 0h320v64h-320v-64zm0-192h-64v-64h64v64zm0 64h64v64h-64v-64zm128 0h64v64h-64v-64zm128 0h64v64h-64v-64zm-128-64h-64v-64h64v64zm128 0h-64v-64h64v64zm128 0h-64v-64h64v64zm64-64h64v64h-64v-64z"/></svg>