<svg xmlns="http://www.w3.org/2000/svg" viewBox="0 0 2048 2048"><path d="M1783 384q28 0 53 11.5t44 31 29.5 45.5 10.5 56v864q0 30-10.5 56.5t-29.5 46-44 30.5-53 11H137q-29 0-53.5-11T40 1494.5t-29.5-46T0 1392V528q0-30 10.5-56T40 426.5t43.5-31T137 384h1646zm9 144q0-8-3.5-12t-5.5-4H137q-2 0-5.5 4t-3.5 12v864q0 8 3.5 12t5.5 4h1646q2 0 5.5-4t3.5-12V528zM256 768h256v128H256V768zm1152 0h256v128h-256V768zm0 256h256v128h-256v-128zm-1152 0h256v128H256v-128zm384 0h640v128H640v-128zm128-128H640V768h128v128zm256 0H896V768h128v128zm128-128h128v128h-128V768z"/></svg>