<svg xmlns="http://www.w3.org/2000/svg" viewBox="0 0 2048 2048"><path d="M128 1392q0 3 2 9.5t7 6.5h887v128H137q-30 0-55-11.5T39 1493t-28.5-46T0 1392V528q0-29 10.5-55T39 427t43-31.5 55-11.5h1646q30 0 55 11.5t43 31.5 28.5 46 10.5 55v560l-128-31V528q0-3-2-9.5t-7-6.5H137q-5 0-7 6.5t-2 9.5v864zm768-624H768V640h128v128zm384 256h-128V896h128v128zm-128-256h-128V640h128v128zm256 0h-128V640h128v128zm256 0h-128V640h128v128zm-445 384q-68 54-117 128H640v-128h579zm445-128h-256V896h256v128zM640 768H512V640h128v128zm-128 256H256V896h256v128zm256 0H640V896h128v128zm-512 128h256v128H256v-128zm128-512v128H256V640h128zm640 384H896V896h128v128zm890 515q6 30 6 61t-6 61l124 51-49 119-124-52q-35 51-86 86l52 124-119 49-51-124q-30 6-61 6t-61-6l-51 124-119-49 52-124q-51-35-86-86l-124 52-49-119 124-51q-6-30-6-61t6-61l-124-51 49-119 124 52q35-51 86-86l-52-124 119-49 51 124q30-6 61-6t61 6l51-124 119 49-52 124q51 35 86 86l124-52 49 119zm-314 253q40 0 75-15t61-41 41-61 15-75q0-39-15-74t-41.5-61.5-61.5-41.5-74-15-74 15-61.5 41.5-41.5 61.5-15 74q0 40 15 75t41 61 61 41 75 15z"/></svg>