<svg xmlns="http://www.w3.org/2000/svg" viewBox="0 0 2048 2048"><path d="M1399 256q30 0 55 11.5t43 31.5 28.5 46 10.5 55v1120q0 29-10.5 55t-28.5 46-43 31.5-55 11.5H521q-30 0-55-11.5t-43-31.5-28.5-46-10.5-55V400q0-29 10.5-55t28.5-46 43-31.5 55-11.5h878zm9 144q0-3-2-9.5t-7-6.5H521q-5 0-7 6.5t-2 9.5v1120q0 3 2 9.5t7 6.5h878q5 0 7-6.5t2-9.5V400zm-256 624h128v128h-128v-128zm-256 0h128v128H896v-128zm0 256h128v128H896v-128zm256-512h128v128h-128V768zm0-256h128v128h-128V512zM896 768h128v128H896V768zm0-256h128v128H896V512zm-256 512h128v128H640v-128zm512 256h128v128h-128v-128zm-512 0h128v128H640v-128zm0-512h128v128H640V768zm0-256h128v128H640V512z"/></svg>