<svg width="1792" height="1792" viewBox="0 0 1792 1792" xmlns="http://www.w3.org/2000/svg"><path transform="scale(1.75 1.75) translate(0 0)" d="M192 320v64h-64v-64h64zm64 192h-128v-64h128v64zm576 0h-128v-64h128v64zm-704 64h128v64h-128v-64zm192-192h-64v-64h64v64zm64 128h-64v-64h64v64zm128 0h-64v-64h64v64zm128 0h-64v-64h64v64zm-192-128h-64v-64h64v64zm128 0h-64v-64h64v64zm128 0h-64v-64h64v64zm128 0h-64v-64h64v64zm192 416q0 45.5-17.5 87t-50.5 73h68v64h-192v-192h64v95q30-22.5 47-56t17-71q0-33-12.75-62t-34.5-50.75-50.75-34.5-62-12.75-62.25 12.75-51 34.5-34.25 50.75-12.5 62h-64q0-46.5 17.5-87.25t48-71.25 71.25-48 87.25-17.5 87.25 17.5 71.25 48 48 71.25 17.5 87.25zm-960-96h449q-5.5 15.5-8.75 31.75t-5.25 32.25h-435q-13.5 0-25-5t-20.25-13.75-13.75-20.25-5-25v-448q0-13.5 5-25t13.75-20.25 20.25-13.75 25-5h832q13.5 0 25 5t20.25 13.75 13.75 20.25 5 25v286.5q-15-9.5-31-16.75t-33-12.75v-257h-832v448zm532-128q-31 28.5-53.5 64h-222.5v-64h276z"/></svg>