<svg xmlns="http://www.w3.org/2000/svg" viewBox="0 0 2048 2048"><path d="M384 640v128H256V640h128zm128 384H256V896h256v128zm1152 0h-256V896h256v128zM256 1152h256v128H256v-128zm384-384H512V640h128v128zm128 256H640V896h128v128zm256 0H896V896h128v128zm256 0h-128V896h128v128zM896 768H768V640h128v128zm256 0h-128V640h128v128zm256 0h-128V640h128v128zm256 0h-128V640h128v128zm384 832q0 91-35 174t-101 146h136v128h-384v-384h128v190q60-45 94-112t34-142q0-66-25.5-124t-69-101.5-101.5-69-124-25.5-124.5 25.5-102 69T1305 1476t-25 124h-128q0-93 35-174.5t96-142.5 142.5-96 174.5-35 174.5 35 142.5 96 96 142.5 35 174.5zM128 1408h898q-11 31-17.5 63.5T998 1536H128q-27 0-50-10t-40.5-27.5T10 1458t-10-50V512q0-27 10-50t27.5-40.5T78 394t50-10h1664q27 0 50 10t40.5 27.5T1910 462t10 50v573q-30-19-62-33.5t-66-25.5V512H128v896zm1064-256q-62 57-107 128H640v-128h552z"/></svg>