<svg width="1792" height="1792" viewBox="0 0 1792 1792" xmlns="http://www.w3.org/2000/svg"><path transform="scale(1.75 1.75) translate(0 0)" d="M640 256h-576v-64h256v-128h64v128h256v64zm320 192v64h-192v256h-64v-704h64v384h192zm-640 512h512v64h-576v-256h64v192zm256-448q0 29.5-9 55.25t-24.75 47-37 38-46 28.25-52 17.5-54.25 6q-40.5 0-80.75-13.25t-72.25-38.25-52-60.5-20-80q0-44 20-79.5t52-60.5 72.25-38.25 80.75-13.25q41 0 81 13.25t71.5 38 51 60.25 19.5 80zm-384 0q0 31 15 54.75t38.25 40 52 24.75 55.75 8.5 55.75-8.5 52-24.75 38.25-40 15-54.75-15-54.75-38.25-40-52-24.5-55.75-8.25-55.75 8.25-52 24.5-38.25 40-15 54.75z"/></svg>