<svg width="1792" height="1792" viewBox="0 0 1792 1792" xmlns="http://www.w3.org/2000/svg"><path transform="scale(1.75 1.75) translate(0 0)" d="M183 192q-31.5 38.5-70 69t-81 55l-32-56q35.5-20 70-46.75t61.5-59.5 43.75-71.25 16.75-82.5h64q0 33.5-8 65.75t-23.5 62.25h287.5v64h-146.5l89 89.5-45 45-135-134.5h-91.5zm841 0h-146.5l89 89.5-45 45-135-134.5h-91.5q-31.5 38.5-70 69t-81 55l-32-56q35.5-20 70-46.75t61.5-59.5 43.75-71.25 16.75-82.5h64q0 33.5-8 65.75t-23.5 62.25h287.5v64zm-896 256h64v576h-64v-576zm192 64h320v448h-320v-448zm256 384v-128h-192v128h192zm-192-320v128h192v-128h-192zm64-192h448v544q0 20-7.5 37.5t-20.5 30.5-30.5 20.5-37.5 7.5h-96v-64h96q13 0 22.5-9.5t9.5-22.5v-480h-384v-64zm-121.5 25.5l-45 45-144-144 45-45z"/></svg>