<svg width="1792" height="1792" viewBox="0 0 1792 1792" xmlns="http://www.w3.org/2000/svg"><path transform="scale(1.75 1.75) translate(0 0)" d="M350.5 310q-38-13-79-21.5l17.5-36q19.5 4 38.75 9.25t38.25 12.25zm168-55.5q48.5-38 87.75-85.25t70.75-100.25l46.5 16.5q-8.5 16-18.75 31.5t-21.25 30h246.5v46h-59q-13 53-37 102.5t-62.5 89q39 25.5 82.25 43.25t87.75 30.75l-22.5 45q-48-16-93.5-37.25t-87-49.75q-40 29.5-85 50t-92 35l-24.5-41q20-6 42-13.5t43.5-16.75 41.75-20.5 36.75-24.25q-25.5-22.5-46.25-48.75t-39.75-54.75l37.5-24.5q17.5 27.5 38.25 52.25t43.75 47.25q17.5-16 31.25-35.25t24.25-40.25 18.5-43.5 14-45h-171q-23.5 25.5-47.5 50.25t-50.5 47.25zm-170 162q-21-7-42-12.75t-43-8.75l14.5-38q22.5 3 44 9.25t43 13.25zm310.5 400.5q71 19.5 139 45.25t134 58.75l-32.5 43q-63.5-34.5-131.75-59.5t-136.75-47zm-179.5-464q-1 16-1.5 32.75t-3.5 32.75h26.5v43h-29.5q-4.5 21-12.5 34.5t-20 21.25-28 10.75-36 3h-14.25l-14.25-1-16.5-43q9 1 18.25 1.5t18.75.5q8 0 16-1.25t15-4.25 12.25-8.25 7.75-13.75h-285.5l21.5-108.5h-78v-42h83l17.5-106.5h308q.5 5.5.5 11.5v12q0 21-1 41.5t-2.5 41.5h52.5v42h-54.5zm-55 65.5q2.5-16 3.75-32.5t1.25-33h-224.5l-12 65.5h231.5zm9-169h-212l-9 61.5h221v-61.5zm364.5 511q-68.5 6.5-135.75 11.5t-135.75 9v115.5q0 24-12 42.5t-37.5 22.5q-10 1.5-21.5 2t-23.5.25-23.75-.5-21.75-.25l-17.5-50q7.5.5 21.25.75t28.5 0 27.5-1 18.25-3.25q8.5-3.5 10.75-10t2.25-15v-100.5q-86.5 5.5-172 8t-172 3.5l-10-49.5q85.5-17.5 169-40.75t165.5-54.25q-67 2-133.5 3t-133.5 1l-6.5-45q88-11.5 171.25-37.5t161.75-67l38 34q-55 24-111.75 42.5t-115.75 29q39.5 0 78.75-1t78.75-3q23-1 47-1.5t46.5-4q3.5-.5 12.5-4.25t20.75-9.5 25-12.25 25.25-12.5 21.25-10.75 12.75-6.75l38 37q-239 123.5-503.5 171 131.5-5.5 261.75-12.75t261.25-21.25q-14-12-28.25-24t-29.25-23l39-32q43 32 81.5 69t74.5 76.5l-41 33zm-728 159.5q68-19 134-43.25t128-58.75l32 38.5q-63.5 34-129.25 60.25t-134.25 47.25zm147.5-766q-31.5 28.5-65 54t-71 46.5l-35-38q55.5-28.5 103.25-66.5t87.25-86l45 19.5q-2.5 7.5-7.5 13.75t-11 11.75h281.5v45h-327.5z"/></svg>