<svg xmlns="http://www.w3.org/2000/svg" viewBox="0 0 2048 2048"><path d="M152 460q-15-19-31.5-37T86 388q97-75 177-165.5T406 27l92 33q-18 28-36 55t-37 54h687v78H365q-48 59-101.5 111.5T152 460zm1008 112q-16-18-33-35.5t-35-33.5q99-92 174.5-202.5T1401 69l92 30q-22 45-46 87t-49 85h579v81h-142q-17 55-37.5 110T1750 569.5 1690 670t-74 89q39 27 84 50t93 43 96 36.5 93 29.5q-14 20-28.5 40.5T1928 1001q-47-15-98-33.5t-101.5-41-97.5-49-86-56.5q-39 30-84 56.5t-92.5 50-96 43-94.5 36.5q-14-20-27-39.5t-28-38.5q42-15 88-33t91-39 87.5-45.5T1468 760q-69-67-114-150.5T1280 435q-29 35-58.5 69.5T1160 572zm575-220h-387q29 94 75 186t118 161q72-70 118.5-161t75.5-186zM676 1616l58 82q-153 59-306 111.5T119 1913l-47-89q154-45 304.5-96.5T676 1616zM544 538l53-52 160 92-57 55zm591 987q0 78 .5 154t.5 154q0 54-15.5 90.5t-44 58-69 31.5-89.5 11q-55 2-109.5 3t-109.5 1l-19-100q52 2 103.5 3t103.5 1q38 0 65.5-5.5t45-20.5 26-41 8.5-66v-272q-139 4-276.5 8.5T479 1545q-56 2-111 4t-110 10l-36-102q60-11 117.5-25t115.5-31q140-40 278-77.5t275-85.5q-127 2-252 6.5t-252 9.5q-35 2-71 3.5t-71 8.5l-34-94q45-8 88.5-20.5T503 1125q97-31 191.5-63.5T884 994l3-21H182l56-256H66v-74h189l54-237h720l-21 237h183v74h-190l-13 185h111v71H990l52 51q-113 42-226.5 77T587 1172q112-3 221.5-4.5t221.5-3.5q13 0 40.5.5t56.5.5 54.5-.5 35.5-2.5q9-1 22-6t26-10.5l26-11 22-9.5q54-20 107.5-41.5T1528 1039l68 78q-268 99-541 182.5T509 1465q241-8 480.5-14t480.5-12q-50-29-100-56.5t-101-52.5l64-68q121 64 239.5 129.5T1810 1525l-61 74q-38-20-75-43t-75-45q-117 2-232 5.5t-232 8.5zM385 478l-38 165h566l17-165H385zm-92 424h601l13-185H331zm1029 793l57-82q152 54 302 110t301 114l-56 86q-149-63-300-119t-304-109zM512 780l51-53 162 92-54 55z"/></svg>