<svg width="1792" height="1792" viewBox="0 0 1792 1792" xmlns="http://www.w3.org/2000/svg"><path transform="scale(1.75 1.75) translate(0 0)" d="M576 192h-448v-64h192v-128h64v128h192v64zm320 64v64h-128v384h-64v-640h64v192h128zm-512 576h448v64h-512v-256h64v192zm128-416.5q0 34.5-12.25 63.75t-33.5 50.75-50.5 33.75-63.75 12.25q-35 0-64.25-12t-50.5-33.25-33.25-50.75-12-64.5 12-64.25 33.25-50.5 50.75-33 64-11.75 64 11.75 50.75 33 33.25 50.5 12 64.25zm-256 0q0 21.5 7 39.25t19.5 30.5 30.25 19.75 39.25 7 39-7.25 30.25-20 19.75-30.5 7-38.75q0-21.5-7-39t-19.75-30-30.25-19.5-39-7-39 7-30.25 19.5-19.75 30-7 39z"/></svg>