<svg xmlns="http://www.w3.org/2000/svg" viewBox="0 0 2048 2048"><path d="M884 1536q15 67 42 128H128q-27 0-50-10t-40.5-27.5T10 1586t-10-50q0-16 3-34.5t8.5-37.5 14-35.5T46 1400l210-211V256h1536v611q-30-17-62.5-28t-65.5-19V384H384v768h480v128H347l-206 205q-3 3-5.5 10t-4 14.5-2.5 15-1 11.5H64h820zm652-571q59 0 108 14t100 43q42 25 96 31.5t108 6.5q26 0 51.5-.5t48.5-.5v325q0 105-38 198.5t-101.5 173-145 143.5-168.5 110l-59 31-60-31q-87-45-168.5-109.5T1163 1755t-101-173.5-38-197.5v-325q24 0 50.5.5t53.5.5q53 0 106.5-6.5t95.5-32.5q50-29 99-42.5t107-13.5zm384 222q-66 0-127-12t-118-45q-34-20-66.5-28.5t-72.5-8.5q-38 0-71 8.5t-66 27.5q-58 33-119.5 45.5T1152 1187v197q0 86 33.5 162.5t88 142 123 118T1536 1896q70-37 139-89.5t123.5-118 88-142T1920 1384v-197z"/></svg>