<svg width="1792" height="1792" viewBox="0 0 1792 1792" xmlns="http://www.w3.org/2000/svg"><path transform="scale(1.75 1.75) translate(0 0)" d="M768 416q0 55-19.5 104.25t-54 87.75-81.25 63.25-101.25 31.25v321.5h-64v-321.5q-54.5-6.5-101.25-31.25t-81.25-63.25-54-87.75-19.5-104.25q0-58 21.75-110.25t62.75-93.25q51.5-51.5 101.75-102t101.75-102q51.5 51.5 101.75 102t101.75 102q41 41 62.75 93.25t21.75 110.25zm-256 221.5q41.5-5.5 76.5-25.25t60.5-49.5 40-67.5 14.5-79.25q0-44.5-16.75-85.75t-48.25-72.75l-158.5-158.5-158.5 158.5q-31.5 31.5-48.5 72.75t-17 85.75q0 41.5 14.5 79.25t40 67.5 60.75 49.5 76.75 25.25v-381.5h64v381.5z"/></svg>