<svg width="1792" height="1792" viewBox="0 0 1792 1792" xmlns="http://www.w3.org/2000/svg"><path transform="scale(1.75 1.75) translate(0 0)" d="M512 128h-64v-128h64v128zm-303.5 125.5l-90.5-90.5 45-45 90.5 90.5zm-208.5 194.5h128v64h-128v-64zm960 0v64h-128v-64h128zm-208.5-194.5l-45-45 90.5-90.5 45 45zm-271.5 2.5q46.5 0 87.25 17.75t71 48 48 71 17.75 87.25v352h64v64h-128v128h-64v-128h-192v128h-64v-128h-128v-64h64v-352q0-46.5 17.75-87.25t48-71 71-48 87.25-17.75zm160 576v-352q0-33-12.75-62t-34.5-50.75-50.75-34.5-62-12.75-62 12.75-50.75 34.5-34.5 50.75-12.75 62v352h320z"/></svg>