<svg xmlns="http://www.w3.org/2000/svg" viewBox="0 0 2048 2048"><path d="M128 1792q0 27 10 50t27.5 40.5T206 1910t50 10h896v128H256q-53 0-99.5-20T75 1973t-55-81.5T0 1792V256q0-49 21.5-95.5t57-82 81.5-57T256 0h1408v1152h-128V128H256q-23 0-46 11.5T169 169t-29.5 41-11.5 46v1314q58-34 128-34h1024v128H256q-27 0-50 10t-40.5 27.5T138 1742t-10 50zM384 768V384h896v384H384zm128-128h640V512H512v128zm1336 1073q46 25 83 61t63 79.5 40 93 14 101.5h-128q0-53-20-99.5t-55-81.5-81.5-55-99.5-20-99.5 20-81.5 55-55 81.5-20 99.5h-128q0-52 14-101.5t40-93 63-79.5 83-61q-34-35-53-81t-19-96q0-53 20-99.5t55-81.5 81.5-55 99.5-20 99.5 20 81.5 55 55 81.5 20 99.5q0 50-19 96t-53 81zm-184-49q27 0 50-10t40.5-27.5 27.5-40.5 10-50-10-50-27.5-40.5-40.5-27.5-50-10-50 10-40.5 27.5-27.5 40.5-10 50 10 50 27.5 40.5 40.5 27.5 50 10z"/></svg>