<svg width="1792" height="1792" viewBox="0 0 1792 1792" xmlns="http://www.w3.org/2000/svg"><path transform="scale(1.75 1.75) translate(0 0)" d="M480 0q48.5 0 93.5 12.5t84.25 35.5 71.25 55 55 71.25 35.5 84.25 12.5 93.5q0 72.5-27.5 134.5t-78.5 112.5q-41.5 41-63.75 91.5t-22.25 109.5v128q0 20-7.5 37.5t-20.5 30.5-30.5 20.5-37.5 7.5h-128q-20 0-37.5-7.5t-30.5-20.5-20.5-30.5-7.5-37.5v-128q0-59-22.25-109.5t-63.75-91.5q-51-50.5-78.5-112.5t-27.5-134.5q0-48.5 12.5-93.5t35.5-84.25 55-71.25 71.25-55 84.25-35.5 93.5-12.5zm64 960q13 0 22.5-9.5t9.5-22.5v-96h-192v96q0 13 9.5 22.5t22.5 9.5h128zm33.5-192q6.5-64.5 33-117t71.5-98q41.5-42 63.75-91.75t22.25-109.25-22.75-112-61.75-91.5-91.5-61.75-112-22.75-112 22.75-91.5 61.75-61.75 91.5-22.75 112 22.25 109.25 63.75 91.75q45 45.5 71.5 98t33 117h195z"/></svg>