<svg xmlns="http://www.w3.org/2000/svg" viewBox="0 0 2048 2048"><path d="M1920 1280q27 0 50 10t40.5 27.5 27.5 40.5 10 49q0 11-2 21.5t-5 20.5l-170 512q-13 39-47 63t-75 24H768v-768h267q26 0 45-19l328-328q18-18 44.5-27.5t51.5-9.5q33 0 62 12.5t51 34.5 34.5 51 12.5 62q0 6-3.5 22.5t-9 38.5-11.5 47-12 48-11 41.5-7 26.5h310zm0 128h-474l89-358q-2-11-11-18.5t-20-7.5q-1 0-3.5 1t-3.5 1l-326 326q-27 27-62.5 41.5T1035 1408H896v512h853zm-907-640q-26 0-45 19l-328 328q-18 18-44.5 27.5T544 1152q-33 0-62-12.5t-51-34.5-34.5-51-12.5-62q0-9 7.5-40t16.5-68 18-70.5 12-45.5H128q-27 0-50-10t-40.5-27T10 690.5 0 641q0-11 2-21.5T7 599L177 87q13-39 47-63t75-24h981v768h-267zm-136-72q27-27 62.5-41.5T1013 640h139V128H299L128 640h474l-89 358q2 11 11 18.5t20 7.5q1 0 3.5-1t3.5-1z"/></svg>