<svg width="1792" height="1792" viewBox="0 0 1792 1792" xmlns="http://www.w3.org/2000/svg"><path transform="scale(1.75 1.75) translate(0 0)" d="M960 640q13.5 0 25 5t20.25 13.75 13.75 20.25 5 24.5q0 5.5-1 10.75t-2.5 10.25l-85 256q-6.5 19.5-23.5 31.5t-37.5 12h-490.5v-384h133.5q13 0 22.5-9.5l164-164q9-9 22.25-13.75t25.75-4.75q16.5 0 31 6.25t25.5 17.25 17.25 25.5 6.25 31q0 3-1.75 11.25t-4.5 19.25-5.75 23.5-6 24-5.5 20.75-3.5 13.25h155zm0 64h-237l44.5-179q-1-5.5-5.5-9.25t-10-3.75q-.5 0-1.75.5t-1.75.5l-163 163q-13.5 13.5-31.25 20.75t-36.75 7.25h-69.5v256h426.5zm-453.5-320q-13 0-22.5 9.5l-164 164q-9 9-22.25 13.75t-25.75 4.75q-16.5 0-31-6.25t-25.5-17.25-17.25-25.5-6.25-31q0-4.5 3.75-20t8.25-34 9-35.25 6-22.75h-155q-13.5 0-25-5t-20.25-13.5-13.75-20.25-5-24.75q0-5.5 1-10.75t2.5-10.25l85-256q6.5-19.5 23.5-31.5t37.5-12h490.5v384h-133.5zm-68-36q13.5-13.5 31.25-20.75t36.75-7.25h69.5v-256h-426.5l-85.5 256h237l-44.5 179q1 5.5 5.5 9.25t10 3.75q.5 0 1.75-.5t1.75-.5z"/></svg>