<svg xmlns="http://www.w3.org/2000/svg" viewBox="0 0 2048 2048"><path d="M1856 640q39 0 74 15t61.5 41 41.5 61 15 75q0 32-10 61l-256 768q-10 29-28 53.5t-42 41.5-52.5 26.5-59.5 9.5h-512q-179 0-345-69-72-29-144.5-44T448 1664H0V768h417q65 0 122.5-24T643 674l622-621q25-25 50-39t61-14q33 0 62 12.5t51 34.5 34.5 51 12.5 62q0 81-18 154.5T1465 460q-20 43-34 87.5t-19 92.5h444zm-256 1024q20 0 37-12t24-32q5-14 18.5-54t32.5-96.5 42-124 46-136.5 44.5-134.5 38.5-118 27-86 10-38.5q0-26-19-45t-45-19h-576q0-53 2.5-98.5t10-88.5 21.5-86 37-91q28-58 42.5-118.5T1408 160q0-14-9-23t-23-9q-6 0-10.5 4.5l-8.5 8.5-623 624q-32 32-68.5 56T588 862q-80 34-171 34H128v640h320q178 0 345 69 144 59 295 59h512z"/></svg>