<svg width="1792" height="1792" viewBox="0 0 1792 1792" xmlns="http://www.w3.org/2000/svg"><path transform="scale(1.75 1.75) translate(0 0)" d="M928 320q19.5 0 37 7.5t30.75 20.5 20.75 30.5 7.5 37.5q0 16-5 30.5l-128 384q-5 14.5-14 26.75t-21 20.75-26.25 13.25-29.75 4.75h-256q-89.5 0-172.5-34.5-36-14.5-72.25-22t-75.25-7.5h-224v-448h208.5q32.5 0 61.25-12t51.75-35l311-310.5q12.5-12.5 25-19.5t30.5-7q16.5 0 31 6.25t25.5 17.25 17.25 25.5 6.25 31q0 40.5-9 77.25t-26.5 72.75q-10 21.5-17 43.75t-9.5 46.25h222zm-128 512q10 0 18.5-6t12-16q2.5-7 9.25-27t16.25-48.25 21-62 23-68.25 22.25-67.25 19.25-59 13.5-43 5-19.25q0-13-9.5-22.5t-22.5-9.5h-288q0-26.5 1.25-49.25t5-44.25 10.75-43 18.5-45.5q14-29 21.25-59.25t7.25-62.75q0-7-4.5-11.5t-11.5-4.5q-3 0-5.25 2.25l-4.25 4.25-311.5 312q-16 16-34.25 28t-38.75 20.5q-40 17-85.5 17h-144.5v320h160q89 0 172.5 34.5 72 29.5 147.5 29.5h256z"/></svg>