<svg xmlns="http://www.w3.org/2000/svg" viewBox="0 0 2048 2048"><path d="M1536 768v128q76 0 145.5 17.5t122.5 56 84.5 99T1920 1216q0 66-25.5 124t-69 101.5-101.5 69-124 25.5h-512q-66 0-124-25.5t-101.5-69-69-101.5-25.5-124q0-87 31.5-147.5t84.5-99 122.5-56T1152 896V768h-64q-93 0-174.5 35.5t-142 96-96 142T640 1216t35.5 174.5 96 142 142 96T1088 1664h512q93 0 174.5-35.5t142-96 96-142T2048 1216t-35.5-174.5-96-142-142-96T1600 768h-64zm-640 512v-128q76 0 145.5-17.5t122.5-56 84.5-99T1280 832q0-66-25.5-124t-69-101.5-101.5-69T960 512H448q-66 0-124 25.5t-101.5 69-69 101.5T128 832q0 87 31.5 147.5t84.5 99 122.5 56T512 1152v128h-64q-93 0-174.5-35.5t-142-96-96-142T0 832t35.5-174.5 96-142 142-96T448 384h512q93 0 174.5 35.5t142 96 96 142T1408 832t-35.5 174.5-96 142-142 96T960 1280h-64z"/></svg>