<svg width="1792" height="1792" viewBox="0 0 1792 1792" xmlns="http://www.w3.org/2000/svg"><path transform="scale(1.75 1.75) translate(0 0)" d="M512 64q61.5 0 118.75 16t107 45.25 90.75 70.25 70.25 90.75 45.25 107 16 118.75-16 118.75-45.25 107-70.25 90.75-90.75 70.25-107 45.25-118.75 16-118.75-16-107-45.25-90.75-70.25-70.25-90.75-45.25-106.75-16-119q0-61.5 16-118.75t45.25-107 70.25-90.75 90.75-70.25 106.75-45.25 119-16zm0 832q53 0 102-13.75t91.75-38.75 77.75-60 60-77.75 38.75-91.75 13.75-102-13.75-102-38.75-91.75-60-77.75-77.75-60-91.75-38.75-102-13.75-102 13.75-91.75 38.75-77.75 60-60 77.75-38.75 91.75-13.75 102 13.75 102 38.75 91.75 60 77.75 77.75 60 91.75 38.75 102 13.75zm0-576q39.5 0 74.5 15.25t61 41.25 41.25 61 15.25 74.5-15.25 74.5-41.25 61-61 41.25-74.5 15.25-74.5-15.25-61-41.25-41.25-61-15.25-74.5 15.25-74.5 41.25-61 61-41.25 74.5-15.25z"/></svg>