<svg xmlns="http://www.w3.org/2000/svg" viewBox="0 0 2048 2048"><path d="M2048 256v1280H731l-475 475v-475H0V256h2048zm-128 128H128v1024h256v293l293-293h1243V384zM512 1024q-27 0-50-10t-40.5-27.5T394 946t-10-50 10-50 27.5-40.5T462 778t50-10 50 10 40.5 27.5T630 846t10 50-10 50-27.5 40.5T562 1014t-50 10zm512 0q-27 0-50-10t-40.5-27.5T906 946t-10-50 10-50 27.5-40.5T974 778t50-10 50 10 40.5 27.5T1142 846t10 50-10 50-27.5 40.5-40.5 27.5-50 10zm512 0q-27 0-50-10t-40.5-27.5T1418 946t-10-50 10-50 27.5-40.5T1486 778t50-10 50 10 40.5 27.5T1654 846t10 50-10 50-27.5 40.5-40.5 27.5-50 10z"/></svg>