<svg xmlns="http://www.w3.org/2000/svg" viewBox="0 0 2048 2048"><path d="M1352 1472q53 0 99.5 20t81.5 55 55 81.5 20 99.5-20 99.5-55 81.5-81.5 55-99.5 20-99.5-20-81.5-55-55-81.5-20-99.5 20-99.5 55-81.5 81.5-55 99.5-20zm0 384q27 0 50-10t40.5-27.5 27.5-40.5 10-50-10-50-27.5-40.5-40.5-27.5-50-10-50 10-40.5 27.5-27.5 40.5-10 50 10 50 27.5 40.5 40.5 27.5 50 10zm-8-704q88 0 175 21.5t165 61.5 144.5 97 115.5 128 76.5 155 27.5 177h-128q0-75-23-142.5t-63.5-124.5-95-102.5-118.5-77-134.5-48.5-141.5-17q-107 0-210 37.5t-184.5 105-131.5 162-50 207.5H640q0-93 27.5-177t76.5-155 115.5-128 144.5-97 164.5-61.5T1344 1152zm-541 768q13 34 29.5 66t36.5 62H384q-27 0-50-10t-40.5-27.5T266 1970t-10-50V128q0-27 10-50t27.5-40.5T334 10t50-10h1024q27 0 50 10t40.5 27.5T1526 78t10 50v919q-32-8-64-13t-64-7V128H384v1792h419z"/></svg>