<svg width="1792" height="1792" viewBox="0 0 1792 1792" xmlns="http://www.w3.org/2000/svg"><path transform="scale(1.75 1.75) translate(0 0)" d="M676 736q26.5 0 49.75 10t40.75 27.5 27.5 40.75 10 49.75-10 49.75-27.5 40.75-40.75 27.5-49.75 10-49.75-10-40.75-27.5-27.5-40.75-10-49.75 10-49.75 27.5-40.75 40.75-27.5 49.75-10zm0 192q13.5 0 25-5t20.25-13.75 13.75-20.25 5-25-5-25-13.75-20.25-20.25-13.75-25-5-25 5-20.25 13.75-13.75 20.25-5 25 5 25 13.75 20.25 20.25 13.75 25 5zm-4-352q44 0 87.5 10.75t82.5 30.75 72.25 48.5 57.75 64 38.25 77.5 13.75 88.5h-64q0-37.5-11.5-71.25t-31.75-62.25-47.5-51.25-59.25-38.5-67.25-24.25-70.75-8.5q-53.5 0-105 18.75t-92.25 52.5-65.75 81-25 103.75h-64q0-46.5 13.75-88.5t38.25-77.5 57.75-64 72.25-48.5 82.25-30.75 87.75-10.75zm-270.5 384q6.5 17 14.75 33t18.25 31h-242.5q-13.5 0-25-5t-20.25-13.75-13.75-20.25-5-25v-896q0-13.5 5-25t13.75-20.25 20.25-13.75 25-5h512q13.5 0 25 5t20.25 13.75 13.75 20.25 5 25v459.5q-16-4-32-6.5t-32-3.5v-449.5h-512v896h209.5z"/></svg>