<svg width="1792" height="1792" viewBox="0 0 1792 1792" xmlns="http://www.w3.org/2000/svg"><path transform="scale(1.75 1.75) translate(0 0)" d="M480 256q46.5 0 87.25 17.5t71.25 48 48 71.25 17.5 87.25-17.5 87.25-48 71.25-71.25 48-87.25 17.5-87.25-17.5-71.25-48-48-71.25-17.5-87.25 17.5-87.25 48-71.25 71.25-48 87.25-17.5zm0 384q33 0 62-12.5t50.75-34.25 34.5-51 12.75-62.25-12.75-62-34.5-50.75-50.75-34.5-62-12.75-62.25 12.75-51 34.5-34.25 50.75-12.5 62 12.5 62.25 34.25 51 51 34.25 62.25 12.5zm32-448h-64v-96h64v96zm-258.5 107l-67.5-68 45-45 68 67.5zm-61.5 213h-96v-64h96v64zm61.5 149l45.5 45.5-68 67.5-45-45zm194.5 107h64v96h-64v-96zm258.5-107l67.5 68-45 45-68-67.5zm157.5-213v64h-96v-64h96zm-157.5-149l-45.5-45.5 68-67.5 45 45z"/></svg>