<svg width="1792" height="1792" viewBox="0 0 1792 1792" xmlns="http://www.w3.org/2000/svg"><path transform="scale(1.75 1.75) translate(0 0)" d="M256 384h-128v-64h128v64zm688 64q16.5 0 31 6.25t25.5 17.25 17.25 25.5 6.25 31v368h-768v-128h-176q-16.5 0-31-6.25t-25.5-17.25-17.25-25.5-6.25-31v-416q0-16.5 6.25-31t17.25-25.5 25.5-17.25 31-6.25h672q16.5 0 31 6.25t25.5 17.25 17.25 25.5 6.25 31v176h112zm-864-192q-7 0-11.5 4.5t-4.5 11.5v304h192v-48q0-16.5 6.25-31t17.25-25.5 25.5-17.25 31-6.25h432v-176q0-7-4.5-11.5t-11.5-4.5h-672zm176 448v-64h-192v48q0 7 4.5 11.5t11.5 4.5h176zm704-176q0-7-4.5-11.5t-11.5-4.5h-608q-7 0-11.5 4.5t-4.5 11.5v304h640v-304zm-544 176q13 0 22.5 9.5t9.5 22.5-9.5 22.5-22.5 9.5-22.5-9.5-9.5-22.5 9.5-22.5 22.5-9.5zm128 0q13 0 22.5 9.5t9.5 22.5-9.5 22.5-22.5 9.5-22.5-9.5-9.5-22.5 9.5-22.5 22.5-9.5z"/></svg>