<svg xmlns="http://www.w3.org/2000/svg" viewBox="0 0 2048 2048"><path d="M512 768H256V640h256v128zm1376 128q33 0 62 12.5t51 34.5 34.5 51 12.5 62v736H512v-256H160q-33 0-62-12.5T47 1489t-34.5-51T0 1376V544q0-33 12.5-62T47 431t51-34.5 62-12.5h1344q33 0 62 12.5t51 34.5 34.5 51 12.5 62v352h224zM160 512q-14 0-23 9t-9 23v608h384v-96q0-33 12.5-62t34.5-51 51-34.5 62-12.5h864V544q0-14-9-23t-23-9H160zm352 896v-128H128v96q0 14 9 23t23 9h352zm1408-352q0-14-9-23t-23-9H672q-14 0-23 9t-9 23v608h1280v-608zM832 1408q26 0 45 19t19 45-19 45-45 19-45-19-19-45 19-45 45-19zm256 0q26 0 45 19t19 45-19 45-45 19-45-19-19-45 19-45 45-19z"/></svg>