<svg width="1792" height="1792" viewBox="0 0 1792 1792" xmlns="http://www.w3.org/2000/svg"><path transform="scale(1.75 1.75) translate(0 0)" d="M1024 192v541q-14.5-11.5-30.5-19.75t-33.5-14.25v-407.5l-448 224.5-448-224.5v476.5h352v64h-416v-640h1024zm-512 252l376.5-188h-753zm45.5 356l113 113.5-45 45-159-158.5 159-158.5 45 45zm192-32q25 0 55.25-1.25t60.75.25 59 7.25 50.75 20 35.5 38.75 13.25 63q0 26.5-10.25 49.75t-27.5 40.5-40.75 27.5-49.5 10.25v-64q13.5 0 25-5t20.25-13.75 13.75-20.25 5-25-5-25-13.75-20.25-20.25-13.75-25-5h-146.5l81 81.5-45 45-158.5-158.5 158.5-158.5 45 45z"/></svg>