<svg width="1792" height="1792" viewBox="0 0 1792 1792" xmlns="http://www.w3.org/2000/svg"><path transform="scale(1.75 1.75) translate(0 0)" d="M704 224q0 41.5-14.5 79.25t-40 67.5-60.75 49.5-76.75 25.25v514.5l-32 64-32-64v-514.5q-41.5-5.5-76.75-25.25t-60.75-49.5-40-67.5-14.5-79.25q0-46.5 17.5-87.25t48-71.25 71.25-48 87.25-17.5 87.25 17.5 71.25 48 48 71.25 17.5 87.25zm-224 160q33 0 62-12.5t50.75-34.25 34.5-51 12.75-62.25-12.75-62-34.5-50.75-50.75-34.5-62-12.75-62.25 12.75-51 34.5-34.25 50.75-12.5 62 12.5 62.25 34.25 51 51 34.25 62.25 12.5z"/></svg>