<svg width="1792" height="1792" viewBox="0 0 1792 1792" xmlns="http://www.w3.org/2000/svg"><path transform="scale(1.75 1.75) translate(0 0)" d="M960 1024h-960l192-576h256v-131q-28-6-51.5-20.5t-40.5-35.25-26.5-46.75-9.5-54.5q0-33 12.5-62t34.25-50.75 51-34.5 62.25-12.75 62 12.75 50.75 34.5 34.5 50.75 12.75 62q0 28.5-9.5 54.5t-26.5 46.75-40.5 35.25-51.5 20.5v131h256zm-576-864q0 20 7.5 37.5t20.5 30.5 30.5 20.5 37.5 7.5 37.5-7.5 30.5-20.5 20.5-30.5 7.5-37.5-7.5-37.5-20.5-30.5-30.5-20.5-37.5-7.5-37.5 7.5-30.5 20.5-20.5 30.5-7.5 37.5zm-295 800h782l-149-448h-210v240q0 4.5-3.75 7.75t-9 5-10.5 2.5-8.75.75-8.75-.75-10.5-2.5-9-5-3.75-7.75v-240h-210z"/></svg>