<svg width="1792" height="1792" viewBox="0 0 1792 1792" xmlns="http://www.w3.org/2000/svg"><path transform="scale(1.75 1.75) translate(0 0)" d="M1024 128v64h-128v128h-64v-128h-128v-64h128v-128h64v128h128zm-192 320h64v192h-64v-192zm-704 192h-64v-192h64v192zm256-512h192v64h-192v-64zm0 768h192v64h-192v-64zm320 0q26.5 0 49.75-10t40.75-27.5 27.5-40.75 10-49.75h64q0 40-15 75t-41 61-61 41-75 15v-64zm-576-128q0 26.5 10 49.75t27.5 40.75 40.75 27.5 49.75 10v64q-40 0-75-15t-61-41-41-61-15-75h64zm-64-448q0-40 15-75t41-61 61-41 75-15v64q-26.5 0-49.75 10t-40.75 27.5-27.5 40.75-10 49.75h-64z"/></svg>