<svg width="1792" height="1792" viewBox="0 0 1792 1792" xmlns="http://www.w3.org/2000/svg"><path transform="scale(1.75 1.75) translate(0 0)" d="M1024 335v449q0 25.5-11.25 46t-29.25 35.25-41 22.75-46.5 8-46.5-8-41-22.75-29.25-35.25-11.25-46 11.25-46.25 29.25-35.25 41-22.5 46.5-8q33 0 64 15.5v-270.5l-320 80v351q0 25.5-11.25 46t-29.25 35.25-41 22.75-46.5 8-46.5-8-41-22.75-29.25-35.25-11.25-46 11.25-46.25 29.25-35.25 41-22.5 46.5-8q33 0 64 15.5v-304.5zm-512 561q10 0 21.25-3t20.75-9 15.75-15 6.25-21-6.25-21-15.75-15-20.75-9-21.25-3-21.25 3-20.75 9-15.75 15-6.25 21 6.25 21 15.75 15 20.75 9 21.25 3zm384-64q10 0 21.25-3t20.75-9 15.75-15 6.25-21-6.25-21-15.75-15-20.75-9-21.25-3-21.25 3-20.75 9-15.75 15-6.25 21 6.25 21 15.75 15 20.75 9 21.25 3zm-704-512h-64v-64h64v64zm-64 64h64v64h-64v-64zm448-128h64v64h-64v-64zm-64 384h-512v-576h768v256l-64 16v-208h-64v64h-64v-64h-384v64h-64v-64h-64v448h64v-64h64v64h320v64z"/></svg>