<svg width="1792" height="1792" viewBox="0 0 1792 1792" xmlns="http://www.w3.org/2000/svg"><path transform="scale(1.75 1.75) translate(0 0)" d="M0 384q5 0 13.5.25t17.75.5 17.25.25 12.5-1l899-160q4.5-.5 13-.75t18.25 0 18.5.5 14.25.25v576q-5.5 0-15.25.25t-20.25.25h-20l-14-1-381.5-68q-5 28.5-19.25 53t-35.25 42-47.25 27.5-55.25 10q-33 0-62.25-12.5t-51-34.25-34.25-51-12.5-62.25q0-14 3-28.5l-132-23.5q-9.5-2-17.5-3.5t-15.5-3-15.5-2.75-17.5-2.75q-6-.5-13.75-.75t-16.25 0-16.75.5-14.25.25v-256zm416 416q17.5 0 33.5-6t28.5-16.75 21-25.25 11.5-32l-189-33.5q-1.5 9-1.5 17.5 0 20 7.5 37.5t20.5 30.5 30.5 20.5 37.5 7.5zm544-511.5l-896 159.5v128q3.5 0 5.5.5l890.5 159v-447z"/></svg>