<svg width="1792" height="1792" viewBox="0 0 1792 1792" xmlns="http://www.w3.org/2000/svg"><path transform="scale(1.75 1.75) translate(0 0)" d="M800 256q46.5 0 87.25 17.75t71 48 48 71 17.75 87.25-17.75 87.25-48 71-71 48-87.25 17.75h-576q-46.5 0-87.25-17.75t-71-48-48-71-17.75-87.25 17.75-87.25 48-71 71-48 87.25-17.75 87.25 17.75 71 48 48 71 17.75 87.25q0 10.5-2.25 25.25t-6.25 30.5-10 32-13.5 30.5-16.5 25.25-19 16.5h263q-10-5.5-19-16.5t-16.5-25.25-13.5-30.5-10-32-6.25-30.25-2.25-25.5q0-46.5 17.75-87.25t48-71 71-48 87.25-17.75zm-736 224q0 33 12.75 62t34.5 50.75 50.75 34.5 62 12.75 62-12.75 50.75-34.5 34.5-50.75 12.75-62-12.75-62-34.5-50.75-50.75-34.5-62-12.75-62 12.75-50.75 34.5-34.5 50.75-12.75 62zm736 160q33 0 62-12.75t50.75-34.5 34.5-50.75 12.75-62-12.75-62-34.5-50.75-50.75-34.5-62-12.75-62 12.75-50.75 34.5-34.5 50.75-12.75 62 12.75 62 34.5 50.75 50.75 34.5 62 12.75z"/></svg>