<svg xmlns="http://www.w3.org/2000/svg" viewBox="0 0 2048 2048"><path d="M1600 512q93 0 174.5 35.5t142 96 96 142T2048 960t-35.5 174.5-96 142-142 96T1600 1408H448q-93 0-174.5-35.5t-142-96-96-142T0 960t35.5-174.5 96-142 142-96T448 512t174.5 35.5 142 96 96 142T896 960q0 21-4.5 50.5t-12.5 61-20 64-27 61-33 50.5-38 33h526q-20-11-38-33t-33-50.5-27-61-20-64-12.5-60.5-4.5-51q0-93 35.5-174.5t96-142 142-96T1600 512zM128 960q0 66 25.5 124t69 101.5 101.5 69 124 25.5 124-25.5 101.5-69 69-101.5T768 960t-25.5-124-69-101.5-101.5-69T448 640t-124 25.5-101.5 69-69 101.5T128 960zm1472 320q66 0 124-25.5t101.5-69 69-101.5 25.5-124-25.5-124-69-101.5-101.5-69-124-25.5-124 25.5-101.5 69-69 101.5-25.5 124 25.5 124 69 101.5 101.5 69 124 25.5z"/></svg>