<svg width="1792" height="1792" viewBox="0 0 1792 1792" xmlns="http://www.w3.org/2000/svg"><path transform="scale(1.75 1.75) translate(0 0)" d="M352 768q-20 0-37.5-7.5t-30.5-20.5-20.5-30.5-7.5-37.5v-576q0-20 7.5-37.5t20.5-30.5 30.5-20.5 37.5-7.5h256q20 0 37.5 7.5t30.5 20.5 20.5 30.5 7.5 37.5v417q-17 5.5-33 12.75t-31 16.75v-446.5q0-13-9.5-22.5t-22.5-9.5h-256q-13 0-22.5 9.5t-9.5 22.5v576q0 13 9.5 22.5t22.5 9.5h161q-1 1-1.25 10.25t-.25 20.25.25 21 .25 12.5h-160zm448-192q46.5 0 87.25 17.5t71.25 48 48 71.25 17.5 87.25-17.5 87.25-48 71.25-71.25 48-87.25 17.5-87.25-17.5-71.25-48-48-71.25-17.5-87.25 17.5-87.25 48-71.25 71.25-48 87.25-17.5zm-160 224q0 33 12.5 62.25t34.25 51 51 34.25 62.25 12.5q23.5 0 46-6.75t42-19.75l-221.5-221.5q-13 19.5-19.75 42t-6.75 46zm293.5 88q13-19.5 19.75-42t6.75-46q0-33-12.75-62t-34.5-50.75-50.75-34.5-62-12.75q-23.5 0-46 6.75t-42 19.75zm-391 72q22.5 35.5 53.5 64h-276v-64h128v-64h-117q-42 0-79-16t-64.5-43.5-43.5-64.5-16-79v-181h64v181q0 28.5 11 54t29.75 44.25 44.25 29.75 54 11h181v128h30.5z"/></svg>