<svg width="1792" height="1792" viewBox="0 0 1792 1792" xmlns="http://www.w3.org/2000/svg"><path transform="scale(1.75 1.75) translate(0 0)" d="M352 768q-20 0-37.5-7.5t-30.5-20.5-20.5-30.5-7.5-37.5v-576q0-20 7.5-37.5t20.5-30.5 30.5-20.5 37.5-7.5h256q20 0 37.5 7.5t30.5 20.5 20.5 30.5 7.5 37.5v576q0 20-7.5 37.5t-20.5 30.5-30.5 20.5-37.5 7.5h-256zm480-256v181q0 42-16 79t-43.5 64.5-64.5 43.5-79 16h-117v64h128v64h-320v-64h128v-64h-117q-42 0-79-16t-64.5-43.5-43.5-64.5-16-79v-181h64v181q0 28.5 11 54t29.75 44.25 44.25 29.75 54 11h298q28.5 0 54-11t44.25-29.75 29.75-44.25 11-54v-181h64z"/></svg>