<svg width="1792" height="1792" viewBox="0 0 1792 1792" xmlns="http://www.w3.org/2000/svg"><path transform="scale(1.75 1.75) translate(0 0)" d="M352 768q-20 0-37.5-7.5t-30.5-20.5-20.5-30.5-7.5-37.5v-576q0-20 7.5-37.5t20.5-30.5 30.5-20.5 37.5-7.5h256q20 0 37.5 7.5t30.5 20.5 20.5 30.5 7.5 37.5v576q0 20-7.5 37.5t-20.5 30.5-30.5 20.5-37.5 7.5h-256zm-32-96q0 13 9.5 22.5t22.5 9.5h256q13 0 22.5-9.5t9.5-22.5v-576q0-13-9.5-22.5t-22.5-9.5h-256q-13 0-22.5 9.5t-9.5 22.5v576zm512-160v181q0 42-16 79t-43.5 64.5-64.5 43.5-79 16h-117v64h128v64h-320v-64h128v-64h-117q-42 0-79-16t-64.5-43.5-43.5-64.5-16-79v-181h64q0 27.5-1.75 62t-.75 70.25 6.75 69.5 21.25 60 42.75 42.25 70.75 16h298q43.5 0 70.75-16t42.75-42.25 21.25-60 6.75-69.5-.75-70-1.75-62.25h64z"/></svg>