<svg width="1792" height="1792" viewBox="0 0 1792 1792" xmlns="http://www.w3.org/2000/svg"><path transform="scale(1.75 1.75) translate(0 0)" d="M352 768q-20 0-37.5-7.5t-30.5-20.5-20.5-30.5-7.5-37.5v-576q0-20 7.5-37.5t20.5-30.5 30.5-20.5 37.5-7.5h256q20 0 37.5 7.5t30.5 20.5 20.5 30.5 7.5 37.5v417q-17 5.5-33 12.75t-31 16.75v-446.5q0-13-9.5-22.5t-22.5-9.5h-256q-13 0-22.5 9.5t-9.5 22.5v576q0 13 9.5 22.5t22.5 9.5h161q-1 1-1.25 10.25t-.25 20.25.25 21 .25 12.5h-160zm608 64q16 0 31.5-2.75t30.5-8.25q-4 43-23 80t-48.75 64.5-68.25 43-82 15.5q-46.5 0-87.25-17.5t-71.25-48-48-71.25-17.5-87.25q0-43.5 15.5-82t43-68.25 64.5-48.75 80-23q-5.5 15-8.25 30.5t-2.75 31.5q0 40 15 74.75t41.25 61 61 41.25 74.75 15zm-160 136q44 0 82-21.5t60.5-59q-46-3-86.5-22.25t-71.25-50-50-71.25-22.25-86.5q-37.5 22.5-59 60.5t-21.5 82q0 35 13.25 65.5t36 53.25 53.25 36 65.5 13.25zm-257.5-8q22.5 35.5 53.5 64h-276v-64h128v-64h-117q-42 0-79-16t-64.5-43.5-43.5-64.5-16-79v-181h64v181q0 28.5 11 54t29.75 44.25 44.25 29.75 54 11h181v128h30.5z"/></svg>