<svg width="1792" height="1792" viewBox="0 0 1792 1792" xmlns="http://www.w3.org/2000/svg"><path transform="scale(1.75 1.75) translate(0 0)" d="M832 512h64v320q0 13.5-5 25t-13.75 20.25-20.25 13.75-25 5h-768q-13.5 0-25-5t-20.25-13.75-13.75-20.25-5-25v-576q0-13.5 5-25t13.75-20.25 20.25-13.75 25-5h512v64h-512v576h768v-320zm-128-64q0-13.5-5-25t-13.75-20.25-20.25-13.75-25-5v-64q26.5 0 49.75 10t40.75 27.5 27.5 40.75 10 49.75h-64zm-64-256q53 0 99.75 20t81.5 54.75 54.75 81.5 20 99.75h-64q0-39.5-15-74.5t-41.25-61.25-61.25-41.25-74.5-15v-64zm0-128q53 0 102.25 13.75t91.75 38.75 77.5 60 60 77.5 38.75 91.75 13.75 102.25h-64q0-44-11.5-85t-32.25-76.5-50-64.75-64.75-50-76.5-32.25-85-11.5v-64z"/></svg>