<svg xmlns="http://www.w3.org/2000/svg" viewBox="0 0 2048 2048"><path d="M2048 256v128h-768v64q0 40-15 75t-41 61-61 41-75 15-75-15-61-41-41-61-15-75v-64H0V256h896v-64q0-40 15-75t41-61 61-41 75-15 75 15 61 41 41 61 15 75v64h768zm-896-64q0-26-19-45t-45-19-45 19-19 45v256q0 26 19 45t45 19 45-19 19-45V192zM448 640q40 0 75 15t61 41 41 61 15 75v64h1408v128H640v64q0 40-15 75t-41 61-61 41-75 15-75-15-61-41-41-61-15-75v-64H0V896h256v-64q0-40 15-75t41-61 61-41 75-15zm64 192q0-26-19-45t-45-19-45 19-19 45v256q0 26 19 45t45 19 45-19 19-45V832zM0 1536h896v128H0v-128zm1680-207q54 54 83 124.5t29 146.5-29 146.5-83 124.5l-91-90q36-36 55.5-83t19.5-98-19.5-98-55.5-83zm181-182q91 91 139 208t48 245-48 245-139 208l-91-91q72-72 111-165.5t39-196.5-39-196.5-111-165.5zm-416 5h91v896h-91l-256-256h-165v-384h165zm-37 219l-165 165h-91v128h91l165 165v-458z"/></svg>