<svg width="1792" height="1792" viewBox="0 0 1792 1792" xmlns="http://www.w3.org/2000/svg"><path transform="scale(1.75 1.75) translate(0 0)" d="M832 384q26.5 0 49.75 10t40.75 27.5 27.5 40.75 10 49.75-10 49.75-27.5 40.75-40.75 27.5-49.75 10h-188l-128 256h-197l64-256h-91.5l-31.5 64h-231.5l95.5-192-95.5-192h231.5l31.5 64h91.5l-64-256h197l128 256h188zm0 192q13.5 0 25-5t20.25-13.75 13.75-20.25 5-25-5-25-13.75-20.25-20.25-13.75-25-5h-227.5l-128-256h-75.5l64 256h-213l-31.5-64h-88.5l64 128-64 128h88.5l31.5-64h213l-64 256h75.5l128-256h227.5z"/></svg>