<svg xmlns="http://www.w3.org/2000/svg" viewBox="0 0 1536 1024"><path d="M1472 448v128h-64v256h-1152v-64h1088v-512h-964.5q-7.5-17.5-18.25-33.5t-23.75-30.5h1070.5v256h64zm-1152-96q0 28.5-9.5 54.5t-26.5 46.75-40.5 35.25-51.5 20.5v323h-64v-323q-28-6-51.5-20.5t-40.5-35.25-26.5-46.75-9.5-54.5q0-33 12-61.25t35-51.75l113-113.5 113 113.5q23 23.5 35 51.75t12 61.25zm-256 0q0 15 4.5 29.25t13 26.25 20.25 21 26.25 14v-122.5h64v122.5q14.5-5 26.25-14t20.25-21 13-26.25 4.5-29.25q0-19-7.25-36.75t-20.75-31.25l-68-67.5-68 67.5q-13.5 13.5-20.75 31.25t-7.25 36.75zm192 219.5q45-19.5 78-55.5t50-82v270h-128v-132.5z"/></svg>