<svg xmlns="http://www.w3.org/2000/svg" viewBox="0 0 3072 2048"><path d="M2944 896v256h-128v512H512v-128h2176V512H759q-15-35-36.5-67T675 384h2141v512h128zM512 1143q90-39 156-111t100-164V640h768v768H512v-265zm128-439q0 57-19 109t-53 93.5-81 70.5-103 41v646H256v-646q-56-12-103-41t-81-70.5T19 813 0 704q0-66 24-122.5T94 478l226-227 226 227q46 47 70 103.5T640 704zm-512 0q0 30 9 58.5t26 52.5 40.5 42 52.5 28V640h128v245q29-10 52.5-28t40.5-42 26-52.5 9-58.5q0-38-14.5-73.5T456 568L320 433 184 568q-27 27-41.5 62.5T128 704z"/></svg>