<svg xmlns="http://www.w3.org/2000/svg" viewBox="0 0 2048 2048"><path d="M1050.06 512H501.093L711.08 301l-89.994-90-364.978 365 364.978 365 89.994-90-209.987-211h548.967V512zm-427.971 633q-34.998 0-67.996 13.5t-57.996 38.5l-161.99 162q-25 25-38.498 58t-13.5 68 13.5 68 38.498 58q43.997 44 79.495 78t73.495 57q37.998 23 84.495 34.5t111.493 11.5q92.994 0 191.488-29t195.988-80.5 190.488-122 175.99-154 152.99-177q69.995-93.5 120.492-190.5t78.995-194 28.498-188q0-65-11.999-111.5t-34.998-84.5-56.497-73.5q-33.497-35.5-77.495-79.5-24.998-25-57.996-38.5t-67.996-13.5-67.996 13.5Q1410.04 283 1385.04 308l-161.99 162q-24.998 25-38.498 58-13.5 33-13.5 68 0 34 11 61t27.498 49 35.498 39.5 35.498 33 27.498 30 11 30.5q0 20-15 35L900.07 1278q-14.999 15-34.997 15-23.999 0-45.498-23-21.498-23-48.497-51-26.998-28-62.496-51-35.497-23-86.494-23zm60.996 519q-49.997 0-83.995-9.5t-60.996-28-52.997-45Q459.099 1555 425.1 1521q-15-15-15-36 0-20 15-35l161.99-162q14.999-15 34.998-15 23.998 0 45.497 23t47.497 51 61.996 51 87.995 23q34.997 0 67.995-13.5t57.997-38.5l403.975-404q25-25 38.998-58t14-68q0-34-11-61.5t-27.498-49q-16.499-21.5-35.998-39t-35.998-33-27.498-30q-11-14.5-11-30.5 0-20 15-35l161.99-162q14.998-15 34.997-15 21 0 35.998 15 33.998 34 60.496 60 26.5 26 44.997 53 18.5 27 28 60.5 9.498 33.5 9.498 83.5 0 80-25.998 166.5-25.999 86.5-72.496 172T1481.036 1163t-138.99 157.5q-74.997 74.5-157.99 137.5-82.996 63-168.49 109-85.495 46-169.99 71.5t-162.49 25.5z"/></svg>