<svg width="1792" height="1792" viewBox="0 0 1792 1792" xmlns="http://www.w3.org/2000/svg"><path transform="scale(1.75 1.75) translate(0 0)" d="M525.03 256h-274.483l104.993-105.5-44.997-45-182.489 182.5 182.489 182.5 44.997-45-104.993-105.5h274.483v-64zm-213.985 316.5q-17.499 0-33.998 6.75t-28.998 19.25l-80.995 81q-12.5 12.5-19.249 29t-6.75 34 6.75 34 19.249 29q21.999 22 39.748 39t36.748 28.5 42.248 17.25 55.746 5.75q46.497 0 95.744-14.5t97.994-40.25 95.244-61 87.995-77 76.495-88.5 60.246-95.25 39.498-97 14.249-94q0-32.5-6-55.75t-17.499-42.25-28.249-36.75-38.748-39.75q-12.499-12.5-28.998-19.25t-33.998-6.75-33.998 6.75-28.998 19.25l-80.995 81q-12.499 12.5-19.249 29t-6.75 34q0 17 5.5 30.5t13.749 24.5 17.749 19.75 17.749 16.5 13.749 15 5.5 15.25q0 10-7.5 17.5l-201.988 202q-7.5 7.5-17.499 7.5-12 0-22.749-11.5t-24.249-25.5-31.248-25.5-43.247-11.5zm30.498 259.5q-24.999 0-41.998-4.75t-30.498-14-26.499-22.5-29.998-30.25q-7.5-7.5-7.5-18 0-10 7.5-17.5l80.995-81q7.5-7.5 17.499-7.5 11.999 0 22.749 11.5t23.749 25.5 30.998 25.5 43.998 11.5q17.499 0 33.998-6.75t28.999-19.25l201.987-202q12.5-12.5 19.499-29t7-34q0-17-5.5-30.75t-13.749-24.5-17.999-19.5-17.999-16.5-13.749-15-5.5-15.25q0-10 7.5-17.5l80.995-81q7.5-7.5 17.499-7.5 10.5 0 17.999 7.5 16.999 17 30.248 30t22.499 26.5 14 30.25 4.75 41.75q0 40-12.999 83.25t-36.248 86-55.246 84.25-69.495 78.75-78.995 68.75-84.245 54.5q-42.747 23-84.995 35.75t-81.245 12.75z"/></svg>