<svg xmlns="http://www.w3.org/2000/svg" viewBox="0 0 2048 2048"><path d="M1024 512h549l-210-211 90-90 365 365-365 365-90-90 210-211h-549V512zm428 633q35 0 68 13.5t58 38.5l162 162q25 25 38.5 58t13.5 68-13.5 68-38.5 58q-44 44-79.5 78t-73.5 57-84.5 34.5T1391 1792q-93 0-191.5-29t-196-80.5-190.5-122-176-154-153-177T363.5 1039t-79-194T256 657q0-65 12-111.5t35-84.5 56.5-73.5T437 308q25-25 58-38.5t68-13.5 68 13.5 58 38.5l162 162q25 25 38.5 58t13.5 68q0 34-11 61t-27.5 49-35.5 39.5-35.5 33-27.5 30-11 30.5q0 20 15 35l404 404q15 15 35 15 24 0 45.5-23t48.5-51 62.5-51 86.5-23zm-61 519q50 0 84-9.5t61-28 53-45 60-60.5q15-15 15-36 0-20-15-35l-162-162q-15-15-35-15-24 0-45.5 23t-47.5 51-62 51-88 23q-35 0-68-13.5t-58-38.5L679 965q-25-25-39-58t-14-68q0-34 11-61.5t27.5-49 36-39 36-33 27.5-30 11-30.5q0-20-15-35L598 399q-15-15-35-15-21 0-36 15-34 34-60.5 60t-45 53-28 60.5T384 656q0 80 26 166.5t72.5 172T593 1163t139 157.5T890 1458t168.5 109 170 71.5T1391 1664z"/></svg>