<svg width="1792" height="1792" viewBox="0 0 1792 1792" xmlns="http://www.w3.org/2000/svg"><path transform="scale(1.75 1.75) translate(0 0)" d="M512 256h274.5l-105-105.5 45-45 182.5 182.5-182.5 182.5-45-45 105-105.5h-274.5v-64zm214 316.5q17.5 0 34 6.75t29 19.25l81 81q12.5 12.5 19.25 29t6.75 34-6.75 34-19.25 29q-22 22-39.75 39t-36.75 28.5-42.25 17.25-55.75 5.75q-46.5 0-95.75-14.5t-98-40.25-95.25-61-88-77-76.5-88.5-60.25-95.25-39.5-97-14.25-94q0-32.5 6-55.75t17.5-42.25 28.25-36.75 38.75-39.75q12.5-12.5 29-19.25t34-6.75 34 6.75 29 19.25l81 81q12.5 12.5 19.25 29t6.75 34q0 17-5.5 30.5t-13.75 24.5-17.75 19.75-17.75 16.5-13.75 15-5.5 15.25q0 10 7.5 17.5l202 202q7.5 7.5 17.5 7.5 12 0 22.75-11.5t24.25-25.5 31.25-25.5 43.25-11.5zm-30.5 259.5q25 0 42-4.75t30.5-14 26.5-22.5 30-30.25q7.5-7.5 7.5-18 0-10-7.5-17.5l-81-81q-7.5-7.5-17.5-7.5-12 0-22.75 11.5t-23.75 25.5-31 25.5-44 11.5q-17.5 0-34-6.75t-29-19.25l-202-202q-12.5-12.5-19.5-29t-7-34q0-17 5.5-30.75t13.75-24.5 18-19.5 18-16.5 13.75-15 5.5-15.25q0-10-7.5-17.5l-81-81q-7.5-7.5-17.5-7.5-10.5 0-18 7.5-17 17-30.25 30t-22.5 26.5-14 30.25-4.75 41.75q0 40 13 83.25t36.25 86 55.25 84.25 69.5 78.75 79 68.75 84.25 54.5 85 35.75 81.25 12.75z"/></svg>