<svg width="1792" height="1792" viewBox="0 0 1792 1792" xmlns="http://www.w3.org/2000/svg"><path transform="scale(1.75 1.75) translate(0 0)" d="M256 512q13.5 0 25 5t20.25 13.75 13.75 20.25 5 25-5 25-13.75 20.25-20.25 13.75-25 5-25-5-20.25-13.75-13.75-20.25-5-25 5-25 13.75-20.25 20.25-13.75 25-5zm512 0q13.5 0 25 5t20.25 13.75 13.75 20.25 5 25-5 25-13.75 20.25-20.25 13.75-25 5-25-5-20.25-13.75-13.75-20.25-5-25 5-25 13.75-20.25 20.25-13.75 25-5zm173.5-128l-25 24.5 43.5 130.5v293q0 13.5-5 25t-13.75 20.25-20.25 13.75-25 5h-64q-13.5 0-25-5t-20.25-13.75-13.75-20.25-5-25h-512q0 13.5-5 25t-13.75 20.25-20.25 13.75-25 5h-64q-13.5 0-25-5t-20.25-13.75-13.75-20.25-5-25v-293l43.5-130.5-25-24.5h-18.5v-64h45.5l20.5 21 34.5-103.5q8-24.5 23.25-44.75t35-34.5 43.75-22.25 49.5-8h392q25.5 0 49.5 8t43.75 22.25 34.75 34.5 23.5 44.75l34.5 103.5 20.5-21h45.5v64h-18.5zm-758.5 0h658l-42-126.5q-5-14.5-14-26.5t-21-20.75-26.25-13.5-29.75-4.75h-392q-15.5 0-29.75 4.75t-26.25 13.5-21 20.75-14 26.5zm457 359.5l-20-39.5h-216l-20 39.5v24.5h256v-24.5zm256 24.5v-219l-33.5-101h-701l-33.5 101v219h192v-39.5l44-88.5h296l44 88.5v39.5h192z"/></svg>