<svg xmlns="http://www.w3.org/2000/svg" viewBox="0 0 2048 2048"><path d="M512 1024q27 0 50 10t40.5 27.5T630 1102t10 50-10 50-27.5 40.5T562 1270t-50 10-50-10-40.5-27.5T394 1202t-10-50 10-50 27.5-40.5T462 1034t50-10zm1024 0q27 0 50 10t40.5 27.5 27.5 40.5 10 50-10 50-27.5 40.5-40.5 27.5-50 10-50-10-40.5-27.5-27.5-40.5-10-50 10-50 27.5-40.5 40.5-27.5 50-10zm347-256l-50 49 87 261v586q0 27-10 50t-27.5 40.5-40.5 27.5-50 10h-128q-27 0-50-10t-40.5-27.5-27.5-40.5-10-50H512q0 27-10 50t-27.5 40.5T434 1782t-50 10H256q-27 0-50-10t-40.5-27.5T138 1714t-10-50v-586l87-261-50-49h-37V640h91l41 42 69-207q16-49 46.5-89.5t70-69T533 272t99-16h784q51 0 99 16t87.5 44.5 69.5 69 47 89.5l69 207 41-42h91v128h-37zm-1517 0h1316l-84-253q-10-29-28-53t-42-41.5-52.5-27-59.5-9.5H632q-31 0-59.5 9.5t-52.5 27-42 41.5-28 53zm914 719l-40-79H808l-40 79v49h512v-49zm512 49v-438l-67-202H323l-67 202v438h384v-79l88-177h592l88 177v79h384z"/></svg>