<svg xmlns="http://www.w3.org/2000/svg" viewBox="0 0 2048 2048"><path d="M1920 1152v640h-896v-640h128v-64q0-66 25-124t68.5-101.5 102-69T1472 768t124 25.5 101.5 69 69 101.5 25.5 124v64h128zm-640 0h384v-64q0-40-15-75t-41-61-61-41-75-15-75 15-61 41-41 61-15 75v64zm512 128h-640v384h640v-384zM640 1664h256v128H640q-27 0-50-10t-40.5-27.5T522 1714t-10-50V384q0-27 10-50t27.5-40.5T590 266t50-10h859l293 293v219h-7q-53-51-121-83v-82l-219-219H640v1280zm512-896h-128v128H896V768H768V640h128V512h128v128h128v128z"/></svg>