<svg width="1792" height="1792" viewBox="0 0 1792 1792" xmlns="http://www.w3.org/2000/svg"><path transform="scale(1.75 1.75) translate(0 0)" d="M192 960h320v64h-320q-13.5 0-25-5t-20.25-13.75-13.75-20.25-5-25v-896q0-13.5 5-25t13.75-20.25 20.25-13.75 25-5h512q13.5 0 25 5t20.25 13.75 13.75 20.25 5 25v368q-16.5 0-32.5 3t-31.5 8v-379h-512v896zm192-128h128v64h-128v-64zm576-128v320h-384v-320h64v-64q0-26.5 10-49.75t27.5-40.75 40.75-27.5 49.75-10 49.75 10 40.75 27.5 27.5 40.75 10 49.75v64h64zm-256 0h128v-64q0-13.5-5-25t-13.75-20.25-20.25-13.75-25-5-25 5-20.25 13.75-13.75 20.25-5 25v64zm192 64h-256v192h256v-192z"/></svg>