<svg width="1792" height="1792" viewBox="0 0 1792 1792" xmlns="http://www.w3.org/2000/svg"><path transform="scale(1.75 1.75) translate(0 0)" d="M512 128q53 0 102 13.75t91.75 38.75 77.75 60 60 77.75 38.75 91.75 13.75 102-13.75 102-38.75 91.75-60 77.75-77.75 60-91.75 38.75-102 13.75-102-13.75-91.75-38.75-77.75-60-60-77.75-38.75-91.75-13.75-102 13.75-102 38.75-91.75 60-77.75 77.75-60 91.75-38.75 102-13.75zm0 704q44 0 85-11.5t76.5-32.25 64.75-50 50-64.75 32.25-76.5 11.5-85-11.5-85-32.25-76.5-50-64.75-64.75-50-76.5-32.25-85-11.5-85 11.5-76.5 32.25-64.75 50-50 64.75-32.25 76.5-11.5 85 11.5 85 32.25 76.5 50 64.75 64.75 50 76.5 32.25 85 11.5zm0-512q39.5 0 74.5 15t61.25 41.25 41.25 61.25 15 74.5q0 40-15 74.75t-41.25 61-61.25 41.25-74.5 15q-40 0-74.75-15t-61-41.25-41.25-61-15-74.75q0-39.5 15-74.5t41.25-61.25 61-41.25 74.75-15z"/></svg>