<svg xmlns="http://www.w3.org/2000/svg" viewBox="0 0 2048 2048"><path d="M1120 640q0-101-26-198.5T1017 256h7q106 0 204 27.5t183.5 77.5T1567 481t120 155.5 77.5 183.5 27.5 204-27.5 204-77.5 183.5-120 155.5-155.5 120-183.5 77.5-204 27.5q-103 0-200-26.5T640.5 1689t-158-121T359 1408q105-1 202.5-29t182-78.5 154-120.5 119-155 76.5-182.5 27-202.5zm-96 1024q133 0 249.5-50t203.5-137 137-203.5 50-249.5q0-106-32-202t-90.5-175.5-140.5-139-182-93.5q29 113 29 226 0 150-47.5 287.5T1067 1179t-205.5 197.5T598 1501q91 79 198 121t228 42z"/></svg>