<svg width="1792" height="1792" viewBox="0 0 1792 1792" xmlns="http://www.w3.org/2000/svg"><path transform="scale(1.75 1.75) translate(0 0)" d="M560 320q0-50.5-13-99.25t-38.5-92.75h3.5q53 0 102 13.75t91.75 38.75 77.75 60 60 77.75 38.75 91.75 13.75 102-13.75 102-38.75 91.75-60 77.75-77.75 60-91.75 38.75-102 13.75q-51.5 0-100-13.25t-91.75-38.25-79-60.5-61.75-80q52.5-.5 101.25-14.5t91-39.25 77-60.25 59.5-77.5 38.25-91.25 13.5-101.25zm-48 512q66.5 0 124.75-25t101.75-68.5 68.5-101.75 25-124.75q0-53-16-101t-45.25-87.75-70.25-69.5-91-46.75q14.5 56.5 14.5 113 0 75-23.75 143.75t-66.75 125.75-102.75 98.75-131.75 62.25q45.5 39.5 99 60.5t114 21z"/></svg>