<svg xmlns="http://www.w3.org/2000/svg" viewBox="0 0 2048 2048"><path d="M1472 896q93 0 174.5 35t142.5 96 96 142.5 35 174.5-35 174.5-96 142.5-142.5 96-174.5 35-174.5-35-142.5-96-96-142.5-35-174.5 35-174.5 96-142.5 142.5-96 174.5-35zm-320 448q0 66 25 124.5t68.5 102 102 68.5 124.5 25q47 0 92-13.5t84-39.5l-443-443q-26 39-39.5 84t-13.5 92zm587 176q26-39 39.5-84t13.5-92q0-66-25.5-124t-69-101.5-101.5-69-124-25.5q-47 0-92 13.5t-84 39.5zm-782 144q23 35 49.5 67.5t57.5 60.5H640q-27 0-50-10t-40.5-27.5T522 1714t-10-50V384q0-27 10-50t27.5-40.5T590 266t50-10h859l293 293v280q-30-19-62-34.5t-66-26.5V603l-219-219H640v1280h317z"/></svg>