<svg xmlns="http://www.w3.org/2000/svg" viewBox="0 0 2048 2048"><path d="M900 1258q75-142 183.5-256t241-194.5 284-124T1920 640v128q-155 0-300.5 45.5t-269.5 129-221 201T973 1404zM701 861q109-142 245.5-254.5T1240 416t329-119 351-41v128q-173 0-338 41.5T1268.5 545 992 735.5 765 989zm1027 547q40 0 75 15t61 41 41 61 15 75-15 75-41 61-61 41-75 15-75-15-61-41-41-61-15-75 15-75 41-61 61-41 75-15zm-575 357q0-102 29-196.5t81-177 124-150 157-116 180.5-75T1920 1024v128q-88 0-170 23t-153 64.5-129.5 100-100 129.5-64.5 153-23 170h-113q-1-1-3-5t-4.5-8.5-4.5-8.5-2-5zm-641-37v-320h128v320H512zm0 192v-128h128v128H512zM0 2048L576 896l576 1152H0zm181-112h790l-395-790z"/></svg>