<svg width="1792" height="1792" viewBox="0 0 1792 1792" xmlns="http://www.w3.org/2000/svg"><path transform="scale(1.75 1.75) translate(0 0)" d="M448 320h64v576h-64v-576zm235.5-107.5q40.5 40.5 62.5 93.25t22 110.25-22 110.25-62.5 93.25l-45-45q31.5-31.5 48.25-72.5t16.75-86-16.75-86-48.25-72.5zm-362 45q-31.5 31.5-48.5 72.5t-17 86 17 86 48.5 72.5l-45 45q-40.5-40.5-62.5-93.25t-22-110.25 22-110.25 62.5-93.25zm498-181q68 68.5 104.25 155.5t36.25 184-36.25 184-104.25 155.5l-45.5-45.5q59-59 90.5-134.75t31.5-159.25-31.5-159.25-90.5-134.75zm-633.5 45.5q-59 59-90.5 134.75t-31.5 159.25 31.5 159.25 90.5 134.75l-45.5 45.5q-68-68.5-104.25-155.5t-36.25-184 36.25-184 104.25-155.5z"/></svg>