<svg xmlns="http://www.w3.org/2000/svg" viewBox="0 0 2048 2048"><path d="M1152 1792q0-106 27.5-204.5T1257 1404t120-155 155-120 183.5-77.5T1920 1024v128q-88 0-170 23t-153 64.5-129.5 100-100 129.5-64.5 153-23 170h-128zm-384 0q0-159 41-306.5T925 1210t180-233 233-180 275.5-116 306.5-41v128q-141 0-272 36.5T1403.5 908t-207 160.5-160.5 207T932.5 1520 896 1792H768zm-384 0q0-212 55-408t155-367 240-311 311-240 367-155 408-55v128q-194 0-373.5 50.5t-336 142T925 797t-220.5 285.5-142 336T512 1792H384zm1344-384q40 0 75 15t61 41 41 61 15 75-15 75-41 61-61 41-75 15-75-15-61-41-41-61-15-75 15-75 41-61 61-41 75-15z"/></svg>