<svg xmlns="http://www.w3.org/2000/svg" viewBox="0 0 2048 2048"><path d="M896 640h128v1152H896V640zm471-215q81 81 125 186.5t44 220.5-44 220.5-125 186.5l-90-90q63-63 96.5-145t33.5-172-33.5-172-96.5-145zm-724 90q-63 63-97 145t-34 172 34 172 97 145l-90 90q-81-81-125-186.5T384 832t44-220.5T553 425zm996-362q136 137 208.5 311t72.5 368-72.5 368-208.5 311l-91-91q118-118 181-269.5t63-318.5-63-318.5T1548 244zM372 244Q254 362 191 513.5T128 832t63 318.5T372 1420l-91 91q-136-137-208.5-311T0 832t72.5-368T281 153z"/></svg>