<svg width="1792" height="1792" viewBox="0 0 1792 1792" xmlns="http://www.w3.org/2000/svg"><path transform="scale(1.75 1.75) translate(0 0)" d="M128 448q13.5 0 25 5t20.25 13.75 13.75 20.25 5 25-5 25-13.75 20.25-20.25 13.75-25 5-25-5-20.25-13.75-13.75-20.25-5-25 5-25 13.75-20.25 20.25-13.75 25-5zm384 0q13.5 0 25 5t20.25 13.75 13.75 20.25 5 25-5 25-13.75 20.25-20.25 13.75-25 5-25-5-20.25-13.75-13.75-20.25-5-25 5-25 13.75-20.25 20.25-13.75 25-5zm384 0q13.5 0 25 5t20.25 13.75 13.75 20.25 5 25-5 25-13.75 20.25-20.25 13.75-25 5-25-5-20.25-13.75-13.75-20.25-5-25 5-25 13.75-20.25 20.25-13.75 25-5z"/></svg>