<svg width="1792" height="1792" viewBox="0 0 1792 1792" xmlns="http://www.w3.org/2000/svg"><path transform="scale(1.75 1.75) translate(0 0)" d="M592 0q50 0 93.75 18.75t76.25 51.25 51.25 76.25 18.75 93.75v432q0 48.5-12.5 93.5t-35.5 84.25-55 71.25-71.25 55-84.25 35.5-93.5 12.5-93.5-12.5-84.25-35.5-71.25-55-55-71.25-35.5-84.25-12.5-93.5v-432q0-50 18.75-93.75t51.25-76.25 76.25-51.25 93.75-18.75h224zm176 240q0-36.5-13.75-68.5t-37.75-56-56-37.75-68.5-13.75h-80v320h-64v-320h-80q-36.5 0-68.5 13.75t-56 37.75-37.75 56-13.75 68.5v432q0 59.5 22.75 112t61.75 91.5 91.5 61.75 112 22.75 112-22.75 91.5-61.75 61.75-91.5 22.75-112v-432z"/></svg>