<svg width="1792" height="1792" viewBox="0 0 1792 1792" xmlns="http://www.w3.org/2000/svg"><path transform="scale(1.75 1.75) translate(0 0)" d="M448 896h-128v-64h128v64zm32-376l-160 120v-240zm416 120q13.5 0 25 5t20.25 13.75 13.75 20.25 5 25-5 25-13.75 20.25-20.25 13.75-25 5v64q0 13.5-5 25t-13.75 20.25-20.25 13.75-25 5-25-5-20.25-13.75-13.75-20.25-5-25 5-25 13.75-20.25 20.25-13.75 25-5v-528q0-36.5-13.75-68.5t-37.75-56-56-37.75-68.5-13.75q-39.5 0-75 16.75t-61 47.25h120q13.5 0 25 5t20.25 13.75 13.75 20.25 5 25v768q0 13.5-5 25t-13.75 20.25-20.25 13.75-25 5h-512q-13.5 0-25-5t-20.25-13.75-13.75-20.25-5-25v-768q0-13.5 5-25t13.75-20.25 20.25-13.75 25-5h315.5q15.5-29.5 38.25-53.25t50.25-40.25 59-25.5 65-9q50 0 93.75 18.75t76.25 51.25 51.25 76.25 18.75 93.75v400zm-256-448h-512v768h512v-768z"/></svg>