<svg xmlns="http://www.w3.org/2000/svg" viewBox="0 0 2048 2048"><path d="M896 1792H640v-128h256v128zm64-752l-320 240V800zm832 240q27 0 50 10t40.5 27.5 27.5 40.5 10 50-10 50-27.5 40.5-40.5 27.5-50 10v128q0 27-10 50t-27.5 40.5-40.5 27.5-50 10-50-10-40.5-27.5-27.5-40.5-10-50 10-50 27.5-40.5 40.5-27.5 50-10V480q0-73-27.5-137T1561 231t-112-75.5-137-27.5q-79 0-150 33.5T1040 256h240q27 0 50 10t40.5 27.5T1398 334t10 50v1536q0 27-10 50t-27.5 40.5-40.5 27.5-50 10H256q-27 0-50-10t-40.5-27.5T138 1970t-10-50V384q0-27 10-50t27.5-40.5T206 266t50-10h631q31-59 76.5-106.5T1064 69t118-51 130-18q100 0 187.5 37.5T1652 140t102.5 152.5T1792 480v800zm-512-896H256v1536h1024V384z"/></svg>