<svg width="1792" height="1792" viewBox="0 0 1792 1792" xmlns="http://www.w3.org/2000/svg"><path transform="scale(1.75 1.75) translate(0 0)" d="M770.5 413.5q-45.5-45.5-104-69.5t-122.5-24-122.5 24-104 69.5l-45-45q54.5-54.5 124.25-83.5t147.25-29 147.25 29 124.25 83.5zm-407.5 45.5q36.5-36.5 83-55.75t98-19.25 98 19.25 83 55.75l-45.5 45q-27-27-62.25-41.5t-73.25-14.5-73.25 14.5-62.25 41.5zm565 117q20 0 37.5 7.5t30.5 20.5 20.5 30.5 7.5 37.5v224h-704v-224q0-20 7.5-37.5t20.5-30.5 30.5-20.5 37.5-7.5h512zm32 96q0-13-9.5-22.5t-22.5-9.5h-512q-13 0-22.5 9.5t-9.5 22.5v160h576v-160zm-128 32h64v64h-64v-64zm-128 0h64v64h-64v-64zm-640-64h192v64h-256v-640h960v448h-64v-384h-832v512z"/></svg>