<svg width="1792" height="1792" viewBox="0 0 1792 1792" xmlns="http://www.w3.org/2000/svg"><path transform="scale(1.75 1.75) translate(0 0)" d="M512 704v64h128v64h-320v-64h128v-64h-448v-576h960v576h-448zm-448-64h832v-448h-832v448zm576-320q26.5 0 49.75 10t40.75 27.5 27.5 40.75 10 49.75-10 49.75-27.5 40.75-40.75 27.5-49.75 10h-320q-26.5 0-49.75-10t-40.75-27.5-27.5-40.75-10-49.75 10-49.75 27.5-40.75 40.75-27.5 49.75-10 49.75 10 40.75 27.5 27.5 40.75 10 49.75q0 35-17 64h98q-17-29-17-64 0-26.5 10-49.75t27.5-40.75 40.75-27.5 49.75-10zm-384 128q0 13.5 5 25t13.75 20.25 20.25 13.75 25 5 25-5 20.25-13.75 13.75-20.25 5-25-5-25-13.75-20.25-20.25-13.75-25-5-25 5-20.25 13.75-13.75 20.25-5 25zm384 64q13.5 0 25-5t20.25-13.75 13.75-20.25 5-25-5-25-13.75-20.25-20.25-13.75-25-5-25 5-20.25 13.75-13.75 20.25-5 25 5 25 13.75 20.25 20.25 13.75 25 5z"/></svg>