<svg xmlns="http://www.w3.org/2000/svg" viewBox="0 0 2048 2048"><path d="M1024 1408v128h256v128H640v-128h256v-128H0V256h1920v1152h-896zm-896-128h1664V384H128v896zm1152-640q53 0 99.5 20t81.5 55 55 81.5 20 99.5-20 99.5-55 81.5-81.5 55-99.5 20H640q-53 0-99.5-20t-81.5-55-55-81.5-20-99.5 20-99.5 55-81.5 81.5-55 99.5-20 99.5 20 81.5 55 55 81.5 20 99.5q0 70-34 128h196q-34-58-34-128 0-53 20-99.5t55-81.5 81.5-55 99.5-20zM512 896q0 27 10 50t27.5 40.5T590 1014t50 10 50-10 40.5-27.5T758 946t10-50-10-50-27.5-40.5T690 778t-50-10-50 10-40.5 27.5T522 846t-10 50zm768 128q27 0 50-10t40.5-27.5T1398 946t10-50-10-50-27.5-40.5T1330 778t-50-10-50 10-40.5 27.5T1162 846t-10 50 10 50 27.5 40.5 40.5 27.5 50 10z"/></svg>