<svg xmlns="http://www.w3.org/2000/svg" viewBox="0 0 2048 2048"><path d="M1541 827q-91-91-208-139t-245-48-245 48-208 139l-90-90q109-109 248.5-167t294.5-58 294.5 58T1631 737zm-815 91q73-73 166-111.5t196-38.5 196 38.5T1450 918l-91 90q-54-54-124.5-83T1088 896t-146.5 29-124.5 83zm1130 234q40 0 75 15t61 41 41 61 15 75v448H640v-448q0-40 15-75t41-61 61-41 75-15h1024zm64 192q0-26-19-45t-45-19H832q-26 0-45 19t-19 45v320h1152v-320zm-256 64h128v128h-128v-128zm-256 0h128v128h-128v-128zM128 1280h384v128H0V128h1920v896h-128V256H128v1024z"/></svg>