<svg width="1792" height="1792" viewBox="0 0 1792 1792" xmlns="http://www.w3.org/2000/svg"><path transform="scale(1.75 1.75) translate(0 0)" d="M960 64v896h-896v-896h896zm-64 64h-768v768h768v-768zm-384 704q-66.5 0-124.75-25t-101.75-68.5-68.5-101.75-25-124.75 25-124.75 68.5-101.75 101.75-68.5 124.75-25 124.75 25 101.75 68.5 68.5 101.75 25 124.75-25 124.75-68.5 101.75-101.75 68.5-124.75 25zm0-576q-53 0-99.5 20.25t-81.25 55-55 81.25-20.25 99.5 20.25 99.5 55 81.25 81.25 55 99.5 20.25 99.5-20.25 81.25-55 55-81.25 20.25-99.5-20.25-99.5-55-81.25-81.25-55-99.5-20.25zm0 320q-13.5 0-25-5t-20.25-13.75-13.75-20.25-5-25 5-25 13.75-20.25 20.25-13.75 25-5 25 5 20.25 13.75 13.75 20.25 5 25-5 25-13.75 20.25-20.25 13.75-25 5z"/></svg>