<svg xmlns="http://www.w3.org/2000/svg" viewBox="0 0 2048 2048"><path d="M512 896q106 0 199.5 40t163 109.5 109.5 163 40 199.5v448q0 40-15 75t-41 61-61 41-75 15H640v-512h192q33 0 64 11v-139q0-79-30-149t-82.5-122.5T661 1054t-149-30q-80 0-149.5 30t-122 82.5T158 1259t-30 149v139q31-11 64-11h192v512H192q-40 0-75-15t-61-41-41-61-15-75v-448q0-106 40-199.5t109.5-163 163-109.5T512 896zM1536 0q106 0 199.5 40t163 109.5 109.5 163 40 199.5v448q0 46-21.5 88t-59.5 68q-38-30-81.5-53.5T1795 1024h33q17 0 33.5-2t29.5-8.5 21-19 8-34.5V832q0-27-18.5-45.5T1856 768h-64v255q-32-10-64-17t-64-11V640h192q33 0 64 11V512q0-79-30-149t-82.5-122.5T1685 158t-149-30q-80 0-149.5 30t-122 82.5T1182 363t-30 149v139q31-11 64-11h192v383q-122 40-216 126-36-4-67-20.5t-53.5-42-35-58T1024 960V512q0-106 40-199.5t109.5-163 163-109.5T1536 0zm-320 768q-27 0-45.5 18.5T1152 832v128q0 27 18.5 45.5t45.5 18.5h64V768h-64zM384 384q-27 0-50 10t-40.5 27.5T266 462t-10 50v128H128V512q0-53 20-99.5t55-81.5 81.5-55 99.5-20h293L515 93l90-90 317 317-317 317-90-90 162-163H384zm1216 768q93 0 174.5 35t142.5 96 96 142.5 35 174.5-35 174.5-96 142.5-142.5 96-174.5 35-174.5-35-142.5-96-96-142.5-35-174.5 35-174.5 96-142.5 142.5-96 174.5-35zm-320 448q0 66 25 124.5t68.5 102 102 68.5 124.5 25q47 0 92-13.5t84-39.5l-443-443q-26 39-39.5 84t-13.5 92zm587 176q26-39 39.5-84t13.5-92q0-66-25.5-124t-69-101.5-101.5-69-124-25.5q-47 0-92 13.5t-84 39.5z"/></svg>