<svg xmlns="http://www.w3.org/2000/svg" viewBox="0 0 2048 2048"><path d="M1920 128v1792H128V128h1792zm-128 128H256v1536h1536V256zm-768 1408q-133 0-249.5-50T571 1477t-137-203.5-50-249.5 50-249.5T571 571t203.5-137 249.5-50 249.5 50T1477 571t137 203.5 50 249.5-50 249.5-137 203.5-203.5 137-249.5 50zm0-1152q-106 0-199 40.5t-162.5 110-110 162.5-40.5 199 40.5 199 110 162.5 162.5 110 199 40.5 199-40.5 162.5-110 110-162.5 40.5-199-40.5-199-110-162.5-162.5-110-199-40.5zm0 640q-27 0-50-10t-40.5-27.5T906 1074t-10-50 10-50 27.5-40.5T974 906t50-10 50 10 40.5 27.5T1142 974t10 50-10 50-27.5 40.5-40.5 27.5-50 10z"/></svg>