<svg width="1792" height="1792" viewBox="0 0 1792 1792" xmlns="http://www.w3.org/2000/svg"><path transform="scale(1.75 1.75) translate(0 0)" d="M576 0q0 52 23 93.25t61.5 74.25q49.5 43 78.5 96.5t29 120h-64q0-52-23-93.25t-61.5-74.25q-12-10-22.75-21t-20.75-23v707.5q0 4.5-1.5 10.75t-3.5 12.75-4.75 12.5-4.75 10q-12.5 24-32 42.5t-43 30.75-50 18.5-52.5 6.25q-34 0-68.25-11t-61.75-31.5-44.75-50.25-17.25-67.25 17.25-67.25 44.75-50.25 61.75-31.5 68.25-11q34.5 0 67.5 10.25t60.5 31.25v-745.5h64zm-192 960q20.5 0 43-6t41.5-18 31.25-30 12.25-42-12.25-42-31.25-30-41.5-18-43-6-43 6-41.5 18-31.25 30-12.25 42 12.25 42 31.25 30 41.5 18 43 6z"/></svg>