<svg xmlns="http://www.w3.org/2000/svg" viewBox="0 0 2048 2048"><path d="M1836 517q42 87 63 184.5t21 194.5q0 131-36 252.5T1781.5 1375 1620 1565t-212 141v86H768v128h256v128H384v-128h256v-128H0V896h128q0-124 32-238.5t90.5-214 140-181 181-140 214-90.5T1024 0q130 0 252 36t227.5 102.5 190 161.5T1834 512h2v5zm-147-5q-73-127-187-217.5T1248 161q48 78 77.5 169.5T1372 512h317zm103 384q0-132-44-256h-356q16 128 16 255v257h340q44-124 44-256zm-512 0q0-65-4-128.5T1264 640H784q-8 64-12 127.5T768 896h512zm-256-763q-29 0-55.5 21.5t-49 56-41 77.5-33 85-24.5 79-15 60h436q-5-23-15-60t-24.5-79-33-85-41-77.5-49-56T1024 133zm-224 28q-140 43-254 133.5T359 512h317q17-90 46.5-181.5T800 161zM300 640q-44 124-44 256h384q0-65 4-128.5T656 640H300zM128 1664h1152v-640H128v640zm1280-103q88-51 159.5-122t122.5-159h-282v281z"/></svg>