<svg width="1792" height="1792" viewBox="0 0 1792 1792" xmlns="http://www.w3.org/2000/svg"><path transform="scale(1.75 1.75) translate(0 0)" d="M918 258.5q21 43.5 31.5 92.25t10.5 97.25q0 65.5-18 126.25t-51.25 113.25-80.75 95-106 70.5v43h-320v64h128v64h-320v-64h128v-64h-320v-448h64q0-62 16-119.25t45.25-107 70-90.5 90.5-70 107-45.25 119.25-16q65 0 126 18t113.75 51.25 95 80.75 70.25 106h1v2.5zm-73.5-2.5q-36.5-63.5-93.5-108.75t-127-66.75q24 39 38.75 84.75t23.25 90.75h158.5zm51.5 192q0-66-22-128h-178q8 64 8 127.5v128.5h170q22-62 22-128zm-256 0q0-32.5-2-64.25t-6-63.75h-240q-4 32-6 63.75t-2 64.25h256zm-128-381.5q-14.5 0-27.75 10.75t-24.5 28-20.5 38.75-16.5 42.5-12.25 39.5-7.5 30h218q-2.5-11.5-7.5-30t-12.25-39.5-16.5-42.5-20.5-38.75-24.5-28-27.75-10.75zm-112 14q-70 21.5-127 66.75t-93.5 108.75h158.5q8.5-45 23.25-90.75t38.75-84.75zm-250 239.5q-22 62-22 128h192q0-32.5 2-64.25t6-63.75h-178zm-86 512h576v-320h-576v320zm640-51.5q44-25.5 79.75-61t61.25-79.5h-141v140.5z"/></svg>