<svg xmlns="http://www.w3.org/2000/svg" viewBox="0 0 2048 2048"><path d="M1024 0q140 0 270 36t243 102 206.5 158.5 160.5 205 104.5 242T2047 1013l-108-108-26 25q-5-42-12-82t-19-80h-362q8 64 12 127.5t4 128.5-4 128.5-12 127.5h43l-217 218 23-90h-116l-120-119-119 119H679q14 66 34.5 129t47.5 124l-80 80 304 305q-137-5-263-44.5T486.5 1894 287 1733t-153.5-205T35 1288.5 0 1024q0-141 36.5-272T140 507.5t160.5-207 207-160.5T752 36.5 1024 0zm0 128q-49 0-91.5 27.5t-78 72.5T790 329t-51 113-37 109-23 89h690q-8-37-23-89t-37-109-51-113-64.5-101-78-72.5T1024 128zm-292 50q-85 29-162 74.5T427 357 307.5 487.5 216 640h332q12-59 28.5-120.5t39-121T667 283t65-105zm-604 846q0 130 38 256h362q-8-64-12-127.5t-4-128.5 4-128.5T528 768H166q-38 126-38 256zm604 846q-36-49-65-105t-51.5-115.5-39-121T548 1408H216q38 81 91.5 152.5T427 1691t143 104.5 162 74.5zm659-590q9-64 13-127.5t4-128.5-4-128.5-13-127.5H657q-9 64-13 127.5t-4 128.5 4 128.5 13 127.5h734zm441-640q-38-81-91.5-152.5T1621 357t-143-104.5-162-74.5q36 49 64.5 105t51 115.5 39.5 121 29 120.5h332z"/></svg>