<svg width="1792" height="1792" viewBox="0 0 1792 1792" xmlns="http://www.w3.org/2000/svg"><path transform="scale(1.75 1.75) translate(0 0)" d="M896 960h-192v64h-448v-64h-192v-64h192v-64h128v-64h64v-64h-192v-64h-128v-320q0-13.5 5-25t13.75-20.25 20.25-13.75 25-5h64v-256h448v256h64q13.5 0 25 5t20.25 13.75 13.75 20.25 5 25v320h-128v64h-192v64h64v64h128v64h192v64zm-576-704h320v-192h-320v192zm-64 320v-64h448v64h64v-256h-576v256h64zm384 64v-64h-320v64h320zm0 256h-128v-64h-64v64h-128v64h320v-64zm-352-448q-13 0-22.5-9.5t-9.5-22.5 9.5-22.5 22.5-9.5 22.5 9.5 9.5 22.5-9.5 22.5-22.5 9.5z"/></svg>