<svg width="1792" height="1792" viewBox="0 0 1792 1792" xmlns="http://www.w3.org/2000/svg"><path transform="scale(1.75 1.75) translate(0 0)" d="M594 397q22.5-21.5 34.75-49.5t12.25-59.5-12.25-59.5-34.75-49.5l44.5-46q32 31 49.25 70.75t17.25 84.25-17.25 84.25-49.25 70.75zm133.5-356q25 24 44.75 52.5t33.25 60 20.5 65.5 7 69-7 69-20.5 65.5-33.25 60-44.75 52.5l-44.5-46q41.5-40 63.75-91.75t22.25-109.25-22.25-109.25-63.75-91.75zm-406 402q-32-31-49.25-70.75t-17.25-84.25 17.25-84.25 49.25-70.75l44.5 46q-22.5 21.5-34.75 49.5t-12.25 59.5 12.25 59.5 34.75 49.5zm-89 92q-25-24-44.75-52.5t-33.25-60-20.5-65.5-7-69 7-69 20.5-65.5 33.25-60 44.75-52.5l44.5 46q-41.5 40-63.75 91.75t-22.25 109.25 22.25 109.25 63.75 91.75zm343.5-247q0 22.5-9.75 42.25t-27.25 33.25l198.5 596.5h-67l-43-128h-295l-43 128h-67l198.5-596.5q-17.5-13.5-27.25-33.25t-9.75-42.25q0-20 7.5-37.5t20.5-30.5 30.5-20.5 37.5-7.5 37.5 7.5 30.5 20.5 20.5 30.5 7.5 37.5zm-96-32q-13 0-22.5 9.5t-9.5 22.5 9.5 22.5 22.5 9.5 22.5-9.5 9.5-22.5-9.5-22.5-22.5-9.5zm0 133l-62.5 187h125zm126.5 379l-43-128h-167l-43 128h253z"/></svg>