<svg xmlns="http://www.w3.org/2000/svg" viewBox="0 0 2048 2048"><path d="M320 896q-26 0-45-19t-19-45 19-45 45-19 45 19 19 45-19 45-45 19zm1600 384q33 0 62.5 16t46.5 45q19 32 19 67 0 30-14 58l-299 582H640v-640H256v-128H0V640q0-27 10-50t27.5-40.5T78 522t50-10h128V0h896v512h128q27 0 50 10t40.5 27.5T1398 590t10 50v384h256q27 0 50 10t40.5 27.5 27.5 40.5 10 50v128h128zM384 512h640V128H384v384zm-128 640v-128h384q0-27 10-50t27.5-40.5T718 906t50-10h224q63 0 102 17t67.5 38.5 54.5 42 64 27.5V640H128v512h128zm384 128v-128H384v128h256zm128 433l181-362q17-33 47.5-52t67.5-19h600v-128h-352q-45 0-77.5-9.5t-58-23.5-45.5-31-40.5-31-44-23.5-54.5-9.5H768v689zm1152-305h-856l-256 512h849z"/></svg>