<svg xmlns="http://www.w3.org/2000/svg" viewBox="0 0 2048 2048"><path d="M1188 794q45-43 69.5-99t24.5-119-24.5-119-69.5-99l89-92q64 62 98.5 141.5T1410 576t-34.5 168.5T1277 886zm267-712q50 48 89.5 105t66.5 120 41 131 14 138-14 138-41 131-66.5 120-89.5 105l-89-92q83-80 127.5-183.5T1538 576t-44.5-218.5T1366 174zM643 886q-64-62-98.5-141.5T510 576t34.5-168.5T643 266l89 92q-45 43-69.5 99T638 576t24.5 119 69.5 99zm-178 184q-50-48-89.5-105T309 845t-41-131-14-138 14-138 41-131 66.5-120T465 82l89 92q-83 80-127.5 183.5T382 576t44.5 218.5T554 978zm687-494q0 45-19.5 84.5T1078 727l397 1193h-134l-86-256H665l-86 256H445L842 727q-35-27-54.5-66.5T768 576q0-40 15-75t41-61 61-41 75-15 75 15 61 41 41 61 15 75zm-192-64q-26 0-45 19t-19 45 19 45 45 19 45-19 19-45-19-45-45-19zm0 266l-125 374h250zm253 758l-86-256H793l-86 256h506z"/></svg>