<svg xmlns="http://www.w3.org/2000/svg" viewBox="0 0 2048 2048"><path d="M1600 1152q93 0 174.5 35t142.5 96 96 142.5 35 174.5-35 174.5-96 142.5-142.5 96-174.5 35-174.5-35-142.5-96-96-142.5-35-174.5 35-174.5 96-142.5 142.5-96 174.5-35zm-320 448q0 66 25 124.5t68.5 102 102 68.5 124.5 25q47 0 92-13.5t84-39.5l-443-443q-26 39-39.5 84t-13.5 92zm587 176q26-39 39.5-84t13.5-92q0-66-25.5-124t-69-101.5-101.5-69-124-25.5q-47 0-92 13.5t-84 39.5zm-774 125q22 36 48 69t57 62q-43 8-86.5 12t-87.5 4q-141 0-272-36.5T507.5 1908t-207-160.5-160.5-207T36.5 1296 0 1024t36.5-272T140 507.5t160.5-207 207-160.5T752 36.5 1024 0t272 36.5T1540.5 140t207 160.5 160.5 207T2011.5 752t36.5 272q0 44-4 87.5t-12 86.5q-54-59-118-98l4-38 2-38q0-130-38-256h-362q8 62 11.5 123t4.5 124q-33 3-65 10t-64 18v-39q0-60-4-118.5T1391 768H657q-9 64-13 127.5t-4 128.5 4 128.5 13 127.5h446q-37 59-60 128H679q8 37 23 89t37 109 51 113 64.5 101 78 72.5 91.5 27.5q18 0 35.5-5.5t33.5-13.5zm739-1261q-38-81-91.5-152.5T1621 357t-143-104.5-162-74.5q36 49 64.5 105t51 115.5 39.5 121 29 120.5h332zm-808-512q-49 0-91.5 27.5t-78 72.5T790 329t-51 113-37 109-23 89h690q-8-37-23-89t-37-109-51-113-64.5-101-78-72.5T1024 128zm-292 50q-85 29-162 74.5T427 357 307.5 487.5 216 640h332q12-59 28.5-120.5t39-121T667 283t65-105zm-604 846q0 130 38 256h362q-8-64-12-127.5t-4-128.5 4-128.5T528 768H166q-38 126-38 256zm88 384q38 81 91.5 152.5T427 1691t143 104.5 162 74.5q-36-49-65-105t-51.5-115.5-39-121T548 1408H216z"/></svg>