<svg width="1792" height="1792" viewBox="0 0 1792 1792" xmlns="http://www.w3.org/2000/svg"><path transform="scale(1.75 1.75) translate(0 0)" d="M832 0q13.5 0 25 5t20.25 13.75 13.75 20.25 5 25v496q0 15.5 4.75 27.25t11.75 22 15.5 20.25 15.5 22.75 11.75 29 4.75 38.75v240q0 13.5-5 25t-13.75 20.25-20.25 13.75-25 5h-640v-64h512v-240q0-22.5 4.75-38.75t11.75-29 15.5-22.75 15.5-20.25 11.75-22 4.75-27.25v-496h-640v576h-64v-640h704zm64 720q0-12-2.25-21t-6.5-16.5-10-14.75-13.25-15.75q-7.5 8.5-13.25 15.75t-10 14.75-6.5 16.5-2.25 21v240h64v-240zm-576 176h-128v128h-64v-128h-128v-64h128v-128h64v128h128v64z"/></svg>