<svg width="1792" height="1792" viewBox="0 0 1792 1792" xmlns="http://www.w3.org/2000/svg"><path transform="scale(1.75 1.75) translate(0 0)" d="M509.5 787.5q-50.5 0-99.75-13t-93.5-37.25-81.75-58.75-63.5-78q-8.5-13-8.5-28 0-10.5 4-20t11.25-16.5 16.5-11 19.75-4q14 0 25 6.5t19 18q47 68 110.25 103.5t147.75 35.5q80 0 143.25-37.25t107.75-101.75q7.5-11 17.75-17.75t24.25-6.75q22.5 0 38 14t15.5 37.5q0 7.5-2 13.75t-6 12.75q-12 22-28.75 41t-34.75 36.5q-57.5 54.5-130 82.75t-151.5 28.25zm-102-498q0 16.5-6.5 31.5t-17.5 26.25-25.75 17.75-31.75 6.5-31.75-6.5-25.75-17.5-17.5-25.75-6.5-31.75 6.25-32 17.25-26.25 25.75-17.75 31.75-6.5 31.75 6.5 26 17.75 17.75 26 6.5 31.75zm210 0q0-17 6.5-32t17.5-26 26-17.5 32-6.5 31.75 6.5 25.75 17.75 17.25 26 6.25 31.75-6.5 31.75-17.5 26-25.75 17.75-31.75 6.5-31.75-6.5-25.75-17.75-17.5-26-6.5-31.75z"/></svg>