<svg xmlns="http://www.w3.org/2000/svg" viewBox="0 0 2048 2048"><path d="M1333 1145q28 6 52.5 20.5t41.5 36 27 48 10 55.5v242q0 12-4.5 38t-13 53-20 47.5-26.5 20.5q-8 0-14.5-6t-6.5-14q0-3 7-16.5t15-32.5 15-42.5 7-47.5v-242q0-22-7.5-42t-20.5-36-31-27-39-15l-346-69q-16-4-16-20V773q0-28-19.5-47.5T896 706t-47.5 19.5T829 773v681q0 8-6 14t-14 6-14.5-6-6.5-14v-182q-31 7-51 32.5t-20 57.5v208q0 23 9.5 44.5T752 1652l165 163q11 11 18 26.5t7 32.5v112q0 8-6 14.5t-14 6.5q-19 0-21.5-20.5t-.5-47.5 2-54-14-41l-165-163q-22-22-34.5-51t-12.5-60v-208q0-24 8.5-46.5t23.5-40 35.5-29.5 44.5-16V773q0-22 8.5-41.5T820 697t34.5-23.5T896 665t41.5 8.5T972 697t23.5 34.5 8.5 41.5v306z"/></svg>