<svg xmlns="http://www.w3.org/2000/svg" viewBox="0 0 2048 2048"><path d="M1019 1575q-101 0-199.5-26t-187-74.5T469 1357t-127-156q-17-26-17-56 0-21 8-40t22.5-33 33-22 39.5-8q28 0 50 13t38 36q94 136 220.5 207t295.5 71q160 0 286.5-74.5T1534 1091q15-22 35.5-35.5t48.5-13.5q45 0 76 28t31 75q0 15-4 27.5t-12 25.5q-24 44-57.5 82t-69.5 73q-115 109-260 165.5t-303 56.5zM815 579q0 33-13 63t-35 52.5-51.5 35.5-63.5 13-63.5-13-51.5-35-35-51.5-13-63.5 12.5-64 34.5-52.5 51.5-35.5 63.5-13 63.5 13 52 35.5 35.5 52 13 63.5zm420 0q0-34 13-64t35-52 52-35 64-13 63.5 13 51.5 35.5 34.5 52T1561 579t-13 63.5-35 52-51.5 35.5-63.5 13-63.5-13-51.5-35.5-35-52-13-63.5z"/></svg>