<svg width="1792" height="1792" viewBox="0 0 1792 1792" xmlns="http://www.w3.org/2000/svg"><path transform="scale(1.75 1.75) translate(0 0)" d="M359 491.5q-13 0-22.25-9.25t-9.25-22.25v-177.5q0-13 9.25-22.25t22.25-9.25h178q13 0 22.25 9.25t9.25 22.25v177.5q0 13-9.25 22.25t-22.25 9.25h-178zm-11-31.5q0 4.5 3.25 7.75t7.75 3.25h178q4.5 0 7.75-3.25t3.25-7.75v-177.5q0-4.5-3.25-7.75t-7.75-3.25h-178q-4.5 0-7.75 3.25t-3.25 7.75v177.5zm318.5 440q14 3 26.25 10.5t20.75 18.25 13.5 24 5 27.75v43.5h-20.5v-32.75l-4-31-14.25-25-30.75-14.75-173-35q-8-2-8-10v-161q0-14-9.75-23.75t-23.75-9.75q-13.5 0-23.5 9.5t-10 23.5v310h-20.5v-60q-12 2.5-19 8.5t-10.75 14-4.75 17.5-1 20h-20.5v-15.5q0-12 4.25-23.25t11.75-20 17.75-14.5 22.25-7.75v-228.5q0-11 4.25-20.75t11.75-17.25 17.25-11.75 20.75-4.25 20.75 4.25 17.25 11.5 11.75 17 4.25 20.75v153z"/></svg>