<svg width="1792" height="1792" viewBox="0 0 1792 1792" xmlns="http://www.w3.org/2000/svg"><path transform="scale(1.75 1.75) translate(0 0)" d="M599.5 588q24 12 37.25 33.5t13.25 48.5v169.5q0 4-3 7.25t-7 3.25-7-3.25-3-7.25v-169.5q0-20-10.75-37.5t-28.75-26.5l-73.5-36.5q0 3 .25 7.25t-.5 8-3 6.5-6.75 2.75-7.5-3-3-7.5v-194.5q0-14.5-10.5-25t-25-10.5-25.25 10.5-10.75 25v302q0 7-2.5 16t-7.25 17-11.5 13.25-14.75 5.25q-4 0-7-3.25t-3-7.25q0-5 4-7.5t8.75-5.75 8.75-9.25 4-18.5v-41h-36q-7.5 0-14 3.25t-11.25 8.75-7.5 12.25-2.75 14.25v111q0 12 4.75 23.75t13.25 20.25l87 87q12.5 12.5 12.5 30.5v32.5q0 4-3 7t-7 3q-8.5 0-9.75-7t-1-16.5 0-19.5-6.25-16l-87-86.5q-11.5-11.5-17.75-27t-6.25-31.5v-115.5q0-11 4.75-20.75t12.75-17.25 18-11.75 20.5-4.25h36v-138.5q-9.5 0-22.75.75t-25.25-1.25-20.5-8.75-8.5-22.25v-177.5q0-13 9.25-22.25t22.25-9.25h178q13 0 22.25 9.25t9.25 22.25v177.5q0 12-4.75 18.25t-12.25 9.25-16.75 3.5-17.75.5v55zm-138.5-255q11.5 0 21.75 4.5t17.75 12 12 17.75 4.5 21.75v82h20q4.5 0 7.75-3.25t3.25-7.75v-177.5q0-4.5-3.25-7.75t-7.75-3.25h-178q-4.5 0-7.75 3.25t-3.25 7.75v177.5q0 4.5 3.25 7.75t7.75 3.25h45.5v-82q0-11.5 4.5-21.75t12.25-17.75 18-12 21.75-4.5z"/></svg>