<svg xmlns="http://www.w3.org/2000/svg" viewBox="0 0 2048 2048"><path d="M1199 1176q48 24 74.5 67t26.5 97v339q0 8-6 14.5t-14 6.5-14-6.5-6-14.5v-339q0-40-21.5-75t-57.5-53l-147-73q0 6 .5 14.5t-1 16-6 13-13.5 5.5-15-6-6-15V778q0-29-21-50t-50-21-50.5 21-21.5 50v604q0 14-5 32t-14.5 34-23 26.5T778 1485q-8 0-14-6.5t-6-14.5q0-10 8-15t17.5-11.5T801 1419t8-37v-82h-72q-15 0-28 6.5t-22.5 17.5-15 24.5-5.5 28.5v222q0 24 9.5 47.5T702 1687l174 174q25 25 25 61v65q0 8-6 14t-14 6q-17 0-19.5-14t-2-33 0-39-12.5-32l-174-173q-23-23-35.5-54t-12.5-63v-231q0-22 9.5-41.5T660 1292t36-23.5 41-8.5h72V983q-19 0-45.5 1.5T713 982t-41-17.5-17-44.5V565q0-26 18.5-44.5T718 502h356q26 0 44.5 18.5T1137 565v355q0 24-9.5 36.5T1103 975t-33.5 7-35.5 1v110zM922 666q23 0 43.5 9t35.5 24 24 35.5 9 43.5v164h40q9 0 15.5-6.5t6.5-15.5V565q0-9-6.5-15.5T1074 543H718q-9 0-15.5 6.5T696 565v355q0 9 6.5 15.5T718 942h91V778q0-23 9-43.5t24.5-35.5 36-24 43.5-9z"/></svg>