<svg xmlns="http://www.w3.org/2000/svg" viewBox="0 0 2048 2048"><path d="M718 983q-26 0-44.5-18.5T655 920V565q0-26 18.5-44.5T718 502h356q26 0 44.5 18.5T1137 565v355q0 26-18.5 44.5T1074 983H718zm-22-63q0 9 6.5 15.5T718 942h356q9 0 15.5-6.5t6.5-15.5V565q0-9-6.5-15.5T1074 543H718q-9 0-15.5 6.5T696 565v355zm637 880q28 6 52.5 21t41.5 36.5 27 48 10 55.5v87h-41v-65.5l-8-62-28.5-50-61.5-29.5-346-70q-16-4-16-20v-322q0-28-19.5-47.5T896 1362q-27 0-47 19t-20 47v620h-41v-120q-24 5-38 17t-21.5 28-9.5 35-2 40h-41v-31q0-24 8.5-46.5t23.5-40 35.5-29T788 1886v-457q0-22 8.5-41.5T820 1353t34.5-23.5 41.5-8.5 41.5 8.5 34.5 23 23.5 34 8.5 41.5v306z"/></svg>