<svg xmlns="http://www.w3.org/2000/svg" viewBox="0 0 2048 2048"><path d="M1454 1518q0 21-8 39.5t-22 33-32.5 22.5-39.5 8q-13 0-30-5-17 51-52 96.5t-82 72.5v202q0 8-6.5 14t-14.5 6-14-6-6-14v-208q0-16 13-25 29-20 53.5-41.5t43.5-53.5q11-20 22-46.5t11-49.5v-226q0-8 6.5-14t14.5-6 14 6 6 14v239q5 2 10.5 3t10.5 1q26 0 43.5-18.5t17.5-43.5v-244q0-22-14.5-39t-35.5-22l-394-78q-6-2-11-6.5t-5-11.5q0-82-.5-164t-.5-164q0-29-20.5-50.5T881 717q-29 0-50.5 21T809 788v851q0 8-6.5 14t-14.5 6-14-6-6-14V993q-18 0-37.5-.5t-36.5-6-28-18.5-11-38V575q0-26 18.5-44.5T718 512h356q26 0 44.5 18.5T1137 575v355q0 30-15.5 43.5t-38 18-47 3T993 993v106l378 74q36 7 59.5 36t23.5 65v244zM881 676q24 0 44.5 9t35.5 24.5 23.5 36T993 789v163h81q9 0 15.5-6.5t6.5-15.5V575q0-9-6.5-15.5T1074 553H718q-9 0-15.5 6.5T696 575v355q0 9 6.5 15.5T718 952h50V783q0-22 9.5-42t25.5-34 36.5-22.5T881 676z"/></svg>