<svg width="1792" height="1792" viewBox="0 0 1792 1792" xmlns="http://www.w3.org/2000/svg"><path transform="scale(1.75 1.75) translate(0 0)" d="M727 759q0 10.5-4 19.75t-11 16.5-16.25 11.25-19.75 4q-6.5 0-15-2.5-8.5 25.5-26 48.25t-41 36.25v101q0 4-3.25 7t-7.25 3-7-3-3-7v-104q0-8 6.5-12.5 14.5-10 26.75-20.75t21.75-26.75q5.5-10 11-23.25t5.5-24.75v-113q0-4 3.25-7t7.25-3 7 3 3 7v119.5q2.5 1 5.25 1.5t5.25.5q13 0 21.75-9.25t8.75-21.75v-122q0-11-7.25-19.5t-17.75-11l-197-39q-3-1-5.5-3.25t-2.5-5.75q0-41-.25-82t-.25-82q0-14.5-10.25-25.25t-25.25-10.75q-14.5 0-25.25 10.5t-10.75 25v425.5q0 4-3.25 7t-7.25 3-7-3-3-7v-323q-9 0-18.75-.25t-18.25-3-14-9.25-5.5-19v-177.5q0-13 9.25-22.25t22.25-9.25h178q13 0 22.25 9.25t9.25 22.25v177.5q0 15-7.75 21.75t-19 9-23.5 1.5-21.75-.75v53l189 37q18 3.5 29.75 18t11.75 32.5v122zm-286.5-421q12 0 22.25 4.5t17.75 12.25 11.75 18 4.25 21.75v81.5h40.5q4.5 0 7.75-3.25t3.25-7.75v-177.5q0-4.5-3.25-7.75t-7.75-3.25h-178q-4.5 0-7.75 3.25t-3.25 7.75v177.5q0 4.5 3.25 7.75t7.75 3.25h25v-84.5q0-11 4.75-21t12.75-17 18.25-11.25 20.75-4.25z"/></svg>