<svg width="1792" height="1792" viewBox="0 0 1792 1792" xmlns="http://www.w3.org/2000/svg"><path transform="scale(1.75 1.75) translate(0 0)" d="M666.5 572.5q14 3 26.25 10.25t20.75 18 13.5 24 5 27.75v121q0 6-2.25 19t-6.5 26.5-10 23.75-13.25 10.25q-4 0-7.25-3t-3.25-7q0-1.5 3.5-8.25t7.5-16.25 7.5-21.25 3.5-23.75v-121q0-11-3.75-21t-10.25-18-15.5-13.5-19.5-7.5l-173-34.5q-8-2-8-10v-161.5q0-14-9.75-23.75t-23.75-9.75-23.75 9.75-9.75 23.75v340.5q0 4-3 7t-7 3-7.25-3-3.25-7v-91q-15.5 3.5-25.5 16.25t-10 28.75v104q0 11.5 4.75 22.25t12.75 18.75l82.5 81.5q5.5 5.5 9 13.25t3.5 16.25v56q0 4-3 7.25t-7 3.25q-9.5 0-10.75-10.25t-.25-23.75 1-27-7-20.5l-82.5-81.5q-11-11-17.25-25.5t-6.25-30v-104q0-12 4.25-23.25t11.75-20 17.75-14.75 22.25-8v-228.5q0-11 4.25-20.75t11.75-17.25 17.25-11.75 20.75-4.25 20.75 4.25 17.25 11.75 11.75 17.25 4.25 20.75v153z"/></svg>