<svg width="1792" height="1792" viewBox="0 0 1792 1792" xmlns="http://www.w3.org/2000/svg"><path transform="scale(1.75 1.75) translate(0 0)" d="M512.5 205.5q57 0 114 15.75t107.5 45.25 91.75 71.25 67.75 93.25q3 6.5 5 13t2 13.5q0 12.5-4.5 22.75t-12.5 17.5-18.5 11.25-22.5 4q-15.5 0-26.5-8.25t-19-20.25q-6.5-10-12.5-20t-13-19.5q-22.5-30.5-51.75-54.5t-62.5-40.75-70-25.5-74.75-8.75q-41.5 0-81 10.25t-74.75 29.75-65.25 47.25-52.5 62.75q-3.5 5.5-6 10.25t-6 10.25q-7.5 12.5-20 19.75t-27 7.25q-11.5 0-21.5-4.5t-17.5-12-12-17.5-4.5-21.5q0-13.5 7-26.5 29-52.5 69.75-94.25t90-71 105.25-44.75 116-15.5zm0 275.5q33 0 62 12.5t50.5 34.25 34 50.75 12.5 62q0 33.5-12.75 62.5t-34.5 50.5-50.75 34-62 12.5q-33.5 0-62.25-12.5t-50-34.25-33.5-51-12.25-62.25 12.5-61.75 34.25-50.5 50.5-34.25 61.75-12.5z"/></svg>