<svg xmlns="http://www.w3.org/2000/svg" viewBox="0 0 2048 2048"><path d="M1025 411q114 0 228 31.5t215 90.5 183.5 142.5T1787 862q6 13 10 26t4 27q0 25-9 45.5t-25 35-37 22.5-45 8q-31 0-53-16.5t-38-40.5q-13-20-25-40t-26-39q-45-61-103.5-109t-125-81.5-140-51T1025 631q-83 0-162 20.5T713.5 711 583 805.5 478 931q-7 11-12 20.5T454 972q-15 25-40 39.5t-54 14.5q-23 0-43-9t-35-24-24-35-9-43q0-27 14-53 58-105 139.5-188.5t180-142T793 442t232-31zm0 551q66 0 124 25t101 68.5 68 101.5 25 124q0 67-25.5 125t-69 101-101.5 68-124 25q-67 0-124.5-25t-100-68.5-67-102T707 1280t25-123.5 68.5-101 101-68.5 123.5-25z"/></svg>