<svg width="1792" height="1792" viewBox="0 0 1792 1792" xmlns="http://www.w3.org/2000/svg"><path transform="scale(1.75 1.75) translate(0 0)" d="M.063 609.5l158.49-158.5 158.49 158.5-44.997 45-80.995-81.5v291.5h-64.496v-291.5l-81.495 81.5-44.997-45zm126.492-417h576.465v-64.5h-576.465v64.5zm127.992 640h448.472v-64.5h-448.473v64.5zm575.963-576.5h191.988v-192h-191.988v192zm127.995-64h-63.996v-64h63.996v64zm-127.995 384h191.988v-192h-191.988v192zm127.995-64h-63.996v-64h63.996v64zm-127.995 384h191.988v-192h-191.988v192zm127.995-64h-63.996v-64h63.996v64zm-639.962-320h383.976v-64h-447.973l63.996 64z"/></svg>