<svg width="1792" height="1792" viewBox="0 0 1792 1792" xmlns="http://www.w3.org/2000/svg"><path transform="scale(1.75 1.75) translate(0 0)" d="M704 832h-704v-448h704v448zm-64-384h-576v320h576v-320zm-576-128h-64v-64h64v64zm0-128h-64v-64h64v64zm0-128h-64v-64h64v64zm384 0h-64v-64h64v64zm-256 0h-64v-64h64v64zm128 0h-64v-64h64v64zm128 128h-64v-64h64v64zm0 128h-64v-64h64v64zm365.5-256q51 51 90.25 98.75t66 100 40.5 112.75 13.75 136.5q0 70.5-18.25 136t-51.5 122.5-80 103.75-103.75 80-122.5 51.5-136 18.25v-64q61.5 0 118.75-16t107-45.25 90.75-70.25 70.25-90.75 45.25-107 16-118.75q0-66.5-12.75-121t-37-102-60-91-82.25-88.5v146.5h-64v-256h256v64h-146.5z"/></svg>