<svg width="1792" height="1792" viewBox="0 0 1792 1792" xmlns="http://www.w3.org/2000/svg"><path transform="scale(1.75 1.75) translate(0 0)" d="M882 794.5q32.5 16.5 58.75 40.75t44.75 54 28.5 64 10 70.75h-64q0-39.5-15.25-74.5t-41.25-61-61-41.25-74.5-15.25-74.5 15.25-61 41.25-41.25 61-15.25 74.5h-64q0-36.5 10-70.75t28.5-64 44.75-54 58.75-40.75q-36.5-27-57.25-68t-20.75-86.5q0-39.5 15.25-74.5t41.25-61 61-41.25 74.5-15.25 74.5 15.25 61 41.25 41.25 61 15.25 74.5q0 45.5-20.75 86.5t-57.25 68zm-114-26.5q26 0 49.5-10.25t40.75-27.5 27.5-40.5 10.25-49.75q0-26-10.25-49.5t-27.5-40.75-40.75-27.5-49.5-10.25q-26.5 0-49.75 10.25t-40.5 27.5-27.5 40.75-10.25 49.5q0 26.5 10.25 49.75t27.5 40.5 40.5 27.5 49.75 10.25zm-256-128h-512v-512h896v275.5q-30.5-17.5-64-26.5v-185h-768v384h448v64z"/></svg>