<svg xmlns="http://www.w3.org/2000/svg" viewBox="0 0 2048 2048"><path d="M1764 1589q65 33 117.5 81.5t89.5 108 57 128 20 141.5h-128q0-79-30.5-149t-82.5-122-122-82.5-149-30.5-149 30.5-122 82.5-82.5 122-30.5 149h-128q0-73 20-141.5t57-128 89.5-108T1308 1589q-73-54-114.5-136t-41.5-173q0-79 30.5-149t82.5-122 122-82.5 149-30.5 149 30.5 122 82.5 82.5 122 30.5 149q0 91-41.5 173T1764 1589zm-228-53q52 0 99-20.5t81.5-55 55-81 20.5-99.5q0-52-20.5-99t-55-81.5-81.5-55-99-20.5q-53 0-99.5 20.5t-81 55-55 81.5-20.5 99q0 53 20.5 99.5t55 81 81 55 99.5 20.5zm-512-256H0V256h1792v551q-61-35-128-53V384H128v768h896v128z"/></svg>