<svg width="1792" height="1792" viewBox="0 0 1792 1792" xmlns="http://www.w3.org/2000/svg"><path transform="scale(1.75 1.75) translate(0 0)" d="M514.5 64q61.5 0 118.25 16t106.25 45 90.25 69.75 69.75 90.25 45 106.25 16 118.25-16 118.25-45 106.25-69.75 90.25-90.25 69.75-106.25 45-118.25 16-118.25-16-106.25-45-90.25-69.75-69.75-90.25-45-106.25-16-118.25 16-118.25 45-106.25 69.75-90.25 90.25-69.75 106.25-45 118.25-16zm0 827q52.5 0 101.25-13.75t91.25-38.5 77.25-59.5 59.5-77.25 38.5-91.25 13.75-101.25-13.75-101.25-38.5-91-59.75-77.25-77.25-59.75-91-38.5-101.25-13.75-101.25 13.75-91.25 38.5-77.25 59.5-59.5 77.25-38.5 91.25-13.75 101.25 13.75 101.25 38.5 91.25 59.5 77.25 77.25 59.5 91.25 38.5 101.25 13.75zm100-564.5l-185 185.5 185 185.5-45 45-231-230.5 231-230.5z"/></svg>