<svg xmlns="http://www.w3.org/2000/svg" viewBox="0 0 2048 2048"><path d="M1152 1024q0 27-10 50t-27.5 40.5-40.5 27.5-50 10-50-10-40.5-27.5T906 1074t-10-50 10-50 27.5-40.5T974 906t50-10 50 10 40.5 27.5T1142 974t10 50zM1024 0q26 0 45 19l320 320q19 19 19 45t-19 45-45 19-45-19l-275-275-275 275q-19 19-45 19t-45-19-19-45 19-45L979 19q19-19 45-19zm275 1619q19-19 45-19t45 19 19 45-19 45l-320 320q-19 19-45 19t-45-19l-320-320q-19-19-19-45t19-45 45-19 45 19l275 275zM384 640q26 0 45 19t19 45-19 45l-275 275 275 275q19 19 19 45t-19 45-45 19-45-19L19 1069q-19-19-19-45t19-45l320-320q19-19 45-19zm1280 0q26 0 45 19l320 320q19 19 19 45t-19 45l-320 320q-19 19-45 19t-45-19-19-45 19-45l275-275-275-275q-19-19-19-45t19-45 45-19z"/></svg>