<svg width="1792" height="1792" viewBox="0 0 1792 1792" xmlns="http://www.w3.org/2000/svg"><path transform="scale(1.75 1.75) translate(0 0)" d="M576 512q0 13.5-5 25t-13.75 20.25-20.25 13.75-25 5-25-5-20.25-13.75-13.75-20.25-5-25 5-25 13.75-20.25 20.25-13.75 25-5 25 5 20.25 13.75 13.75 20.25 5 25zm-64-512q13 0 22.5 9.5l160 160q9.5 9.5 9.5 22.5t-9.5 22.5-22.5 9.5-22.5-9.5l-137.5-137.5-137.5 137.5q-9.5 9.5-22.5 9.5t-22.5-9.5-9.5-22.5 9.5-22.5l160-160q9.5-9.5 22.5-9.5zm137.5 809.5q9.5-9.5 22.5-9.5t22.5 9.5 9.5 22.5-9.5 22.5l-160 160q-9.5 9.5-22.5 9.5t-22.5-9.5l-160-160q-9.5-9.5-9.5-22.5t9.5-22.5 22.5-9.5 22.5 9.5l137.5 137.5zm-457.5-489.5q13 0 22.5 9.5t9.5 22.5-9.5 22.5l-137.5 137.5 137.5 137.5q9.5 9.5 9.5 22.5t-9.5 22.5-22.5 9.5-22.5-9.5l-160-160q-9.5-9.5-9.5-22.5t9.5-22.5l160-160q9.5-9.5 22.5-9.5zm640 0q13 0 22.5 9.5l160 160q9.5 9.5 9.5 22.5t-9.5 22.5l-160 160q-9.5 9.5-22.5 9.5t-22.5-9.5-9.5-22.5 9.5-22.5l137.5-137.5-137.5-137.5q-9.5-9.5-9.5-22.5t9.5-22.5 22.5-9.5z"/></svg>