<svg width="1792" height="1792" viewBox="0 0 1792 1792" xmlns="http://www.w3.org/2000/svg"><path transform="scale(1.75 1.75) translate(0 0)" d="M1009.5 729.5q14.5 32 14.5 66.5v36q0 38-20.5 69.5t-55 47q-15.5 34.5-47 55t-69.5 20.5q-34.5 0-64-17t-47-47h-354q-17.5 30-47 47t-64 17-64-17-47-47h-81q-13.5 0-25-5t-20.25-13.75-13.75-20.25-5-25v-128q0-40 15-75t41-61 61-41 75-15h18.5l164-164q13.5-13.5 31.25-20.75t36.75-7.25h453.5v64h-14.5zm-369.5-281.5v128h229.5l-49.5-109.5q-4-8.5-12.25-13.5t-17.25-5h-150.5zm-197.5 0q-13 0-22.5 9.5l-118.5 118.5h274.5v-128h-133.5zm-186.5 512q13.5 0 25-5t20.25-13.75 13.75-20.25 5-25-5-25-13.75-20.25-20.25-13.75-25-5-25 5-20.25 13.75-13.75 20.25-5 25 5 25 13.75 20.25 20.25 13.75 25 5zm0-192q26.5 0 49.75 10t40.75 27.5 27.5 40.75 10 49.75h192v-256h-384q-26.5 0-49.75 10t-40.75 27.5-27.5 40.75-10 49.75v128h64q0-26.5 10-49.75t27.5-40.75 40.75-27.5 49.75-10zm576 192q13.5 0 25-5t20.25-13.75 13.75-20.25 5-25-5-25-13.75-20.25-20.25-13.75-25-5-25 5-20.25 13.75-13.75 20.25-5 25 5 25 13.75 20.25 20.25 13.75 25 5zm128-164q0-20.5-8.5-40l-53-116h-258.5v256h64q0-26.5 10-49.75t27.5-40.75 40.75-27.5 49.75-10q21 0 40.5 6.5t35.5 18.5 28 28.75 18.5 36.75q5.5-13.5 5.5-26.5v-36z"/></svg>