<svg width="1792" height="1792" viewBox="0 0 1792 1792" xmlns="http://www.w3.org/2000/svg"><path transform="scale(1.75 1.75) translate(0 0)" d="M948.5 595l61 134.5q14.5 31.5 14.5 66v36.5q0 19-5.25 36.5t-15 32.5-23.75 27.25-31 19.75q-7.5 17.5-19.75 31.5t-27.5 23.75-33 15.25-36.75 5.5q-34.5 0-64-17t-47-47h-354q-17.5 30-47 47t-64 17-64-17-47-47h-81q-13.5 0-25-5t-20.25-13.75-13.75-20.25-5-25v-128q0-39.5 15-74.5t41.25-61.25 61-41.25 74.75-15h18.5l164-164q13.5-13.5 31.25-20.75t36.75-7.25h453.5v64h-14.5zm-506-147q-13 0-22.5 9.5l-119 118.5h275v-128h-133.5zm-186.5 512q13.5 0 25-5t20.25-13.75 13.75-20.25 5-25-5-25-13.75-20.25-20.25-13.75-25-5-25 5-20.25 13.75-13.75 20.25-5 25 5 25 13.75 20.25 20.25 13.75 25 5zm384-384h229.5l-49.5-109q-4-8.5-11.75-13.75t-17.25-5.25h-151v128zm192 384q13.5 0 25-5t20.25-13.75 13.75-20.25 5-25-5-25-13.75-20.25-20.25-13.75-25-5-25 5-20.25 13.75-13.75 20.25-5 25 5 25 13.75 20.25 20.25 13.75 25 5z"/></svg>