<svg xmlns="http://www.w3.org/2000/svg" viewBox="0 0 2048 2048"><path d="M2019 1459q29 64 29 133v72q0 76-41 139t-110 94q-31 69-94 110t-139 41q-69 0-128-34t-94-94H734q-35 60-94 94t-128 34-128-34-94-94H128q-27 0-50-10t-40.5-27.5T10 1842t-10-50v-256q0-80 30-150t82-122 122-82 150-30h37l328-328q27-27 62.5-41.5T885 768h907v128h-29zm-739-563v256h459l-99-219q-8-17-24.5-27t-34.5-10h-301zm-395 0q-26 0-45 19l-237 237h549V896H885zM512 1920q27 0 50-10t40.5-27.5T630 1842t10-50-10-50-27.5-40.5T562 1674t-50-10-50 10-40.5 27.5T394 1742t-10 50 10 50 27.5 40.5T462 1910t50 10zm0-384q53 0 99.5 20t81.5 55 55 81.5 20 99.5h384v-512H384q-53 0-99.5 20t-81.5 55-55 81.5-20 99.5v256h128q0-53 20-99.5t55-81.5 81.5-55 99.5-20zm1152 384q27 0 50-10t40.5-27.5 27.5-40.5 10-50-10-50-27.5-40.5-40.5-27.5-50-10-50 10-40.5 27.5-27.5 40.5-10 50 10 50 27.5 40.5 40.5 27.5 50 10zm256-328q0-41-17-80l-106-232h-517v512h128q0-53 20-99.5t55-81.5 81.5-55 99.5-20q42 0 81 13t71 37 56 57.5 37 73.5q11-27 11-53v-72z"/></svg>