<svg xmlns="http://www.w3.org/2000/svg" viewBox="0 0 2048 2048"><path d="M29.123 1459Q.125 1523 .125 1592v72q0 76 40.997 139 40.998 63 109.994 94 30.998 69 93.994 110t138.991 41q68.996 0 127.992-34t93.994-94h707.957q34.998 60 93.994 94t127.992 34 127.992-34 93.994-94h161.99q26.998 0 49.998-10 22.998-10 40.497-27.5T2038 1842q9.999-23 9.999-50v-256q0-80-29.998-150t-81.995-122-121.992-82q-69.996-30-149.991-30h-36.998l-327.98-328q-26.998-27-62.495-41.5-35.498-14.5-73.497-14.5H256.11v128h28.998zm738.955-563v256H309.106l98.993-219q8-17 24.5-27t34.497-10h300.981zm394.972 0q25.999 0 44.997 19l236.986 237H896.066V896h266.983zm372.98 1024q-26.998 0-49.997-10-22.998-10-40.497-27.5t-27.5-40.5q-9.998-23-9.998-50t9.999-50q10-23 27.499-40.5t40.497-27.5q22.999-10 49.997-10t49.997 10q22.998 10 40.497 27.5t27.5 40.5q9.998 23 9.998 50t-9.999 50q-10 23-27.499 40.5t-40.497 27.5q-22.999 10-49.997 10zm0-384q-52.997 0-99.494 20t-81.495 55q-34.997 35-54.996 81.5t-20 99.5H896.07v-512h767.953q52.997 0 99.494 20t81.495 55q34.997 35 54.996 81.5t19.999 99.5v256h-127.992q0-53-19.999-99.5t-54.996-81.5q-34.998-35-81.495-55t-99.494-20zM384.102 1920q-26.998 0-49.997-10-22.998-10-40.497-27.5t-27.5-40.5q-9.998-23-9.998-50t9.999-50q10-23 27.499-40.5t40.497-27.5q22.999-10 49.997-10t49.997 10q22.998 10 40.497 27.5t27.5 40.5q9.998 23 9.998 50t-9.999 50q-10 23-27.499 40.5T434.1 1910q-22.999 10-49.997 10zm-255.985-328q0-41 16.999-80l105.993-232h516.969v512H640.086q0-53-19.999-99.5t-54.996-81.5q-34.998-35-81.495-55t-99.494-20q-41.997 0-80.995 13-38.997 13-70.995 37t-55.998 57.5-36.998 73.5q-10.999-27-10.999-53v-72z"/></svg>