<svg width="1792" height="1792" viewBox="0 0 1792 1792" xmlns="http://www.w3.org/2000/svg"><path transform="scale(1.75 1.75) translate(0 0)" d="M14.562 729.5q-14.499 32-14.499 66.5v36q0 38 20.499 69.5t54.997 47q15.499 34.5 46.997 55t69.496 20.5q34.498 0 63.996-17t46.997-47h353.978q17.499 30 46.997 47t63.996 17 63.996-17 46.997-47h80.995q13.499 0 24.999-5t20.249-13.75 13.75-20.25 5-25v-128q0-40-14.999-75t-40.998-61-60.996-41-74.995-15h-18.499l-163.99-164q-13.5-13.5-31.248-20.75t-36.748-7.25h-453.472v64h14.499zm369.477-281.5v128h-229.486l49.497-109.5q4-8.5 12.25-13.5t17.249-5h150.49zm197.486 0q13 0 22.499 9.5l118.493 118.5h-274.483v-128h133.492zm186.49 512q-13.499 0-24.999-5t-20.249-13.75-13.75-20.25-5-25 5-25 13.75-20.25 20.249-13.75 24.999-5 24.999 5 20.249 13.75 13.75 20.25 5 25-5 25-13.75 20.25-20.249 13.75-24.999 5zm0-192q-26.499 0-49.747 10t-40.748 27.5-27.498 40.75-10 49.75h-191.988v-256h383.977q26.499 0 49.747 10t40.748 27.5 27.498 40.75 10 49.75v128h-63.996q0-26.5-10-49.75t-27.498-40.75-40.748-27.5-49.747-10zm-575.964 192q-13.499 0-24.999-5t-20.249-13.75-13.75-20.25-5-25 5-25q5-11.5 13.75-20.25t20.249-13.75 24.999-5 24.999 5 20.249 13.75 13.75 20.25 5 25-5 25-13.75 20.25-20.249 13.75q-11.5 5-24.999 5zm-127.993-164q0-20.5 8.499-40l52.996-116h258.485v256h-63.996q0-26.5-10-49.75t-27.498-40.75-40.748-27.5-49.747-10q-20.999 0-40.498 6.5t-35.498 18.5-27.999 28.75-18.499 36.75q-5.499-13.5-5.499-26.5v-36z"/></svg>