<svg xmlns="http://www.w3.org/2000/svg" viewBox="0 0 2048 2048"><path d="M1280 512q0 66-16.5 129T1216 760.5t-76 104-101 81.5q119 47 218 129l-82 98q-88-72-190.5-110.5T768 1024q-88 0-170 23t-153 64.5-129.5 100-100 129.5-64.5 153-23 170H0q0-117 35.5-229t101-207.5 157-169T496 946q-56-36-100.5-83T320 760t-47.5-118.5T256 512q0-106 40-199.5t109.5-163T568.5 40 768 0t199.5 40 163 109.5 109.5 163 40 199.5zM768 896q79 0 149-30t122.5-82.5 82.5-122 30-149.5q0-79-30-149t-82.5-122.5T917 158t-149-30q-80 0-149.5 30t-122 82.5T414 363t-30 149q0 80 30 149.5t82.5 122 122 82.5T768 896zm1216 448q0 52-16.5 101t-47.5 91v512l-256-128-256 128v-512q-31-42-47.5-91t-16.5-101q0-66 25-124t68.5-101.5 102-69T1664 1024t124 25.5 101.5 69 69 101.5 25.5 124zm-320-192q-40 0-75 15t-61 41-41 61-15 75 15 75 41 61 61 41 75 15 75-15 61-41 41-61 15-75-15-75-41-61-61-41-75-15zm0 625q32 17 64 32.5t64 31.5v-204q-60 27-128 27t-128-27v204q32-16 64-31.5t64-32.5z"/></svg>