<svg width="1792" height="1792" viewBox="0 0 1792 1792" xmlns="http://www.w3.org/2000/svg"><path transform="scale(1.75 1.75) translate(0 0)" d="M640 256q0 33-8.25 64.5t-23.75 59.75-38 52-50.5 40.75q59.5 23.5 109 64.5l-41 49q-44-36-95.25-55.25t-108.25-19.25q-44 0-85 11.5t-76.5 32.25-64.75 50-50 64.75-32.25 76.5-11.5 85h-64q0-58.5 17.75-114.5t50.5-103.75 78.5-84.5 101.25-56.25q-28-18-50.25-41.5t-37.75-51.5-23.75-59.25-8.25-64.75q0-53 20-99.75t54.75-81.5 81.5-54.75 99.75-20 99.75 20 81.5 54.75 54.75 81.5 20 99.75zm-256 192q39.5 0 74.5-15t61.25-41.25 41.25-61 15-74.75q0-39.5-15-74.5t-41.25-61.25-61.25-41.25-74.5-15q-40 0-74.75 15t-61 41.25-41.25 61.25-15 74.5q0 40 15 74.75t41.25 61 61 41.25 74.75 15zm608 224q0 26-8.25 50.5t-23.75 45.5v256l-128-64-128 64v-256q-15.5-21-23.75-45.5t-8.25-50.5q0-33 12.5-62t34.25-50.75 51-34.5 62.25-12.75 62 12.75 50.75 34.5 34.5 50.75 12.75 62zm-160-96q-20 0-37.5 7.5t-30.5 20.5-20.5 30.5-7.5 37.5 7.5 37.5 20.5 30.5 30.5 20.5 37.5 7.5 37.5-7.5 30.5-20.5 20.5-30.5 7.5-37.5-7.5-37.5-20.5-30.5-30.5-20.5-37.5-7.5zm0 312.5q16 8.5 32 16.25t32 15.75v-102q-30 13.5-64 13.5t-64-13.5v102q16-8 32-15.75t32-16.25z"/></svg>