<svg width="1792" height="1792" viewBox="0 0 1792 1792" xmlns="http://www.w3.org/2000/svg"><path transform="scale(1.75 1.75) translate(0 0)" d="M960 384v640h-512v-64h-384v-832h256q0-26 10.25-49.5t27.5-40.75 40.5-27.5 49.75-10.25q26 0 49.5 10.25t40.75 27.5 27.5 40.75 10.25 49.5h256v256h128zm-704-192v64h384v-64h-128q0-12.5.5-26.75t-.5-28.5-4.25-27.5-10.25-23.25-19-16-30.5-6q-28 0-41.25 13t-18.5 32.25-4.75 41.75.5 41h-128zm192 704v-512h320v-192h-64v128h-512v-128h-64v704h320zm448-448h-384v512h384v-512z"/></svg>