<svg xmlns="http://www.w3.org/2000/svg" viewBox="0 0 2048 2048"><path d="M1984 1792q26 0 45 18.5t19 45.5q0 24-17 44-30 35-69 62.5t-83 46.5-91 29-92 10q-99 0-183-38.5T1361 1900q-49-51-109-79.5t-132-28.5q-70 0-131.5 28.5T879 1900l-9.5 9-23 22.5L817 1961l-30.5 30-25 25-12.5 13q-19 19-45 19t-45-19-19-45 19-45q54-54 102-104t100-88 114-60.5 145-22.5q99 0 183 38.5t152 109.5q49 51 109 79.5t132 28.5q76 0 132-28.5t109-79.5q11-10 21.5-15t25.5-5zM1235 290q14 8 23 23t9 32q0 8-2 15t-5 14L553 1789q-9 19-28 28l-173 87q-32 16-69 16h-9.5l-9.5-1-47 94q-8 16-23.5 25.5T160 2048q-26 0-45-19t-19-45q0-12 7-30t16.5-37.5T139 1880t15-28q-26-40-26-87v-165q0-16 7-29L711 419l-65-32-237 474q-8 16-23.5 25.5T352 896q-26 0-45-19t-19-45q0-13 7-29l239-478q16-32 43-50.5t63-18.5q35 0 66.5 17t61.5 32l71-142q8-17 23.5-26t33.5-9q13 0 22 4 12-24 23.5-47.5t26-42.5 35.5-30.5T1056 0t61 15l94 47q32 16 50.5 42.5T1280 168q0 34-15.5 63.5T1235 290zm-202-101l87 43 29-58-87-43zm84 185l-192-96-669 1337v150q0 11 8 19t19 8q4 0 16.5-5t29-13 35-17.5T399 1738t30-16 19-10z"/></svg>