<svg width="1792" height="1792" viewBox="0 0 1792 1792" xmlns="http://www.w3.org/2000/svg"><path transform="scale(1.75 1.75) translate(0 0)" d="M992 896q13 0 22.5 9.25t9.5 22.75q0 12-8.5 22-15 17.5-34.5 31.25t-41.5 23.25-45.5 14.5-46 5q-49.5 0-91.5-19.25t-76-54.75q-24.5-25.5-54.5-39.75t-66-14.25q-35 0-65.75 14.25t-54.75 39.75l-4.75 4.5-11.5 11.25-14.75 14.75-15.25 15-12.5 12.5-6.25 6.5q-9.5 9.5-22.5 9.5t-22.5-9.5-9.5-22.5 9.5-22.5q27-27 51-52t50-44 57-30.25 72.5-11.25q49.5 0 91.5 19.25t76 54.75q24.5 25.5 54.5 39.75t66 14.25q38 0 66-14.25t54.5-39.75q5.5-5 10.75-7.5t12.75-2.5zm-374.5-751q7 4 11.5 11.5t4.5 16q0 4-1 7.5t-2.5 7l-353.5 707.5q-4.5 9.5-14 14l-86.5 43.5q-16 8-34.5 8h-4.75l-4.75-.5-23.5 47q-4 8-11.75 12.75t-16.75 4.75q-13 0-22.5-9.5t-9.5-22.5q0-6 3.5-15t8.25-18.75 9.75-18.25 7.5-14q-13-20-13-43.5v-82.5q0-8 3.5-14.5l288-576-32.5-16-118.5 237q-4 8-11.75 12.75t-16.75 4.75q-13 0-22.5-9.5t-9.5-22.5q0-6.5 3.5-14.5l119.5-239q8-16 21.5-25.25t31.5-9.25q17.5 0 33.25 8.5t30.75 16l35.5-71q4-8.5 11.75-13t16.75-4.5q6.5 0 11 2 6-12 11.75-23.75t13-21.25 17.75-15.25 26.5-5.75 30.5 7.5l47 23.5q16 8 25.25 21.25t9.25 31.75q0 17-7.75 31.75t-14.75 29.25zm-101-50.5l43.5 21.5 14.5-29-43.5-21.5zm42 92.5l-96-48-334.5 668.5v75q0 5.5 4 9.5t9.5 4q2 0 8.25-2.5t14.5-6.5 17.5-8.75 17.75-9.25 15-8 9.5-5z"/></svg>