<svg xmlns="http://www.w3.org/2000/svg" viewBox="0 0 2048 2048"><path d="M64.121 1792q-25.998 0-44.997 18.5T.125 1856q0 24 16.999 44 29.998 35 68.996 62.5 38.997 27.5 82.994 46.5 43.998 19 90.995 29t91.994 10q98.994 0 182.99-38.5 83.994-38.5 151.99-109.5 48.997-51 108.992-79.5t131.992-28.5q69.996 0 131.492 28.5t109.493 79.5l9.5 9q9.5 9 22.998 22.5t29.498 29.5 30.498 30 25 25q10.498 11 12.498 13 19 19 44.998 19t44.997-19 18.999-45-19-45q-53.995-54-101.992-104t-99.994-88-113.993-60.5-144.991-22.5q-98.995 0-182.99 38.5-83.994 38.5-151.99 109.5-48.997 51-108.992 79.5T352.104 1920q-75.996 0-131.992-28.5-55.997-28.5-108.993-79.5-11-10-21.5-15-10.498-5-25.497-5zM813.075 290q-13.999 8-22.998 23-9 15-9 32 0 8 2 15t5 14l706.957 1415q8.999 19 27.998 28l172.989 87q31.998 16 68.996 16h9.5l9.498-1 46.998 94q8 16 23.498 25.5t33.498 9.5q25.998 0 44.997-19t19-45q0-12-7-30t-16.5-37.5q-9.499-19.5-19.498-36.5-10-17-14.999-28 25.998-40 25.998-87v-165q0-16-7-29L1337.042 419l64.996-32 236.986 474q8 16 23.498 25.5t33.498 9.5q25.998 0 44.997-19t19-45q0-13-7-29L1514.03 325q-15.999-32-42.997-50.5t-62.996-18.5q-34.998 0-66.496 17t-61.496 32l-70.996-142q-8-17-23.498-26t-33.498-9q-13 0-22 4-11.998-24-23.497-47.5t-26-42.5q-14.498-19-35.496-30.5-21-11.5-52.997-11.5t-60.996 15l-93.994 47q-31.998 16-50.498 42.5T768.077 168q0 34 15.5 63.5t29.497 58.5zm201.985-101l-86.995 43-28.998-58 86.994-43zm-83.992 185l191.988-96 668.959 1337v150q0 11-8 19-7.999 8-18.998 8-4 0-16.499-5t-28.998-13-34.998-17.5-35.498-18.5-29.998-16-18.999-10z"/></svg>