<svg width="1792" height="1792" viewBox="0 0 1792 1792" xmlns="http://www.w3.org/2000/svg"><path transform="scale(1.75 1.75) translate(0 0)" d="M32.061 896q-12.999 0-22.499 9.25t-9.499 22.75q0 12 8.499 22 14.999 17.5 34.498 31.25t41.497 23.25 45.498 14.5 45.997 5q49.497 0 91.495-19.25t75.995-54.75q24.499-25.5 54.496-39.75t65.996-14.25q34.998 0 65.746 14.25t54.746 39.75l4.75 4.5q4.75 4.5 11.5 11.25t14.749 14.75 15.249 15 12.5 12.5 6.25 6.5q9.5 9.5 22.499 9.5t22.499-9.5 9.5-22.5-9.5-22.5q-26.998-27-50.996-52t-49.997-44-56.996-30.25-72.495-11.25q-49.497 0-91.495 19.25t-75.995 54.75q-24.499 25.5-54.496 39.75t-65.996 14.25q-37.998 0-65.996-14.25t-54.496-39.75q-5.499-5-10.749-7.5t-12.749-2.5zm374.477-751q-7 4-11.499 11.5t-4.5 16q0 4 1 7.5t2.5 7l353.479 707.5q4.5 9.5 13.999 14l86.495 43.5q15.999 8 34.498 8h4.75l4.75-.5 23.499 47q4 8 11.749 12.75t16.749 4.75q12.999 0 22.499-9.5t9.5-22.5q0-6-3.5-15t-8.25-18.75-9.749-18.25-7.5-14q12.999-20 12.999-43.5v-82.5q0-8-3.5-14.5l-287.983-576 32.498-16 118.493 237q4 8 11.749 12.75t16.749 4.75q12.999 0 22.499-9.5t9.5-22.5q0-6.5-3.5-14.5l-119.492-239q-8-16-21.499-25.25t-31.498-9.25q-17.499 0-33.248 8.5t-30.748 16l-35.498-71q-4-8.5-11.749-13t-16.749-4.5q-6.5 0-11 2-6-12-11.749-23.75t-13-21.25-17.749-15.25-26.499-5.75-30.498 7.5l-46.997 23.5q-15.999 8-25.249 21.25t-9.25 31.75q0 17 7.75 31.75t14.749 29.25zm100.992-50.5l-43.498 21.5-14.499-29 43.497-21.5zm-41.996 92.5l95.994-48 334.479 668.5v75q0 5.5-4 9.5t-9.499 4q-2 0-8.25-2.5t-14.499-6.5-17.499-8.75-17.749-9.25-14.999-8-9.5-5z"/></svg>