<svg xmlns="http://www.w3.org/2000/svg" viewBox="0 0 2048 2048"><path d="M514 1581q25 85 63 160-10 20-20.5 42.5T525 1817l-173 87q-34 16-69 16h-9.5l-9.5-1-47 94q-8 16-23.5 25.5T160 2048q-26 0-45-19t-19-45q0-12 7-30t16.5-37.5T139 1880t15-28q-26-40-26-87v-165q0-16 7-29L711 419l-65-32-237 474q-8 16-23.5 25.5T352 896q-26 0-45-19t-19-45q0-13 7-29l239-478q16-32 43-50.5t63-18.5q35 0 66.5 17t61.5 32l71-142q8-17 23.5-26t33.5-9q13 0 22 4 12-24 23.5-47.5t26-42.5 35.5-30.5T1056 0t61 15l94 47q32 16 50.5 42.5T1280 168q0 34-15.5 63.5T1235 290q14 8 23 23t9 32q0 12-8.5 32.5T1239 420t-22 42-16 31q-43 7-84 18.5t-82 26.5l82-164-192-96-282 562q-5 10-12.5 19T618 877q-14 21-26 42.5T569 964q-21 41-36 84-4 10-7 21.5t-8 21.5l-262 524v150q0 11 8 19t19 8l166-80zm519-1392l87 43 29-58-87-43zm311 451q97 0 187 25t168.5 71T1842 846t110 142.5 71 168.5 25 187-25 187-71 168.5-110 142.5-142.5 110-168.5 71-187 25-187-25-168.5-71T846 1842t-110-142.5-71-168.5-25-187 25-187 71-168.5T846 846t142.5-110 168.5-71 187-25zm0 1280q119 0 224-45.5t183-123.5 123.5-183 45.5-224-45.5-224T1751 937t-183-123.5-224-45.5-224 45.5T937 937t-123.5 183-45.5 224 45.5 224T937 1751t183 123.5 224 45.5zm-64-256h128v128h-128v-128zm64-768q53 0 99.5 20t81.5 55 55 81.5 20 99.5h-128q0-27-10-50t-27.5-40.5-40.5-27.5-50-10-50 10-40.5 27.5-27.5 40.5-10 50q0 29 14 52t35.5 45 46.5 44.5 46.5 50.5 35.5 63 14 81v48h-128v-34q0-25-5-47t-25-42q-30-30-59-57.5t-52-57.5-37-65-14-81q0-53 20-99.5t55-81.5 81.5-55 99.5-20z"/></svg>