<svg xmlns="http://www.w3.org/2000/svg" viewBox="0 0 2048 2048"><path d="M301.106 290q-13.999 8-22.998 23-9 15-9 32 0 8 2 15t5 14l706.957 1415q8.999 19 27.998 28l172.989 87q31.998 16 68.996 16h9.5l9.498-1 46.998 94q8 16 23.498 25.5t33.498 9.5q25.998 0 44.997-19t19-45q0-12-7-30t-16.5-37.5q-9.499-19.5-19.498-36.5-10-17-14.999-28 25.998-40 25.998-87v-165q0-16-7-29L825.073 419l64.996-32 236.986 474q8 16 23.498 25.5t33.498 9.5q25.998 0 44.997-19t19-45q0-13-7-29l-238.986-478q-15.999-32-42.997-50.5T896.07 256q-34.998 0-66.496 17t-61.496 32l-70.996-142q-8-17-23.498-26t-33.498-9q-13 0-22 4-11.998-24-23.497-47.5t-26-42.5q-14.498-19-35.496-30.5-21-11.5-52.997-11.5t-60.996 15l-93.994 47q-31.998 16-50.498 42.5T256.108 168q0 34 15.5 63.5t29.497 58.5zm201.989-101L416.1 232l-28.998-58 86.994-43zM419.1 374l191.988-96 668.959 1337v150q0 11-8 19-7.999 8-18.998 8-4 0-16.499-5t-28.998-13-34.998-17.5-35.498-18.5-29.998-16-18.999-10zM256.109 768q-52.997 0-99.494 20T75.12 843q-34.997 35-54.996 81.5t-20 99.5 20 99.5T75.12 1205q34.998 35 81.495 55t99.494 20h287.982l-63.996-128H256.109q-26.998 0-49.997-10-22.998-10-40.497-27.5t-27.5-40.5q-9.998-23-9.998-50t9.999-50q10-23 27.499-40.5t40.497-27.5q22.999-10 49.997-10 25.998 0 44.997-19t18.999-45-18.999-45-44.997-19zm1663.901 832q0 66-24.998 124.5-24.999 58.5-68.496 102t-101.994 68.5q-58.496 25-124.492 25h-43.997q4.999 15 8.499 31t3.5 33-3.5 33-8.5 31h43.998q92.994 0 174.489-35.5t141.99-96 95.995-142 35.498-174.5-35.498-174.5-95.994-142-141.991-96-174.49-35.5h-223.985l63.996 128h159.99q65.996 0 124.492 25.5 58.497 25.5 101.994 69t68.496 101.5q24.998 58 24.998 124z"/></svg>