<svg width="1792" height="1792" viewBox="0 0 1792 1792" xmlns="http://www.w3.org/2000/svg"><path transform="scale(1.75 1.75) translate(0 0)" d="M873.5 145q7 4 11.5 11.5t4.5 16q0 4-1 7.5t-2.5 7l-353.5 707.5q-4.5 9.5-14 14l-86.5 43.5q-16 8-34.5 8h-4.75l-4.75-.5-23.5 47q-4 8-11.75 12.75t-16.75 4.75q-13 0-22.5-9.5t-9.5-22.5q0-6 3.5-15t8.25-18.75 9.75-18.25 7.5-14q-13-20-13-43.5v-82.5q0-8 3.5-14.5l288-576-32.5-16-118.5 237q-4 8-11.75 12.75t-16.75 4.75q-13 0-22.5-9.5t-9.5-22.5q0-6.5 3.5-14.5l119.5-239q8-16 21.5-25.25t31.5-9.25q17.5 0 33.25 8.5t30.75 16l35.5-71q4-8.5 11.75-13t16.75-4.5q6.5 0 11 2 6-12 11.75-23.75t13-21.25 17.75-15.25 26.5-5.75 30.5 7.5l47 23.5q16 8 25.25 21.25t9.25 31.75q0 17-7.75 31.75t-14.75 29.25zm-101-50.5l43.5 21.5 14.5-29-43.5-21.5zm42 92.5l-96-48-334.5 668.5v75q0 5.5 4 9.5t9.5 4q2 0 8.25-2.5t14.5-6.5 17.5-8.75 17.75-9.25 15-8 9.5-5zm81.5 197q26.5 0 49.75 10t40.75 27.5 27.5 40.75 10 49.75-10 49.75-27.5 40.75-40.75 27.5-49.75 10h-144l32-64h112q13.5 0 25-5t20.25-13.75 13.75-20.25 5-25-5-25-13.75-20.25-20.25-13.75-25-5q-13 0-22.5-9.5t-9.5-22.5 9.5-22.5 22.5-9.5zm-832 416q0 33 12.5 62.25t34.25 51 51 34.25 62.25 12.5h22q-2.5 7.5-4.25 15.5t-1.75 16.5 1.75 16.5 4.25 15.5h-22q-46.5 0-87.25-17.75t-71-48-48-71-17.75-87.25 17.75-87.25 48-71 71-48 87.25-17.75h112l-32 64h-80q-33 0-62.25 12.75t-51 34.5-34.25 50.75-12.5 62z"/></svg>