<svg xmlns="http://www.w3.org/2000/svg" viewBox="0 0 2048 2048"><path d="M1747 290q14 8 23 23t9 32q0 8-2 15t-5 14l-707 1415q-9 19-28 28l-173 87q-32 16-69 16h-9.5l-9.5-1-47 94q-8 16-23.5 25.5T672 2048q-26 0-45-19t-19-45q0-12 7-30t16.5-37.5T651 1880t15-28q-26-40-26-87v-165q0-16 7-29l576-1152-65-32-237 474q-8 16-23.5 25.5T864 896q-26 0-45-19t-19-45q0-13 7-29l239-478q16-32 43-50.5t63-18.5q35 0 66.5 17t61.5 32l71-142q8-17 23.5-26t33.5-9q13 0 22 4 12-24 23.5-47.5t26-42.5 35.5-30.5T1568 0t61 15l94 47q32 16 50.5 42.5T1792 168q0 34-15.5 63.5T1747 290zm-202-101l87 43 29-58-87-43zm84 185l-192-96-669 1337v150q0 11 8 19t19 8q4 0 16.5-5t29-13 35-17.5T911 1738t30-16 19-10zm163 394q53 0 99.5 20t81.5 55 55 81.5 20 99.5-20 99.5-55 81.5-81.5 55-99.5 20h-288l64-128h224q27 0 50-10t40.5-27.5 27.5-40.5 10-50-10-50-27.5-40.5T1842 906t-50-10q-26 0-45-19t-19-45 19-45 45-19zM128 1600q0 66 25 124.5t68.5 102 102 68.5 124.5 25h44q-5 15-8.5 31t-3.5 33 3.5 33 8.5 31h-44q-93 0-174.5-35.5t-142-96-96-142T0 1600t35.5-174.5 96-142 142-96T448 1152h224l-64 128H448q-66 0-124.5 25.5t-102 69T153 1476t-25 124z"/></svg>