<svg width="1792" height="1792" viewBox="0 0 1792 1792" xmlns="http://www.w3.org/2000/svg"><path transform="scale(1.75 1.75) translate(0 0)" d="M150.553 145q-7 4-11.499 11.5t-4.5 16q0 4 1 7.5t2.5 7l353.479 707.5q4.5 9.5 13.999 14l86.495 43.5q15.999 8 34.498 8h4.75l4.75-.5 23.499 47q4 8 11.749 12.75t16.749 4.75q12.999 0 22.499-9.5t9.5-22.5q0-6-3.5-15t-8.25-18.75-9.749-18.25-7.5-14q12.999-20 12.999-43.5v-82.5q0-8-3.5-14.5l-287.983-576 32.498-16 118.493 237q4 8 11.749 12.75t16.749 4.75q12.999 0 22.499-9.5t9.5-22.5q0-6.5-3.5-14.5l-119.493-239q-8-16-21.499-25.25t-31.498-9.25q-17.499 0-33.248 8.5t-30.748 16l-35.498-71q-4-8.5-11.749-13t-16.749-4.5q-6.5 0-11 2-6-12-11.749-23.75t-13-21.25-17.749-15.25-26.499-5.75-30.498 7.5l-46.997 23.5q-15.999 8-25.249 21.25t-9.25 31.75q0 17 7.75 31.75t14.749 29.25zm100.995-50.5l-43.498 21.5-14.499-29 43.497-21.5zm-41.998 92.5l95.994-48 334.48 668.5v75q0 5.5-4 9.5t-9.499 4q-2 0-8.25-2.5t-14.499-6.5-17.499-8.75-17.749-9.25-14.999-8-9.5-5zm-81.496 197q-26.499 0-49.747 10t-40.748 27.5-27.498 40.75-9.999 49.75 9.999 49.75 27.498 40.75 40.748 27.5 49.747 10h143.991l-31.998-64h-111.993q-13.499 0-24.999-5t-20.249-13.75-13.749-20.25-5-25 5-25 13.749-20.25 20.249-13.75 24.999-5q12.999 0 22.499-9.5t9.5-22.5-9.5-22.5-22.499-9.5zm831.951 416q0 33-12.499 62.25t-34.248 51-50.997 34.25-62.246 12.5h-21.999q2.5 7.5 4.25 15.5t1.75 16.5-1.75 16.5-4.25 15.5h21.999q46.497 0 87.245-17.75t70.995-48 47.997-71 17.749-87.25-17.749-87.25-47.997-71-70.995-48-87.245-17.75h-111.993l31.998 64h79.995q32.998 0 62.246 12.75t50.997 34.5 34.248 50.75 12.499 62z"/></svg>