<svg xmlns="http://www.w3.org/2000/svg" viewBox="0 0 2048 2048"><path d="M1636 693q65 33 117.5 81.5t89.5 108 57 128 20 141.5h-128q0-79-30.5-149T1679 881t-122-82.5-149-30.5-149 30.5-122 82.5-82.5 122-30.5 149q0 91-41.5 173T868 1461q65 33 117.5 81.5t89.5 108 57 128 20 141.5h-128q0-79-30.5-149T911 1649t-122-82.5-149-30.5-149 30.5-122 82.5-82.5 122-30.5 149H128q0-73 20-141.5t57-128 89.5-108T412 1461q-73-54-114.5-136T256 1152q0-79 30.5-149T369 881t122-82.5T640 768q91 0 173 41.5T949 924q38-75 97-134t134-97q-73-54-114.5-136T1024 384q0-79 30.5-149t82.5-122 122-82.5T1408 0t149 30.5 122 82.5 82.5 122 30.5 149q0 91-41.5 173T1636 693zm-996 715q52 0 99-20.5t81.5-55 55-81T896 1152q0-52-20.5-99t-55-81.5-81.5-55-99-20.5q-53 0-99.5 20.5t-81 55-55 81.5-20.5 99q0 53 20.5 99.5t55 81 81 55T640 1408zm512-1024q0 53 20.5 99.5t55 81 81 55T1408 640q52 0 99-20.5t81.5-55 55-81T1664 384q0-52-20.5-99t-55-81.5-81.5-55-99-20.5q-53 0-99.5 20.5t-81 55-55 81.5-20.5 99z"/></svg>