<svg xmlns="http://www.w3.org/2000/svg" viewBox="0 0 2048 2048"><path d="M2048 1573v475h-512v-256h-256v-256h-256v-207q-74 39-155 59t-165 20q-97 0-187-25t-168-71-142.5-110.5T96 1059 25 891 0 704t25-187 71-168 110.5-142.5T349 96t168-71T704 0t187 25 168 71 142.5 110.5T1312 349t71 168 25 187q0 51-8 101t-23 98zm-128 54l-690-690q22-57 36-114.5t14-118.5q0-119-45.5-224T1111 297 928 173.5 704 128t-224 45.5T297 297 173.5 480 128 704t45.5 224T297 1111t183 123.5 224 45.5q97 0 190.5-33t168.5-95h89v256h256v256h256v256h256v-293zM512 384q27 0 50 10t40.5 27.5T630 462t10 50-10 50-27.5 40.5T562 630t-50 10-50-10-40.5-27.5T394 562t-10-50 10-50 27.5-40.5T462 394t50-10z"/></svg>