<svg width="1792" height="1792" viewBox="0 0 1792 1792" xmlns="http://www.w3.org/2000/svg"><path transform="scale(1.75 1.75) translate(0 0)" d="M1024 786.5v237.5h-256v-128h-128v-128h-128v-103.5q-37 19.5-77.5 29.5t-82.5 10q-48.5 0-93.5-12.5t-84-35.5-71.25-55.25-55.25-71.25-35.5-84-12.5-93.5 12.5-93.5 35.5-84 55.25-71.25 71.25-55.25 84-35.5 93.5-12.5 93.5 12.5 84 35.5 71.25 55.25 55.25 71.25 35.5 84 12.5 93.5q0 25.5-4 50.5t-11.5 49zm-64 27l-345-345q11-28.5 18-57.25t7-59.25q0-59.5-22.75-112t-61.75-91.5-91.5-61.75-112-22.75-112 22.75-91.5 61.75-61.75 91.5-22.75 112 22.75 112 61.75 91.5 91.5 61.75 112 22.75q48.5 0 95.25-16.5t84.25-47.5h44.5v128h128v128h128v128h128v-146.5zm-704-621.5q13.5 0 25 5t20.25 13.75 13.75 20.25 5 25-5 25-13.75 20.25-20.25 13.75-25 5-25-5-20.25-13.75-13.75-20.25-5-25 5-25 13.75-20.25 20.25-13.75 25-5z"/></svg>