<svg width="1792" height="1792" viewBox="0 0 1792 1792" xmlns="http://www.w3.org/2000/svg"><path transform="scale(1.75 1.75) translate(0 0)" d="M512 896v64h128v64h-320v-64h128v-64h-448v-576h512l-64.5 64h-383.5v448h832v-384l64-64v512h-448zm-256-192q13.5 0 25-5t20.25-13.75 13.75-20.25 5-25q0-24.5 8.75-46.5t24-39 36-28.25 45.25-13.75l355.5-355.5q14-14 32.5-21.5t38-7.5q20.5 0 38.75 7.75t31.75 21.25 21.25 31.75 7.75 39.25q0 19.5-7.5 38t-21.5 32.5l-355.5 355.5q-2.5 24-13.5 45t-28.25 36.25-39 24-46.25 8.75h-320v-64h128zm604-512q-14.5 0-25 10.5l-222.5 222.5q28.5 22 50.5 50.5l222.5-222.5q10.5-10.5 10.5-25 0-15-10.75-25.5t-25.25-10.5zm-339 324.5q30.5 20 50.5 50.5l46-45.5q-21-30-51-51zm-9 123.5q0-13.5-5-25t-13.75-20.25-20.25-13.75-25-5-25 5-20.25 13.75-13.75 20.25-5 25q0 34-17 64h81q13 0 24.75-5t20.5-13.75 13.75-20.5 5-24.75z"/></svg>