<svg width="1792" height="1792" viewBox="0 0 1792 1792" xmlns="http://www.w3.org/2000/svg"><path transform="scale(1.75 1.75) translate(0 0)" d="M882 794.5q32.5 16 58.75 40.25t44.75 54.25 28.5 64.5 10 70.5h-64q0-39.5-15-74.5t-41.25-61.25-61.25-41.25-74.5-15q-40 0-74.75 15t-61 41.25-41.25 61.25-15 74.5h-64q0-33.5 8.75-66t25.25-62h-162v64q0 20-10.75 35.5t-28.75 23.5q-10.5 5-24.5 5-26.5 0-45.5-19l-146.5-146.5v-858.5h640q13 0 24.75 5t20.5 13.75 13.75 20.5 5 24.75v395q28.5 10 52.25 28.25t40.5 42 26 52 9.25 58.75q0 46-20.5 86.5t-57.5 68zm14-154.5q0-26.5-10-49.75t-27.5-40.75-40.75-27.5-49.75-10-49.75 10-40.75 27.5-27.5 40.75-10 49.75 10 49.75 27.5 40.75 40.75 27.5 49.75 10 49.75-10 40.75-27.5 27.5-40.75 10-49.75zm-576 144q0-22.5 4.75-38.75t11.75-29 15.5-22.75 15.5-20.25 11.75-22 4.75-27.25v-322.5l-192-192v722.5l128 128v-176zm278.5 48q25.5-22.5 55.5-37.5-37-27.5-57.5-68t-20.5-86.5q0-39.5 15-74.5t41.25-61.25 61-41.25 74.75-15v-384h-530.5l192 192q9 9 13.75 20.75t4.75 24.75v322.5q0 22.5-4.75 38.75t-11.75 29-15.5 22.75-15.5 20.25-11.75 22-4.75 27.25v48h214.5z"/></svg>