<svg xmlns="http://www.w3.org/2000/svg" viewBox="0 0 2048 2048"><path d="M1764 1589q65 32 117.5 80.5T1971 1778t57 129 20 141h-128q0-79-30-149t-82.5-122.5T1685 1694t-149-30q-80 0-149.5 30t-122 82.5T1182 1899t-30 149h-128q0-67 17.5-132t50.5-124H768v128q0 40-21.5 71t-57.5 47q-21 10-49 10-53 0-91-38l-293-293V0h1280q26 0 49.5 10t41 27.5 27.5 41 10 49.5v790q57 20 104.5 56.5t81 84 52 104T1920 1280q0 92-41 173t-115 136zm28-309q0-53-20-99.5t-55-81.5-81.5-55-99.5-20-99.5 20-81.5 55-55 81.5-20 99.5 20 99.5 55 81.5 81.5 55 99.5 20 99.5-20 81.5-55 55-81.5 20-99.5zM640 1568q0-45 9.5-77.5t23.5-58 31-45.5 31-40.5 23.5-44 9.5-54.5V603L384 219v1445l256 256v-352zm557 96q51-45 111-75-74-55-115-136t-41-173q0-79 30-149t82.5-122.5 122-82.5 149.5-30V128H475l384 384q18 18 27.5 41.5T896 603v645q0 45-9.5 77.5t-23.5 58-31 45.5-31 40.5-23.5 44-9.5 54.5v96h429z"/></svg>