<svg width="1792" height="1792" viewBox="0 0 1792 1792" xmlns="http://www.w3.org/2000/svg"><path transform="scale(1.75 1.75) translate(0 0)" d="M803.5 606.5q22 0 42.25 8.25t35.75 23.75l110 110q15.5 15.5 23.75 35.75t8.25 42.25-8.25 42.25-23.75 35.75q-28.5 29-52 51.25t-48.5 37.5-55.5 23-73.5 7.75q-62.5 0-128.5-19.5t-131.25-54-128-82-118.5-103.75-102.75-119-81-128-53-130.25-19-126q0-43 7.75-73.25t23-55.5 37.5-48.5 51.25-51.75q15.5-15.5 35.5-24t42.5-8.5q22 0 42.25 8.5t35.75 24l110 110q15.5 15.5 23.75 35.75t8.25 42.25-7.5 39.25-18.5 31.25-24.25 25.5-24.25 22.5-18.5 22.25-7.5 24.25q0 19 13.5 32.5l275.5 275.5q13.5 13.5 32.5 13.5 13 0 24.25-7.5t22.25-18.5 22.5-24.25 25.5-24.25 31.25-18.5 39.25-7.5zm-41.5 353.5q36 0 60.25-6.75t43.75-19.5 38-31.75 42.5-43q13.5-13.5 13.5-32.5 0-9-7.25-21.25t-18.75-25.75-25.75-27.75-28-27-25.5-23.5-18.25-17.25q-13.5-13.5-33-13.5-13 0-24 7.5t-22 18.5-22.75 24.25-25.75 24.25-31.25 18.5-39.25 7.5-42.25-8.25-35.75-23.75l-275.5-275.5q-15.5-15.5-23.75-35.75t-8.25-42.25 7.5-39.25 18.5-31.25 24.25-25.75 24.25-22.75 18.5-22 7.5-24q0-19.5-13.5-33-6.5-6.5-17.25-18.25t-23.5-25.5-27-28-27.75-25.75-25.75-18.75-21.25-7.25q-19 0-32.5 13.5-24 24-42.75 42.5t-32 38-20 43.75-6.75 59.75q0 56 18.25 115.5t50.5 119 76.25 117.25 96 109.25 109.75 95 117 75.25 118 49.5 112.75 17.75z"/></svg>