<svg width="1792" height="1792" viewBox="0 0 1792 1792" xmlns="http://www.w3.org/2000/svg"><path transform="scale(1.75 1.75) translate(0 0)" d="M960 0v1024h-800q-20 0-37.5-7.5t-30.5-20.5-20.5-30.5-7.5-37.5v-800q0-25 10.75-48t28.5-40.75 40.75-28.5 48-10.75h768zm-64 896h-736q-13 0-22.5 9.5t-9.5 22.5 9.5 22.5 22.5 9.5h736v-64zm0-832h-704q-11.5 0-23 5.75t-20.5 14.75-14.75 20.5-5.75 23v709.5q16.5-5.5 32-5.5h736v-768zm-234 704q-51.5 0-106.5-20.75t-107.25-56-98.75-82-81.5-99-55.5-106.5-20.5-104.75q0-27.5 4.75-47t14.25-36 23.75-31.5 32.75-33.5q11.5-11 25.75-17t30.25-6 30.25 6 25.25 17q12 12 27.5 25.25t29.25 28.25 23 32 9.25 36.5q0 15.5-5 27.5t-13 22.25-18 19.5-20 19.25l-4 10.5q0 3.5 11.25 16.5t28.5 30.75 37.75 38.5 39.25 39 33.25 32.25 19.5 19q4 4 10.5 4 5.5 0 11-4.5t11.5-11 13.25-14.5 16.5-14.5 20.75-11 26-4.5q19.5 0 36.5 9.25t32 23 28.25 29.25 25.25 27.5q11 11 17 25.5t6 30q0 16-6 30.25t-17 25.75q-18 18.5-33.25 32.5t-31.25 23.5-35.75 14.5-46.75 5zm-338.5-576q-6 0-10.5 4.5-13.5 13.5-24.25 23.75t-18 21-11 24-3.75 33.25q0 43 18.5 89.5t50 91.5 72.75 85.75 86.25 71.5 91 49 87.5 18.25q20 0 33.25-3.75t24-11.25 20.75-18 23.5-24l4.5-10q0-2.5-5.25-9.75t-13.5-16.25-18-18.75-18.75-17.75-16-13.25-9.5-5.25q-8 0-16.5 9.5t-19.5 20.75-26.25 20.5-36.75 9.25q-16 0-30.25-5.75t-25.75-17.25l-165-165q-23.5-23.5-23.5-56 0-21.5 9.5-36.5t20.75-26.25 20.75-19.75 9.5-16.5q0-2.5-5.25-9.75t-13.5-16.25-17.75-18.75-18.5-17.75-16-13.25-9.5-5.25z"/></svg>