<svg xmlns="http://www.w3.org/2000/svg" viewBox="0 0 2048 2048"><path d="M1607 1213q44 0 84.5 16.5t71.5 47.5l220 220q31 31 47.5 71.5t16.5 84.5-16.5 84.5-47.5 71.5l-14 14q-54 54-99 96t-94 70.5-109 43.5-143 15q-125 0-257-39t-262.5-108-256-164-237-207.5-205.5-238-162-256T38 775 0 523q0-83 14.5-142t43-108 70-93.5T223 81l16-16q31-31 71-48t85-17q44 0 84.5 17T551 65l220 220q31 31 47.5 71.5T835 441t-15 78.5-37 62.5-48.5 51-48.5 45-37 44.5-15 48.5q0 38 27 65l551 551q27 27 65 27 26 0 48.5-15t44.5-37 45-48.5 51-48.5 62.5-37 78.5-15zm-83 707q72 0 120.5-13.5t87.5-39 76-63.5 85-86q27-27 27-65 0-18-14.5-42.5T1868 1559t-51.5-55.5-56-54-51-47-36.5-34.5q-27-27-66-27-26 0-48 15t-44 37-45.5 48.5-51.5 48.5-62.5 37-78.5 15-84.5-16.5-71.5-47.5L570 927q-31-31-47.5-71.5T506 771t15-78.5 37-62.5 48.5-51.5T655 533t37-44 15-48q0-39-27-66-13-13-34.5-36.5t-47-51-54-56T489 180t-51.5-37.5T395 128q-38 0-65 27-48 48-85.5 85t-64 76-40 87.5T127 523q0 112 36.5 231t101 238T417 1226.5 609 1445t219.5 190 234 150.5 236 99T1524 1920z"/></svg>