<svg xmlns="http://www.w3.org/2000/svg" viewBox="0 0 2048 2048"><path d="M1920 0v2048H320q-40 0-75-15t-61-41-41-61-15-75V256q0-50 21.5-96t57-81.5 81.5-57T384 0h1536zm-128 1792H320q-26 0-45 19t-19 45 19 45 45 19h1472v-128zm0-1664H384q-23 0-46 11.5T297 169t-29.5 41-11.5 46v1419q33-11 64-11h1472V128zm-468 1408q-103 0-213-41.5t-214.5-112-197.5-164-163-198-111-213T384 598q0-55 9.5-94t28.5-72 47.5-63 65.5-67q23-22 51.5-34t60.5-12 60.5 12 50.5 34q24 24 55 50.5t58.5 56.5 46 64 18.5 73q0 31-10 55t-26 44.5-36 39-40 38.5l-8 21q0 7 22.5 33t57 61.5 75.5 77 78.5 78 66.5 64.5 39 38q8 8 21 8 11 0 22-9t23-22 26.5-29 33-29 41.5-22 52-9q39 0 73 18.5t64 46 56.5 58.5 50.5 55q22 22 34 51t12 60q0 32-12 60.5t-34 51.5q-36 37-66.5 65t-62.5 47-71.5 29-93.5 10zM647 384q-12 0-21 9-27 27-48.5 47.5t-36 42-22 48T512 597q0 86 37 179t100 183 145.5 171.5 172.5 143 182 98 175 36.5q40 0 66.5-7.5t48-22.5 41.5-36 47-48l9-20q0-5-10.5-19.5t-27-32.5-36-37.5-37.5-35.5-32-26.5-19-10.5q-16 0-33 19t-39 41.5-52.5 41-73.5 18.5q-32 0-60.5-11.5T1064 1186L734 856q-47-47-47-112 0-43 19-73t41.5-52.5T789 579t19-33q0-5-10.5-19.5t-27-32.5-35.5-37.5-37-35.5-32-26.5-19-10.5z"/></svg>