<svg xmlns="http://www.w3.org/2000/svg" viewBox="0 0 2048 2048"><path d="M1152 0q124 0 238.5 32t214 90.5 181 140 140 181 90.5 214 32 238.5h-896V0zm128 768h630q-21-121-76.5-226.5T1695 353t-188.5-138.5T1280 138v630zm-256 256h896q0 59-3 114t-11.5 109-23 107.5T1845 1462q-57 134-148 242t-206.5 184.5-250.5 118-280 41.5q-133 0-255.5-34T475 1917.5t-194.5-150-150-194.5T34 1343.5 0 1088t34-255.5T130.5 603t150-194.5 194.5-150T704.5 162 960 128h64v896zm-128 128V258q-108 8-207 42.5T505 391 350 522.5t-119 165-76 191-27 209.5q0 115 30 221t84 198.5T372 1676t168.5 130 198.5 84 221 30q108 0 209.5-27t191-76 165-119 131.5-155 90.5-184 42.5-207H896z"/></svg>