<svg width="1792" height="1792" viewBox="0 0 1792 1792" xmlns="http://www.w3.org/2000/svg"><path transform="scale(1.75 1.75) translate(0 0)" d="M576 0q62 0 119.25 16t107 45.25 90.5 70 70 90.5 45.25 107 16 119.25h-448v-448zm64 384h315q-10.5-60.5-38.25-113.25t-69.25-94.25-94.25-69.25-113.25-38.25v315zm-128 128h448q0 29.5-1.5 57t-5.75 54.5-11.5 53.75-18.75 53.75q-28.5 67-74 121t-103.25 92.25-125.25 59-140 20.75q-66.5 0-127.75-17t-114.75-48.25-97.25-75-75-97.25-48.25-114.75-17-127.75 17-127.75 48.25-114.75 75-97.25 97.25-75 114.75-48.25 127.75-17h32v448zm-64 64v-447q-54 4-103.5 21.25t-92 45.25-77.5 65.75-59.5 82.5-38 95.5-13.5 104.75q0 57.5 15 110.5t42 99.25 65 84.25 84.25 65 99.25 42 110.5 15q54 0 104.75-13.5t95.5-38 82.5-59.5 65.75-77.5 45.25-92 21.25-103.5h-447z"/></svg>