<svg width="1792" height="1792" viewBox="0 0 1792 1792" xmlns="http://www.w3.org/2000/svg"><path transform="scale(1.75 1.75) translate(0 0)" d="M1024 256v448h-32q-39 0-71.5-16.75t-56-47.25h-247q-14 29.5-35 53.25t-47.25 40.25-56.5 25.5-62.75 9h-32v-256h-320l-64-32 64-32h320v-256h32q32.5 0 62.75 9t56.5 25.5 47.25 40.25 35 53.25h247q23.5-30.5 56-47.25t71.5-16.75h32zm-64 69.5q-12 4-20.5 10t-15.25 13.25-12.5 16.25-11.75 19h-326.5l-7.5-21.5q-14-39.5-45.5-67t-72.5-36v441q41-8.5 72.5-36t45.5-67l7.5-21.5h326.5q6 10 11.75 19t12.5 16.25 15.25 13.25 20.5 10v-309z"/></svg>