<svg width="1792" height="1792" viewBox="0 0 1792 1792" xmlns="http://www.w3.org/2000/svg"><path transform="scale(1.75 1.75) translate(0 0)" d="M995 374q-16.5 16.5-32.25 30.25t-32.5 23.25-36.5 14.75-44.75 5.25q-17 0-32.5-3l-189.5 189.5q6.5 19 9.5 39t3 40q0 32.5-6.5 59t-18.75 50-29.75 44.75-39.5 43.25l-193-193-284 284.5-68 22.5 22.5-68 284.5-284-193-193 22.5-22.5q35-35 80.25-53.5t94.75-18.5q41 0 78.5 12.5l189.5-189.5q-3-15.5-3-32.5 0-24.5 5.25-44.25t14.75-36.75 23.25-32.75 30.25-32.25zm-146 9.5q27.5 0 52-13l-247.5-247.5q-13 24.5-13 52 0 14 3.25 26.25t7.25 25.25l-246 245.5q-12.5-5-23.5-9.5t-22-7.5-22.75-4.75-25.25-1.75q-28.5 0-55.25 8.25t-49.75 24.25l336.5 336.5q16-23 24.5-49.75t8.5-54.75q0-13.5-1.75-25.25t-5-23-7.75-22.25-9.5-23.5l245.5-246q13 4 25.25 7.25t26.25 3.25z"/></svg>