<svg xmlns="http://www.w3.org/2000/svg" viewBox="0 0 2048 2048"><path d="M1990 748q-33 33-64.5 60.5t-65 46.5-73 29.5T1698 895q-34 0-65-6l-379 379q13 38 19 78t6 80q0 65-13 118t-37.5 100-59.5 89.5-79 86.5l-386-386-568 569-136 45 45-136 569-568-386-386 45-45q70-70 160.5-107T623 769q82 0 157 25l379-379q-6-31-6-65 0-49 10.5-88.5T1193 188t46.5-65.5T1300 58zm-292 19q55 0 104-26l-495-495q-26 49-26 104 0 28 6.5 52.5T1302 453L810 944q-25-10-47-19t-44-15-45.5-9.5T623 897q-57 0-110.5 16.5T413 962l673 673q32-46 49-99.5t17-109.5q0-27-3.5-50.5t-10-46-15.5-44.5-19-47l491-492q26 8 50.5 14.5t52.5 6.5z"/></svg>