<svg width="1792" height="1792" viewBox="0 0 1792 1792" xmlns="http://www.w3.org/2000/svg"><path transform="scale(1.75 1.75) translate(0 0)" d="M1024 512q0 70-18.5 136t-53 124-83.75 106.25-110.25 81.75h137.5v64h-256v-256h64v147q58.5-27.5 105.75-69.75t80.5-94.75 51.5-113.25 18.25-125.25q0-61.5-16-118.75t-45.25-107-70.25-90.75-90.75-70.25-107-45.25-118.75-16-118.75 16-107 45.25-90.75 70.25-70.25 90.75-45.25 107-16 118.75q0 75 24 144.5t67.5 126.5 104 98.75 133 61.75l-17 61.5q-55-15.5-104.25-42t-91-62-75.25-79.5-56.75-93.5-35.75-104-12.5-112q0-70.5 18.25-136t51.75-122.25 80.25-103.5 103.5-80.25 122.25-51.75 136-18.25 136 18.25 122.25 51.75 103.5 80.25 80.25 103.5 51.75 122.25 18.25 136zm-256 0l-384 221.5v-443z"/></svg>