<svg xmlns="http://www.w3.org/2000/svg" viewBox="0 0 2048 2048"><path d="M768 1024q-88 0-170 23t-153 64.5-129.5 100-100 129.5-64.5 153-23 170H0q0-117 35.5-229t101-207.5 157-169T496 946q-56-36-100.5-83T320 760t-47.5-118.5T256 512q0-106 40-199.5t109.5-163T568.5 40 768 0t199.5 40 163 109.5 109.5 163 40 199.5q0 67-16.5 129.5T1216 760t-75.5 103-100.5 83q69 26 132 64.5t117 88.5l-87 95q-89-82-201-126t-233-44zM384 512q0 80 30 149.5t82.5 122 122 82.5T768 896q79 0 149-30t122.5-82.5 82.5-122 30-149.5q0-79-30-149t-82.5-122.5T917 158t-149-30q-80 0-149.5 30t-122 82.5T414 363t-30 149zm1530 1027q6 30 6 61t-6 61l124 51-49 119-124-52q-35 51-86 86l52 124-119 49-51-124q-30 6-61 6t-61-6l-51 124-119-49 52-124q-51-35-86-86l-124 52-49-119 124-51q-6-30-6-61t6-61l-124-51 49-119 124 52q35-51 86-86l-52-124 119-49 51 124q30-6 61-6t61 6l51-124 119 49-52 124q51 35 86 86l124-52 49 119zm-314 253q40 0 75-15t61-41 41-61 15-75-15-75-41-61-61-41-75-15-75 15-61 41-41 61-15 75 15 75 41 61 61 41 75 15z"/></svg>