<svg xmlns="http://www.w3.org/2000/svg" viewBox="0 0 2048 2048"><path d="M102.119 960l958.941 960h533.967l337.979-339q24.999-25 37.498-57.5t12.499-67.5-12.499-67.5-36.498-56.5L832.076 230zm729.955-550l677.959 678-549.967 550-677.959-678zm217.986 1318l549.967-550 242.985 243q12.999 13 12.999 35t-13.999 36l-299.981 300h-426.975zm997.94 64h-127.992v128H2048v-128zM880.071 1920l-111.993-112v112h111.993zm-239.985-128H512.094v128h127.992v-128zm-255.984 0H256.11v128h127.992v-128zM.125 1792v128h127.992v-128H.125z"/></svg>