<svg width="1792" height="1792" viewBox="0 0 1792 1792" xmlns="http://www.w3.org/2000/svg"><path transform="scale(1.75 1.75) translate(0 0)" d="M51.059 480l479.47 480h266.984l168.99-169.5q12.5-12.5 18.749-28.75t6.25-33.75-6.25-33.75-18.249-28.25l-550.965-551zm364.978-275l338.979 339-274.983 275-338.979-339zm108.993 659l274.984-275 121.493 121.5q6.5 6.5 6.5 17.5t-7 18l-149.99 150h-213.488zm498.97 32h-63.996v64h63.996v-64zm-583.964 64l-55.997-56v56h55.996zm-119.993-64h-63.996v64h63.996v-64zm-127.992 0h-63.996v64h63.996v-64zm-191.988 0v64h63.996v-64h-63.996z"/></svg>