<svg xmlns="http://www.w3.org/2000/svg" viewBox="0 0 2048 2048"><path d="M320 1280q26 0 45 19t19 45-19 45-45 19-45-19-19-45 19-45 45-19zm1408 0q26 0 45 19t19 45-19 45-45 19-45-19-19-45 19-45 45-19zm283-384l-66 65q2 5 10 30t19.5 59 24.5 73 24 71.5 18 54l7 21.5v650q0 27-10 50t-27.5 40.5-40.5 27.5-50 10h-128q-27 0-50-10t-40.5-27.5-27.5-40.5-10-50H384q0 27-10 50t-27.5 40.5T306 2038t-50 10H128q-27 0-50-10t-40.5-27.5T10 1970t-10-50v-650l7-21.5 18-54 24-71.5 24.5-73L93 991l10-30-66-65H0V768h91l57 58 74-223q16-49 46.5-89.5t70.5-69 87.5-44.5 99.5-16h996q52 0 99.5 16t87.5 44.5 70 69 47 89.5l74 223 57-58h91v128h-37zM526 512q-63 0-112.5 36T344 643l-85 253h1530l-85-253q-20-59-69.5-95T1522 512H526zm882 1231l-104-207H744l-104 207v49h768v-49zm-896-30l120-241-120-241v-207H217q-2 5-9 26t-17 50.5-21 63-20.5 61.5-15.5 46.5l-6 18.5v502h384v-79zm896-512v-177H640v177l104 207h560zm512 591v-502l-6-18.5-15.5-46.5-20.5-61.5-21-63-17.5-50.5-8.5-26h-295v207l-120 241 120 241v79h384zM448 256q-26 0-45-19t-19-45 19-45 45-19h1152q26 0 45 19t19 45-19 45-45 19H448z"/></svg>