<svg width="1792" height="1792" viewBox="0 0 1792 1792" xmlns="http://www.w3.org/2000/svg"><path transform="scale(1.75 1.75) translate(0 0)" d="M544 512h-64v-512h64v512zm106-362q69 22 126.25 64t98 98.5 63.25 124 22.5 139.5q0 62-16 119.25t-45.25 107-70 90.5-90.5 70-107 45.25-119.25 16-119.25-16-107-45.25-90.5-70-70-90.5-45.25-107-16-119.25q0-72 22.5-139.5t63.25-124 98-98.5 126.25-64l20 60.5q-59.5 19.5-108.5 55.5t-84 84-54.25 105.75-19.25 120.25q0 53 13.75 102t38.75 91.75 60 77.75 77.75 60 91.75 38.75 102 13.75 102-13.75 91.75-38.75 77.75-60 60-77.75 38.75-91.75 13.75-102q0-62.5-19.25-120.25t-54.25-105.75-84-84-108.5-55.5z"/></svg>