<svg width="1792" height="1792" viewBox="0 0 1792 1792" xmlns="http://www.w3.org/2000/svg"><path transform="scale(1.75 1.75) translate(0 0)" d="M557.5 0l274.5 274.5v45.5h-320v-320h45.5zm18.5 256h146.5l-146.5-146.5v146.5zm192 192v-64h64v64h-64zm0 128v-64h64v64h-64zm0 128v-64h64v64h-64zm0 128v-64h64v64h-64zm0 128v-64h64v64h-64zm-128 0v-64h64v64h-64zm-128 0v-64h64v64h-64zm-128 0v-64h64v64h-64zm-128 0v-64h64v64h-64zm-128 0v-64h64v64h-64zm0-512v-64h64v64h-64zm0-128v-64h64v64h-64zm0-128v-64h64v64h-64zm0-128v-64h64v64h-64zm128 0v-64h64v64h-64zm128 0v-64h64v64h-64zm-256 512v-64h64v64h-64zm0 128v-64h64v64h-64zm0 128v-64h64v64h-64z"/></svg>