<svg width="1792" height="1792" viewBox="0 0 1792 1792" xmlns="http://www.w3.org/2000/svg"><path transform="scale(1.75 1.75) translate(0 0)" d="M896 64q13.5 0 25 5t20.25 13.75 13.75 20.25 5 25v768q0 13.5-5 25t-13.75 20.25-20.25 13.75-25 5h-832q-13.5 0-25-5t-20.25-13.75-13.75-20.25-5-25v-448q0-13.5 5-25t13.75-20.25 20.25-13.75 25-5h192v-256q0-13.5 5-25t13.75-20.25 20.25-13.75 25-5h576zm-640 832v-448h-192v448h192zm640-768h-576v768h576v-768zm-736 384q13 0 22.5 9.5t9.5 22.5-9.5 22.5-22.5 9.5-22.5-9.5-9.5-22.5 9.5-22.5 22.5-9.5zm672 320h-448l224-448zm-224-305l-56.5 113h113zm-120.5 241h241l-32-64h-177z"/></svg>