<svg width="1792" height="1792" viewBox="0 0 1792 1792" xmlns="http://www.w3.org/2000/svg"><path transform="scale(1.75 1.75) translate(0 0)" d="M320 256v-148.5q-66 31.5-118 82t-86 115l-59.5-24.5q35-68.5 88.25-123.5t120.25-92.5h-137v-64h256v256h-64zm588 48.5q-31.5-60.5-79.75-108.75t-108.75-79.75l24.5-59q72 37 129.25 94t94.25 129zm-844 207.5q0 34 5 67.5t15.5 66l-59 24.5q-25.5-76.5-25.5-158t25.5-158l59.5 24.5q-10 32.5-15.5 66t-5.5 67.5zm934.5-158q25.5 76.5 25.5 158t-25.5 158l-59-24.5q10.5-32.5 15.5-66t5-67.5-5.5-67.5-15.5-66zm-486.5 606q34 0 67.5-5t66-15.5l25 59q-76.5 25.5-158.5 25.5t-158.5-25.5l25-59q32.5 10.5 66 15.5t67.5 5zm207.5-51.5q60.5-31.5 109-80t80-109l59.5 24.5q-37.5 72-94.75 129.25t-129.25 94.75zm-604-189q31.5 60.5 80 109t109 80l-24.5 59.5q-72-37.5-129.25-94.75t-94.75-129.25z"/></svg>