<svg xmlns="http://www.w3.org/2000/svg" viewBox="0 0 2048 2048"><path d="M1024 96q33 0 62 12.5t51 34.5 34.5 51 12.5 62-12.5 62-34.5 51-51 34.5-62 12.5-62-12.5-51-34.5-34.5-51-12.5-62 12.5-62 34.5-51 51-34.5 62-12.5zM337 481q0-30 11-56t30.5-45.5 46-31T481 337t56 11.5 45.5 31 31 45.5 11.5 56-11.5 56.5-31 46T537 614t-56 11-56.5-11-46-30.5-30.5-46-11-56.5zm-81 415q27 0 50 10t40.5 27.5T374 974t10 50-10 50-27.5 40.5T306 1142t-50 10-50-10-40.5-27.5T138 1074t-10-50 10-50 27.5-40.5T206 906t50-10zm113 671q0-23 9-43.5t24-35.5 35.5-24 43.5-9 43.5 9 35.5 24 24 35.5 9 43.5-9 43.5-24 35.5-35.5 24-43.5 9-43.5-9-35.5-24-24-35.5-9-43.5zm655 129q40 0 68 28t28 68-28 68-68 28-68-28-28-68 28-68 68-28zm463-129q0-34 23-57t57-23 57 23 23 57-23 57-57 23-57-23-23-57zm305-607q26 0 45 19t19 45-19 45-45 19-45-19-19-45 19-45 45-19zm-225-655q36 0 68 14t56 38 38 56 14 68-14 68-38 56-56 38-68 14-68-14-56-38-38-56-14-68 14-68 38-56 56-38 68-14z"/></svg>