<svg width="1792" height="1792" viewBox="0 0 1792 1792" xmlns="http://www.w3.org/2000/svg"><path transform="scale(1.75 1.75) translate(0 0)" d="M640 704v21.5l51 70q4.5 6.5 7.5 17.5t3 19q0 13-5 24.75t-13.75 20.5-20.5 13.75-24.75 5h-571q-13 0-24.75-5t-20.5-13.75-13.75-20.5-5-24.75q0-8 3-19t7.5-17.5l51-70v-341.5h192v-256h768v576h-384zm-512 0h448v-256h-448v256zm509.5 127.5q-2.5-5.5-8.5-14t-13-17.5-13.75-17.75-10.75-14.25h-479q-4 5.5-10.75 14.25t-13.75 17.75-13 17.5-8.5 14v.5l571-.5zm2.5-447.5v256h320v-448h-640v192h320z"/></svg>