<svg width="1792" height="1792" viewBox="0 0 1792 1792" xmlns="http://www.w3.org/2000/svg"><path transform="scale(1.75 1.75) translate(0 0)" d="M1024 256v448h-64v64h-128v-64h-640v64h-128v-64h-64v-448h1024zm-384 288q0 20 7.5 37.5t20.5 30.5 30.5 20.5 37.5 7.5 37.5-7.5 30.5-20.5 20.5-30.5 7.5-37.5-7.5-37.5-20.5-30.5-30.5-20.5-37.5-7.5-37.5 7.5-30.5 20.5-20.5 30.5-7.5 37.5zm320-224h-896v320h544q-15.5-21-23.75-45.5t-8.25-50.5q0-33 12.75-62t34.5-50.75 50.75-34.5 62-12.75 62 12.75 50.75 34.5 34.5 50.75 12.75 62q0 26-8.25 50.5t-23.75 45.5h96v-320zm-640 128h-192v-64h192v64zm0 128h-192v-64h192v64z"/></svg>