<svg xmlns="http://www.w3.org/2000/svg" viewBox="0 0 2048 2048"><path d="M960 0q133 0 255.5 34t229.5 96.5 194.5 150 150 194.5 96.5 229.5 34 255.5-34 255.5-96.5 229.5-150 194.5-194.5 150-229.5 96.5-255.5 34-255.5-34-229.5-96.5-194.5-150-150-194.5T34 1215.5 0 960t34-255.5T130.5 475t150-194.5 194.5-150T704.5 34 960 0zm470 1646q128-88 216-216l-108-63 64-110 108 62q34-69 54-143.5t26-151.5h-126V896h126q-6-77-26-151.5T1710 601l-108 62-64-110 108-63q-88-128-216-216l-63 108-110-64 62-108q-69-34-143.5-54T1024 130v126H896V130q-77 6-151.5 26T601 210l62 108-110 64-63-108q-128 88-216 216l108 63-64 110-108-62q-34 69-54 143.5T130 896h126v128H130q6 77 26 151.5t54 143.5l108-62 64 110-108 63q88 128 216 216l63-108 110 64-62 108q69 34 143.5 54t151.5 26v-126h128v126q77-6 151.5-26t143.5-54l-62-108 110-64z"/></svg>