<svg width="1792" height="1792" viewBox="0 0 1792 1792" xmlns="http://www.w3.org/2000/svg"><path transform="scale(1.75 1.75) translate(0 0)" d="M960 640v384h-448v-384h64q0-38 8.75-72.75t28-61.25 49.5-42.25 73.75-15.75 73.75 15.75 49.5 42.25 28 61.25 8.75 72.75h64zm-320 0h192v-32q0-20-7.5-37.5t-20.5-30.5-30.5-20.5-37.5-7.5-37.5 7.5-30.5 20.5-20.5 30.5-7.5 37.5v32zm256 64h-320v256h320v-256zm-704 256h256v64h-320v-877.5l146.5-146.5h621.5v430q-14.5-13-30.5-23.5t-33.5-18.5v-324h-530.5l-109.5 109.5v786.5z"/></svg>