<svg width="1792" height="1792" viewBox="0 0 1792 1792" xmlns="http://www.w3.org/2000/svg"><path transform="scale(1.75 1.75) translate(0 0)" d="M760.5 443.5l-61.5 25.5q5 20 5 43t-5 43l61.5 25.5-24 59-62-25.5q-23 37.5-60.5 60.5l25.5 62-59 24-25.5-61.5q-20 5-43 5t-43-5l-25.5 61.5-59-24 25.5-62q-37.5-23-60.5-60.5l-62 25.5-24-59 61.5-25.5q-5-20-5-43t5-43l-61.5-25.5 24-59 62 25.5q23-37.5 60.5-60.5l-25.5-62 59-24 25.5 61.5q20-5 43-5t43 5l25.5-61.5 59 24-25.5 62q37.5 23 60.5 60.5l62-25.5zm-248.5 196.5q26 0 49.5-10.25t40.75-27.5 27.5-40.5 10.25-49.75q0-26-10.25-49.5t-27.5-40.75-40.75-27.5-49.5-10.25q-26.5 0-49.75 10.25t-40.5 27.5-27.5 40.75-10.25 49.5q0 26.5 10.25 49.75t27.5 40.5 40.5 27.5 49.75 10.25zm389.5 224l-115 114.5-37-37 45-45.5h-666.5v-256h64v192h602.5l-45-45.5 37-37zm-664-589.5l-115-114.5 115-114.5 37 37-45 45.5h666.5v256h-64v-192h-602.5l45 45.5z"/></svg>