<svg xmlns="http://www.w3.org/2000/svg" viewBox="0 0 4740 2048"><path d="M438 1083l238 250-102 106-234-252-238 252L0 1331l238-248L0 830l100-106 240 252 237-252 97 112zm3787-460q-23 0-43-9.5t-34-25-22-36-8-43.5q0-22 8.5-42t22.5-36 33.5-25.5 42.5-9.5q22 0 42 9.5t34.5 25 23 36 8.5 42.5-8.5 42.5-23 36.5-34 25.5-42.5 9.5zM2298 890q-43 0-70.5-29t-27.5-72q0-44 26-75t72-31 71 30 25 75q0 42-26 72t-70 30zm-3 383q46 0 71.5 31.5t25.5 75.5q0 21-7 39t-20 32-31 22-39 8q-42 0-70-29t-28-71q0-22 6.5-41.5t19.5-34.5 31-23.5 41-8.5zm1930-13q23 0 43 9t34.5 24 22.5 35.5 8 43.5-8.5 43-23 36-34 25-42.5 9-42.5-9.5-34-25-22.5-36-8-42.5 8-42.5 22.5-36 34-24.5 42.5-9zm-2270-253h679v150h-679v-150zm1864 47q-23 0-42.5-9t-34-25-23-36-8.5-43q0-22 8-43t22.5-36.5 34.5-25 43-9.5 42.5 9.5 34 25T3918 898t8 43-8 42.5-22.5 36-34 25-42.5 9.5zm814-227q23 0 42.5 9.5t34 25T4732 898t8 43q0 23-8 43t-22.5 36-34 25-42.5 9q-24 0-43.5-9t-33.5-24.5-22-36-8-43.5q0-22 8-43t22-36.5 34-25 43-9.5zm-366 114l472 499-43 44-471-500-471 501-43-43 473-501-472-500 43-43 470 498 471-498 43 43z"/></svg>