<svg xmlns="http://www.w3.org/2000/svg" viewBox="0 0 5240 2048"><path d="M939 1223q50 0 91.5-16.5t75.5-45 61-65 49-77.5l93 52q-29 55-66.5 102.5t-84 83-102 56T937 1333q-72 0-125-21.5t-96-53.5-80-69.5-76-69.5-84.5-53.5T371 1044q-49 0-90.5 17t-76 45.5-62.5 66-49 77.5l-93-53q30-54 67-102t82.5-83 101-55.5T373 936q73 0 126.5 21.5t96 53 78.5 69 74.5 69 84 53T939 1223zm1703-183q19 0 35.5 7.5t28.5 20.5 18.5 30 6.5 36-6.5 36-18.5 30.5-28.5 21.5-35.5 8q-20 0-36.5-8t-28.5-21-18.5-30.5-6.5-36.5q0-40 24-67t66-27zm-476 0q40 0 65 27.5t25 66.5q0 18-7 35.5t-19 31-28.5 21.5-35.5 8q-20 0-36.5-8t-28.5-21-18.5-30.5-6.5-36.5q0-25 6.5-36.5t18.5-31.5q17-14 30-20t35-6zm952 0q19 0 35.5 7.5t28.5 20.5 18.5 30 6.5 36-6.5 36-18.5 30.5-28.5 21.5-35.5 8q-20 0-36.5-8t-28.5-21-19-30.5-7-36.5q0-40 25-67t66-27zm1756-257q36 47 79 96t90 95 96.5 87 100.5 73q-106 73-197 161t-169 190l-78-50q28-38 56-70.5t57.5-63 61-60 66.5-60.5H3919v-94h1118q-69-54-129-119.5T4796 833z"/></svg>