<svg xmlns="http://www.w3.org/2000/svg" viewBox="0 0 2620 1024"><path d="M469.5 611.5q25 0 45.75-8.25t37.75-22.5 30.5-32.5 24.5-38.75l46.5 26q-14.5 27.5-33.25 51.25t-42 41.5-51 28-59.75 10.25q-36 0-62.5-10.75t-48-26.75-40-34.75-38-34.75-42.25-26.75-52.25-10.75q-24.5 0-45.25 8.5t-38 22.75-31.25 33-24.5 38.75l-46.5-26.5q15-27 33.5-51t41.25-41.5 50.5-27.75 61.25-10.25q36.5 0 63.25 10.75t48 26.5 39.25 34.5 37.25 34.5 42 26.5 53.25 10.75zm851.5-91.5q9.5 0 17.75 3.75t14.25 10.25 9.25 15 3.25 18-3.25 18-9.25 15.25-14.25 10.75-17.75 4q-10 0-18.25-4t-14.25-10.5-9.25-15.25-3.25-18.25q0-20 12-33.5t33-13.5zm-238 0q20 0 32.5 13.75t12.5 33.25q0 9-3.5 17.75t-9.5 15.5-14.25 10.75-17.75 4q-10 0-18.25-4t-14.25-10.5-9.25-15.25-3.25-18.25q0-12.5 3.25-18.25t9.25-15.75q8.5-7 15-10t17.5-3zm476 0q9.5 0 17.75 3.75t14.25 10.25 9.25 15 3.25 18-3.25 18-9.25 15.25-14.25 10.75-17.75 4q-10 0-18.25-4t-14.25-10.5-9.5-15.25-3.5-18.25q0-20 12.5-33.5t33-13.5zm878-128.5q18 23.5 39.5 48t45 47.5 48.25 43.5 50.25 36.5q-53 36.5-98.5 80.5t-84.5 95l-39-25q14-19 28-35.25t28.75-31.5 30.5-30 33.25-30.25h-559v-47h559q-34.5-27-64.5-59.75t-56-67.25z"/></svg>