<svg xmlns="http://www.w3.org/2000/svg" viewBox="0 0 4603 2048"><path d="M147 999q32 0 59.5 12.5t47 34 30.5 50 11 59.5-11 59.5-31 50-47 34-59 12.5-59-12.5-46.5-34-30.5-50T0 1155q0-30 11-58.5t31-50 46.5-34.5 58.5-13zm2011 141v6l382 187-60 110-343-257-5 4 36 443h-117l36-443-5-4-343 257-59-110 381-187v-6l-381-187 59-110 343 256 5-3-36-443h117l-36 443 5 3 343-256 60 110zm2445 591h-141q-64-56-118-121-39 34-77.5 60t-79.5 43.5-86.5 26.5-98.5 9q-71 0-131.5-23.5T3765 1659t-70.5-102-25.5-131q0-61 16-110t45-89.5 70.5-73 91.5-61.5v-6q-20-24-37-53.5t-30-61.5-20.5-65-7.5-64q0-60 20.5-111.5t57-90 87-60T4073 559q52 0 95.5 18t75 49.5T4292 702t17 96q0 62-21.5 109t-57.5 83.5-82.5 66-95.5 54.5v5q69 89 146.5 178.5T4356 1463q26-34 43.5-76.5t30-88.5 21-92 15.5-88h107q-8 53-20 110t-30.5 112.5T4478 1447t-62 91zM4064 646q-39 0-68.5 15t-49.5 40.5-30 58.5-10 69q0 32 7 60.5t19 55 28.5 51.5 35.5 50q35-19 72-41.5t68-51.5 50.5-65 19.5-81q0-32-9.5-61t-27.5-51.5-44.5-35.5-60.5-13zm-37 1006q75 0 141-29t117-83q-88-86-173-185t-163-195q-36 19-67 44t-53 56-34.5 68-12.5 80q0 54 18 98.5t50.5 77 77.5 50.5 99 18z"/></svg>