<svg xmlns="http://www.w3.org/2000/svg" viewBox="0 0 4342 2048"><path d="M130 1500q27 0 50.5 8.5t40.5 24 27 38 10 50.5q0 58-37.5 90t-93.5 32q-27 0-50-9t-40-25-27-38.5T0 1621q0-28 10-50.5t28-38 41.5-24 50.5-8.5zm0-541q27 0 50.5 9t40.5 25 27 38.5 10 49.5q0 29-10 51.5t-28 38-42 24-51 8.5q-26 0-49.5-9T37 1168.5 10 1130t-10-49q0-28 10.5-50.5t28-38.5 41-24.5T130 959zm1944 0q54 0 90 33t36 89q0 59-36 90.5t-93 31.5q-26 0-49-9t-40-25.5-27-38.5-10-49q0-57 37-89.5t92-32.5zm-101 580h204l-103 374h-171zm2369 318v88h-593v-88h593z"/></svg>