<svg xmlns="http://www.w3.org/2000/svg" viewBox="0 0 2474 1024"><path d="M293 281.5q53 0 96 19t73.25 52.25 46.5 78.25 16.25 96.5q0 21-3.5 44t-10.75 45.75-18.5 43.5-27 36.5-36.25 25-45.5 9.25q-15.5 0-26.5-5.25t-18.25-14.25-10.5-21.25-3.25-26.25q0-2.5.25-5.5t.25-5.5h-3q-19 35-47 56.5t-69.5 21.5q-21 0-37-9.5t-26.75-25-16-34.25-5.25-37.75q0-40.5 14.25-77.25t39.5-64.75 60.25-44.75 76.5-16.75q21.5 0 43.5 4t41.5 13l-31 167q-2.5 11.5-4 23.75t-1.5 23.75q0 9 1.25 17t5 14.25 10.25 9.75 17 3.5q13.5 0 25.75-7.5t21.25-17.5q12.5-13.5 21.25-30.25t14.25-34.75 8-37 2.5-37q0-46.5-13-86.5t-38.25-69.5-62.5-46.5-86.25-17q-59.5 0-105.75 25.25t-77.75 66.5-48 93.75-16.5 107q0 47.5 14 90.25t40.75 75.25 66 51.75 89.75 19.25q33 0 64.5-7.25t60-24.75l11.5 30.5q-31.5 20-68.75 28.25t-74.25 8.25q-56.5 0-101.25-22t-76-59-48-85.5-16.75-101.5q0-43 9-84t26.25-77.5 42.5-67.25 58-52.75 72-34.5 85.25-12.5zm-70 411.5q16.5 0 30.25-7t24.75-18.25 19.75-25 15.25-27.25 12-34.25 10-42.5 7.75-41.25 5.75-31q-11.5-3.5-22.5-5.5t-22.5-2q-31 0-56.5 14.75t-43.75 38.5-28.25 52.75-10 57.5q0 14 3.25 26.75t10.25 22.5 18 15.5 26.5 5.75zm1222-391l-326 573.5h-39.5l325.5-573.5h40zm-253 149.5q0 27-5.25 56t-18 53.25-34.5 40-54.75 15.75q-31 0-52-14.75t-33.75-37.25-18.5-50-5.75-53q0-26.5 6-55t19.5-52.25 35.5-39.25 54-15.5q31.5 0 52 14t33 36 17.5 49 5 53zm-176.5 6q0 16 2.25 36.75t9 39.25 19.5 31.5 33.75 13q22.5 0 35.5-13t19.5-32 8.25-40 1.75-37.5-1.75-37-8-38.5-19.25-30-35.5-12q-21 0-33.75 13t-19.75 31.5-9.25 39-2.25 36zm1357.5 69l-14.5 122h96.5v44.5h-103.5l-21 173.5h-45l20.5-173.5h-128l-20.5 173.5h-45l20.5-173.5h-94.5v-44.5h101l15-122h-96.5v-44.5h103l20.5-170.5h45l-20 170.5h127.5l19-170.5h47l-20.5 170.5h94v44.5h-100.5zm-46 0h-127l-14.5 122h127.5zm-874.5 27q31.5 0 52 14.25t32.75 36.25 17.25 49 5 53q0 27-5.25 56t-18 53-34.25 39.5-54.5 15.5q-31 0-52-14.5t-34-37.25-18.75-50-5.75-52.75q0-21 3.25-43.25t11.5-42.75 21.75-37.25 34-27.25q11-5.5 21.75-8.5t23.25-3zm-3.5 278q22.5 0 35.25-13t19-31.75 7.75-40 1.5-37.25-1.5-36.5-8-38.5-19-30.5-34.5-12.5q-21 0-34 12.75t-20.25 31.5-9.75 39.5-2.5 36.25q0 16 2.25 36.75t9.25 39.25 20 31.25 34.5 12.75z"/></svg>