<svg xmlns="http://www.w3.org/2000/svg" viewBox="0 0 4690 2048"><path d="M727 601l-282 532h210v75H410v138h245v74H410v315H297v-315H53v-74h244v-138H53v-75h211L0 601h127l170 375q17 37 33.5 78t28.5 79h5q25-81 63-160l176-372h124zm1380 285q0 45 18.5 77t49.5 57.5 70 46 79.5 42.5 79.5 48 70 60.5 49.5 81.5 18.5 111q0 56-17.5 104.5t-49 86.5-76.5 64-99 37v181h-89v-176q-26 0-58-5.5t-64.5-15-62-23.5-48.5-31l37-95q46 35 102 54.5t113 19.5q42 0 77-13.5t61-38.5 40.5-60 14.5-77q0-50-18.5-86t-49-64-69.5-49.5-79.5-43-79-45-69-55.5-49-74.5T1991 903q0-51 16.5-97.5t47-83 73-61T2221 629V453h88v171q54 2 103 16.5t95 44.5l-35 91q-24-12-46.5-22.5t-45-18-47-12-52.5-4.5q-36 0-68 12t-55.5 34-37 53-13.5 68zm2583-235v114h-956V651h956zm-956 312h956v115h-421v642h-116v-642h-419V963z"/></svg>