<svg xmlns="http://www.w3.org/2000/svg" viewBox="0 0 1805 1024"><path d="M96 644q3 0 6 2.25t5.5 3.75q26.5 17.5 53.75 38.5t53 44.75 48.75 49.25 41 52q1.5 2.5 3.25 6t1.75 6.5q0 4-8 12.25t-17.75 16.5-18.25 14.25-10 6q-4 0-6.5-2.5t-5-5.5q-21-29-42.25-54.75t-43.75-49.25-47.75-45-54.75-42.5q-1-1-4-3t-3-4q0-3 6.5-10.5t14.75-15.25 16-13.75 10.75-6zm550-33.5q29.5 0 55.75 11t46 30.25 31.25 45.25 11.5 56-11.5 55.75-31.25 45-46 30.25-55.75 11-55.75-11-46-30.25-31.25-45-11.5-55.75 11.5-56 31-45.25 45.75-30.25 56.25-11zm0 233.5q19 0 35.75-7t29-19.25 19.5-29 7.25-35.75-7-35.75-19.5-29-29-19.5-36-7.25q-19 0-35.75 7.25t-29.25 19.5-19.5 29-7 35.75 7.25 35.5 19.75 29 29 19.5 35.5 7zm515.5-130h111.5v109.5h-111.5v-109.5zm69.5-714q45.5 0 86.5 12.25t72.25 37 49.5 61.75 18.25 86.5q0 38.5-11.5 68t-29.5 53.5-40.25 44.25-43.5 40-39.25 40.75-28 46.5q-4 11-6.75 24.5t-4.25 27.75-2.25 28-.75 25.25h-67.5q0-18.5.25-37.25t2.25-37.5 6.5-37 12.5-35.25q11-23.5 27.5-43.25t34.5-38 36-36.25 32.5-38 23.5-43.5 9-52.5q0-31.5-10-55.25t-28-39.75-43-24-55-8q-37.5 0-65.25 10.5t-47 30.5-30.75 48.25-16 63.75l-84-21.5q8.5-48 29-85.5t51.5-63.5 71.5-39.5 89.5-13.5zm484 597l-19.5-583.5h108.5l-23.5 583.5h-65.5zm90 117v109.5h-111.5v-109.5h111.5z"/></svg>