<svg xmlns="http://www.w3.org/2000/svg" viewBox="0 0 2035 1024"><path d="M448.5 781.5h91.5v87l-48 99.5h-40l43.5-99.5h-47v-87zm-448.5-1.5h91v88.5h-91v-88.5zm1512.5-294.5l-250 187.5 97 299-255.5-185-255.5 184 96-298-250.5-187.5h311.5l98.5-303 98.5 303h310zm-296.5 172.5l183.5-132.5h-225.5l-70-222-69 220h-227l183 134.5-72 215.5 185-135.5 183.5 135.5zm633.5-395q3 14 5.5 27t8 26.5q5 12 12.75 22.25t17.25 19.25q31 29.5 57 55.5t44.75 54.5 29.25 62.5 10.5 80q0 30.5-7.5 57t-20.75 50.25-32 44.5-41.25 39.75l-4 3.5-19-17q16.5-16.5 31-34t25.25-37 17.25-41 6.5-46q0-17-2.5-33.5t-9-32.5q-7-17-21.25-33.25t-31.5-30.5-36-26-35.25-19.25v359.5q0 27.5-11.5 52.25t-30.75 43.25-44.5 29.25-52.25 10.75q-19 0-34.75-4.5t-27.25-14-18-24-6.5-34.5q0-26.5 11.75-49.5t31.25-39.75 44-26.5 50-9.75q12 0 25 3t23.5 9v-497h35z"/></svg>