<svg xmlns="http://www.w3.org/2000/svg" viewBox="0 0 3610 2048"><path d="M192 1288q6 0 12 4.5t11 7.5q53 35 107.5 77t106 89.5T526 1565t82 104q3 5 6.5 12t3.5 13q0 8-16 24.5t-35.5 33T530 1780t-20 12q-8 0-13-5t-10-11q-42-58-84.5-109.5T315 1568t-95.5-90-109.5-85q-2-2-8-6t-6-8q0-6 13-21t29.5-30.5 32-27.5 21.5-12zm1100-67q59 0 111.5 22t92 60.5 62.5 90.5 23 112-23 111.5-62.5 90-92 60.5-111.5 22-111.5-22-92-60.5-62.5-90-23-111.5 23-112 62-90.5 91.5-60.5 112.5-22zm0 467q38 0 71.5-14t58-38.5 39-58 14.5-71.5-14-71.5-39-58-58-39-72-14.5q-38 0-71.5 14.5t-58.5 39-39 58-14 71.5 14.5 71 39.5 58 58 39 71 14zm1031-260h223v219h-223v-219zM2462 0q91 0 173 24.5t144.5 74 99 123.5 36.5 173q0 77-23 136t-59 107-80.5 88.5-87 80T2587 888t-56 93q-8 22-13.5 49t-8.5 55.5-4.5 56-1.5 50.5h-135q0-37 .5-74.5t4.5-75 13-74 25-70.5q22-47 55-86.5t69-76 72-72.5 65-76 47-87 18-105q0-63-20-110.5t-56-79.5-86-48-110-16q-75 0-130.5 21t-94 61-61.5 96.5-32 127.5l-168-43q17-96 58-171t103-127 143-79 179-27zm968 1194L3391 27h217l-47 1167h-131zm180 234v219h-223v-219h223z"/></svg>