<svg xmlns="http://www.w3.org/2000/svg" viewBox="0 0 4947 2048"><path d="M586 563q106 0 192 38t146.5 104.5 93 156.5 32.5 193q0 42-7 88t-21.5 91.5-37 87-54 73-72.5 50-91 18.5q-31 0-53-10.5t-36.5-28.5-21-42.5-6.5-52.5q0-5 .5-11t.5-11h-6q-38 70-94 113t-139 43q-42 0-74-19t-53.5-50-32-68.5T242 1250q0-81 28.5-154.5t79-129.5T470 876.5 623 843q43 0 87 8t83 26l-62 334q-5 23-8 47.5t-3 47.5q0 18 2.5 34t10 28.5T753 1388t34 7q27 0 51.5-15t42.5-35q25-27 42.5-60.5T952 1215t16-74 5-74q0-93-26-173t-76.5-139-125-93T573 628q-119 0-211.5 50.5T206 811.5 110 999t-33 214q0 95 28 180.5t81.5 150.5 132 103.5T498 1686q66 0 129-14.5t120-49.5l23 61q-63 40-137.5 56.5T484 1756q-113 0-202.5-44t-152-118-96-171T0 1220q0-86 18-168t52.5-155 85-134.5 116-105.5 144-69T586 563zm-140 823q33 0 60.5-14t49.5-36.5 39.5-50T626 1231t24-68.5 20-85 15.5-82.5 11.5-62q-23-7-45-11t-45-4q-62 0-113 29.5t-87.5 77T350 1130t-20 115q0 28 6.5 53.5t20.5 45 36 31 53 11.5zm2444-782l-652 1147h-79l651-1147h80zm-506 299q0 54-10.5 112t-36 106.5-69 80T2159 1233q-62 0-104-29.5t-67.5-74.5-37-100-11.5-106q0-53 12-110t39-104.5 71-78.5 108-31q63 0 104 28t66 72 35 98 10 106zm-353 12q0 32 4.5 73.5t18 78.5 39 63 67.5 26q45 0 71-26t39-64 16.5-80 3.5-75-3.5-74-16-77-38.5-60-71-24q-42 0-67.5 26t-39.5 63-18.5 78-4.5 72zm2715 138l-29 244h193v89h-207l-42 347h-90l41-347h-256l-41 347h-90l41-347h-189v-89h202l30-244h-193v-89h206l41-341h90l-40 341h255l38-341h94l-41 341h188v89h-201zm-92 0h-254l-29 244h255zm-1749 54q63 0 104 28.5t65.5 72.5 34.5 98 10 106q0 54-10.5 112t-36 106-68.5 79-109 31q-62 0-104-29t-68-74.5-37.5-100T2674 1431q0-42 6.5-86.5t23-85.5 43.5-74.5 68-54.5q22-11 43.5-17t46.5-6zm-7 556q45 0 70.5-26t38-63.5 15.5-80 3-74.5-3-73-16-77-38-61-69-25q-42 0-68 25.5t-40.5 63-19.5 79-5 72.5q0 32 4.5 73.5t18.5 78.5 40 62.5 69 25.5z"/></svg>