<svg xmlns="http://www.w3.org/2000/svg" viewBox="0 0 2345 1024"><path d="M363.5 300.5l-141 266h105v37.5h-122.5v69h122.5v37h-122.5v157.5h-56.5v-157.5h-122v-37h122v-69h-122v-37.5h105.5l-132-266h63.5l85 187.5q8.5 18.5 16.75 39t14.25 39.5h2.5q12.5-40.5 31.5-80l88-186h62zm690 142.5q0 22.5 9.25 38.5t24.75 28.75 35 23 39.75 21.25 39.75 24 35 30.25 24.75 40.75 9.25 55.5q0 28-8.75 52.25t-24.5 43.25-38.25 32-49.5 18.5v90.5h-44.5v-88q-13 0-29-2.75t-32.25-7.5-31-11.75-24.25-15.5l18.5-47.5q23 17.5 51 27.25t56.5 9.75q21 0 38.5-6.75t30.5-19.25 20.25-30 7.25-38.5q0-25-9.25-43t-24.5-32-34.75-24.75-39.75-21.5-39.5-22.5-34.5-27.75-24.5-37.25-9.25-50.75q0-25.5 8.25-48.75t23.5-41.5 36.5-30.5 46.75-16.25v-88h44v85.5q27 1 51.5 8.25t47.5 22.25l-17.5 45.5q-12-6-23.25-11.25t-22.5-9-23.5-6-26.25-2.25q-18 0-34 6t-27.75 17-18.5 26.5-6.75 34zm1291.5-117.5v57h-478v-57h478zm-478 156h478v57.5h-210.5v321h-58v-321h-209.5v-57.5z"/></svg>