<svg xmlns="http://www.w3.org/2000/svg" viewBox="0 0 2370 1024"><path d="M219 541.5l119 125-51 53-117-126-119 126-51-54 119-124-119-126.5 50-53 120 126 118.5-126 48.5 56zm1893.5-230q-11.5 0-21.5-4.75t-17-12.5-11-18-4-21.75q0-11 4.25-21t11.25-18 16.75-12.75 21.25-4.75q11 0 21 4.75t17.25 12.5 11.5 18 4.25 21.25-4.25 21.25-11.5 18.25-17 12.75-21.25 4.75zm-963.5 133.5q-21.5 0-35.25-14.5t-13.75-36q0-22 13-37.5t36-15.5 35.5 15 12.5 37.5q0 21-13 36t-35 15zm-1.5 191.5q23 0 35.75 15.75t12.75 37.75q0 10.5-3.5 19.5t-10 16-15.5 11-19.5 4q-21 0-35-14.5t-14-35.5q0-11 3.25-20.75t9.75-17.25 15.5-11.75 20.5-4.25zm965-6.5q11.5 0 21.5 4.5t17.25 12 11.25 17.75 4 21.75-4.25 21.5-11.5 18-17 12.5-21.25 4.5-21.25-4.75-17-12.5-11.25-18-4-21.25 4-21.25 11.25-18 17-12.25 21.25-4.5zm-1135-126.5h339.5v75h-339.5v-75zm932 23.5q-11.5 0-21.25-4.5t-17-12.5-11.5-18-4.25-21.5q0-11 4-21.5t11.25-18.25 17.25-12.5 21.5-4.75 21.25 4.75 17 12.5 11.25 18.25 4 21.5-4 21.25-11.25 18-17 12.5-21.25 4.75zm407-113.5q11.5 0 21.25 4.75t17 12.5 11.25 18.25 4 21.5q0 11.5-4 21.5t-11.25 18-17 12.5-21.25 4.5q-12 0-21.75-4.5t-16.75-12.25-11-18-4-21.75q0-11 4-21.5t11-18.25 17-12.5 21.5-4.75zm-183 57l236 249.5-21.5 22-235.5-250-235.5 250.5-21.5-21.5 236.5-250.5-236-250 21.5-21.5 235 249 235.5-249 21.5 21.5z"/></svg>