<svg xmlns="http://www.w3.org/2000/svg" viewBox="0 0 2118 1024"><path d="M951.5 204h94.5l-67 164h-67.5zm-886.5 0h69l-38.5 164h-95.5zm1030.5 0h96l-67 164h-68zm923 3.5q21.5 0 39.75 8.25t31.5 22.5 20.75 33 7.5 39.75-7.5 40-20.75 33.25-31.5 22.5-39.75 8.25q-22 0-40-8.25t-31.25-22.5-20.5-33.25-7.25-40 7.5-39.75 20.75-33 31.25-22.5 39.5-8.25zm0 152q9.5 0 18-4t14.5-10.75 9.5-15.5 3.5-18.25q0-19.5-12.75-33.5t-32.75-14q-10 0-18 4t-14 10.5-9.25 15-3.25 18q0 9 3.25 17.75t9.25 15.5 14.25 11 17.75 4.25z"/></svg>