<svg xmlns="http://www.w3.org/2000/svg" viewBox="0 0 2048 2048"><path d="M1600 896q-27 0-50 10t-40.5 27.5T1482 974t-10 50 10 50 27.5 40.5 40.5 27.5 50 10h192v512h-384v64q0 53-20 99.5t-55 81.5-81.5 55-99.5 20-99.5-20-81.5-55-55-81.5-20-99.5v-64H512v-384h-64q-53 0-99.5-20t-81.5-55-55-81.5-20-99.5 20-99.5 55-81.5 81.5-55 99.5-20h64V384h384v-64q0-53 20-99.5t55-81.5 81.5-55 99.5-20 99.5 20 81.5 55 55 81.5 20 99.5v64h384v512h-192zm0 384q-53 0-99.5-20t-81.5-55-55-81.5-20-99.5 20-99.5 55-81.5 81.5-55 99.5-20h64V512h-384V320q0-27-10-50t-27.5-40.5T1202 202t-50-10-50 10-40.5 27.5T1034 270t-10 50v192H640v384H448q-27 0-50 10t-40.5 27.5T330 974t-10 50 10 50 27.5 40.5T398 1142t50 10h192v384h384v192q0 27 10 50t27.5 40.5 40.5 27.5 50 10 50-10 40.5-27.5 27.5-40.5 10-50v-192h384v-256h-64z"/></svg>