<svg width="1792" height="1792" viewBox="0 0 1792 1792" xmlns="http://www.w3.org/2000/svg"><path transform="scale(1.75 1.75) translate(0 0)" d="M800 448q-13.5 0-25 5t-20.25 13.75-13.75 20.25-5 25 5 25 13.75 20.25 20.25 13.75 25 5h96v256h-192v32q0 26.5-10 49.75t-27.5 40.75-40.75 27.5-49.75 10-49.75-10-40.75-27.5-27.5-40.75-10-49.75v-32h-192v-192h-32q-26.5 0-49.75-10t-40.75-27.5-27.5-40.75-10-49.75 10-49.75 27.5-40.75 40.75-27.5 49.75-10h32v-192h192v-32q0-26.5 10-49.75t27.5-40.75 40.75-27.5 49.75-10 49.75 10 40.75 27.5 27.5 40.75 10 49.75v32h192v256h-96zm0 192q-26.5 0-49.75-10t-40.75-27.5-27.5-40.75-10-49.75 10-49.75 27.5-40.75 40.75-27.5 49.75-10h32v-128h-192v-96q0-13.5-5-25t-13.75-20.25-20.25-13.75-25-5-25 5-20.25 13.75-13.75 20.25-5 25v96h-192v192h-96q-13.5 0-25 5t-20.25 13.75-13.75 20.25-5 25 5 25 13.75 20.25 20.25 13.75 25 5h96v192h192v96q0 13.5 5 25t13.75 20.25 20.25 13.75 25 5 25-5 20.25-13.75 13.75-20.25 5-25v-96h192v-128h-32z"/></svg>