<svg width="1792" height="1792" viewBox="0 0 1792 1792" xmlns="http://www.w3.org/2000/svg"><path transform="scale(1.75 1.75) translate(0 0)" d="M64 768q70.5 0 136-18.25t122.25-51.75 103.5-80.25 80.25-103.5 51.75-122.25 18.25-136q0-66.5-17-130.5t-49.5-121.5q64 8 122.5 30.5t108.5 57.5 90.5 80.75 69.25 99.5 44.25 114.5 15.5 125.25q0 70.5-18.25 136t-51.75 122.25-80.25 103.5-103.5 80.25-122.25 51.75-136 18.25q-69 0-134.5-18t-123.25-51.75-105.75-82-82-108.25q15.5 2 30.75 3t30.75 1zm384 192q62 0 119.25-16t107-45.25 90.5-70 70-90.5 45.25-107 16-119.25q0-68-20-131.75t-56.25-118-87.75-96.75-114.5-68q22.5 77.5 22.5 158.5 0 73-17.5 141.25t-50 129-78.5 112.5-102.5 91-122.25 64.5-138.25 33.75q64 64 145.25 98t171.75 34z"/></svg>