<svg width="1792" height="1792" viewBox="0 0 1792 1792" xmlns="http://www.w3.org/2000/svg"><path transform="scale(1.75 1.75) translate(0 0)" d="M689.5 182h-146.5v-56h146.5v-126h60v126h268.5v56h-268.5v116h-60v-116zm-404.5 0h-269.5v-56h269.5v-126h60v126h146.5v56h-146.5v116h-60v-116zm720 485h-488.5q-17 53-45 96t-64.25 77.5-79.25 61-90.5 46.5-98 34-101 23.5l-32-54q44-7.5 89.5-19t89.25-28 84.5-38.5 75.75-51.25 62.5-65.75 45-82h-428v-57h109v-252h356v-109h60v109h343.5v252h111.5v57zm-536.5-57q9.5-48.5 13.5-97t5-97.5h-291.5v194.5h273zm365-194.5h-283.5q-2 49-6 97.5t-11 97h300.5v-194.5zm-245.5 311.5q114.5 47 222.25 105.25t210.75 126.75l-34 53.5q-101-71-209-127.75t-222-103.75z"/></svg>