<svg xmlns="http://www.w3.org/2000/svg" viewBox="0 0 2048 2048"><path d="M1984 0q26 0 45 19t19 45-19 45l-960 960q-19 19-45 19t-45-19-19-45 19-45l960-960q19-19 45-19zm-960 768q-53 0-99.5 20T843 843t-55 81.5-20 99.5 20 99.5 55 81.5 81.5 55 99.5 20q51 0 98-19.5t83-55.5l91 91q-55 54-125 83t-147 29q-80 0-149.5-30t-122-82.5-82.5-122-30-149.5q0-79 30-149t82.5-122.5 122-82.5 149.5-30q55 0 111 17zm0 1152q90 0 176.5-17.5t167-50.5 154-82 136.5-112l90 90q-146 146-331.5 223t-392.5 77q-141 0-272-36.5t-245-103-207.5-160-160-207.5-103-244.5T0 1024q0-141 36.5-272t103-245 160-207.5 207.5-160 244.5-103T1024 0q158 0 306.5 46.5T1608 184l-92 92q-109-73-234.5-110.5T1024 128q-123 0-237.5 32t-214 90.5T391 391 250.5 572.5t-90.5 214-32 237.5 32 237.5 90.5 214T391 1657t181.5 140.5T786 1888t238 32zm259-1411q-122-61-259-61-119 0-224 45.5T617 617 493.5 800 448 1024t45.5 224T617 1431t183 123.5 224 45.5q115 0 220.5-43.5T1431 1431l91 91q-101 100-228 153t-270 53q-97 0-187-25t-168.5-71T526 1522t-110-142.5-71-168.5-25-187 25-187 71-168.5T526 526t142.5-110T837 345t187-25q94 0 183 24t170 71z"/></svg>