<svg width="1792" height="1792" viewBox="0 0 1792 1792" xmlns="http://www.w3.org/2000/svg"><path transform="scale(1.75 1.75) translate(0 0)" d="M1024 128v64h-576v-64h576zm-128 640h-896v-64h896v64zm-768-256h896v64h-896v-64zm0 384h896v64h-896v-64zm32-512q-33 0-62-12.75t-50.75-34.5-34.5-50.75-12.75-62 12.75-62 34.5-50.75 50.75-34.5 62-12.75 62 12.75 50.75 34.5 34.5 50.75 12.75 62h-64q0-20-7.5-37.5t-20.5-30.5-30.5-20.5-37.5-7.5-37.5 7.5-30.5 20.5-20.5 30.5-7.5 37.5 7.5 37.5 20.5 30.5 30.5 20.5 37.5 7.5h736v64h-736z"/></svg>