<svg width="1792" height="1792" viewBox="0 0 1792 1792" xmlns="http://www.w3.org/2000/svg"><path transform="scale(1.75 1.75) translate(0 0)" d="M512 1024q-71 0-136.25-18.25t-122.25-51.5-103.75-80-80-103.75-51.5-122.5-18.25-136 18.25-136 51.5-122.5 80-103.75 103.75-80 122.5-51.5 136-18.25 136 18.25 122.5 51.5 103.75 80 80 103.75 51.5 122.5 18.25 136q0 71-18.25 136.25t-51.5 122.25-80 103.75-103.75 80-122.5 51.5-136 18.25zm0-960q-61.5 0-118.75 16t-107 45.25-90.75 70.25-70.25 90.75-45.25 107-16 118.75 16 118.75 45.25 107 70.25 90.75 90.75 70.25 107 45.25 118.75 16 118.75-16 107-45.25 90.75-70.25 70.25-90.75 45.25-107 16-118.75-16-118.75-45.25-107-70.25-90.75-90.75-70.25-107-45.25-118.75-16zm0 448v-320h-64v384h256v-64h-192z"/></svg>