<svg width="1792" height="1792" viewBox="0 0 1792 1792" xmlns="http://www.w3.org/2000/svg"><path transform="scale(1.75 1.75) translate(0 0)" d="M896 448q13.5 0 25 5t20.25 13.75 13.75 20.25 5 25v448h-896v-448q0-13.5 5-25t13.75-20.25 20.25-13.75 25-5h128v-256q0-26.5 10-49.75t27.5-40.75 40.75-27.5 49.75-10h448q26.5 0 49.75 10t40.75 27.5 27.5 40.75 10 49.75-10 49.75-27.5 40.75-40.75 27.5-49.75 10h-64v128h128zm0-256q0-13.5-5-25t-13.75-20.25-20.25-13.75-25-5-25 5-20.25 13.75-13.75 20.25-5 25v64h64q13.5 0 25-5t20.25-13.75 13.75-20.25 5-25zm-576 256h384v-256q0-17 4.75-33.25t13.25-30.75h-338q-13.5 0-25 5t-20.25 13.75-13.75 20.25-5 25v256zm576 64h-768v384h768v-384zm-576 128h-128v-64h128v64z"/></svg>