<svg xmlns="http://www.w3.org/2000/svg" viewBox="0 0 2048 2048"><path d="M1024 512q150 0 292 39t272.5 107.5 246 162.5 213.5 203q-98 110-213.5 203.5t-246 162T1316 1497t-292 39-292-39-272.5-107.5-246.5-162T0 1024q97-109 213-203t246.5-162.5T732 551t292-39zm384 512q0-79-30.5-149T1295 753t-122-82.5-149-30.5-149 30.5T753 753t-82.5 122-30.5 149 30.5 149 82.5 122 122 82.5 149 30.5 149-30.5 122-82.5 82.5-122 30.5-149zm-1231 0q94 91 200 166.5T604 1317q-45-64-68.5-139.5T512 1024t23.5-153.5T604 731q-121 51-227 126.5T177 1024zm1267 293q121-51 227-126.5t200-166.5q-94-91-200-166.5T1444 731q45 64 68.5 139.5T1536 1024t-23.5 153.5T1444 1317zm-420-165q-27 0-50-10t-40.5-27.5T906 1074t-10-50 10-50 27.5-40.5T974 906t50-10 50 10 40.5 27.5T1142 974t10 50-10 50-27.5 40.5-40.5 27.5-50 10z"/></svg>