<svg width="1792" height="1792" viewBox="0 0 1792 1792" xmlns="http://www.w3.org/2000/svg"><path transform="scale(1.75 1.75) translate(0 0)" d="M576 256h210.5q-35.5-36-67.75-70t-67.25-60.75-76.25-43-95.25-16.25q-58.5 0-110.5 22.75t-91 61.75-61.75 91-22.75 110.5q0 56 21.5 107.75t61 91.25l418 418.5-45 45-418.5-418q-48.5-48.5-74.75-112.25t-26.25-132.25q0-48 12.5-92.5t35.5-83.5 55-71 71-55 83.5-35.5 92.5-12.5q42 0 76.75 7.75t64.5 21.5 56 33 51.5 42.5 50.25 49.5 53 54.25v-210.5h64v320h-320v-64z"/></svg>