<svg width="1792" height="1792" viewBox="0 0 1792 1792" xmlns="http://www.w3.org/2000/svg"><path transform="scale(1.75 1.75) translate(0 0)" d="M648.5 19q83 22.5 152 70.25t118.75 113 77.25 144.5 27.5 165.25q0 70.5-18.25 136t-51.5 122.5-80 103.75-103.75 80-122.5 51.5-136 18.25-136-18.25-122.5-51.5-103.75-80-80-103.75-51.5-122.25-18.25-136.25q0-70 18.5-136t52.75-124.25 83.25-106 110.5-81.75h-137v-64h256v256h-64v-148.5q-58.5 28-105.75 70.25t-80.75 95-51.5 113.75-18 125.5q0 61.5 16 118.75t45.25 107 70.25 90.75 90.75 70.25 106.75 45.25 119 16q61.5 0 118.75-16t107-45.25 90.75-70.25 70.25-90.75 45.25-106.75 16-119q0-75-24.25-144.5t-67.75-126.5-103.75-98.75-132.75-61.75l17-61.5z"/></svg>