<svg xmlns="http://www.w3.org/2000/svg" viewBox="0 0 2048 2048"><path d="M960 870l659-659 90 90-749 749-333-333 90-90zm685-324q9 39 14 78.5t5 79.5q0 148-54.5 269T1452 1198q-83 84-127.5 183.5T1280 1600v256q0 40-15 75t-41 61-61 41-75 15H832q-40 0-75-15t-61-41-41-61-15-75v-256q0-119-44.5-218.5T468 1198q-103-104-157.5-225T256 704q0-97 25-187t71-168 110.5-142.5T605 96t168-71T960 0q138 0 264 51t225 148l-90 91q-81-78-184-120t-215-42q-119 0-224 45.5T553 297 429.5 480 384 704t44.5 218.5T556 1106q90 91 141.5 196t63.5 234h397q13-129 64-234t142-196q83-84 127.5-183.5T1536 704q0-11-1.5-22t-3.5-22zm-557 1374q26 0 45-19t19-45v-192H768v192q0 26 19 45t45 19h256z"/></svg>