<svg width="1792" height="1792" viewBox="0 0 1792 1792" xmlns="http://www.w3.org/2000/svg"><path transform="scale(1.75 1.75) translate(0 0)" d="M480 435l329.5-329.5 45 45-374.5 374.5-166.5-166.5 45-45zm342.5-162q4.5 19.5 7 39.25t2.5 39.75q0 74-27.25 134.5t-78.75 112.5q-41.5 42-63.75 91.75t-22.25 109.25v128q0 20-7.5 37.5t-20.5 30.5-30.5 20.5-37.5 7.5h-128q-20 0-37.5-7.5t-30.5-20.5-20.5-30.5-7.5-37.5v-128q0-59.5-22.25-109.25t-63.75-91.75q-51.5-52-78.75-112.5t-27.25-134.5q0-48.5 12.5-93.5t35.5-84 55.25-71.25 71.25-55.25 84-35.5 93.5-12.5q69 0 132 25.5t112.5 74l-45 45.5q-40.5-39-92-60t-107.5-21q-59.5 0-112 22.75t-91.5 61.75-61.75 91.5-22.75 112 22.25 109.25 63.75 91.75q45 45.5 70.75 98t31.75 117h198.5q6.5-64.5 32-117t71-98q41.5-42 63.75-91.75t22.25-109.25q0-5.5-.75-11t-1.75-11zm-278.5 687q13 0 22.5-9.5t9.5-22.5v-96h-192v96q0 13 9.5 22.5t22.5 9.5h128z"/></svg>