<svg width="1792" height="1792" viewBox="0 0 1792 1792" xmlns="http://www.w3.org/2000/svg"><path transform="scale(1.75 1.75) translate(0 0)" d="M512 960q-62 0-119.25-16t-107-45.25-90.5-70-70-90.5-45.25-107-16-119.25 16-119.25 45.25-107 70-90.5 90.5-70 107-45.25 119.25-16 119.25 16 107 45.25 90.5 70 70 90.5 45.25 107 16 119.25-16 119.25-45.25 107-70 90.5-90.5 70-107 45.25-119.25 16zm0-832q-53 0-102 13.75t-91.75 38.75-77.75 60-60 77.75-38.75 91.75-13.75 102 13.75 102 38.75 91.75 60 77.75 77.75 60 91.75 38.75 102 13.75 102-13.75 91.75-38.75 77.75-60 60-77.75 38.75-91.75 13.75-102-13.75-102-38.75-91.75-60-77.75-77.75-60-91.75-38.75-102-13.75zm192 416h-384v-64h384v64z"/></svg>