<svg xmlns="http://www.w3.org/2000/svg" viewBox="0 0 2048 2048"><path d="M1024 1920q-124 0-238.5-32t-214-90.5-181-140-140-181-90.5-214-32-238.5 32-238.5 90.5-214 140-181 181-140 214-90.5 238.5-32 238.5 32 214 90.5 181 140 140 181 90.5 214 32 238.5-32 238.5-90.5 214-140 181-181 140-214 90.5-238.5 32zm0-1664q-106 0-204 27.5T636.5 361 481 481 361 636.5 283.5 820 256 1024t27.5 204 77.5 183.5T481 1567t155.5 120 183.5 77.5 204 27.5 204-27.5 183.5-77.5 155.5-120 120-155.5 77.5-183.5 27.5-204-27.5-204-77.5-183.5T1567 481t-155.5-120-183.5-77.5-204-27.5zm384 832H640V960h768v128z"/></svg>