<svg xmlns="http://www.w3.org/2000/svg" viewBox="0 0 2048 2048"><path d="M1930 220q26 45 47.5 86t37.5 83 24.5 87.5 8.5 99.5q0 79-20.5 152.5t-58 137.5-90.5 117-117 90.5-137.5 58T1472 1152q-23 0-46.5-2t-46.5-6l-806 806q-48 48-109.5 73T335 2048q-69 0-130-26.5t-106.5-72-72-106.5T0 1713q0-67 25-128.5T98 1475l806-806q-4-23-6-46.5t-2-46.5q0-79 20.5-152.5t58-137.5 90.5-117 117-90.5 137.5-58T1472 0q54 0 99.5 8.5T1659 33t83 37.5 86 47.5l-394 394 102 102zm-458 804q93 0 174.5-35.5t142-96 96-142T1920 576q0-73-24-141l-360 359-282-282 359-360q-68-24-141-24-93 0-174.5 35.5t-142 96-96 142T1024 576q0 35 6 68t14 66l-855 856q-29 29-45 67t-16 80 16.5 80 44.5 66 66 44.5 80 16.5 80-16 67-45l856-855q33 8 66 14t68 6z"/></svg>