<svg width="1792" height="1792" viewBox="0 0 1792 1792" xmlns="http://www.w3.org/2000/svg"><path transform="scale(1.75 1.75) translate(0 0)" d="M965 110q13 22.5 23.75 43t18.75 41.5 12.25 43.75 4.25 49.75q0 39.5-10.25 76.25t-29 68.75-45.25 58.5-58.5 45.25-68.75 29-76.25 10.25q-11.5 0-23.25-1t-23.25-3l-403 403q-24 24-54.75 36.5t-64.25 12.5q-34.5 0-65-13.25t-53.25-36-36-53.25-13.25-65q0-33.5 12.5-64.25t36.5-54.75l403-403q-2-11.5-3-23.25t-1-23.25q0-39.5 10.25-76.25t29-68.75 45.25-58.5 58.5-45.25 68.75-29 76.25-10.25q27 0 49.75 4.25t43.75 12.25 41.5 18.75 43 23.75l-197 197 51 51zm-229 402q46.5 0 87.25-17.75t71-48 48-71 17.75-87.25q0-36.5-12-70.5l-180 179.5-141-141 179.5-180q-34-12-70.5-12-46.5 0-87.25 17.75t-71 48-48 71-17.75 87.25q0 17.5 3 34t7 33l-427.5 428q-14.5 14.5-22.5 33.5t-8 40 8.25 40 22.25 33 33 22.25 40 8.25 40-8 33.5-22.5l428-427.5q16.5 4 33 7t34 3z"/></svg>