<svg width="1792" height="1792" viewBox="0 0 1792 1792" xmlns="http://www.w3.org/2000/svg"><path transform="scale(1.75 1.75) translate(0 0)" d="M704 154q-14.5 10.5-30.5 17.25t-33.5 11.25v-65.5q28-9.5 53.25-22.75t49.25-30.25h25.5v384h-64v-294zm320 358q0 70.5-18.25 136t-51.5 122.5-80 103.75-103.75 80-122.5 51.5-136 18.25-136-18.25-122.5-51.5-103.75-80-80-103.75-51.5-122.25-18.25-136.25q0-69.5 18.25-135.5t52.5-124.5 83.25-106.5 110-81.5h-136v-64h256v256h-64v-149q-58.5 28-105.75 70.25t-80.75 95.25-51.5 114-18 125.5q0 61.5 16 118.75t45.25 107 70.25 90.75 90.75 70.25 106.75 45.25 119 16q61.5 0 118.75-16t107-45.25 90.75-70.25 70.25-90.75 45.25-106.75 16-119h64z"/></svg>