<svg width="1792" height="1792" viewBox="0 0 1792 1792" xmlns="http://www.w3.org/2000/svg"><path transform="scale(1.75 1.75) translate(0 0)" d="M512 768h-64v-64h64v64zm0-576h-64v448h64v-448zm-32 830.5q-59.5-35-118.25-74.75t-112-85.5-99-97.75-79.25-111.5-52.5-126.5-19-142.5v-256q41.5 0 80.5-3t76-11 73-22.5 72-37.5q42.5-27.5 85-40.75t93.5-13.25q25.5 0 48.5 3.25t44.75 10 42.75 17 42.5 23.75q36 23 72 37.5t73 22.5 76 11 80.5 3v256q0 75.5-19 142.5t-52.5 126.5-79.25 111.5-99 97.75-112 85.5-118.25 74.75zm-416-831.5v193q0 63.5 16.75 122t45.75 111.25 69 100 86 89 96.75 77.25 101.75 65q51-29.5 101.75-65t96.75-77.25 86-89 69-100 45.75-111.25 16.75-122v-193q-74.5-4-142.75-24t-131.25-60.5q-34-22-67.75-32.25t-74.25-10.25-74.25 10.25-67.75 32.25q-63 40.5-131.25 60.5t-142.75 24z"/></svg>