<svg xmlns="http://www.w3.org/2000/svg" viewBox="0 0 2048 2048"><path d="M1024 1536H896v-128h128v128zm0-1152H896v896h128V384zm-64 1661q-119-70-236.5-149.5t-224-171-198-195.5T143 1306 38 1053 0 768V256q83 0 161-6t152-22 146-45 144-75q85-55 170-81.5T960 0q51 0 97 6.5t89.5 20 85.5 34 85 47.5q72 46 144 75t146 45 152 22 161 6v512q0 151-38 285t-105 253-158.5 223-198 195.5-224 171T960 2045zM128 382v386q0 127 33.5 244t91.5 222.5 138 200 172 178T756.5 1767 960 1897q102-59 203.5-130t193.5-154.5 172-178 138-200 91.5-222.5 33.5-244V382q-149-8-285.5-48T1244 213q-68-44-135.5-64.5T960 128t-148.5 20.5T676 213q-126 81-262.5 121T128 382z"/></svg>