<svg xmlns="http://www.w3.org/2000/svg" viewBox="0 0 2048 2048"><path d="M1728 1536q-26 0-45-19t-19-45 19-45 45-19 45 19 19 45-19 45-45 19zm192-384q27 0 50 10t40.5 27.5 27.5 40.5 10 50v640H0v-640q0-27 10-50t27.5-40.5T78 1162t50-10h385q-74-98-105-213l123-34q23 83 70.5 152t113 118.5 144.5 77 165 27.5q106 0 199-40.5t162.5-110 110-162.5 40.5-199-40.5-199-110-162.5-162.5-110-199-40.5q-68 0-133 18t-122.5 51T663 405.5 581 512h187v128H384V256h128v129q46-61 103-108.5T737.5 196t138-50.5T1024 128q133 0 249.5 50T1477 315t137 203.5 50 249.5q0 104-32.5 202.5T1536 1152h384zm0 128h-512q-83 63-181.5 95.5T1024 1408q-105 0-202.5-32.5T640 1280H128v512h1792v-512z"/></svg>