<svg width="1792" height="1792" viewBox="0 0 1792 1792" xmlns="http://www.w3.org/2000/svg"><path transform="scale(1.75 1.75) translate(0 0)" d="M640 896v-64h128v64h-128zm-256-320h-64v-192h64v192zm-64 64h64v64h-64v-64zm320-96q0 59.5-22.75 112t-61.75 91.5-91.5 61.75-112 22.75-112-22.75-91.5-61.75-61.75-91.5-22.75-112v-32h64v32q0 46.5 17.75 87.25t48 71 71 48 87.25 17.75 87.25-17.75 71-48 48-71 17.75-87.25-17.75-87.25-48-71-71-48-87.25-17.75h-211l73.5 73.5-45 45-151-150.5 151-150.5 45 45-73.5 73.5h211q59.5 0 112 22.75t91.5 61.75 61.75 91.5 22.75 112zm320-544q13.5 0 25 5t20.25 13.75 13.75 20.25 5 25v896q0 13.5-5 25t-13.75 20.25-20.25 13.75-25 5h-512q-13.5 0-25-5t-20.25-13.75-13.75-20.25-5-25v-49.5q16-1.5 32-4.5t32-7v61h512v-896h-512v125q-16-4-32-7t-32-4.5v-113.5q0-13.5 5-25t13.75-20.25 20.25-13.75 25-5h512z"/></svg>