<svg width="1792" height="1792" viewBox="0 0 1792 1792" xmlns="http://www.w3.org/2000/svg"><path transform="scale(1.75 1.75) translate(0 0)" d="M864 768q-13 0-22.5-9.5t-9.5-22.5 9.5-22.5 22.5-9.5 22.5 9.5 9.5 22.5-9.5 22.5-22.5 9.5zm96-192q13.5 0 25 5t20.25 13.75 13.75 20.25 5 25v320h-1024v-320q0-13.5 5-25t13.75-20.25 20.25-13.75 25-5h192.5q-37-49-52.5-106.5l61.5-17q11.5 41.5 35.25 76t56.5 59.25 72.25 38.5 82.5 13.75q53 0 99.5-20.25t81.25-55 55-81.25 20.25-99.5-20.25-99.5-55-81.25-81.25-55-99.5-20.25q-34 0-66.5 9t-61.25 25.5-52.75 40.25-41 53.25h93.5v64h-192v-192h64v64.5q23-30.5 51.5-54.25t61.25-40.25 69-25.25 74.25-8.75q66.5 0 124.75 25t101.75 68.5 68.5 101.75 25 124.75q0 52-16.25 101.25t-47.75 90.75h192zm0 64h-256q-41.5 31.5-90.75 47.75t-101.25 16.25q-52.5 0-101.25-16.25t-90.75-47.75h-256v256h896v-256z"/></svg>