<svg xmlns="http://www.w3.org/2000/svg" viewBox="0 0 2048 2048"><path d="M1280 1792v-128h256v128h-256zm-512-640H640V768h128v384zm-128 128h128v128H640v-128zm640-192q0 119-45.5 224T1111 1495t-183 123.5-224 45.5-224-45.5T297 1495t-123.5-183-45.5-224v-64h128v64q0 93 35.5 174.5t96 142 142 96T704 1536t174.5-35.5 142-96 96-142T1152 1088t-35.5-174.5-96-142-142-96T704 640H282l147 147-90 90L37 576l302-301 90 90-147 147h422q119 0 224 45.5T1111 681t123.5 183 45.5 224zM1920 0q27 0 50 10t40.5 27.5T2038 78t10 50v1792q0 27-10 50t-27.5 40.5-40.5 27.5-50 10H896q-27 0-50-10t-40.5-27.5T778 1970t-10-50v-99q32-3 64-9t64-14v122h1024V128H896v250q-32-8-64-14t-64-9V128q0-27 10-50t27.5-40.5T846 10t50-10h1024z"/></svg>