<svg xmlns="http://www.w3.org/2000/svg" viewBox="0 0 2048 2048"><path d="M1920 640q24 0 47 11t41 29 29 41 11 47v256q0 24-11 47t-29 41-41 29-47 11h-385v640h-127v-768h507l5-5V773l-5-5H133l-5 5v246l5 5h507v768H512v-640H128q-24 0-47-11t-41-29-29-41-11-47V768q0-24 11-47t29-41 41-29 47-11h1792zm-640 608q0 54-25.5 100.5T1184 1425l96 239h-128l-78-196q-20 4-40 5t-40 1q-25 0-49-1t-49-1v192H768v-640h256q49 0 95 15t82 44 57.5 70.5 21.5 94.5zm-256 96q21 0 44-5.5t41.5-17.5 30.5-30 12-43-12-43-30.5-30-41.5-17.5-44-5.5H896v192h128z"/></svg>