<svg width="1792" height="1792" viewBox="0 0 1792 1792" xmlns="http://www.w3.org/2000/svg"><path transform="scale(1.75 1.75) translate(0 0)" d="M736 448q46.5 0 87.25 17.5t71.25 48 48 71.25 17.5 87.25-17.5 87.25-48 71.25-71.25 48-87.25 17.5-87.25-17.5-71.25-48-48-71.25-17.5-87.25 17.5-87.25 48-71.25 71.25-48 87.25-17.5zm-160 224q0 33 12.5 62.25t34.25 51 51 34.25 62.25 12.5q23.5 0 46-6.75t42-19.75l-221.5-221.5q-13 19.5-19.75 42t-6.75 46zm293.5 88q13-19.5 19.75-42t6.75-46q0-33-12.75-62t-34.5-50.75-50.75-34.5-62-12.75q-23.5 0-46 6.75t-42 19.75zm-421.5 72q7 0 13.5-1.75t13-4.25q8.5 14 18.25 26.75t20.75 24.75q-30 18.5-65.5 18.5-26.5 0-49.75-10t-40.75-27.5-27.5-40.75-10-49.75h-192v-64h64v-320q0-51.5 19.25-98t55.75-83 83-55.75 98-19.25q53 0 99.75 20t81.5 54.75 54.75 81.5 20 99.75h-64q0-39.5-15-74.5t-41.25-61.25-61.25-41.25-74.5-15q-40 0-74.75 15t-61 41.25-41.25 61.25-15 74.5v320h178q1.5 16.5 5 32.5t9 31.5h-64q0 13.5 5 25t13.75 20.25 20.25 13.75 25 5z"/></svg>