<svg width="1792" height="1792" viewBox="0 0 1792 1792" xmlns="http://www.w3.org/2000/svg"><path transform="scale(1.75 1.75) translate(0 0)" d="M896 768v64h-256q0 26.5-10 49.75t-27.5 40.75-40.75 27.5-49.75 10-49.75-10-40.75-27.5-27.5-40.75-10-49.75h-256v-64h64v-384q0-44 11.5-85t32.25-76.5 50-64.75 64.75-50 76.5-32.25 85-11.5 85 11.5 76.5 32.25 64.75 50 50 64.75 32.25 76.5 11.5 85v384h64zm-128 0v-384q0-53-20.25-99.5t-55-81.25-81.25-55-99.5-20.25-99.5 20.25-81.25 55-55 81.25-20.25 99.5v384h512zm-256 128q13.5 0 25-5t20.25-13.75 13.75-20.25 5-25h-128q0 13.5 5 25t13.75 20.25 20.25 13.75 25 5z"/></svg>