<svg xmlns="http://www.w3.org/2000/svg" viewBox="0 0 2048 2048"><path d="M1472 896q93 0 174.5 35t142.5 96 96 142.5 35 174.5-35 174.5-96 142.5-142.5 96-174.5 35-174.5-35-142.5-96-96-142.5-35-174.5 35-174.5 96-142.5 142.5-96 174.5-35zm-320 448q0 66 25 124.5t68.5 102 102 68.5 124.5 25q47 0 92-13.5t84-39.5l-443-443q-26 39-39.5 84t-13.5 92zm587 176q26-39 39.5-84t13.5-92q0-66-25.5-124t-69-101.5-101.5-69-124-25.5q-47 0-92 13.5t-84 39.5zm-843 144q14 0 27-3.5t26-8.5q17 28 36.5 53.5t41.5 49.5q-60 37-131 37-53 0-99.5-20t-81.5-55-55-81.5-20-99.5H256v-128h128V768q0-103 38.5-196T534 406t166-111.5T896 256q106 0 199.5 40t163 109.5 109.5 163 40 199.5h-128q0-79-30-149t-82.5-122.5T1045 414t-149-30q-80 0-149.5 30t-122 82.5T542 619t-30 149v640h356q3 33 10 65t18 63H768q0 27 10 50t27.5 40.5T846 1654t50 10z"/></svg>