<svg width="1792" height="1792" viewBox="0 0 1792 1792" xmlns="http://www.w3.org/2000/svg"><path transform="scale(1.75 1.75) translate(0 0)" d="M320 384h64v64h-64v-64zm256 0h64v64h-64v-64zm234.5 320q17.5 0 33 6.75t27.25 18.5 18.5 27.25 6.75 33v234.5h-64v-234.5q0-9-6.25-15.25t-15.25-6.25h-661q-9 0-15.25 6.25t-6.25 15.25v234.5h-64v-234.5q0-17.5 6.75-33t18.25-27.25 27.25-18.5 33.25-6.75h170.5v-64h-42.5q-17.5 0-33.25-6.75t-27.25-18.25-18.25-27.25-6.75-33.25v-42.5h-64v-128h64v-42.5q0-17.5 6.75-33t18.25-27.25 27.25-18.5 33.25-6.75h170.5v-104.5q-14.5-8.5-23.25-23.5t-8.75-32q0-13.5 5-25t13.75-20.25 20.25-13.75 25-5 25 5 20.25 13.75 13.75 20.25 5 25q0 17-8.75 32t-23.25 23.5v104.5h170.5q17.5 0 33 6.75t27.25 18.5 18.5 27.25 6.75 33v42.5h64v128h-64v42.5q0 17.5-6.75 33.25t-18.5 27.25-27.25 18.25-33 6.75h-42.5v64h170.5zm-554.5-149.5q0 9 6.25 15.25t15.25 6.25h405q9 0 15.25-6.25t6.25-15.25v-213q0-9-6.25-15.25t-15.25-6.25h-405q-9 0-15.25 6.25t-6.25 15.25v213zm128 149.5h192v-64h-192v64z"/></svg>