<svg xmlns="http://www.w3.org/2000/svg" viewBox="0 0 2048 2048"><path d="M640 768h128v128H640V768zm512 0h128v128h-128V768zm469 640q35 0 66 13.5t54.5 37 37 54.5 13.5 66v469h-128v-469q0-18-12.5-30.5T1621 1536H299q-18 0-30.5 12.5T256 1579v469H128v-469q0-35 13.5-66t36.5-54.5 54.5-37T299 1408h341v-128h-85q-35 0-66.5-13.5T434 1230t-36.5-54.5T384 1109v-85H256V768h128v-85q0-35 13.5-66t36.5-54.5 54.5-37T555 512h341V303q-29-17-46.5-47T832 192q0-27 10-50t27.5-40.5T910 74t50-10 50 10 40.5 27.5T1078 142t10 50q0 34-17.5 64t-46.5 47v209h341q35 0 66 13.5t54.5 37 37 54.5 13.5 66v85h128v256h-128v85q0 35-13.5 66.5t-37 54.5-54.5 36.5-66 13.5h-85v128h341zM512 1109q0 18 12.5 30.5T555 1152h810q18 0 30.5-12.5t12.5-30.5V683q0-18-12.5-30.5T1365 640H555q-18 0-30.5 12.5T512 683v426zm256 299h384v-128H768v128z"/></svg>