<svg width="1792" height="1792" viewBox="0 0 1792 1792" xmlns="http://www.w3.org/2000/svg"><path transform="scale(1.75 1.75) translate(0 0)" d="M512 256q26.5 0 49.75 10t40.75 27.5 27.5 40.75 10 49.75-10 49.75-27.5 40.75-40.75 27.5-49.75 10-49.75-10-40.75-27.5-27.5-40.75-10-49.75 10-49.75 27.5-40.75 40.75-27.5 49.75-10zm0 192q13.5 0 25-5t20.25-13.75 13.75-20.25 5-25-5-25-13.75-20.25-20.25-13.75-25-5-25 5-20.25 13.75-13.75 20.25-5 25 5 25 13.75 20.25 20.25 13.75 25 5zm320-56q42.5 11 77.75 34.75t60.75 56.5 39.5 72.75 14 84q0 53-20 99.75t-54.75 81.5-81.5 54.75-99.75 20v-64q39.5 0 74.5-15t61.25-41.25 41.25-61 15-74.75q0-30.5-9.25-58.75t-26-52-40.5-42-52.25-28.25v181h-640v-181.5q-28.5 10-52.25 28.25t-40.5 42-26 52-9.25 58.75q0 40 15 74.75t41.25 61 61 41.25 74.75 15h146.5l-81-81.5 45-45 158.5 158.5-158.5 158.5-45-45 81-81.5h-146.5q-53 0-99.75-20t-81.5-54.75-54.75-81.5-20-99.75q0-43.5 14-83.75t39.5-73.25 60.75-56.75 77.75-34.25v-263.5h146.5l64-64h219l64 64h146.5v264zm-64-200h-109.5l-64-64h-165l-64 64h-109.5v384h512v-384z"/></svg>