<svg width="1792" height="1792" viewBox="0 0 1792 1792" xmlns="http://www.w3.org/2000/svg"><path transform="scale(1.75 1.75) translate(0 0)" d="M640 511.5q26 0 49.5 10.25t40.75 27.5 27.5 40.75 10.25 49.5v64h64v320h-384v-320h64v-64q0-26 10.25-49.5t27.5-40.75 40.5-27.5 49.75-10.25zm-64 192h128v-64q0-13-5-24.75t-13.75-20.5-20.5-13.75-24.75-5q-13.5 0-25 5t-20.25 13.75-13.75 20.25-5 25v64zm192 64h-256v192h256v-192zm-518.5-89.5l45-45.5 96 96.5-45 45zm371.5-678q13 0 24.75 4.5t20.75 13.5l339 339q9 9 13.75 20.75t4.75 24.75q0 12.5-4.75 24.25t-13.75 20.75l-175 175q-4-37-20.5-70.5l150-150-338.5-338.5-557.5 557 320 320v79q-7.5-2.5-14.25-6t-12.25-9l-339-338.5q-9-9-13.75-20.75t-4.75-24.25q0-13 4.75-24.75t13.75-20.75l557.5-557.5q9-9 20.75-13.5t24.25-4.5z"/></svg>