<svg xmlns="http://www.w3.org/2000/svg" viewBox="0 0 2048 2048"><path d="M1024 768q53 0 99.5 20t81.5 55 55 81.5 20 99.5-20 99.5-55 81.5-81.5 55-99.5 20-99.5-20-81.5-55-55-81.5-20-99.5 20-99.5 55-81.5 81.5-55 99.5-20zm0 384q27 0 50-10t40.5-27.5 27.5-40.5 10-50-10-50-27.5-40.5T1074 906t-50-10-50 10-40.5 27.5T906 974t-10 50 10 50 27.5 40.5T974 1142t50 10zm1024-128q0 140-37 272t-105.5 248.5T1739 1757t-221 163h274v128h-512v-512h128v297q117-55 211.5-140t161.5-190.5 103-227.5 36-251q0-123-32-237.5t-90.5-214T1657 391t-181.5-140.5-214-90.5-237.5-32-237.5 32-214 90.5T391 391 250.5 572.5t-90.5 214-32 237.5q0 150 48.5 289T312 1566t207.5 197.5T785 1887l-34 123q-166-45-304-140.5t-237.5-226-154.5-289T0 1024q0-141 36.5-272t103-245 160-207.5 207.5-160 244.5-103T1024 0q141 0 272 36.5t245 103 207.5 160 160 207.5 103 245 36.5 272z"/></svg>