<svg xmlns="http://www.w3.org/2000/svg" viewBox="0 0 2048 2048"><path d="M1024 512q53 0 99.5 20t81.5 55 55 81.5 20 99.5-20 99.5-55 81.5-81.5 55-99.5 20-99.5-20-81.5-55-55-81.5-20-99.5 20-99.5 55-81.5 81.5-55 99.5-20zm0 384q27 0 50-10t40.5-27.5T1142 818t10-50-10-50-27.5-40.5T1074 650t-50-10-50 10-40.5 27.5T906 718t-10 50 10 50 27.5 40.5T974 886t50 10zm640-112q85 22 155.5 69.5t121.5 113 79 145.5 28 168q0 106-40 199.5t-109.5 163-163 109.5-199.5 40v-128q79 0 149-30t122.5-82.5 82.5-122 30-149.5q0-61-18.5-117.5t-52-104-81-84T1664 918v362H384V917q-57 20-104.5 56.5t-81 84-52 104T128 1279q0 80 30 149.5t82.5 122 122 82.5 149.5 30h293l-162-163 90-90 317 317-317 317-90-90 162-163H512q-106 0-199.5-40t-163-109.5-109.5-163T0 1279q0-87 28-167.5T107 965t121.5-113.5T384 783V256h293l128-128h438l128 128h293v528zm-128-400h-219l-128-128H859L731 384H512v768h1024V384z"/></svg>