<svg xmlns="http://www.w3.org/2000/svg" viewBox="0 0 2048 2048"><path d="M2048 128v1920H0V128h2048zm-128 128H128v1664h1792V256zM384 1536H256v-128h128V768H256V640h128V384h1408v1408H384v-256zm128 128h1152V512H512v1152zm576-128q-93 0-174.5-35T771 1405t-96-142.5-35-174.5 35-174.5T771 771t142.5-96 174.5-35 174.5 35 142.5 96 96 142.5 35 174.5-35 174.5-96 142.5-142.5 96-174.5 35zm-64-762q-47 10-88 32.5T862 862t-55.5 74-32.5 88h122v128H774q10 47 32.5 88t55.5 74 74 55.5 88 32.5v-122h128v122q47-10 88-32.5t74-55.5 55.5-74 32.5-88h-122v-128h122q-10-47-32.5-88t-55.5-74-74-55.5-88-32.5v122h-128V774z"/></svg>