<svg width="1792" height="1792" viewBox="0 0 1792 1792" xmlns="http://www.w3.org/2000/svg"><path transform="scale(1.75 1.75) translate(0 0)" d="M924 448q21 0 39.25 7.5t31.75 20.75 21.25 31.5 7.75 39.25q0 19.5-7.5 38t-21.5 32.5l-358.5 358.5-188.5 47 47-188.5 358.5-358q14.5-14.5 32.5-21.5t38-7zm25.5 124.5q10.5-10.5 10.5-25.5 0-15.5-10.25-25.25t-25.75-9.75q-7 0-13.5 2.25t-11.5 7.25l-346 346-17 67.5 67.5-17zm-565.5 195.5h64l-64 64h-237.5l-82.5-82.5v-621.5q0-13.5 5-25t13.75-20.25 20.25-13.75 25-5h640q13.5 0 25 5t20.25 13.75 13.75 20.25 5 25v256l-64 64v-320h-64v320h-512v-320h-64v594.5l45.5 45.5h18.5v-256h448v64l-64 64v-64h-320v192h64v-128h64v128zm-128-384h384v-256h-384v256z"/></svg>