<svg width="1792" height="1792" viewBox="0 0 1792 1792" xmlns="http://www.w3.org/2000/svg"><path transform="scale(1.75 1.75) translate(0 0)" d="M896 192q13.5 0 25 5t20.25 13.75 13.75 20.25 5 25v704h-685.5l-82.5-83v-109h-45.5l-82.5-83v-557q0-13.5 5-25t13.75-20.25 20.25-13.75 25-5h576q13.5 0 25 5t20.25 13.75 13.75 20.25 5 25v64h128zm-512 320h384v-256h-384v256zm-192 192v-448q0-13.5 5-25t13.75-20.25 20.25-13.75 25-5h448v-64h-576v530.5l45.5 45.5h18.5zm512 0h-320v192h64v-128h64v128h192v-192zm192-448h-64v320h-512v-320h-64v594.5l45.5 45.5h18.5v-256h448v256h128v-640z"/></svg>