<svg xmlns="http://www.w3.org/2000/svg" viewBox="0 0 2048 2048"><path d="M1920 1024q63 83 95.5 181.5T2048 1408q0 133-50 249.5T1861 1861t-203.5 137-249.5 50-249.5-50T955 1861t-137-203.5-50-249.5H128q-27 0-50-10t-40.5-27.5T10 1330t-10-50V256q0-27 10-50t27.5-40.5T78 138t50-10h1664q27 0 50 10t40.5 27.5T1910 206t10 50v768zM781 1280q22-112 80-206t142-162 187.5-106 217.5-38q104 0 202.5 32.5T1792 896V256H128v1024h653zm627 640q106 0 199-40.5t162.5-110 110-162.5 40.5-199-40.5-199-110-162.5-162.5-110-199-40.5-199 40.5-162.5 110-110 162.5-40.5 199 40.5 199 110 162.5 162.5 110 199 40.5zm0-512h256v128h-384v-512h128v384z"/></svg>