<svg width="1792" height="1792" viewBox="0 0 1792 1792" xmlns="http://www.w3.org/2000/svg"><path transform="scale(1.75 1.75) translate(0 0)" d="M896 176v784q0 13.5-5 25t-13.75 20.25-20.25 13.75-25 5h-640q-13.5 0-25-5t-20.25-13.75-13.75-20.25-5-25v-256l64-64v-176l-64-80v-320q0-13.5 5-25t13.75-20.25 20.25-13.75 25-5h528zm-64 26.5l-138.5-138.5h-501.5v297.5l64 80v225q-15.5 16.5-31.75 32.25t-32.25 31.75v229.5h640v-757.5zm-512-74.5h64v192h-64v-192zm128 0h64v192h-64v-192zm128 0h64v192h-64v-192z"/></svg>