<svg width="1792" height="1792" viewBox="0 0 1792 1792" xmlns="http://www.w3.org/2000/svg"><path transform="scale(1.75 1.75) translate(0 0)" d="M672 0q48.5 0 93.5 12.5t84 35.5 71.25 55.25 55.25 71.25 35.5 84 12.5 93.5-12.5 93.5-35.5 84-55.25 71.25-71.25 55.25-84 35.5-93.5 12.5q-62.5 0-119.75-21t-105.25-60.5l-392.5 392q-9.5 9.5-22.5 9.5t-22.5-9.5-9.5-22.5 9.5-22.5l392-392.5q-39.5-48-60.5-105.25t-21-119.75q0-48.5 12.5-93.5t35.5-84 55.25-71.25 71.25-55.25 84-35.5 93.5-12.5zm0 640q59.5 0 112-22.75t91.5-61.75 61.75-91.5 22.75-112-22.75-112-61.75-91.5-91.5-61.75-112-22.75-112 22.75-91.5 61.75-61.75 91.5-22.75 112 22.75 112 61.75 91.5 91.5 61.75 112 22.75z"/></svg>