<svg xmlns="http://www.w3.org/2000/svg" viewBox="0 0 2048 2048"><path d="M1664 896q79 0 149 30.5t122 82.5 82.5 122 30.5 149-30.5 149-82.5 122-122 82.5-149 30.5q-60 0-117-18t-105-53q-16 16-53.5 55.5t-86.5 90-103.5 105-102.5 100-85 75-51 29.5q-26 0-45-19t-19-45q0-14 29.5-51t75-85 100-102.5 105-103.5 90-86.5 55.5-53.5q-35-48-53-105t-18-117q0-79 30.5-149t82.5-122 122-82.5 149-30.5zm0 640q52 0 99-20.5t81.5-55 55-81 20.5-99.5q0-52-20.5-99t-55-81.5-81.5-55-99-20.5q-53 0-99.5 20.5t-81 55-55 81.5-20.5 99q0 53 20.5 99.5t55 81 81 55 99.5 20.5zM256 1408v-256H0V0h1536v256h256v530q-32-8-64-13t-64-5V384H384v896h768q0 32 5 64t13 64H256zm0-384V256h1152V128H128v896h128z"/></svg>