<svg xmlns="http://www.w3.org/2000/svg" viewBox="0 0 2048 2048"><path d="M1344 0q97 0 187 25t168 71 142.5 110.5T1952 349t71 168 25 187-25 187-71 168-110.5 142.5T1699 1312t-168 71-187 25q-125 0-239.5-42T894 1245l-785 784q-19 19-45 19t-45-19-19-45 19-45l784-785q-79-96-121-210.5T640 704q0-97 25-187t71-168 110.5-142.5T989 96t168-71 187-25zm0 1280q119 0 224-45.5t183-123.5 123.5-183 45.5-224-45.5-224T1751 297t-183-123.5-224-45.5-224 45.5T937 297 813.5 480 768 704t45.5 224T937 1111t183 123.5 224 45.5z"/></svg>