<svg width="1792" height="1792" viewBox="0 0 1792 1792" xmlns="http://www.w3.org/2000/svg"><path transform="scale(1.75 1.75) translate(0 0)" d="M832 448q39.5 0 74.5 15.25t61 41.25 41.25 61 15.25 74.5-15.25 74.5-41.25 61-61 41.25-74.5 15.25q-30 0-58.5-9t-52.5-26.5q-8 8-26.75 27.75t-43.25 45-51.75 52.5-51.25 50-42.5 37.5-25.5 14.75q-13 0-22.5-9.5t-9.5-22.5q0-7 14.75-25.5t37.5-42.5 50-51.25 52.5-51.75 45-43.25 27.75-26.75q-17.5-24-26.5-52.5t-9-58.5q0-39.5 15.25-74.5t41.25-61 61-41.25 74.5-15.25zm0 320q26 0 49.5-10.25t40.75-27.5 27.5-40.5 10.25-49.75q0-26-10.25-49.5t-27.5-40.75-40.75-27.5-49.5-10.25q-26.5 0-49.75 10.25t-40.5 27.5-27.5 40.75-10.25 49.5q0 26.5 10.25 49.75t27.5 40.5 40.5 27.5 49.75 10.25zm-704-64v-128h-128v-576h768v128h128v265q-16-4-32-6.5t-32-2.5v-192h-640v448h384q0 16 2.5 32t6.5 32h-457zm0-192v-384h576v-64h-640v448h64z"/></svg>