<svg width="1792" height="1792" viewBox="0 0 1792 1792" xmlns="http://www.w3.org/2000/svg"><path transform="scale(1.75 1.75) translate(0 0)" d="M0 64v-64h64v64h-64zm0 128v-64h64v64h-64zm0 128v-64h64v64h-64zm0 128v-64h64v64h-64zm0 128v-64h64v64h-64zm0 128v-64h64v64h-64zm0 128v-64h64v64h-64zm0 128v-64h64v64h-64zm896-768v-64h64v64h-64zm0 128v-64h64v64h-64zm0 128v-64h64v64h-64zm0 128v-64h64v64h-64zm0 128v-64h64v64h-64zm0 128v-64h64v64h-64zm0 128v-64h64v64h-64zm-704-960v64h-64v-64h64zm128 0v64h-64v-64h64zm128 0v64h-64v-64h64zm128 0v64h-64v-64h64zm128 0v64h-64v-64h64zm64 64v-64h64v64h-64zm-640 896v-64h64v64h-64zm128 0v-64h64v64h-64zm128 0v-64h64v64h-64zm128 0v-64h64v64h-64zm128 0v-64h64v64h-64zm128 0v-64h64v64h-64zm128-960h64v64h-64v-64zm-128 192v576h-576v-576h576zm-64 256v-192h-192v192h192zm-256-192h-192v192h192v-192zm-192 256v192h192v-192h-192zm256 192h192v-192h-192v192z"/></svg>