<svg width="1792" height="1792" viewBox="0 0 1792 1792" xmlns="http://www.w3.org/2000/svg"><path transform="scale(1.75 1.75) translate(0 0)" d="M192 448h640v576h-640v-576zm64 512h512v-448h-512v448zm192-128h128v64h-128v-64zm381-637q-64-63.5-145.5-97.25t-171.5-33.75-171.5 33.75-145.5 97.25l-45-45q36-36 78-64t88.25-47.25 95.5-29 100.25-9.75 100.25 9.75 95.5 29 88.25 47.25 78 64zm-90.5 90.5q-45.5-45.5-104-69.5t-122.5-24-122.5 24-104 69.5l-45-45q54.5-54.5 124.25-83.5t147.25-29 147.25 29 124.25 83.5zm-407.5 45.5q36.5-36.5 83-55.75t98-19.25 98 19.25 83 55.75l-45 45q-27-27-62.25-41.5t-73.75-14.5-73.75 14.5-62.25 41.5z"/></svg>