<svg width="1792" height="1792" viewBox="0 0 1792 1792" xmlns="http://www.w3.org/2000/svg"><path transform="scale(1.75 1.75) translate(0 0)" d="M840 743.5l-45.5-45q18-18 27.75-41.5t9.75-49-9.75-49-27.75-41.5l45.5-45q27 27 41.5 62.25t14.5 73.25-14.5 73.25-41.5 62.25zm90.5 91l-45.5-45.5q36-36 55.5-83t19.5-98-19.5-98-55.5-83l45.5-45.5q45 45.5 69.25 104t24.25 122.5-24.25 122.5-69.25 104zm-34.5-514.5v-128h-832v448h384v64h-448v-576h960v192h-64zm-173.5 64h45.5v448h-45.5l-128-128h-82.5v-192h82.5zm-18.5 109.5l-82.5 82.5h-45.5v64h45.5l82.5 82.5v-229zm-72 338.5h-312v-64h248z"/></svg>