<svg xmlns="http://www.w3.org/2000/svg" viewBox="0 0 2048 2048"><path d="M1783 988q0 9 .5 18t.5 18-.5 18-.5 18l259 161-159 383-297-68q-24 26-50 50l68 297-383 159-161-259q-9 0-18 .5t-18 .5-18-.5-18-.5l-161 259-383-159 68-297q-26-24-50-50l-297 68L6 1221l259-161q0-9-.5-18t-.5-18 .5-18 .5-18L6 827l159-383 297 68q24-26 50-50l-68-297L827 6l161 259q9 0 18-.5t18-.5 18 .5 18 .5L1221 6l383 159-68 297q26 24 50 50l297-68 159 383zm-117 130q2-24 4-47.5t2-47.5q0-23-2-47t-4-47l236-147-86-208-271 63q-31-38-63.5-70t-70.5-64l63-271-208-86-148 236q-23-2-47-4t-47-2q-24 0-47.5 2t-47.5 4L782 146l-208 86 63 271q-38 31-70 63.5T503 637l-271-63-86 208 236 148q-2 24-4 47.5t-2 47.5q0 23 2 47t4 47l-236 147 86 208 271-63q31 38 63.5 70t70.5 64l-63 271 208 86 148-236q23 2 47 4t47 2q24 0 47.5-2t47.5-4l147 236 208-86-63-271q38-31 70-63.5t64-70.5l271 63 86-208zm-642-470q78 0 146.5 29.5T1290 758t80.5 119.5T1400 1024t-29.5 146.5T1290 1290t-119.5 80.5T1024 1400t-146.5-29.5T758 1290t-80.5-119.5T648 1024t29.5-146.5T758 758t119.5-80.5T1024 648zm0 640q55 0 103-20.5t84-56.5 56.5-84 20.5-103-20.5-103-56.5-84-84-56.5-103-20.5-103 20.5-84 56.5-56.5 84-20.5 103 20.5 103 56.5 84 84 56.5 103 20.5z"/></svg>