<svg width="1792" height="1792" viewBox="0 0 1792 1792" xmlns="http://www.w3.org/2000/svg"><path transform="scale(1.75 1.75) translate(0 0)" d="M891.5 494q0 4.5.25 9t.25 9-.25 9-.25 9l129.5 80.5-79.5 191.5-148.5-34q-12 13-25 25l34 148.5-191.5 79.5-80.5-129.5q-4.5 0-9 .25t-9 .25-9-.25-9-.25l-80.5 129.5-191.5-79.5 34-148.5q-13-12-25-25l-148.5 34-79.5-191.5 129.5-80.5q0-4.5-.25-9t-.25-9 .25-9 .25-9l-129.5-80.5 79.5-191.5 148.5 34q12-13 25-25l-34-148.5 191.5-79.5 80.5 129.5q4.5 0 9-.25t9-.25 9 .25 9 .25l80.5-129.5 191.5 79.5-34 148.5q13 12 25 25l148.5-34 79.5 191.5zm-58.5 65q1-12 2-23.75t1-23.75q0-11.5-1-23.5t-2-23.5l118-73.5-43-104-135.5 31.5q-15.5-19-31.75-35t-35.25-32l31.5-135.5-104-43-74 118q-11.5-1-23.5-2t-23.5-1q-12 0-23.75 1t-23.75 2l-73.5-118-104 43 31.5 135.5q-19 15.5-35 31.75t-32 35.25l-135.5-31.5-43 104 118 74q-1 12-2 23.75t-1 23.75q0 11.5 1 23.5t2 23.5l-118 73.5 43 104 135.5-31.5q15.5 19 31.75 35t35.25 32l-31.5 135.5 104 43 74-118q11.5 1 23.5 2t23.5 1q12 0 23.75-1t23.75-2l73.5 118 104-43-31.5-135.5q19-15.5 35-31.75t32-35.25l135.5 31.5 43-104zm-321-235q39 0 73.25 14.75t59.75 40.25 40.25 59.75 14.75 73.25-14.75 73.25-40.25 59.75-59.75 40.25-73.25 14.75-73.25-14.75-59.75-40.25-40.25-59.75-14.75-73.25 14.75-73.25 40.25-59.75 59.75-40.25 73.25-14.75zm0 320q27.5 0 51.5-10.25t42-28.25 28.25-42 10.25-51.5-10.25-51.5-28.25-42-42-28.25-51.5-10.25-51.5 10.25-42 28.25-28.25 42-10.25 51.5 10.25 51.5 28.25 42 42 28.25 51.5 10.25z"/></svg>