<svg width="1792" height="1792" viewBox="0 0 1792 1792" xmlns="http://www.w3.org/2000/svg"><path transform="scale(1.75 1.75) translate(0 0)" d="M357.5 268q12.5 9.5 19.5 23t7 29q0 13.5-5 25t-13.75 20.25-20.25 13.75-25 5q-13 0-25.25-5t-21.25-15q-38.5 20-81.5 20t-81.5-20q-9 10-21.25 15t-25.25 5q-13.5 0-25-5t-20.25-13.75-13.75-20.25-5-25q0-15.5 7-29t19.5-23q-10.5-28.5-10.5-60 0-27.5 8.25-53.25t23.5-47.5 36.5-38.5 47.25-26.25q7-19 23.5-30.75t37-11.75 37 11.75 23.5 30.75q26 9.5 47.25 26.25t36.5 38.5 23.5 47.5 8.25 53.25q0 31.5-10.5 60zm-234 28.5q14.5 11.5 32.25 17.5t36.25 6 36.25-6 32.25-17.5q8-21 28.5-32.5 15-25.5 15-56 0-32.5-17.5-60t-47-41.5q-9 10.5-21.5 16t-26 5.5-26-5.5-21.5-16q-29.5 14-47 41.5t-17.5 60q0 30.5 15 56 20.5 11.5 28.5 32.5z"/></svg>