<svg width="1792" height="1792" viewBox="0 0 1792 1792" xmlns="http://www.w3.org/2000/svg"><path transform="scale(1.75 1.75) translate(0 0)" d="M950.5 665.5q17 11 30.75 25.75t23.25 32.25 14.5 37 5 39.5q0 33-12.75 62t-34.5 50.75-50.75 34.5-62 12.75q-46 0-85-24.5-57.5 43.5-126.25 66t-140.75 22.5-140.75-22.5-126.25-66q-39 24.5-85 24.5-33 0-62-12.75t-50.75-34.5-34.5-50.75-12.75-62q0-20 5-39.5t14.5-37 23.25-32.25 30.75-25.75q-5-22.5-7.25-44.75t-2.25-44.75q0-69 20.75-133.75t58.5-120 90.75-97.75 118-67q.5-32.5 13.25-61.25t34.5-50 50.75-33.75 61.5-12.5 61.5 12.5 50.75 33.75 34.5 50 13.25 61.25q65 24.5 118 67t90.75 97.75 58.5 120 20.75 133.75q0 22.5-2.25 44.75t-7.25 44.75zm-438.5-601.5q-20 0-37.5 7.5t-30.5 20.5-20.5 30.5-7.5 37.5 7.5 37.5 20.5 30.5 30.5 20.5 37.5 7.5 37.5-7.5 30.5-20.5 20.5-30.5 7.5-37.5-7.5-37.5-20.5-30.5-30.5-20.5-37.5-7.5zm-448 736q0 20 7.5 37.5t20.5 30.5 30.5 20.5 37.5 7.5 37.5-7.5 30.5-20.5 20.5-30.5 7.5-37.5-7.5-37.5-20.5-30.5-30.5-20.5-37.5-7.5-37.5 7.5-30.5 20.5-20.5 30.5-7.5 37.5zm448 160q59 0 115.25-17.75t104.75-51.75q-13.5-20-20.75-43.25t-7.25-47.25q0-33 12.75-62t34.5-50.75 50.75-34.5 62-12.75q6.5 0 13 .5t13 1.5q6-33 6-66 0-58.5-16.75-112.75t-47.5-100.5-74.5-82.5-97.75-58.75q-9 22-24.25 40.25t-34.75 31.25-42 20-46.5 7-46.5-7-42-20-34.75-31.25-24.25-40.25q-54 22.5-97.75 58.75t-74.5 82.5-47.5 100.5-16.75 112.75q0 33 6 66 36-6 69.75 4t59.5 32.25 41.25 53.75 15.5 68q0 24-7.25 47.25t-20.75 43.25q48.5 34 104.75 51.75t115.25 17.75zm352-64q20 0 37.5-7.5t30.5-20.5 20.5-30.5 7.5-37.5-7.5-37.5-20.5-30.5-30.5-20.5-37.5-7.5-37.5 7.5-30.5 20.5-20.5 30.5-7.5 37.5 7.5 37.5 20.5 30.5 30.5 20.5 37.5 7.5z"/></svg>