<svg xmlns="http://www.w3.org/2000/svg" viewBox="0 0 2048 2048"><path d="M960 0q51 0 97 6.5t89.5 20 85.5 34 85 47.5q72 46 144 75t146 45 152 22 161 6v512q0 146-36.5 277t-101 248.5T1630 1515t-191 195.5-217.5 170.5T991 2027l-31 18-31-18q-116-67-230.5-146T481 1710.5 290 1515t-152.5-221.5-101-248.5T0 768V256q83 0 161-6t152-22 146-45 144-75q85-55 170-81.5T960 0zm832 382q-149-8-285.5-48T1244 213q-68-44-135.5-64.5T960 128t-148.5 20.5T676 213q-126 81-262.5 121T128 382v386q0 127 33.5 244t91.5 223 138 200.5T563 1613t193.5 154T960 1897q102-59 203.5-130t193.5-154 172-177.5 138-200.5 91.5-223 33.5-244V382z"/></svg>