<svg width="1792" height="1792" viewBox="0 0 1792 1792" xmlns="http://www.w3.org/2000/svg"><path transform="scale(1.75 1.75) translate(0 0)" d="M896 256v640q0 26.5-10.25 49.75t-27.5 40.5-40.75 27.5-49.5 10.25h-576q-26.5 0-49.75-10.25t-40.5-27.5-27.5-40.5-10.25-49.75v-640h128v-64q0-39.5 15.25-74.5t41.25-61 61-41.25 74.5-15.25q52 0 96.5 26 44.5-26 95.5-26 39.5 0 74.5 15.25t61 41.25 41.25 61 15.25 74.5v64h128zm-192-64q0-26-10.25-49.5t-27.5-40.75-40.75-27.5-49.5-10.25q-22.5 0-42.5 7.5 18 22.5 27 44t12.25 43.5 3.25 45.75v51.25h128v-64zm-448 64h256v-64q0-26-10.25-49.5t-27.5-40.75-40.75-27.5-49.5-10.25q-26.5 0-49.75 10.25t-40.5 27.5-27.5 40.75-10.25 49.5v64zm401 704q-17-30-17-64v-576h-512v576q0 13.5 5 25t13.75 20.25 20.25 13.75 25 5h465zm175-640h-128v576q0 13.5 5 25t13.75 20.25 20.25 13.75 25 5 25-5 20.25-13.75 13.75-20.25 5-25v-576z"/></svg>