<svg width="1792" height="1792" viewBox="0 0 1792 1792" xmlns="http://www.w3.org/2000/svg"><path transform="scale(1.75 1.75) translate(0 0)" d="M800 768q20 0 37.5 7.5t30.5 20.5 20.5 30.5 7.5 37.5-7.5 37.5-20.5 30.5-30.5 20.5-37.5 7.5-37.5-7.5-30.5-20.5-20.5-30.5-7.5-37.5q0-15.5 5.5-32h-267q5.5 16.5 5.5 32 0 20-7.5 37.5t-20.5 30.5-30.5 20.5-37.5 7.5-37.5-7.5-30.5-20.5-20.5-30.5-7.5-37.5q0-27.5 14.75-51t39.75-35.5l-216-649.5h-94.5v-64h140.5l42.5 128h841l-149 448h-542.5l42.5 128h425zm-595.5-512l106.5 320h517.5l106.5-320h-730.5zm179.5 608q0-13-9.5-22.5t-22.5-9.5-22.5 9.5-9.5 22.5 9.5 22.5 22.5 9.5 22.5-9.5 9.5-22.5zm416 32q13 0 22.5-9.5t9.5-22.5-9.5-22.5-22.5-9.5-22.5 9.5-9.5 22.5 9.5 22.5 22.5 9.5z"/></svg>