<svg width="1792" height="1792" viewBox="0 0 1792 1792" xmlns="http://www.w3.org/2000/svg"><path transform="scale(1.75 1.75) translate(0 0)" d="M882.5 320q-63.5 2-120.25 17.75t-107.5 43.5-96.25 66.25-86 85q-17 19.5-34 38t-36 36q-84 76.5-186 119t-216.5 42.5v-64q65.5 0 124.25-15.25t111.25-43 99.25-67 88.75-87.25q17.5-20.5 35.25-39.5t37.75-37q40.5-36 85.25-65t93.5-49.5 101-31.75 106.75-12.75l-73.5-73.5 45-45 151 150.5-151 150.5-45-45zm-480 98q-11 12-21.25 24.25t-21.75 24.25q-37-34-78.75-61.25t-87.25-46.25-94-29-99.5-10v-64q114.5 0 216.5 42.75t186 119.25zm452 167.5l151 150.5-151 150.5-45-45 73.5-73.5q-55-1.5-107.75-13t-101.75-32.25-94.25-50.25-85.75-66.5q11-12 21.25-24.25t21.75-24.25q36 33 76 59.5t83.75 45.5 90.5 29.5 95.75 12l-73-73.5z"/></svg>