<svg width="1792" height="1792" viewBox="0 0 1792 1792" xmlns="http://www.w3.org/2000/svg"><path transform="scale(1.75 1.75) translate(0 0)" d="M736 448q59.5 0 112 22.75t91.5 61.75 61.75 91.5 22.75 112-22.75 112-61.75 91.5-91.5 61.75-112 22.75-112-22.75-91.5-61.75-61.75-91.5-22.75-112 22.75-112 61.75-91.5 91.5-61.75 112-22.75zm-224 288q0 46.5 17.75 87.25t48 71 71 48 87.25 17.75q36 0 70.5-11.25t63.5-33.25l-313.5-313.5q-22 29-33.25 63.5t-11.25 70.5zm403.5 134q22-29 33.25-63.5t11.25-70.5q0-46.5-17.75-87.25t-48-71-71-48-87.25-17.75q-36 0-70.5 11.25t-63.5 33.25z"/></svg>