<svg width="1792" height="1792" viewBox="0 0 1792 1792" xmlns="http://www.w3.org/2000/svg"><path transform="scale(1.75 1.75) translate(0 0)" d="M736 448q46.5 0 87.25 17.5t71.25 48 48 71.25 17.5 87.25-17.5 87.25-48 71.25-71.25 48-87.25 17.5-87.25-17.5-71.25-48-48-71.25-17.5-87.25 17.5-87.25 48-71.25 71.25-48 87.25-17.5zm-160 224q0 33 12.5 62.25t34.25 51 51 34.25 62.25 12.5q23.5 0 46-6.75t42-19.75l-221.5-221.5q-13 19.5-19.75 42t-6.75 46zm293.5 88q13-19.5 19.75-42t6.75-46q0-33-12.75-62t-34.5-50.75-50.75-34.5-62-12.75q-23.5 0-46 6.75t-42 19.75zm-391 72q11.5 17.5 24.75 33.75t28.75 30.25h-212q-13.5 0-25-5t-20.25-13.75-13.75-20.25-5-25v-640q0-13.5 5-25t13.75-20.25 20.25-13.75 25-5h429.5l146.5 146.5v140q-15-9.5-31-17.25t-33-13.25v-82.5l-109.5-109.5h-402.5v640h158.5z"/></svg>