<svg xmlns="http://www.w3.org/2000/svg" viewBox="0 0 2048 2048"><path d="M1472 896q119 0 224 45.5t183 123.5 123.5 183 45.5 224-45.5 224-123.5 183-183 123.5-224 45.5-224-45.5-183-123.5-123.5-183-45.5-224 45.5-224 123.5-183 183-123.5 224-45.5zm448 576q0-93-35.5-174.5t-96-142-142-96T1472 1024q-72 0-141 22.5t-127 66.5l627 627q44-58 66.5-127t22.5-141zm-896 0q0 93 35.5 174.5t96 142 142 96T1472 1920q72 0 141-22.5t127-66.5l-627-627q-44 58-66.5 127t-22.5 141zm-133 448q26 37 58 68.5t67 59.5H256q-26 0-49.5-10t-41-27.5-27.5-41-10-49.5V128q0-26 10-49.5t27.5-41 41-27.5T256 0h1115l421 421v390q-61-31-128-48V475l-347-347H256v1792h635z"/></svg>