<svg xmlns="http://www.w3.org/2000/svg" viewBox="0 0 2048 2048"><path d="M493 749l-274 275 274 275-90 90-366-365 366-365zm806 806l90 90-365 366-365-366 90-90 275 274zm712-531l-366 365-90-90 274-275-274-275 90-90zM749 493l-90-90 365-366 365 366-90 90-275-274zm275 147q79 0 149 30t122.5 82.5T1378 875t30 149q0 80-30 149.5t-82.5 122T1173 1378t-149 30q-80 0-149.5-30t-122-82.5-82.5-122-30-149.5q0-79 30-149t82.5-122.5 122-82.5 149.5-30zm0 640q53 0 99.5-20t81.5-55 55-81.5 20-99.5-20-99.5-55-81.5-81.5-55-99.5-20-99.5 20-81.5 55-55 81.5-20 99.5 20 99.5 55 81.5 81.5 55 99.5 20z"/></svg>