<svg width="1792" height="1792" viewBox="0 0 1792 1792" xmlns="http://www.w3.org/2000/svg"><path transform="scale(1.75 1.75) translate(0 0)" d="M246.5 374.5l-137 137.5 137 137.5-45 45-183-182.5 183-182.5zm403 403l45 45-182.5 183-182.5-183 45-45 137.5 137zm356-265.5l-183 182.5-45-45 137-137.5-137-137.5 45-45zm-631-265.5l-45-45 182.5-183 182.5 183-45 45-137.5-137zm137.5 73.5q39.5 0 74.5 15t61.25 41.25 41.25 61.25 15 74.5q0 40-15 74.75t-41.25 61-61.25 41.25-74.5 15q-40 0-74.75-15t-61-41.25-41.25-61-15-74.75q0-39.5 15-74.5t41.25-61.25 61-41.25 74.75-15zm0 320q26.5 0 49.75-10t40.75-27.5 27.5-40.75 10-49.75-10-49.75-27.5-40.75-40.75-27.5-49.75-10-49.75 10-40.75 27.5-27.5 40.75-10 49.75 10 49.75 27.5 40.75 40.75 27.5 49.75 10z"/></svg>