<svg xmlns="http://www.w3.org/2000/svg" viewBox="0 0 2048 2048"><path d="M704 1480q44 4 82.5 20.5T854 1545t45.5 65.5T916 1694q0 67-26 117.5t-70 84-101 50.5-118 17q-53 0-106-10t-98-39v-110q90 72 207 72 40 0 77.5-10.5t66-31.5 46-53.5T811 1703q0-46-15-76.5t-40-50.5-58-30-69-14-73-4.5-70-.5v-86q47 0 98.5-2t94.5-17 71-49 28-98q0-82-46-117t-123-35q-50 0-94.5 17t-83.5 47v-100q46-28 98-39.5t106-11.5q49 0 93.5 13.5t79 40.5 55 67 20.5 93q0 92-45.5 147.5T704 1477v3zm662-444q62 0 106.5 20.5t76 55.5 50.5 81.5 30 97.5 14.5 103.5 3.5 100.5q0 49-5 102.5t-17.5 105.5-34.5 99-55 83-79.5 57-108.5 21q-59 0-103-20.5t-75.5-54.5-51.5-79-32-94.5-16.5-100.5-4.5-97q0-50 4.5-105.5T1085 1303t33.5-101.5 55-85.5 81-58.5T1366 1036zm-9 840q43 0 74-19t51.5-50 32.5-70.5 18.5-80.5 8-80.5 1.5-70.5q0-30-1.5-70t-7.5-82.5-17.5-83.5-32-73.5-50.5-52.5-73-20q-45 0-76.5 20t-53 52.5-34 74-19 85-8 84.5-1.5 73q0 31 2 70.5t8 80 18.5 79 33 68.5 51.5 48 75 18zm691-1492v512h-512V768h316q-59-117-146.5-211.5t-195.5-161-232-103-254-36.5q-155 0-296 47.5t-257.5 134-203 208T136 915L14 877q33-111 88.5-209.5t129.5-182T395.5 336 586 223.5t211.5-71T1024 128q136 0 266.5 34.5t246.5 99 213.5 157T1920 627V384h128z"/></svg>