<svg width="1792" height="1792" viewBox="0 0 1792 1792" xmlns="http://www.w3.org/2000/svg"><path transform="scale(1.75 1.75) translate(0 0)" d="M352 740q22 2 41.25 10.25t33.75 22.25 22.75 32.75 8.25 41.75q0 33.5-13 58.75t-35 42-50.5 25.25-59 8.5q-26.5 0-53-5t-49-19.5v-55q45 36 103.5 36 20 0 38.75-5.25t33-15.75 23-26.75 8.75-38.75q0-23-7.5-38.25t-20-25.25-29-15-34.5-7-36.5-2.25-35-.25v-43q23.5 0 49.25-1t47.25-8.5 35.5-24.5 14-49q0-41-23-58.5t-61.5-17.5q-25 0-47.25 8.5t-41.75 23.5v-50q23-14 49-19.75t53-5.75q24.5 0 46.75 6.75t39.5 20.25 27.5 33.5 10.25 46.5q0 46-22.75 73.75t-66.75 39.75v1.5zm331-222q31 0 53.25 10.25t38 27.75 25.25 40.75 15 48.75 7.25 51.75 1.75 50.25q0 24.5-2.5 51.25t-8.75 52.75-17.25 49.5-27.5 41.5-39.75 28.5-54.25 10.5q-29.5 0-51.5-10.25t-37.75-27.25-25.75-39.5-16-47.25-8.25-50.25-2.25-48.5q0-25 2.25-52.75t8.25-54.25 16.75-50.75 27.5-42.75 40.5-29.25 55.75-10.75zm-4.5 420q21.5 0 37-9.5t25.75-25 16.25-35.25 9.25-40.25 4-40.25.75-35.25q0-15-.75-35t-3.75-41.25-8.75-41.75-16-36.75-25.25-26.25-36.5-10q-22.5 0-38.25 10t-26.5 26.25-17 37-9.5 42.5-4 42.25-.75 36.5q0 15.5 1 35.25t4 40 9.25 39.5 16.5 34.25 25.75 24 37.5 9zm345.5-746v256h-256v-64h158q-29.5-58.5-73.25-105.75t-97.75-80.5-116-51.5-127-18.25q-77.5 0-148 23.75t-128.75 67-101.5 104-65.75 134.75l-61-19q16.5-55.5 44.25-104.75t64.75-91 81.75-74.75 95.25-56.25 105.75-35.5 113.25-12.25q68 0 133.25 17.25t123.25 49.5 106.75 78.5 84.75 104.25v-121.5h64z"/></svg>