<svg xmlns="http://www.w3.org/2000/svg" viewBox="0 0 2048 2048"><path d="M462 1148q34-9 70.5-24.5T605 1089t69-41 60-44h39v916H670v-774q-15 15-41.5 32t-56.5 31.5-59.5 26T462 1252v-104zm904-139q62 0 106.5 20.5t76 55.5 50.5 81.5 30 97.5 14.5 103.5 3.5 100.5q0 49-5 102.5t-18 105.5-34.5 99-55 83-79.5 57-108 21q-59 0-102.5-20.5t-75-54.5-52-79-32.5-94.5-16.5-100.5-4.5-97q0-50 4.5-105.5T1085 1276t33-101.5 55-85.5 81-58.5 112-21.5zm-9 839q43 0 74-19t51.5-49.5 32.5-70 18.5-80.5 8-80.5 1.5-70.5q0-30-1.5-70t-7.5-82.5-17.5-83.5-32-73.5-50.5-52.5-73-20q-45 0-76.5 20t-53 52.5-34 74-19 85-8 84.5-1.5 73q0 31 2 70.5t8 79.5 18.5 78.5 33 68.5 51.5 48 75 18zM1038 128q173 0 334 54.5T1666.5 336 1899 573t149 304l-122 38q-45-148-131-269.5t-203-208-258.5-134T1038 256q-130 0-254 36.5t-232 103-196 161T210 768h316v128H14V384h128v243q72-116 169.5-208.5t213.5-157 246-99 267-34.5z"/></svg>