<svg width="1792" height="1792" viewBox="0 0 1792 1792" xmlns="http://www.w3.org/2000/svg"><path transform="scale(1.75 1.75) translate(0 0)" d="M231 574q17-4.5 35.25-12.25t36.25-17.25 34.5-20.5 30-22h19.5v458h-51.5v-387q-7.5 7.5-20.75 16t-28.25 15.75-29.75 13-25.25 8.25v-52zm452-69.5q31 0 53.25 10.25t38 27.75 25.25 40.75 15 48.75 7.25 51.75 1.75 50.25q0 24.5-2.5 51.25t-9 52.75-17.25 49.5-27.5 41.5-39.75 28.5-54 10.5q-29.5 0-51.25-10.25t-37.5-27.25-26-39.5-16.25-47.25-8.25-50.25-2.25-48.5q0-25 2.25-52.75t8.25-54.25 16.5-50.75 27.5-42.75 40.5-29.25 56-10.75zm-4.5 419.5q21.5 0 37-9.5t25.75-24.75 16.25-35 9.25-40.25 4-40.25.75-35.25q0-15-.75-35t-3.75-41.25-8.75-41.75-16-36.75-25.25-26.25-36.5-10q-22.5 0-38.25 10t-26.5 26.25-17 37-9.5 42.5-4 42.25-.75 36.5q0 15.5 1 35.25t4 39.75 9.25 39.25 16.5 34.25 25.75 24 37.5 9zm-159.5-860q86.5 0 167 27.25t147.25 76.75 116.25 118.5 74.5 152l-61 19q-22.5-74-65.5-134.75t-101.5-104-129.25-67-147.75-23.75q-65 0-127 18.25t-116 51.5-98 80.5-73 105.75h158v64h-256v-256h64v121.5q36-58 84.75-104.25t106.75-78.5 123-49.5 133.5-17.25z"/></svg>