<svg xmlns="http://www.w3.org/2000/svg" viewBox="0 0 2048 2048"><path d="M1856 448q40 0 75 15t61 41 41 61 15 75q0 51-18 94.5t-48.5 80-70 67T1828 937t-89.5 44.5-86.5 35.5q12 66 12 135 0 26-10 49.5t-27.5 41-41 27.5-49.5 10q-35 0-71.5 1t-69-6-57.5-27.5-36-64.5l-16-64q-97 17-194 25t-196 8q-98 0-195-10t-193-31q-8 31-16 61t-23 54-39 39-64 15H256q-27 0-50-10t-40.5-27.5T138 1202t-10-50q0-84 18-167-29-15-60-31t-57-36Q0 897 0 864q0-26 19-45t45-19q10 0 26.5 7.5t34 17.5 33.5 20 27 16q12-34 30.5-68.5T256 726t47-62 50-55q109-109 248.5-167T896 384q84 0 167 18.5t160 54 144 87.5 120 118q43-43 81.5-82t80.5-68.5 91.5-46.5 115.5-17zM384 1079q-30-9-59.5-19.5T266 1038q-5 29-7.5 57t-2.5 57h110zm512-55q154 0 305-21t298-67q-34-95-94.5-173.5t-140-134-173.5-86T896 512q-98 0-189.5 29t-169 81.5-138.5 127T302 915q142 57 292 83t302 26zm640 128q0-23-1.5-46t-5.5-46q-29 9-58.5 17t-59.5 16l15 59h110zm83-259q25-10 57-24t65.5-31.5 65.5-38 57-45.5 40.5-53.5T1920 640q0-26-19-45t-45-19q-52 0-97.5 20t-81.5 57l-115 116q17 30 31.5 61t25.5 63z"/></svg>