<svg xmlns="http://www.w3.org/2000/svg" viewBox="0 0 2048 2048"><path d="M1349 571q91 91 139 208t48 245-48 245-139 208l-91-91q72-72 111-165.5t39-196.5-39-196.5T1258 662zM677 768l256-256h91v1024h-91l-256-256H384V768h293zm853-378q126 128 194 291t68 343-68 343-194 291l-91-91q109-109 167-249t58-294-58-294-167-249zM896 1792q94 0 183-22t171-66l60 112q-96 51-200.5 77.5T896 1920q-124 0-238.5-32t-214-90.5-181-140-140-181-90.5-214T0 1024t32-238.5 90.5-214 140-181 181-140 214-90.5T896 128q109 0 213.5 26.5T1310 232l-60 112q-82-44-171-66t-183-22q-106 0-204 27.5T508.5 361 353 481 233 636.5 155.5 820 128 1024t27.5 204 77.5 183.5T353 1567t155.5 120 183.5 77.5 204 27.5z"/></svg>