<svg xmlns="http://www.w3.org/2000/svg" viewBox="0 0 2048 2048"><path d="M512 256v1664h1024V256H512zm1152 1792H384V128h1280v1920zm-640-896q-79 0-149-30.5T753 1039t-82.5-122T640 768t30.5-149T753 497t122-82.5 149-30.5 149 30.5 122 82.5 82.5 122 30.5 149-30.5 149-82.5 122-122 82.5-149 30.5zm0-640q-53 0-99.5 20.5t-81 55-55 81.5-20.5 99q0 53 20.5 99.5t55 81 81 55 99.5 20.5q52 0 99-20.5t81.5-55 55-81T1280 768q0-52-20.5-99t-55-81.5-81.5-55-99-20.5zm0 1280q-53 0-99.5-20.5t-81-55-55-81T768 1536q0-52 20.5-99t55-81.5 81-55 99.5-20.5q52 0 99 20.5t81.5 55 55 81.5 20.5 99q0 53-20.5 99.5t-55 81-81.5 55-99 20.5zm0-384q-27 0-50 10t-40.5 27.5T906 1486t-10 50 10 50 27.5 40.5T974 1654t50 10 50-10 40.5-27.5 27.5-40.5 10-50-10-50-27.5-40.5-40.5-27.5-50-10zm-96-640q0-19 7.5-36.5t21-31 30.5-21 37-7.5q19 0 36.5 7.5t31 21 21 31 7.5 36.5q0 20-7.5 37t-21 30.5-31 21-36.5 7.5q-20 0-37-7.5t-30.5-21-21-30.5-7.5-37z"/></svg>