<svg width="1792" height="1792" viewBox="0 0 1792 1792" xmlns="http://www.w3.org/2000/svg"><path transform="scale(1.75 1.75) translate(0 0)" d="M256 128v832h512v-832h-512zm576 896h-640v-960h640v960zm-320-448q-39.5 0-74.5-15.25t-61-41.25-41.25-61-15.25-74.5 15.25-74.5 41.25-61 61-41.25 74.5-15.25 74.5 15.25 61 41.25 41.25 61 15.25 74.5-15.25 74.5-41.25 61-61 41.25-74.5 15.25zm0-320q-26.5 0-49.75 10.25t-40.5 27.5-27.5 40.75-10.25 49.5q0 26.5 10.25 49.75t27.5 40.5 40.5 27.5 49.75 10.25q26 0 49.5-10.25t40.75-27.5 27.5-40.5 10.25-49.75q0-26-10.25-49.5t-27.5-40.75-40.75-27.5-49.5-10.25zm0 640q-26.5 0-49.75-10.25t-40.5-27.5-27.5-40.5-10.25-49.75q0-26 10.25-49.5t27.5-40.75 40.5-27.5 49.75-10.25q26 0 49.5 10.25t40.75 27.5 27.5 40.75 10.25 49.5q0 26.5-10.25 49.75t-27.5 40.5-40.75 27.5-49.5 10.25zm0-192q-13.5 0-25 5t-20.25 13.75-13.75 20.25-5 25 5 25 13.75 20.25 20.25 13.75 25 5 25-5 20.25-13.75 13.75-20.25 5-25-5-25-13.75-20.25-20.25-13.75-25-5zm-48-320q0-9.5 3.75-18.25t10.5-15.5 15.25-10.5 18.5-3.75q9.5 0 18.25 3.75t15.5 10.5 10.5 15.5 3.75 18.25q0 10-3.75 18.5t-10.5 15.25-15.5 10.5-18.25 3.75q-10 0-18.5-3.75t-15.25-10.5-10.5-15.25-3.75-18.5z"/></svg>