<svg width="1792" height="1792" viewBox="0 0 1792 1792" xmlns="http://www.w3.org/2000/svg"><path transform="scale(1.75 1.75) translate(0 0)" d="M480 0q66 0 127.25 17.25t114.75 48.5 97.25 75 75 97.25 48.5 114.75 17.25 127.25-17.25 127.25-48.5 114.75-75 97.25-97.25 75-114.75 48.5-127.25 17.25-127.25-17.25-114.75-48.5-97.25-75-75-97.25-48.5-114.75-17.25-127.25 17.25-127.25 48.5-114.75 75-97.25 97.25-75 114.75-48.5 127.25-17.25zm0 896q57.5 0 110.5-15t99.25-42 84.25-65 65-84.25 42-99.25 15-110.5-15-110.5-42-99.25-65-84.25-84.25-65-99.25-42-110.5-15-110.5 15-99.25 42-84.25 65-65 84.25-42 99.25-15 110.5 15 110.5 42 99.25 65 84.25 84.25 65 99.25 42 110.5 15zm31-506.5q14.5 5 26.5 14t20.5 21 13.25 26 4.75 29.5q0 20-7.5 37.5t-20.5 30.5-30.5 20.5-37.5 7.5-37.5-7.5-30.5-20.5-20.5-30.5-7.5-37.5q0-15.5 4.75-29.5t13.25-26 20.5-21 26.5-14h-1v-260h64v260h-1zm-31 122.5q13 0 22.5-9.5t9.5-22.5-9.5-22.5-22.5-9.5-22.5 9.5-9.5 22.5 9.5 22.5 22.5 9.5zm123-361q52 19.5 94.25 52.5t72 76 46 94 16.25 106.5q0 70.5-26.25 134.75t-76.25 114.25l-45.5-45.5q40.5-40.5 62.5-93.25t22-110.25q0-45-13.5-86.75t-38-77-59-62.5-76.5-42.75zm-475 329q0-55.5 16.25-106.5t46.25-94 72.25-76 94.25-52.5l22 60q-42 15.5-76.5 42.75t-59 62.5-38 77-13.5 86.75q0 57.5 22 110.25t62.5 93.25l-45.5 45.5q-50-50-76.5-114.25t-26.5-134.75z"/></svg>