<svg xmlns="http://www.w3.org/2000/svg" viewBox="0 0 2048 2048"><path d="M960 0q132 0 254.5 34.5t229.5 97 194.5 150 150 194.5 97 229.5T1920 960t-34.5 254.5-97 229.5-150 194.5-194.5 150-229.5 97T960 1920t-254.5-34.5-229.5-97-194.5-150-150-194.5-97-229.5T0 960t34.5-254.5 97-229.5 150-194.5 194.5-150 229.5-97T960 0zm0 1792q115 0 221-30t198.5-84 168.5-130 130-168.5 84-198.5 30-221-30-221-84-198.5T1548 372t-168.5-130-198.5-84-221-30-221 30-198.5 84T372 372 242 540.5 158 739t-30 221 30 221 84 198.5T372 1548t168.5 130 198.5 84 221 30zm0-1024q40 0 75 15t61 41 41 61 15 75-15 75-41 61-61 41-75 15q-44 0-84-20l1 1-368 368-90-90 368-368 1 1q-20-40-20-84 0-40 15-75t41-61 61-41 75-15zm0 256q26 0 45-19t19-45-19-45-45-19-45 19-19 45 19 45 45 19zm0-767q97 0 187 25t168.5 70.5T1458 462t109.5 142.5T1638 773t25 187q0 141-52.5 269.5T1458 1458l-91-91q81-81 125-186.5t44-220.5q0-119-45.5-224T1367 553t-183-123.5T960 384q-79 0-152 20.5T671 462t-116.5 89.5-90 116-58 137T386 957q0 67 15.5 132t44.5 125l-114 57q-36-73-55-152.5T258 957q0-146 55-273.5T463.5 461t223-149.5T960 257z"/></svg>