<svg width="1792" height="1792" viewBox="0 0 1792 1792" xmlns="http://www.w3.org/2000/svg"><path transform="scale(1.75 1.75) translate(0 0)" d="M480 0q66 0 127.25 17.25t114.75 48.5 97.25 75 75 97.25 48.5 114.75 17.25 127.25-17.25 127.25-48.5 114.75-75 97.25-97.25 75-114.75 48.5-127.25 17.25-127.25-17.25-114.75-48.5-97.25-75-75-97.25-48.5-114.75-17.25-127.25 17.25-127.25 48.5-114.75 75-97.25 97.25-75 114.75-48.5 127.25-17.25zm0 896q57.5 0 110.5-15t99.25-42 84.25-65 65-84.25 42-99.25 15-110.5-15-110.5-42-99.25-65-84.25-84.25-65-99.25-42-110.5-15-110.5 15-99.25 42-84.25 65-65 84.25-42 99.25-15 110.5 15 110.5 42 99.25 65 84.25 84.25 65 99.25 42 110.5 15zm86-458q10 20 10 42 0 20-7.5 37.5t-20.5 30.5-30.5 20.5-37.5 7.5-37.5-7.5-30.5-20.5-20.5-30.5-7.5-37.5 7.5-37.5 20.5-30.5 30.5-20.5 37.5-7.5q22 0 42 10l-.5-.5 184-184 45 45-184 184zm-86 74q13 0 22.5-9.5t9.5-22.5-9.5-22.5-22.5-9.5-22.5 9.5-9.5 22.5 9.5 22.5 22.5 9.5zm320-176q15.5 34 23.25 70.25t7.75 73.75q0 70-26.25 134.75t-75.75 114.25l-45.5-45.5q40.5-40.5 62.5-92.5t22-109.5q0-62-26-119.5zm-202-118q-57.5-26-119.5-26-39.5 0-76 10.25t-68.5 29.25-58 45.25-44.75 58.25-29 68.75-10.25 76.25q0 57.5 22 110.25t62.5 93.25l-45.5 45.5q-50-50-76.5-114.25t-26.5-134.75q0-48.5 12.5-93.5t35.5-84 55-71 71-54.75 84-35.25 94-12.5q37.5 0 73.75 7.75t70.25 23.25z"/></svg>