<svg width="1792" height="1792" viewBox="0 0 1792 1792" xmlns="http://www.w3.org/2000/svg"><path transform="scale(1.75 1.75) translate(0 0)" d="M480 0q66 0 127.25 17.25t114.75 48.5 97.25 75 75 97.25 48.5 114.75 17.25 127.25-17.25 127.25-48.5 114.75-75 97.25-97.25 75-114.75 48.5-127.25 17.25-127.25-17.25-114.75-48.5-97.25-75-75-97.25-48.5-114.75-17.25-127.25 17.25-127.25 48.5-114.75 75-97.25 97.25-75 114.75-48.5 127.25-17.25zm0 896q57.5 0 110.5-15t99.25-42 84.25-65 65-84.25 42-99.25 15-110.5-15-110.5-42-99.25-65-84.25-84.25-65-99.25-42-110.5-15-110.5 15-99.25 42-84.25 65-65 84.25-42 99.25-15 110.5 15 110.5 42 99.25 65 84.25 84.25 65 99.25 42 110.5 15zm0-512q20 0 37.5 7.5t30.5 20.5 20.5 30.5 7.5 37.5-7.5 37.5-20.5 30.5-30.5 20.5-37.5 7.5q-22 0-42-10l.5.5-184 184-45-45 184-184 .5.5q-10-20-10-42 0-20 7.5-37.5t20.5-30.5 30.5-20.5 37.5-7.5zm0 128q13 0 22.5-9.5t9.5-22.5-9.5-22.5-22.5-9.5-22.5 9.5-9.5 22.5 9.5 22.5 22.5 9.5zm0-383.5q48.5 0 93.5 12.5t84.25 35.25 71.25 54.75 54.75 71.25 35.25 84.25 12.5 93.5q0 70.5-26.25 134.75t-76.25 114.25l-45.5-45.5q40.5-40.5 62.5-93.25t22-110.25q0-59.5-22.75-112t-61.75-91.5-91.5-61.75-112-22.75q-39.5 0-76 10.25t-68.5 28.75-58.25 44.75-45 58-29 68.5-10.25 76.25q0 33.5 7.75 66t22.25 62.5l-57 28.5q-18-36.5-27.5-76.25t-9.5-80.75q0-73 27.5-136.75t75.25-111.25 111.5-74.75 136.75-27.25z"/></svg>