<svg xmlns="http://www.w3.org/2000/svg" viewBox="0 0 2048 2048"><path d="M960 0q132 0 254.5 34.5t229.5 97 194.5 150 150 194.5 97 229.5T1920 960t-34.5 254.5-97 229.5-150 194.5-194.5 150-229.5 97T960 1920t-254.5-34.5-229.5-97-194.5-150-150-194.5-97-229.5T0 960t34.5-254.5 97-229.5 150-194.5 194.5-150 229.5-97T960 0zm0 1792q115 0 221-30t198.5-84 168.5-130 130-168.5 84-198.5 30-221-30-221-84-198.5T1548 372t-168.5-130-198.5-84-221-30-221 30-198.5 84T372 372 242 540.5 158 739t-30 221 30 221 84 198.5T372 1548t168.5 130 198.5 84 221 30zm172-916q20 40 20 84 0 40-15 75t-41 61-61 41-75 15-75-15-61-41-41-61-15-75 15-75 41-61 61-41 75-15q44 0 84 20l-1-1 368-368 90 90-368 368zm-172 148q26 0 45-19t19-45-19-45-45-19-45 19-19 45 19 45 45 19zm640-352q31 68 46.5 140.5T1662 960q0 140-52.5 269.5T1458 1458l-91-91q81-81 125-185t44-219q0-124-52-239zm-404-236q-115-52-239-52-79 0-152 20.5T668 463t-116 90.5T462.5 670t-58 137.5T384 960q0 115 44 220.5T553 1367l-91 91q-100-100-153-228.5T256 960q0-97 25-187t71-168 110-142 142-109.5T772 283t188-25q75 0 147.5 15.5T1248 320z"/></svg>