<svg xmlns="http://www.w3.org/2000/svg" viewBox="0 0 2048 2048"><path d="M1040 1330q111 39 202.5 112.5t157 169 101 207.5 35.5 229h-128q0-88-23-170t-64.5-153-100-129.5-129.5-100-153-64.5-170-23-170 23-153 64.5-129.5 100-100 129.5-64.5 153-23 170H0q0-117 35.5-229t101-207.5 157-169T496 1330q-56-36-100.5-83T320 1144t-47.5-118.5T256 896q0-106 40-199.5t109.5-163 163-109.5T768 384t199.5 40 163 109.5 109.5 163 40 199.5q0 67-16.5 129.5T1216 1144t-75.5 103-100.5 83zM384 896q0 80 30 149.5t82.5 122 122 82.5 149.5 30q79 0 149-30t122.5-82.5 82.5-122 30-149.5q0-79-30-149t-82.5-122.5T917 542t-149-30q-80 0-149.5 30t-122 82.5T414 747t-30 149zm1383-743q136 137 208.5 311t72.5 368-72.5 368-208.5 311l-91-91q118-118 181-269.5t63-318.5-63-318.5T1676 244zm-272 272q81 81 125 186.5t44 220.5-44 220.5-125 186.5l-90-90q63-63 96.5-145t33.5-172-33.5-172-96.5-145z"/></svg>