<svg xmlns="http://www.w3.org/2000/svg" viewBox="0 0 2048 2048"><path d="M1792 1088q0 26-19 45t-45 19-45-19-19-45 19-45 45-19 45 19 19 45zM192 1408q-26 0-45 19t-19 45v64h1091l128 128H0v-192q0-40 15-75t41-61 61-41 75-15h1214l-128 128H192zM577 240q73 0 144 21l1014 296q70 20 127.5 62.5T1961 719t64 125 23 140v294l-128-128V984q0-51-16-99.5t-45.5-89T1788 725t-90-45L685 384q-53-15-108-15-65 0-125 21t-109 59-84.5 90T207 654l1181 218q32 6 59 24t47 44 31 57 11 62v91l-128 128v-126H256V793L49 754l32-125q22-86 69-157.5t112-123 145.5-80T577 240zm-193 784h1013q-6-9-16-17t-21-10L384 816v208zm1661 478l-226 226 226 227-90 90-227-226-227 227-90-91 227-227-227-227 90-90 227 227 227-227z"/></svg>