<svg width="1792" height="1792" viewBox="0 0 1792 1792" xmlns="http://www.w3.org/2000/svg"><path transform="scale(1.75 1.75) translate(0 0)" d="M512 0q70.5 0 136 18.25t122.25 51.75 103.5 80.25 80.25 103.5 51.75 122.25 18.25 136-18.25 136-51.75 122.25-80.25 103.5-103.5 80.25-122.25 51.75-136 18.25-136-18.25-122.25-51.75-103.5-80.25-80.25-103.5-51.75-122.25-18.25-136 18.25-136 51.75-122.25 80.25-103.5 103.5-80.25 122.25-51.75 136-18.25zm56.5 512l171-171-56.5-56.5-171 171-171-171-56.5 56.5 171 171-171 171 56.5 56.5 171-171 171 171 56.5-56.5z"/></svg>