<svg xmlns="http://www.w3.org/2000/svg" viewBox="0 0 2048 2048"><path d="M960 256q115 0 221.5 29.5t199 84 168 130 130 168 84 199T1792 1088t-29.5 221.5-84 199-130 168-168 130-199 84T960 1920t-221.5-29.5-199-84-168-130-130-168-84-199T128 1088t29.5-221.5 84-199 130-168 168-130 199-84T960 256zm0 1536q124 0 239.5-41.5T1410 1629L419 638q-80 95-121.5 210.5T256 1088q0 97 25 187t71 168 110.5 142.5T605 1696t168 71 187 25zm541-254q80-95 121.5-210.5T1664 1088q0-97-25-187t-71-168-110.5-142.5T1315 480t-168-71-187-25q-124 0-239.5 41.5T510 547z"/></svg>