<svg width="1792" height="1792" viewBox="0 0 1792 1792" xmlns="http://www.w3.org/2000/svg"><path transform="scale(1.75 1.75) translate(0 0)" d="M192 0q39.5 0 74.5 15t61.25 41.25 41.25 61.25 15 74.5q0 11.5-1.75 23.25t-4.25 23.25l-62.5-15.5q2-7.5 3.25-15.25t1.25-15.75q0-26.5-10-49.75t-27.5-40.75-40.75-27.5-49.75-10-49.75 10-40.75 27.5-27.5 40.75-10 49.75 10 49.75 27.5 40.75 40.75 27.5 49.75 10q8 0 15.75-1.25t15.25-3.25l15.5 62.5q-11.5 2.5-23.25 4.25t-23.25 1.75q-40 0-74.75-15t-61-41.25-41.25-61-15-74.75q0-39.5 15-74.5t41.25-61.25 61-41.25 74.75-15z"/></svg>