<svg width="1792" height="1792" viewBox="0 0 1792 1792" xmlns="http://www.w3.org/2000/svg"><path transform="scale(1.75 1.75) translate(0 0)" d="M384 0q26.5 0 49.75 10t40.75 27.5 27.5 40.75 10 49.75v192h-256v-192q0-26.5 10-49.75t27.5-40.75 40.75-27.5 49.75-10zm0 56q-15 0-28 5.75t-22.75 15.5-15.5 22.75-5.75 28h144q0-15-5.75-28t-15.5-22.75-22.75-15.5-28-5.75zm-301.5 187q-3 3-5.25 6.25t-4.75 6.75h119.5v64h-192v-32q0-26 9.5-47t23.75-38.5 30.75-32 30.75-27 23.75-24 9.5-23.5q0-13-9.5-22.5t-22.5-9.5-22.5 9.5-9.5 22.5h-64q0-20 7.5-37.5t20.5-30.5 30.5-20.5 37.5-7.5 37.5 7.5 30.5 20.5 20.5 30.5 7.5 37.5q0 19-7.5 36.75t-20.5 31.25h-.5z"/></svg>