<svg width="1792" height="1792" viewBox="0 0 1792 1792" xmlns="http://www.w3.org/2000/svg"><path transform="scale(1.75 1.75) translate(0 0)" d="M257 202q11 0 18.5 7.5l37 37q7.5 7.5 7.5 18.5 0 10.5-7.5 18l-16 16-14.5 11.5-16.5 7-22 2.5q-26 0-54.25-10.75t-55.25-29.25-51.25-42.75-42.75-51.25-29.25-55.25-10.75-54.25q0-13 2.5-22t7-16.5 11.5-14.5l16-16q7.5-7.5 18-7.5 11 0 18.5 7.5l37 37q7.5 7.5 7.5 18.5 0 9-5.25 15.5t-11.75 12-11.75 12-5.25 15.5q0 10 8 18l92 92q8 8 18 8 9 0 15.5-5.25t12-11.75 12-11.75 15.5-5.25z"/></svg>