<svg xmlns="http://www.w3.org/2000/svg" viewBox="0 0 2048 2048"><path d="M1728 128q40 0 75 15t61 41 41 61 15 75v795l-805 805H320q-40 0-75-15t-61-41-41-61-15-75V320q0-40 15-75t41-61 61-41 75-15h1408zM256 1728q0 26 19 45t45 19h704v-256q-93-2-178.5-28t-159-72-133-110.5T453 1181l115-58q33 66 81 119t107 89.5 127 56.5 141 20v-192q0-40 15-75t41-61 61-41 75-15h576V320q0-26-19-45t-45-19H320q-26 0-45 19t-19 45v1408zm1445-576h-485q-26 0-45 19t-19 45v485zM640 768q-27 0-50-10t-40.5-27.5T522 690t-10-50 10-50 27.5-40.5T590 522t50-10 50 10 40.5 27.5T758 590t10 50-10 50-27.5 40.5T690 758t-50 10zm768 0q-27 0-50-10t-40.5-27.5T1290 690t-10-50 10-50 27.5-40.5T1358 522t50-10 50 10 40.5 27.5T1526 590t10 50-10 50-27.5 40.5T1458 758t-50 10z"/></svg>