<svg width="1792" height="1792" viewBox="0 0 1792 1792" xmlns="http://www.w3.org/2000/svg"><path transform="scale(1.75 1.75) translate(0 0)" d="M512 0q44 0 85 11.5t76.5 32.25 64.75 50 50 64.75 32.25 76.5 11.5 85q0 34.5-8.25 65.75t-23.75 62.25l-288 576-288-576q-15.5-31-23.75-62.25t-8.25-65.75q0-44 11.5-85t32.25-76.5 50-64.75 64.75-50 76.5-32.25 85-11.5zm238 423q0-.5.25-.5t.25-.5q12.5-23.5 19-49.5t6.5-52.5q0-54.5-20.75-102.5t-56.75-84-84-56.75-102.5-20.75-102.5 20.75-84 56.75-56.75 84-20.75 102.5q0 26.5 6.5 52.5t19 49.5q0 .5.25.5t.25.5l238 476zm-366-231h64v256h-64v-256zm192 0h64v256h-64v-256z"/></svg>