<svg width="1792" height="1792" viewBox="0 0 1792 1792" xmlns="http://www.w3.org/2000/svg"><path transform="scale(1.75 1.75) translate(0 0)" d="M704 576v64h-256v-320h64v256h192zm115.5-326q67.5 68 104 148.75t36.5 177.25q0 62-16 119.25t-45.25 107-70 90.5-90.5 70-107 45.25-119.25 16-119.25-16-107-45.25-90.5-70-70-90.5-45.25-107-16-119.25q0-55.5 13.25-108t37.5-99 58.75-86.25 77-70.5 92.5-51.25 105-28.5v-68.5h-128v-64h320v64h-128v64q69.5 0 135.25 20.5t122.25 61l104-104 45 45zm-307.5 710q79.5 0 149.25-30.25t122-82.5 82.5-122 30.25-149.25-30.25-149.25-82.5-122-122-82.5-149.25-30.25-149.25 30.25-122 82.5-82.5 122-30.25 149.25 30.25 149.25 82.5 122 122 82.5 149.25 30.25z"/></svg>