<svg width="1792" height="1792" viewBox="0 0 1792 1792" xmlns="http://www.w3.org/2000/svg"><path transform="scale(1.75 1.75) translate(0 0)" d="M512 0q70.5 0 136 18.25t122.5 51.5 103.75 80 80 103.75 51.5 122.5 18.25 136-18.25 136-51.5 122.5-80 103.75-103.75 80-122.5 51.5-136 18.25-136-18.25-122.5-51.5-103.75-80-80-103.75-51.5-122.25-18.25-136.25q0-70.5 18.25-136t51.5-122.5 80-103.75 103.75-80 122.25-51.5 136.25-18.25zm0 960q61.5 0 118.75-16t107-45.25 90.75-70.25 70.25-90.75 45.25-106.75 16-119q0-61.5-16-118.75t-45.25-107-70.25-90.75-90.75-70.25-107-45.25-118.75-16-118.75 16-107 45.25-90.75 70.25-70.25 90.75-45.25 107-16 118.75 16 118.75 45.25 107 70.25 90.75 90.75 70.25 106.75 45.25 119 16zm0-576q26.5 0 49.75 10t40.75 27.5 27.5 40.75 10 49.75-10 49.75-27.5 40.75-40.75 27.5-49.75 10-49.75-10-40.75-27.5-27.5-40.75-10-49.75 10-49.75 27.5-40.75 40.75-27.5 49.75-10zm0 192q13.5 0 25-5t20.25-13.75 13.75-20.25 5-25-5-25-13.75-20.25-20.25-13.75-25-5-25 5-20.25 13.75-13.75 20.25-5 25 5 25 13.75 20.25 20.25 13.75 25 5z"/></svg>