<svg width="1792" height="1792" viewBox="0 0 1792 1792" xmlns="http://www.w3.org/2000/svg"><path transform="scale(1.75 1.75) translate(0 0)" d="M416 640q13 0 22.5 9.5t9.5 22.5-9.5 22.5-22.5 9.5-22.5-9.5-9.5-22.5 9.5-22.5 22.5-9.5zm0-128q13 0 22.5 9.5t9.5 22.5-9.5 22.5-22.5 9.5-22.5-9.5-9.5-22.5 9.5-22.5 22.5-9.5zm0-128q13 0 22.5 9.5t9.5 22.5-9.5 22.5-22.5 9.5-22.5-9.5-9.5-22.5 9.5-22.5 22.5-9.5zm32 576h256v64h-576v-64h256v-128h-192v-832h448v832h-192v128zm-192-192h320v-704h-320v704zm573-637q63 64 97 145.5t34 171.5-34 171.5-97 145.5l-45.5-45.5q54.5-54.5 83.5-124.25t29-147.25-29-147.25-83.5-124.25zm-90.5 90.5q45.5 45.5 69.5 104t24 122.5-24 122.5-69.5 104l-45.5-45.5q36-36 55.5-82.75t19.5-98.25-19.5-98.25-55.5-82.75z"/></svg>