<svg width="1792" height="1792" viewBox="0 0 1792 1792" xmlns="http://www.w3.org/2000/svg"><path transform="scale(1.75 1.75) translate(0 0)" d="M430.5 510.5l-45-45 318.5-319 318.5 319-45 45-17.5-17v274.5h-192v-192h-128v192h-192v-274.5zm81.5 193.5h64v-192h256v192h64v-274.5l-192-192-192 192v274.5zm512 128v64h-1024v-64h1024zm-896-259q-28-5.5-51.25-20.25t-40.5-35.75-26.75-46.75-9.5-54.25q0-36.5 7-66t18.5-57.25 26.75-55.5 31.75-60.75q5-10 13.25-19t18.25-15.5 21.5-10.25 23-3.75q24 0 40.5 11.25t28.75 28.25 21.25 37 18 37l22.25 44.5 16.25 38.5 9.75 40.5 3.25 51q0 28.5-9.5 54.25t-26.75 46.75-40.75 35.75-51 20.25v195h-64v-195zm32-381q-4.5 0-11.75 9t-16 23-17.5 31-16.5 32.5-13.5 28-7.75 17.5q-7.5 19-10.25 41t-2.75 42 7.5 37.5 20.5 30.5 30.5 20.5 37.5 7.5 37.5-7.5 30.5-20.5 20.5-30.5 7.5-37.5-2.75-42-10.25-41q-2-5-7.75-17.5t-13.5-28-16.75-32.5-17.5-31-15.75-23-11.75-9z"/></svg>