<svg xmlns="http://www.w3.org/2000/svg" viewBox="0 0 2048 2048"><path d="M685 768l-90-91 429-429 429 429-90 91-276-275v531H961V493zM1024 0q141 0 271.5 36.5T1540 140t207.5 160.5T1908 508t103.5 244.5T2048 1024t-36.5 271.5T1908 1540t-160.5 207.5T1540 1908t-244.5 103.5T1024 2048t-271.5-36.5T508 1908t-207.5-160.5T140 1540 36.5 1295.5 0 1024t36.5-271.5T140 508t160.5-207.5T508 140 752.5 36.5 1024 0zm0 128q-123 0-237.5 32t-214 90.5T391 391 250.5 572.5t-90.5 214-32 237.5q0 65 9 128h1774q9-63 9-128 0-123-32-237.5t-90.5-214T1657 391t-181.5-140.5-214-90.5-237.5-32zm186 1408H814l-43 128h463zm-23-128l-24-128H165q19 65 50 128h972zm130 0h516q31-63 50-128h-590zM289 1536q59 84 134.5 152.5T589 1807l90-271H289zm417 326q77 29 157 43.5t161 14.5q129 0 251-36l-17-92H729zm691-23q109-50 201-127t161-176h-418z"/></svg>