<svg width="1792" height="1792" viewBox="0 0 1792 1792" xmlns="http://www.w3.org/2000/svg"><path transform="scale(1.75 1.75) translate(0 0)" d="M191.5 63.5q-32 32-56.75 69t-41.75 78-25.75 84.75-8.75 88.75 8.75 88.75 25.75 84.75 41.75 78 56.75 69l-37.5 37.5q-36-35.5-63.5-77t-46.5-87-28.75-94.5-9.75-99.5 9.75-99.5 28.75-94.5 46.5-87 63.5-77zm135.5 135.5q-37.5 37.5-57 85t-19.5 100 19.5 100 57 85l-37.5 37.5q-44.5-45-68.25-102.25t-23.75-120.25 23.75-120.25 68.25-102.25zm185.5 307.5q-25.5 0-47.75-9.5t-39-26.25-26.5-39-9.75-47.75 9.75-47.75 26.25-38.75 38.75-26.25 47.75-9.75 47.75 9.75 38.75 26.25 26.25 38.75 9.75 47.75v.5q-14.5 1-28.75 4.75t-27.25 11.25q1-4 2-8.25t1-8.25q0-14.5-5.5-27.25t-14.75-22-22-14.75-27.25-5.5-27.25 5.5-22 14.75-14.75 22-5.5 27.25 5.5 27.25 14.75 22 22 14.75 27.25 5.5q4 0 8.25-1t8.25-2q-7.5 13-11.25 27.25t-4.75 28.75zm511.5 69.5v448h-640v-448h192v-64q0-13.5 5-25t13.75-20.25 20.25-13.75 25-5h128q13.5 0 25 5t20.25 13.75 13.75 20.25 5 25v64h192zm-384 0h128v-64h-128v64zm320 163.5l-192 96.5v60h-128v-60l-192-96.5v220.5h512v-220.5zm0-99.5h-512v28.5l199.5 99.5h113l199.5-99.5v-28.5zm-135-242q-24-12-51.5-13.5 0-52.5-19.75-100.5t-56.75-85l37.5-37.5q44.5 45 67.75 102.5t23.25 120.5zm122 114q9-31.5 13.75-63.25t4.75-64.75q0-45.5-8.75-89.25t-25.75-84.5-41.75-77.75-56.75-69l37.5-37.5q72 72 110.25 164t38.25 194q0 32.5-4.25 64.5t-12.75 63.5h-54.5z"/></svg>