<svg width="1792" height="1792" viewBox="0 0 1792 1792" xmlns="http://www.w3.org/2000/svg"><path transform="scale(1.75 1.75) translate(0 0)" d="M342.5 384l-45-45.5 214.5-214.5 214.5 214.5-45 45.5-138-137.5v265.5h-63v-265.5zm169.5-384q70.5 0 135.75 18.25t122.25 51.75 103.75 80.25 80.25 103.75 51.75 122.25 18.25 135.75-18.25 135.75-51.75 122.25-80.25 103.75-103.75 80.25-122.25 51.75-135.75 18.25-135.75-18.25-122.25-51.75-103.75-80.25-80.25-103.75-51.75-122.25-18.25-135.75 18.25-135.75 51.75-122.25 80.25-103.75 103.75-80.25 122.25-51.75 135.75-18.25zm0 64q-61.5 0-118.75 16t-107 45.25-90.75 70.25-70.25 90.75-45.25 107-16 118.75q0 32.5 4.5 64h887q4.5-31.5 4.5-64 0-61.5-16-118.75t-45.25-107-70.25-90.75-90.75-70.25-107-45.25-118.75-16zm93 704h-198l-21.5 64h231.5zm-11.5-64l-12-64h-499q9.5 32.5 25 64h486zm65 0h258q15.5-31.5 25-64h-295zm-514 64q29.5 42 67.25 76.25t82.75 59.25l45-135.5h-195zm208.5 163q38.5 14.5 78.5 21.75t80.5 7.25q64.5 0 125.5-18l-8.5-46h-264.5zm345.5-11.5q54.5-25 100.5-63.5t80.5-88h-209z"/></svg>