<svg xmlns="http://www.w3.org/2000/svg" viewBox="0 0 2048 2048"><path d="M1024 779q51 0 95.5 19.5T1197 851t52.5 77.5 19.5 95.5-19.5 95.5-52.5 77.5-77.5 52.5-95.5 19.5-95.5-19.5T851 1197t-52.5-77.5T779 1024t19.5-95.5T851 851t77.5-52.5T1024 779zm0 384q29 0 54.5-11t44-29.5 29.5-44 11-54.5-11-54.5-29.5-44-44-29.5-54.5-11-54.5 11-44 29.5-29.5 44-11 54.5 11 54.5 29.5 44 44 29.5 54.5 11zm716-855q72 71 127 154t93 174 57.5 189 19.5 199-19.5 199-57.5 189-93 174-127 154l-75-75q64-64 113.5-138t83-156 51-169.5T1930 1024t-17.5-177.5-51-169.5-83-156T1665 383zM383 383q-64 64-113.5 138T186 677t-51.5 169.5T117 1024t17.5 177.5T186 1371t83.5 156T383 1665l-75 75q-72-71-127-154t-93-174-57.5-189T11 1024t19.5-199T88 636t93-174 127-154zm1086 196q89 90 136.5 204.5T1653 1024t-47.5 240.5T1469 1469l-75-75q74-74 113.5-169.5T1547 1024t-39.5-200.5T1394 654zm-815 75q-74 74-113.5 169.5T501 1024t39.5 200.5T654 1394l-75 75q-89-90-136.5-204.5T395 1024t47.5-240.5T579 579z"/></svg>