<svg width="1792" height="1792" viewBox="0 0 1792 1792" xmlns="http://www.w3.org/2000/svg"><path transform="scale(1.75 1.75) translate(0 0)" d="M681.5 252l45 45.5-214.5 214.5-214.5-214.5 45-45.5 138 137.5v-261.5h63v261.5zm-169.5-252q70.5 0 135.75 18.25t122.25 51.75 103.75 80.25 80.25 103.75 51.75 122.25 18.25 135.75-18.25 135.75-51.75 122.25-80.25 103.75-103.75 80.25-122.25 51.75-135.75 18.25-135.75-18.25-122.25-51.75-103.75-80.25-80.25-103.75-51.75-122.25-18.25-135.75 18.25-135.75 51.75-122.25 80.25-103.75 103.75-80.25 122.25-51.75 135.75-18.25zm-429.5 640q5 16.5 11.25 32.25t13.25 31.25h486l-11.5-63.5h-499zm324.5 128l-21 63.5h231l-12-63.5h-198zm-67.5 0h-195q29.5 42 67.25 76.25t82.75 59.25zm172.5 192q64.5 0 125.5-18l-8.5-46h-264.5l-11.5 35q38.5 14.5 78.5 21.75t80.5 7.25zm186.5-40.5q54.5-25 100.5-63.5t80.5-88h-209zm218.5-216q7-15.5 13.25-31.25t11.25-32.25h-295l12 63.5h258.5zm38.5-128q4.5-31.5 4.5-63.5 0-61.5-16-118.75t-45.25-107-70.25-90.75-90.75-70.25-107-45.25-118.75-16-118.75 16-107 45.25-90.75 70.25-70.25 90.75-45.25 107-16 118.75q0 32 4.5 63.5h887z"/></svg>