<svg xmlns="http://www.w3.org/2000/svg" viewBox="0 0 2048 2048"><path d="M1363 504l90 91-429 429-429-429 90-91 276 275V256h126v523zM1024 0q141 0 271.5 36.5T1540 140t207.5 160.5T1908 508t103.5 244.5T2048 1024t-36.5 271.5T1908 1540t-160.5 207.5T1540 1908t-244.5 103.5T1024 2048t-271.5-36.5T508 1908t-207.5-160.5T140 1540 36.5 1295.5 0 1024t36.5-271.5T140 508t160.5-207.5T508 140 752.5 36.5 1024 0zM165 1280q10 33 22.5 64.5T214 1407h972l-23-127H165zm649 256l-42 127h462l-24-127H814zm-135 0H289q59 84 134.5 152.5T589 1807zm345 384q129 0 251-36l-17-92H729l-23 70q77 29 157 43.5t161 14.5zm373-81q109-50 201-127t161-176h-418zm437-432q14-31 26.5-62.5t22.5-64.5h-590l24 127h517zm77-256q9-63 9-127 0-123-32-237.5t-90.5-214T1657 391t-181.5-140.5-214-90.5-237.5-32-237.5 32-214 90.5T391 391 250.5 572.5t-90.5 214-32 237.5q0 64 9 127h1774z"/></svg>