<svg width="1792" height="1792" viewBox="0 0 1792 1792" xmlns="http://www.w3.org/2000/svg"><path transform="scale(1.75 1.75) translate(0 0)" d="M512 389.5q25.5 0 47.75 9.75t38.75 26.25 26.25 38.75 9.75 47.75-9.75 47.75-26.25 38.75-38.75 26.25-47.75 9.75-47.75-9.75-38.75-26.25-26.25-38.75-9.75-47.75 9.75-47.75 26.25-38.75 38.75-26.25 47.75-9.75zm0 192q14.5 0 27.25-5.5t22-14.75 14.75-22 5.5-27.25-5.5-27.25-14.75-22-22-14.75-27.25-5.5-27.25 5.5-22 14.75-14.75 22-5.5 27.25 5.5 27.25 14.75 22 22 14.75 27.25 5.5zm358-427.5q36 35.5 63.5 77t46.5 87 28.75 94.5 9.75 99.5-9.75 99.5-28.75 94.5-46.5 87-63.5 77l-37.5-37.5q32-32 56.75-69t41.5-78 25.5-84.75 8.75-88.75-8.75-88.75-25.5-84.75-41.5-78-56.75-69zm-678.5 37.5q-32 32-56.75 69t-41.75 78-25.75 84.75-8.75 88.75 8.75 88.75 25.75 84.75 41.75 78 56.75 69l-37.5 37.5q-36-35.5-63.5-77t-46.5-87-28.75-94.5-9.75-99.5 9.75-99.5 28.75-94.5 46.5-87 63.5-77zm543 98q44.5 45 68.25 102.25t23.75 120.25-23.75 120.25-68.25 102.25l-37.5-37.5q37-37 56.75-84.75t19.75-100.25-19.75-100.25-56.75-84.75zm-407.5 37.5q-37 37-56.75 84.75t-19.75 100.25 19.75 100.25 56.75 84.75l-37.5 37.5q-44.5-45-68.25-102.25t-23.75-120.25 23.75-120.25 68.25-102.25z"/></svg>