<svg xmlns="http://www.w3.org/2000/svg" viewBox="0 0 2048 2048"><path d="M861 1021l-90-90 637-638 637 638-90 90-35-34v549h-384v-384h-256v384H896V987zm163 387h128v-384h512v384h128V859l-384-384-384 384v549zm1024 256v128H0v-128h2048zM256 1146q-56-11-102.5-40.5t-81-71.5T19 940.5 0 832q0-73 14-132t37-114.5 53.5-111T168 353q10-20 26.5-38t36.5-31 43-20.5 46-7.5q48 0 81 22.5t57.5 56.5 42.5 74 36 74l15 30q21 42 37.5 77t28 70.5 17 76.5 5.5 95q0 57-19 108.5t-53.5 93.5-81.5 71.5-102 40.5v390H256v-390zm64-762q-9 0-23.5 18t-32 46-35 62-33 65-27 56-15.5 35q-15 38-20.5 82t-5.5 84 15 75 41 61 61 41 75 15 75-15 61-41 41-61 15-75-5.5-84-20.5-82q-4-10-15.5-35t-27-56-33.5-65-35-62-31.5-46-23.5-18z"/></svg>