<svg xmlns="http://www.w3.org/2000/svg" viewBox="0 0 2048 2048"><path d="M383 127q-64 64-113.5 138T186 421t-51.5 169.5T117 768t17.5 177.5T186 1115t83.5 156T383 1409l-75 75q-72-71-127-154t-93-174-57.5-189T11 768t19.5-199T88 380t93-174T308 52zm271 271q-75 75-114 170t-39 200 39 200 114 170l-75 75q-89-90-136.5-204.5T395 768t47.5-240.5T579 323zm371 615q-51 0-95.5-19t-78-52.5-53-78T779 768t19.5-95.5T851 595t77.5-52.5T1024 523t95.5 19.5T1197 595t52.5 77.5T1269 768v1q-29 2-57.5 9.5T1157 801q2-8 4-16.5t2-16.5q0-29-11-54.5t-29.5-44-44-29.5-54.5-11-54.5 11-44 29.5-29.5 44-11 54.5 11 54.5 29.5 44 44 29.5 54.5 11q8 0 16.5-2t16.5-4q-15 26-22.5 54.5t-9.5 57.5zm1023 139v896H768v-896h384v-128q0-27 10-50t27.5-40.5T1230 906t50-10h256q27 0 50 10t40.5 27.5T1654 974t10 50v128h384zm-768 0h256v-128h-256v128zm640 327l-384 193v120h-256v-120l-384-193v441h1024v-441zm0-199H896v57l399 199h226l399-199v-57zm-270-484q-48-24-103-27 0-105-39.5-201T1394 398l75-75q89 90 135.5 205t46.5 241zm244 228q18-63 27.5-126.5T1931 768q0-91-17.5-178.5t-51.5-169-83.5-155.5T1665 127l75-75q144 144 220.5 328t76.5 388q0 65-8.5 129t-25.5 127h-109z"/></svg>