<svg xmlns="http://www.w3.org/2000/svg" viewBox="0 0 2048 2048"><path d="M1600 256q26 0 45 19t19 45-19 45-45 19h-421q-12 0-19.5 8t-7.5 20q0 10 8 18l330 330q22 22 34 50t12 59q0 32-12 60.5t-33 49.5-49.5 33-60.5 12H667q-12 0-19.5 8t-7.5 20q0 10 8 18l458 458q22 22 34 50t12 59q0 32-12 60.5t-33 49.5-49.5 33-60.5 12H448q-26 0-45-19t-19-45 19-45 45-19h549q12 0 19.5-8t7.5-20q0-10-8-18l-458-458q-22-22-34-50t-12-59q0-32 12-60.5t33-49.5 49.5-33 60.5-12h714q12 0 19.5-8t7.5-20q0-10-8-18l-330-330q-22-22-34-50t-12-59q0-32 12-60.5t33-49.5 49.5-33 60.5-12h421z"/></svg>