<svg width="1792" height="1792" viewBox="0 0 1792 1792" xmlns="http://www.w3.org/2000/svg"><path transform="scale(1.75 1.75) translate(0 0)" d="M1024 64v384q0 53-13.75 102t-38.75 91.75-60 77.75-77.75 60-91.75 38.75-102 13.75q-68.5 0-132.5-23t-115.5-68l-281.5 281.5-45-45 281.5-281.5q-14-16-25.75-33.5t-21.75-36.5q-35.5 14-75.5 14-46.5 0-87.25-17.5t-71.25-48-48-71.25-17.5-87.25v-224h224q28.5 0 55.5 7t51.5 21q27.5-37 61.75-66t74-49 83.5-30.5 89.75-10.5h384zm-960 352q0 33 12.5 62.25t34.25 51 51 34.25 62.25 12.5q26 0 51-9-11.5-35.5-16-71l-121.5-121.5 45-45 76 75.5q4-34.5 13.75-67t25.25-63.5q-34.5-18.5-73.5-18.5h-160v160zm896-288h-320q-44 0-85 11.5t-76.5 32.25-64.75 50-50 64.75-32.25 76.5-11.5 85q0 56 18.25 107.5t53.75 95l353.5-353 45 45-353 353.5q43.5 35.5 95 53.75t107.5 18.25q44 0 85-11.5t76.5-32.25 64.75-50 50-64.75 32.25-76.5 11.5-85v-320z"/></svg>