<svg xmlns="http://www.w3.org/2000/svg" viewBox="0 0 2048 2048"><path d="M840 380l-46-45 206-206 207 206-46 45-128-128v257h-65V252zm638 691q28 7 51.5 22.5t40 37 26 47.5 9.5 55v264q0 14-9 23t-23 9-23-9-9-23v-264q0-37-22-64t-57-36l-268-66q-11-3-17.5-12t-6.5-20V688q0-29-20-49t-49-20q-37 0-53.5 24t-16.5 57v690q0 14-5.5 38t-15 46.5-24 39T954 1530q-14 0-23-9t-9-23q0-9 7-18t15.5-21.5 15.5-29 7-39.5v-118h-47.5l-44.5 6-33.5 21.5L828 1347v243q0 53 37 90l192 191q31 31 31 74v71q0 13-9.5 22.5t-22.5 9.5q-23 0-28.5-16.5t-5-38 1-43.5-11.5-34l-192-191q-27-27-41.5-62t-14.5-73v-243q0-28 10-53t28-44 42-30.5 53-11.5h70v-60H716q-28 0-47.5-19.5T649 1081V67q0-28 19.5-47.5T716 0h569q28 0 47.5 19.5T1352 67v973zM967 957H703v128h264V957zm312 0h-45v54l45 11v-65zm0-890H703v826h264V700q0-30 9-56t26.5-46 42-31.5T1101 555q27 0 51.5 10.5T1195 594t28.5 42.5T1234 688v205h45V67z"/></svg>