<svg width="1792" height="1792" viewBox="0 0 1792 1792" xmlns="http://www.w3.org/2000/svg"><path transform="scale(1.75 1.75) translate(0 0)" d="M896 320v-64h-384v69.5q16.5-5.5 32-5.5 17.5 0 34.25 6.5t29.75 18q13-11.5 29.75-18t34.25-6.5q16 0 31 5.25t27.25 14.75 21.25 22.5 13 28.5q17-7 35.5-7 20 0 37.5 7.5t30.5 20.5 20.5 30.5 7.5 37.5v291q0 62-25.25 109.25t-67 79.25-95.25 48.25-110 16.25q-32 0-56.75-1.75t-47.25-7.25-45.25-16-50.25-28q-7.5-5-27.25-23.25t-46-44-55.75-55.75-56-57.5-47.25-49.25-29.75-31.75q-18.5-21-18.5-48.5 0-17 6.75-32.5t18.25-27.25 26.75-18.5 32.75-6.75q30 0 60 9.75t57 21.25v-351h-256v-64h261.5q5-14 14-26t21-20.25 26.25-13 29.25-4.75 29.25 4.75 26.25 13 21 20.25 14 26h389.5v-64l96 96zm-352 64q-12.5 0-20 7.5t-11 19.25-4 26.25 0 28.75 1.75 26.75 1.25 19.5v64h-64v-352q0-13-9.5-22.5t-22.5-9.5-22.5 9.5-9.5 22.5v481.5q-14-6.5-37.75-17.5t-49.75-21.75-50.5-18.5-40-7.75q-23 0-23 23v2.5q31.5 33 63.5 64.5t64 63.5q26 26 46 48.5t38.25 41 37 33 42 24.25 53.5 14.75 71.25 5q42.5 0 84.5-11.5t75-34.75 53.5-58.75 20.5-84v-291q0-13-9.5-22.5t-22.5-9.5q-12.5 0-19.5 7.25t-10.75 19-4.5 26.25 0 28.75 1.75 26.75 1 20h-64v-96q0-10 1.5-26.25t-.25-31.75-9-26.75-24.25-11.25q-13 0-22.5 9.5t-9.5 22.5v160h-64v-160q0-13-9.5-22.5t-22.5-9.5z"/></svg>