<svg width="1792" height="1792" viewBox="0 0 1792 1792" xmlns="http://www.w3.org/2000/svg"><path transform="scale(1.75 1.75) translate(0 0)" d="M420 190l-23-22.5 103-103 103.5 103-23 22.5-64-64v128.5h-32.5v-128.5zm319 345.5q14 3.5 25.75 11.25t20 18.5 13 23.75 4.75 27.5v132q0 7-4.5 11.5t-11.5 4.5-11.5-4.5-4.5-11.5v-132q0-18.5-11-32t-28.5-18l-134-33q-5.5-1.5-8.75-6t-3.25-10v-173.5q0-14.5-10-24.5t-24.5-10q-18.5 0-26.75 12t-8.25 28.5v345q0 7-2.75 19t-7.5 23.25-12 19.5-16.25 8.25q-7 0-11.5-4.5t-4.5-11.5q0-4.5 3.5-9t7.75-10.75 7.75-14.5 3.5-19.75v-59h-23.75l-22.25 3-16.75 10.75-6.75 23.75v121.5q0 26.5 18.5 45l96 95.5q15.5 15.5 15.5 37v35.5q0 6.5-4.75 11.25t-11.25 4.75q-11.5 0-14.25-8.25t-2.5-19 .5-21.75-5.75-17l-96-95.5q-13.5-13.5-20.75-31t-7.25-36.5v-121.5q0-14 5-26.5t14-22 21-15.25 26.5-5.75h35v-30h-125.5q-14 0-23.75-9.75t-9.75-23.75v-507q0-14 9.75-23.75t23.75-9.75h284.5q14 0 23.75 9.75t9.75 23.75v486.5zm-255.5-57h-132v64h132v-64zm156 0h-22.5v27l22.5 5.5v-32.5zm0-445h-288v413h132v-96.5q0-15 4.5-28t13.25-23 21-15.75 28.25-5.75q13.5 0 25.75 5.25t21.25 14.25 14.25 21.25 5.25 25.75v102.5h22.5v-413z"/></svg>