<svg width="1792" height="1792" viewBox="0 0 1792 1792" xmlns="http://www.w3.org/2000/svg"><path transform="scale(1.75 1.75) translate(0 0)" d="M597.5 554.5l118 117.5-118 117.5-43-43 42.5-42.5h-277v-64h277l-42.5-42.5zm-170.5 277.5h277v64h-277l42.5 42.5-43 43-118-117.5 118-117.5 43 43zm204-489.5q45.5 18.5 82.5 48.75t63.25 69.25 40.75 84.75 14.5 94.75h-64q0-52.5-20.25-99.25t-55-81.5-81.5-55-99.25-20.25-99.25 20.25-81.5 55-55 81.5-20.25 99.25h-64q0-49 14.5-94.75t40.75-84.75 63.25-69.25 82.5-48.75q-34.5-27-53.75-66.75t-19.25-83.75q0-39.5 15.25-74.5t41.25-61 61-41.25 74.5-15.25 74.5 15.25 61 41.25 41.25 61 15.25 74.5q0 44-19.25 83.75t-53.75 66.75zm-247-150.5q0 26.5 10.25 49.75t27.5 40.5 40.5 27.5 49.75 10.25q26 0 49.5-10.25t40.75-27.5 27.5-40.5 10.25-49.75q0-26-10.25-49.5t-27.5-40.75-40.75-27.5-49.5-10.25q-26.5 0-49.75 10.25t-40.5 27.5-27.5 40.75-10.25 49.5z"/></svg>