<svg width="1792" height="1792" viewBox="0 0 1792 1792" xmlns="http://www.w3.org/2000/svg"><path transform="scale(1.75 1.75) translate(0 0)" d="M736 448q59.5 0 112 22.75t91.5 61.75 61.75 91.5 22.75 112-22.75 112-61.75 91.5-91.5 61.75-112 22.75-112-22.75-91.5-61.75-61.75-91.5-22.75-112 22.75-112 61.75-91.5 91.5-61.75 112-22.75zm0 512q46.5 0 87.25-17.75t71-48 48-71 17.75-87.25-17.75-87.25-48-71-71-48-87.25-17.75-87.25 17.75-71 48-48 71-17.75 87.25 17.75 87.25 48 71 71 48 87.25 17.75zm288-832v256h-256v-64h158q-29.5-58.5-73.25-105.75t-97.75-80.5-115.75-51.5-127.25-18.25q-77 0-147.75 23.75t-129 67-101.5 104-65.75 134.75l-61-19q25-83 74.5-152t116.25-118.5 147-76.75 167.25-27.25q68.5 0 133.5 17t122.75 49.25 106.75 78.5 85 104.75v-121.5h64zm-584 826q14.5 19.5 31.25 37t35.75 32.5q-67.5-.5-132-18.25t-121.75-50.5-105.5-78.75-83.75-103.5v123.5h-64v-256h256v64h-157q25 49.5 61 91.5t79.75 74.25 94.5 53.75 105.75 30.5zm264-378h64v192h-64v-192zm0 256h64v64h-64v-64z"/></svg>