<svg xmlns="http://www.w3.org/2000/svg" viewBox="0 0 2048 2048"><path d="M1664 0q27 0 50 10t40.5 27.5T1782 78t10 50v992q0 31 9.5 54.5t23.5 44 31 40.5 31 45.5 23.5 58 9.5 77.5v480q0 27-10 50t-27.5 40.5-40.5 27.5-50 10H856q62-57 107-128h573v-480q0-45 9.5-77.5t23.5-58 31-45.5 31-40.5 23.5-44 9.5-54.5V128H384v870q-32 4-64.5 10.5T256 1026V0h1408zm128 1440q0-24-4.5-42t-13-33-20-29.5-26.5-31.5q-15 17-26.5 31.5t-20 29.5-13 33-4.5 42v480h128v-480zM448 1280q-59 0-111.5 20t-94.5 55.5-70 84.5-38 107L7 1525q14-81 54-149t98.5-118 132.5-78 156-28q91 0 174 35.5T768 1289v-137h128v384H512v-128h190q-45-60-112-94t-142-34zm441 395q-14 81-54 149t-98.5 118-132.5 78-156 28q-91 0-174-35.5T128 1911v137H0v-384h384v128H194q45 60 112 94t142 34q58 0 111-20t95-55.5 70-84.5 38-107z"/></svg>