<svg width="1792" height="1792" viewBox="0 0 1792 1792" xmlns="http://www.w3.org/2000/svg"><path transform="scale(1.75 1.75) translate(0 0)" d="M944 256q16.5 0 31 6.25t25.5 17.25 17.25 25.5 6.25 31v608q0 16.5-6.25 31t-17.25 25.5-25.5 17.25-31 6.25h-864q-16.5 0-31-6.25t-25.5-17.25-17.25-25.5-6.25-31v-608q0-16.5 6.25-31t17.25-25.5 25.5-17.25 31-6.25h864zm16 80q0-7-4.5-11.5t-11.5-4.5h-864q-7 0-11.5 4.5t-4.5 11.5v608q0 7 4.5 11.5t11.5 4.5h864q7 0 11.5-4.5t4.5-11.5v-608zm-512 496h128v64h-128v-64z"/></svg>