<svg width="1792" height="1792" viewBox="0 0 1792 1792" xmlns="http://www.w3.org/2000/svg"><path transform="scale(1.75 1.75) translate(0 0)" d="M960 517.5q14.5 5 26.25 14t20.25 21 13 26.25 4.5 29.25v128q0 59.5-22.75 112t-61.75 91.5-91.5 61.75-112 22.75q-55 0-104.25-19.5t-87.5-54-63.25-81.25-31.5-101.25h-385.5q-13.5 0-25-5t-20.25-13.75-13.75-20.25-5-25v-576q0-13.5 5-25t13.75-20.25 20.25-13.75 25-5h832q13.5 0 25 5t20.25 13.75 13.75 20.25 5 25v389.5zm-512 122.5q0-26.5 10-49.75t27.5-40.75 40.75-27.5 49.75-10v-160q0-20 7.5-37.5t20.5-30.5 30.5-20.5 37.5-7.5 37.5 7.5 30.5 20.5 20.5 30.5 7.5 37.5v160h128v-384h-832v576h384v-64zm512-32q0-13-9.5-22.5t-22.5-9.5h-224v-224q0-13-9.5-22.5t-22.5-9.5-22.5 9.5-9.5 22.5v384q0 13-9.5 22.5t-22.5 9.5-22.5-9.5-9.5-22.5v-160q-13.5 0-25 5t-20.25 13.75-13.75 20.25-5 25v96q0 46.5 17.75 87.25t48 71 71 48 87.25 17.75 87.25-17.75 71-48 48-71 17.75-87.25v-128z"/></svg>