<svg xmlns="http://www.w3.org/2000/svg" viewBox="0 0 2048 2048"><path d="M1920 1035q29 10 52.5 28t40.5 42 26 52.5 9 58.5v256q0 119-45.5 224T1879 1879t-183 123.5-224 45.5q-110 0-208.5-39T1088 1901t-127-162.5-62-202.5H128q-27 0-50-10t-40.5-27.5T10 1458t-10-50V256q0-27 10-50t27.5-40.5T78 138t50-10h1664q27 0 50 10t40.5 27.5T1910 206t10 50v779zM896 1280q0-53 20-99.5t55-81.5 81.5-55 99.5-20V704q0-40 15-75t41-61 61-41 75-15 74.5 15 60.5 41 41 61 15 75q0 81 .5 160t.5 160h256V256H128v1152h768v-128zm1024-64q0-26-19-45t-45-19h-448V704q0-26-19-45t-45-19-45 19-19 45v768q0 26-19 45t-45 19-45-19-19-45v-320q-27 0-50 10t-40.5 27.5-27.5 40.5-10 50v192q0 93 35.5 174.5t96 142 142 96T1472 1920t174.5-35.5 142-96 96-142T1920 1472v-256z"/></svg>