<svg width="1792" height="1792" viewBox="0 0 1792 1792" xmlns="http://www.w3.org/2000/svg"><path transform="scale(1.75 1.75) translate(0 0)" d="M448 704h128v64h-128v-64zm496-576q16.5 0 31 6.25t25.5 17.25 17.25 25.5 6.25 31v421.5l-64-61.5v-360q0-7-4.5-11.5t-11.5-4.5h-864q-7 0-11.5 4.5t-4.5 11.5v608q0 7 4.5 11.5t11.5 4.5h400l64 64h-464q-16.5 0-31-6.25t-25.5-17.25-17.25-25.5-6.25-31v-608q0-16.5 6.25-31t17.25-25.5 25.5-17.25 31-6.25h864zm25.5 545.5l45 45.5-278.5 278.5-134.5-134.5 45-45.5 89.5 89.5z"/></svg>