<svg width="1792" height="1792" viewBox="0 0 1792 1792" xmlns="http://www.w3.org/2000/svg"><path transform="scale(1.75 1.75) translate(0 0)" d="M832 282.5q44 19.5 79.5 49.75t60.5 68.5 38.5 82.75 13.5 92.5q0 66.5-25 124.75t-68.5 101.75-101.75 68.5-124.75 25q-52 0-101.25-16.25t-90.75-47.75l-128 128-384-384 448-448h384v154.5zm-448 587l384-384v-157.5q-9-2-22-2.75t-27.25-1.5-28.25-2.25-25.25-5.25-18.25-10.25-7-18q0-13 9.5-22.5t22.5-9.5q24.5 0 48.25.5t47.75 6v-70.5h-293.5l-384 384zm320-37.5q53 0 99.5-20.25t81.25-55 55-81.25 20.25-99.5q0-34-9-66.5t-25.5-61.25-40.25-52.75-53.25-41v157.5l-274 274q32 22.5 69.5 34.25t76.5 11.75z"/></svg>