<svg width="1792" height="1792" viewBox="0 0 1792 1792" xmlns="http://www.w3.org/2000/svg"><path transform="scale(1.75 1.75) translate(0 0)" d="M1024 512v512h-512v-256h64v192h384v-384h-82.5l41 41.5-45 45-118.5-118.5 118.5-118.5 45 45-41 41.5h146.5zm-320 0q0 40-15 74.75t-41.25 61-61.25 41.25-74.5 15q-40 0-74.75-15t-61-41.25-41.25-61-15-74.75q0-39.5 15-74.5t41.25-61.25 61-41.25 74.75-15q39.5 0 74.5 15t61.25 41.25 41.25 61.25 15 74.5zm-320 0q0 26.5 10 49.75t27.5 40.75 40.75 27.5 49.75 10 49.75-10 40.75-27.5 27.5-40.75 10-49.75-10-49.75-27.5-40.75-40.75-27.5-49.75-10-49.75 10-40.75 27.5-27.5 40.75-10 49.75zm-233.5-150.5l118.5 118.5-118.5 118.5-45-45 41-41.5h-146.5v-512h512v256h-64v-192h-384v384h82.5l-41-41.5z"/></svg>