<svg xmlns="http://www.w3.org/2000/svg" viewBox="0 0 2048 2048"><path d="M448 1408q40 0 75 15t61 41 41 61 15 75-15 75-41 61-61 41-75 15-75-15-61-41-41-61-15-75 15-75 41-61 61-41 75-15zm0 256q26 0 45-19t19-45-19-45-45-19-45 19-19 45 19 45 45 19zm-320 128q27 0 50 10t40.5 27.5T246 1870t10 50-10 50-27.5 40.5T178 2038t-50 10-50-10-40.5-27.5T10 1970t-10-50 10-50 27.5-40.5T78 1802t50-10zM1472 128q119 0 224 45.5T1879 297t123.5 183 45.5 224-45.5 224-123.5 183-183 123.5-224 45.5h-23q-76 62-169 95t-192 33q-73 0-141.5-17.5t-130-50.5-114-80.5T609 1152h-33q-93 0-174.5-35T259 1021t-96-142.5T128 704t35-174.5T259 387t142.5-96T576 256h69q34-59 82-106.5T832.5 69t122-51T1088 0q94 0 181.5 33t156.5 95h46zm0 1024q93 0 174.5-35.5t142-96 96-142T1920 704t-35.5-174.5-96-142-142-96T1472 256h-97q-63-61-130.5-94.5T1088 128q-66 0-121 18.5T867 199t-80.5 81T724 384H576q-66 0-124.5 25.5t-102 69T281 580t-25 124 25 124.5 68.5 102 102 68.5 124.5 25h106q31 58 73 105.5t94 81 112 51.5 127 18q90 0 169-33.5t145-94.5h70z"/></svg>