<svg width="1792" height="1792" viewBox="0 0 1792 1792" xmlns="http://www.w3.org/2000/svg"><path transform="scale(1.75 1.75) translate(0 0)" d="M224 704q20 0 37.5 7.5t30.5 20.5 20.5 30.5 7.5 37.5-7.5 37.5-20.5 30.5-30.5 20.5-37.5 7.5-37.5-7.5-30.5-20.5-20.5-30.5-7.5-37.5 7.5-37.5 20.5-30.5 30.5-20.5 37.5-7.5zm0 128q13 0 22.5-9.5t9.5-22.5-9.5-22.5-22.5-9.5-22.5 9.5-9.5 22.5 9.5 22.5 22.5 9.5zm-160 64q13.5 0 25 5t20.25 13.75 13.75 20.25 5 25-5 25-13.75 20.25-20.25 13.75-25 5-25-5-20.25-13.75-13.75-20.25-5-25 5-25 13.75-20.25 20.25-13.75 25-5zm672-832q59.5 0 112 22.75t91.5 61.75 61.75 91.5 22.75 112-22.75 112-61.75 91.5-91.5 61.75-112 22.75h-11.5q-38 31-84.5 47.5t-96 16.5q-36.5 0-70.75-8.75t-65-25.25-57-40.25-46.75-53.75h-16.5q-46.5 0-87.25-17.5t-71.25-48-48-71.25-17.5-87.25 17.5-87.25 48-71.25 71.25-48 87.25-17.5h34.5q17-29.5 41-53.25t52.75-40.25 61-25.5 66.75-9q47 0 90.75 16.5t78.25 47.5h23zm0 512q46.5 0 87.25-17.75t71-48 48-71 17.75-87.25-17.75-87.25-48-71-71-48-87.25-17.75h-48.5q-31.5-30.5-65.25-47.25t-78.25-16.75q-33 0-60.5 9.25t-50 26.25-40.25 40.5-31.25 52h-74q-33 0-62.25 12.75t-51 34.5-34.25 50.75-12.5 62 12.5 62.25 34.25 51 51 34.25 62.25 12.5h53q15.5 29 36.5 52.75t47 40.5 56 25.75 63.5 9q45 0 84.5-16.75t72.5-47.25h35z"/></svg>