<svg width="1792" height="1792" viewBox="0 0 1792 1792" xmlns="http://www.w3.org/2000/svg"><path transform="scale(1.75 1.75) translate(0 0)" d="M864 128l160 768h-1024l160-768h704zm-448 254.5l-13 195h218l-13-195h-192zm-74 195l13-195h-186l-40.5 195h213.5zm78-256h184l-8.5-132.5h-167zm475.5 256l-40.5-195h-186l13 195h213.5zm-271 61h-225l-13 196.5h251zm61 0l13 196.5h250.5l-41-196.5h-222.5zm156.5-317l-27.5-132.5h-158l8.5 132.5h177zm-474.5-132.5h-158l-27.5 132.5h177zm-251.5 449.5l-41 196.5h250.5l13-196.5h-222.5z"/></svg>