<svg width="1792" height="1792" viewBox="0 0 1792 1792" xmlns="http://www.w3.org/2000/svg"><path transform="scale(1.75 1.75) translate(0 0)" d="M300.5 576l149 448h-67l-43-128h-167l-43 128h-67l149-448h89zm18 256l-62.5-187-62.5 187h125zm1.5-704v192h128v64h-192v-256h64zm-191.5 446.5q-30-22.5-54-51t-40.5-61-25.25-68.75-8.75-73.75q0-44 11.5-85t32.25-76.5 50-64.75 64.75-50 76.5-32.25 85-11.5 85 11.5 76.5 32.25 64.75 50 50 64.75 32.25 76.5 11.5 85q0 16-1.75 32t-4.75 32h-66.5q4-16 6.5-32t2.5-32q0-53-20.25-99.5t-55-81.25-81.25-55-99.5-20.25-99.5 20.25-81.25 55-55 81.25-20.25 99.5q0 55 22.75 104.25t63.25 85.75zm886.5 146.5q1 4 1 6.5v48q0 2-1 6-4 1-6.5 1-20-.5-39.5-1t-39.5-.5h-160.5q-.5 30 .25 60.25t1.75 60.25q.5 12.5-4 25t-15 20q-7 5-19.75 7.75t-27.25 4-28.25 1.5-21.75.25q-3 0-9.5-.25t-9-2.75q-1.5-1.5-3.5-8t-3-9q-3.5-13-8.25-24.25t-11.75-22.75q17 2 34 2.75t34 .75q12 0 18.25-3.75t6.25-16.75v-95h-159.5q-20 0-40 .5l-40 1q-4 0-6-1.5-1-3-1-5.5v-48q0-1.5.25-3.75t1.25-3.25q3-1 5.5-1l40 1 40 .5h159.5q-1-13-1.25-26.25t-2.75-26.25q11 1 21.5 2t21.5 2q17.5-12.5 33.5-26.5t32-28.5h-154q-21 0-41.75.5t-41.75 1q-4 0-6-1.5-1-3-1-5.5v-47.5q0-2 1-6 4-1 6-1 21 .5 41.75 1t41.75.5h186.5q8 0 15-2.25t12.5-2.25q4 0 11.5 6t15 14 13.25 16.25 5.75 12.25q0 5-3.25 7.75t-7.25 4.75q-7 3.5-13.5 9t-12.5 10.5q-26 21.5-52.25 41.75t-54.75 38.75v5.5h160.5q20 0 39.5-.5t39.5-1q3.5 0 6.5 1.5zm-319.5-271q0-16-.25-33t-4.25-33q34.5 0 68.5 3 3 .5 6.25 1.5t3.25 5q0 2.5-1.5 6t-2.5 6q-1 3-1.75 8t-1 10.75-.25 11v14.75h148q21 0 41.75-.5t41.75-1q3.5 0 6.5 1.5 1.5 2.5 1.5 5-.5 8.5-1 17.75t-.5 17.75v29q0 18 .5 36.25t1 36.25q0 1.5-.25 3.5t-1.25 3q-4 1-6.5 1t-11.5.25-19 .25-18.25-.25-9.75-1.75q-1-5.5-1.25-17.75t0-26 .5-26.5.25-19.75h-401q0 2.5.25 10t.25 17.25v41l-.5 15.5-1.5 7.25q-4 1-6.5 1h-51q-5.5 0-6.5-1.5t-1-6.5q.5-34.5.75-68.5t-.75-68.5q0-2.5 1-5.5 4-1 6.5-1 21 .5 41.75 1t41.75.5h137.5z"/></svg>