<svg xmlns="http://www.w3.org/2000/svg" viewBox="0 0 2048 2048"><path d="M601 1152l298 896H765l-86-256H345l-86 256H125l298-896h178zm36 512l-125-374-125 374h250zm3-1408v384h256v128H512V256h128zm-383 893q-60-45-108-102T68 925 17.5 787.5 0 640q0-88 23-170t64.5-153 100-129.5T317 87.5 470 23 640 0t170 23 153 64.5 129.5 100 100 129.5 64.5 153 23 170q0 32-3.5 64t-9.5 64h-133q8-32 13-64t5-64q0-106-40.5-199t-110-162.5-162.5-110T640 128t-199 40.5-162.5 110-110 162.5T128 640q0 110 45.5 208.5T300 1020zm1773 293q2 8 2 13v96q0 4-2 12-8 2-13 2-40-1-79-2t-79-1h-321v33q0 52 1 104t3 104v4q0 24-9 48t-29 38q-14 10-39.5 15.5t-54.5 8-56.5 3-43.5.5q-6 0-19-.5t-18-5.5q-3-3-7-16t-6-18q-7-26-16.5-48.5T1220 1786q34 4 68 5.5t68 1.5q24 0 36.5-7.5t12.5-33.5v-190h-319q-40 0-80 1l-80 2q-8 0-12-3-2-6-2-11v-96q0-3 .5-7.5t2.5-6.5q6-2 11-2l80 2 80 1h319q-2-26-2.5-52.5t-5.5-52.5q20 2 39.5 3.5t39.5 3.5q2 0 3.5.5t3.5.5q35-25 67-53t64-57h-308q-42 0-83.5 1t-83.5 2q-8 0-12-3-2-6-2-11v-95q0-4 2-12 8-2 12-2 42 1 83.5 2t83.5 1h373q16 0 30-4.5t25-4.5q8 0 23 12t30 28 26.5 32.5 11.5 24.5q0 10-6.5 15.5t-14.5 9.5q-14 7-27 18t-25 21q-52 43-104.5 83.5T1538 1431v11h321q40 0 79-1t79-2q7 0 13 3zm-639-553q0-30-1-61t-8-60q69 0 137 6 6 1 12.5 3t6.5 10q0 5-3 12t-5 12q-2 6-3.5 16t-2 21.5-.5 22V900h296q42 0 83.5-1t83.5-2q7 0 13 3 3 5 3 10-1 17-2 35.5t-1 35.5v58q0 36 1 72.5t2 72.5q0 3-.5 7t-2.5 6q-8 2-13 2t-25 .5-41 .5q-19 0-34-1t-17-3q-2-8-2.5-24t-.5-36q0-33 1-68t1-52h-802v14.5l.5 25 .5 31v33.5q0 29-1 52.5t-3 25.5q-8 2-13 2H949q-11 0-13-3t-2-13q1-40 1-79V968l-1-58q0-5 2-11 8-2 13-2 42 1 83.5 2t83.5 1h275v-11z"/></svg>