<svg xmlns="http://www.w3.org/2000/svg" viewBox="0 0 2048 2048"><path d="M960 0q97 0 187 25t168.5 71T1458 206t110 142.5 71 168.5 25 187q0 145-55 269t-157 225q-83 82-127.5 183t-44.5 219v256q0 40-15 75t-41 61-61 41-75 15H832q-40 0-75-15t-61-41-41-61-15-75v-256q0-118-44.5-219T468 1198q-102-101-157-225t-55-269q0-97 25-187t71-168.5T462 206 604.5 96 773 25 960 0zm128 1920q26 0 45-19t19-45v-192H768v192q0 26 19 45t45 19h256zm67-384q13-129 66-234t143-196q83-84 127.5-183.5T1536 704t-45.5-224T1367 297t-183-123.5T960 128t-224 45.5T553 297 429.5 480 384 704t44.5 218.5T556 1106q90 91 143 196t66 234h390z"/></svg>