<svg width="1792" height="1792" viewBox="0 0 1792 1792" xmlns="http://www.w3.org/2000/svg"><path transform="scale(1.75 1.75) translate(0 0)" d="M960 0q13.5 0 25 5t20.25 13.75 13.75 20.25 5 25v576q0 13.5-5 25t-13.75 20.25-20.25 13.75-25 5h-128v32q0 59.5-22.75 112t-61.75 91.5-91.5 61.75-112 22.75-112-22.75-91.5-61.75-61.75-91.5-22.75-112v-32h-192q-13.5 0-25-5t-20.25-13.75-13.75-20.25-5-25v-576q0-13.5 5-25t13.75-20.25 20.25-13.75 25-5h896zm-192 622.5q0-7-4-12t-10.5-6.5l-177.5-44.5q0 9.5.25 21.25t-2 22-9.25 17.25-21 7q-13 0-22.5-9.5t-9.5-22.5v-243q0-13.5-9.25-22.75t-22.75-9.25q-13 0-22.5 9.5t-9.5 22.5v352q0 13-9.5 22.5t-22.5 9.5-22.5-9.5-9.5-22.5v-76.5q-13.5 1.5-25.25 7.5t-20.25 15.25-13.5 21.5-5 25.75v38.5q0 46.5 17.75 87.25t48 71 71 48 87.25 17.75 87.25-17.75 71-48 48-71 17.75-87.25v-113.5zm-192-143q30-22.5 47-56.25t17-71.25q0-33-12.75-62t-34.5-50.75-50.75-34.5-62-12.75-62.25 12.75-51 34.5-34.25 50.75-12.5 62q0 37.5 17 71.25t47 56.25v-127.5q0-19.5 7.75-37t20.75-30.5 30.5-20.75 37-7.75q20 0 37.5 7.5t30.5 20.5 20.5 30.5 7.5 37.5v127.5zm384-415.5h-896v576h205q16-34 46.75-54.25t68.25-22.25v-10.5q-29.5-13.5-53-34.5t-40.25-47.25-25.75-56.5-9-62.75q0-46.5 17.75-87.25t48-71 71-48 87.25-17.75 87.25 17.75 71 48 48 71 17.75 87.25q0 44.5-17 85t-48.5 72q33 8.5 65.25 16.25t65.25 16.25q14 3.5 25.5 11.25t19.75 18.5 13 23.75 4.75 27.5v17.5h128v-576z"/></svg>