<svg width="1792" height="1792" viewBox="0 0 1792 1792" xmlns="http://www.w3.org/2000/svg"><path transform="scale(1.75 1.75) translate(0 0)" d="M800 384q20 0 37.5 7.5t30.5 20.5 20.5 30.5 7.5 37.5v291q0 62.5-25.25 109.75t-67 79-95.25 48-110 16.25q-32 0-56.75-1.75t-47.25-7.25-45.25-16-50.25-28q-5.5-3.5-18-15t-30-28.25-38.25-37.25-42.25-42.5-42.75-43.5-39.25-40.25-31.5-33.25-20-21.5q-18.5-21-18.5-48.5 0-17 6.5-32.25t17.75-27 26.5-18.75 32.25-7q31 0 60.5 9.75t58 21.25v-180q-29-14-52.5-35.25t-40.25-47.5-25.75-56.75-9-63q0-46.5 17.75-87.25t48-71 71-48 87.25-17.75 87.25 17.75 71.25 48 48.25 71 17.75 87.25q0 31.5-8.75 61.75t-25.25 57.25l1 1q13-11.5 29.75-18t34.25-6.5q16 0 31 5.25t27.25 14.75 21.25 22.5 13 28.5q17-7 35.5-7zm-543-159.5q0 37.5 16.5 71.25t46.5 56.25q0-19-1.25-43t-.75-49 4.5-48.75 14.75-42.25 29.5-29.75 49.25-11.25q28 0 46.25 9.5t29 25 15.25 36 5.75 42.5.5 44-.75 40.5q16.5-5.5 33-5.5 15.5-21 23.5-45.25t8-50.25q0-33-12.75-62t-34.5-50.75-50.75-34.25-62-12.5-62 12.5-50.75 34.25-34.25 50.75-12.5 62zm575 255.5q0-13-9.5-22.5t-22.5-9.5q-12.5 0-20 7.5t-11 19.25-4 26.25 0 28.75 1.75 26.75 1.25 19.5h-64v-160q0-13-9.5-22.5t-22.5-9.5-22.5 9.5-9.5 22.5v160h-64v-160q0-2.5-.25-4.25t-.75-4.25q0-.5-.5-2t-1-1q-3.5-9-11.5-14.75t-18-5.75q-13 0-22.5 9.5t-9.5 22.5v160h-64v-352q0-13-9.5-22.5t-22.5-9.5-22.5 9.5-9.5 22.5v481.5q-14-6.5-37.75-17.5t-49.75-21.75-50.5-18.5-40-7.75q-23 0-23 23v2.5q31.5 33 63.5 64.5t64 63.5q26 26 46 48.5t38.25 41 37 33 42 24.25 53.5 14.75 71.25 5q42.5 0 84.5-11.5t75-34.75 53.5-58.75 20.5-84v-291z"/></svg>