<svg xmlns="http://www.w3.org/2000/svg" viewBox="0 0 2048 2048"><path d="M1600 896q40 0 75 15t61 41 41 61 15 75v384q0 119-45.5 224T1623 1879t-183 123.5-224 45.5q-144 0-268.5-55T722 1837l-472-472q-28-28-43-65t-15-76q0-42 16-78.5t43-63.5 63.5-42.5T392 1024q82 0 141 59l107 106V853q-59-28-106-70.5t-80.5-95T402 574t-18-126q0-93 35-174.5T515 131t142.5-96T832 0t174.5 35 142.5 96 96 142.5 35 174.5-37 178.5T1138 775q35 9 63.5 30.5T1250 857q45-25 94-25 50 0 93 23.5t69 65.5q45-25 94-25zM512 448q0 75 34 143t94 113V448q0-40 15-75t41-61 61-41 75-15 75 15 61 41 41 61 15 75v256q60-45 94-113t34-143q0-66-25.5-124t-69-101.5-101.5-69T832 128t-124.5 25.5-102 69T537 324t-25 124zm1152 640q0-26-19-45t-45-19q-34 0-47.5 19t-16 47.5-.5 61.5-.5 61.5-16 47.5-47.5 19q-37 0-50.5-23.5T1406 1197t2-77 2-77-15.5-59.5T1344 960q-34 0-47.5 19t-16 47.5-.5 61.5-.5 61.5-16 47.5-47.5 19q-37 0-50.5-23.5T1150 1133t2-77 2-77-15.5-59.5T1088 896q-34 0-47.5 19t-16 47.5-.5 61.5-.5 61.5-16 47.5-47.5 19q-26 0-45-19t-19-45V448q0-26-19-45t-45-19-45 19-19 45v787q0 23-8.5 42.5t-23 34.5-34.5 23.5-42 8.5-42.5-8-36.5-24l-139-139q-21-21-50-21t-50.5 21-21.5 51q0 29 21 50l472 473q84 84 184 128.5t219 44.5q93 0 174.5-35.5t142-96 96-142T1664 1472v-384z"/></svg>