<svg xmlns="http://www.w3.org/2000/svg" viewBox="0 0 2048 2048"><path d="M1920 0q27 0 50 10t40.5 27.5T2038 78t10 50v1152q0 27-10 50t-27.5 40.5-40.5 27.5-50 10h-256v64q0 119-45.5 224T1495 1879t-183 123.5-224 45.5-224-45.5T681 1879t-123.5-183-45.5-224v-64H128q-27 0-50-10t-40.5-27.5T10 1330t-10-50V128q0-27 10-50t27.5-40.5T78 10t50-10h1792zm-384 1245q0-14-8-24t-21-13l-355-89q0 19 .5 42.5t-4 44-18.5 34.5-42 14q-26 0-45-19t-19-45V704q0-27-18.5-45.5T960 640q-26 0-45 19t-19 45v704q0 26-19 45t-45 19-45-19-19-45v-153q-27 3-50.5 15t-40.5 30.5-27 43-10 51.5v77q0 93 35.5 174.5t96 142 142 96T1088 1920t174.5-35.5 142-96 96-142T1536 1472v-227zm-384-286q60-45 94-112.5t34-142.5q0-66-25.5-124t-69-101.5-101.5-69T960 384t-124.5 25.5-102 69T665 580t-25 124q0 75 34 142.5T768 959V704q0-39 15.5-74t41.5-61 61-41.5 74-15.5q40 0 75 15t61 41 41 61 15 75v255zm768-831H128v1152h410q32-68 93.5-108.5T768 1127v-21q-59-27-106-69t-80.5-94.5-51.5-113T512 704q0-93 35.5-174.5t96-142 142-96T960 256t174.5 35.5 142 96 96 142T1408 704q0 89-34 170t-97 144q66 17 130.5 32.5T1538 1083q28 7 51 22.5t39.5 37 26 47.5 9.5 55v35h256V128z"/></svg>