<svg xmlns="http://www.w3.org/2000/svg" viewBox="0 0 2048 2048"><path d="M1856 768q40 0 75 15t61 41 41 61 15 75v384q0 119-45.5 224T1879 1751t-183 123.5-224 45.5q-141 0-266.5-55.5T978 1708l-319-318-272 136-138-277L0 1499V165l896 896V320q0-40 15-75t41-61 61-41 75-15 75 15 61 41 41 61 15 75v331q27-10 59-10 49 0 95 23.5t72 64.5q44-25 94-25 51 0 93.5 24t68.5 65q44-25 94-25zM424 960h190L128 475v714l156-156 161 321 141-71zm1496 0q0-26-19-45t-45-19-45 19-19 45v128q0 26-19 45t-45 19-45-19-19-45V896q0-26-19-45t-45-19-45 19-19 45v128q0 26-19 45t-45 19-45-19-19-45V832q0-26-19-45t-45-19-45 19-19 45v128q0 26-19 45t-45 19-45-19-19-45V320q0-26-19-45t-45-19-45 19-19 45v787q0 33-18 60.5t-49 40.5q-19 8-42 8-44 0-78-32l-75-75q-21-21-50-21-30 0-51 21-11 11-16 24t-5 27q0 30 21 51l408 408q81 85 184.5 129t218.5 44q93 0 174.5-35.5t142-96 96-142T1920 1344V960z"/></svg>