<svg width="1792" height="1792" viewBox="0 0 1792 1792" xmlns="http://www.w3.org/2000/svg"><path transform="scale(1.75 1.75) translate(0 0)" d="M928 384q20 0 37.5 7.5t30.5 20.5 20.5 30.5 7.5 37.5v291q0 62-25.25 109.25t-67 79.25-95.25 48.25-110 16.25q-47 0-81.75-5.5t-61.75-16-48.5-26.25-43-36.5-44.75-46-53.25-55.25q-16-16-32.5-32t-32.5-32.5q-35 16-69.5 32l-69 32-57.5-124.5q-33 33-66.25 65.25t-66.25 65.25v-710.5l448 448v-357.5q0-20 7.5-37.5t20.5-30.5 30.5-20.5 37.5-7.5q28 0 46.25 9.5t29 25 15.25 36 5.75 42.5.5 44-.75 40.5q16.5-5.5 32-5.5 17.5 0 34.25 6.5t29.75 18q13-11.5 29.75-18t34.25-6.5q16 0 31 5.25t27.25 14.75 21.25 22.5 13 28.5q17-7 35.5-7zm-649 342.5l-69-150.5h142l-288-288v403l88.5-87 68.5 149zm681-246.5q0-13-9.5-22.5t-22.5-9.5q-12.5 0-19.5 7.25t-10.75 19-4.5 26.25 0 28.75 1.75 26.75 1 20h-64v-96q0-10 1.5-26.25t-.25-31.75-9-26.75-24.25-11.25q-13 0-22.5 9.5t-9.5 22.5v160h-64v-160q0-13-9.5-22.5t-22.5-9.5-20.25 7.5-10.75 19.25-4 26.25 0 28.75 1.75 26.75 1.25 19.5v64h-64v-352q0-13-9.5-22.5t-22.5-9.5-22.5 9.5-9.5 22.5v481.5q-13.5-6-37.25-17t-49.75-21.75-50.5-18.75-39.5-8q-8 0-14.75 2.5t-6.75 12.5q0 9.5 5.25 16.75t11.75 13.75q11 11 30.25 30.75t42 43.75 47 49.5 46.25 47.5 39.25 38.25 25.75 21.75q23.5 15 42.25 23.5t37.25 12.75 38.75 5.5 47.25 1.25q42.5 0 84.5-11.5t75-34.75 53.5-58.75 20.5-84v-291z"/></svg>