<svg width="1792" height="1792" viewBox="0 0 1792 1792" xmlns="http://www.w3.org/2000/svg"><path transform="scale(1.75 1.75) translate(0 0)" d="M896 128v896h-768v-896h256q0-26.5 10-49.75t27.5-40.75 40.75-27.5 49.75-10 49.75 10 40.75 27.5 27.5 40.75 10 49.75h256zm-576 128h384v-64h-128v-64q0-13.5-5-25t-13.75-20.25-20.25-13.75-25-5-25 5-20.25 13.75-13.75 20.25-5 25v64h-128v64zm512-64h-64v128h-512v-128h-64v768h640v-768zm-320 256h256v64h-256v-64zm0 192h256v64h-256v-64zm0 192h256v64h-256v-64zm-86.5-470.5l45 45-118.5 118.5-86.5-86.5 45-45 41.5 41.5zm0 192l45 45-118.5 118.5-86.5-86.5 45-45 41.5 41.5zm0 192l45 45-118.5 118.5-86.5-86.5 45-45 41.5 41.5z"/></svg>