<svg xmlns="http://www.w3.org/2000/svg" viewBox="0 0 2048 2048"><path d="M1792 256v1792H256V256h512q0-53 20-99.5T843 75t81.5-55T1024 0t99.5 20 81.5 55 55 81.5 20 99.5h512zM640 512h768V384h-256V256q0-27-10-50t-27.5-40.5T1074 138t-50-10-50 10-40.5 27.5T906 206t-10 50v128H640v128zm1024-128h-128v256H512V384H384v1536h1280V384zM512 896h512v128H512V896zm0 384h512v128H512v-128zm0 384h512v128H512v-128zm915-941l90 90-237 237-173-173 90-90 83 83zm0 384l90 90-237 237-173-173 90-90 83 83zm0 384l90 90-237 237-173-173 90-90 83 83z"/></svg>