<svg xmlns="http://www.w3.org/2000/svg" viewBox="0 0 2048 2048"><path d="M960 1280q40 0 75 15t61 41 41 61 15 75-15 75-41 61-61 41-75 15-75-15-61-41-41-61-15-75 15-75 41-61 61-41 75-15zm0 256q26 0 45-19t19-45-19-45-45-19-45 19-19 45 19 45 45 19zm0-768q40 0 75 15t61 41 41 61 15 75-15 75-41 61-61 41-75 15-75-15-61-41-41-61-15-75 15-75 41-61 61-41 75-15zm0 256q26 0 45-19t19-45-19-45-45-19-45 19-19 45 19 45 45 19zm0-768q40 0 75 15t61 41 41 61 15 75-15 75-41 61-61 41-75 15-75-15-61-41-41-61-15-75 15-75 41-61 61-41 75-15zm0 256q26 0 45-19t19-45-19-45-45-19-45 19-19 45 19 45 45 19zm704 256q0 62-18 118.5T1594.5 990t-81 83-105.5 57v150h256q0 62-18 118.5t-51.5 103.5-81 83-105.5 57v278h-256v128h-128v-128H896v128H768v-128H512v-278q-58-21-105.5-57t-81-83-51.5-103.5-18-118.5h256v-150q-58-21-105.5-57t-81-83T274 886.5 256 768h256V618q-58-21-105.5-57t-81-83T274 374.5 256 256h256V0h896v256h256q0 62-18 118.5T1594.5 478t-81 83-105.5 57v150h256zm-256 128v94q59-35 94-94h-94zm0-512v94q59-35 94-94h-94zm-990 0q35 59 94 94v-94h-94zm0 512q35 59 94 94v-94h-94zm0 512q35 59 94 94v-94h-94zm990 0v94q59-35 94-94h-94zM1280 128H640v1664h640V128z"/></svg>