<svg xmlns="http://www.w3.org/2000/svg" viewBox="0 0 2048 2048"><path d="M1654 256q41 0 79.5 12.5t70 35.5 55.5 55.5 37 71.5q2 8 14.5 45.5t29.5 89 36 109.5 35 107 26.5 81.5L2048 896v384q0 27-10 50t-27.5 40.5-40.5 27.5-50 10h-128q-27 0-50-10t-40.5-27.5-27.5-40.5-10-50h-138q0 1 2 6t3.5 10.5 3 10.5l1.5 5v480q0 27-10 50t-27.5 40.5-40.5 27.5-50 10h-128q-27 0-50-10t-40.5-27.5-27.5-40.5-10-50H384q0 27-10 50t-27.5 40.5T306 1910t-50 10H128q-27 0-50-10t-40.5-27.5T10 1842t-10-50v-500l11-33.5 28.5-84 37.5-110L115 952l31-91 16-46q13-39 37.5-71.5t56-55.5 69.5-35.5 80-12.5h317l70-209q13-39 37-71.5t55.5-55.5 69.5-35.5 80-12.5h620zm74 768q26 0 45-19t19-45-19-45-45-19-45 19-19 45 19 45 45 19zm-432 320q0-33-23.5-56.5T1216 1264t-56.5 23.5-23.5 56.5 23.5 56.5 56.5 23.5 56.5-23.5 23.5-56.5zm-896 0q0-33-23.5-56.5T320 1264t-56.5 23.5T240 1344t23.5 56.5T320 1424t56.5-23.5T400 1344zm-24 320h784l-128-256H504zm1108-512h116l-64-128h-94zm-450-768q-42 0-74.5 24T913 472l-56 168h974l-56-168q-14-40-46.5-64t-74.5-24h-620zM405 768q-42 0-75 24t-46 63l-56 169h1080l-56-169q-13-39-46-63t-75-24H405z"/></svg>