<svg width="1792" height="1792" viewBox="0 0 1792 1792" xmlns="http://www.w3.org/2000/svg"><path transform="scale(1.75 1.75) translate(0 0)" d="M288 768q-13 0-22.5-9.5t-9.5-22.5 9.5-22.5 22.5-9.5 22.5 9.5 9.5 22.5-9.5 22.5-22.5 9.5zm448 0q-13 0-22.5-9.5t-9.5-22.5 9.5-22.5 22.5-9.5 22.5 9.5 9.5 22.5-9.5 22.5-22.5 9.5zm-96-576h-256v-64h256v64zm82.5 704h-421l-128 128h-91l129-129q-17.5-2-32.75-10.5t-26.5-21.25-17.75-29-6.5-34.25v-704q0-20 7.5-37.5t20.5-30.5 30.5-20.5 37.5-7.5h576q20 0 37.5 7.5t30.5 20.5 20.5 30.5 7.5 37.5v704q0 18-6.5 34.25t-17.75 29-26.5 21.25-32.75 10.5l129 129h-91zm109.5-576h-640v256h640v-256zm-608-256q-13 0-22.5 9.5t-9.5 22.5v160h640v-160q0-13-9.5-22.5t-22.5-9.5h-576zm-32 736q0 13 9.5 22.5t22.5 9.5h576q13 0 22.5-9.5t9.5-22.5v-160h-640v160z"/></svg>