<svg width="1792" height="1792" viewBox="0 0 1792 1792" xmlns="http://www.w3.org/2000/svg"><path transform="scale(1.75 1.75) translate(0 0)" d="M941 1024h-90.5l-128-128h-421.5l-128 128h-90.5l129.5-129q-18-2-33.5-10.5t-26.75-21.25-17.5-29-6.25-34.25v-704q0-20 7.5-37.5t20.5-30.5 30.5-20.5 37.5-7.5h576q20 0 37.5 7.5t30.5 20.5 20.5 30.5 7.5 37.5v704q0 18-6.5 34.25t-17.75 29-26.5 21.25-33.25 10.5zm-557-832h256v-64h-256v64zm448 384v-256h-640v256h640zm-544 192q13 0 22.5-9.5t9.5-22.5-9.5-22.5-22.5-9.5-22.5 9.5-9.5 22.5 9.5 22.5 22.5 9.5zm448 0q13 0 22.5-9.5t9.5-22.5-9.5-22.5-22.5-9.5-22.5 9.5-9.5 22.5 9.5 22.5 22.5 9.5z"/></svg>