<svg width="1792" height="1792" viewBox="0 0 1792 1792" xmlns="http://www.w3.org/2000/svg"><path transform="scale(1.75 1.75) translate(0 0)" d="M768 0q13 0 24.75 5t20.5 13.75 13.75 20.5 5 24.75v464q0 15.5 4.75 27t11.75 21.75 15.5 20.5 15.5 22.75 11.75 29 4.75 39v144q0 13-5 24.75t-13.75 20.5-20.5 13.75-24.75 5h-448v64q0 19.5-10.75 35.5t-28.75 23.5q-11.5 5-24.5 5-26.5 0-45.5-19l-146.5-146.5v-858.5h640zm-448 784q0-22.5 4.75-38.75t11.75-29 15.5-22.75 15.5-20.25 11.75-22 4.75-27.25v-322.5l-192-192v722.5l128 128v-176zm512-96q0-15.5-4.75-27t-11.75-21.75-15.5-20.5-15.5-22.75-11.75-29-4.75-39v-464h-530.5l192 192q9 9 13.75 20.75t4.75 24.75v322.5q0 22.5-4.75 38.75t-11.75 29-15.5 22.75-15.5 20.25-11.75 22-4.75 27.25v48h448v-144z"/></svg>