<svg width="1792" height="1792" viewBox="0 0 1792 1792" xmlns="http://www.w3.org/2000/svg"><path transform="scale(1.75 1.75) translate(0 0)" d="M768 0q13 0 24.75 5t20.5 13.75 13.75 20.5 5 24.75v465q0 15 4.75 26.25t11.75 21.5 15.5 20.5 15.5 23 11.75 29.25 4.75 38.5v144q0 13-5 24.75t-13.75 20.5-20.5 13.75-24.75 5h-704v-896h640zm-576 832h512v-144q0-22 4.75-38.5t11.75-29.25 15.5-23 15.5-20.5 11.75-21.5 4.75-26.25v-465h-576v768zm640-144q0-12-2.25-21t-6.5-16.5-10.25-14.75-13-15.75q-7 8.5-13 15.75t-10.25 14.75-6.5 16.5-2.25 21v144h64v-144z"/></svg>