<svg xmlns="http://www.w3.org/2000/svg" viewBox="0 0 2048 2048"><path d="M1664 0q48 0 97.5 8.5t93.5 29 78 54.5 49 85q14 48 20.5 100.5T2015 380q33 257 33 516 0 184-40.5 340.5T1891 1521t-184 226.5-243 165-294.5 101T832 2048H384q-39 0-83.5-13.5t-83-38-64-60T128 1856q0-18 5-38.5t13-41.5 17.5-41.5T182 1696l7-14q46-98 82.5-191.5t61.5-189 38-195T384 896q0-62-5-119t-15-112-25-110-34-113q-19-57-34.5-113.5T255 211v-11.5l1-11.5q5-44 30.5-79t62-59T428 13t84-13h1152zM832 1920q160 0 302.5-30t263.5-88.5 217.5-145.5 164.5-201 104-254 36-305q0-146-10.5-291.5T1877 314q-4-26-7.5-54.5T1858 207t-31.5-39.5T1774 143t-59-12-51-3H512q-14 0-34.5 5t-40 14-34.5 21.5-19 27.5q-1 2-1 8.5v8.5q0 45 12 88t26 85l5 16q21 63 37 123t27 120.5T506.5 768t5.5 128q0 118-13.5 225t-40 209-65 202-88.5 205q-4 8-12 24.5t-16.5 35T262 1832t-6 24q0 12 16 23.5t37.5 20.5 42.5 14.5 32 5.5h448zm64-768h256v128H768V640h128v512zm256-512h512v128h-192v512h-128V768h-192V640z"/></svg>