<svg width="1792" height="1792" viewBox="0 0 1792 1792" xmlns="http://www.w3.org/2000/svg"><path transform="scale(1.75 1.75) translate(0 0)" d="M1024 128v640h-658.5l-237.5 237.5v-237.5h-128v-640h1024zm-64 64h-896v512h128v146.5l146.5-146.5h621.5v-512zm-704 320q-13.5 0-25-5t-20.25-13.75-13.75-20.25-5-25 5-25 13.75-20.25 20.25-13.75 25-5 25 5 20.25 13.75 13.75 20.25 5 25-5 25-13.75 20.25-20.25 13.75-25 5zm256 0q-13.5 0-25-5t-20.25-13.75-13.75-20.25-5-25 5-25 13.75-20.25 20.25-13.75 25-5 25 5 20.25 13.75 13.75 20.25 5 25-5 25-13.75 20.25-20.25 13.75-25 5zm256 0q-13.5 0-25-5t-20.25-13.75-13.75-20.25-5-25 5-25 13.75-20.25 20.25-13.75 25-5 25 5 20.25 13.75 13.75 20.25 5 25-5 25-13.75 20.25-20.25 13.75-25 5z"/></svg>