<svg width="1792" height="1792" viewBox="0 0 1792 1792" xmlns="http://www.w3.org/2000/svg"><path transform="scale(1.75 1.75) translate(0 0)" d="M689 871.5h-356.5v-65.5h356.5v65.5zm-326.5-192.5v-69.5q12.5 10.5 29 19 18 9 35.5 14 9.5 3.5 19.25 5.5t18.75 3.5q9.5 2 18.25 2.75t16.75.75q56 0 83-20.5 27.5-20 27.5-58.5 0-21.5-9-35.5-9.5-15.5-25.5-27.5-8-6.5-17-12.5t-21-12q-23.5-12-39.25-20t-27-14-18.25-10-13-7q-11.5-7-21.5-14.75t-19-16.25q-17-16.5-27-37-5-10.5-7.25-22.75t-2.25-26.75q0-35 15-60 8-12.5 18-23t22.5-18.5q25-17 57-25 16-4 32.25-6.25t32.75-2.25q76.5 0 111 18v67q-46-31-117-31-9.5 0-19.5 1t-19.5 3q-19 4-35.5 13-15 9-24.5 23.5-9.5 14-9.5 35 0 9.5 1.5 18.25t5.5 15.75q7 14 21.5 25.5 7.5 5.5 16 11.25t19 11.75q10.5 5 22.25 11t25.25 12.5q13.5 7 26.5 14t25.5 14.5q12 7 23.25 15.5t20.25 17q9.5 9.5 16.75 19.5t12.75 21q11 22 11 50 0 37.5-15 63.5t-40 42q-26 16-58 23.5-33 7.5-69.5 7.5-15 0-33-2.5t-33.5-5.5q-20-3.5-35.5-9-17.5-5.5-26.5-12.5z"/></svg>