<svg width="1792" height="1792" viewBox="0 0 1792 1792" xmlns="http://www.w3.org/2000/svg"><path transform="scale(1.75 1.75) translate(0 0)" d="M642.5 656q-12 13-27.25 22.5t-32.75 16.25-36.25 10-38.25 3.25q-31.5 0-61.5-9.25t-52.5-27.75q-21-16.5-32.75-38.25t-18-45.75-8-49-1.75-50v-270h65v285.5q0 15.5 1.5 33t6.25 34.5 13 31.5 21.75 24q13 9.5 32 13.75t40 4.25q23.5 0 44.5-5.25t34-17.25q12-10.5 19-23.5t10.5-28.25 4.5-31 1-31.75v-289.5h65v228q0 37-.75 66.75t-5.25 54.5-14.5 46.5-28.5 42.25zm49 215h-358.5v-65h358.5v65z"/></svg>