<svg xmlns="http://www.w3.org/2000/svg" viewBox="0 0 2048 2048"><path d="M1378 1743H665v-131h713v131zm-653-385v-139q25 21 58 38 36 18 71 28 19 7 38.5 11t37.5 7q19 4 36.5 5.5t33.5 1.5q112 0 166-41 55-40 55-117 0-43-18-71-19-31-51-55-16-13-34-25t-42-24q-47-24-78.5-40t-54-28-36.5-20-26-14q-23-14-43-29.5T800 813q-34-33-54-74-10-21-14.5-45.5T727 640q0-70 30-120 16-25 36-46t45-37q50-34 114-50 32-8 64.5-12.5t65.5-4.5q153 0 222 36v134q-92-62-234-62-19 0-39 2t-39 6q-38 8-71 26-30 18-49 47-19 28-19 70 0 19 3 36.5t11 31.5q14 28 43 51 15 11 32 22.5t38 23.5q21 10 44.5 22t50.5 25q27 14 53 28t51 29q24 14 46.5 31t40.5 34q19 19 33.5 39t25.5 42q22 44 22 100 0 75-30 127t-80 84q-52 32-116 47-66 15-139 15-30 0-66-5t-67-11q-40-7-71-18-35-11-53-25z"/></svg>