<svg width="1792" height="1792" viewBox="0 0 1792 1792" xmlns="http://www.w3.org/2000/svg"><path transform="scale(1.75 1.75) translate(0 0)" d="M544 2q48 0 92.5 12.5t83.5 35.5 71 55 55 71 35.5 83.5 12.5 92.5q0 68.5-26.25 132.25t-74.75 112.25l-418.5 418-45-45 418-418.5q39.5-39.5 61-91.25t21.5-107.75q0-58.5-22.75-110.5t-61.75-91-91-61.75-110.5-22.75q-54 0-95.25 16.25t-76.25 43-67.25 60.75-67.75 70h210.5v64h-320v-320h64v210.5q27.5-28 52.75-54.25t50.5-49.5 51.5-42.5 56-33 64.5-21.5 76.75-7.75z"/></svg>