<svg width="1792" height="1792" viewBox="0 0 1792 1792" xmlns="http://www.w3.org/2000/svg"><path transform="scale(1.75 1.75) translate(0 0)" d="M804.5 496q-62.5 0-117.25 22t-96 61.25-66.25 93-28 117.25l-305 234.5 124-397-316-243h392l120-384 120 384h392l-156.5 120q-15.5-3.5-31.25-5.75t-31.75-2.25zm-4.5 80q46.5 0 87.25 17.75t71 48 48 71 17.75 87.25-17.75 87.25-48 71-71 48-87.25 17.75-87.25-17.75-71-48-48-71-17.75-87.25 17.75-87.25 48-71 71-48 87.25-17.75zm-160 224q0 33 12.75 62t34.5 50.75 50.75 34.5 62 12.75q23.5 0 46-6.75t42-19.75l-221.5-221.5q-13 19.5-19.75 42t-6.75 46zm293.5 88q13-19.5 19.75-42t6.75-46q0-33-12.75-62t-34.5-50.75-50.75-34.5-62-12.75q-23.5 0-46 6.75t-42 19.75z"/></svg>