<svg xmlns="http://www.w3.org/2000/svg" viewBox="0 0 2048 2048"><path d="M1472 832q60 0 108 15t98 47q85 54 177.5 78t192.5 24v273q0 88-23 169t-63 154.5-95 138.5-119 122.5-134.5 106T1472 2048q-72-40-142-88.5t-134-106-119-122.5-95-138.5-63-154.5-23-169V996q100 0 192.5-24t177.5-78q50-32 98-47t108-15zm448 283q-83-12-163.5-40t-150.5-75q-61-40-134-40t-134 40q-70 47-150.5 75t-163.5 40v154q0 104 39 196.5t102.5 172 144 145.5 162.5 117q82-51 162.5-117t144-145.5 102.5-172 39-196.5v-154zm128-987v676q-32 0-64-4t-64-11V640H128v1024h674q17 33 37 65t42 63H0V128h2048zm-128 128H128v256h1792V256z"/></svg>