<svg xmlns="http://www.w3.org/2000/svg" viewBox="0 0 2048 2048"><path d="M0 1280v-128h128v128H0zm0-256V896h128v128H0zm0 768v-128h128v128H0zM0 768V640h128v128H0zm0 768v-128h128v128H0zM512 0v128H384V0h128zM256 0v128H128V0h128zm0 1792v-128h128v128H256zM0 128h128v128H0V128zm0 384V384h128v128H0zM768 0v128H640V0h128zm256 0v128H896V0h128zM512 1792v-128h128v128H512zm256 0v-128h128v128H768zm0-1536v128H256V256h512zm0 896v128H256v-128h512zm-512 384v-128h512v128H256zm640-128v-128h128v128H896zm0-256v-128h128v128H896zm128 768H896v-128h128v128zM896 896V768h128v128H896zm0 768v-128h128v128H896zm512-1536v128h-128V128h128zm-256 0v128h-128V128h128zm0 1792v-128h128v128h-128zM896 256h128v128H896V256zm0 384V512h128v128H896zm896 128V640h128v128h-128zm0 256V896h128v128h-128zm-128-896v128h-128V128h128zm128 0h128v128h-128V128zm0 256h128v128h-128V384zm0 896v-128h128v128h-128zm0 256v-128h128v128h-128zm-384 384v-128h128v128h-128zm256 0v-128h128v128h-128zm128-128v-128h128v128h-128zM1664 384v128h-512V384h512zm0 896v128h-512v-128h512zm-512 384v-128h512v128h-512z"/></svg>