<svg xmlns="http://www.w3.org/2000/svg" viewBox="0 0 2048 2048"><path d="M1530 1307q39 0 76 15t65 43q21 21 47.5 44.5t54.5 49 54 53.5 47 57.5 33.5 61.5 12.5 66q0 39-15 76t-43 65q-51 51-92 90t-85.5 66-98.5 40.5-129 13.5q-109 0-224-34t-229-94-223-143-206.5-181T395 1389t-141-222.5-92.5-227T128 720q0-76 13.5-130t40-98 65.5-85.5 91-92.5q28-28 65-43t76-15q50 0 96.5 27t88.5 66 79 82 68 74q28 28 43 65t15 76-13 69.5-32.5 56-42 46-42 39.5-32.5 37.5-13 38.5q0 12 18.5 38.5t49.5 62 71.5 77 84 85 87 85.5 81 77.5 66 62.5 41.5 40q21 21 50 21 21 0 39.5-13t37-32.5 39-42 45.5-42 55.5-32.5 70.5-13zm-73 613q61 0 102.5-11.5t74.5-33.5 64.5-54 72.5-73q21-21 21-50 0-13-16-37.5t-40.5-54-55-59.5-59.5-55-53.5-41-37.5-16q-21 0-40 13t-37.5 32.5-39 42-45.5 42-55.5 32.5-69.5 13q-40 0-76.5-15.5T1102 1551l-477-477q-28-28-43.5-64.5T566 933q0-39 13-69.5t32.5-55.5 42-45.5 42-39.5 32.5-37.5 13-39.5q0-13-16-37t-40.5-53.5-55-60-60-55T516 400t-37-16q-30 0-51 21-41 41-73 72t-54 64.5-33.5 74.5T256 717q0 96 31 199t86.5 205.5T505 1323t165 188 188.5 164 201.5 129.5 203 85 194 30.5zm335-896h-640V896h640v128zm-512-512h-128V384h128v128zm256 0h-128V384h128v128zm256 0h-128V384h128v128zm-512 256h-128V640h128v128zm256 0h-128V640h128v128zm256 0h-128V640h128v128z"/></svg>