<svg xmlns="http://www.w3.org/2000/svg" viewBox="0 0 2048 2048"><path d="M1920 1664h-128v384H128v-384H0V640h128V0h1243l421 421v219h128v1024zM1408 384h165l-165-165v165zM256 640h1408V512h-384V128H256v512zm1408 1024H256v256h1408v-256zm128-896H128v768h1664V768zM448 896q40 0 75 15t61 41 41 61 15 75-15 75-41 61-61 41-75 15h-64v128H256V896h192zm0 256q26 0 45-19t19-45-19-45-45-19h-64v128h64zm448-256q53 0 99.5 20t81.5 55 55 81.5 20 99.5-20 99.5-55 81.5-81.5 55-99.5 20H768V896h128zm0 384q27 0 50-10t40.5-27.5 27.5-40.5 10-50-10-50-27.5-40.5T946 1034t-50-10v256zm384-384h320v128h-192v128h192v128h-192v128h-128V896z"/></svg>