<svg xmlns="http://www.w3.org/2000/svg" viewBox="0 0 2048 2048"><path d="M1152 1920q0-106 27.5-204.5T1257 1532t120-155 155-120 183.5-77.5T1920 1152v128q-88 0-170 23t-153 64.5-129.5 100-100 129.5-64.5 153-23 170h-128zm576-384q40 0 75 15t61 41 41 61 15 75-15 75-41 61-61 41-75 15-75-15-61-41-41-61-15-75 15-75 41-61 61-41 75-15zm-1008 54q31 0 52 21l103 103q21 21 21 52 0 14-5 27.5t-16 23.5l-12 12q-22 22-40 39t-38 28.5-45 17.5-59 6q-72 0-150.5-30.5t-154.5-82T232 1688t-119.5-144-82-154.5T0 1239q0-34 6-59t17.5-45 28.5-38 39-40l12-12q10-11 23.5-16t27.5-5q31 0 52 21l103 103q21 21 21 52 0 26-14.5 43.5T283 1277t-32.5 34-14.5 43q0 31 21 52l257 257q21 21 52 21 25 0 43-14.5t34-32.5 33.5-32.5T720 1590z"/></svg>