<svg xmlns="http://www.w3.org/2000/svg" viewBox="0 0 2048 2048"><path d="M1843 410q21 0 40 8t33 21.5 22 32.5 8 40v922q0 21-8 39.5t-22.5 32.5-33 22-39.5 8H205q-21 0-39.5-8t-33-22-22.5-32.5-8-39.5V512q0-21 8-40t22-32.5 33-21.5 40-8h1638zm0 102H205v922h1638V512zM410 717H307V614h103v103zm204 0H512V614h102v103zm205 0H717V614h102v103zm205 0H922V614h102v103zM410 922H307V819h103v103zm204 0H512V819h102v103zm205 0H717V819h102v103zm205 0H922V819h102v103zm-614 204H307v-102h103v102zm204 0H512v-102h102v102zm205 0H717v-102h102v102zm205 0H922v-102h102v102zm-614 205H307v-102h103v102zm409 0H512v-102h307v102zm205 0H922v-102h102v102z"/></svg>