<svg xmlns="http://www.w3.org/2000/svg" viewBox="0 0 2048 2048"><path d="M1152 1920q0-106 27.5-204.5T1257 1532t120-155 155-120 183.5-77.5T1920 1152v128q-88 0-170 23t-153 64.5-129.5 100-100 129.5-64.5 153-23 170h-128zm576-384q40 0 75 15t61 41 41 61 15 75-15 75-41 61-61 41-75 15-75-15-61-41-41-61-15-75 15-75 41-61 61-41 75-15zm-857-89q70-155 179-280.5t245.5-214T1591 816t329-48v128q-158 0-304.5 46.5t-271 131.5-221.5 204.5T968 1544zm-387-67q56-149 140-281t190.5-243T1047 657.5 1313.5 509t293.5-93 313-32v128q-152 0-296.5 31.5t-277.5 91-250.5 145-215.5 193-173.5 235T583 1479z"/></svg>