<svg xmlns="http://www.w3.org/2000/svg" viewBox="0 0 2048 2048"><path d="M1938 1570q7 31 7 69 0 37-7 68l104 43-39 95-104-43q-38 59-97 97l43 104-95 39-43-104q-37 8-69 8-33 0-68-8l-43 104-95-39 43-104q-59-38-97-97l-104 43-39-95 104-43q-8-35-8-68 0-34 8-69l-104-43 39-95 104 43q38-59 97-97l-43-104 95-39 43 104q31-7 68-7 38 0 69 7l43-104 95 39-43 104q59 38 97 97l104-43 39 95zm-300 274q42 0 79.5-16.5t65.5-44 44.5-65 16.5-79.5q0-43-16.5-80t-44.5-65-65.5-44-79.5-16-79.5 16-65.5 44-44 65.5-16 79.5 16.5 79.5 44 65 65 44 79.5 16.5zM102 1434h1052q-10 25-18.5 50.5T1122 1536H102q-21 0-39.5-8T30 1506t-22-32.5-8-39.5V512q0-21 8-39.5T30 440t32.5-22 39.5-8h1741q21 0 39.5 8t33 22 22.5 32.5 8 39.5v700q-50-36-103-58V512H102v922zm1639-717h-103V614h103v103zm-205 0h-102V614h102v103zm-205 0h-102V614h102v103zm410 205h-103V819h103v103zm-307-103h102v103h-102V819zm-103 103h-102V819h102v103zm103 102h307v102h-307v-102zm-205 0h102v102h-102v-102zM717 717H614V614h103v103zm-205 0H410V614h102v103zm-205 0H205V614h102v103zm410 205H614V819h103v103zm-205 0H410V819h102v103zM205 819h102v103H205V819zm409 205h103v102H614v-102zm308-307H819V614h103v103zm0 205H819V819h103v103zm-103 102h103v102H819v-102zm307-307h-102V614h102v103zm0 205h-102V819h102v103zm-102 102h102v102h-102v-102zm-512 102H205v-102h307v102zm-307 103h307v102H205v-102zm1104 0q-54 44-97 102H614v-102h695z"/></svg>