<svg xmlns="http://www.w3.org/2000/svg" viewBox="0 0 2048 2048"><path d="M601 1152l295 886v10H765l-86-256H345l-86 256H128v-10l295-886h178zm36 512l-125-374-125 374h250zM893 512q3 65 3 128 0 32-.5 64t-1.5 64H768v128H523q5 32 10.5 64t13.5 64H418q-8-32-12.5-64t-8.5-64H188q20 36 46.5 68t56.5 60h-35l-45 90q-101-91-156-214.5T0 640q0-88 23-170t64.5-153 100-129.5T317 87.5 470 23 640 0t170 23 153 64.5 129.5 100 100 129.5 64.5 153 23 170q0 32-3.5 64t-9.5 64h-124q17-65 17-128t-17-128H893zM640 120q-19 0-34.5 16t-28 41.5-21.5 56-15.5 60-10.5 54-6 36.5h231q-2-11-6-35.5T738.5 295t-16-60-22-56.5-27.5-42-33-16.5zM387 768q-3-64-3-128 0-63 3-128H137q-17 65-17 128t17 128h250zm11-384q6-58 18-116t34-112q-83 33-150.5 91.5T188 384h210zm369 384q3-64 3-128 0-63-3-128H513q-3 65-3 128 0 64 3 128h254zm58-613q23 54 36 112t20 117h211q-45-78-113.5-137.5T825 155zm566 734q0-30-1-61t-8-60q69 0 137 6 6 1 12.5 3t6.5 10q0 5-3 12t-5 12q-2 6-3.5 16t-2 21.5-.5 22V900h296q42 0 83.5-1t83.5-2q7 0 13 3 3 5 3 10-1 17-2 35.5t-1 35.5v58q0 36 1 72.5t2 72.5q0 3-.5 7t-2.5 6q-8 2-13 2t-25 .5-41 .5q-19 0-34-1t-17-3q-2-8-2.5-24t-.5-36q0-33 1-68t1-52h-802v14.5l.5 25 .5 31v33.5q0 29-1 52.5t-3 25.5q-8 2-13 2H949q-11 0-13-3t-2-13q1-40 1-79V968l-1-58q0-5 2-11 8-2 13-2 42 1 83.5 2t83.5 1h275v-11zm639 553q2 8 2 13v96q0 4-2 12-8 2-13 2-40-1-79-2t-79-1h-321v33q0 52 1 104t3 104v4q0 24-9 48t-29 38q-14 10-39.5 15.5t-54.5 8-56.5 3-43.5.5q-6 0-19-.5t-18-5.5q-3-3-7-16t-6-18q-7-26-16.5-48.5T1220 1786q34 4 68 5.5t68 1.5q24 0 36.5-7.5t12.5-33.5v-190h-319q-40 0-80 1l-80 2q-8 0-12-3-2-6-2-11v-96q0-3 .5-7.5t2.5-6.5q6-2 11-2l80 2 80 1h319q-2-26-2.5-52.5t-5.5-52.5q20 2 39.5 3.5t39.5 3.5q2 0 3.5.5t3.5.5q35-25 67-53t64-57h-308q-42 0-83.5 1t-83.5 2q-8 0-12-3-2-6-2-11v-95q0-4 2-12 8-2 12-2 42 1 83.5 2t83.5 1h373q16 0 30-4.5t25-4.5q8 0 23 12t30 28 26.5 32.5 11.5 24.5q0 10-6.5 15.5t-14.5 9.5q-14 7-27 18t-25 21q-52 43-104.5 83.5T1538 1431v11h321q40 0 79-1t79-2q7 0 13 3z"/></svg>