<svg xmlns="http://www.w3.org/2000/svg" viewBox="0 0 2048 2048"><path d="M1843 410q21 0 40 8t33 21.5 22 32.5 8 40v922q0 21-8 39.5t-22.5 32.5-33 22-39.5 8H205q-21 0-39.5-8t-33-22-22.5-32.5-8-39.5V512q0-21 8-40t22-32.5 33-21.5 40-8h1638zm0 102H205v922h1638V512zm-409 717h307v102h-307v-102zm-820 102H307v-102h307v102zm103-102h614v102H717v-102zM512 717H307V614h205v103zm307 0H614V614h205v103zm307 0H922V614h204v103zm308 0h-205V614h205v103zm307 0h-205V614h205v103zM512 922H307V819h205v103zm307 0H614V819h205v103zm307 0H922V819h204v103zm308 0h-205V819h205v103zm307 0h-205V819h205v103zM512 1126H307v-102h205v102zm307 0H614v-102h205v102zm307 0H922v-102h204v102zm308 0h-205v-102h205v102zm307 0h-205v-102h205v102z"/></svg>