<svg xmlns="http://www.w3.org/2000/svg" viewBox="0 0 2048 2048"><path d="M1152 1408H679q20 96 55 192t90 177q-21 18-40.5 40.5t-34.5 47-24 52-9 55.5q0 15 3 30-160-50-292-146.5T200 1630 52.5 1346.5 0 1024q0-141 36.5-272T140 507.5t160.5-207 207-160.5T752 36.5 1024 0q175 0 335 56.5T1650 215t225.5 243T2014 768H657q-9 64-13 127.5t-4 128.5 4 128.5 13 127.5h495v128zm-624-128q-8-64-12-127.5t-4-128.5 4-128.5T528 768H165q-37 123-37 256t37 256h363zm1304-640q-39-81-92.5-152T1620 357.5t-142.5-105T1316 178q36 49 65 105t51.5 115.5 39 121T1500 640h332zm-808-512q-49 0-91.5 27.5t-78 72.5T790 329t-51 113-37 109-23 89h689q-8-36-23-88.5T1308 442t-51-113-64.5-100.5T1115 156t-91-28zm-292 50q-85 29-162 74.5T427 357 307.5 487.5 215 640h333q12-59 28.5-120.5t39-121T667 283t65-105zm0 1692q-36-49-65-105t-51.5-115.5-39-121T548 1408H215q39 81 92.5 152.5T427 1691t143 104.5 162 74.5zm932-974q79 0 149 30t122.5 82.5T2018 1131t30 149q0 80-30 149.5t-82.5 122T1813 1634t-149 30q-60 0-117-18t-105-53l-437 436q-19 19-45 19t-45-19-19-45 19-45l436-437q-35-48-53-105t-18-117q0-79 30-149t82.5-122.5 122-82.5 149.5-30zm0 640q53 0 99.5-20t81.5-55 55-81.5 20-99.5-20-99.5-55-81.5-81.5-55-99.5-20-99.5 20-81.5 55-55 81.5-20 99.5 20 99.5 55 81.5 81.5 55 99.5 20z"/></svg>