<svg xmlns="http://www.w3.org/2000/svg" viewBox="0 0 2048 2048"><path d="M960 4q132 0 254 34t228.5 96.5T1636 284t149.5 193.5T1882 706t34 254-34 254-96.5 228.5T1636 1636t-193.5 149.5T1214 1882t-254 34-254-34-228.5-96.5T284 1636t-149.5-193.5T38 1214 4 960t34-254 96.5-228.5T284 284t193.5-149.5T706 38 960 4zm0 1792q115 0 222-30t200-84.5 169-130.5 130.5-169 84.5-200 30-222-30-222-84.5-200T1551 369t-169-130.5-200-84.5-222-30-222 30-200 84.5T369 369 238.5 538 154 738t-30 222 30 222 84.5 200T369 1551t169 130.5 200 84.5 222 30zm-64-388h128v128H896v-128zm64-960q66 0 124 25.5t101.5 69 69 101.5 25.5 124h-128q0-40-15-75t-41-61-61-41-75-15-75 15-61 41-41 61-15 75q0 42 19 75.5t47.5 63 61.5 59 61.5 65.5 47.5 80.5 19 104.5v64H896v-64q0-42-19-75.5t-47.5-63-61.5-59-61.5-65.5-47.5-80.5T640 768q0-66 25-124t68.5-101.5 102-69T960 448z"/></svg>