<svg xmlns="http://www.w3.org/2000/svg" viewBox="0 0 2048 2048"><path d="M1664 0q27 0 50 10t40.5 27.5T1782 78t10 50v992q0 31 9.5 54.5t23.5 44 31 40.5 31 45.5 23.5 58 9.5 77.5v480q0 27-10 50t-27.5 40.5-40.5 27.5-50 10H960l128-128h448v-480q0-45 9.5-77.5t23.5-58 31-45.5 31-40.5 23.5-44 9.5-54.5V128H384v870q-32 4-64.5 10.5T256 1026V0h1408zm128 1440q0-24-4.5-42t-13-33-20-29.5-26.5-31.5q-15 17-26.5 31.5t-20 29.5-13 33-4.5 42v480h128v-480zM768 1152h128v384H512v-128h190q-45-60-112-94t-142-34q-47 0-92 13.5t-84 39.5l443 443q36-56 47-123l127 22q-9 53-30 101.5t-53 91.5l87 87-90 90-87-86q-58 43-127 66t-141 23q-91 0-174-35.5T128 1911v137H0v-384h384v128H194q45 60 112 94t142 34q47 0 92-13.5t84-39.5l-443-443q-36 56-47 123L7 1525q9-53 30-101.5t53-91.5l-87-87 90-90 87 86q58-43 127-66t141-23q91 0 174 35.5T768 1289v-137z"/></svg>