<svg width="1792" height="1792" viewBox="0 0 1792 1792" xmlns="http://www.w3.org/2000/svg"><path transform="scale(1.75 1.75) translate(0 0)" d="M832 0q13.5 0 25 5t20.25 13.75 13.75 20.25 5 25v496q0 15.5 4.75 27.25t11.75 22 15.5 20.25 15.5 22.75 11.75 29 4.75 38.75v240q0 13.5-5 25t-13.75 20.25-20.25 13.75-25 5h-416l64-64h224v-240q0-22.5 4.75-38.75t11.75-29 15.5-22.75 15.5-20.25 11.75-22 4.75-27.25v-496h-640v435q-16 2-32.25 5.25t-31.75 8.75v-513h704zm64 720q0-12-2.25-21t-6.5-16.5-10-14.75-13.25-15.75q-7.5 8.5-13.25 15.75t-10 14.75-6.5 16.5-2.25 21v240h64v-240zm-512-144h64v192h-192v-64h95q-22.5-30-56-47t-71-17q-23.5 0-46 6.75t-42 19.75l221.5 221.5q18-28 23.5-61.5l63.5 11q-4.5 26.5-15 50.75t-26.5 45.75l43.5 43.5-45 45-43.5-43q-29 21.5-63.5 33t-70.5 11.5q-45.5 0-87-17.75t-73-50.75v68.5h-64v-192h192v64h-95q22.5 30 56 47t71 17q23.5 0 46-6.75t42-19.75l-221.5-221.5q-18 28-23.5 61.5l-63.5-11q4.5-26.5 15-50.75t26.5-45.75l-43.5-43.5 45-45 43.5 43q29-21.5 63.5-33t70.5-11.5q45.5 0 87 17.75t73 50.75v-68.5z"/></svg>