<svg xmlns="http://www.w3.org/2000/svg" viewBox="0 0 2048 2048"><path d="M1024 0q141 0 272 36.5t245 103 207.5 160 160 207.5 103 245 36.5 272-36.5 272-103 245-160 207.5-207.5 160-245 103-272 36.5q-172 0-330.5-55t-289-154.5-226-237.5T38 1297l123-34q40 145 123.5 265.5T482 1736t253 135.5 289 48.5q123 0 237.5-32t214-90.5T1657 1657t140.5-181.5T1888 1262t32-238q0-123-32-237.5t-90.5-214T1657 391t-181.5-140.5-214-90.5-237.5-32q-129 0-251 36T545.5 267 355 428.5 215 640h297v128H0V256h128v274q67-123 163-221t212.5-166.5T752 37t272-37z"/></svg>