<svg width="1792" height="1792" viewBox="0 0 1792 1792" xmlns="http://www.w3.org/2000/svg"><path transform="scale(1.75 1.75) translate(0 0)" d="M512 0q70.5 0 136 18.25t122.5 51.5 103.75 80 80 103.75 51.5 122.5 18.25 136-18.25 136-51.5 122.5-80 103.75-103.75 80-122.5 51.5-136 18.25q-86 0-165.25-27.5t-144.5-77.25-113-118.75-70.25-152l61.5-17q20 72.5 61.75 132.75t98.75 103.75 126.5 67.75 144.5 24.25q61.5 0 118.75-16t107-45.25 90.75-70.25 70.25-90.75 45.25-106.75 16-119q0-61.5-16-118.75t-45.25-107-70.25-90.75-90.75-70.25-107-45.25-118.75-16q-64.5 0-125.5 18t-113.75 51.5-95.25 80.75-70 105.75h148.5v64h-256v-256h64v137q33.5-61.5 81.5-110.5t106.25-83.25 124.25-52.75 136-18.5z"/></svg>