<svg xmlns="http://www.w3.org/2000/svg" viewBox="0 0 3574 2048"><path d="M351 263q69 106 160.5 197.5T703 629l-50 78q-73-51-135-112.5T398 467v1117h-93V467q-58 66-120.5 127.5T50 707L0 629q100-77 191-168t160-198zm3003 399q-87 0-153.5 31t-112 84.5T3020 903t-23 154q0 78 21 146.5t63 119.5 104.5 80.5T3331 1433q65 0 126-16.5t115-53.5v160q-63 35-133 48t-142 13q-114 0-201.5-40.5t-147.5-111-90.5-164.5-30.5-202q0-114 34.5-215.5t100-177T3122 554t215-44q60 0 120 8.5t115 34.5v171q-100-62-218-62zM1573 527l364 1039h-178l-88-264h-385l-85 264h-178l367-1039h183zm55 634l-135-414q-5-16-8-32.5t-6-33.5h-3q0 5-1.5 14t-3.5 19-4.5 19-3.5 14l-135 414h300zm872-147q52 6 93 27t69.5 54 43.5 77 15 96q0 74-29.5 129.5t-78 93T2502 1547t-130 19h-314V527h311q55 0 110.5 13t99 41.5 71 74T2677 765q0 88-46 153.5t-131 93.5v2zm-280-52h106q39 0 72-10t57-30 37.5-51 13.5-72q0-39-13.5-64.5T2456 694t-53.5-21.5-64.5-6.5h-118v296zm139 466q40 0 75-10t60-30.5 39.5-52 14.5-74.5q0-48-17.5-79t-46.5-49-67-25.5-79-7.5h-118v328h139z"/></svg>