<svg xmlns="http://www.w3.org/2000/svg" viewBox="0 0 1787 1024"><path d="M175.5 131.5q34.5 53 80.25 98.75t95.75 84.25l-25 39q-36.5-25.5-67.5-56.25t-60-63.75v558.5h-46.5v-558.5q-29 33-60.25 63.75t-67.25 56.25l-25-39q50-38.5 95.5-84t80-99zm1501.5 199.5q-43.5 0-76.75 15.5t-56 42.25-34.25 62.75-11.5 77q0 39 10.5 73.25t31.5 59.75 52.25 40.25 72.75 14.75q32.5 0 63-8.25t57.5-26.75v80q-31.5 17.5-66.5 24t-71 6.5q-57 0-100.75-20.25t-73.75-55.5-45.25-82.25-15.25-101q0-57 17.25-107.75t50-88.5 80.25-59.75 107.5-22q30 0 60 4.25t57.5 17.25v85.5q-50-31-109-31zm-890.5-67.5l182 519.5h-89l-44-132h-192.5l-42.5 132h-89l183.5-519.5h91.5zm27.5 317l-67.5-207q-2.5-8-4-16.25t-3-16.75h-1.5q0 2.5-.75 7t-1.75 9.5-2.25 9.5-1.75 7l-67.5 207h150zm436-73.5q26 3 46.5 13.5t34.75 27 21.75 38.5 7.5 48q0 37-14.75 64.75t-39 46.5-55.75 28.25-65 9.5h-157v-519.5h155.5q27.5 0 55.25 6.5t49.5 20.75 35.5 37 13.75 54.75q0 44-23 76.75t-65.5 46.75v1zm-140-26h53q19.5 0 36-5t28.5-15 18.75-25.5 6.75-36q0-19.5-6.75-32.25t-18.25-20.25-26.75-10.75-32.25-3.25h-59v148zm69.5 233q20 0 37.5-5t30-15.25 19.75-26 7.25-37.25q0-24-8.75-39.5t-23.25-24.5-33.5-12.75-39.5-3.75h-59v164h69.5z"/></svg>