<svg xmlns="http://www.w3.org/2000/svg" viewBox="0 0 2048 2048"><path d="M1024 779q51 0 95.5 19.5T1197 851t52.5 77.5 19.5 95.5-19.5 95.5-52.5 77.5-77.5 52.5-95.5 19.5-95.5-19.5T851 1197t-52.5-77.5T779 1024t19.5-95.5T851 851t77.5-52.5T1024 779zm0 384q29 0 54.5-11t44-29.5 29.5-44 11-54.5-11-54.5-29.5-44-44-29.5-54.5-11-54.5 11-44 29.5-29.5 44-11 54.5 11 54.5 29.5 44 44 29.5 54.5 11zm880 75q12-54 19.5-106t7.5-109q0-90-17.5-177.5t-51.5-169-83.5-156T1665 383l75-75q71 71 126.5 154t93.5 174 57.5 188.5T2037 1023q0 80-13 156t-37 152q-17-27-38-50t-45-43zM383 383q-64 64-113.5 138T186 677t-51.5 169.5T117 1024t17.5 177.5T186 1371t83.5 156T383 1665l-75 75q-72-71-127-154t-93-174-57.5-189T11 1024t19.5-199T88 636t93-174 127-154zm1140 797q24-76 24-156 0-105-39.5-200.5T1394 654l75-75q88 89 136 204t48 241q0 35-4.5 66t-11.5 65q-29 2-58 8t-56 17zM654 654q-74 74-113.5 169.5T501 1024t39.5 200.5T654 1394l-75 75q-89-90-136.5-204.5T395 1024t47.5-240.5T579 579zm1196 1058q46 26 82.5 62t62 79.5 39.5 93 14 101.5h-128q0-53-20-99.5t-55-81.5-81.5-55-99.5-20-99.5 20-81.5 55-55 81.5-20 99.5h-128q0-52 14-101.5t39.5-93 62-79.5 82.5-62q-33-35-51.5-81t-18.5-95q0-53 20-99.5t55-81.5 81.5-55 99.5-20 99.5 20 81.5 55 55 81.5 20 99.5q0 49-18.5 95t-51.5 81zm-314-176q0 27 10 50t27.5 40.5 40.5 27.5 50 10 50-10 40.5-27.5 27.5-40.5 10-50-10-50-27.5-40.5-40.5-27.5-50-10-50 10-40.5 27.5-27.5 40.5-10 50z"/></svg>