<svg xmlns="http://www.w3.org/2000/svg" viewBox="0 0 2048 2048"><path d="M1920 1184q0 31 9.5 54t23.5 43.5 31 41 31 45.5 23.5 58 9.5 78h-128q0-31-9.5-54t-23.5-43.5-31-41-31-45.5-23.5-58-9.5-78 9.5-77.5 23.5-58 31-45.5 31-40.5 23.5-44 9.5-54.5-9.5-54-23.5-43.5-31-41-31-45.5-23.5-58-9.5-78h128q0 31 9.5 54t23.5 43.5 31 41 31 45.5 23.5 58 9.5 78-9.5 77.5-23.5 58-31 45.5-31 40.5-23.5 44-9.5 54.5zM256 864q0 45-9.5 77.5t-23.5 58-31 45.5-31 40.5-23.5 44-9.5 54.5 9.5 54 23.5 43.5 31 41 31 45.5 23.5 58 9.5 78H128q0-31-9.5-54T95 1406.5t-31-41-31-45.5-23.5-58-9.5-78 9.5-77.5 23.5-58 31-45.5 31-40.5 23.5-44T128 864t-9.5-54T95 766.5t-31-41T33 680 9.5 622 0 544h128q0 31 9.5 54t23.5 43.5 31 41 31 45.5 23.5 58 9.5 78zM1536 0q27 0 50 10t40.5 27.5T1654 78t10 50v1792q0 27-10 50t-27.5 40.5-40.5 27.5-50 10H512q-27 0-50-10t-40.5-27.5T394 1970t-10-50V128q0-27 10-50t27.5-40.5T462 10t50-10h1024zm0 1920V128H512v1792h1024zm-384-256v128H896v-128h256z"/></svg>