<svg xmlns="http://www.w3.org/2000/svg" viewBox="0 0 2048 2048"><path d="M1005 1427l301 301-301 301-90-90 147-147h-38q-106 0-211.5-8.5T602 1755q-49-9-112.5-25.5t-130.5-41-131.5-57.5-115-75.5-81.5-95T0 1344q0-34 10.5-66t28-60 40.5-52.5 49-44.5v223q0 37 23 67t50 53q47 39 110 69t135 52.5 149 37.5 152.5 24 146.5 13 130 4h37l-146-147zm915-306q26 21 49 45.5t40.5 52.5 28 59.5 10.5 65.5q0 61-28.5 112t-75.5 92.5-107 74-122.5 56.5-122.5 40.5-107 26.5l-26-125q28-6 73.5-18t96.5-29.5 103-41 94-52.5 68-63 26-73v-223zm-1280-64q0 54-20 95.5t-53.5 70-79 43T391 1280q-42 0-84-8.5t-78-31.5v-91q73 59 165 59 33 0 62.5-9t52-27 35.5-44.5 13-62.5q0-53-22.5-82.5t-57-43.5-77.5-17-83-3h-17v-72h13q38 0 77-2.5t70.5-15.5 51-41 19.5-78q0-66-34.5-96T398 584q-39 0-75 14t-66 39v-83q36-23 77.5-32.5T418 512q40 0 75.5 11.5t62.5 34 42.5 55.5 15.5 76q0 146-141 191 36 3 66.5 17.5t53 37.5 35 54.5T640 1057zm386 223q-68 0-112-32.5t-69.5-82.5-35.5-110-10-115q0-45 6-94t19.5-96.5T860 659t54.5-75.5 75-52T1088 512q30 0 60 4t58 17v81q-27-14-56-22t-60-8q-59 0-98.5 29.5t-63 74-33.5 98T885 887v8q26-48 67-70t95-22q50 0 88 18t63.5 49.5 38 73 12.5 87.5q0 50-15 95t-43.5 79-70 54.5-94.5 20.5zm2-406q-31 0-57 12.5t-44.5 33T898 967t-10 57q0 32 8.5 64.5t26 59T967 1191t63 17q34 0 60-14.5t42.5-38 25-53 8.5-60.5q0-33-7.5-63.5t-24-53.5-43-37-63.5-14zm565 406q-46 0-80-17.5t-58.5-47-39.5-67.5-24-79-12-82-3-76q0-39 3-83.5t12-88.5 25-85 41.5-72.5T1520 531t88-19q73 0 116 39t65 97 28.5 124 6.5 121q0 37-3.5 80.5t-13 86.5-26 82.5-42 70-61.5 49-85 18.5zm11-696q-35 0-59.5 17.5t-41 45-26 63-14 71-5.5 69-1 57.5 1 55.5 6 65 14 66 25 58 40 41 58 15.5 57.5-16.5 39.5-42.5 25-59.5 13.5-67.5 5.5-66 1-55q0-22-1-54.5t-5.5-67.5-13-70-24-63-39-45-56.5-17zm316-82q-24 0-45.5-9.5T1837 467t-25.5-37.5-9.5-45.5 9.5-45.5T1837 301t37.5-25.5 45.5-9.5 45.5 9.5T2003 301t25.5 37.5 9.5 45.5-9.5 45.5T2003 467t-37.5 25.5-45.5 9.5zm0-185q-28 0-47.5 19.5T1853 384t19.5 47.5T1920 451t47.5-19.5T1987 384t-19.5-47.5T1920 317z"/></svg>