<svg width="1792" height="1792" viewBox="0 0 1792 1792" xmlns="http://www.w3.org/2000/svg"><path transform="scale(1.75 1.75) translate(0 0)" d="M512 384q39.5 0 74.5 15t61.25 41.25 41.25 61.25 15 74.5q0 40-15 74.75t-41.25 61-61.25 41.25-74.5 15q-40 0-74.75-15t-61-41.25-41.25-61-15-74.75q0-39.5 15-74.5t41.25-61.25 61-41.25 74.75-15zm0 320q26.5 0 49.75-10t40.75-27.5 27.5-40.75 10-49.75-10-49.75-27.5-40.75-40.75-27.5-49.75-10-49.75 10-40.75 27.5-27.5 40.75-10 49.75 10 49.75 27.5 40.75 40.75 27.5 49.75 10zm0-576q71.5 0 142 17.75t133 52.25 113.25 85.25 82.75 116.75q20 41.5 30.5 85.75t10.5 90.25h-64q0-59-18-110.5t-49.75-94-74.75-76-92.75-56.5-104.25-35-108.5-12-108.5 12-104.25 35-92.75 56.5-74.75 76-49.75 94-18 110.5h-64q0-46 10.5-90.25t30.5-85.75q32-66 82.75-116.75t113.25-85.25 133-52.25 142-17.75z"/></svg>