<svg xmlns="http://www.w3.org/2000/svg" viewBox="0 0 2048 2048"><path d="M1024 768q79 0 149 30t122.5 82.5T1378 1003t30 149q0 80-30 149.5t-82.5 122T1173 1506t-149 30q-80 0-149.5-30t-122-82.5-82.5-122-30-149.5q0-79 30-149t82.5-122.5 122-82.5 149.5-30zm0 640q53 0 99.5-20t81.5-55 55-81.5 20-99.5-20-99.5-55-81.5-81.5-55-99.5-20-99.5 20-81.5 55-55 81.5-20 99.5 20 99.5 55 81.5 81.5 55 99.5 20zm0-1152q143 0 284 35.5T1574 396t226.5 170.5T1966 800q40 83 61 171.5t21 180.5h-128q0-118-36-221t-99.5-188T1635 591t-185.5-113-208.5-70-217-24-217 24-208.5 70T413 591 263.5 743 164 931t-36 221H0q0-92 21-180.5T82 800q64-132 165.5-233.5T474 396t266-104.5 284-35.5z"/></svg>