<svg xmlns="http://www.w3.org/2000/svg" viewBox="0 0 2048 2048"><path d="M1673 119q90 90 159.5 195T1950 534.5t72.5 239T2047 1024t-24.5 250.5-72.5 239-117.5 220.5-159.5 195l-90-90q81-81 143.5-175.5T1832 1465t65.5-215.5T1920 1024t-22.5-225.5T1832 583t-105.5-198.5T1583 209zm-271 271q63 63 111.5 136.5t82 154.5 51 168 17.5 175q0 89-17.5 175.5t-51 167.5-82 154.5T1402 1658l-91-91q108-108 166.5-249t58.5-294-58.5-294T1311 481zm-272 272q72 72 111 166t39 196-39 196-111 166l-90-90q54-54 83-124.5t29-147.5-29-147.5-83-124.5zM677 256h91v1536h-91l-384-384H0V640h293zm-37 219L347 768H128v512h219l293 293V475z"/></svg>