<svg xmlns="http://www.w3.org/2000/svg" viewBox="0 0 2048 2048"><path d="M1673 119q90 90 160 195t117.5 220 72.5 239 25 251q0 128-25 251.5t-72.5 238.5-117.5 220-160 195l-91-91q81-81 144-175.5t106-198 65-214.5 22-226-22-226-65-214.5-106-198T1582 210zm-9 905q0 180-68 343t-194 291l-91-91q109-109 167-249t58-294-58-294-167-249l91-91q126 128 194 291t68 343zm-534-362q73 73 111.5 166t38.5 196-38.5 196-111.5 166l-90-90q54-54 83-124.5t29-147.5-29-147.5-83-124.5zM677 256h91v1536h-90l-385-384H0V640h293zm-37 219L347 768H128v512h219l293 293V475z"/></svg>