<svg width="1792" height="1792" viewBox="0 0 1792 1792" xmlns="http://www.w3.org/2000/svg"><path transform="scale(1.75 1.75) translate(0 0)" d="M836.5 59.5q45 45 80 97.5t58.75 110 36.25 119.5 12.5 125.5q0 64-12.5 125.75t-36.25 119.25-58.75 110-80 97.5l-45.5-45.5q40.5-40.5 72-87.75t53-99 32.5-107.25 11-113-11-113-32.5-107.25-53-99-72-87.75zm-4.5 452.5q0 90-34 171.5t-97 145.5l-45.5-45.5q54.5-54.5 83.5-124.5t29-147-29-147-83.5-124.5l45.5-45.5q63 64 97 145.5t34 171.5zm-267-181q36.5 36.5 55.75 83t19.25 98-19.25 98-55.75 83l-45-45q27-27 41.5-62.25t14.5-73.75-14.5-73.75-41.5-62.25z"/></svg>