<svg width="1792" height="1792" viewBox="0 0 1792 1792" xmlns="http://www.w3.org/2000/svg"><path transform="scale(1.75 1.75) translate(0 0)" d="M389.5 509.5l-71-71q-4.5 29.5-18.5 54.75t-35.25 43.75-48 28.75-56.75 10.25q-33 0-62.25-12.5t-51-34.25-34.25-51-12.5-62.25 12.5-62.25 34.25-51 51-34.25 62.25-12.5q32 0 61.25 12t51.75 35h.5l161 161.5zm-229.5 2.5q20 0 37.5-7.5t30.5-20.5 20.5-30.5 7.5-37.5-7.5-37.5-20.5-30.5-30.5-20.5-37.5-7.5-37.5 7.5-30.5 20.5-20.5 30.5-7.5 37.5 7.5 37.5 20.5 30.5 30.5 20.5 37.5 7.5zm640-256q33 0 62.25 12.5t51 34.25 34.25 51 12.5 62.25-12.5 62.25-34.25 51-51 34.25-62.25 12.5q-23.5 0-41.75-5t-34-14-30-21.75-29.75-28.75l45-45.5q10.5 10.5 19.75 20t19.75 16.25 22.75 10.75 28.25 4q20 0 37.5-7.5t30.5-20.5 20.5-30.5 7.5-37.5-7.5-37.5-20.5-30.5-30.5-20.5-37.5-7.5q-19 0-36.75 7.25t-31.25 20.75l-320 320q-13.5 13.5-20.75 31.25t-7.25 36.75q0 20 7.5 37.5t20.5 30.5 30.5 20.5 37.5 7.5 37.5-7.5 30.5-20.5 20.5-30.5 7.5-37.5q0-16-4-28.25t-10.75-22.75-16.25-19.75-20-19.75l45.5-45q15.5 15.5 28.5 29.75t22 30 14 34 5 41.75q0 33-12.5 62.25t-34.25 51-51 34.25-62.25 12.5-62.25-12.5-51-34.25-34.25-51-12.5-62.25 12-61.5 35-51.5l320-320q23-23 51.5-35t61.5-12zm-320 141l-141.5-141h91l50.5 51 50.5-51h91z"/></svg>