<svg xmlns="http://www.w3.org/2000/svg" viewBox="0 0 2048 2048"><path d="M779 1019L637 877q-9 59-37 109.5t-70.5 87.5-96 57.5T320 1152q-66 0-124.5-25t-102-68.5-68.5-102T0 832t25-124.5 68.5-102 102-68.5T320 512q64 0 122.5 24T547 606l322 323zm-459 5q40 0 75-15t61-41 41-61 15-75-15-75-41-61-61-41-75-15-75 15-61 41-41 61-15 75 15 75 41 61 61 41 75 15zm1280-512q66 0 124.5 25t102 68.5 68.5 102 25 124.5-25 124.5-68.5 102-102 68.5-124.5 25q-47 0-83.5-10t-68-28-60-43.5-59.5-57.5l90-91q21 21 39.5 40t39.5 32.5 45.5 21.5 56.5 8q40 0 75-15t61-41 41-61 15-75-15-75-41-61-61-41-75-15q-38 0-73.5 14.5T1464 696l-640 640q-27 27-41.5 62.5T768 1472q0 40 15 75t41 61 61 41 75 15 75-15 61-41 41-61 15-75q0-32-8-56.5t-21.5-45.5-32.5-39.5-40-39.5l91-90q31 31 57 59.5t44 60 28 68 10 83.5q0 66-25 124.5t-68.5 102-102 68.5-124.5 25-124.5-25-102-68.5-68.5-102-25-124.5 24-123 70-103l640-640q46-46 103-70t123-24zM960 794L677 512h182l101 102 101-102h182z"/></svg>