<svg xmlns="http://www.w3.org/2000/svg" viewBox="0 0 2048 2048"><path d="M1088 512q-40 0-75-15t-61-41-41-61-15-75 15-75 41-61 61-41 75-15 75 15 61 41 41 61 15 75-15 75-41 61-61 41-75 15zm512 256q27 0 50 10t40.5 27.5T1718 846t10 50-10 50-27.5 40.5-40.5 27.5-50 10h-267q-25 0-48.5-10t-41.5-27l-45.5-45.5L1152 896l-77 307 296 296q18 18 27.5 41.5t9.5 48.5v331q0 27-10 50t-27.5 40.5-40.5 27.5-50 10-50-10-40.5-27.5-27.5-40.5-10-50v-256l-267-267-79 362q-10 47-19 94.5t-22 93.5q-13 45-45 73t-80 28q-26 0-49.5-10t-41-27.5T522 1970t-10-50q0-13 3-27 17-93 39-184.5t42-183.5q42-189 82.5-376.5T760 772l-120 60v256q0 27-10 50t-27.5 40.5T562 1206t-50 10-50-10-40.5-27.5T394 1138t-10-50V751q0-37 19-67t52-47l195-98q54-27 115-27h67q45 61 112.5 94.5T1088 640q82 0 153-39l167 167h192z"/></svg>