<svg width="1792" height="1792" viewBox="0 0 1792 1792" xmlns="http://www.w3.org/2000/svg"><path transform="scale(1.75 1.75) translate(0 0)" d="M832 320q20 0 37.5 7.5t30.5 20.5 20.5 30.5 7.5 37.5-7.5 37.5-20.5 30.5-30.5 20.5-37.5 7.5h-160q-7 0-13.5-3.5t-12.25-8.5-11-11-9.75-10.5l-20.5 81.5 153.5 153.5q9.5 9.5 9.5 22.5v192q0 20-7.5 37.5t-20.5 30.5-30.5 20.5-37.5 7.5-37.5-7.5-30.5-20.5-20.5-30.5-7.5-37.5v-114.5l-109-109-36 164-8 40-9 40q-4 16.5-12.75 30.5t-21 24-27.5 15.5-32.75 5.5q-20 0-37.5-7.5t-30.5-20.75-20.5-30.75-7.5-37.5q0-5 .5-10t1.5-10l59-267.5q-19.5-.5-36.25-8.25t-29.5-21-20-30.25-7.25-36.5v-240q0-8.5 4.75-16.5t12.75-12l133-66.5q23.5-11.5 44.25-14.25t46.25-2.75q-17-30-17-64 0-26.5 10-49.75t27.5-40.75 40.75-27.5 49.75-10 49.75 10 40.75 27.5 27.5 40.75 10 49.75q0 23-8.25 44.75t-23.25 39.25q2.5 2 4.5 3.75t4.5 4.25l100 100h82.5zm-352-192q0 13.5 5 25t13.75 20.25 20.25 13.75 25 5 25-5 20.25-13.75 13.75-20.25 5-25-5-25-13.75-20.25-20.25-13.75-25-5-25 5-20.25 13.75-13.75 20.25-5 25zm352 320q13 0 22.5-9.5t9.5-22.5q0-16-9-23t-23-9-31.5-.75-34 2-30.75-1-22.25-9.75l-109.5-109q-9.5-9.5-22.5-9.5h-167.5q-22.5 0-42.5 10l-115.5 58v220q0 13 9.5 22.5t22.5 9.5 22.5-9.5 9.5-22.5v-144q0-8.5 4.75-16.5t12.75-12q6-3 16.75-9t22.5-11.75 22.5-10.25 16.75-4.5q13 0 22.5 9.5t9.5 22.5q0 8.5-4.75 16.5t-12.75 12l-46.5 23v124.5q0 19-7.25 36.5t-20.25 30.5l-67.5 310q-1 5-1 7 0 13 9.25 22.5t22.25 9.5q12 0 20.5-6.75t11-18.25q17.5-75.5 33.25-150.5t32.75-151q2.5-11 11-18t20-7q13.5 0 23 9.5l159.5 159.5q9.5 9.5 9.5 22.5v128q0 13 9.5 22.5t22.5 9.5 22.5-9.5 9.5-22.5v-178.5l-157-157.5q-9.5-9.5-9.5-22.5 0-3.5 2.5-15.5t6.5-28l8.5-34 9-34.75 8-29.75 5-19q2.5-11 11-17.75t20-6.75q13 0 22.5 9.5l55 54.5h146.5z"/></svg>