<svg width="1792" height="1792" viewBox="0 0 1792 1792" xmlns="http://www.w3.org/2000/svg"><path transform="scale(1.75 1.75) translate(0 0)" d="M544 256q-20 0-37.5-7.5t-30.5-20.5-20.5-30.5-7.5-37.5 7.5-37.5 20.5-30.5 30.5-20.5 37.5-7.5 37.5 7.5 30.5 20.5 20.5 30.5 7.5 37.5-7.5 37.5-20.5 30.5-30.5 20.5-37.5 7.5zm256 128q13.5 0 25 5t20.25 13.75 13.75 20.25 5 25-5 25-13.75 20.25-20.25 13.75-25 5h-133.5q-12.5 0-24.25-5t-20.75-13.5l-45.5-45.5q-10 38.5-19.25 76.75t-19.25 76.75l148 148q9 9 13.75 20.75t4.75 24.25v165.5q0 13.5-5 25t-13.75 20.25-20.25 13.75-25 5-25-5-20.25-13.75-13.75-20.25-5-25v-128l-133.5-133.5-39.5 181q-5 23.5-9.5 47.25t-11 46.75q-6.5 22.5-22.5 36.5t-40 14q-13 0-24.75-5t-20.5-13.75-13.75-20.25-5-25q0-6.5 1.5-13.5 8.5-46.5 19.5-92.25t21-91.75q21-94.5 41.25-188.25t40.75-188.25l-60 30v128q0 13.5-5 25t-13.75 20.25-20.25 13.75-25 5-25-5-20.25-13.75-13.75-20.25-5-25v-168.5q0-18.5 9.5-33.5t26-23.5l97.5-49q27-13.5 57.5-13.5h33.5q22.5 30.5 56.25 47.25t71.75 16.75q41 0 76.5-19.5l83.5 83.5h96z"/></svg>