<svg xmlns="http://www.w3.org/2000/svg" viewBox="0 0 2048 2048"><path d="M1664 640q40 0 75 15t61 41 41 61 15 75-15 75-41 61-61 41-75 15h-320q-14 0-27-7t-24.5-17-22-22-19.5-21l-41 163 307 307q19 19 19 45v384q0 40-15 75t-41 61-61 41-75 15-75-15-61-41-41-61-15-75v-229l-218-218-72 328-16 80-18 80q-8 33-25.5 61t-42 48-55 31-65.5 11q-40 0-75-15t-61-41.5-41-61.5-15-75q0-10 1-20t3-20l118-535q-39-1-72.5-16.5t-59-42-40-60.5-14.5-73V608q0-17 9.5-33t25.5-24l266-133q47-23 88.5-28.5T866 384q-34-60-34-128 0-53 20-99.5T907 75t81.5-55T1088 0t99.5 20 81.5 55 55 81.5 20 99.5q0 46-16.5 89.5T1281 424q5 4 9 7.5t9 8.5l200 200h165zM960 256q0 27 10 50t27.5 40.5T1038 374t50 10 50-10 40.5-27.5T1206 306t10-50-10-50-27.5-40.5T1138 138t-50-10-50 10-40.5 27.5T970 206t-10 50zm704 640q26 0 45-19t19-45q0-32-18-46t-46-18-63-1.5-68 4-61.5-2T1427 749l-219-218q-19-19-45-19H828q-45 0-85 20L512 648v440q0 26 19 45t45 19 45-19 19-45V800q0-17 9.5-33t25.5-24q12-6 33.5-18t45-23.5 45-20.5 33.5-9q26 0 45 19t19 45q0 17-9.5 33T861 793l-93 46v249q0 38-14.5 73t-40.5 61l-135 620q-2 10-2 14 0 26 18.5 45t44.5 19q24 0 41-13.5t22-36.5q35-151 66.5-301t65.5-302q5-22 22-36t40-14q27 0 46 19l319 319q19 19 19 45v256q0 26 19 45t45 19 45-19 19-45v-357l-314-315q-19-19-19-45 0-7 5-31t13-56l17-68 18-69.5 16-59.5 10-38q5-22 22-35.5t40-13.5q26 0 45 19l110 109h293z"/></svg>