<svg width="1792" height="1792" viewBox="0 0 1792 1792" xmlns="http://www.w3.org/2000/svg"><path transform="scale(1.75 1.75) translate(0 0)" d="M960 448q0 74-23.25 142.5t-65.5 125.25-101.25 98.75-130 63v82.5h192v64h-640v-64h192v-82.5q-71.5-21-130.25-63t-101-98.75-65.5-125.25-23.25-142.5q0-62 16-119.25t45.25-107 70-90.5 90.5-70 107-45.25 119.25-16 119.25 16 107 45.25 90.5 70 70 90.5 45.25 107 16 119.25zm-448-384q-53 0-102 13.75t-91.75 38.75-77.75 60-60 77.75-38.75 91.75-13.75 102h160q0-46.5 17.5-87.25t48-71.25 71.25-48 87.25-17.5 87.25 17.5 71.25 48 48 71.25 17.5 87.25h160q0-53-13.75-102t-38.75-91.75-60-77.75-77.75-60-91.75-38.75-102-13.75zm160 384q0-33-12.5-62.25t-34.25-51-51-34.25-62.25-12.5-62.25 12.5-51 34.25-34.25 51-12.5 62.25 12.5 62.25 34.25 51 51 34.25 62.25 12.5 62.25-12.5 51-34.25 34.25-51 12.5-62.25zm-538.5 64q7.5 46 25.75 87.75t44.75 77.25 60.25 64.25 73.25 48.75 83.5 31 91 11q46.5 0 90.75-11t83.75-31 73.25-48.75 60.25-64.25 44.5-77.25 26-87.75h-164q-10 35.5-31 65t-49.5 50.5-63 32.75-71 11.75q-37 0-71.25-11.75t-62.75-32.75-49.5-50.5-31-65h-164zm442.5 448v-68.5q-31.5 4.5-64 4.5t-64-4.5v68.5h128z"/></svg>