<svg width="1792" height="1792" viewBox="0 0 1792 1792" xmlns="http://www.w3.org/2000/svg"><path transform="scale(1.75 1.75) translate(0 0)" d="M626.5 538q33.5 16 59.75 40.25t44.5 54.25 27.75 64.5 9.5 71h-64q0-41-14.75-76t-40.5-60.75-60.75-40.5-76-14.75q-40.5 0-75.5 15t-60.75 40.75-40.75 60.75-15 75.5h-64q0-36.5 9.75-71t28.25-64.25 44.75-54 59.25-40.25q-36.5-27-57.25-68t-20.75-86.5q0-39.5 15.25-74.5t41.25-61 61-41.25 74.5-15.25 74.5 15.25 61 41.25 41.25 61 15.25 74.5q0 45.5-20.5 86.25t-57 67.75zm-242.5-154q0 26.5 10.25 49.75t27.5 40.5 40.5 27.5 49.75 10.25q26 0 49.5-10.25t40.75-27.5 27.5-40.5 10.25-49.75q0-26-10.25-49.5t-27.5-40.75-40.75-27.5-49.5-10.25q-26.5 0-49.75 10.25t-40.5 27.5-27.5 40.75-10.25 49.5zm-320 576h192v64h-256v-256h64v192zm896-192h64v256h-256v-64h192v-192zm64-768v256h-64v-192h-192v-64h256zm-960 256h-64v-256h256v64h-192v192z"/></svg>