<svg xmlns="http://www.w3.org/2000/svg" viewBox="0 0 2048 2048"><path d="M1253 1076q67 32 119.5 80.5t89 108.5 55.5 129 19 142h-128q0-82-29.5-152t-81-121.5-121.5-81-152-29.5q-81 0-151 30t-121.5 81.5T670 1385t-30 151H512q0-73 19.5-142t56.5-128.5 89.5-108T796 1077q-73-54-114.5-136T640 768q0-79 30.5-149T753 497t122-82.5 149-30.5 149 30.5 122 82.5 82.5 122 30.5 149q0 91-41 172.5T1253 1076zM768 768q0 53 20.5 99.5t55 81 81 55 99.5 20.5q52 0 99-20.5t81.5-55 55-81T1280 768q0-52-20.5-99t-55-81.5-81.5-55-99-20.5q-53 0-99.5 20.5t-81 55-55 81.5-20.5 99zM128 1920h384v128H0v-512h128v384zm1792-384h128v512h-512v-128h384v-384zM2048 0v512h-128V128h-384V0h512zM128 512H0V0h512v128H128v384z"/></svg>