<svg xmlns="http://www.w3.org/2000/svg" viewBox="0 0 2048 2048"><path d="M1920 896q0 148-46.5 285t-131 250.5T1540 1629t-260 126v165h384v128H384v-128h384v-165q-143-42-260.5-126t-202-197.5-131-250.5T128 896q0-124 32-238.5t90.5-214 140-181 181-140 214-90.5T1024 0t238.5 32 214 90.5 181 140 140 181 90.5 214 32 238.5zm-896-768q-106 0-204 27.5T636.5 233 481 353 361 508.5 283.5 692 256 896h320q0-93 35-174.5T707 579t142.5-96 174.5-35 174.5 35 142.5 96 96 142.5 35 174.5h320q0-106-27.5-204T1687 508.5 1567 353t-155.5-120-183.5-77.5-204-27.5zm320 768q0-66-25-124.5t-68.5-102-102-68.5-124.5-25-124.5 25-102 68.5-68.5 102T704 896t25 124.5 68.5 102 102 68.5 124.5 25 124.5-25 102-68.5 68.5-102 25-124.5zM267 1024q15 92 51.5 175.5T408 1354t120.5 128.5T675 1580t167 62 182 22q93 0 181.5-22t167.5-62 146.5-97.5T1640 1354t89-154.5 52-175.5h-328q-20 71-62 130t-99 101-126 65.5-142 23.5q-74 0-142.5-23.5T756 1255t-99-101-62-130H267zm885 896v-137q-63 9-128 9t-128-9v137h256z"/></svg>