<svg xmlns="http://www.w3.org/2000/svg" viewBox="0 0 2048 2048"><path d="M1024 256q75 0 155 6.5t159.5 20.5 156 36.5T1639 374q49 23 99 55t90.5 73 66 91.5T1920 704v640q0 60-25.5 110.5t-66 91.5-90.5 73-99 55q-68 32-144.5 54.5t-156 36.5-159.5 20.5-155 6.5-155-6.5-159.5-20.5-156-36.5T409 1674q-49-23-99-55t-90.5-73-66-91.5T128 1344V704q0-60 25.5-110.5t66-91.5 90.5-73 99-55q68-32 144.5-54.5t156-36.5T869 262.5t155-6.5zm0 128q-68 0-141 5.5t-146 18-143.5 33T462 490q-30 14-65.5 35t-67 48-52.5 60-21 71 21 71 52.5 60 67 48 65.5 35q61 29 131.5 49.5t143.5 33 146 18 141 5.5q67 0 140.5-5.5t146.5-18 143-33 132-49.5q30-14 65.5-35t67-48 52.5-60 21-71-21-71-52.5-60-67-48-65.5-35q-62-29-132-49.5t-143-33-146.5-18T1024 384zm0 1280q67 0 140.5-5.5t146.5-18 143-33 132-49.5q30-14 65.5-35t67-48 52.5-60 21-71V940q-75 60-169 101t-196 65.5-206 35-197 10.5-197-10.5-206-35-196-65.5-169-101v404q0 38 21 71t52.5 60 67 48 65.5 35q61 29 131.5 49.5t143.5 33 146 18 141 5.5z"/></svg>