<svg width="1792" height="1792" viewBox="0 0 1792 1792" xmlns="http://www.w3.org/2000/svg"><path transform="scale(1.75 1.75) translate(0 0)" d="M512 128q37.5 0 77.5 3.25t79.75 10.25 78 18.25 72.25 27.25q24.5 11.5 49.5 27.5t45.25 36.5 33 45.75 12.75 55.25v320q0 30-12.75 55.25t-33 45.75-45.25 36.5-49.5 27.5q-34 16-72.25 27.25t-78 18.25-79.75 10.25-77.5 3.25-77.5-3.25-79.75-10.25-78-18.25-72.25-27.25q-24.5-11.5-49.5-27.5t-45.25-36.5-33-45.75-12.75-55.25v-320q0-30 12.75-55.25t33-45.75 45.25-36.5 49.5-27.5q34-16 72.25-27.25t78-18.25 79.75-10.25 77.5-3.25zm0 64q-34 0-70.5 2.75t-73 9-71.75 16.5-65.75 24.75q-15 7-32.75 17.5t-33.5 24-26.25 30-10.5 35.5 10.5 35.5 26.25 30 33.5 24 32.75 17.5q30.5 14.5 65.75 24.75t71.75 16.5 73 9 70.5 2.75q33.5 0 70.25-2.75t73.25-9 71.5-16.5 66-24.75q15-7 32.75-17.5t33.5-24 26.25-30 10.5-35.5-10.5-35.5-26.25-30-33.5-24-32.75-17.5q-31-14.5-66-24.75t-71.5-16.5-73.25-9-70.25-2.75zm0 640q33.5 0 70.25-2.75t73.25-9 71.5-16.5 66-24.75q15-7 32.75-17.5t33.5-24 26.25-30 10.5-35.5v-202q-37.5 30-84.5 50.5t-98 32.75-103 17.5-98.5 5.25-98.5-5.25-103-17.5-98-32.75-84.5-50.5v202q0 19 10.5 35.5t26.25 30 33.5 24 32.75 17.5q30.5 14.5 65.75 24.75t71.75 16.5 73 9 70.5 2.75z"/></svg>