<svg width="1792" height="1792" viewBox="0 0 1792 1792" xmlns="http://www.w3.org/2000/svg"><path transform="scale(1.75 1.75) translate(0 0)" d="M512 1024q0-53 13.75-102t38.75-91.75 60-77.75 77.75-60 91.75-38.75 102-13.75v64q-44 0-85 11.5t-76.5 32.25-64.75 50-50 64.75-32.25 76.5-11.5 85h-64zm-192 0q0-79.5 20.5-153.25t58-137.75 90-116.5 116.5-90 137.75-58 153.25-20.5v64q-70.5 0-135.75 18.25t-122.25 51.75-103.75 80.25-80.25 103.75-51.75 122.25-18.25 135.75h-64zm480-192q20 0 37.5 7.5t30.5 20.5 20.5 30.5 7.5 37.5-7.5 37.5-20.5 30.5-30.5 20.5-37.5 7.5-37.5-7.5-30.5-20.5-20.5-30.5-7.5-37.5 7.5-37.5 20.5-30.5 30.5-20.5 37.5-7.5z"/></svg>