<svg width="1792" height="1792" viewBox="0 0 1792 1792" xmlns="http://www.w3.org/2000/svg"><path transform="scale(1.75 1.75) translate(0 0)" d="M288 448l288 576h-576zm197.5 520l-197.5-395-197.5 395h395zm-229.5-264h64v160h-64v-160zm0 192h64v64h-64v-64zm608-128q20 0 37.5 7.5t30.5 20.5 20.5 30.5 7.5 37.5-7.5 37.5-20.5 30.5-30.5 20.5-37.5 7.5-37.5-7.5-30.5-20.5-20.5-30.5-7.5-37.5 7.5-37.5 20.5-30.5 30.5-20.5 37.5-7.5zm-387-121q40-61.5 93-110.25t115.25-82.75 131.75-52 143-18v64q-70.5 0-136.75 18.5t-124.25 53.25-106.25 84-81.75 110.75zm110.5 221q16-64 51.25-117.75t84.75-92.5 110-60.25 126.5-21.5v64q-44 0-85 11.5t-76.5 32.25-64.75 50-50 64.75-32.25 76.5-11.5 85h-6.5z"/></svg>