<svg width="1792" height="1792" viewBox="0 0 1792 1792" xmlns="http://www.w3.org/2000/svg"><path transform="scale(1.75 1.75) translate(0 0)" d="M448 320h64v704h-64v-704zm-262-198q-29 29-51.75 63.25t-38.25 71.75-23.75 77.75-8.25 81.25 8.25 81.25 23.75 77.75 38.25 71.75 51.75 63.25l-45.5 45.5q-68-68.5-104.25-155.75t-36.25-183.75 36.25-183.75 104.25-155.75zm633.5-45.5q68 68.5 104.25 155.75t36.25 183.75-36.25 183.75-104.25 155.75l-45.5-45.5q29-29 51.75-63.25t38.25-71.75 23.75-77.75 8.25-81.25-8.25-81.25-23.75-77.75-38.25-71.75-51.75-63.25zm-136 136q40.5 40.5 62.5 93.25t22 110.25-22 110.25-62.5 93.25l-45-45q31.5-31.5 48.25-72.75t16.75-85.75-16.75-85.75-48.25-72.75zm-362 45q-31.5 31.5-48.5 72.75t-17 85.75 17 85.75 48.5 72.75l-45 45q-40.5-40.5-62.5-93.25t-22-110.25 22-110.25 62.5-93.25z"/></svg>