<svg width="1792" height="1792" viewBox="0 0 1792 1792" xmlns="http://www.w3.org/2000/svg"><path transform="scale(1.75 1.75) translate(0 0)" d="M864 768q20 0 37.5 7.5t30.5 20.5 20.5 30.5 7.5 37.5-7.5 37.5-20.5 30.5-30.5 20.5-37.5 7.5-37.5-7.5-30.5-20.5-20.5-30.5-7.5-37.5 7.5-37.5 20.5-30.5 30.5-20.5 37.5-7.5zm-427.5-368.5q53.5-50 114.5-88.5t127.5-65 137.25-40.25 144.25-13.75v64q-129.5 0-248.5 45.5t-216 131q-28-20-59-33zm183.5 178.5q-7-14.5-15.25-28.75t-17.75-27.25q78.5-67 174-102.5t199-35.5v64q-94.5 0-181.75 33.5t-158.25 96.5zm35.5 149q27.5-35.5 61.5-63.5t73-47.5 82-29.75 88-10.25v64q-44 0-85 11.5t-76.5 32.25-64.75 50-50 64.75-32.25 76.5-11.5 85h-60.5q37.5-48.5 57-105.75t19.5-118.25q0-2.5-.25-4.5t-.25-4.5z"/></svg>