<svg xmlns="http://www.w3.org/2000/svg" viewBox="0 0 2048 2048"><path d="M576 896l576 1152H0zm395 1040l-395-790-395 790h790zm-459-528h128v320H512v-320zm0 384h128v128H512v-128zm1216-256q40 0 75 15t61 41 41 61 15 75-15 75-41 61-61 41-75 15-75-15-61-41-41-61-15-75 15-75 41-61 61-41 75-15zM763 913q109-126 241-224t280-166 308.5-103.5T1920 384v128q-160 0-313.5 35.5T1313 650t-264 165-224 222zm191 381q80-123 186-220.5T1370.5 908 1634 804t286-36v128q-141 0-273.5 37T1398 1039.5t-212.5 168T1022 1429zm221 442q32-128 102.5-235.5t169.5-185 220-120.5 253-43v128q-88 0-170 23t-153 64.5-129.5 100-100 129.5-64.5 153-23 170h-13z"/></svg>