<svg width="1792" height="1792" viewBox="0 0 1792 1792" xmlns="http://www.w3.org/2000/svg"><path transform="scale(1.75 1.75) translate(0 0)" d="M704 896q13.5 0 25 5t20.25 13.75 13.75 20.25 5 25-5 25-13.75 20.25-20.25 13.75-25 5-25-5-20.25-13.75-13.75-20.25-5-25 5-25 13.75-20.25 20.25-13.75 25-5zm-256 128q0-66.5 25-124.75t68.5-101.75 101.75-68.5 124.75-25v64q-53 0-99.5 20.25t-81.25 55-55 81.25-20.25 99.5h-64zm-192 0q0-70.5 18.25-136t51.5-122.5 80-103.75 103.75-80 122.25-51.5 136.25-18.25v64q-62 0-119 16t-106.75 45.25-90.75 70.25-70.25 90.75-45.25 107-16 118.75h-64zm768-576h-128v576h-64v-576h-128v-384h320v384zm-256-320v64h192v-64h-192zm192 256v-128h-64v64h-64v-64h-64v128h192zm-320 13q-74.5 15.5-141.25 46.75t-123.75 75.5-102.75 100.25-77.75 120.5-49.25 136.25-17.25 147.75h-64q0-84.5 19.5-164.5t55.75-151.75 87.75-133.5 115.5-110.5 139-82.5 158.5-49.25v65z"/></svg>