<svg width="1792" height="1792" viewBox="0 0 1792 1792" xmlns="http://www.w3.org/2000/svg"><path transform="scale(1.75 1.75) translate(0 0)" d="M288 448q59.5 0 112 22.75t91.5 61.75 61.75 91.5 22.75 112-22.75 112-61.75 91.5-91.5 61.75-112 22.75-112-22.75-91.5-61.75-61.75-91.5-22.75-112 22.75-112 61.75-91.5 91.5-61.75 112-22.75zm232 288q0-48-18.25-90.25t-49.75-73.75-73.75-49.75-90.25-18.25-90.25 18.25-73.75 49.75-49.75 73.75-18.25 90.25 18.25 90.25 49.75 73.75 73.75 49.75 90.25 18.25 90.25-18.25 73.75-49.75 49.75-73.75 18.25-90.25zm-97.5-89.5l-89.5 89.5 89.5 89.5-45 45-89.5-89-89.5 89-45-45 89-89.5-89-89.5 45-45 89.5 89.5 89.5-89.5zm441.5 121.5q20 0 37.5 7.5t30.5 20.5 20.5 30.5 7.5 37.5-7.5 37.5-20.5 30.5-30.5 20.5-37.5 7.5-37.5-7.5-30.5-20.5-20.5-30.5-7.5-37.5 7.5-37.5 20.5-30.5 30.5-20.5 37.5-7.5z"/></svg>