<svg width="1792" height="1792" viewBox="0 0 1792 1792" xmlns="http://www.w3.org/2000/svg"><path transform="scale(1.75 1.75) translate(0 0)" d="M360 731q15.5 0 26 10.5l51.5 51.5q10.5 10.5 10.5 26 0 7-2.5 13.75t-8 11.75q-12.5 12.5-22.25 22t-20.25 16-23.25 10-31.25 3.5q-36 0-75.25-15.25t-77.25-41-72-59.75-59.75-72-41-77.25-15.25-75.25q0-18.5 3.5-31.25t10-23.25 16-20.25 22-22.25q5-5.5 11.75-8t13.75-2.5q15.5 0 26 10.5l51.5 51.5q10.5 10.5 10.5 26 0 13-7.25 21.75t-16.25 16.75-16.25 17-7.25 21.5q0 15.5 10.5 26l128.5 128.5q10.5 10.5 26 10.5 12.5 0 21.5-7.25t17-16.25 16.75-16.25 21.75-7.25zm216 165q0-53 13.75-102.25t38.75-91.75 60-77.5 77.5-60 91.75-38.75 102.25-13.75v64q-44 0-85 11.5t-76.5 32.25-64.75 50-50 64.75-32.25 76.5-11.5 85h-64zm288-192q20 0 37.5 7.5t30.5 20.5 20.5 30.5 7.5 37.5-7.5 37.5-20.5 30.5-30.5 20.5-37.5 7.5-37.5-7.5-30.5-20.5-20.5-30.5-7.5-37.5 7.5-37.5 20.5-30.5 30.5-20.5 37.5-7.5zm-428.5-44.5q35-77.5 89.5-140.25t122.75-107 147.75-68.25 164.5-24v64q-79 0-152.25 23.25t-135.5 65.75-110.75 102.25-77.5 132.75z"/></svg>