<svg width="1792" height="1792" viewBox="0 0 1792 1792" xmlns="http://www.w3.org/2000/svg"><path transform="scale(1.75 1.75) translate(0 0)" d="M288 448q59.5 0 112 22.75t91.5 61.75 61.75 91.5 22.75 112-22.75 112-61.75 91.5-91.5 61.75-112 22.75-112-22.75-91.5-61.75-61.75-91.5-22.75-112 22.75-112 61.75-91.5 91.5-61.75 112-22.75zm232 288q0-48-18.25-90.25t-49.75-73.75-73.75-49.75-90.25-18.25-90.25 18.25-73.75 49.75-49.75 73.75-18.25 90.25 18.25 90.25 49.75 73.75 73.75 49.75 90.25 18.25 90.25-18.25 73.75-49.75 49.75-73.75 18.25-90.25zm-97.5-89.5l-89.5 89.5 89.5 89.5-45 45-89.5-89-89.5 89-45-45 89-89.5-89-89.5 45-45 89.5 89.5 89.5-89.5zm441.5 121.5q20 0 37.5 7.5t30.5 20.5 20.5 30.5 7.5 37.5-7.5 37.5-20.5 30.5-30.5 20.5-37.5 7.5-37.5-7.5-30.5-20.5-20.5-30.5-7.5-37.5 7.5-37.5 20.5-30.5 30.5-20.5 37.5-7.5zm-277-246q78.5-67 174-102.5t199-35.5v64q-94.5 0-181.75 33.5t-158.25 96.5q-7-14.5-15.25-28.75t-17.75-27.25zm68.5 205q27.5-35.5 61.5-63.5t73-47.5 82-29.75 88-10.25v64q-44 0-85 11.5t-76.5 32.25-64.75 50-50 64.75-32.25 76.5-11.5 85h-60.5q37.5-48.5 57-105.75t19.5-118.25q0-2.5-.25-4.5t-.25-4.5z"/></svg>