<svg width="1792" height="1792" viewBox="0 0 1792 1792" xmlns="http://www.w3.org/2000/svg"><path transform="scale(1.75 1.75) translate(0 0)" d="M864 768q20 0 37.5 7.5t30.5 20.5 20.5 30.5 7.5 37.5-7.5 37.5-20.5 30.5-30.5 20.5-37.5 7.5-37.5-7.5-30.5-20.5-20.5-30.5-7.5-37.5 7.5-37.5 20.5-30.5 30.5-20.5 37.5-7.5zm-276.5 100q16-64 51.25-117.75t84.75-92.5 110-60.25 126.5-21.5v64q-44 0-85 11.5t-76.5 32.25-64.75 50-50 64.75-32.25 76.5-11.5 85h-6.5zm-299.5-420l288 576h-576zm210.5 528l-210.5-420.5-210.5 420.5h421zm-242.5-272h64v160h-64v-160zm0 192h64v64h-64v-64z"/></svg>