<svg width="1792" height="1792" viewBox="0 0 1792 1792" xmlns="http://www.w3.org/2000/svg"><path transform="scale(1.75 1.75) translate(0 0)" d="M576 896q0-53 13.75-102.25t38.75-91.75 60-77.5 77.5-60 91.75-38.75 102.25-13.75v64q-44 0-85 11.5t-76.5 32.25-64.75 50-50 64.75-32.25 76.5-11.5 85h-64zm288-192q20 0 37.5 7.5t30.5 20.5 20.5 30.5 7.5 37.5-7.5 37.5-20.5 30.5-30.5 20.5-37.5 7.5-37.5-7.5-30.5-20.5-20.5-30.5-7.5-37.5 7.5-37.5 20.5-30.5 30.5-20.5 37.5-7.5zm-428.5-44.5q35-77.5 89.5-140.25t122.75-107 147.75-68.25 164.5-24v64q-79 0-152.25 23.25t-135.5 65.75-110.75 102.25-77.5 132.75zm-193.5-33.5q28-74.5 70-140.5t95.25-121.5 116.25-99.25 133.25-74.25 146.75-46.5 156.5-16v64q-76 0-148.25 15.75t-138.75 45.5-125.25 72.5-107.75 96.5-86.75 117.5-61.75 135.75z"/></svg>