<svg xmlns="http://www.w3.org/2000/svg" viewBox="0 0 2048 2048"><path d="M640 832q34 0 58 19.5t39.5 49 23 63 7.5 60.5-7.5 60.5-23 63-39.5 49-58 19.5-58-19.5-39.5-49-23-63-7.5-60.5 7.5-60.5 23-63 39.5-49 58-19.5zm768 0q34 0 58 19.5t39.5 49 23 63 7.5 60.5-7.5 60.5-23 63-39.5 49-58 19.5-58-19.5-39.5-49-23-63-7.5-60.5 7.5-60.5 23-63 39.5-49 58-19.5zm640 422v26q0 105-27.5 203t-78 183.5-120.5 156-155.5 120.5-183.5 77.5-203 27.5q-72 0-137.5-25.5T1024 1949q-53 48-118.5 73.5T768 2048q-105 0-203-27.5t-183.5-78-156-120.5T105 1666.5t-77.5-183T0 1280v-26l128-128V768q-26 0-45-19t-19-45 19-45 45-19V200q0-42 16-78.5T187 58t63.5-42.5T329 0q39 0 75.5 15.5T469 59l325 325h460l325-325q28-28 64-43.5T1719 0q42 0 78.5 15.5t64 43 43 64T1920 201v349q13-14 28-26t36-12q26 0 44.5 19t18.5 45q0 27-19 46l-94 95q5 10 15.5 29.5t23 44 25.5 51 24 50.5 18 42.5 7 26.5q0 27-18.5 45t-45.5 18q-26 0-40-14t-23-35v151zM256 640h1536V201q0-31-21.5-52t-51.5-21q-14 0-27 6t-23 16l-363 362H742L378 149q-21-21-49-21-30 0-51.5 20.5T256 200v440zm1024 1280q53 0 99.5-20t81.5-55 55-81.5 20-99.5-20-99.5-55-81.5-81.5-55-99.5-20h-128l-128 128-128-128H768q-53 0-99.5 20t-81.5 55-55 81.5-20 99.5 20 99.5 55 81.5 81.5 55 99.5 20q49 0 85.5-13.5T919 1870t54-54.5 51-67.5q26 36 51 67.5t54 54.5 65.5 36.5 85.5 13.5zm354-107q64-43 115.5-98.5t88-121 57.5-138 24-149.5l-127-127V768H256v411l-127 127q3 77 24 149.5t57.5 138 88 121T414 1813q-30-70-30-149t30.5-149 82.5-122 122-82.5 149-30.5h512q79 0 149 30.5t122 82.5 82.5 122 30.5 149-30 149z"/></svg>