<svg xmlns="http://www.w3.org/2000/svg" viewBox="0 0 2048 2048"><path d="M768 256h128v128H768V256zm256 0h128v128h-128V256zM512 1280q-27 0-50-10t-40.5-27.5-27.5-41-10-50.5V641q0-27 10-50.5t27.5-41T462 522t50-10V0h896v512q27 0 50 10t40.5 27.5 27.5 41 10 50.5v510q0 27-10 50.5t-27.5 41-40.5 27.5-50 10H512zm128-768h640V128H640v384zm-128 640h896V640H512v512zm1082 634q-128 126-291 194t-343 68-343-68-291-194l91-91q109 109 249 167t294 58 294-58 249-167zm-905-362q54 54 124.5 83t146.5 29 146.5-29 124.5-83l91 90q-73 73-166 111.5T960 1664t-196-38.5T598 1514z"/></svg>