<svg width="1792" height="1792" viewBox="0 0 1792 1792" xmlns="http://www.w3.org/2000/svg"><path transform="scale(1.75 1.75) translate(0 0)" d="M384 128h64v64h-64v-64zm128 0h64v64h-64v-64zm-256 512q-13.5 0-25-5t-20.25-13.75-13.75-20.5-5-25.25v-255q0-13.5 5-25.25t13.75-20.5 20.25-13.75 25-5v-256h448v256q13.5 0 25 5t20.25 13.75 13.75 20.5 5 25.25v255q0 13.5-5 25.25t-13.75 20.5-20.25 13.75-25 5h-448zm64-384h320v-192h-320v192zm-64 320h448v-256h-448v256zm541 317q-64 63-145.5 97t-171.5 34-171.5-34-145.5-97l45.5-45.5q54.5 54.5 124.5 83.5t147 29 147-29 124.5-83.5zm-452.5-181q27 27 62.25 41.5t73.25 14.5 73.25-14.5 62.25-41.5l45.5 45q-36.5 36.5-83 55.75t-98 19.25-98-19.25-83-55.75z"/></svg>