<svg width="1792" height="1792" viewBox="0 0 1792 1792" xmlns="http://www.w3.org/2000/svg"><path transform="scale(1.75 1.75) translate(0 0)" d="M614.5 640q12 0 17.5-6.5t7.25-15.75 1.25-19.75-.5-18l384-192v444h-1024v-444l384 192q0 7.5-.5 18t1.25 19.75 7.25 15.75 17.5 6.5h205zm409.5-448v124l-384 192q0-7.5.5-18t-1.25-19.75-7.25-15.75-17.5-6.5h-205q-12 0-17.5 6.5t-7.25 15.75-1.25 19.75.5 18l-384-192v-124h320v-64q0-13.5 5-25t13.75-20.25 20.25-13.75 25-5h256q13.5 0 25 5t20.25 13.75 13.75 20.25 5 25v64h320zm-384 0v-64h-256v64h256zm-64 320v64h-128v-64h128z"/></svg>