<svg width="1792" height="1792" viewBox="0 0 1792 1792" xmlns="http://www.w3.org/2000/svg"><path transform="scale(1.75 1.75) translate(0 0)" d="M248 441.5q6.5 0 14.5 2.25t16.25 5.25 16 6.5 14.25 6q-4 .5-8.25 1t-8.25.5q-8.5 0-15.5-2.75t-13.25-6.25-12-6.25-10.75-2.75-9 2-8 4.5q0-2-3.5-2 3.5-3.5 13-5.75t14.5-2.25zm67.5 22.5q20.5 0 37.5 7-7 2.5-14 4.25t-14.5 1.75q-10 0-18-2 2.5-4 5-5.25t4-5.75zm196.5-464q70.5 0 135.75 18.5t122 51.75 103.75 80.25 80.25 103.75 51.75 122 18.5 135.75-18.5 135.75-51.75 122-80.25 103.75-103.75 80.25-122 51.75-135.75 18.5-135.75-18.5-122-51.75-103.75-80.25-80.25-103.75-51.75-122-18.5-135.75 18.5-135.75 51.75-122 80.25-103.75 103.75-80.25 122-51.75 135.75-18.5zm381 277.5q-7-11-14-21.25t-14.5-20.25q-1 4.5-2.75 6.5t-1.75 9q0 4.5 3.75 8.75t9 7.75 10.75 6 9.5 3.5zm-34.5-49q0 4-1.5 5.5h3q2 0 3 .5zm-346.5 731.5q57 0 111.5-14.5t103.25-41.25 90-65 72.25-85.75q-6.5-15-12.5-30.5t-6-32q0-18 1.75-29.25t3.25-19.25 2.25-14.75-1.75-15.25-8.75-20.5-18.25-31q.5-3.5 1.75-9.5t1.75-12.5.25-12.25-2.25-9.25q-13-1.5-27.25-5.5t-24.75-12l3-2.5q-6.5 1.5-13 4.25t-12.75 5.25-12.75 4.25-13.5 1.75l-8-1 1.5-3.5q-7 2-15.25 5t-15.25 3q-5 0-14.5-3.5t-19.25-8.5-17-11-7.25-11.5l1-1.5q-2.5-3-6.5-5.5t-7.75-5-6.25-5.5-2.5-7l5.5-4.5-11.5-1.5-4-15q1 2.5 4.75 2t5.25-2l-18-9.5 12.5-32q-7-26-3.25-40t13.25-23.25 22.25-18 24.25-24.25l-1.5-6 33-40 7.5-1q14 0 31.5-1.25t35.5-3.5 35.5-5 32-6.25q-16-19-33.75-36t-37.25-32.5q-5.5 2-13.75 5.75t-15.75 9-12.75 11.75-5.25 13.5l3 9.5q-9 14.5-20 18.25t-22.75 4-24-.25-23.75 4.5l-8-17 7.5-29-8.5-12.5 86.5-27q-5.5-14-18.25-21t-27.25-7v-5l28-4.5q-46.5-23-96.75-35t-102.25-12q-43.5 0-86 8.5t-82.25 24.75-76.25 39.75-67.5 54q13 0 20.25 6.75t13 14.5 12.25 14.5 17.5 6.75l8-6-1-11 16.5-23.5-13-37q2.5-1.5 7.75-5t8.25-3.5q15 0 23.25 1.5t13.75 5.75 10.5 11.5 14 18.75l18-14q5 2 16.25 6.75t22.25 11 19.5 13.25 8.5 13q0 7.5-5.75 12t-14.25 7.5-18.75 4.75-18.75 3.75-14.5 5.25-6 8.25l29 9.5q-10 8.5-21.75 15.75t-23.75 12.75l2 8.5-46 18v14l-3.5 1.5 2.5-17.5-2-.5q-3.5 0-4.25 1.5t-.25 3.5 1.25 4 .25 3l-6.5-3.5 1 2q0 1.5 1.75 4.5t4 5.75 4 5l1.75 2.25q0 1.5-2.25 3t-4.75 2.25-4 1.25 0 .5q7 0 2.75 1t-12.25 5-15.75 11.75-7.75 21.75q0 8.5.75 16.5t-.75 16.5q-7-19-21-29t-34-10l-21.5 2 10.5 7q-8.5-1-17.75-2t-18.25-.25-17.25 4-14.75 10.25l-3 22.5q0 16 7.25 26.25t24.25 10.25q15 0 29.5-4.75t28.5-10.25q-4.5 11-10 21.25t-8 21.75l6.5 3q12-8 22-2.5t19.5 16 19.5 21.75 21.5 15.75l-17 9-40-22.5q.5 1 1.25 4.5t-.75 1.5l-18-30.5q-16-.5-34.25-5.25t-36.25-12-34.75-16.5-29.25-18.75l-3.5 53.5q0 61 16.5 119t46.75 109 73.25 93.25 96.5 71.25q-2.5-10.5-.5-21t5.25-21 6.5-21.25 3.25-21.25q0-16-5-33.75t-12.25-35.5-15.25-35.25-13.75-33.25-7.75-29 3-23.25l-7.5-3.5q3-7 8.25-13.5t10.25-13.25 8.5-13.75 3.5-15q0-5-2.25-10.75t-3.25-10.25l10.5 2.5q8.5-19.5 23.25-26.75t36.25-7.25q2.5 0 10.5 2.25t17 5.25l17.25 5.75 11.75 3.75q0 3.5 4.25 4.75t4.25 3.25l-1 4q1.5.5 7.25 3.75t12 7.25 11.5 8 6.75 5.5q9 0 24.75 6t33.75 15.25 36.75 21.5 33.75 25 24.75 25 9.75 21.75l-17 18q2 25.5-3.75 39.25t-17 22.25-26.5 15-32.25 17q0 10-5 21.75t-12.75 22-18 17.25-20.75 7l-21-16q1 1-.25 3.75t-2.25.75q5 9.5 2.5 22t-8.5 25.5-13.5 24.75-13.5 19.25q27 7 54 10.5t54.5 3.5z"/></svg>