<svg xmlns="http://www.w3.org/2000/svg" viewBox="0 0 2048 2048"><path d="M496 883q13 0 29 4.5t32.5 10.5 32 13 28.5 12q-8 1-16.5 2t-16.5 1q-17 0-31-5.5T527.5 908t-24-12.5T482 890t-18 4-16 9q0-4-7-4 7-7 26-11.5t29-4.5zm135 45q41 0 75 14-14 5-28 8.5t-29 3.5q-20 0-36-4 5-8 10-10.5t8-11.5zM1024 0q141 0 271.5 37t244 103.5T1747 301t160.5 207.5 103.5 244 37 271.5-37 271.5-103.5 244T1747 1747t-207.5 160.5-244 103.5-271.5 37-271.5-37-244-103.5T301 1747t-160.5-207.5-103.5-244T0 1024t37-271.5 103.5-244T301 301t207.5-160.5T752.5 37 1024 0zm762 555q-14-22-28-42.5t-29-40.5q-2 9-5.5 13t-3.5 18q0 9 7.5 17.5t18 15.5 21.5 12 19 7zm-69-98q0 8-3 11h6q4 0 6 1zm-693 1463q114 0 223-29t206.5-82.5 180-130T1778 1507q-13-30-25-61t-12-64q0-36 3.5-58.5t6.5-38.5 4.5-29.5-3.5-30.5-17.5-41-36.5-62q1-7 3.5-19t3.5-25 .5-24.5-4.5-18.5q-26-3-54.5-11t-49.5-24l6-5q-13 3-26 8.5t-25.5 10.5-25.5 8.5-27 3.5l-16-2 3-7q-14 4-30.5 10t-30.5 6q-10 0-29-7t-38.5-17-34-22-14.5-23l2-3q-5-6-13-11t-15.5-10-12.5-11-5-14l11-9-23-3-8-30q2 5 9.5 4t10.5-4l-36-19 25-64q-14-52-6.5-80t26.5-46.5 44.5-36T1367 579l-3-12 66-80 15-2q28 0 63-2.5t71-7 71-10 64-12.5q-32-38-67.5-72t-74.5-65q-11 4-27.5 11.5t-31.5 18-25.5 23.5-10.5 27l6 19q-18 29-40 36.5t-45.5 8-48-.5-47.5 9l-16-34 15-58-17-25 173-54q-11-28-36.5-42t-54.5-14v-10l56-9q-93-46-193.5-70T1024 128q-87 0-172 17t-164.5 49.5T535 274 400 382q26 0 40.5 13.5t26 29 24.5 29 35 13.5l16-12-2-22 33-47-26-74q5-3 15.5-10t16.5-7q30 0 46.5 3t27.5 11.5 21 23 28 37.5l36-28q10 4 32.5 13.5t44.5 22 39 26.5 17 26q0 15-11.5 24T831 469t-37.5 9.5T756 486t-29 10.5-12 16.5l58 19q-20 17-43.5 31.5T682 589l4 17-92 36v28l-7 3 5-35-4-1q-7 0-8.5 3t-.5 7 2.5 8 .5 6l-13-7 2 4q0 3 3.5 9t8 11.5 8 10l3.5 4.5q0 3-4.5 6t-9.5 4.5-8 2.5 0 1q14 0 5.5 2T553 719t-31.5 23.5T506 786q0 17 1.5 33t-1.5 33q-14-38-42-58t-68-20l-43 4 21 14q-17-2-35.5-4t-36.5-.5-34.5 8T238 816l-6 45q0 32 14.5 52.5T295 934q30 0 59-9.5t57-20.5q-9 22-20 42.5T375 990l13 6q24-16 44-5t39 32 39 43.5 43 31.5l-34 18-80-45q1 2 2.5 9t-1.5 3l-36-61q-32-1-68.5-10.5t-72.5-24-69.5-33T135 917l-7 107q0 122 33 238t93.5 218T401 1666.5 594 1809q-5-21-1-42t10.5-42 13-42.5 6.5-42.5q0-32-10-67.5t-24.5-71T558 1431t-27.5-66.5-15.5-58 6-46.5l-15-7q6-14 16.5-27t20.5-26.5 17-27.5 7-30q0-10-4.5-21.5T556 1100l21 5q17-39 46.5-53.5T696 1037q5 0 21 4.5t34 10.5l34.5 11.5 23.5 7.5q0 7 8.5 9.5t8.5 6.5l-2 8q3 1 14.5 7.5t24 14.5 23 16 13.5 11q18 0 49.5 12t67.5 30.5 73.5 43 67.5 50 49.5 50 19.5 43.5l-34 36q4 51-7.5 78.5t-34 44.5-53 30-64.5 34q0 20-10 43.5t-25.5 44-36 34.5-41.5 14l-42-32q2 2-.5 7.5t-4.5 1.5q10 19 5 44t-17 51-27 49.5-27 38.5q54 14 108 21t109 7z"/></svg>