<svg width="1792" height="1792" viewBox="0 0 1792 1792" xmlns="http://www.w3.org/2000/svg"><path transform="scale(1.75 1.75) translate(0 0)" d="M448 512q0-13.5 5-25t13.75-20.25 20.25-13.75 25-5 25 5 20.25 13.75 13.75 20.25 5 25-5 25-13.75 20.25-20.25 13.75-25 5-25-5-20.25-13.75-13.75-20.25-5-25zm-64-320q-13 0-22.5-9.5t-9.5-22.5 9.5-22.5 22.5-9.5h96v-96q0-13 9.5-22.5t22.5-9.5 22.5 9.5 9.5 22.5v96h96q13 0 22.5 9.5t9.5 22.5-9.5 22.5-22.5 9.5h-96v96q0 13-9.5 22.5t-22.5 9.5-22.5-9.5-9.5-22.5v-96h-96zm256 576q13 0 22.5 9.5t9.5 22.5-9.5 22.5-22.5 9.5h-256q-13 0-22.5-9.5t-9.5-22.5 9.5-22.5 22.5-9.5h256z"/></svg>