<svg xmlns="http://www.w3.org/2000/svg" viewBox="0 0 2048 2048"><path d="M2048 1978q0 28-17 49t-47 21q-26 0-45-19l-785-784q-96 79-210.5 121T704 1408q-97 0-187-25t-168-71-142.5-110.5T96 1059 25 891 0 704t25-187 71-168 110.5-142.5T349 96t168-71T704 0t187 25 168 71 142.5 110.5T1312 349t71 168 25 187q0 125-42 239.5T1245 1154q15 15 57.5 57t102 100 130 127.5 142 141T1815 1719t119 123 83 91.5 31 44.5zM704 1280q119 0 224-45.5t183-123.5 123.5-183 45.5-224-45.5-224T1111 297 928 173.5 704 128t-224 45.5T297 297 173.5 480 128 704t45.5 224T297 1111t183 123.5 224 45.5z"/></svg>