<svg width="1792" height="1792" viewBox="0 0 1792 1792" xmlns="http://www.w3.org/2000/svg"><path transform="scale(1.75 1.75) translate(0 0)" d="M1014.5 969.5q9.5 9.5 9.5 22.5t-9.5 22.5-22.5 9.5-22.5-9.5l-392.5-392q-48 39.5-105.25 60.5t-119.75 21q-48.5 0-93.5-12.5t-84-35.5-71.25-55.25-55.25-71.25-35.5-84-12.5-93.5 12.5-93.5 35.5-84 55.25-71.25 71.25-55.25 84-35.5 93.5-12.5 93.5 12.5 84 35.5 71.25 55.25 55.25 71.25 35.5 84 12.5 93.5q0 62.5-21 119.75t-60.5 105.25zm-662.5-329.5q59.5 0 112-22.75t91.5-61.75 61.75-91.5 22.75-112-22.75-112-61.75-91.5-91.5-61.75-112-22.75-112 22.75-91.5 61.75-61.75 91.5-22.75 112 22.75 112 61.75 91.5 91.5 61.75 112 22.75zm32-320h128v64h-128v128h-64v-128h-128v-64h128v-128h64v128z"/></svg>