<svg width="1792" height="1792" viewBox="0 0 1792 1792" xmlns="http://www.w3.org/2000/svg"><path transform="scale(1.75 1.75) translate(0 0)" d="M1024 989q0 14-8.5 24.5t-23.5 10.5q-13 0-22.5-9.5l-392.5-392q-48 39.5-105.25 60.5t-119.75 21q-48.5 0-93.5-12.5t-84-35.5-71.25-55.25-55.25-71.25-35.5-84-12.5-93.5 12.5-93.5 35.5-84 55.25-71.25 71.25-55.25 84-35.5 93.5-12.5 93.5 12.5 84 35.5 71.25 55.25 55.25 71.25 35.5 84 12.5 93.5q0 62.5-21 119.75t-60.5 105.25q7.5 7.5 28.75 28.5t51 50 65 63.75 71 70.5 69.25 69.75 59.5 61.5 41.5 45.75 15.5 22.25zm-672-349q59.5 0 112-22.75t91.5-61.75 61.75-91.5 22.75-112-22.75-112-61.75-91.5-91.5-61.75-112-22.75-112 22.75-91.5 61.75-61.75 91.5-22.75 112 22.75 112 61.75 91.5 91.5 61.75 112 22.75z"/></svg>