<?xml version="1.0" standalone="no"?>
<!DOCTYPE svg PUBLIC "-//W3C//DTD SVG 1.1//EN" "http://www.w3.org/Graphics/SVG/1.1/DTD/svg11.dtd">
<svg xmlns="http://www.w3.org/2000/svg">
<metadata>config by xstar.ir</metadata>
<defs>
<font id="mdl2-v136" horiz-adv-x="1000" >
<font-face font-family="mdl2-v136" font-weight="400" font-stretch="normal" units-per-em="1000" ascent="850" descent="-150" />
<missing-glyph horiz-adv-x="1000" />
<glyph glyph-name=".notdef" unicode="&#xe800;" d="m81-150v683h484v-683h-484z m72 72h339v538h-339v-538z" horiz-adv-x="645.5" />
<glyph glyph-name="uniE700" unicode="&#xe801;" d="m1000 538h-1000v62h1000v-62 0z m0-500h-1000v62h1000v-62 0z m0 250h-1000v62h1000v-62 0z" horiz-adv-x="1000" />
<glyph glyph-name="uniE011" unicode="&#xe802;" d="m500 175l447 447 44-44-491-491-491 491 44 44 447-447v0z" horiz-adv-x="1000" />
<glyph glyph-name="uniE844" unicode="&#xe803;" d="m94 221q3 0 6-2t5-4q26-17 53-37t51-44 48-48 40-51q1-2 3-6t2-6q0-4-8-12t-17-16-18-14-10-6q-4 0-6 2t-5 6q-21 28-41 53t-43 48-47 44-53 42q-1 1-4 3t-3 4q0 3 6 10t15 15 15 13 11 6z m537 33q29 0 54-11t45-29 31-45 11-54-11-55-31-44-45-29-54-11-55 11-44 29-31 44-11 55 11 54 30 45 45 29 55 11z m0-228q18 0 35 7t28 18 19 29 7 35-7 35-19 28-28 19-35 7q-19 0-35-7t-29-19-19-28-6-35 7-35 19-28 28-19 35-7z m503 127h109v-107h-109v107z m68 697q45 0 85-12t70-36 49-60 17-85q0-37-11-66t-29-52-39-44-42-39-39-40-27-45q-4-11-7-24t-4-27-2-27-1-25h-66q0 18 1 36t2 37 6 36 12 35q11 23 27 42t34 37 35 35 32 37 23 43 8 51q0 31-9 54t-28 39-42 23-53 8q-37 0-64-10t-46-30-30-47-16-62l-82 21q9 47 29 83t50 62 70 39 87 13z m473-583l-19 570h106l-23-570h-64z m88-114v-107h-109v107h109z" horiz-adv-x="1762.7" />
<glyph glyph-name="uniE109" unicode="&#xe804;" d="m1000 381v-62h-469v-469h-62v469h-469v62h469v469h62v-469h469v0z" horiz-adv-x="1000" />
<glyph glyph-name="uniE10A" unicode="&#xe805;" d="m881 687l-337-337 337-337-44-44-337 337-337-337-44 44 337 337-337 337 44 44 337-337 337 337 44-44v0z" horiz-adv-x="1000" />
<glyph glyph-name="uniE115" unicode="&#xe806;" d="m871 368q0-5 0-9t0-9 0-9 0-9l126-78-78-187-145 33q-11-13-24-24l33-145-187-78-78 126q-5 0-9 0t-9 0-9 0-9 0l-78-126-187 78 33 145q-13 11-24 24l-145-33-78 187 126 78q0 5 0 9t0 9 0 9 0 9l-126 78 78 187 145-33q11 13 24 24l-33 145 187 78 78-126q5 0 9 0t9 0 9 0 9 0l78 126 187-78-33-145q13-11 24-24l145 33 78-187z m-57-64q1 12 1 23t1 24q0 11-1 22t-1 23l115 72-42 102-133-31q-15 19-31 34t-34 31l31 133-102 42-72-115q-11 1-23 1t-23 1q-12 0-23-1t-23-1l-72 115-102-42 31-133q-18-15-34-31t-31-34l-133 31-42-102 116-72q-1-12-2-23t-1-23q0-12 1-23t2-23l-116-72 42-102 133 31q15-18 31-34t34-31l-31-133 102-42 72 116q11-1 23-2t23-1q12 0 23 1t23 2l72-116 102 42-31 133q19 15 34 31t31 34l133-31 42 102z m-314 230q38 0 72-15t58-39 39-58 15-72-15-71-39-59-58-39-72-15-71 15-59 39-39 59-15 71 15 72 39 58 59 39 71 15z m0-313q27 0 50 10t41 28 28 41 10 50-10 50-28 41-41 28-50 10-50-10-41-28-28-41-10-50 10-50 28-41 41-28 50-10z" horiz-adv-x="1000" />
<glyph glyph-name="uniE119" unicode="&#xe807;" d="m0 663h1000v-625h-1000v625z m930-63h-860l430-215z m-867-500h875v434l-438-219-437 219v-434z" horiz-adv-x="1000" />
<glyph glyph-name="uniE141" unicode="&#xe808;" d="m1000 600v-437h-31q-38 0-70 16t-55 46h-241q-14-29-34-52t-46-39-55-25-62-9h-31v250h-312l-63 31 63 32h312v250h31q32 0 62-9t55-25 46-39 34-52h241q23 29 55 46t70 16h31z m-62-68q-12-4-20-10t-15-13-13-15-11-19h-319l-7 21q-14 39-45 65t-70 36v-431q40 8 70 35t45 66l7 21h319q6-10 11-19t13-16 15-13 20-10v302z" horiz-adv-x="1000" />
<glyph glyph-name="uniE16E" unicode="&#xe809;" d="m0 788h1000v-107l-375-375v-394h-250v394l-375 375v107z m938-81v18h-875v-18l375-375v-357h125v357z" horiz-adv-x="1000" />
<glyph glyph-name="uniE72D" unicode="&#xe80a;" d="m928 200q17-11 30-25t23-31 14-37 5-38q0-32-12-61t-34-49-50-34-60-13q-45 0-83 24-56-42-123-64t-138-22-137 22-124 64q-38-24-83-24-32 0-60 13t-50 34-33 49-13 61q0 19 5 38t14 37 23 31 30 25q-5 22-7 44t-2 44q0 67 20 130t57 117 89 96 115 65q0 32 13 60t33 49 50 33 60 12 60-12 50-33 33-49 13-60q64-24 116-65t88-96 57-117 21-130q0-22-3-44t-7-44z m-428 588q-19 0-37-8t-29-20-20-30-8-36 8-37 20-30 29-20 37-7 37 7 29 20 20 30 8 37-8 36-20 30-29 20-37 8z m-437-719q0-20 7-37t20-30 30-20 36-7 37 7 30 20 20 30 7 37-7 36-20 30-30 20-37 8-36-8-30-20-20-30-7-36z m437-157q58 0 113 18t102 50q-13 20-20 43t-7 46q0 32 12 60t34 50 49 34 61 12q6 0 12 0t13-2q6 32 6 65 0 57-16 110t-47 98-72 80-96 58q-9-22-24-40t-34-30-41-20-45-6-45 6-41 20-34 30-24 40q-53-22-95-58t-73-80-47-98-16-110q0-33 6-65 35 6 68-4t58-31 40-53 16-66q0-24-8-46t-20-43q48-33 103-50t112-18z m344 63q19 0 36 7t30 20 20 30 8 37-8 36-20 30-30 20-36 8-37-8-30-20-20-30-7-36 7-37 20-30 30-20 37-7z" horiz-adv-x="1000" />
<glyph glyph-name="uniE108" unicode="&#xe80b;" d="m1000 319h-1000v62h1000v-62 0z" horiz-adv-x="1000" />
<glyph glyph-name="uniE741" unicode="&#xe80c;" d="m813 350h62v-375h-375v63h268l-634 634 44 44 635-634v268 0z" horiz-adv-x="1000" />
<glyph glyph-name="uniE742" unicode="&#xe80d;" d="m866 28l-44-44-634 636v-270h-63v375h375v-62h-268l634-635v0z" horiz-adv-x="1000" />
<glyph glyph-name="uniE743" unicode="&#xe80e;" d="m0 850h1000v-1000h-1000v1000z m938-938v876h-875v-625h250v-251h625z" horiz-adv-x="1000" />
<glyph glyph-name="uniE744" unicode="&#xe80f;" d="m0 850h1000v-1000h-1000v1000z m938-938v876h-875v-438h437v-438h438z" horiz-adv-x="1000" />
<glyph glyph-name="uniE745" unicode="&#xe810;" d="m0 850h1000v-1000h-1000v1000z m63-500h875v438h-875v-438z" horiz-adv-x="1000" />
<glyph glyph-name="uniE746" unicode="&#xe811;" d="m0 850h1000v-1000h-1000v1000z m938-938v876h-438v-876h438z" horiz-adv-x="1000" />
<glyph glyph-name="uniE747" unicode="&#xe812;" d="m0 850h1000v-1000h-1000v1000 0z" horiz-adv-x="1000" />
<glyph glyph-name="uniE748" unicode="&#xe813;" d="m584 309l115-115-115-115-42 42 41 42h-270v62h270l-41 42z m-167-271h271v-63h-271l42-42-42-42-116 115 116 115 42-42z m199 478q45-18 81-48t62-68 39-82 15-93h-63q0 51-20 97t-53 80-80 53-97 20-97-20-79-53-54-80-20-97h-62q0 48 14 93t40 82 61 68 81 48q-34 26-53 65t-18 82q0 38 14 72t41 60 59 40 73 15 73-15 59-40 41-60 15-72q0-43-19-82t-53-65z m-241 147q0-26 10-49t27-40 39-26 49-10q25 0 48 10t40 26 27 40 10 49q0 25-10 48t-27 40-40 27-48 10q-26 0-49-10t-39-27-27-40-10-48z" horiz-adv-x="1000" />
<glyph glyph-name="uniE2F6" unicode="&#xe814;" d="m938 475q12 0 24-5t20-13 13-20 5-24v-438h-250v-125h-500v125h-250v438q0 12 5 24t13 20 20 13 25 5h187v375h500v-375h188z m-625 0h375v313h-375v-313z m375-312h-375v-251h375v251z m250 250h-875v-375h187v187h500v-187h188v375z m-782-63q13 0 22-9t10-22-10-22-22-9-22 9-9 22 9 22 22 9z" horiz-adv-x="1000" />
<glyph glyph-name="uniE750" unicode="&#xe815;" d="m491 172l-44 44 134 134-134 134 44 44 134-134 134 134 44-44-134-134 134-134-44-44-134 134z m-116 553h625v-750h-625l-375 375z m563-687v625h-537l-313-313 313-312h537z" horiz-adv-x="1000" />
<glyph glyph-name="uniE751" unicode="&#xe816;" d="m875 663v-375h-643l228-228-44-44-304 303 304 303 44-44-228-228h581v313h62v0z" horiz-adv-x="1000" />
<glyph glyph-name="uniE752" unicode="&#xe817;" d="m835 435l-44-44-228 227v-643h-63v643l-228-227-44 44 303 303 304-303v0z" horiz-adv-x="1000" />
<glyph glyph-name="uniE75D" unicode="&#xe818;" d="m875 225h-750v250h63v-187h625v187h62v-250 0z" horiz-adv-x="1000" />
<glyph glyph-name="uniE760" unicode="&#xe819;" d="m502 788q61 0 116-16t104-44 88-68 68-88 44-104 16-116-16-115-44-104-68-88-88-68-104-44-116-16-115 16-104 44-88 68-68 88-44 104-16 115 16 116 44 104 68 88 88 68 104 44 115 16z m0-808q52 0 99 13t89 38 76 58 58 76 38 89 13 98-13 99-38 89-58 76-76 58-89 38-99 13-98-13-89-38-76-58-58-76-38-89-13-99 13-98 38-89 58-76 76-58 89-38 98-13z m98 551l-181-181 181-181-44-44-225 225 225 225z" horiz-adv-x="1000" />
<glyph glyph-name="uniE761" unicode="&#xe81a;" d="m502 725q-51 0-98-13t-89-38-76-58-58-76-38-89-13-99 13-98 38-89 58-76 76-58 89-38 98-13 99 13 89 38 76 58 58 76 38 89 13 98-13 99-38 89-58 76-76 58-89 38-99 13z m0 63q61 0 116-16t104-44 88-68 68-88 44-104 16-116-16-115-44-104-68-88-88-68-104-44-116-16-115 16-104 44-88 68-68 88-44 104-16 115 16 116 44 104 68 88 88 68 104 44 115 16z m-42-663l-44 44 180 181-180 181 44 44 225-225z" horiz-adv-x="1000" />
<glyph glyph-name="uniE763" unicode="&#xe81b;" d="m871 663q14 0 27-6t21-16 13-22 6-27v-422q0-14-6-26t-13-23-21-15-27-6h-804q-15 0-27 6t-21 15-14 23-5 26v422q0 14 5 27t14 22 21 16 27 6h804z m4-71q0 6-4 8h-804q-4-2-4-8v-422q0-5 4-7h804q4 2 4 7v422z m-750-179h125v-63h-125v63z m0-125h125v-63h-125v63z m188 0h187v-63h-187v63z m0 125h62v-63h-62v63z m0 62h-63v63h63v-63z m-125 0h-63v63h63v-63z" horiz-adv-x="1000" />
<glyph glyph-name="uniE764" unicode="&#xe81c;" d="m871 663q14 0 27-6t21-16 13-22 6-27v-422q0-14-6-26t-13-23-21-15-27-6h-804q-15 0-27 6t-21 15-14 23-5 26v422q0 14 5 27t14 22 21 16 27 6h804z m4-71q0 6-4 8h-804q-4-2-4-8v-422q0-5 4-7h804q4 2 4 7v422z m-187-179h125v-63h-125v63z m0-125h125v-63h-125v63z m-250 0h187v-63h-187v63z m125 125h62v-63h-62v63z m125 62h-63v63h63v-63z m62 63h63v-63h-63v63z" horiz-adv-x="1000" />
<glyph glyph-name="uniE144" unicode="&#xe81d;" d="m871 663q14 0 27-6t21-16 13-22 6-27v-422q0-14-6-26t-13-23-21-15-27-6h-804q-15 0-27 6t-21 15-14 23-5 26v422q0 14 5 27t14 22 21 16 27 6h804z m4-71q0 6-4 8h-804q-4-2-4-8v-422q0-5 4-7h804q4 2 4 7v422z m-687-117h-63v63h63v-63z m-63-62h125v-63h-125v63z m563 0h125v-63h-125v63z m0-125h125v-63h-125v63z m-563 0h125v-63h-125v63z m188 0h312v-63h-312v63z m0 187h-63v63h63v-63z m0-62h62v-63h-62v63z m125 0h62v-63h-62v63z m125 0h62v-63h-62v63z m-125 62h-63v63h63v-63z m125 0h-63v63h63v-63z m125 0h-63v63h63v-63z m62 63h63v-63h-63v63z" horiz-adv-x="1000" />
<glyph glyph-name="uniE08F" unicode="&#xe81e;" d="m871 663q14 0 27-6t21-15 13-23 6-27v-422q0-14-6-26t-13-23-21-15-27-6h-804q-15 0-27 6t-21 15-14 23-5 26v422q0 14 5 27t14 23 21 15 27 6h804z m4-71q0 2-1 5t-3 3h-804q-2 0-3-3t-1-5v-422q0-1 1-4t3-3h804q2 0 3 3t1 4v422z m-750-54h63v-63h-63v63z m625-250h63v-63h-63v63z m-625 0h63v-63h-63v63z m125 0h125v-63h-125v63z m313 0h125v-63h-125v63z m-250 187h-63v63h63v-63z m-188-62h63v-63h-63v63z m188-63h-63v63h63v-63z m312 63h63v-63h-63v63z m125 0h63v-63h-63v63z m-125 125h63v-63h-63v63z m125 0h63v-63h-63v63z" horiz-adv-x="1000" />
<glyph glyph-name="uniE170" unicode="&#xe81f;" d="m313 413q-14 0-25 4t-20 14-13 20-5 24 5 24 13 20 20 14 25 5 24-5 20-14 13-20 5-24-5-24-13-20-20-14-24-4z m375 0q-14 0-25 4t-20 14-13 20-5 24 5 24 13 20 20 14 25 5 24-5 20-14 13-20 5-24-5-24-13-20-20-14-24-4z m-188 437q69 0 133-18t119-50 102-78 78-102 50-119 18-133-18-133-50-119-78-102-102-78-119-50-133-18-133 18-119 50-102 78-78 102-50 119-18 133q0 69 18 133t50 119 78 102 102 78 119 50 133 18z m0-938q60 0 116 16t105 44 88 69 69 89 44 104 16 116q0 60-16 116t-44 105-69 88-88 69-105 44-116 16-116-16-104-44-89-69-69-88-44-105-15-116 15-116 44-104 69-89 89-69 104-44 116-16z m0 188q36 0 69 10t62 28 52 44 40 57l56-28q-20-40-49-72t-66-55-78-34-86-12q-45 0-86 12t-78 34-65 55-50 72l56 28q17-32 40-57t52-44 62-28 69-10z" horiz-adv-x="1000" />
<glyph glyph-name="uniE206" unicode="&#xe820;" d="m0 788h1000v-688h-643l-232-232v232h-125v688z m938-625v562h-875v-562h125v-144l143 144h607z" horiz-adv-x="1000" />
<glyph glyph-name="uniE802" unicode="&#xe821;" d="m666 604l44-44-210-210-209 210 44 44 134-134v255h62v-255z m-166 246q69 0 133-18t119-50 101-79 79-101 50-119 18-133-18-133-50-119-79-101-101-79-119-50-133-18-133 18-119 50-101 79-79 101-50 119-18 133 18 133 50 119 79 101 101 79 119 50 133 18z m-419-625q4-16 11-31t13-31h474l-11 62h-487z m317-125l-21-62h226l-12 62h-193z m-66 0h-191q29-41 66-74t81-58z m168-188q63 0 123 18l-9 45h-258l-11-34q37-14 76-21t79-8z m182 40q53 24 98 62t79 86h-204z m214 211q6 15 12 31t11 31h-288l12-62h253z m37 125q5 31 5 62 0 60-16 116t-44 105-69 88-88 69-105 44-116 16-116-16-104-44-89-69-69-88-44-105-15-116q0-31 4-62h866z" horiz-adv-x="1000" />
<glyph glyph-name="uniE803" unicode="&#xe822;" d="m335 475l-44 44 209 210 210-210-44-44-135 134v-259h-62v259z m165 375q69 0 133-18t119-50 101-79 79-101 50-119 18-133-18-133-50-119-79-101-101-79-119-50-133-18-133 18-119 50-101 79-79 101-50 119-18 133 18 133 50 119 79 101 101 79 119 50 133 18z m0-62q-60 0-116-16t-104-44-89-69-69-88-44-105-15-116q0-32 4-62h866q5 30 5 62 0 60-16 116t-44 105-69 88-88 69-105 44-116 16z m91-688h-193l-21-62h226z m-11 63l-12 62h-487q9-32 24-62h475z m63 0h252q15 30 24 62h-288z m-502-63q29-41 66-74t81-58l44 132h-191z m204-159q37-14 76-21t79-8q63 0 123 18l-9 45h-258z m337 11q53 24 98 62t79 86h-204z" horiz-adv-x="1000" />
<glyph glyph-name="uniE809" unicode="&#xe823;" d="m844 725l156-750h-1000l156 750h688z m-438-248l-12-191h212l-12 191h-188z m-72-191l13 191h-182l-39-191h208z m76 250h180l-8 129h-163z m465-250l-40 191h-182l13-191h209z m-265-59h-220l-13-192h246z m59 0l13-192h245l-40 192h-218z m153 309l-27 129h-154l8-129h173z m-463 129h-154l-27-129h173z m-246-438l-40-192h245l13 192h-218z" horiz-adv-x="1000" />
<glyph glyph-name="uniE80A" unicode="&#xe824;" d="m0 850h1000v-1000h-1000v1000z m938-312v250h-250v-250h250z m-563-313h250v250h-250v-250z m250-62h-250v-251h250v251z m-312 62v250h-250v-250h250z m62 313h250v250h-250v-250z m313-63v-250h250v250h-250z m-375 313h-250v-250h250v250z m-250-625v-251h250v251h-250z m625-251h250v251h-250v-251z" horiz-adv-x="1000" />
<glyph glyph-name="uniE814" unicode="&#xe825;" d="m938-150h-938l469 938z m-500 563v-313h62v313h-62z m0-438h62v63h-62v-63z" horiz-adv-x="1000" />
<glyph glyph-name="uniE1D2" unicode="&#xe826;" d="m500 788q60 0 116-16t105-44 88-69 69-88 44-105 16-116-16-116-44-104-69-89-88-69-105-44-116-16-116 16-104 44-89 69-69 89-44 104-15 116q0 60 15 116t44 105 69 88 89 69 104 44 116 16z m0-813q52 0 100 13t89 38 76 59 59 76 38 89 13 100-13 100-38 89-59 76-76 59-89 38-100 13-100-13-89-38-76-59-59-76-38-89-13-100 13-100 38-89 59-76 76-59 89-38 100-13z m0 563q39 0 73-15t59-41 41-59 15-73-15-73-41-59-59-41-73-14-73 14-59 41-41 59-14 73 14 73 41 59 59 41 73 15z" horiz-adv-x="1000" />
<glyph glyph-name="uniE81E" unicode="&#xe827;" d="m813 444l187-94-187-94 187-93-500-251-500 251 188 93-188 94 188 94-188 94 500 250 500-250z m-673 94l360-181 360 181-360 180z m720-375l-117 58-243-121-243 121-117-58 360-181z m-360 7l360 180-117 59-243-121-243 121-117-59z" horiz-adv-x="1000" />
<glyph glyph-name="uniE826" unicode="&#xe828;" d="m1000 838v-613l-62 63v449l-250-125v-387l-63-62v449l-250 125v-555l162-81q11-6 21-10t20-9 19-9 21-13q0 0 6-6t15-15 19-19l20-20t16-17 9-8h-54l-305 153-344-173v696l344 171 312-156z m-937-781l250 125v555l-250-125v-555z m812 356v-331l80 79 44-44-155-155-155 155 44 44 80-79v331h62z m-187-501h312v-62h-312v62z" horiz-adv-x="1000" />
<glyph glyph-name="uniE850" unicode="&#xe829;" d="m906 319v-63h-31v-156h-750v375h750v-156h31z m-62 125h-688v-313h688v313z" horiz-adv-x="1000" />
<glyph glyph-name="uniE851" unicode="&#xe82a;" d="m906 319v-63h-31v-156h-750v375h750v-156h31z m-62 125h-688v-313h688v313z m-594-281h-62v250h62v-250z" horiz-adv-x="1000" />
<glyph glyph-name="uniE852" unicode="&#xe82b;" d="m906 319v-63h-31v-156h-750v375h750v-156h31z m-62 125h-688v-313h688v313z m-531-281h-125v250h125v-250z" horiz-adv-x="1000" />
<glyph glyph-name="uniE853" unicode="&#xe82c;" d="m906 319v-63h-31v-156h-750v375h750v-156h31z m-62 125h-688v-313h688v313z m-469-281h-187v250h187v-250z" horiz-adv-x="1000" />
<glyph glyph-name="uniE854" unicode="&#xe82d;" d="m906 319v-63h-31v-156h-750v375h750v-156h31z m-62 125h-688v-313h688v313z m-406-281h-250v250h250v-250z" horiz-adv-x="1000" />
<glyph glyph-name="uniE855" unicode="&#xe82e;" d="m906 319v-63h-31v-156h-750v375h750v-156h31z m-62 125h-688v-313h688v313z m-344-281h-312v250h312v-250z" horiz-adv-x="1000" />
<glyph glyph-name="uniE856" unicode="&#xe82f;" d="m906 319v-63h-31v-156h-750v375h750v-156h31z m-62 125h-688v-313h688v313z m-281-281h-375v250h375v-250z" horiz-adv-x="1000" />
<glyph glyph-name="uniE857" unicode="&#xe830;" d="m906 319v-63h-31v-156h-750v375h750v-156h31z m-62 125h-688v-313h688v313z m-219-281h-437v250h437v-250z" horiz-adv-x="1000" />
<glyph glyph-name="uniE858" unicode="&#xe831;" d="m906 319v-63h-31v-156h-750v375h750v-156h31z m-62 125h-688v-313h688v313z m-156-281h-500v250h500v-250z" horiz-adv-x="1000" />
<glyph glyph-name="uniE859" unicode="&#xe832;" d="m906 319v-63h-31v-156h-750v375h750v-156h31z m-62 125h-688v-313h688v313z m-94-281h-562v250h562v-250z" horiz-adv-x="1000" />
<glyph glyph-name="uniE85A" unicode="&#xe833;" d="m906 319v-63h-31v-156h-687v31h656v313h-594v31h625v-156h31z m-687 78q0-14-5-26t-13-23-20-18-25-10v-220h-31v220q-14 3-25 10t-20 18-13 23-4 26v78h31v63h31v-63h31v63h32v-63h31v-78z m-125 0q0-20 13-33t34-14 33 14 14 33v47h-94v-47z" horiz-adv-x="1000" />
<glyph glyph-name="uniE85B" unicode="&#xe834;" d="m906 319v-63h-31v-156h-687v31h656v313h-594v31h625v-156h31z m-687 78q0-14-5-26t-13-23-20-18-25-10v-220h-31v220q-14 3-25 10t-20 18-13 23-4 26v78h31v63h31v-63h31v63h32v-63h31v-78z m-125 0q0-20 13-33t34-14 33 14 14 33v47h-94v-47z m94-99q28 14 45 41t17 58v-234h-62v135z" horiz-adv-x="1000" />
<glyph glyph-name="uniE85C" unicode="&#xe835;" d="m906 319v-63h-31v-156h-687v31h656v313h-594v31h625v-156h31z m-687 78q0-14-5-26t-13-23-20-18-25-10v-220h-31v220q-14 3-25 10t-20 18-13 23-4 26v78h31v63h31v-63h31v63h32v-63h31v-78z m-125 0q0-20 13-33t34-14 33 14 14 33v47h-94v-47z m94-99q28 14 45 41t17 58v16h63v-250h-125v135z" horiz-adv-x="1000" />
<glyph glyph-name="uniE85D" unicode="&#xe836;" d="m906 319v-63h-31v-156h-687v31h656v313h-594v31h625v-156h31z m-687 78q0-14-5-26t-13-23-20-18-25-10v-220h-31v220q-14 3-25 10t-20 18-13 23-4 26v78h31v63h31v-63h31v63h32v-63h31v-78z m-125 0q0-20 13-33t34-14 33 14 14 33v47h-94v-47z m94-99q28 14 45 41t17 58v16h125v-250h-187v135z" horiz-adv-x="1000" />
<glyph glyph-name="uniE85E" unicode="&#xe837;" d="m906 319v-63h-31v-156h-687v31h656v313h-594v31h625v-156h31z m-687 78q0-14-5-26t-13-23-20-18-25-10v-220h-31v220q-14 3-25 10t-20 18-13 23-4 26v78h31v63h31v-63h31v63h32v-63h31v-78z m-125 0q0-20 13-33t34-14 33 14 14 33v47h-94v-47z m94-99q28 14 45 41t17 58v16h188v-250h-250v135z" horiz-adv-x="1000" />
<glyph glyph-name="uniE85F" unicode="&#xe838;" d="m906 319v-63h-31v-156h-687v31h656v313h-594v31h625v-156h31z m-687 78q0-14-5-26t-13-23-20-18-25-10v-220h-31v220q-14 3-25 10t-20 18-13 23-4 26v78h31v63h31v-63h31v63h32v-63h31v-78z m-125 0q0-20 13-33t34-14 33 14 14 33v47h-94v-47z m94-99q28 14 45 41t17 58v16h250v-250h-312v135z" horiz-adv-x="1000" />
<glyph glyph-name="uniE860" unicode="&#xe839;" d="m906 319v-63h-31v-156h-687v31h656v313h-594v31h625v-156h31z m-687 78q0-14-5-26t-13-23-20-18-25-10v-220h-31v220q-14 3-25 10t-20 18-13 23-4 26v78h31v63h31v-63h31v63h32v-63h31v-78z m-125 0q0-20 13-33t34-14 33 14 14 33v47h-94v-47z m94-99q28 14 45 41t17 58v16h313v-250h-375v135z" horiz-adv-x="1000" />
<glyph glyph-name="uniE861" unicode="&#xe83a;" d="m906 319v-63h-31v-156h-687v31h656v313h-594v31h625v-156h31z m-687 78q0-14-5-26t-13-23-20-18-25-10v-220h-31v220q-14 3-25 10t-20 18-13 23-4 26v78h31v63h31v-63h31v63h32v-63h31v-78z m-125 0q0-20 13-33t34-14 33 14 14 33v47h-94v-47z m94-99q28 14 45 41t17 58v16h375v-250h-437v135z" horiz-adv-x="1000" />
<glyph glyph-name="uniE862" unicode="&#xe83b;" d="m906 319v-63h-31v-156h-687v31h656v313h-594v31h625v-156h31z m-687 78q0-14-5-26t-13-23-20-18-25-10v-220h-31v220q-14 3-25 10t-20 18-13 23-4 26v78h31v63h31v-63h31v63h32v-63h31v-78z m-125 0q0-20 13-33t34-14 33 14 14 33v47h-94v-47z m94-99q28 14 45 41t17 58v16h438v-250h-500v135z" horiz-adv-x="1000" />
<glyph glyph-name="uniE863" unicode="&#xe83c;" d="m906 319v-63h-31v-156h-687v31h656v313h-605q-4 9-9 16t-12 14l-1 1h658v-156h31z m-688 78q0-14-4-26t-13-23-20-18-25-10v-220h-31v220q-14 3-25 10t-20 18-13 23-4 26q0 16 5 30t17 25l56 55 55-55q11-11 17-25t5-30z m-124 0q0-15 8-27t23-17v60h31v-60q14 4 23 17t9 27q0 19-14 33l-33 33-34-33q-13-14-13-33z" horiz-adv-x="1000" />
<glyph glyph-name="uniE864" unicode="&#xe83d;" d="m906 319v-63h-31v-156h-687v31h656v313h-605q-4 9-9 16t-12 14l-1 1h658v-156h31z m-688 78q0-14-4-26t-13-23-20-18-25-10v-220h-31v220q-14 3-25 10t-20 18-13 23-4 26q0 16 5 30t17 25l56 55 55-55q11-11 17-25t5-30z m-124 0q0-15 8-27t23-17v60h31v-60q14 4 23 17t9 27q0 19-14 33l-33 33-34-33q-13-14-13-33z m94-99q28 14 45 41t17 58v-234h-62v135z" horiz-adv-x="1000" />
<glyph glyph-name="uniE865" unicode="&#xe83e;" d="m906 319v-63h-31v-156h-687v31h656v313h-605q-4 9-9 16t-12 14l-1 1h658v-156h31z m-688 78q0-14-4-26t-13-23-20-18-25-10v-220h-31v220q-14 3-25 10t-20 18-13 23-4 26q0 16 5 30t17 25l56 55 55-55q11-11 17-25t5-30z m-124 0q0-15 8-27t23-17v60h31v-60q14 4 23 17t9 27q0 19-14 33l-33 33-34-33q-13-14-13-33z m94-99q28 14 45 41t17 58v16h63v-250h-125v135z" horiz-adv-x="1000" />
<glyph glyph-name="uniE866" unicode="&#xe83f;" d="m906 319v-63h-31v-156h-687v31h656v313h-605q-4 9-9 16t-12 14l-1 1h658v-156h31z m-688 78q0-14-4-26t-13-23-20-18-25-10v-220h-31v220q-14 3-25 10t-20 18-13 23-4 26q0 16 5 30t17 25l56 55 55-55q11-11 17-25t5-30z m-124 0q0-15 8-27t23-17v60h31v-60q14 4 23 17t9 27q0 19-14 33l-33 33-34-33q-13-14-13-33z m94-99q28 14 45 41t17 58v16h125v-250h-187v135z" horiz-adv-x="1000" />
<glyph glyph-name="uniE867" unicode="&#xe840;" d="m906 319v-63h-31v-156h-687v31h656v313h-605q-4 9-9 16t-12 14l-1 1h658v-156h31z m-688 78q0-14-4-26t-13-23-20-18-25-10v-220h-31v220q-14 3-25 10t-20 18-13 23-4 26q0 16 5 30t17 25l56 55 55-55q11-11 17-25t5-30z m-124 0q0-15 8-27t23-17v60h31v-60q14 4 23 17t9 27q0 19-14 33l-33 33-34-33q-13-14-13-33z m94-99q28 14 45 41t17 58v16h188v-250h-250v135z" horiz-adv-x="1000" />
<glyph glyph-name="uniE868" unicode="&#xe841;" d="m906 319v-63h-31v-156h-687v31h656v313h-605q-4 9-9 16t-12 14l-1 1h658v-156h31z m-688 78q0-14-4-26t-13-23-20-18-25-10v-220h-31v220q-14 3-25 10t-20 18-13 23-4 26q0 16 5 30t17 25l56 55 55-55q11-11 17-25t5-30z m-124 0q0-15 8-27t23-17v60h31v-60q14 4 23 17t9 27q0 19-14 33l-33 33-34-33q-13-14-13-33z m94-99q28 14 45 41t17 58v16h250v-250h-312v135z" horiz-adv-x="1000" />
<glyph glyph-name="uniE869" unicode="&#xe842;" d="m906 319v-63h-31v-156h-687v31h656v313h-605q-4 9-9 16t-12 14l-1 1h658v-156h31z m-688 78q0-14-4-26t-13-23-20-18-25-10v-220h-31v220q-14 3-25 10t-20 18-13 23-4 26q0 16 5 30t17 25l56 55 55-55q11-11 17-25t5-30z m-124 0q0-15 8-27t23-17v60h31v-60q14 4 23 17t9 27q0 19-14 33l-33 33-34-33q-13-14-13-33z m94-99q28 14 45 41t17 58v16h313v-250h-375v135z" horiz-adv-x="1000" />
<glyph glyph-name="uniE86A" unicode="&#xe843;" d="m906 319v-63h-31v-156h-687v31h656v313h-605q-4 9-9 16t-12 14l-1 1h658v-156h31z m-688 78q0-14-4-26t-13-23-20-18-25-10v-220h-31v220q-14 3-25 10t-20 18-13 23-4 26q0 16 5 30t17 25l56 55 55-55q11-11 17-25t5-30z m-124 0q0-15 8-27t23-17v60h31v-60q14 4 23 17t9 27q0 19-14 33l-33 33-34-33q-13-14-13-33z m94-99q28 14 45 41t17 58v16h375v-250h-437v135z" horiz-adv-x="1000" />
<glyph glyph-name="uniE86B" unicode="&#xe844;" d="m906 319v-63h-31v-156h-687v31h656v313h-605q-4 9-9 16t-12 14l-1 1h658v-156h31z m-688 78q0-14-4-26t-13-23-20-18-25-10v-220h-31v220q-14 3-25 10t-20 18-13 23-4 26q0 16 5 30t17 25l56 55 55-55q11-11 17-25t5-30z m-124 0q0-15 8-27t23-17v60h31v-60q14 4 23 17t9 27q0 19-14 33l-33 33-34-33q-13-14-13-33z m94-99q28 14 45 41t17 58v16h438v-250h-500v135z" horiz-adv-x="1000" />
<glyph glyph-name="uniE86C" unicode="&#xe845;" d="m188-150h-125v125h125v-125 0z" horiz-adv-x="1000" />
<glyph glyph-name="uniE86D" unicode="&#xe846;" d="m188-150h-125v125h125v-125 0z m187 0h-125v250h125v-250 0z" horiz-adv-x="1000" />
<glyph glyph-name="uniE86E" unicode="&#xe847;" d="m188-150h-125v125h125v-125 0z m187 0h-125v250h125v-250 0z m188 0h-125v375h125v-375 0z" horiz-adv-x="1000" />
<glyph glyph-name="uniE86F" unicode="&#xe848;" d="m188-150h-125v125h125v-125 0z m187 0h-125v250h125v-250 0z m188 0h-125v375h125v-375 0z m187 0h-125v500h125v-500 0z" horiz-adv-x="1000" />
<glyph glyph-name="uniE870" unicode="&#xe849;" d="m188-150h-125v125h125v-125 0z m187 0h-125v250h125v-250 0z m188 0h-125v375h125v-375 0z m187 0h-125v500h125v-500 0z m188 0h-125v625h125v-625 0z" horiz-adv-x="1000" />
<glyph glyph-name="uniE871" unicode="&#xe84a;" d="m781 288q46 0 86-18t69-46 47-70 17-85-17-86-47-69-69-47-86-17-85 17-69 47-47 69-17 86 17 85 47 70 69 46 85 18z m-156-219q0-32 12-61t34-50 50-33 60-13q23 0 45 7t41 19l-216 217q-13-19-19-41t-7-45z m287-86q12 19 19 41t7 45q0 32-13 60t-34 50-49 34-61 12q-23 0-45-7t-41-19z" horiz-adv-x="1000" />
<glyph glyph-name="uniE872" unicode="&#xe84b;" d="m875-56q0-20-7-37t-20-30-30-20-37-7-36 7-30 20-20 30-7 37 7 36 20 30 30 20 36 8 37-8 30-20 20-30 7-36z" horiz-adv-x="1000" />
<glyph glyph-name="uniE873" unicode="&#xe84c;" d="m500-150q0 52 13 100t38 89 59 76 76 59 89 38 100 13v-62q-43 0-83-12t-75-31-63-49-49-63-31-75-11-83h-63z m281 188q20 0 37-8t30-20 20-30 7-36-7-37-20-30-30-20-37-7-36 7-30 20-20 30-7 37 7 36 20 30 30 20 36 8z" horiz-adv-x="1000" />
<glyph glyph-name="uniE874" unicode="&#xe84d;" d="m500-150q0 52 13 100t38 89 59 76 76 59 89 38 100 13v-62q-43 0-83-12t-75-31-63-49-49-63-31-75-11-83h-63z m-187 0q0 78 20 150t56 134 88 114 114 88 134 57 150 20v-63q-69 0-133-18t-119-50-101-79-79-101-50-119-18-133h-62z m468 188q20 0 37-8t30-20 20-30 7-36-7-37-20-30-30-20-37-7-36 7-30 20-20 30-7 37 7 36 20 30 30 20 36 8z" horiz-adv-x="1000" />
<glyph glyph-name="uniE875" unicode="&#xe84e;" d="m313 38h125v-63h-125q-13 0-25 5t-20 13-13 20-5 25v625q0 13 5 24t13 20 20 13 25 5h419l143-143v-90q-14 13-30 23t-32 18v23l-107 107h-393v-625z m625 250v-313h-438v313h63v31q0 32 12 60t33 50 50 34 61 12 60-12 50-34 34-50 12-60v-31h63z m-313 0h188v31q0 19-8 36t-20 30-30 20-36 8-37-8-30-20-20-30-7-36v-31z m250-63h-312v-187h312v187z" horiz-adv-x="1000" />
<glyph glyph-name="uniE876" unicode="&#xe84f;" d="m719 413q45 0 85-18t70-46 46-70 18-85-18-85-46-70-70-47-85-17-85 17-70 47-47 70-17 85 17 85 47 70 70 46 85 18z m-156-219q0-32 12-61t33-50 50-33 61-12q23 0 45 6t41 19l-217 217q-12-19-19-41t-6-45z m286-86q13 19 19 41t7 45q0 32-12 60t-34 50-50 34-60 12q-23 0-45-7t-41-19z m-382-70q12-18 25-33t28-30h-207q-14 0-25 5t-20 13-13 20-5 25v625q0 13 5 24t13 20 20 13 25 5h419l143-143v-137q-15 10-30 17t-32 13v81l-107 107h-393v-625h154z" horiz-adv-x="1000" />
<glyph glyph-name="uniE877" unicode="&#xe850;" d="m607 350h-250l-147-147-44 44 165 166h250l147 147 44-44z m246 22l44-44-165-165h-250l-147-147-44 44 165 165h250z m-371 166h-250l-147-147-44 44 165 165h250l147 147 44-44z" horiz-adv-x="1000" />
<glyph glyph-name="uniE878" unicode="&#xe851;" d="m500 650l350-700h-700l350 700v0z" horiz-adv-x="1000" />
<glyph glyph-name="uniE879" unicode="&#xe852;" d="m500 650l350-700h-700z m0-112l-269-538h538z" horiz-adv-x="1000" />
<glyph glyph-name="uniE87A" unicode="&#xe853;" d="m0-25l375 750 375-750h-750z m772 772l178-178-178-178-44 44 103 103h-268v62h268l-103 103z" horiz-adv-x="1000" />
<glyph glyph-name="uniE87B" unicode="&#xe854;" d="m0-25l375 750 375-750h-750z m101 63h548l-274 547z m671 709l178-178-178-178-44 44 103 103h-268v62h268l-103 103z" horiz-adv-x="1000" />
<glyph glyph-name="uniE87C" unicode="&#xe855;" d="m875 225h-366q35-41 75-76t87-59 98-39 106-13v-63q-60 0-117 14t-108 41-97 63-84 83q-39-46-85-83t-96-63-108-41-117-14v63q55 0 106 13t97 39 87 59 76 76h-366v63h125v187h250v63h62v-63h250v-187h125v-63z m-625 63h188v125h-188v-125z m438 125h-188v-125h188v125z m-375 187h-188v63h188v125h62v-125h188v125h62v-125h188v-63h-188v-62h-62v62h-188v-62h-62v62z" horiz-adv-x="1000" />
<glyph glyph-name="uniE87D" unicode="&#xe856;" d="m500 413h188v-125h-188v125z m438 437v-938h-938v938h938z m-813-250h188v-62h62v62h188v-62h62v62h188v63h-188v125h-62v-125h-188v125h-62v-125h-188v-63z m750-312h-125v187h-250v63h-62v-63h-250v-187h-125v-63h365q-35-41-76-76t-87-59-97-39-105-13v-63q60 0 117 14t108 41 96 63 85 82q38-45 84-82t97-63 108-41 117-14v63q-55 0-106 13t-97 39-87 59-75 76h365v63z m-625 125h188v-125h-188v125z" horiz-adv-x="1000" />
<glyph glyph-name="uniE87E" unicode="&#xe857;" d="m1000 600v-62h-125v-63h-62v63h-188v-63h-62v63h-125v62h125v63h62v-63h188v63h62v-63h125z m-242-437q23-28 50-51t58-39 64-26 70-9v-63q-42 0-81 10t-74 28-68 44-58 56q-27-31-59-56t-67-44-75-28-80-10v63q36 0 70 9t64 26 57 39 50 51h-241v62h62v188h188v62h62v-62h188v-188h62v-62h-242z m-8 62h125v125h-125v-125z m-187 0h125v125h-125v-125z m-344 450l217-217-44-44-142 142v-581h-62v581l-143-142-43 44z" horiz-adv-x="1000" />
<glyph glyph-name="uniE87F" unicode="&#xe858;" d="m0 850h938v-938h-938v938z m705-436l44 44-280 280-280-280 44-44 205 204v-643h62v643z" horiz-adv-x="1000" />
<glyph glyph-name="uniE880" unicode="&#xe859;" d="m249 645l-44-43-142 141v-80h-63v187h188v-62h-81l142-143v0z" horiz-adv-x="1000" />
<glyph glyph-name="uniE881" unicode="&#xe85a;" d="m541 578l-166 165v-80h-62v187h187v-62h-81l166-166z m-416 272q26 0 49-10t39-27 27-39 10-49v-187h-250v187q0 26 10 49t27 39 39 27 49 10z m70-125q0 15-5 27t-15 23-23 15-27 5-27-5-23-15-15-23-5-27h140z" horiz-adv-x="1000" />
<glyph glyph-name="uniE882" unicode="&#xe85b;" d="m81 613q-3-3-6-6t-4-7h117v-62h-188v31q0 25 9 46t24 37 30 32 30 26 23 23 9 23q0 13-9 22t-22 10-22-10-9-22h-63q0 20 7 37t20 30 30 20 37 7 36-7 30-20 20-30 8-37q0-18-8-36t-20-30h0z" horiz-adv-x="1000" />
<glyph glyph-name="uniE883" unicode="&#xe85c;" d="m375 850q26 0 49-10t39-27 27-39 10-49v-187h-250v187q0 26 10 49t27 39 39 27 49 10z m0-55q-15 0-27-5t-23-15-15-23-5-27h140q0 15-5 27t-15 23-23 15-27 5z m-294-182q-3-3-6-6t-4-7h117v-62h-188v31q0 25 9 46t24 37 30 32 30 26 23 23 9 23q0 13-9 22t-22 10-22-10-9-22h-63q0 20 7 37t20 30 30 20 37 7 36-7 30-20 20-30 8-37q0-18-8-36t-20-30h0z" horiz-adv-x="1000" />
<glyph glyph-name="uniE884" unicode="&#xe85d;" d="m125 850v-312h-62v223q-15-6-31-9t-32-3v62q26 0 45 10t36 29h44z" horiz-adv-x="1000" />
<glyph glyph-name="uniE885" unicode="&#xe85e;" d="m0 811q26 0 45 10t36 29h44v-312h-62v223q-15-6-31-9t-32-3v62z m313 39q25 0 48-10t40-27 27-39 10-49v-187h-250v187q0 26 9 49t27 39 40 27 49 10z m0-55q-15 0-28-5t-22-15-15-23-6-27h141q0 15-6 27t-15 23-22 15-27 5z" horiz-adv-x="1000" />
<glyph glyph-name="uniE886" unicode="&#xe85f;" d="m0 850h438v-44l-188-188v-80h-62v80l-188 188v44z m188-143v81h-81z m62 0l81 81h-81v-81z" horiz-adv-x="1000" />
<glyph glyph-name="uniE887" unicode="&#xe860;" d="m251 653q11 0 18-8l36-36q8-7 8-18 0-10-8-17l-15-16t-15-11-16-7-21-2q-26 0-53 10t-54 29-50 41-42 50-28 54-11 53q0 13 2 22t7 16 12 14l15 16q8 7 18 7 11 0 18-7l36-36q7-8 7-18 0-9-5-16t-11-11-12-12-5-15q0-10 8-18l90-90q8-7 17-7 9 0 15 5t12 11 12 12 15 5z" horiz-adv-x="1000" />
<glyph glyph-name="uniE888" unicode="&#xe861;" d="m625 850q26 0 49-10t39-27 27-39 10-49v-187h-250v187q0 26 10 49t27 39 39 27 49 10z m0-55q-15 0-27-5t-23-15-15-23-5-27h140q0 15-5 27t-15 23-23 15-27 5z m-625 55h438v-44l-188-188v-80h-62v80l-188 188v44z m250-143l81 81h-81v-81z m-143 81l81-81v81h-81z" horiz-adv-x="1000" />
<glyph glyph-name="uniE889" unicode="&#xe862;" d="m125 850q26 0 49-10t39-27 27-39 10-49v-187h-250v187q0 26 10 49t27 39 39 27 49 10z m0-55q-15 0-27-5t-23-15-15-23-5-27h140q0 15-5 27t-15 23-23 15-27 5z" horiz-adv-x="1000" />
<glyph glyph-name="uniE88A" unicode="&#xe863;" d="m438 538h62v-688h-62v688z m-256 193q-29-28-51-62t-37-70-23-76-8-79 8-80 23-75 37-71 51-61l-45-45q-66 67-102 152t-35 180 35 179 102 152z m618 44q67-67 102-152t36-179-36-180-102-152l-44 45q28 28 50 61t38 71 23 75 8 80-8 79-23 76-38 70-50 62z m-132-132q39-40 61-92t21-107-21-108-61-91l-44 44q30 31 47 71t16 84-16 84-47 71z m-354-44q-31-31-47-71t-17-84 17-84 47-71l-44-44q-39 40-61 91t-21 108 21 107 61 92z" horiz-adv-x="1000" />
<glyph glyph-name="uniE88B" unicode="&#xe864;" d="m563 663h-438v62h188v125h62v-125h188v-62z m312-63v-62h-125v-375h-62v625h62v-188h125z m-500-562h438v-63h-500v250h62v-187z m125 406q0-33-12-62t-33-50-49-32-62-12q-34 0-63 11t-49 33-33 49-11 63 11 63 33 49 49 33 63 11 62-11 50-33 32-49 12-63z m-250 0q0-21 7-38t19-30 29-19 39-7 38 7 29 20 20 29 7 38q0 21-7 38t-20 30-29 19-38 7-38-7-30-19-19-30-7-38z" horiz-adv-x="1000" />
<glyph glyph-name="uniE88C" unicode="&#xe865;" d="m179 663q-31-38-69-68t-79-54l-31 55q35 20 68 46t60 58 43 69 17 81h62q0-33-8-64t-23-61h344v-62h-384z m635-210q41-33 87-59t96-46l-25-58q-52 23-101 50t-94 62q-25-31-55-58t-63-51l-36 51q30 22 57 46t50 53q-36 35-62 77t-38 92q-23-20-48-38t-51-33l-31 55q35 20 68 46t60 58 43 69 17 81h62q0-33-8-64t-23-61h219v-62h-63q0-26-4-54t-12-56-19-53-26-47z m-126 210q0-25 6-48t16-43 25-40 31-36q22 38 34 80t13 87h-125z m84-478l172-172-44-44-69 69h-268v-63q0-26-10-49t-27-39-40-27-48-10h-63v62h63q13 0 24 5t20 14 13 20 5 24v63h-375v62q91 0 179 15t174 48h-290v62q53 0 103 16t94 47h-260v125h-125v62h125v125h375v-125h125v-62h-125v-63h63v-62h-81q-18-18-37-34t-41-29h205v0q28 15 55 33t51 38l39-48q-60-48-126-85t-139-63h279l-40 41z m-334 228h-113l41-41-22-22h94v63z m0 125h-113l41-41-22-22h94v63z m-250-63h112l-41 41 22 22h-93v-63z m0-125h112l-41 41 22 22h-93v-63z m451-316l250-125-28-56-250 125z m-250-56l-250-125-28 56 250 125z" horiz-adv-x="1000" />
<glyph glyph-name="uniE88D" unicode="&#xe866;" d="m179 663q-31-38-69-68t-79-54l-31 55q35 20 68 46t60 58 43 69 17 81h62q0-33-8-64t-23-61h281v-62h-143l87-88-44-44-132 132h-89z m821 0h-143l87-88-44-44-132 132h-89q-31-38-69-68t-79-54l-31 55q35 20 68 46t60 58 43 69 17 81h62q0-33-8-64t-23-61h281v-62z m-875-250h63v-563h-63v563z m188-63h312v-438h-312v438z m250-375v125h-188v-125h188z m-188 313v-125h188v125h-188z m63 187h437v-531q0-20-7-37t-20-30-30-20-37-7h-93v62h93q13 0 22 10t10 22v469h-375v62z m-119-25l-44-44-141 141 44 44z" horiz-adv-x="1000" />
<glyph glyph-name="uniE701" unicode="&#xe867;" d="m500-150q0 52 13 100t38 89 59 76 76 59 89 38 100 13v-62q-43 0-83-12t-75-31-63-49-49-63-31-75-11-83h-63z m-187 0q0 78 20 150t56 134 88 114 114 88 134 57 150 20v-63q-69 0-133-18t-119-50-101-79-79-101-50-119-18-133h-62z m-188 0q0 103 27 199t76 179 117 152 152 118 179 75 199 27v-62q-95 0-182-25t-164-69-140-108-107-140-70-164-24-182h-63z m656 188q20 0 37-8t30-20 20-30 7-36-7-37-20-30-30-20-37-7-36 7-30 20-20 30-7 37 7 36 20 30 30 20 36 8z" horiz-adv-x="1000" />
<glyph glyph-name="uniE702" unicode="&#xe868;" d="m500-132v375l-165-165-44 44 196 197-196 197 44 44 165-166v375l263-263-188-187 188-188-263-263v0z m63 375v-224l111 112-111 112v0z m0 375v-224l111 112-111 112v0z" horiz-adv-x="1000" />
<glyph glyph-name="uniE703" unicode="&#xe869;" d="m250 38v-63h-125v63h125z m750-63h-437v-63h125v-62h-688v563h63v187h937v-625z m-677-73v458h-271v-458h271z m177 10v63h-125v-63h125z m-125 126h563v500h-813v-125h250v-375z" horiz-adv-x="1000" />
<glyph glyph-name="uniE705" unicode="&#xe86a;" d="m380 352l-69 70q-4-29-18-54t-34-42-47-28-56-10q-32 0-60 12t-50 33-34 50-12 61 12 61 34 49 50 34 60 12q32 0 60-12t51-34h0l157-158z m-224-2q20 0 37 7t30 20 20 30 7 37-7 36-20 30-30 20-37 8-36-8-30-20-20-30-7-36 7-37 20-30 30-20 36-7z m625 250q33 0 61-12t50-34 33-49 13-61-13-61-33-50-50-33-61-12q-23 0-40 4t-34 14-29 21-29 28l44 45q10-10 19-20t19-16 23-10 27-4q20 0 37 7t30 20 20 30 7 37-7 36-20 30-30 20-37 8q-18 0-36-8t-30-20l-313-312q-13-13-20-31t-7-36q0-19 7-36t20-30 30-20 37-7 36 7 30 20 20 30 8 36q0 16-4 28t-11 22-16 19-19 20l44 44q15-16 28-29t21-30 14-33 5-41q0-32-12-60t-34-50-49-34-61-12-61 12-50 34-33 50-12 60 11 60 34 51l313 312q22 23 50 34t60 12z m-312-138l-138 138h88l50-50 49 50h89z" horiz-adv-x="1000" />
<glyph glyph-name="uniE706" unicode="&#xe86b;" d="m469 600q45 0 85-17t70-47 46-69 18-86-18-85-46-69-70-47-85-17-85 17-70 47-47 69-17 85 17 86 47 69 70 47 85 17z m0-375q32 0 60 12t50 34 34 50 12 60-12 61-34 49-50 34-60 13-61-13-50-34-33-49-12-61 12-60 33-50 50-34 61-12z m31 438h-62v187h62v-187z m-62-563h62v-188h-62v188z m500 313v-63h-188v63h188z m-750-63h-188v63h188v-63z m60 208l-133 133 44 44 133-133z m442-353l132-133-44-44-132 132z m0 353l-44 44 132 133 44-44z m-442-353l44-45-133-132-44 44z" horiz-adv-x="1000" />
<glyph glyph-name="uniE1C4" unicode="&#xe86c;" d="m938-150h-938l188 563h250v127q-28 6-51 20t-39 35-26 46-9 53q0 32 12 60t33 50 50 34 61 12 60-12 50-34 34-50 12-60q0-28-9-53t-26-46-40-35-50-20v-127h250z m-563 844q0-20 7-37t20-30 30-20 37-7 36 7 30 20 20 30 8 37-8 36-20 30-30 20-36 8-37-8-30-20-20-30-7-36z m-288-782h764l-146 438h-205v-234q0-5-4-8t-8-5-11-2-8-1-9 1-10 2-9 5-3 8v234h-206z" horiz-adv-x="1000" />
<glyph glyph-name="uniE708" unicode="&#xe86d;" d="m906 100q11 0 21 1t20 1q-31-58-75-105t-98-79-116-50-127-18q-64 0-124 17t-112 47-95 73-73 95-48 112-16 125q0 60 14 117t43 107 66 92 86 74 103 51 116 26q-27-51-40-106t-13-111q0-65 16-125t48-112 73-94 95-74 112-47 124-17z m-375-188q86 0 163 34t135 97q-65 9-124 34t-109 61-91 83-70 103-44 117-16 128q0 68 17 131-60-22-110-60t-84-89-54-109-19-123q0-56 14-108t41-98 64-82 82-63 97-41 108-15z" horiz-adv-x="1000" />
<glyph glyph-name="uniE709" unicode="&#xe86e;" d="m875 475q25 0 48-10t40-27 27-40 10-48q0-26-10-49t-27-39-40-27-48-10h-219l-187-375h-219l125 375h-125l-31-62h-219l63 187-63 188h219l31-63h125l-125 375h219l187-375h219z m0-187q13 0 24 4t20 14 14 20 5 24-5 24-14 20-20 14-24 5h-257q-49 93-95 187t-93 188h-93q31-95 62-188t63-187h-251l-31 62h-93q10-31 20-62t21-63q-11-31-21-62t-20-63h93l31 63h251q-32-94-63-188t-62-188h93q48 95 93 188t95 188h257z" horiz-adv-x="1000" />
<glyph glyph-name="uniE70A" unicode="&#xe86f;" d="m922 600q16 0 30-6t25-17 17-25 6-30v-594q0-16-6-30t-17-25-25-17-30-6h-844q-16 0-30 6t-25 17-17 25-6 30v594q0 16 6 30t17 25 25 17 30 6h844z m16-78q0 7-5 11t-11 5h-844q-7 0-11-5t-4-11v-594q0-7 4-11t11-5h844q7 0 11 5t5 11v594z m-500-484h125v-63h-125v63z" horiz-adv-x="1000" />
<glyph glyph-name="uniE70B" unicode="&#xe870;" d="m63 725h875v-625l-250-250h-625v875z m62-62v-751h500v251h250v500h-750z m724-563h-161v-162z" horiz-adv-x="1000" />
<glyph glyph-name="uniE70C" unicode="&#xe871;" d="m875 663v-500h-1l-61 201v236h-688v-187h125v-188h458l-19-62h-189v-125h-187v62h125v63h-188v-125h-250v375h63v250h812z m-687-313h-125v-250h125v250z m593-405l-130-95 50 153-130 97h163l48 151 46-151h164l-130-97 50-153z" horiz-adv-x="1000" />
<glyph glyph-name="uniE010" unicode="&#xe872;" d="m955 102l-455 454-455-454-43 43 498 499 499-499-44-43v0z" horiz-adv-x="1000" />
<glyph glyph-name="uniE10C" unicode="&#xe873;" d="m125 413q13 0 24-5t20-14 14-20 5-24-5-24-14-20-20-14-24-4-24 4-20 14-14 20-4 24 4 24 14 20 20 14 24 5z m375 0q13 0 24-5t20-14 14-20 5-24-5-24-14-20-20-14-24-4-24 4-20 14-14 20-4 24 4 24 14 20 20 14 24 5z m375 0q13 0 24-5t20-14 14-20 5-24-5-24-14-20-20-14-24-4-24 4-20 14-14 20-4 24 4 24 14 20 20 14 24 5z" horiz-adv-x="1000" />
<glyph glyph-name="uniE116" unicode="&#xe874;" d="m1000 604v-508l-250 125v-121h-750v500h750v-121z m-312-441v375h-625v-375h625z m250 34v306l-188-94v-118z" horiz-adv-x="1000" />
<glyph glyph-name="uniE13A" unicode="&#xe875;" d="m785 258q21 0 41-8t35-23l107-108q15-15 24-35t8-41-8-41-24-35q-28-29-50-50t-48-37-54-22-72-8q-61 0-125 19t-128 53-125 80-116 101-101 116-79 125-51 128-19 123q0 42 8 71t22 54 37 48 50 50q15 15 34 24t42 8q21 0 41-8t35-24l108-107q15-15 23-35t8-41-8-39-18-30-23-25-24-22-18-22-7-23q0-19 13-32l269-269q13-13 32-13 12 0 23 7t22 18 22 24 25 23 30 18 39 8z m-41-346q35 0 59 7t43 19 37 31 41 42q14 13 14 32 0 9-8 21t-18 25-25 27-27 26-25 23-18 17q-13 13-32 13-13 0-24-7t-21-18-22-24-26-23-30-19-38-7-42 8-35 23l-269 269q-15 16-23 35t-8 42 7 38 19 30 23 26 24 22 18 21 7 24q0 19-13 32-6 6-17 18t-23 25-26 27-27 25-25 18-21 8q-19 0-32-14-23-23-42-41t-31-37-19-43-7-58q0-55 18-113t49-116 75-115 93-107 108-92 114-74 115-48 110-18z" horiz-adv-x="1000" />
<glyph glyph-name="uniE15B" unicode="&#xe876;" d="m63 788h875v-876h-875v876z m812-813v750h-750v-750h750z" horiz-adv-x="1000" />
<glyph glyph-name="uniE167" unicode="&#xe877;" d="m750 475v-62q37 0 71-9t60-27 41-49 16-72q0-32-13-60t-34-50-49-33-61-13h-250q-32 0-60 13t-50 33-33 50-13 60q0 43 15 72t42 49 60 27 71 9v62h-32q-45 0-85-17t-69-47-47-69-17-86 17-85 47-69 69-47 85-17h250q46 0 86 17t69 47 47 69 17 85-17 86-47 69-69 47-86 17h-31z m-312-250v63q37 0 71 8t59 27 42 49 15 72q0 32-12 60t-34 50-50 34-60 12h-250q-32 0-61-12t-49-34-34-50-12-60q0-43 15-72t41-49 60-27 71-8v-63h-31q-46 0-85 17t-70 47-47 70-17 85 17 85 47 69 70 47 85 18h250q45 0 85-18t69-47 47-69 18-85-18-85-47-70-69-47-85-17h-31z" horiz-adv-x="1000" />
<glyph glyph-name="uniE179" unicode="&#xe878;" d="m0 163v187h188v-187h-188z m63 125v-63h62v63h-62z m-63 125v187h188v-187h-188z m63 125v-63h62v63h-62z m-63 125v187h188v-187h-188z m63 125v-63h62v63h-62z m250-313v63h562v-63h-562z m437-187v-63h-437v63h437z m-437 500h687v-63h-687v63z m-313-876v188h188v-188h-188z m63 126v-63h62v63h-62z m250-63v63h562v-63h-562z" horiz-adv-x="1000" />
<glyph glyph-name="uniE1A3" unicode="&#xe879;" d="m1000-116q0-14-8-24t-23-10q-13 0-22 9l-383 383q-47-38-103-59t-117-20q-48 0-92 12t-82 34-69 54-54 70-35 82-12 91 12 92 35 82 54 69 69 54 82 35 92 12 91-12 82-35 70-54 54-69 34-82 13-92q0-61-21-117t-59-102q7-8 28-28t50-49 63-62 70-69 67-68 58-60 41-45 15-22z m-656 341q58 0 109 22t90 61 60 89 22 109-22 110-60 89-90 60-109 23-110-23-89-60-60-89-22-110 22-109 60-89 89-61 110-22z" horiz-adv-x="1000" />
<glyph glyph-name="uniE1A4" unicode="&#xe87a;" d="m1000-116q0-14-8-24t-23-10q-13 0-22 9l-383 383q-47-38-103-59t-117-20q-48 0-92 12t-82 34-69 54-54 70-35 82-12 91 12 92 35 82 54 69 69 54 82 35 92 12 91-12 82-35 70-54 54-69 34-82 13-92q0-61-21-117t-59-102q7-8 28-28t50-49 63-62 70-69 67-68 58-60 41-45 15-22z m-656 341q58 0 109 22t90 61 60 89 22 109-22 110-60 89-90 60-109 23-110-23-89-60-60-89-22-110 22-109 60-89 89-61 110-22z m-156 313h312v-63h-312v63z" horiz-adv-x="1000" />
<glyph glyph-name="uniE1D6" unicode="&#xe87b;" d="m344 100q-20 0-37 7t-30 20-20 30-7 37v562q0 20 7 37t20 30 30 20 37 7h250q19 0 36-7t30-20 20-30 8-37v-562q0-20-8-37t-20-30-30-20-36-7h-250z m-31 94q0-13 9-22t22-9h250q12 0 22 9t9 22v562q0 13-9 22t-22 10h-250q-13 0-22-10t-9-22v-562z m500 156v-177q0-41-16-77t-43-63-63-42-77-16h-114v-63h125v-62h-312v62h125v63h-115q-41 0-77 16t-63 42-42 63-16 77v177h63q0-27-2-60t-1-69 7-68 20-59 42-41 69-15h291q43 0 69 15t42 41 21 59 6 68 0 68-2 61h63z" horiz-adv-x="1000" />
<glyph glyph-name="uniE725" unicode="&#xe87c;" d="m997 381l-992-330 100 299h458l125 31-125 32h-458l-100 299 992-331v0z" horiz-adv-x="1000" />
<glyph glyph-name="uniE727" unicode="&#xe87d;" d="m0 788h1000v-813h-1000v813z m938-155v92h-92z m0-312v217h-217z m-280 279h246l-125 125h-246z m-66 0l-125 125h-243l125-125h243z m-529 125v-125h219l-125 125h-94z m466-687l-466 466v-246l220-220h246z m-433 500l500-500h249l-500 500h-249z m-33-346v-154h154z m848-154h27v216l-284 284h-243z" horiz-adv-x="1000" />
<glyph glyph-name="uniE728" unicode="&#xe87e;" d="m1000 475v-62h-429q-17 57-35 114t-36 114q-18-58-36-114t-35-114h-245q49-39 98-77t99-75q-19-61-38-121t-37-120q49 38 97 75t97 74v-79l-312-240 121 388-309 237h383l117 375 117-375h383z m-429-156h429v-63h-429v63z m0-156h429v-63h-429v63z m0-157h429v-62h-429v62z" horiz-adv-x="1000" />
<glyph glyph-name="uniE132" unicode="&#xe87f;" d="m563 832l294-294h-294v294z m-63 18v-375h375v-625h-750v1000h375z" horiz-adv-x="1000" />
<glyph glyph-name="uniE0AB" unicode="&#xe880;" d="m538 810l459-460-459-460-44 44 384 385h-878v62h878l-384 385 44 44v0z" horiz-adv-x="1000" />
<glyph glyph-name="uniE0A6" unicode="&#xe881;" d="m1000 381v-62h-878l384-385-44-44-459 460 459 460 44-44-384-385h878v0z" horiz-adv-x="1000" />
<glyph glyph-name="uniE149" unicode="&#xe882;" d="m633 831q81-21 149-68t116-110 75-142 27-161q0-69-18-133t-50-119-78-102-102-78-119-50-133-18-133 18-119 50-102 78-78 102-50 119-18 133q0 68 18 133t52 121 81 104 108 80h-134v62h250v-250h-62v145q-58-27-104-69t-79-92-50-111-17-123q0-60 15-116t44-104 69-89 89-69 104-44 116-16q60 0 116 16t105 44 88 69 69 89 44 104 16 116q0 73-24 141t-66 124-102 96-129 60l16 60v0z" horiz-adv-x="1000" />
<glyph glyph-name="uniE1F6" unicode="&#xe883;" d="m875 413v-563h-750v563h125v182q0 53 19 99t53 81 79 55 99 20 99-20 79-55 53-81 19-99v-182h125z m-562 0h375v182q0 40-15 75t-39 61-59 41-75 16-74-16-60-41-39-61-14-75v-182z m500-63h-625v-438h625v438z" horiz-adv-x="1000" />
<glyph glyph-name="uniE1DE" unicode="&#xe884;" d="m500 100h-62v63h62v-63z m0 563h-62v-438h62v438z m-31-812q-58 35-116 73t-109 84-97 95-77 109-51 124-19 139v250q41 0 79 3t74 11 71 22 70 36q42 27 83 40t92 13q25 0 47-3t44-10 42-16 41-24q35-22 70-36t72-22 74-11 79-3v-250q0-74-19-139t-51-124-78-109-96-95-110-84-115-73z m-406 813v-189q0-62 16-119t45-109 67-97 84-87 94-76 100-63q50 28 99 63t95 76 84 87 67 97 45 109 16 119v189q-73 3-139 23t-129 59q-33 22-66 32t-72 10-73-10-66-32q-61-40-128-59t-139-23z" horiz-adv-x="1000" />
<glyph glyph-name="uniE25B" unicode="&#xe885;" d="m500 850q69 0 133-18t119-50 101-79 79-101 50-119 18-133-18-133-50-119-79-101-101-79-119-50-133-18-133 18-119 50-101 79-79 101-50 119-18 133 18 133 50 119 79 101 101 79 119 50 133 18z m0-938q80 0 153 28t134 79l-618 618q-52-61-79-134t-27-153q0-60 15-116t44-105 69-88 88-69 105-44 116-16z m331 151q52 61 79 134t28 153q0 61-16 117t-44 104-69 88-88 69-104 44-117 16q-80 0-153-28t-134-79z" horiz-adv-x="1000" />
<glyph glyph-name="uniE1CE" unicode="&#xe886;" d="m691 238l122-388-313 240-312-240 121 388-309 237h383l117 375 117-375h383z m3-218q-19 61-37 120t-38 121q50 37 99 75t98 77h-245l-71 228-71-228h-245q49-39 98-77t99-75q-19-61-38-121t-37-120l194 149z" horiz-adv-x="1000" />
<glyph glyph-name="uniE003" unicode="&#xe887;" d="m0 850h1000v-1000h-1000v1000z m938-938v876h-875v-876h875z" horiz-adv-x="1000" />
<glyph glyph-name="uniE0A2" unicode="&#xe888;" d="m0 850h1000v-1000h-1000v1000z m938-938v876h-875v-876h875z m-563 144l-209 210 44 44 165-166 416 416 44-44-460-460v0z" horiz-adv-x="1000" />
<glyph glyph-name="uniE005" unicode="&#xe889;" d="m0 850h1000v-1000h-1000v1000z m375-794l460 460-44 44-416-416-165 166-44-44z" horiz-adv-x="1000" />
<glyph glyph-name="uniE1D8" unicode="&#xe88a;" d="m125 225v63h313v-313h-63v206l-330-330-43 44 329 330h-206z m874 580l-330-330h206v-62h-312v312h62v-206l330 330z" horiz-adv-x="1000" />
<glyph glyph-name="uniE1D9" unicode="&#xe88b;" d="m625 788h313v-313h-63v206l-706-706h206v-63h-312v313h62v-206l706 706h-206v63 0z" horiz-adv-x="1000" />
<glyph glyph-name="uniE110" unicode="&#xe88c;" d="m960 388l-44-44-385 384v-878h-62v878l-384-384-44 44 459 459 460-459v0z" horiz-adv-x="1000" />
<glyph glyph-name="uniE1FD" unicode="&#xe88d;" d="m916 356l44-44-460-459-459 459 44 44 384-384v878h62v-878l385 384v0z" horiz-adv-x="1000" />
<glyph glyph-name="uniE74C" unicode="&#xe88e;" d="m1000 569l-219-219h94v-438h-812v813h437v-94l219 219z m-281 204l-204-204 204-204 204 204z m-63-423l-156 156v-156h156z m-531 313v-313h313v313h-313z m313-688v313h-313v-313h313z m375 313h-313v-313h313v313z" horiz-adv-x="1000" />
<glyph glyph-name="uniE198" unicode="&#xe88f;" d="m143 538l188 187h44v-750h-44l-188 188h-143v375h143z m170-456v536l-144-143h-106v-250h106z m553 402l-134-134 134-134-44-44-134 134-135-134-44 44 134 134-134 134 44 44 135-134 134 134z" horiz-adv-x="1000" />
<glyph glyph-name="uniE753" unicode="&#xe890;" d="m811 413q39 0 74-15t60-40 40-59 15-74q0-39-15-73t-40-60-60-40-72-14h-563q-52 0-97 19t-80 54-53 79-20 98 20 97 53 80 80 53 97 20q23 0 45-5 20 30 46 55t56 40 64 26 70 9q54 0 103-19t85-53 61-79 31-99z m2-313q25 0 48 10t40 27 27 39 10 49-10 49-27 39-40 27-48 10h-63v31q0 46-17 86t-47 69-69 47-86 17q-34 0-66-10t-58-29-47-45-33-58q-36 17-77 17-39 0-73-15t-60-40-40-60-14-72q0-40 14-73t40-60 60-40 73-15h563z" horiz-adv-x="1000" />
<glyph glyph-name="uniE754" unicode="&#xe891;" d="m1000 663v-563h-232l-125 125h-643v313h643l125 125h232z m-937-375h562v187h-562v-187z m731-125h19v437h-19l-106-107v-224z m144 437h-63v-437h63v437z m-407-187q13 0 22-10t10-22-10-22-22-9-22 9-9 22 9 22 22 10z" horiz-adv-x="1000" />
<glyph glyph-name="uniE755" unicode="&#xe892;" d="m625 351q25 0 48-10t40-27 27-40 10-48v-63h63v-313h-375v313h62v63q0 25 10 48t27 40 39 27 49 10z m-62-188h125v63q0 12-5 24t-14 20-20 13-24 5q-13 0-24-5t-20-13-14-20-4-24v-63z m187-62h-250v-188h250v188z m-506 87l44 44 93-94-44-44z m362 662q13 0 25-4t20-14l331-331q9-8 13-20t5-24q0-12-5-24t-13-20l-171-171q-4 36-20 69l147 146-331 331-544-544 312-313v-77q-7 3-14 6t-12 9l-331 331q-9 8-13 20t-5 24q0 12 5 24t13 20l545 544q8 9 20 14t23 4z" horiz-adv-x="1000" />
<glyph glyph-name="uniE75A" unicode="&#xe893;" d="m0 725h1000v-750h-1000v750z m938-687v625h-875v-625h875z m-125 375v-250h-625v250h625z m-63-188v125h-500v-125h500z" horiz-adv-x="1000" />
<glyph glyph-name="uniE75B" unicode="&#xe894;" d="m0 725h1000v-750h-1000v750z m938-687v187h-875v-187h875z m-875 250h875v375h-875v-375z" horiz-adv-x="1000" />
<glyph glyph-name="uniE75C" unicode="&#xe895;" d="m544-25h206v-63h-529l-197 198q-11 12-18 27t-6 33 6 33 19 28l584 585 388-388z m65 753l-346-347 300-299 346 346z m-153-753l62 63-299 299-150-150q-6-6-6-17t6-17l178-178h209z" horiz-adv-x="1000" />
<glyph glyph-name="uniE75E" unicode="&#xe896;" d="m500 850q65 0 121-25t100-67 67-99 25-121v-375q0-65-25-122t-67-99-100-67-121-25-121 25-100 67-67 99-24 122v375q0 64 24 121t67 99 100 67 121 25z m0-500q39 0 73 15t59 40 41 60 15 73-15 72-41 60-59 40-73 15-73-15-59-40-41-60-14-72 14-73 41-60 59-40 73-15z m0 318q27 0 51-10t41-28 28-42 10-50-10-51-28-41-41-29-51-10-50 10-42 29-28 41-10 51 10 50 28 42 42 28 50 10z" horiz-adv-x="1000" />
<glyph glyph-name="uniE75F" unicode="&#xe897;" d="m313 663h-125v125h125v-125 0z m250 0h-125v125h125v-125 0z m250 0h-125v125h125v-125 0z m-500-250h-125v125h125v-125 0z m250 0h-125v125h125v-125 0z m250 0h-125v125h125v-125 0z m-500-250h-125v125h125v-125 0z m250 0h-125v125h125v-125 0z m0-251h-125v126h125v-126 0z m250 251h-125v125h125v-125 0z" horiz-adv-x="1000" />
<glyph glyph-name="uniE15D" unicode="&#xe898;" d="m817 792q44-44 78-95t57-108 36-117 12-122-12-122-36-117-57-108-78-95l-44 44q40 40 70 86t52 97 32 105 11 110-11 110-32 105-52 97-70 86z m-132-132q30-31 54-67t40-75 25-83 9-85q0-43-9-86t-25-81-40-76-54-67l-45 45q53 53 81 121t29 144-29 144-81 121z m-133-133q35-35 54-81t19-96-19-96-54-81l-44 44q26 27 40 61t15 72-15 72-40 61z m-221 198h44v-750h-44l-188 188h-143v375h143z m-18-107l-144-143h-106v-250h106l144-143v536z" horiz-adv-x="1000" />
<glyph glyph-name="uniE102" unicode="&#xe899;" d="m188 788l625-438-625-438v876z m62-121v-634l454 317z" horiz-adv-x="1000" />
<glyph glyph-name="uniE103" unicode="&#xe89a;" d="m313-25v750h62v-750h-62z m312 750h63v-750h-63v750z" horiz-adv-x="1000" />
<glyph glyph-name="uniE00E" unicode="&#xe89b;" d="m749-105l-44-44-499 499 499 499 44-44-455-455 455-455v0z" horiz-adv-x="1000" />
<glyph glyph-name="uniE00F" unicode="&#xe89c;" d="m252-105l454 455-454 455 43 44 499-499-499-499-43 44v0z" horiz-adv-x="1000" />
<glyph glyph-name="uniE76D" unicode="&#xe89d;" d="m938 600h-59l-219-437h-35q-1-14-2-35t-4-45-7-52-12-52-15-49-22-41-28-29-35-10q-26 0-45 18t-33 47-22 64-14 70-8 65-2 49h-36l-219 437h-58v250h62v-187h750v187h63v-250z m-438-688q11 6 20 24t16 41 11 51 8 53 5 48 2 34h-124q1-13 2-34t5-48 8-53 11-51 16-41 20-24z m309 688h-618l188-375h242z" horiz-adv-x="1000" />
<glyph glyph-name="uniE76F" unicode="&#xe89e;" d="m0 475h1000v-62h-1000v62z m0-250v63h1000v-63h-1000z" horiz-adv-x="1000" />
<glyph glyph-name="uniE770" unicode="&#xe89f;" d="m977 105q5-5 10-14t7-17 5-19 1-17q0-14-5-25t-13-20-20-13-24-5h-875q-14 0-25 5t-20 13-13 20-5 25q0 7 2 17t4 19 7 17 10 14l102 102v456h750v-456z m-789 120h625v375h-625v-375z m750-187q0 5-2 13t-6 13l-99 99h-662l-99-99q-4-4-5-13t-2-13h875z" horiz-adv-x="1000" />
<glyph glyph-name="uniE771" unicode="&#xe8a0;" d="m500-25v-63h125v-62h-312v62h125v63h-438v563h500l-63-63h-374v-437h812v375l63 62v-500h-438z m-250 188q13 0 24 4t20 14 14 20 5 24q0 24 8 45t24 39 35 27 44 14l347 347q14 13 32 21t37 7q20 0 38-8t31-20 20-31 8-39q0-19-7-37t-21-31l-347-348q-3-23-14-44t-27-35-38-23-45-9h-313v63h125z m590 500q-14 0-25-11l-217-217q28-21 50-49l217 217q10 10 10 24 0 15-10 25t-25 11z m-331-317q30-20 49-50l45 45q-20 29-50 50z m-9-121q0 13-5 24t-13 20-20 14-24 5-25-5-20-14-13-20-5-24q0-33-17-62h80q12 0 24 4t20 14 13 20 5 24z" horiz-adv-x="1000" />
<glyph glyph-name="uniE773" unicode="&#xe8a1;" d="m813 413q38 0 72-15t60-41 40-59 15-73-15-73-40-59-60-41-72-14q-30 0-58 8t-51 26q-8-8-26-27t-42-44-51-51-50-49-41-37-25-14q-13 0-22 9t-9 22q0 7 14 25t37 42 48 50 52 50 44 43 27 26q-17 23-26 51t-9 57q0 39 15 73t40 59 60 41 73 15z m0-313q25 0 48 10t40 27 27 39 10 49q0 25-10 48t-27 40-40 27-48 10q-26 0-49-10t-40-27-26-40-10-48q0-26 10-49t26-39 40-27 49-10z m-688 63v125h-125v562h750v-125h125v-259q-16 4-31 7t-31 2v188h-625v-438h375q0-16 2-31t6-31h-446z m0 187v375h563v63h-625v-438h62z" horiz-adv-x="1000" />
<glyph glyph-name="uniE12B" unicode="&#xe8a2;" d="m500 850q69 0 133-18t119-50 102-78 78-102 50-119 18-133-18-133-50-119-78-102-102-78-119-50-133-18-133 18-119 50-102 78-78 102-50 119-18 133q0 69 18 133t50 119 78 102 102 78 119 50 133 18z m395-312q-18 39-45 74t-58 64-70 51-79 37q18-25 32-52t25-57 19-58 13-59h163z m43-188q0 65-19 125h-177q4-31 6-62t2-63-2-63-6-62h177q19 60 19 125z m-438-438q24 0 45 14t38 34 32 49 24 55 18 54 12 45h-337q3-19 11-45t18-54 25-55 31-49 38-34 45-14z m179 313q4 31 6 62t3 63-3 63-6 62h-358q-4-31-6-62t-2-63 2-63 6-62h358z m-616 125q0-65 18-125h177q-4 31-6 62t-2 63 2 63 6 62h-177q-18-60-18-125z m437 438q-24 0-45-14t-38-34-31-49-25-55-18-54-11-44h337q-4 19-12 44t-18 54-24 55-32 49-38 34-45 14z m-143-24q-41-15-79-37t-69-51-59-64-45-74h163q5 29 13 59t19 58 25 57 32 52z m-252-601q19-40 45-75t59-64 69-51 79-37q-18 25-32 52t-25 57-19 58-13 60h-163z m538-227q41 15 79 37t70 51 58 64 45 75h-163q-5-30-13-60t-19-58-25-57-32-52z" horiz-adv-x="1000" />
<glyph glyph-name="uniE775" unicode="&#xe8a3;" d="m294 288l145-438h-65l-42 125h-163l-42-125h-66l146 438h87z m17-250l-61 182-61-182h122z m2 687v-187h125v-63h-188v250h63z m-187-436q-30 22-53 50t-40 59-24 68-9 72q0 43 11 83t32 74 49 63 63 49 75 32 83 11 83-11 74-32 63-49 49-63 32-74 11-83q0-16-2-32t-4-31h-65q4 16 6 31t3 32q0 51-20 97t-54 79-79 54-97 20-98-20-79-54-54-79-19-97q0-54 22-102t62-84z m865-143q1-4 1-6v-47q0-2-1-6-4-1-6-1-20 0-39 1t-38 0h-157q0-29 0-58t2-59q0-13-4-25t-15-19q-6-5-19-8t-26-4-28-1-21-1q-3 0-10 1t-8 2q-2 2-4 8t-3 9q-3 13-8 24t-11 22q16-2 33-3t33-1q12 0 18 4t6 16v93h-156q-19 0-39 0l-39-1q-4 0-6 1-1 3-1 6v47q0 1 1 3t1 3q3 1 5 1l39-1t39 0h156q-1 13-1 26t-3 25q11-1 21-2t21-2q17 13 33 26t31 28h-150q-21 0-41 0t-41-1q-4 0-6 1-1 3-1 5v47q0 2 1 6 4 1 6 1 21-1 41-1t41-1h182q8 0 15 2t12 3q4 0 11-6t15-14 13-16 5-12q0-5-3-7t-7-5q-7-3-13-9t-12-10q-26-21-52-41t-53-38v-5h157q19 0 38 0t39 1q3 0 6-1z m-312 265q0 15 0 32t-4 32q34 0 67-3 3 0 6-1t3-5q0-3-1-6t-3-6q-1-3-2-8t-1-10 0-11v-8-6h145q20 0 40 0t41 1q4 0 7-1 1-3 1-5 0-9-1-18t0-17v-28q0-18 0-36t1-35q0-2 0-3t-1-3q-4-1-7-1t-11-1-19 0-17 0-10 2q-1 5-1 17t0 26 0 26 1 19h-392q0-2 0-10t1-17v-20-20t-1-15-1-7q-4-1-7-1h-50q-5 0-6 2t-1 6q1 34 1 67t-1 67q0 2 1 5 4 1 6 1 21 0 41-1t41 0h134z" horiz-adv-x="1000" />
<glyph glyph-name="uniE07F" unicode="&#xe8a4;" d="m2 350q5 65 30 124t66 109l44-44q-34-41-53-89t-25-100h-62z m140 277q49 42 109 67t124 30v-63q-52-5-100-25t-88-53z m-44-572q-42 49-66 109t-30 124h62q5-52 25-101t53-88z m277-141q-64 5-124 30t-109 67l45 44q40-34 88-54t100-25v-62z m436 374q-5-65-30-124t-67-109l-44 44q34 40 54 88t25 101h62z m-141-277q-49-42-108-67t-124-30v62q51 6 100 25t88 54z m-170 777v-375h94l-125-125-125 125h94v375h62z m375-532v94h-255l62 63h193v93l125-125z" horiz-adv-x="1000" />
<glyph glyph-name="uniE777" unicode="&#xe8a5;" d="m500 850q69 0 133-18t119-50 102-78 78-102 50-119 18-133-18-133-50-119-78-102-102-78-119-50-133-18q-84 0-161 27t-141 75-111 116-68 149l60 16q19-70 60-129t96-102 124-66 141-24q60 0 116 16t105 44 88 69 69 89 44 104 16 116q0 60-16 116t-44 105-69 88-88 69-105 44-116 16q-63 0-123-18t-111-50-93-79-68-103h145v-63h-250v250h63v-134q32 60 79 108t104 81 121 52 133 18z" horiz-adv-x="1000" />
<glyph glyph-name="uniE137" unicode="&#xe8a6;" d="m469 725q30 0 66-3t75-11 78-20 76-28 68-39 55-48 37-60 14-72v-63q0-19-8-36t-20-30-30-20-36-7h-125q-28 0-45 8t-26 21-14 30-6 34-3 35-3 30-9 21-19 8h-250q-13 0-19-8t-9-21-4-30-2-35-6-34-14-30-27-21-44-8h-125q-20 0-37 7t-30 20-20 30-7 36v63q0 39 13 72t38 60 55 48 68 39 75 28 78 20 75 11 67 3z m406-281q0 41-21 73t-57 56-79 41-89 28-87 16-73 5-73-5-88-16-89-28-79-41-56-56-21-73v-63q0-12 9-22t22-9h125q16 0 23 11t9 26 0 31-1 26q0 19 7 36t20 30 30 20 37 8h250q19 0 36-8t30-20 20-30 8-36q0-10-2-26t1-31 9-26 23-11h125q12 0 22 9t9 22v63z m-272-322l44-44-178-178-178 178 44 44 103-103v331h62v-331z" horiz-adv-x="1000" />
<glyph glyph-name="uniE136" unicode="&#xe8a7;" d="m361 324q32-16 58-40t43-52 28-63 10-69h-62q0 39-15 73t-41 59-59 41-73 15-73-15-59-41-41-59-14-73h-63q0 36 10 69t28 63 43 52 58 40q-36 27-56 67t-20 84q0 39 14 73t41 59 59 41 73 15 73-15 59-41 41-59 15-73q0-44-21-84t-56-67z m-236 151q0-26 10-49t27-39 39-27 49-10q25 0 48 10t40 27 27 39 10 49q0 25-10 48t-27 40-40 27-48 10q-26 0-49-10t-39-27-27-40-10-48z m875 188v-63h-437v63h437z m-437-250h437v-63h-437v63z m0-250h437v-63h-437v63z" horiz-adv-x="1000" />
<glyph glyph-name="uniE196" unicode="&#xe8a8;" d="m719 288q45 0 85-18t70-46 46-70 18-85-18-86-46-69-70-47-85-17-85 17-70 47-47 69-17 86 17 85 47 70 70 46 85 18z m-156-219q0-32 12-61t33-50 50-33 61-13q23 0 45 7t41 19l-217 217q-12-19-19-41t-6-45z m286-86q13 19 19 41t7 45q0 32-12 60t-34 50-50 34-60 12q-23 0-45-7t-41-19z m123 502q-16-16-32-30t-32-22-35-15-44-5q-16 0-32 3l-65-66h-89l136 136q13-4 25-7t25-3q27 0 51 12l-242 242q-12-24-12-51 0-13 3-25t7-25l-240-240q-12 5-23 9t-21 8-23 4-24 2q-28 0-54-8t-49-24l236-236v-88l-94 94-278-278-66-22 22 66 278 278-189 188 22 22q35 34 79 52t94 19q19 0 38-4t37-9l185 185q-3 16-3 32 0 24 5 43t15 36 22 32 30 32z" horiz-adv-x="1000" />
<glyph glyph-name="uniE13D" unicode="&#xe8a9;" d="m649 263q67-23 120-65t91-95 58-119 20-134h-63q0 80-29 149t-78 119-119 78-149 29q-52 0-101-13t-90-37-75-59-58-75-38-90-13-101h-62q0 70 20 134t58 118 91 95 120 65q-38 21-69 50t-51 65-33 77-11 84q0 64 24 121t67 100 99 67 122 24 122-24 99-67 67-100 25-121q0-43-12-84t-33-76-51-65-68-50z m-399 275q0-52 20-98t54-79 79-54 97-19 97 19 80 54 53 79 20 98-20 97-53 79-80 54-97 20-97-20-79-54-54-79-20-97z" horiz-adv-x="1000" />
<glyph glyph-name="uniE1D5" unicode="&#xe8aa;" d="m781 600q46 0 86-17t69-47 47-69 17-86-17-85-47-69-69-47-86-17h-562q-46 0-85 17t-70 47-47 69-17 85 17 86 47 69 70 47 85 17 85-17 69-47 47-69 18-86q0-10-3-24t-6-30-10-31-13-30-16-25-18-16h256q-9 5-18 16t-16 25-13 30-10 31-6 29-2 25q0 46 17 86t47 69 69 47 85 17z m-718-219q0-32 12-60t34-50 49-33 61-13 60 13 50 33 34 50 12 60-12 61-34 49-50 34-60 13-61-13-49-34-34-49-12-61z m718-156q33 0 61 13t49 33 34 50 13 60-13 61-34 49-49 34-61 13-60-13-50-34-33-49-13-61 13-60 33-50 50-33 60-13z" horiz-adv-x="1000" />
<glyph glyph-name="uniE16D" unicode="&#xe8ab;" d="m938 475v-625h-500v62h-375v813h250q0 25 10 48t26 40 40 27 49 10q25 0 48-10t40-27 27-40 10-48h250v-250h125z m-688 188v-63h375v63h-125q0 12 1 26t-1 28-4 26-10 23-19 16-29 6q-28 0-41-13t-18-32-4-40 0-40h-125z m188-688v500h312v188h-62v-125h-500v125h-63v-688h313z m437 438h-375v-501h375v501z" horiz-adv-x="1000" />
<glyph glyph-name="uniE1D4" unicode="&#xe8ac;" d="m938 850v-1000h-782q-19 0-36 7t-30 20-20 30-7 37v781q0 24 10 47t28 40 40 28 47 10h750z m-63-875h-719q-12 0-22-9t-9-22 9-22 22-10h719v63z m0 813h-687q-12 0-23-6t-20-14-14-20-6-23v-693q16 6 31 6h719v750z m-228-688q-51 0-104 20t-105 55-97 80-79 97-54 104-20 102q0 27 4 46t14 35 23 31 32 33q12 10 25 16t30 6 30-6 24-16q12-12 27-25t29-28 22-31 9-36q0-15-5-26t-12-22-18-19-20-19l-4-10q0-4 11-16t28-30 37-38 39-38 32-32 19-18q4-4 10-4 6 0 11 4t11 11 13 14 16 14 21 11 25 5q19 0 36-9t31-23 27-28 25-27q11-11 17-25t6-30q0-15-6-29t-17-25q-17-18-32-32t-31-23-35-14-45-5z m-331 563q-6 0-10-5-13-13-24-23t-18-21-10-23-4-32q0-42 18-88t49-89 71-84 84-70 89-48 86-17q19 0 32 3t23 11 21 18 23 23l4 10q0 2-5 10t-13 15-18 19-18 17-16 13-9 5q-8 0-16-9t-19-20-26-20-36-10q-15 0-29 6t-25 17l-162 161q-23 23-23 55 0 21 10 35t20 26 20 19 10 16q0 3-6 10t-13 16-17 18-18 17-16 13-9 6z" horiz-adv-x="1000" />
<glyph glyph-name="uniE781" unicode="&#xe8ad;" d="m500 725h-62v125h62v-125z m-296-123l-89 89 44 44 89-89z m-204-189h125v-63h-125v63z m938 0v-63h-125v63h125z m-204 189l-44 44 88 89 44-44z m-265-2q45 0 85-17t69-47 47-69 18-86v-343h62v-63h-125v-125h-62v125h-188v-125h-62v125h-125v63h62v343q0 46 17 86t47 69 70 47 85 17z m156-562v343q0 33-12 61t-34 49-50 34-60 13-61-13-49-34-34-49-12-61v-343h312z" horiz-adv-x="1000" />
<glyph glyph-name="uniE805" unicode="&#xe8ae;" d="m703 490q41-20 81-40t81-41q-21-43-43-85t-42-85l-203 82-9-26q22-36 43-71t43-71q13-76 22-152t21-151h-187l-36 214q-26-51-51-102t-51-102q-44 21-86 43t-86 43l137 309-16 33h-133v297q65 18 130 36t130 34q-10 27-10 54 0 29 11 55t30 45 45 30 54 11 55-11 44-30 31-45 11-55q0-36-18-68t-48-51z m-125 298q-16 0-30-7t-25-16-17-25-6-31 6-30 17-25 25-17 30-6 30 6 25 17 17 25 6 30-6 31-17 25-25 16-30 7z m203-407l-125 63-60 119q-32-5-63 3t-55 33q-57-16-114-31t-114-30v-188h63v125l125 31-63-187 31-63-125-281 63-31 125 250 62-94 32-188h62l-31 219-94 157 63 187 31-94 156-62z" horiz-adv-x="1000" />
<glyph glyph-name="uniE806" unicode="&#xe8af;" d="m938 538v-125h-63v-469q0-17-2-34t-7-30-19-22-34-8q-13 0-27-1t-27 1-27 4-23 10-16 19-5 29h-438q0-13-5-24t-13-20-20-13-24-5q-34 0-58 0t-39 9-22 27-6 58v469h-63v125h63v156q0 19 7 36t20 30 30 20 36 8h625q20 0 37-8t30-20 20-30 7-36v-156h63z m-125-313h-688v-125h63q0 9-1 20t3 20 9 16 20 7 20-7 9-16 2-20 0-20h438q0 9-1 20t3 20 9 16 20 7 20-7 9-16 2-20 0-20h63v125z m-375 63v250h-313v-250h313z m375 250h-313v-250h313v250z m-657 187q-12 0-22-9t-9-22v-94h688v94q0 12-10 22t-22 9h-625z m657-750v63h-688v-63h688z" horiz-adv-x="1000" />
<glyph glyph-name="uniE80C" unicode="&#xe8b0;" d="m686 339l-105-279-280 105 23 58 163-61q-30 59-46 122t-15 130q0 71 19 139t60 127l52-35q-35-51-52-110t-17-120q0-65 17-128t50-119l72 193z" horiz-adv-x="1000" />
<glyph glyph-name="uniE80D" unicode="&#xe8b1;" d="m699 165l-280-105-104 279 58 22 72-193q33 56 50 119t17 128q0 61-17 120t-52 110l52 35q40-58 60-127t19-139q0-66-15-130t-46-122l163 61z" horiz-adv-x="1000" />
<glyph glyph-name="uniE10F" unicode="&#xe8b2;" d="m500 769l460-459-44-44-41 40v-394h-312v313h-125v-313h-313v394l-40-40-44 44z m313-794v393l-313 313-312-313v-393h187v313h250v-313h188z" horiz-adv-x="1000" />
<glyph glyph-name="uniE811" unicode="&#xe8b3;" d="m986 138q14-32 14-65v-35q0-38-20-68t-54-46q-15-34-46-54t-67-20q-34 0-63 17t-46 45h-346q-17-29-45-45t-63-17-62 17-46 45h-79q-14 0-25 5t-20 14-13 20-5 24v125q0 39 15 73t40 60 59 40 74 15h18l160 160q13 13 30 20t36 7h443v-62h-14z m-361 275v-125h224l-48 106q-4 9-12 14t-17 5h-147z m-193 0q-13 0-22-10l-116-115h269v125h-131z m-182-501q13 0 24 5t20 14 14 20 5 24-5 24-14 20-20 14-24 5-24-5-20-14-14-20-4-24 4-24 14-20 20-14 24-5z m0 188q26 0 49-10t39-27 27-39 10-49h188v250h-375q-26 0-49-10t-40-27-27-39-9-49v-125h62q0 26 10 49t27 39 39 27 49 10z m563-188q13 0 24 5t20 14 13 20 5 24-5 24-13 20-20 14-24 5-25-5-20-14-13-20-5-24 5-24 13-20 20-14 25-5z m125 161q0 20-9 39l-52 113h-252v-250h63q0 26 9 49t27 39 40 27 49 10q20 0 39-6t35-18 27-28 18-36q6 13 6 26v35z" horiz-adv-x="1000" />
<glyph glyph-name="uniE812" unicode="&#xe8b4;" d="m500 694l125-344h-250l125 344v0z" horiz-adv-x="1000" />
<glyph glyph-name="uniE813" unicode="&#xe8b5;" d="m625 350l-125-344-125 344h250v0z" horiz-adv-x="1000" />
<glyph glyph-name="uniE816" unicode="&#xe8b6;" d="m500 850l500-500-500-500-500 500z m-125-787l125-125 412 412-412 412-412-412 225-224v287h268l-103 103 44 44 178-179-178-178-44 44 103 103h-206v-287z" horiz-adv-x="1000" />
<glyph glyph-name="uniE819" unicode="&#xe8b7;" d="m438 639l203-101-203-102v203z m62 211q43 0 83-11t75-32 63-49 49-63 31-74 12-83q0-34-9-65t-23-60l-281-563-281 563q-15 30-23 60t-8 65q0 43 11 83t31 74 49 63 63 49 75 32 83 11z m232-413q0 0 1 0t0 1q12 23 19 48t6 52q0 53-20 100t-56 82-82 55-100 20-100-20-82-55-55-82-21-100q0-26 7-52t18-48q0-1 0-1t1 0l232-465z" horiz-adv-x="1000" />
<glyph glyph-name="uniE81A" unicode="&#xe8b8;" d="m500 850q43 0 83-11t75-32 63-49 49-63 31-74 12-83q0-34-9-65t-23-60l-281-563-281 563q-15 30-23 60t-8 65q0 43 11 83t31 74 49 63 63 49 75 32 83 11z m232-413q0 0 1 0t0 1q12 23 19 48t6 52q0 53-20 100t-56 82-82 55-100 20-100-20-82-55-55-82-21-100q0-26 7-52t18-48q0-1 0-1t1 0l232-465z m-357 226h63v-250h-63v250z m188 0h62v-250h-62v250z" horiz-adv-x="1000" />
<glyph glyph-name="uniE81B" unicode="&#xe8b9;" d="m563 725h375v-500h-438v125h-312v-500h-63v1000h438v-125z m-375-312h312v375h-312v-375z m687-125v375h-312v-375h312z" horiz-adv-x="1000" />
<glyph glyph-name="uniE81C" unicode="&#xe8ba;" d="m500 600v-268l178-179-44-44-196 197v294h62z m461-55q39-94 39-195t-39-195q-38-89-107-159t-159-107q-94-39-195-39-85 0-164 28-77 27-141 76-64 49-109 116-23 34-40 71t-27 76l60 16q19-70 60-130t96-101 124-66 141-24q60 0 116 16t105 44 88 69 69 89 44 104 16 116q0 60-16 116t-44 105-69 88-88 69-105 44-116 16q-63 0-123-18t-111-51-93-79-68-102h145v-63h-250v250h63v-134q8 16 18 31t20 29q46 61 108 105 64 46 138 70t153 24q101 0 195-39 89-38 159-107t107-159z" horiz-adv-x="1000" />
<glyph glyph-name="uniE81F" unicode="&#xe8bb;" d="m313 225q13 0 24-5t20-13 13-20 5-24-5-25-13-20-20-13-24-5-25 5-20 13-13 20-5 25 5 24 13 20 20 13 25 5z m62-156q0 12 9 22t22 9 22-9 10-22-10-22-22-9-22 9-9 22z m406 406q13 0 22-9t10-22-10-22-22-9-22 9-9 22 9 22 22 9z m-93 125q13 0 24-5t20-13 13-20 5-24-5-25-13-20-20-13-24-5-25 5-20 13-13 20-5 25 5 24 13 20 20 13 25 5z m294-125q-1 0 0-1l1-1q8-8 13-19t4-22q0-15-10-31t-25-32-31-25-31-10q-26 0-43 19l-363-363q5-2 8-7t6-12 3-12 2-11q0-15-10-32t-25-31-31-25-31-10q-12 0-23 4t-19 13l-1 2-1-1q-11 11-22 22t-22 22l0 0q-21 21-43 43t-45 43-43 43-40 45q-1 0-4 6t-7 13-8 18l-9 17t-7 14-4 9h-46l-22-22-44 44 41 40h40q-10 21-26 48t-30 56-24 58-10 57q0 13 2 29t8 31 12 30 17 24l253 251q10 10 24 18t30 13 31 7 29 3q27 0 57-10t58-25 56-30 48-26v41l41 41 44-44-22-22v-48l8-4t16-8 19-10l20-9t14-8 7-3q22-19 43-39t41-42 41-43 41-42h0q11-11 22-22t22-22z m-919-31q0-19 8-42t19-45 24-43 19-36l439 438q-15 8-36 20t-43 24-45 19-42 9q-8 0-18-2t-20-5-19-7-15-11l-249-247q-5-6-10-15t-7-19-4-20-1-18z m428-210q2-3 6-12t10-20 12-24 12-23 10-18 6-8l174 174q-1 2-8 7t-18 10-23 11-24 12-21 10l-11 6z m402 241q-19 19-39 40t-40 43-41 42-42 37q0 0-7 4t-18 9-22 11-24 11-19 10-10 5l-468-468q1-2 5-10t10-19 11-24 11-22 9-18 4-7q17-21 37-42t42-41 43-40 40-39l128 128q-4 2-12 14t-16 27-18 35-17 35-15 31-10 20l188 188q5-2 19-9t31-16 37-18 35-19 28-16 13-10z" horiz-adv-x="1000" />
<glyph glyph-name="uniE821" unicode="&#xe8bc;" d="m1000 663v-625h-1000v625h313v62q0 13 4 24t14 20 20 14 24 5h250q13 0 24-5t20-14 14-20 5-24v-62h312z m-625 0h250v62h-250v-62z m-312-63v-90l312-156v59h250v-59l313 156v90h-875z m375-250v-62h125v62h-125z m500-250v340l-313-156v-59h-250v59l-312 156v-340h875z" horiz-adv-x="1000" />
<glyph glyph-name="uniE822" unicode="&#xe8bd;" d="m625-150l68 137-113 114-17-8v-243h-188v193l-187-188-136 136 136 135q0 8-1 26t-1 42 0 49 1 48 2 39 5 20h-131v236l25 7-79 79 44 44 106-106 234 59q-5 33 4 63t26 52 47 37 61 13q29 0 55-11t44-30 31-45 11-54q0-40-21-73t-55-52l102-409-59-29 84-85 90 179 187-375h-375z m-94 922q-16 0-30-6t-25-17-17-25-6-30 6-30 17-25 25-17 30-6 31 6 24 17 17 25 6 30-6 30-17 25-24 17-31 6z m-218-266l-13-37 139-138 45 144 64-253 44-45 33 17-90 359q-35 0-65 14t-52 44l-293-73v-125h63v62z m187-343q-1 9-16 29t-36 43-48 49-50 49-44 42-28 28q-1-3-5-16t-10-28-9-27-4-13q-2-27-3-54t1-56 1-55 1-54l-109-109 47-47 125 125v156h62l63-125v-188h62v251z m313-78l-87-173h173z" horiz-adv-x="1000" />
<glyph glyph-name="uniE2AD" unicode="&#xe8be;" d="m500-150q-69 0-133 18t-119 50-102 78-78 102-50 119-18 133 18 133 50 119 78 102 102 78 119 50 133 18 133-18 119-50 102-78 78-102 50-119 18-133q0-69-18-133t-50-119-78-102-102-78-119-50-133-18z m0 938q-60 0-116-16t-104-44-89-69-69-88-44-105-15-116 15-116 44-104 69-89 89-69 104-44 116-16 116 16 105 44 88 69 69 89 44 104 16 116-16 116-44 105-69 88-88 69-105 44-116 16z m0-438v313h-62v-375h250v62h-188z" horiz-adv-x="1000" />
<glyph glyph-name="uniE825" unicode="&#xe8bf;" d="m875 475v-375q0 0 4-13t11-33l15-43t14-45 12-35 7-19h-938q1 4 6 19t12 35 15 45l14 43t11 33 5 13v375h-63v63l469 234 469-234v-63h-63z m-735 63h658l-329 164z m610-63v-375h63v375h-63z m-125 0v-375h63v375h-63z m-125 0v-375h63v375h-63z m-125 0v-375h63v375h-63z m-125 0v-375h63v375h-63z m-125-375h63v375h-63v-375z m726-125l-21 63h-723l-20-63h764z" horiz-adv-x="1000" />
<glyph glyph-name="uniE104" unicode="&#xe8c0;" d="m1000 686q0-32-12-62t-36-54l-643-643-309-77 77 309 643 643q24 24 54 36t62 12q34 0 64-13t52-35 35-52 13-64z m-841-533q52-17 89-55t55-89l528 529-143 143z m-73-217l161 40q-5 22-16 43t-27 35-35 27-43 16z m789 646q12 12 23 23t21 23 13 26 6 32q0 21-9 39t-21 33-33 21-39 9q-19 0-32-6t-26-13-23-21-23-23z" horiz-adv-x="1000" />
<glyph glyph-name="uniE125" unicode="&#xe8c1;" d="m799 512q32-16 57-40t44-53 28-62 10-69h-63q0 38-15 72t-40 60-60 40-72 15-73-15-60-40-40-60-15-72q0-45-20-85t-56-66q32-16 57-40t44-53 28-62 10-70h-63q0 39-15 73t-40 60-60 40-72 15-73-15-60-40-40-60-15-73h-62q0 36 9 70t28 62 44 53 57 40q-35 26-56 66t-20 85q0 38 15 72t40 60 60 40 73 15q44 0 84-20t66-56q19 36 48 65t65 48q-35 26-56 66t-20 85q0 38 15 72t40 60 60 40 73 15 72-15 60-40 40-60 15-72q0-45-20-85t-56-66z m-486-349q25 0 48 10t40 26 27 40 10 49q0 25-10 48t-27 40-40 27-48 10q-26 0-49-10t-40-27-26-40-10-48q0-26 10-49t26-40 40-26 49-10z m250 500q0-26 10-49t26-40 40-26 49-10q25 0 48 10t40 26 27 40 10 49q0 25-10 48t-27 40-40 27-48 10q-26 0-49-10t-40-27-26-40-10-48z" horiz-adv-x="1000" />
<glyph glyph-name="uniE094" unicode="&#xe8c2;" d="m656 850q48 0 92-12t82-35 69-54 54-69 35-82 12-92-12-91-35-82-54-70-69-54-82-34-92-12q-61 0-117 20t-102 59l-384-383q-9-9-22-9t-22 9-9 22 9 22l383 384q-38 46-59 102t-20 117q0 48 12 92t34 82 54 69 70 54 82 35 91 12z m0-625q58 0 110 22t89 61 60 89 23 109-23 110-60 89-89 60-110 23-109-23-89-60-61-89-22-110 22-109 61-89 89-61 109-22z" horiz-adv-x="1000" />
<glyph glyph-name="uniE114" unicode="&#xe8c3;" d="m1000 725v-750h-1000v750h268l63 63h338l63-63h268z m-62-62h-232l-63 62h-286l-63-62h-231v-625h875v625z m-438-63q52 0 97-19t80-54 54-80 19-97-19-97-54-80-80-53-97-20-97 20-80 53-53 80-20 97 20 97 53 80 80 54 97 19z m0-437q39 0 73 14t59 41 41 59 15 73-15 73-41 59-59 41-73 15-73-15-59-41-41-59-14-73 14-73 41-59 59-41 73-14z m-344 437q13 0 22-9t10-22-10-22-22-9-22 9-9 22 9 22 22 9z" horiz-adv-x="1000" />
<glyph glyph-name="uniE001" unicode="&#xe8c4;" d="m853 622l44-44-522-522-272 272 44 44 228-228 478 478v0z" horiz-adv-x="1000" />
<glyph glyph-name="uniE107" unicode="&#xe8c5;" d="m875 663h-62v-719q0-20-8-37t-20-30-30-20-36-7h-500q-20 0-37 7t-30 20-20 30-7 37v719h-62v62h250v63q0 13 4 24t14 20 20 13 24 5h188q13 0 24-5t20-13 13-20 5-24v-63h250v-62z m-500 62h188v63h-188v-63z m375-62h-562v-719q0-13 9-22t22-10h500q12 0 22 10t9 22v719z m-375-625h-62v500h62v-500z m125 0h-62v500h62v-500z m125 0h-62v500h62v-500z" horiz-adv-x="1000" />
<glyph glyph-name="uniE105" unicode="&#xe8c6;" d="m875 788q13 0 24-5t20-14 14-20 5-24v-813h-764l-111 113v700q0 13 4 24t14 20 20 14 24 5h750z m-625-375h500v312h-500v-312z m375-250h-312v-188h62v125h63v-125h187v188z m250 562h-62v-375h-625v375h-63v-674l75-76h50v250h438v-250h187v750z" horiz-adv-x="1000" />
<glyph glyph-name="uniE7B8" unicode="&#xe8c7;" d="m0 788h1000v-313h-62v-625h-875v625h-63v313z m875-876v563h-750v-563h750z m63 626v187h-875v-187h875z m-125-313v-62h-313v62h313z m-250-187v62h250v-62h-250z" horiz-adv-x="1000" />
<glyph glyph-name="uniE783" unicode="&#xe8c8;" d="m469 850q65 0 125-17t112-47 95-73 73-95 47-112 17-125-17-124-47-113-73-94-95-74-112-47-125-17-125 17-112 47-95 74-73 94-47 113-17 124 17 125 47 112 73 95 95 73 112 47 125 17z m0-875q55 0 107 15t98 41 82 63 63 82 41 97 15 108q0 56-15 108t-41 97-63 82-82 64-98 41-107 15q-56 0-108-15t-97-41-82-64-64-82-41-97-14-108 14-107 41-98 64-82 82-63 97-41 108-15z m-31 625h62v-312h-62v312z m0-375h62v-62h-62v62z" horiz-adv-x="1000" />
<glyph glyph-name="uniE784" unicode="&#xe8c9;" d="m375-150v1000h63v-1000h-63z m188 1000h62v-1000h-62v1000z" horiz-adv-x="1000" />
<glyph glyph-name="uniE1F7" unicode="&#xe8ca;" d="m875 413v-563h-750v563h563v187q0 40-15 74t-39 60-60 39-74 15-74-15-59-39-40-60-14-74h-63q0 53 19 99t53 79 79 53 99 19 99-19 79-53 53-79 19-99v-187h125z m-62-63h-625v-438h625v438z" horiz-adv-x="1000" />
<glyph glyph-name="uniE173" unicode="&#xe8cb;" d="m375 475l250-125-250-125v250z m47-76v-98l98 49z m-422 326h1000v-750h-1000v750z m938-687v625h-875v-625h875z m-63 562v-500h-750v500h750z m-62-437v375h-625v-375h625z" horiz-adv-x="1000" />
<glyph glyph-name="uniE163" unicode="&#xe8cc;" d="m375 413v62h63v-62h-63z m188-375v62h62v-62h-62z m187 375v62h63v-62h-63z m-187 0v62h62v-62h-62z m-188-125v62h63v-62h-63z m-187 0v62h62v-62h-62z m562 0v62h63v-62h-63z m-187 0v62h62v-62h-62z m-188-125v62h63v-62h-63z m-187 0v62h62v-62h-62z m562 0v62h63v-62h-63z m-187 0v62h62v-62h-62z m-188-125v62h63v-62h-63z m-187 0v62h62v-62h-62z m625 750h187v-876h-1000v876h188v62h62v-62h500v62h63v-62z m-625-63h-125v-125h875v125h-125v-62h-63v62h-500v-62h-62v62z m-125-750h875v563h-875v-563z" horiz-adv-x="1000" />
<glyph glyph-name="uniE788" unicode="&#xe8cd;" d="m518-150l482 482v-482h-482z m420 62v269l-269-269h269z" horiz-adv-x="1000" />
<glyph glyph-name="uniE789" unicode="&#xe8ce;" d="m0 475q5 0 13 0t18-1 16 0 13 1l878 156q4 1 12 1t18 0 18 0 14-1v-562q-5 0-15 0t-20-1h-19t-14 1l-372 67q-5-28-19-52t-35-41-46-27-54-10q-32 0-60 13t-50 33-34 50-12 61q0 13 3 27l-129 23q-9 2-17 4t-15 3-15 2-17 3q-6 1-14 1t-16 0-16-1-14 0v250z m406-406q17 0 33 6t28 16 20 25 12 31l-185 33q-1-9-1-17 0-20 7-37t20-30 30-20 36-7z m532 499l-875-155v-125q3 0 5-1l870-155v436z" horiz-adv-x="1000" />
<glyph glyph-name="uniE12C" unicode="&#xe8cf;" d="m313 725v-62h-63v62h63z m375-62v62h62v-62h-62z m-375-63v-62h-63v62h63z m375-62v62h62v-62h-62z m-438-563v63h63v-63h-63z m438 0v63h62v-63h-62z m-438 125v63h63v-63h-63z m438 0v63h62v-63h-62z m-688 125v250h63v-250h-63z m125 0v250h63v-250h-63z m688 0v250h62v-250h-62z m125 250h62v-250h-62v250z m-688-250v250h500v-250h-500z m63 188v-125h375v125h-375z" horiz-adv-x="1000" />
<glyph glyph-name="uniE17C" unicode="&#xe8d0;" d="m580 273l-80 80v-315h-62v315l-80-80-44 44 155 155 155-155z m-518 390h813v-626h-313v63h250v500h-687v-500h250v-63h-313v626z" horiz-adv-x="1000" />
<glyph glyph-name="uniE159" unicode="&#xe8d1;" d="m750 850q13 0 24-5t20-13 14-20 5-24v-563h-545l-80 81v482q0 13 4 24t14 20 20 13 24 5h500z m-375-250h250v188h-250v-188z m250-187h-250v-125h63v62h62v-62h125v125z m125 375h-62v-250h-375v250h-63v-456l44-44h19v187h375v-187h62v500z m-116-728l44-44-147-148-147 148 44 44 72-72v175h63v-175z" horiz-adv-x="1000" />
<glyph glyph-name="uniE2B1" unicode="&#xe8d2;" d="m500 850q69 0 133-18t119-50 102-78 78-102 50-119 18-133-18-133-50-119-78-102-102-78-119-50-133-18q-26 0-49 10t-39 27-27 39-10 49q0 24 5 42t11 32 15 28 15 25 12 28 5 33q0 25-10 48t-27 40-40 27-48 10q-19 0-33-5t-28-12-25-15-28-15-32-11-42-5q-26 0-49 10t-39 27-27 39-10 49q0 69 18 133t50 119 78 102 102 78 119 50 133 18z m0-938q60 0 116 16t105 44 88 69 69 89 44 104 16 116-16 116-44 105-69 88-88 69-105 44-116 16-116-16-104-44-89-69-69-88-44-105-15-116q0-13 4-24t14-20 20-14 24-4q19 0 33 4t27 12 26 15 27 15 32 11 43 5q39 0 73-15t59-40 40-59 15-73q0-24-5-43t-11-32-15-27-15-26-12-27-4-33q0-13 4-24t14-20 20-14 24-5z m-250 626q13 0 24-5t20-14 14-20 5-24-5-24-14-20-20-14-24-4-24 4-20 14-14 20-4 24 4 24 14 20 20 14 24 5z m188 125q13 0 24-5t20-14 13-20 5-24-5-24-13-20-20-14-24-4-25 4-20 14-13 20-5 24 5 24 13 20 20 14 25 5z m250-188q-14 0-25 5t-20 13-13 20-5 25 5 24 13 20 20 13 25 5 24-5 20-13 13-20 5-24-5-25-13-20-20-13-24-5z m62-125q13 0 24-5t20-13 14-20 5-24-5-25-14-20-20-13-24-5-24 5-20 13-14 20-4 25 4 24 14 20 20 13 24 5z m-125-187q13 0 24-5t20-14 14-20 5-24-5-24-14-20-20-14-24-4-24 4-20 14-14 20-4 24 4 24 14 20 20 14 24 5z" horiz-adv-x="1000" />
<glyph glyph-name="uniE791" unicode="&#xe8d3;" d="m719 413q58 0 109-23t90-60 60-89 22-110-22-109-60-90-90-60-109-22-110 22-89 60-60 90-22 109 22 110 60 89 89 60 110 23z m0-501q45 0 85 18t69 47 47 69 18 85-18 86-47 69-69 47-85 17-85-17-70-47-47-69-17-86 17-85 47-69 70-47 85-18z m-656 376h125v-125h-125v125z m187 125h125v-250h-125v250z m625-250v-63h-312v63h312z m-125 310q-32 3-63 0t-62-11v201h125v-190z m-187-36q-38-19-69-46t-56-62v209h125v-101z" horiz-adv-x="1000" />
<glyph glyph-name="uniE28F" unicode="&#xe8d4;" d="m902 413q21 0 39-8t31-20 20-31 8-38q0-19-7-37t-21-32l-350-350-184-46 45 184 351 350q14 14 31 21t37 7z m25-122q11 10 11 25 0 15-10 25t-26 9q-6 0-13-2t-11-7l-338-338-17-66 66 16z m-552-191h63l-63-62h-232l-80 80v607q0 13 4 24t14 20 20 14 24 5h625q13 0 24-5t20-14 14-20 5-24v-250l-63-62v312h-62v-312h-500v312h-63v-581l44-44h19v250h437v-62l-62-63v63h-313v-188h63v125h62v-125z m-125 375h375v250h-375v-250z" horiz-adv-x="1000" />
<glyph glyph-name="uniE799" unicode="&#xe8d5;" d="m0 663v62h63v-62h-63z m0-125v62h63v-62h-63z m0-125v62h63v-62h-63z m0-125v62h63v-62h-63z m0-250v62h63v-62h-63z m125 625v62h63v-62h-63z m0-625v62h63v-62h-63z m813 0v62h62v-62h-62z m-938 125v62h63v-62h-63z m938 0v62h62v-62h-62z m0 125v62h62v-62h-62z m0 125v62h62v-62h-62z m0 125v62h62v-62h-62z m0 187h62v-62h-62v62z m-125-687v62h62v-62h-62z m0 625v62h62v-62h-62z m-563-625v687h500v-687h-500z m63 625v-563h375v563h-375z" horiz-adv-x="1000" />
<glyph glyph-name="uniE7A5" unicode="&#xe8d6;" d="m938 395q-55 46-125 66v327h125v-393z" horiz-adv-x="1000" />
<glyph glyph-name="uniE10E" unicode="&#xe8d7;" d="m531 848q47 0 91-12t81-35 70-53 53-70 35-81 12-91q0-67-26-129t-73-109l-408-409-44 44 408 409q39 39 60 89t21 105q0 57-23 108t-60 89-89 60-108 23q-52 0-93-16t-74-42-66-60-66-68h206v-62h-313v312h63v-206q26 28 51 53t49 49 51 41 54 33 63 21 75 7z" horiz-adv-x="1000" />
<glyph glyph-name="uniE123" unicode="&#xe8d8;" d="m812 100h188v-63h-188v-187h-62v187h-563v563h-187v62h187v188h63v-188h518l178 179 45-44-179-179v-518z m-106 500h-456v-456z m-412-500h456v456z" horiz-adv-x="1000" />
<glyph glyph-name="uniE17D" unicode="&#xe8d9;" d="m999 255l-155 155-155-155 44-44 79 79v-284h63v284l80-79 44 44v0z m-124 407h-563v63h563v-63 0z m-125-625h-438v63h438v-63 0z m-562 563h-188v188h188v-188 0z m-125 63h62v62h-62v-62 0z m125-375h-188v187h188v-187 0z m-125 62h62v63h-62v-63 0z m125-375h-188v188h188v-188 0z m-125 63h62v62h-62v-62 0z m625 312h-375v63h437l-62-63v0z" horiz-adv-x="1000" />
<glyph glyph-name="uniE14A" unicode="&#xe8da;" d="m500 475q26 0 49-10t39-27 27-39 10-49-10-49-27-39-39-27-49-10-49 10-39 27-27 39-10 49 10 49 27 39 39 27 49 10z m0-187q13 0 24 4t20 14 14 20 5 24-5 24-14 20-20 14-24 5-24-5-20-14-14-20-4-24 4-24 14-20 20-14 24-4z m500 62q0-68-18-133t-52-121-81-104-108-80h134v-62h-250v250h63v-145q57 27 103 68t79 93 50 111 18 123q0 60-16 116t-44 105-69 88-88 69-105 44-116 16-116-16-104-44-89-69-69-88-44-105-15-116q0-73 23-141t66-124 102-96 129-60l-16-60q-81 21-149 68t-116 111-75 141-27 161q0 69 18 133t50 119 78 102 102 78 119 50 133 18q69 0 133-18t119-50 102-78 78-102 50-119 18-133z" horiz-adv-x="1000" />
<glyph glyph-name="uniE759" unicode="&#xe8db;" d="m241 484l-134-134 134-134-44-44-179 178 179 178z m393-393l44-44-178-179-178 179 44 44 134-134z m348 259l-179-178-44 44 134 134-134 134 44 44z m-616 259l-44 44 178 179 178-179-44-44-134 134z m134-71q39 0 73-15t60-40 40-60 15-73q0-39-15-73t-40-60-60-40-73-14q-39 0-73 14t-60 40-40 60-14 73q0 39 14 73t40 60 60 40 73 15z m0-313q26 0 49 10t39 27 27 39 10 49-10 49-27 39-39 27-49 10-49-10-39-27-27-39-10-49 10-49 27-39 39-27 49-10z" horiz-adv-x="1000" />
<glyph glyph-name="uniE18C" unicode="&#xe8dc;" d="m624 130l-155 155-155-155 44-44 80 79v-315h62v315l80-79 44 44v0z m251 220h-812v500h812v-500 0z m-750 63h688v375h-688v-375 0z" horiz-adv-x="1000" />
<glyph glyph-name="uniE139" unicode="&#xe8dd;" d="m688 631q0-40-15-77t-39-66-59-48-75-25v-503l-31-62-31 62v503q-41 5-75 25t-60 48-39 66-14 77q0 46 17 86t47 69 70 47 85 17 85-17 70-47 46-69 18-86z m-219-156q32 0 60 12t50 34 34 50 12 60-12 61-34 49-50 34-60 13-61-13-50-34-33-49-12-61 12-60 33-50 50-34 61-12z" horiz-adv-x="1000" />
<glyph glyph-name="uniE7BA" unicode="&#xe8de;" d="m469 850l469-938h-938z m0-140l-368-735h735z m-31-235h62v-312h-62v312z m0-437v62h62v-62h-62z" horiz-adv-x="1000" />
<glyph glyph-name="uniE7BE" unicode="&#xe8df;" d="m813 444v-250q0-30-17-54t-44-42-62-30-69-20-67-11-54-3-54 3-67 11-69 20-61 30-45 42-16 54v250l-63 21v-365h-62v385l-63 21 500 167 500-167z m-615 62l302-100 302 100-302 101z m552-83l-250-83-250 83v-229q0-9 7-18t18-18 21-14 18-10q20-10 43-17t48-12 48-7 47-2 47 2 49 7 47 12 44 17q6 4 17 10t21 14 17 18 8 18v229z" horiz-adv-x="1000" />
<glyph glyph-name="uniE7BF" unicode="&#xe8e0;" d="m781 100q20 0 37-7t30-20 20-30 7-37-7-36-20-30-30-20-37-8-36 8-30 20-20 30-7 36q0 15 5 32h-261q6-17 6-32 0-19-8-36t-20-30-30-20-36-8-37 8-30 20-20 30-7 36q0 27 14 50t39 35l-211 634h-92v63h137l42-125h821l-145-438h-530l41-125h415z m-581 500l104-312h505l104 312h-713z m175-594q0 13-9 22t-22 10-22-10-9-22 9-22 22-9 22 9 9 22z m406-31q13 0 22 9t10 22-10 22-22 10-22-10-9-22 9-22 22-9z" horiz-adv-x="1000" />
<glyph glyph-name="uniE7C0" unicode="&#xe8e1;" d="m281 100q-12 0-22 9t-9 22 9 22 22 10 22-10 10-22-10-22-22-9z m438 0q-13 0-22 9t-9 22 9 22 22 10 22-10 9-22-9-22-22-9z m-94 563h-250v62h250v-62z m81-688h-412l-125-125h-88l126 126q-17 2-32 10t-26 21-18 28-6 34v687q0 20 7 37t20 30 30 20 37 7h562q20 0 37-7t30-20 20-30 7-37v-687q0-18-6-34t-18-28-26-21-31-10l125-126h-88z m107 563h-625v-250h625v250z m-594 250q-13 0-22-10t-9-22v-156h625v156q0 13-10 22t-22 10h-562z m-31-719q0-13 9-22t22-9h562q13 0 22 9t10 22v156h-625v-156z" horiz-adv-x="1000" />
<glyph glyph-name="uniE160" unicode="&#xe8e2;" d="m544 850l331-331v-669h-750v1000h419z m19-107v-205h205z m-375-831h625v563h-313v313h-312v-876z" horiz-adv-x="1000" />
<glyph glyph-name="uniE155" unicode="&#xe8e3;" d="m125 163v125h-125v562h750v-125h125v-375h-62v313h-63v-375h-562v-63h437v-62h-500z m563 187v438h-625v-438h625z m-563 375h500v-312h-500v312z m63-250h375v188h-375v-188z m656-187q32 0 60-13t50-34 34-49 12-61-12-60-34-50-50-34-60-12q-23 0-45 7t-41 19l-149-148-44 44 148 148q-12 19-19 41t-6 45q0 33 12 61t34 49 49 34 61 13z m0-250q19 0 36 7t30 20 20 30 8 36-8 37-20 30-30 20-36 7-37-7-30-20-20-30-7-37 7-36 20-30 30-20 37-7z" horiz-adv-x="1000" />
<glyph glyph-name="uniE7C6" unicode="&#xe8e4;" d="m383 475l117 375v-760l-312-240 121 388-309 237h383v0z" horiz-adv-x="1000" />
<glyph glyph-name="uniE7C7" unicode="&#xe8e5;" d="m1000 475l-309-237 122-388-313 240v760l117-375h383v0z" horiz-adv-x="1000" />
<glyph glyph-name="uniE1F5" unicode="&#xe8e6;" d="m500 663q65 0 121-25t100-67 67-100 25-121-25-121-67-100-100-67-121-24-121 24-100 67-67 100-24 121 24 121 67 100 100 67 121 25z" horiz-adv-x="1000" />
<glyph glyph-name="uniE1E3" unicode="&#xe8e7;" d="m906 475q20 0 37-7t30-20 20-30 7-37v-284q0-60-25-107t-65-77-93-47-107-16q-46 0-80 5t-61 16-47 26-42 35-44 45-52 54q-15 16-31 31t-32 32q-34-15-68-31l-67-31-57 121q-32-32-64-63t-65-64v694l438-438v349q0 20 7 37t20 30 30 20 36 7q28 0 45-9t29-25 15-35 5-41 1-43-1-40q16 6 31 6 17 0 34-7t29-17q12 11 29 17t33 7q16 0 31-6t26-14 21-22 13-28q16 7 34 7z m-633-334l-68 147h139l-281 281v-394l86 85 67-145z m665 240q0 13-10 22t-22 10q-12 0-19-8t-10-18-5-26 0-28 2-26 1-19h-62v93q0 10 1 26t0 31-9 26-24 11q-12 0-22-9t-9-22v-156h-62v156q0 12-10 22t-22 9-19-7-11-19-4-26 0-28 2-26 1-19v-62h-62v156 187q0 13-10 22t-22 10-22-10-9-22v-470q-13 6-36 17t-49 21-49 18-39 8q-8 0-14-2t-7-13q0-9 5-16t12-13q11-11 29-30t41-43 46-48 45-47 39-37 25-22q23-14 41-23t37-12 37-5 47-2q41 0 82 12t73 34 53 57 20 82v284z" horiz-adv-x="1000" />
<glyph glyph-name="uniE7DE" unicode="&#xe8e8;" d="m250-150h-63v812h625v-812h-62v125h-500v-125 0z m500 500v250h-500v-250h500v0z m0-313v250h-500v-250h500v0z" horiz-adv-x="1000" />
<glyph glyph-name="uniE7E3" unicode="&#xe8e9;" d="m863-25h75v-63h-106q-16-30-36-46t-46-16q-26 0-50 10t-43 31q-10 10-22 16t-26 5q-27 0-47-21-18-20-43-31t-50-10-51 10-42 31q-10 10-22 16t-26 5q-27 0-47-21-19-20-43-31t-50-10q-25 0-46 16t-36 46h-106v63h74l-74 149v77l125 41v233h74l63 125h113v125h188v-125h113l62-125h75v-233l125-41v-77z m-425 625h62v63h-62v-63z m-168-125h398l-31 63h-336z m-82-212l281 94 281-94v150h-562v-150z m233-329q8-8 17-13v360l-375-125v-17l98-197q8-15 15-22t12-8q13 0 25 6t22 16q18 20 43 30t50 11 51-11 42-30z m356 8l98 197v17l-375 125v-360q9 5 16 13 19 20 43 30t50 11 51-11 43-30q20-22 47-22 4 0 12 8t14 22z" horiz-adv-x="1000" />
<glyph glyph-name="uniE193" unicode="&#xe8ea;" d="m1000 850v-250q-56 0-92-17t-56-44-30-66-11-79 0-85 2-84h-125v-187l-375-188v375h-125q0 41 1 84t0 85-11 79-30 66-56 44-92 17v250h63v-187h875v187h62z m-375-625h-250v-274l250 125v149z m125 63q0 43-1 85t5 81 21 76 49 70h-648q34-34 49-70t21-76 5-81-1-85h500z" horiz-adv-x="1000" />
<glyph glyph-name="uniE7E7" unicode="&#xe8eb;" d="m0 850h1000v-812h-312l-188-188-187 188h-313v812 0z m813-375h-625v-62h625v62 0z m0 188h-625v-63h625v63 0z m-250-375h-375v-63h375v63 0z" horiz-adv-x="1000" />
<glyph glyph-name="uniE7E8" unicode="&#xe8ec;" d="m531 350h-62v500h62v-500z m104 354q67-22 123-63t96-96 62-121 22-136q0-61-16-117t-44-104-69-89-88-68-104-44-117-16-116 16-105 44-88 68-69 89-44 104-15 117q0 70 22 136t61 121 96 96 123 63l20-60q-58-19-106-54t-82-82-53-103-19-117q0-52 13-100t38-90 59-76 76-58 89-38 100-14 100 14 89 38 76 58 59 76 38 90 13 100q0 61-19 117t-53 103-82 82-106 54z" horiz-adv-x="1000" />
<glyph glyph-name="uniE7EA" unicode="&#xe8ed;" d="m1000 381v-62h-878l197-197-44-44-272 272 272 272 44-44-197-197h878v0z" horiz-adv-x="1000" />
<glyph glyph-name="uniE7EB" unicode="&#xe8ee;" d="m772 575l-44-44-196 196-1-877h-62l0 878-197-197-44 44 272 272 272-272v0z" horiz-adv-x="1000" />
<glyph glyph-name="uniE7EC" unicode="&#xe8ef;" d="m188 288q13 0 24-5t20-14 13-20 5-24-5-24-13-20-20-14-24-4-25 4-20 14-13 20-5 24 5 24 13 20 20 14 25 5z m-32-188q13 0 22-9t10-22-10-22-22-9-22 9-9 22 9 22 22 9z m688 0q12 0 22-9t9-22-9-22-22-9-22 9-9 22 9 22 22 9z m-31 188q13 0 24-5t20-14 13-20 5-24-5-24-13-20-20-14-24-4-25 4-20 14-13 20-5 24 5 24 13 20 20 14 25 5z m169 125l-32-32 50-151v-318q0-13-5-24t-13-20-20-13-24-5h-63q-13 0-24 5t-20 13-14 20-4 24h-625q0-13-5-24t-14-20-20-13-24-5h-62q-14 0-25 5t-20 13-13 20-5 24v318l50 151-32 32h-18v62h44l28-28 36 109q8 24 23 43t35 34 42 22 49 8h486q26 0 49-8t43-22 34-34 23-43l36-109 28 28h44v-62h-18z m-855 0h747l-42 123q-10 29-34 46t-55 18h-486q-31 0-55-18t-34-46z m561-414l-51 101h-274l-50-101v-24h375v24z m250-24v245l-44 130h-788l-43-130v-245h187v39l74 149h352l74-149v-39h188z" horiz-adv-x="1000" />
<glyph glyph-name="uniE7ED" unicode="&#xe8f0;" d="m719 413q45 0 85-18t70-46 46-70 18-85-18-85-46-70-70-47-85-17-85 17-70 47-47 70-17 85 17 85 47 70 70 46 85 18z m-156-219q0-32 12-61t33-50 50-33 61-12q23 0 45 6t41 19l-217 217q-12-19-19-41t-6-45z m286-86q13 19 19 41t7 45q0 32-12 60t-34 50-50 34-60 12q-23 0-45-7t-41-19z m-411-70q6 0 13 1t12 4q9-13 18-26t21-24q-30-18-64-18-26 0-49 10t-40 27-27 39-9 49h-188v63h63v312q0 50 18 96t55 81 81 54 96 19q51 0 97-19t80-54 53-80 20-97h-63q0 39-15 73t-40 60-60 40-72 15q-40 0-73-15t-60-40-40-60-15-73v-312h174q1-17 5-32t9-31h-63q0-13 5-24t13-20 20-14 25-4z" horiz-adv-x="1000" />
<glyph glyph-name="uniE1A6" unicode="&#xe8f1;" d="m861 74q32-16 58-40t43-52 28-63 10-69h-62q0 39-15 73t-41 59-59 41-73 15-73-15-59-41-41-59-14-73h-63q0 36 10 69t28 63 43 52 58 40q-36 27-56 67t-20 84q0 39 14 73t41 59 59 41 73 15 73-15 59-41 41-59 15-73q0-44-21-84t-56-67z m-111 26q25 0 48 10t40 27 27 39 10 49q0 25-10 48t-27 40-40 27-48 10q-26 0-49-10t-39-27-27-40-10-48q0-26 10-49t27-39 39-27 49-10z m-250 125h-500v500h875v-269q-30 17-62 26v181h-750v-375h437v-63z" horiz-adv-x="1000" />
<glyph glyph-name="uniE1A7" unicode="&#xe8f2;" d="m63 288h312v-63h-375v500h875v-201q-16 5-31 14t-31 15v110h-750v-375z m656 187q29 0 53-7t48-21q21-12 43-19t45-10 45-4 47-1v-194q0-43-11-82t-31-73-47-65-58-56-65-49-69-41q-35 19-69 41t-65 49-59 56-46 65-31 73-11 82v194q23 0 46 1t45 4 44 10 43 19q25 14 49 21t54 7z m219-124q-5 1-18 2t-30 6-34 8-33 9-25 9-11 9q-15 10-33 14t-35 5q-19 0-36-5t-34-14q0 0 0 0t-1 0q-34-20-72-30t-76-13v-132q0-51 19-94t50-80 70-67 80-53q40 24 79 53t70 67 51 80 19 94v132z" horiz-adv-x="1000" />
<glyph glyph-name="uniE190" unicode="&#xe8f3;" d="m344 538q-32 0-61-13t-49-34-34-49-12-61 12-60 34-50 49-33 61-13q31 0 60 12t50 34l45-44q-31-31-71-48t-84-16q-46 0-85 17t-70 47-47 69-17 85 17 86 47 69 70 47 85 17q43 0 84-17t71-47l-45-44q-22 22-50 34t-60 12z m375 0q-32 0-61-13t-49-34-34-49-12-61 12-60 34-50 49-33 61-13q31 0 60 12t50 34l45-44q-31-31-71-48t-84-16q-46 0-85 17t-70 47-47 69-17 85 17 86 47 69 70 47 85 17q43 0 84-17t71-47l-45-44q-22 22-50 34t-60 12z m-719 187h1000v-687h-1000v687z m63-625h875v563h-875v-563z" horiz-adv-x="1000" />
<glyph glyph-name="uniE7F1" unicode="&#xe8f4;" d="m875 678v-766q0-13-5-24t-13-20-20-13-24-5h-625q-14 0-25 5t-20 13-13 20-5 24v251l63 62v172l-63 78v313q0 13 5 24t13 20 20 13 25 5h515z m-62-26l-136 136h-489v-291l62-78v-220q-15-16-31-31t-31-31v-225h625v740z m-500 73h62v-187h-62v187z m125 0h62v-187h-62v187z m125 0h62v-187h-62v187z" horiz-adv-x="1000" />
<glyph glyph-name="uniE7F2" unicode="&#xe8f5;" d="m500 538h331l-150 149 44 44 225-225-225-225-44 44 150 150h-331v63z m247-326q19 0 37-7t32-21q10-11 23-22t27-24 26-26 23-28 16-30 7-33q0-19-8-37t-21-32q-25-24-45-43t-41-33-49-19-63-7q-53 0-109 17t-112 45-109 70-100 89-88 101-69 108-45 111-16 107q0 38 6 64t20 48 32 42 44 45q14 13 32 21t37 7q24 0 47-13t43-32 39-40 33-37q14-13 21-31t7-37-6-34-16-28-20-22-21-19-16-19-6-19q0-5 9-18t24-31 35-37 41-42 43-41 39-38 32-31 21-19q10-11 24-11 10 0 19 7t18 16 19 20 23 21 27 16 34 6z m-36-300q30 0 51 6t36 16 31 27 36 35q10 11 10 25 0 6-8 18t-20 27-26 29-29 27-27 20-18 7q-10 0-19-6t-19-16-19-20-22-21-27-16-34-6q-20 0-37 7t-32 22l-233 233q-13 13-21 31t-8 37q0 20 7 34t16 28 20 22 21 19 16 18 6 20q0 6-8 18t-20 26-27 29-29 27-26 20-18 8q-15 0-25-11-20-20-36-35t-26-31-16-37-6-49q0-47 15-97t42-101 65-98 80-92 92-80 99-63 99-42 94-15z" horiz-adv-x="1000" />
<glyph glyph-name="uniE7F3" unicode="&#xe8f6;" d="m820 124l-44 44q18 17 27 40t10 48-10 48-27 41l44 44q27-27 41-61t14-72-14-71-41-61z m89-89l-45 45q35 35 55 81t19 95-19 96-55 81l45 44q44-44 67-101t24-120-24-119-67-102z m-34 503v125h-812v-438h375v-62h-438v562h938v-187h-63z m-169-63h44v-437h-44l-125 125h-81v187h81z m-18-107l-81-80h-44v-63h44l81-81v224z m-71-330h-304v62h242z" horiz-adv-x="1000" />
<glyph glyph-name="uniE7F4" unicode="&#xe8f7;" d="m938 163h-438v-63h125v-62h-312v62h125v63h-438v562h938v-562z m-875 500v-438h812v438h-812z" horiz-adv-x="1000" />
<glyph glyph-name="uniE7F5" unicode="&#xe8f8;" d="m250 725v-813h500v813h-500z m563-875h-625v938h625v-938z m-313 438q-39 0-73 14t-59 41-41 59-14 73 14 73 41 59 59 41 73 15 73-15 59-41 41-59 15-73-15-73-41-59-59-41-73-14z m0 312q-26 0-49-10t-39-27-27-40-10-48q0-26 10-49t27-39 39-27 49-10q25 0 48 10t40 27 27 39 10 49q0 25-10 48t-27 40-40 27-48 10z m0-625q-26 0-49 10t-39 27-27 39-10 49q0 25 10 48t27 40 39 27 49 10q25 0 48-10t40-27 27-40 10-48q0-26-10-49t-27-39-40-27-48-10z m0 188q-13 0-24-5t-20-14-14-20-4-24 4-24 14-20 20-14 24-4 24 4 20 14 14 20 5 24-5 24-14 20-20 14-24 5z m-47 312q0 9 4 18t10 15 15 10 18 4q9 0 18-4t15-10 10-15 4-18q0-10-4-18t-10-15-15-10-18-4q-10 0-18 4t-15 10-10 15-4 18z" horiz-adv-x="1000" />
<glyph glyph-name="uniE7F6" unicode="&#xe8f9;" d="m500 788q52 0 100-14t89-38 76-58 59-76 38-90 13-99v-344q0-20-7-37t-20-30-30-20-37-7h-93v375h93q16 0 32-5v68q0 64-25 121t-67 99-100 67-121 25-121-25-100-67-67-99-24-121v-68q15 5 31 5h94v-375h-94q-20 0-37 7t-30 20-20 30-7 37v344q0 51 13 99t38 90 59 76 76 58 89 38 100 14z m-281-500q-13 0-22-10t-9-22v-187q0-13 9-22t22-9h31v250h-31z m562-250q13 0 22 9t10 22v187q0 13-10 22t-22 10h-31v-250h31z" horiz-adv-x="1000" />
<glyph glyph-name="uniE7F7" unicode="&#xe8fa;" d="m977 168q5-5 9-14t8-18 4-19 2-17q0-12-5-23t-14-20-20-14-23-5h-813q-12 0-23 5t-20 14-14 20-5 23q0 7 1 17t5 19 7 18 10 14l102 101v394h687v-394z m-164 307q-40 0-73-15t-60-40-40-60-15-72h188v187z m-563-187h313q0 51 19 97t54 80 79 53 98 20v62h-563v-312z m688-186q0 1-1 5t-2 7-3 8-2 4l-99 99h-599l-99-99q-2-1-3-4t-2-8-2-7-1-5l2-2h809z" horiz-adv-x="1000" />
<glyph glyph-name="uniE7F8" unicode="&#xe8fb;" d="m977 168q5-5 9-14t8-18 4-19 2-17q0-12-5-23t-14-20-20-14-23-5h-813q-12 0-23 5t-20 14-14 20-5 23q0 7 1 17t5 19 7 18 10 14l102 101v394h687v-394z m-727 120h563v312h-563v-312z m688-186q0 1-1 5t-2 7-3 8-2 4l-99 99h-599l-99-99q-2-1-3-4t-2-8-2-7-1-5l2-2h809z" horiz-adv-x="1000" />
<glyph glyph-name="uniE7F9" unicode="&#xe8fc;" d="m938 850v-625h-938v625h938z m-63-187q-52 0-100-14t-89-38-76-58-59-76-38-90-13-99h375v375z m0 125h-812v-500h375q0 60 15 116t44 104 69 89 88 68 105 44 116 16v63z" horiz-adv-x="1000" />
<glyph glyph-name="uniE7FA" unicode="&#xe8fd;" d="m938 850v-625h-938v625h938z m-500-562q0 51-14 99t-38 90-58 76-76 58-90 38-99 14v-375h375z m437 500h-812v-63q60 0 116-16t104-44 89-68 68-89 44-104 16-116h375v500z" horiz-adv-x="1000" />
<glyph glyph-name="uniE7FB" unicode="&#xe8fe;" d="m938 225h-938v625h938v-625 0z m-875 63h812v500h-812v-500 0z" horiz-adv-x="1000" />
<glyph glyph-name="uniE133" unicode="&#xe8ff;" d="m375 663h625v-63h-625v63z m0-250v62h625v-62h-625z m0-188v63h625v-63h-625z m0-187v62h625v-62h-625z m-281 189l139 140 34-34-173-172-87 87 33 33z m0 375l139 140 34-34-173-172-87 87 33 33z" horiz-adv-x="1000" />
<glyph glyph-name="uniE00A" unicode="&#xe900;" d="m1000 475l-309-237 122-388-313 240-312-240 121 388-309 237h383l117 375 117-375h383v0z" horiz-adv-x="1000" />
<glyph glyph-name="uniE10D" unicode="&#xe901;" d="m563 600h205q-35 35-66 68t-66 60-74 42-93 16q-57 0-108-23t-89-60-60-89-22-108q0-54 20-105t60-89l408-409-44-44-408 409q-48 47-73 109t-26 129q0 47 12 91t35 81 54 70 69 53 81 35 91 12q41 0 75-7t63-21 54-33 51-41 49-49 52-53v206h62v-312h-312v62z" horiz-adv-x="1000" />
<glyph glyph-name="uniE829" unicode="&#xe902;" d="m141 631h718l-218-437h-282l-218 437v0z" horiz-adv-x="1000" />
<glyph glyph-name="uniE82A" unicode="&#xe903;" d="m969 631q-44 0-78-19t-59-50-38-71-13-78v-157h-562v157q0 39-13 78t-38 71-59 50-78 19h938z" horiz-adv-x="1000" />
<glyph glyph-name="uniE82B" unicode="&#xe904;" d="m563 38l-94-94h-235l-187 187q-8 8-12 18t-4 21 4 21 11 18l173 172z" horiz-adv-x="1000" />
<glyph glyph-name="uniE82C" unicode="&#xe905;" d="m609 772l344-344-390-390-344 343 390 391v0z" horiz-adv-x="1000" />
<glyph glyph-name="uniE82D" unicode="&#xe906;" d="m813 850v-1000h-688q-26 0-49 10t-39 27-27 39-10 49v750q0 24 11 47t27 40 40 28 47 10h688z m-63-812h-625q-13 0-24-5t-20-14-14-20-4-24 4-24 14-20 20-14 24-5h625v126z m-687 45q29 17 62 17h625v688h-625q-11 0-22-6t-20-14-15-20-5-23v-642z m125 580h437v-188h-437v188z m62-125h313v62h-313v-62z" horiz-adv-x="1000" />
<glyph glyph-name="uniE82E" unicode="&#xe907;" d="m63-25q0-13 4-24t14-20 20-14 24-5h563v-62h-563q-26 0-49 10t-39 27-27 39-10 49v750q0 24 11 47t27 40 40 28 47 10h688v-500h-63v438h-625q-11 0-22-6t-20-14-15-20-5-23v-642q28 17 62 17h375v-62h-375q-13 0-24-5t-20-14-14-20-4-24z m125 500v188h437v-188h-437z m62 63h313v62h-313v-62z m750-500h-187v-188h-63v188h-187v62h187v188h63v-188h187v-62z" horiz-adv-x="1000" />
<glyph glyph-name="uniE82F" unicode="&#xe908;" d="m469 850q47 0 91-12t82-35 70-54 54-69 34-82 13-92q0-71-27-131t-77-110q-40-40-62-89t-22-107v-125q0-20-7-37t-20-30-30-20-37-7h-125q-19 0-36 7t-30 20-20 30-7 37v125q0 57-22 107t-62 89q-50 49-77 110t-27 131q0 48 12 92t35 82 54 69 69 54 82 35 92 12z m62-938q13 0 22 10t10 22v94h-188v-94q0-13 9-22t22-10h125z m33 188q6 63 32 114t70 96q41 41 62 90t22 106-22 110-60 89-90 60-109 23-110-23-89-60-60-89-22-110 21-106 63-90q43-44 69-96t33-114h190z" horiz-adv-x="1000" />
<glyph glyph-name="uniE830" unicode="&#xe909;" d="m1000 434v-84h-857l277-278-48-48-369 368 369 368 48-49-277-277h857v0z" horiz-adv-x="1000" />
<glyph glyph-name="uniE835" unicode="&#xe90a;" d="m743 417l-60-25q5-19 5-42t-5-42l60-25-24-57-60 24q-23-36-59-59l25-60-58-24-25 60q-19-4-42-4t-42 4l-25-60-57 24 24 60q-36 23-59 59l-60-24-24 57 60 25q-4 20-4 42t4 42l-60 25 24 58 60-25q23 36 59 59l-24 60 57 24 25-60q20 5 42 5t42-5l25 60 58-24-25-60q36-23 59-59l60 25z m-243-192q25 0 48 10t40 27 27 39 10 49q0 25-10 48t-27 40-40 27-48 10q-26 0-49-10t-39-27-27-40-10-48q0-26 10-49t27-39 39-27 49-10z m380-219l-112-112-36 37 44 44h-651v250h63v-187h588l-44 44 36 36z m-648 576l-112 112 112 112 36-37-44-44h651v-250h-62v188h-589l44-45z" horiz-adv-x="1000" />
<glyph glyph-name="uniE836" unicode="&#xe90b;" d="m500 163v-63h125v-62h-312v62h125v63h-188v-125h-250v375h63v250h812v-375h-62v312h-688v-187h125v-188h500v-62h-250z m-312-63v250h-125v-250h125z m687 0h125v-62h-125v-126h-62v126h-125v62h125v125h62v-125z" horiz-adv-x="1000" />
<glyph glyph-name="uniE83A" unicode="&#xe90c;" d="m349 588q12-9 19-22t7-28q0-14-5-25t-13-20-20-13-24-5q-13 0-25 5t-21 15q-37-20-79-20t-80 20q-9-10-21-15t-24-5q-14 0-25 5t-20 13-13 20-5 25q0 15 7 28t19 22q-10 28-10 59 0 27 8 52t23 46 35 38 46 26q7 18 23 30t37 11 36-11 23-30q25-10 46-26t35-38 23-46 8-52q0-31-10-59z m-228-28q14-11 31-17t36-5 35 5 31 17q8 21 28 32 15 25 15 55 0 32-17 59t-46 40q-9-10-21-16t-25-5-26 5-21 16q-29-14-46-40t-17-59q0-30 15-55 20-11 28-32z" horiz-adv-x="1000" />
<glyph glyph-name="uniE83B" unicode="&#xe90d;" d="m688 788q12 0 24-5t20-14 13-20 5-24v-813h-500v813q0 13 5 24t13 20 20 14 25 5h375z m0-63h-375v-750h375v750z m-63-125h-250v63h250v-63z m0-437h-250v62h250v-62z m0-125h-250v62h250v-62z" horiz-adv-x="1000" />
<glyph glyph-name="uniE83C" unicode="&#xe90e;" d="m250 225h63v-62h-63v62z m188 0h62v-62h-62v62z m187 0h63v-62h-63v62z m-375-187h63v-63h-63v63z m188 0h62v-63h-62v63z m187 0h63v-63h-63v63z m-156 687q31 0 65-3t70-11 68-19 65-28 57-37 46-48q16-23 26-50t9-54v-62q0-13-5-25t-13-20-20-13-24-5h-125q-13 0-25 5t-20 13-13 20-5 25v62h-312v-62q0-13-5-25t-14-20-20-13-24-5h-125q-13 0-24 5t-20 13-14 20-4 25v62q0 28 9 54t26 50q19 26 46 48t57 37 64 28 69 19 69 11 66 3z m344-250q0 22-9 41t-21 35-31 29-34 23q-27 16-57 27t-63 19-65 10-64 4-64-4-65-10-63-19-58-27q-17-10-34-23t-30-29-22-35-8-41v-62h125v62q0 13 5 24t13 20 20 14 25 5h312q13 0 24-5t20-14 14-20 5-24v-62h125v62z" horiz-adv-x="1000" />
<glyph glyph-name="uniE83D" unicode="&#xe90f;" d="m688 725h187v-750h-812v750h187v-125h125v125h188v-125h125v125z m-563-375v-125h313v125h-313z m438-187h-188v-125h188v125z m-63 62h313v125h-313v-125z m63 188v125h-188v-125h188z m-125 250v-63h62v63h-62z m-313 0v-63h63v63h-63z m188-125h-188v-125h188v125z m-188-375v-125h188v125h-188z m500-125h188v125h-188v-125z m188 375v125h-188v-125h188z m-63 187h63v63h-63v-63z" horiz-adv-x="1000" />
<glyph glyph-name="uniE83E" unicode="&#xe910;" d="m906 319v-63h-31v-156h-687v31h656v313h-594v31h625v-156h31z m-687 78q0-14-5-26t-13-23-20-18-25-10v-220h-31v220q-14 3-25 10t-20 18-13 23-4 26v78h31v63h31v-63h31v63h32v-63h31v-78z m-125 0q0-20 13-33t34-14 33 14 14 33v47h-94v-47z m94-99q28 14 45 41t17 58v16h500v-250h-562v135z" horiz-adv-x="1000" />
<glyph glyph-name="uniE83F" unicode="&#xe911;" d="m906 319v-63h-31v-156h-750v375h750v-156h31z m-62 125h-688v-313h688v313z m-31-281h-625v250h625v-250z" horiz-adv-x="1000" />
<glyph glyph-name="uniE840" unicode="&#xe912;" d="m972 485q-16-16-32-30t-32-22-35-15-44-5q-16 0-32 3l-185-185q7-19 10-38t3-39q0-32-7-58t-18-49-29-43-39-43l-188 189-278-278-66-22 22 66 278 278-189 188 22 22q35 34 79 52t92 19q40 0 77-13l185 185q-3 16-3 32 0 24 5 43t15 36 22 32 30 32z m-143-9q27 0 51 12l-242 242q-12-24-12-51 0-14 3-25t7-25l-240-240q-13 5-23 9t-22 8-22 4-25 2q-28 0-54-8t-48-24l328-328q16 22 24 48t9 54q0 13-2 24t-5 23-8 22-9 23l240 240q13-4 25-7t25-3z" horiz-adv-x="1000" />
<glyph glyph-name="uniE841" unicode="&#xe913;" d="m861 506q17 30 46 46t62 17v-375q-34 0-62 16t-46 46h-278q-10-28-28-51t-41-39-50-26-58-9v500q30 0 58-9t50-25 41-40 28-51h278v0z" horiz-adv-x="1000" />
<glyph glyph-name="uniE842" unicode="&#xe914;" d="m928 485q-20-20-46-30t-53-11q-22 0-41 6l-212-211q9-20 13-42t5-43q0-42-16-80t-46-69l-377 377q30 30 69 46t80 16q22 0 43-5t42-13l211 212q-6 19-6 41 0 27 11 53t30 46z" horiz-adv-x="1000" />
<glyph glyph-name="uniE843" unicode="&#xe915;" d="m147 206q33 0 60-12t47-33 31-50 11-60-11-60-31-49-47-34-60-13q-32 0-59 13t-46 34-31 50-11 59q0 31 11 60t30 49 47 34 59 12z m0-245q19 0 35 7t27 20 17 28 6 35-6 35-17 28-27 19-35 8q-20 0-35-8t-26-19-17-28-5-35q0-18 5-34t17-29 27-19 34-8z" horiz-adv-x="295.9" />
<glyph glyph-name="uniE845" unicode="&#xe916;" d="m563 600q75 0 143-28t122-82 81-121 29-144q0-52-14-100t-38-89-58-76-76-59-90-38-99-13h-438v62h438q43 0 83 12t74 31 63 49 49 63 32 75 11 83-11 83-32 75-49 63-63 49-74 31-83 12h-401l208-209-36-36-277 276 277 276 36-36-208-209h401z" horiz-adv-x="1000" />
<glyph glyph-name="uniE846" unicode="&#xe917;" d="m63-88v63h187v-63h-187z m522 835l365-366-365-365-44 44 290 290h-768v30 33h768l-290 290z" horiz-adv-x="1000" />
<glyph glyph-name="uniE847" unicode="&#xe918;" d="m63-88v63h375v-63h-375z m522 835l365-366-365-365-44 44 290 290h-768v63h768l-290 290z" horiz-adv-x="1000" />
<glyph glyph-name="uniE848" unicode="&#xe919;" d="m162 818v-168q0-25-3-51t-11-51-21-47-30-38-41-26-54-9v76q19 0 32 7t23 19 15 27 8 31 5 32 1 30h-86v168h162z" horiz-adv-x="162.1" />
</font>
</defs>
</svg>
